<svg width="332" height="331" viewBox="0 0 332 331" fill="none" xmlns="http://www.w3.org/2000/svg">
<g opacity="0.1" clip-path="url(#clip0_2_220)">
<circle cx="5" cy="5" r="5" fill="white"/>
<circle cx="37.0526" cy="5" r="5" fill="white"/>
<circle cx="69.1052" cy="5" r="5" fill="white"/>
<circle cx="101.158" cy="5" r="5" fill="white"/>
<circle cx="133.211" cy="5" r="5" fill="white"/>
<circle cx="165.263" cy="5" r="5" fill="white"/>
<circle cx="197.316" cy="5" r="5" fill="white"/>
<circle cx="229.368" cy="5" r="5" fill="white"/>
<circle cx="261.421" cy="5" r="5" fill="white"/>
<circle cx="293.474" cy="5" r="5" fill="white"/>
<circle cx="325.526" cy="5" r="5" fill="white"/>
<g clip-path="url(#clip1_2_220)">
<circle cx="5" cy="37.05" r="5" fill="white"/>
<circle cx="37.0526" cy="37.05" r="5" fill="white"/>
<circle cx="69.1052" cy="37.05" r="5" fill="white"/>
<circle cx="101.158" cy="37.05" r="5" fill="white"/>
<circle cx="133.211" cy="37.05" r="5" fill="white"/>
<circle cx="165.263" cy="37.05" r="5" fill="white"/>
<circle cx="197.316" cy="37.05" r="5" fill="white"/>
<circle cx="229.368" cy="37.05" r="5" fill="white"/>
<circle cx="261.421" cy="37.05" r="5" fill="white"/>
<circle cx="293.474" cy="37.05" r="5" fill="white"/>
<circle cx="325.526" cy="37.05" r="5" fill="white"/>
</g>
<circle cx="6" cy="69" r="5" fill="white"/>
<circle cx="38.0526" cy="69" r="5" fill="white"/>
<circle cx="70.1052" cy="69" r="5" fill="white"/>
<circle cx="102.158" cy="69" r="5" fill="white"/>
<circle cx="134.211" cy="69" r="5" fill="white"/>
<circle cx="166.263" cy="69" r="5" fill="white"/>
<circle cx="198.316" cy="69" r="5" fill="white"/>
<circle cx="230.368" cy="69" r="5" fill="white"/>
<circle cx="262.421" cy="69" r="5" fill="white"/>
<circle cx="294.474" cy="69" r="5" fill="white"/>
<circle cx="326.526" cy="69" r="5" fill="white"/>
<circle cx="6" cy="101" r="5" fill="white"/>
<circle cx="38.0526" cy="101" r="5" fill="white"/>
<circle cx="70.1052" cy="101" r="5" fill="white"/>
<circle cx="102.158" cy="101" r="5" fill="white"/>
<circle cx="134.211" cy="101" r="5" fill="white"/>
<circle cx="166.263" cy="101" r="5" fill="white"/>
<circle cx="198.316" cy="101" r="5" fill="white"/>
<circle cx="230.368" cy="101" r="5" fill="white"/>
<circle cx="262.421" cy="101" r="5" fill="white"/>
<circle cx="294.474" cy="101" r="5" fill="white"/>
<circle cx="326.526" cy="101" r="5" fill="white"/>
<circle cx="6" cy="133" r="5" fill="white"/>
<circle cx="38.0526" cy="133" r="5" fill="white"/>
<circle cx="70.1052" cy="133" r="5" fill="white"/>
<circle cx="102.158" cy="133" r="5" fill="white"/>
<circle cx="134.211" cy="133" r="5" fill="white"/>
<circle cx="166.263" cy="133" r="5" fill="white"/>
<circle cx="198.316" cy="133" r="5" fill="white"/>
<circle cx="230.368" cy="133" r="5" fill="white"/>
<circle cx="262.421" cy="133" r="5" fill="white"/>
<circle cx="294.474" cy="133" r="5" fill="white"/>
<circle cx="326.526" cy="133" r="5" fill="white"/>
<circle cx="6" cy="165" r="5" fill="white"/>
<circle cx="38.0526" cy="165" r="5" fill="white"/>
<circle cx="70.1052" cy="165" r="5" fill="white"/>
<circle cx="102.158" cy="165" r="5" fill="white"/>
<circle cx="134.211" cy="165" r="5" fill="white"/>
<circle cx="166.263" cy="165" r="5" fill="white"/>
<circle cx="198.316" cy="165" r="5" fill="white"/>
<circle cx="230.368" cy="165" r="5" fill="white"/>
<circle cx="262.421" cy="165" r="5" fill="white"/>
<circle cx="294.474" cy="165" r="5" fill="white"/>
<circle cx="326.526" cy="165" r="5" fill="white"/>
<circle cx="6" cy="197" r="5" fill="white"/>
<circle cx="38.0526" cy="197" r="5" fill="white"/>
<circle cx="70.1052" cy="197" r="5" fill="white"/>
<circle cx="102.158" cy="197" r="5" fill="white"/>
<circle cx="134.211" cy="197" r="5" fill="white"/>
<circle cx="166.263" cy="197" r="5" fill="white"/>
<circle cx="198.316" cy="197" r="5" fill="white"/>
<circle cx="230.368" cy="197" r="5" fill="white"/>
<circle cx="262.421" cy="197" r="5" fill="white"/>
<circle cx="294.474" cy="197" r="5" fill="white"/>
<circle cx="326.526" cy="197" r="5" fill="white"/>
<circle cx="6" cy="229" r="5" fill="white"/>
<circle cx="38.0526" cy="229" r="5" fill="white"/>
<circle cx="70.1052" cy="229" r="5" fill="white"/>
<circle cx="102.158" cy="229" r="5" fill="white"/>
<circle cx="134.211" cy="229" r="5" fill="white"/>
<circle cx="166.263" cy="229" r="5" fill="white"/>
<circle cx="198.316" cy="229" r="5" fill="white"/>
<circle cx="230.368" cy="229" r="5" fill="white"/>
<circle cx="262.421" cy="229" r="5" fill="white"/>
<circle cx="294.474" cy="229" r="5" fill="white"/>
<circle cx="326.526" cy="229" r="5" fill="white"/>
<circle cx="6" cy="261" r="5" fill="white"/>
<circle cx="38.0526" cy="261" r="5" fill="white"/>
<circle cx="70.1052" cy="261" r="5" fill="white"/>
<circle cx="102.158" cy="261" r="5" fill="white"/>
<circle cx="134.211" cy="261" r="5" fill="white"/>
<circle cx="166.263" cy="261" r="5" fill="white"/>
<circle cx="198.316" cy="261" r="5" fill="white"/>
<circle cx="230.368" cy="261" r="5" fill="white"/>
<circle cx="262.421" cy="261" r="5" fill="white"/>
<circle cx="294.474" cy="261" r="5" fill="white"/>
<circle cx="326.526" cy="261" r="5" fill="white"/>
<circle cx="6" cy="293" r="5" fill="white"/>
<circle cx="38.0526" cy="293" r="5" fill="white"/>
<circle cx="70.1052" cy="293" r="5" fill="white"/>
<circle cx="102.158" cy="293" r="5" fill="white"/>
<circle cx="134.211" cy="293" r="5" fill="white"/>
<circle cx="166.263" cy="293" r="5" fill="white"/>
<circle cx="198.316" cy="293" r="5" fill="white"/>
<circle cx="230.368" cy="293" r="5" fill="white"/>
<circle cx="262.421" cy="293" r="5" fill="white"/>
<circle cx="294.474" cy="293" r="5" fill="white"/>
<circle cx="326.526" cy="293" r="5" fill="white"/>
<circle cx="6" cy="325" r="5" fill="white"/>
<circle cx="38.0526" cy="325" r="5" fill="white"/>
<circle cx="70.1052" cy="325" r="5" fill="white"/>
<circle cx="102.158" cy="325" r="5" fill="white"/>
<circle cx="134.211" cy="325" r="5" fill="white"/>
<circle cx="166.263" cy="325" r="5" fill="white"/>
<circle cx="198.316" cy="325" r="5" fill="white"/>
<circle cx="230.368" cy="325" r="5" fill="white"/>
<circle cx="262.421" cy="325" r="5" fill="white"/>
<circle cx="294.474" cy="325" r="5" fill="white"/>
<circle cx="326.526" cy="325" r="5" fill="white"/>
</g>
<defs>
<clipPath id="clip0_2_220">
<rect width="332" height="331" fill="white"/>
</clipPath>
<clipPath id="clip1_2_220">
<rect width="619" height="10" fill="white" transform="translate(0 32.05)"/>
</clipPath>
</defs>
</svg>