<svg width="395" height="10" viewBox="0 0 395 10" fill="none" xmlns="http://www.w3.org/2000/svg">
<g clip-path="url(#clip0_2_666)">
<path d="M-19.5 1.5L-12.7333 8.5L-5.96667 1.5L0.799999 8.5L7.56667 1.5L14.3333 8.5L21.1 1.5L27.8667 8.5L34.6333 1.5L41.4 8.5L48.1667 1.5L54.9333 8.5L61.7 1.5L68.4667 8.5L75.2333 1.5L82 8.5L88.7667 1.5L95.5333 8.5L102.3 1.5L109.067 8.5L115.833 1.5L122.6 8.5L129.367 1.5L136.133 8.5L142.9 1.5L149.667 8.5L156.433 1.5L163.2 8.5L169.967 1.5L176.733 8.5L183.5 1.5L190.5 8.5L197.5 1.5L204.5 8.5L211.5 1.5L218.5 8.5L225.5 1.5L232.5 8.5L239.5 1.5L246.5 8.5L253.5 1.5L260.5 8.5L267.5 1.5L274.5 8.5L281.5 1.5L288.5 8.5L295.5 1.5L302.5 8.5L309.5 1.5L316.5 8.5L323.5 1.5L330.5 8.5L337.5 1.5L344.5 8.5L351.5 1.5L358.5 8.5L365.5 1.5L372.5 8.5L379.5 1.5L386.5 8.5L393.5 1.5L400.5 8.5L407.5 1.5L414.5 8.5" stroke="#308FFF" stroke-width="2"/>
</g>
<defs>
<clipPath id="clip0_2_666">
<rect width="395" height="10" fill="white"/>
</clipPath>
</defs>
</svg>