<svg xmlns="http://www.w3.org/2000/svg" width="253.121" height="72.139" viewBox="0 0 253.121 72.139">
  <g id="Group_466" data-name="Group 466" transform="translate(7306 2625)">
    <path id="flash" d="M154.56,24.875H137.52L153.316,0h-19.9L114.759,37.313h14.677L114.759,72.139Z" transform="translate(-7338.742 -2625)" fill="#fd1016"/>
    <path id="Path_16" data-name="Path 16" d="M562.732-141.561l-5.216,19.85-5.666-19.85H546.9l-5.666,19.85-5.216-19.85h-6.079l8.1,26.266h6.116l5.216-17.9,5.216,17.9h6.116l8.105-26.266Zm8.968,13.133c0,7.129,4.653,13.658,13.958,13.658s13.959-6.529,13.959-13.658-4.653-13.658-13.959-13.658S571.7-135.557,571.7-128.428Zm22.139,0c0,4.615-2.739,8.443-8.18,8.443-5.478,0-8.217-3.827-8.217-8.443s2.739-8.443,8.217-8.443C591.1-136.87,593.839-133.043,593.839-128.428Zm17.448,13.133v-9.193h4.127l7.092,9.193H629l-7.842-9.906a7.591,7.591,0,0,0,5.741-7.8c0-6.642-5.328-8.555-10.431-8.555H605.658v26.266Zm0-21.313h5.441c2.364,0,4.428,1.013,4.428,3.715,0,2.664-2.064,3.715-4.428,3.715h-5.441Zm28.367,21.313v-10.732h4.24l7.167,10.732h6.229l-9.006-13.471,8.518-12.8h-6.266l-6.642,10.431h-4.24v-10.431h-5.628v26.266Z" transform="translate(-7710.169 -2463.681)" fill="#fff"/>
    <path id="Path_15" data-name="Path 15" d="M2.587-139.3v5.066h8.067v21.2h5.591v-21.2h8.067V-139.3Zm44.315,0v10.581H35.119V-139.3H29.491v26.266h5.628v-10.581H46.9v10.581H52.53V-139.3Zm13.133,0v26.266H78.759v-4.953h-13.1v-5.854H77.408v-4.915H65.663v-5.591h12.87V-139.3Z" transform="translate(-7308.587 -2465.901)" fill="#fff"/>
  </g>
</svg>
