<svg xmlns="http://www.w3.org/2000/svg" width="447.896" height="127.649" viewBox="0 0 447.896 127.649">
  <g id="Group_480" data-name="Group 480" transform="translate(7306 2625)">
    <path id="flash" d="M185.186,44.017H155.034L182.985,0H147.771L114.759,66.025h25.97l-25.97,61.623Z" transform="translate(-7275.63 -2625)" fill="#fd1016"/>
    <path id="Path_16" data-name="Path 16" d="M587.968-141.156l-9.229,35.124-10.026-35.124h-8.764l-10.026,35.124-9.229-35.124H529.937l14.342,46.478H555.1l9.229-31.671,9.229,31.671h10.823l14.342-46.478Zm15.869,23.239c0,12.615,8.233,24.168,24.7,24.168s24.7-11.553,24.7-24.168-8.233-24.168-24.7-24.168S603.836-130.533,603.836-117.918Zm39.174,0c0,8.167-4.847,14.939-14.475,14.939-9.694,0-14.541-6.772-14.541-14.939s4.847-14.939,14.541-14.939C638.163-132.857,643.01-126.084,643.01-117.918Zm30.874,23.239v-16.267h7.3l12.549,16.267h11.486l-13.877-17.529c5.644-1.793,10.159-5.843,10.159-13.81,0-11.752-9.428-15.138-18.458-15.138H663.925v46.478Zm0-37.713h9.627c4.183,0,7.835,1.793,7.835,6.573,0,4.714-3.652,6.573-7.835,6.573h-9.627Zm50.2,37.713v-18.989h7.5l12.682,18.989h11.022l-15.935-23.836,15.072-22.641H743.336L731.583-122.7h-7.5v-18.458h-9.959v46.478Z" transform="translate(-7613.392 -2448.882)"/>
    <path id="Path_15" data-name="Path 15" d="M2.587-139.3v8.964H16.862v37.514h9.893v-37.514H41.031V-139.3ZM81-139.3v18.724H60.153V-139.3H50.193v46.478h9.959v-18.724H81v18.724h9.959V-139.3Zm23.239,0v46.478h33.132v-8.764H114.2v-10.358h20.782v-8.7H114.2v-9.893h22.774V-139.3Z" transform="translate(-7308.587 -2450.666)"/>
  </g>
</svg>
