<svg>

    <svg id="clock" width="16" height="16" viewBox="0 0 16 16" fill="none" xmlns="http://www.w3.org/2000/svg">
        <path d="M8 14.6667C11.6819 14.6667 14.6667 11.6819 14.6667 8C14.6667 4.3181 11.6819 1.33333 8 1.33333C4.3181 1.33333 1.33334 4.3181 1.33334 8C1.33334 11.6819 4.3181 14.6667 8 14.6667Z" stroke="var(--akcent-color)" stroke-width="1.5" stroke-linecap="round" stroke-linejoin="round"/>
        <path d="M8 4V8L10.6667 9.33333" stroke="var(--akcent-color)" stroke-width="1.5" stroke-linecap="square" stroke-linejoin="round"/>
    </svg>

    <svg id="place" width="16" height="16" viewBox="0 0 16 16" fill="none" xmlns="http://www.w3.org/2000/svg">
        <g clip-path="url(#clip0_30_45)">
            <path d="M14 6.66667C14 11.3333 8 15.3333 8 15.3333C8 15.3333 2 11.3333 2 6.66667C2 5.07537 2.63214 3.54925 3.75736 2.42403C4.88258 1.29881 6.4087 0.666672 8 0.666672C9.5913 0.666672 11.1174 1.29881 12.2426 2.42403C13.3679 3.54925 14 5.07537 14 6.66667Z" stroke="var(--akcent-color)" stroke-width="1.5" stroke-linecap="round"/>
            <path d="M8 8.66667C9.10457 8.66667 10 7.77124 10 6.66667C10 5.5621 9.10457 4.66667 8 4.66667C6.89543 4.66667 6 5.5621 6 6.66667C6 7.77124 6.89543 8.66667 8 8.66667Z" stroke="var(--akcent-color)" stroke-width="1.5" stroke-linecap="round" stroke-linejoin="round"/>
        </g>
        <defs>
            <clipPath id="clip0_30_45">
                <rect width="16" height="16" fill="white"/>
            </clipPath>
        </defs>
    </svg>

    <svg id="phone" width="16" height="16" viewBox="0 0 16 16" fill="none" xmlns="http://www.w3.org/2000/svg">
        <path d="M14.6666 11.28V13.28C14.6674 13.4657 14.6294 13.6494 14.555 13.8196C14.4806 13.9897 14.3715 14.1424 14.2347 14.2679C14.0979 14.3934 13.9364 14.489 13.7605 14.5485C13.5846 14.6079 13.3982 14.63 13.2133 14.6133C11.1619 14.3904 9.19131 13.6894 7.45997 12.5667C5.84919 11.5431 4.48353 10.1774 3.45998 8.56666C2.33329 6.82747 1.63214 4.84733 1.41331 2.78666C1.39665 2.60231 1.41856 2.41651 1.47764 2.24108C1.53673 2.06566 1.63169 1.90446 1.75649 1.76775C1.88128 1.63103 2.03318 1.5218 2.2025 1.44701C2.37183 1.37222 2.55487 1.33351 2.73998 1.33333H4.73998C5.06351 1.33015 5.37717 1.44472 5.62248 1.65569C5.8678 1.86666 6.02803 2.15963 6.07331 2.48C6.15772 3.12004 6.31428 3.74848 6.53998 4.35333C6.62967 4.59195 6.64908 4.85127 6.59591 5.10058C6.54274 5.3499 6.41922 5.57874 6.23997 5.76L5.39331 6.60666C6.34235 8.27569 7.72428 9.65763 9.39331 10.6067L10.24 9.76C10.4212 9.58076 10.6501 9.45723 10.8994 9.40406C11.1487 9.35089 11.408 9.3703 11.6466 9.46C12.2515 9.6857 12.8799 9.84225 13.52 9.92666C13.8438 9.97235 14.1396 10.1355 14.351 10.385C14.5624 10.6345 14.6748 10.953 14.6666 11.28Z" stroke="var(--akcent-color)" stroke-width="1.5" stroke-linecap="round"/>
    </svg>

    <svg id="search" width="20" height="20" viewBox="0 0 20 20" fill="none" xmlns="http://www.w3.org/2000/svg">
        <path d="M9.16667 15.8333C12.8486 15.8333 15.8333 12.8486 15.8333 9.16667C15.8333 5.48477 12.8486 2.5 9.16667 2.5C5.48477 2.5 2.5 5.48477 2.5 9.16667C2.5 12.8486 5.48477 15.8333 9.16667 15.8333Z" stroke="#C7C7C7" stroke-width="2" stroke-linecap="round" stroke-linejoin="round"/>
        <path d="M17.5 17.5L13.875 13.875" stroke="#C7C7C7" stroke-width="2" stroke-linecap="round" stroke-linejoin="round"/>
    </svg>

    <svg id="mark" width="24" height="24" viewBox="0 0 24 24" fill="none" xmlns="http://www.w3.org/2000/svg">
        <path d="M0 12C0 5.37258 5.37258 0 12 0C18.6274 0 24 5.37258 24 12C24 18.6274 18.6274 24 12 24C5.37258 24 0 18.6274 0 12Z" fill="#1D2A2A"/>
        <path d="M17.3728 8.39999L10.1728 15.6L6.90002 12.3273" stroke-width="2" stroke="#fff" stroke-linecap="square"/>
    </svg>

    <svg id="attention" width="80" height="81" viewBox="0 0 80 81" fill="none" xmlns="http://www.w3.org/2000/svg">
        <rect y="0.888428" width="80" height="80" rx="5" fill="#DB504B"/>
        <path d="M39.6667 57.2218C48.8714 57.2218 56.3334 49.7599 56.3334 40.5551C56.3334 31.3504 48.8714 23.8884 39.6667 23.8884C30.4619 23.8884 23 31.3504 23 40.5551C23 49.7599 30.4619 57.2218 39.6667 57.2218Z" stroke="white" stroke-width="3" stroke-linecap="round" stroke-linejoin="round"/>
        <path d="M40 47.8884H40.0125" stroke="white" stroke-width="3" stroke-linecap="round" stroke-linejoin="round"/>
        <path d="M40 33.8884V40.5551" stroke="white" stroke-width="3" stroke-linecap="round" stroke-linejoin="round"/>
    </svg>

    <svg id="file" width="32" height="32" viewBox="0 0 32 32" fill="none" xmlns="http://www.w3.org/2000/svg">
        <path d="M12 19H20" stroke="var(--text-color)" stroke-width="2" stroke-linecap="round" stroke-linejoin="round"/>
        <path d="M12 15H20" stroke="var(--text-color)" stroke-width="2" stroke-linecap="round" stroke-linejoin="round"/>
        <path d="M20.0002 5H25C25.2652 5 25.5196 5.10536 25.7071 5.29289C25.8946 5.48043 26 5.73478 26 6V27C26 27.2652 25.8946 27.5196 25.7071 27.7071C25.5196 27.8946 25.2652 28 25 28H7C6.73478 28 6.48043 27.8946 6.29289 27.7071C6.10536 27.5196 6 27.2652 6 27V6C6 5.73478 6.10536 5.48043 6.29289 5.29289C6.48043 5.10536 6.73478 5 7 5H11.9997" stroke="var(--text-color)" stroke-width="2" stroke-linecap="round" stroke-linejoin="round"/>
        <path d="M11 9V8C11 6.67392 11.5268 5.40215 12.4645 4.46447C13.4021 3.52678 14.6739 3 16 3C17.3261 3 18.5979 3.52678 19.5355 4.46447C20.4732 5.40215 21 6.67392 21 8V9H11Z" stroke="var(--text-color)" stroke-width="2" stroke-linecap="round" stroke-linejoin="round"/>
    </svg>

    <svg id="price-attention" width="80" height="81" viewBox="0 0 80 81" fill="none" xmlns="http://www.w3.org/2000/svg">
        <rect y="0.888428" width="80" height="80" rx="5" fill="#8FAE59"/>
        <path d="M28.9216 47H27.4216V50H28.9216V47ZM42.8434 50H44.3434V47H42.8434V50ZM28.9216 50H42.8434V47H28.9216V50Z" fill="white"/>
        <path d="M32.4841 54.75V56.25H35.4841V54.75H32.4841ZM33.9841 27.25V25.75C33.1557 25.75 32.4841 26.4216 32.4841 27.25H33.9841ZM51.7026 35.375H53.2026H51.7026ZM28.9216 42H27.4216V45H28.9216V42ZM35.4841 54.75V27.25H32.4841V54.75H35.4841ZM33.9841 28.75H43.4762V25.75H33.9841V28.75ZM43.4762 28.75C45.2661 28.75 46.979 29.4525 48.2391 30.697L50.3472 28.5625C48.5218 26.7596 46.0498 25.75 43.4762 25.75V28.75ZM48.2391 30.697C49.4985 31.9409 50.2026 33.624 50.2026 35.375H53.2026C53.2026 32.8162 52.1733 30.3661 50.3472 28.5625L48.2391 30.697ZM50.2026 35.375C50.2026 37.126 49.4985 38.8091 48.2391 40.053L50.3472 42.1875C52.1733 40.3839 53.2026 37.9338 53.2026 35.375H50.2026ZM48.2391 40.053C46.979 41.2975 45.2661 42 43.4762 42V45C46.0498 45 48.5218 43.9904 50.3472 42.1875L48.2391 40.053ZM43.4762 42H28.9216V45H43.4762V42Z" fill="white"/>
    </svg>

    <svg id="facebook" width="32" height="32" viewBox="0 0 32 32" fill="none" xmlns="http://www.w3.org/2000/svg">
        <path d="M18.5016 29.1115V16.0542H22.106L22.5836 11.5546H18.5016L18.5077 9.30251C18.5077 8.12894 18.6192 7.50012 20.3048 7.50012H22.5581V3H18.9532C14.6232 3 13.0991 5.18279 13.0991 8.85357V11.5551H10.4V16.0547H13.0991V29.1115H18.5016Z" fill="#3B5998"/>
    </svg>

    <svg id="youtube" width="32" height="32" viewBox="0 0 32 32" fill="none" xmlns="http://www.w3.org/2000/svg">
        <path fill-rule="evenodd" clip-rule="evenodd" d="M25.8016 7.54933C26.9031 7.85159 27.7706 8.74221 28.065 9.87322C28.6 11.923 28.6 16.2 28.6 16.2C28.6 16.2 28.6 20.4768 28.065 22.5268C27.7706 23.6578 26.9031 24.5484 25.8016 24.8508C23.8054 25.4 15.8 25.4 15.8 25.4C15.8 25.4 7.79462 25.4 5.79825 24.8508C4.69673 24.5484 3.82924 23.6578 3.53484 22.5268C3 20.4768 3 16.2 3 16.2C3 16.2 3 11.923 3.53484 9.87322C3.82924 8.74221 4.69673 7.85159 5.79825 7.54933C7.79462 7 15.8 7 15.8 7C15.8 7 23.8054 7 25.8016 7.54933ZM13.4 12.6001V20.6001L19.8 16.6003L13.4 12.6001Z" fill="#FF0000"/>
    </svg>

    <svg id="ok" width="32" height="32" viewBox="0 0 32 32" fill="none" xmlns="http://www.w3.org/2000/svg">
        <path d="M18.596 21.4403L22.1826 24.9028C22.9174 25.6106 22.9174 26.7601 22.1826 27.4686C21.4486 28.1771 20.259 28.1771 19.5257 27.4686L15.9993 24.0661L12.476 27.4686C12.1086 27.8225 11.6272 27.9996 11.1458 27.9996C10.6652 27.9996 10.1846 27.8225 9.81719 27.4686C9.0832 26.7601 9.0832 25.6113 9.81643 24.9028L13.4035 21.4403C12.0975 21.1531 10.838 20.6536 9.67784 19.951C8.79989 19.4167 8.53616 18.2972 9.08934 17.449C9.64099 16.5996 10.8011 16.3439 11.6806 16.8783C14.3072 18.4732 17.6907 18.4736 20.3188 16.8783C21.1983 16.3439 22.3581 16.5996 22.9109 17.449C23.464 18.2964 23.1995 19.4167 22.3216 19.951C21.1615 20.6543 19.9019 21.1531 18.596 21.4403Z" fill="#F68634"/>
        <path fill-rule="evenodd" clip-rule="evenodd" d="M9.56775 10.1936C9.56775 13.6079 12.4454 16.3853 15.9837 16.3853C19.5227 16.3853 22.3996 13.6079 22.3996 10.1936C22.3996 6.77811 19.5227 4 15.9837 4C12.4454 4 9.56775 6.77811 9.56775 10.1936ZM18.6402 10.1938C18.6402 8.77974 17.4486 7.62988 15.9837 7.62988C14.5199 7.62988 13.3272 8.77974 13.3272 10.1938C13.3272 11.6068 14.5199 12.7574 15.9837 12.7574C17.4486 12.7574 18.6402 11.6068 18.6402 10.1938Z" fill="#F68634"/>
    </svg>

    <svg id="car" width="37" height="36" viewBox="0 0 37 36" fill="none" xmlns="http://www.w3.org/2000/svg">
        <path d="M2.75 16.875H34.25" stroke-width="2" stroke-linecap="round" stroke-linejoin="round"/>
        <path d="M32 25.875V29.25C32 29.5484 31.8815 29.8345 31.6705 30.0455C31.4595 30.2565 31.1734 30.375 30.875 30.375H27.5C27.2016 30.375 26.9155 30.2565 26.7045 30.0455C26.4935 29.8345 26.375 29.5484 26.375 29.25V25.875" stroke-width="2" stroke-linecap="round" stroke-linejoin="round"/>
        <path d="M10.625 25.875V29.25C10.625 29.5484 10.5065 29.8345 10.2955 30.0455C10.0845 30.2565 9.79837 30.375 9.5 30.375H6.125C5.82663 30.375 5.54048 30.2565 5.32951 30.0455C5.11853 29.8345 5 29.5484 5 29.25V25.875" stroke-width="2" stroke-linecap="round" stroke-linejoin="round"/>
        <path d="M9.5 21.375H11.75" stroke-width="2" stroke-linecap="round" stroke-linejoin="round"/>
        <path d="M25.25 21.375H27.5" stroke-width="2" stroke-linecap="round" stroke-linejoin="round"/>
        <path d="M32 16.875L27.7969 7.41809C27.7085 7.21923 27.5644 7.05028 27.3819 6.9317C27.1995 6.81311 26.9865 6.75 26.7689 6.75H10.2311C10.0135 6.75 9.80055 6.81311 9.61808 6.9317C9.43561 7.05028 9.29145 7.21923 9.20307 7.41809L5 16.875V25.875H32V16.875Z" stroke-width="2" stroke-linecap="round" stroke-linejoin="round"/>
    </svg>

    <svg id="train" width="36" height="36" viewBox="0 0 36 36" fill="none" xmlns="http://www.w3.org/2000/svg">
        <path d="M6.1875 18H29.8125" stroke-width="2" stroke-linecap="round" stroke-linejoin="round"/>
        <path d="M13.5 29.25L10.125 33.75" stroke-width="2" stroke-linecap="round" stroke-linejoin="round"/>
        <path d="M22.5 29.25L25.875 33.75" stroke-width="2" stroke-linecap="round" stroke-linejoin="round"/>
        <path d="M26.4375 4.5H9.5625C7.69854 4.5 6.1875 6.01104 6.1875 7.875V25.875C6.1875 27.739 7.69854 29.25 9.5625 29.25H26.4375C28.3015 29.25 29.8125 27.739 29.8125 25.875V7.875C29.8125 6.01104 28.3015 4.5 26.4375 4.5Z" stroke-width="2" stroke-linecap="round" stroke-linejoin="round"/>
        <path d="M12.5 24.1875C12.5 24.5672 12.1922 24.875 11.8125 24.875C11.4328 24.875 11.125 24.5672 11.125 24.1875C11.125 23.8078 11.4328 23.5 11.8125 23.5C12.1922 23.5 12.5 23.8078 12.5 24.1875Z" stroke-width="2"/>
        <path d="M24.875 24.1875C24.875 24.5672 24.5672 24.875 24.1875 24.875C23.8078 24.875 23.5 24.5672 23.5 24.1875C23.5 23.8078 23.8078 23.5 24.1875 23.5C24.5672 23.5 24.875 23.8078 24.875 24.1875Z" stroke-width="2"/>
    </svg>

    <svg id="bus" width="36" height="36" viewBox="0 0 36 36" fill="none" xmlns="http://www.w3.org/2000/svg">
        <path d="M5.90625 10.125H30.0938" stroke-width="2" stroke-linecap="round" stroke-linejoin="round"/>
        <path d="M5.90625 16.875H30.0938" stroke-width="2" stroke-linecap="round" stroke-linejoin="round"/>
        <path d="M30.0938 27H5.90625V9C5.90625 8.10489 6.26183 7.24645 6.89476 6.61351C7.5277 5.98058 8.38614 5.625 9.28125 5.625H26.7188C27.6139 5.625 28.4723 5.98058 29.1052 6.61351C29.7382 7.24645 30.0937 8.10489 30.0938 9V27Z" stroke-width="2" stroke-linecap="round" stroke-linejoin="round"/>
        <path d="M30.0938 27V30.375C30.0938 30.6734 29.9752 30.9595 29.7642 31.1705C29.5533 31.3815 29.2671 31.5 28.9688 31.5H25.5938C25.2954 31.5 25.0092 31.3815 24.7983 31.1705C24.5873 30.9595 24.4688 30.6734 24.4688 30.375V27" stroke-width="2" stroke-linecap="round" stroke-linejoin="round"/>
        <path d="M11.5312 27V30.375C11.5312 30.6734 11.4127 30.9595 11.2017 31.1705C10.9908 31.3815 10.7046 31.5 10.4062 31.5H7.03125C6.73288 31.5 6.44673 31.3815 6.23576 31.1705C6.02478 30.9595 5.90625 30.6734 5.90625 30.375V27" stroke-width="2" stroke-linecap="round" stroke-linejoin="round"/>
        <path d="M12.5 21.9375C12.5 22.3172 12.1922 22.625 11.8125 22.625C11.4328 22.625 11.125 22.3172 11.125 21.9375C11.125 21.5578 11.4328 21.25 11.8125 21.25C12.1922 21.25 12.5 21.5578 12.5 21.9375Z" stroke-width="2"/>
        <path d="M24.1875 23.625C25.1195 23.625 25.875 22.8695 25.875 21.9375C25.875 21.0055 25.1195 20.25 24.1875 20.25C23.2555 20.25 22.5 21.0055 22.5 21.9375C22.5 22.8695 23.2555 23.625 24.1875 23.625Z"/>
    </svg>
</svg>
