<svg width="180" height="52" viewBox="0 0 180 52" fill="none" xmlns="http://www.w3.org/2000/svg">
    <path d="M179 45.6274C179 48.3731 176.709 50.5972 173.874 50.5972H6.13243C3.2995 50.5972 1 48.3731 1 45.6274V5.99485C1 3.25043 3.2995 1.01855 6.13243 1.01855H173.873C176.709 1.01855 178.999 3.25043 178.999 5.99485L179 45.6274Z" fill="black"/>
    <path d="M173.333 1.07748C176.42 1.07748 178.932 3.5039 178.932 6.48579V45.128C178.932 48.1099 176.42 50.5363 173.333 50.5363H6.66667C3.58 50.5363 1.06833 48.1099 1.06833 45.128V6.48579C1.06833 3.5039 3.58 1.07748 6.66667 1.07748H173.333ZM173.333 0.045418H6.66667C3.00167 0.045418 0 2.94519 0 6.48579V45.128C0 48.6686 3.00167 51.5684 6.66667 51.5684H173.333C176.998 51.5684 180 48.6686 180 45.128V6.48579C180 2.94519 176.998 0.045418 173.333 0.045418Z" fill="#A6A6A6"/>
    <path d="M40.1707 25.529C40.132 21.3775 43.6894 19.3578 43.852 19.2638C41.8374 16.4262 38.7147 16.0385 37.6174 16.0076C34.9947 15.7409 32.4507 17.5236 31.1147 17.5236C29.752 17.5236 27.6947 16.0333 25.4774 16.0771C22.624 16.1196 19.9547 17.7155 18.4907 20.1938C15.4694 25.2469 17.7227 32.6726 20.6174 36.7571C22.0654 38.7575 23.7574 40.991 25.972 40.9125C28.1387 40.8262 28.948 39.578 31.5627 39.578C34.1534 39.578 34.9134 40.9125 37.172 40.8622C39.4974 40.8262 40.9614 38.8528 42.3587 36.8344C44.032 34.5416 44.704 32.2837 44.7307 32.1677C44.676 32.1497 40.2147 30.5048 40.1707 25.529Z" fill="white"/>
    <path d="M35.904 13.3206C37.0694 11.9128 37.8667 9.99741 37.6454 8.05371C35.9587 8.12584 33.8494 9.18078 32.6347 10.5577C31.56 11.7711 30.6 13.7599 30.848 15.6302C32.7427 15.7667 34.688 14.7066 35.904 13.3206Z" fill="white"/>
    <path d="M71.5266 40.6261H68.4986L66.84 35.591H61.0746L59.4946 40.6261H56.5466L62.2586 23.4844H65.7866L71.5266 40.6261ZM66.34 33.4785L64.84 29.0025C64.6813 28.5452 64.384 27.4684 63.9453 25.7733H63.892C63.7173 26.5023 63.436 27.5792 63.0493 29.0025L61.576 33.4785H66.34Z" fill="white"/>
    <path d="M86.2161 34.2937C86.2161 36.3958 85.6281 38.0574 84.4521 39.2772C83.3987 40.3631 82.0907 40.9053 80.5294 40.9053C78.844 40.9053 77.6333 40.3206 76.896 39.151H76.8427V45.6622H74V32.3345C74 31.0129 73.964 29.6566 73.8947 28.2655H76.3947L76.5533 30.2246H76.6067C77.5547 28.7485 78.9934 28.0117 80.924 28.0117C82.4334 28.0117 83.6934 28.5875 84.7014 29.7403C85.7121 30.8944 86.2161 32.4118 86.2161 34.2937ZM83.32 34.3941C83.32 33.1911 83.04 32.1992 82.4774 31.4187C81.8627 30.6046 81.0374 30.1976 80.0027 30.1976C79.3014 30.1976 78.664 30.4243 78.0947 30.8712C77.524 31.3221 77.1507 31.9107 76.976 32.6398C76.888 32.9798 76.844 33.258 76.844 33.477V35.5379C76.844 36.437 77.1293 37.1957 77.7 37.8153C78.2707 38.4348 79.012 38.744 79.924 38.744C80.9947 38.744 81.828 38.3446 82.424 37.5486C83.0214 36.7513 83.32 35.7002 83.32 34.3941Z" fill="white"/>
    <path d="M100.932 34.2937C100.932 36.3958 100.344 38.0574 99.1667 39.2772C98.1147 40.3631 96.8067 40.9053 95.2453 40.9053C93.56 40.9053 92.3493 40.3206 91.6133 39.151H91.56V45.6622H88.7173V32.3345C88.7173 31.0129 88.6813 29.6566 88.6119 28.2655H91.112L91.2706 30.2246H91.3239C92.2706 28.7485 93.7093 28.0117 95.6413 28.0117C97.1493 28.0117 98.4093 28.5875 99.42 29.7403C100.427 30.8944 100.932 32.4118 100.932 34.2937ZM98.036 34.3941C98.036 33.1911 97.7547 32.1992 97.192 31.4187C96.5773 30.6046 95.7546 30.1976 94.7186 30.1976C94.016 30.1976 93.38 30.4243 92.8093 30.8712C92.2386 31.3221 91.8666 31.9107 91.692 32.6398C91.6053 32.9798 91.56 33.258 91.56 33.477V35.5379C91.56 36.437 91.8453 37.1957 92.4133 37.8153C92.984 38.4335 93.7253 38.744 94.64 38.744C95.7107 38.744 96.544 38.3446 97.14 37.5486C97.7373 36.7513 98.036 35.7002 98.036 34.3941Z" fill="white"/>
    <path d="M117.385 35.8182C117.385 37.2763 116.861 38.4626 115.809 39.3784C114.653 40.3793 113.044 40.879 110.976 40.879C109.067 40.879 107.536 40.5235 106.377 39.8112L107.036 37.5223C108.284 38.2514 109.653 38.6172 111.145 38.6172C112.216 38.6172 113.049 38.3827 113.648 37.9165C114.244 37.4502 114.541 36.8242 114.541 36.0436C114.541 35.348 114.296 34.762 113.804 34.2867C113.315 33.8114 112.497 33.3696 111.356 32.9612C108.249 31.8419 106.697 30.2022 106.697 28.046C106.697 26.6368 107.241 25.4814 108.331 24.5823C109.416 23.682 110.864 23.2324 112.675 23.2324C114.289 23.2324 115.631 23.5042 116.701 24.0465L115.991 26.2852C114.991 25.7596 113.86 25.4969 112.595 25.4969C111.595 25.4969 110.813 25.7352 110.253 26.2092C109.78 26.6329 109.543 27.1495 109.543 27.7613C109.543 28.4388 109.813 28.9991 110.357 29.4397C110.831 29.8467 111.691 30.2872 112.939 30.7625C114.465 31.3563 115.587 32.0506 116.308 32.8466C117.027 33.6401 117.385 34.6332 117.385 35.8182Z" fill="white"/>
    <path d="M126.784 30.3262H123.651V36.3274C123.651 37.8537 124.203 38.6163 125.309 38.6163C125.817 38.6163 126.239 38.5738 126.572 38.4888L126.651 40.5742C126.091 40.7764 125.353 40.8781 124.44 40.8781C123.317 40.8781 122.44 40.5471 121.807 39.8863C121.176 39.2243 120.859 38.1139 120.859 36.5541V30.3237H118.992V28.2628H120.859V25.9996L123.651 25.1855V28.2628H126.784V30.3262Z" fill="white"/>
    <path d="M140.921 34.3436C140.921 36.2435 140.359 37.8033 139.236 39.0232C138.059 40.279 136.496 40.905 134.548 40.905C132.671 40.905 131.176 40.3035 130.061 39.1004C128.947 37.8974 128.389 36.3787 128.389 34.5484C128.389 32.633 128.963 31.0641 130.113 29.8443C131.261 28.6232 132.811 28.0127 134.759 28.0127C136.636 28.0127 138.147 28.6142 139.287 29.8186C140.377 30.9869 140.921 32.4952 140.921 34.3436ZM137.972 34.4325C137.972 33.2925 137.72 32.3149 137.209 31.4995C136.613 30.5128 135.761 30.0208 134.657 30.0208C133.515 30.0208 132.647 30.5141 132.051 31.4995C131.54 32.3162 131.288 33.3093 131.288 34.484C131.288 35.6239 131.54 36.6016 132.051 37.4156C132.665 38.4023 133.524 38.8943 134.632 38.8943C135.717 38.8943 136.569 38.392 137.184 37.3899C137.708 36.5591 137.972 35.5711 137.972 34.4325Z" fill="white"/>
    <path d="M150.161 30.6806C149.88 30.6304 149.58 30.6046 149.265 30.6046C148.265 30.6046 147.492 30.9691 146.948 31.6995C146.475 32.3435 146.237 33.1576 146.237 34.1404V40.6258H143.396L143.423 32.158C143.423 30.7334 143.387 29.4363 143.316 28.2668H145.792L145.896 30.6317H145.975C146.275 29.8189 146.748 29.1645 147.396 28.6738C148.029 28.232 148.713 28.0117 149.451 28.0117C149.713 28.0117 149.951 28.0298 150.161 28.062V30.6806Z" fill="white"/>
    <path d="M162.875 33.8606C162.875 34.3526 162.841 34.7674 162.771 35.1062H154.243C154.276 36.3273 154.688 37.2611 155.48 37.9051C156.199 38.4809 157.128 38.7694 158.269 38.7694C159.532 38.7694 160.684 38.5749 161.72 38.1847L162.165 40.091C160.955 40.6011 159.525 40.8548 157.876 40.8548C155.892 40.8548 154.335 40.2907 153.201 39.1636C152.071 38.0365 151.504 36.523 151.504 34.6244C151.504 32.7606 152.031 31.2085 153.085 29.9706C154.189 28.6491 155.681 27.9883 157.559 27.9883C159.403 27.9883 160.799 28.6491 161.747 29.9706C162.497 31.0204 162.875 32.3188 162.875 33.8606ZM160.164 33.1483C160.183 32.3342 159.997 31.6309 159.612 31.0371C159.12 30.2733 158.364 29.892 157.347 29.892C156.417 29.892 155.661 30.2643 155.084 31.0114C154.611 31.6052 154.329 32.3175 154.243 33.147H160.164V33.1483Z" fill="white"/>
    <path d="M65.3999 12.9384C65.3999 14.4545 64.9292 15.5957 63.9892 16.3621C63.1186 17.0693 61.8813 17.4235 60.2786 17.4235C59.4839 17.4235 58.8039 17.39 58.2346 17.323V9.03944C58.9773 8.92351 59.7773 8.86426 60.6413 8.86426C62.1679 8.86426 63.3186 9.18499 64.0946 9.82645C64.9639 10.5516 65.3999 11.5885 65.3999 12.9384ZM63.9266 12.9758C63.9266 11.993 63.6572 11.2395 63.1186 10.7139C62.5799 10.1897 61.7933 9.92692 60.7573 9.92692C60.3173 9.92692 59.9426 9.95526 59.6319 10.0145V16.3119C59.8039 16.3377 60.1186 16.3493 60.5759 16.3493C61.6453 16.3493 62.4706 16.062 63.0519 15.4875C63.6333 14.9131 63.9266 14.0758 63.9266 12.9758Z" fill="white"/>
    <path d="M73.2119 14.2627C73.2119 15.1966 72.9359 15.9617 72.3839 16.5619C71.8052 17.1789 71.0386 17.4868 70.0812 17.4868C69.1586 17.4868 68.4239 17.1918 67.8759 16.5993C67.3292 16.0081 67.0559 15.2623 67.0559 14.3632C67.0559 13.4229 67.3372 12.6513 67.9026 12.0524C68.4679 11.4534 69.2279 11.1533 70.1852 11.1533C71.1079 11.1533 71.8492 11.4483 72.4106 12.0395C72.9439 12.614 73.2119 13.3559 73.2119 14.2627ZM71.7626 14.3065C71.7626 13.7462 71.6372 13.2658 71.3879 12.8652C71.0946 12.3809 70.6772 12.1387 70.1346 12.1387C69.5732 12.1387 69.1466 12.3809 68.8532 12.8652C68.6026 13.2658 68.4786 13.7539 68.4786 14.331C68.4786 14.8913 68.6039 15.3718 68.8532 15.7724C69.1559 16.2567 69.5772 16.4988 70.1212 16.4988C70.6546 16.4988 71.0732 16.2528 71.3746 15.7595C71.6332 15.3512 71.7626 14.8668 71.7626 14.3065Z" fill="white"/>
    <path d="M83.6866 11.2764L81.72 17.3484H80.44L79.6253 14.7117C79.4186 14.0535 79.2506 13.3991 79.12 12.7499H79.0946C78.9733 13.4171 78.8053 14.0702 78.5893 14.7117L77.724 17.3484H76.4293L74.58 11.2764H76.016L76.7266 14.1629C76.8986 14.8456 77.04 15.4961 77.1533 16.1118H77.1786C77.2826 15.6043 77.4546 14.9577 77.6973 14.1758L78.5893 11.2777H79.728L80.5826 14.114C80.7893 14.8057 80.9573 15.4716 81.0866 16.1131H81.1253C81.22 15.4884 81.3626 14.8224 81.552 14.114L82.3146 11.2777H83.6866V11.2764Z" fill="white"/>
    <path d="M90.9305 17.3489H89.5332V13.8711C89.5332 12.7994 89.1119 12.2636 88.2666 12.2636C87.8519 12.2636 87.5172 12.4104 87.2572 12.7054C86.9999 13.0004 86.8692 13.3482 86.8692 13.7462V17.3476H85.4719V13.012C85.4719 12.4787 85.4546 11.9004 85.4213 11.2744H86.6493L86.7146 12.2237H86.7533C86.9159 11.9287 87.1586 11.6853 87.4772 11.4908C87.8559 11.2641 88.2799 11.1494 88.7439 11.1494C89.3306 11.1494 89.8186 11.3323 90.2065 11.6994C90.6892 12.149 90.9305 12.82 90.9305 13.7114V17.3489Z" fill="white"/>
    <path d="M94.7839 17.3483H93.3879V8.49023H94.7839V17.3483Z" fill="white"/>
    <path d="M103.011 14.2627C103.011 15.1966 102.735 15.9617 102.183 16.5619C101.604 17.1789 100.836 17.4868 99.88 17.4868C98.956 17.4868 98.2213 17.1918 97.6746 16.5993C97.1279 16.0081 96.8546 15.2623 96.8546 14.3632C96.8546 13.4229 97.136 12.6513 97.7013 12.0524C98.2666 11.4534 99.0266 11.1533 99.9826 11.1533C100.907 11.1533 101.647 11.4483 102.209 12.0395C102.743 12.614 103.011 13.3559 103.011 14.2627ZM101.56 14.3065C101.56 13.7462 101.435 13.2658 101.185 12.8652C100.893 12.3809 100.475 12.1387 99.9333 12.1387C99.3706 12.1387 98.9439 12.3809 98.6519 12.8652C98.4013 13.2658 98.2773 13.7539 98.2773 14.331C98.2773 14.8913 98.4026 15.3718 98.6519 15.7724C98.9546 16.2567 99.376 16.4988 99.92 16.4988C100.453 16.4988 100.871 16.2528 101.172 15.7595C101.432 15.3512 101.56 14.8668 101.56 14.3065Z" fill="white"/>
    <path d="M109.773 17.349H108.519L108.415 16.6495H108.376C107.947 17.2073 107.335 17.4868 106.54 17.4868C105.947 17.4868 105.467 17.3026 105.105 16.9368C104.777 16.6044 104.613 16.191 104.613 15.7002C104.613 14.9583 104.933 14.3928 105.577 14.0013C106.22 13.6097 107.124 13.4178 108.288 13.4268V13.3134C108.288 12.5135 107.853 12.1142 106.983 12.1142C106.363 12.1142 105.816 12.2649 105.344 12.5638L105.06 11.6776C105.644 11.3285 106.365 11.1533 107.216 11.1533C108.859 11.1533 109.683 11.9906 109.683 13.6651V15.9012C109.683 16.5078 109.713 16.9909 109.773 17.349ZM108.323 15.2623V14.3258C106.781 14.3001 106.011 14.7084 106.011 15.5495C106.011 15.8664 106.099 16.1034 106.279 16.2618C106.459 16.4203 106.688 16.4988 106.961 16.4988C107.268 16.4988 107.555 16.4048 107.816 16.218C108.079 16.03 108.24 15.7917 108.3 15.4993C108.315 15.4336 108.323 15.3537 108.323 15.2623Z" fill="white"/>
    <path d="M117.713 17.3483H116.473L116.408 16.3732H116.369C115.973 17.1152 115.299 17.4861 114.351 17.4861C113.593 17.4861 112.963 17.1989 112.463 16.6244C111.963 16.0499 111.713 15.3041 111.713 14.3883C111.713 13.4055 111.984 12.6095 112.528 12.0015C113.055 11.4348 113.7 11.1514 114.468 11.1514C115.312 11.1514 115.903 11.4258 116.239 11.9758H116.265V8.49023H117.664V15.7125C117.664 16.3037 117.68 16.8485 117.713 17.3483ZM116.265 14.7876V13.7752C116.265 13.6 116.252 13.4583 116.227 13.3501C116.148 13.0255 115.979 12.7525 115.721 12.5322C115.461 12.3119 115.148 12.2012 114.787 12.2012C114.265 12.2012 113.857 12.4008 113.557 12.8014C113.26 13.202 113.109 13.7134 113.109 14.3381C113.109 14.9383 113.252 15.4252 113.539 15.8C113.841 16.1994 114.249 16.399 114.76 16.399C115.219 16.399 115.585 16.2328 115.864 15.8992C116.133 15.5914 116.265 15.2204 116.265 14.7876Z" fill="white"/>
    <path d="M129.664 14.2627C129.664 15.1966 129.388 15.9617 128.836 16.5619C128.257 17.1789 127.492 17.4868 126.533 17.4868C125.612 17.4868 124.877 17.1918 124.328 16.5993C123.781 16.0081 123.508 15.2623 123.508 14.3632C123.508 13.4229 123.789 12.6513 124.355 12.0524C124.92 11.4534 125.68 11.1533 126.639 11.1533C127.56 11.1533 128.303 11.4483 128.863 12.0395C129.396 12.614 129.664 13.3559 129.664 14.2627ZM128.216 14.3065C128.216 13.7462 128.091 13.2658 127.841 12.8652C127.547 12.3809 127.131 12.1387 126.587 12.1387C126.027 12.1387 125.6 12.3809 125.305 12.8652C125.055 13.2658 124.931 13.7539 124.931 14.331C124.931 14.8913 125.056 15.3718 125.305 15.7724C125.608 16.2567 126.029 16.4988 126.573 16.4988C127.107 16.4988 127.527 16.2528 127.828 15.7595C128.085 15.3512 128.216 14.8668 128.216 14.3065Z" fill="white"/>
    <path d="M137.177 17.3489H135.781V13.8711C135.781 12.7994 135.36 12.2636 134.513 12.2636C134.099 12.2636 133.764 12.4104 133.505 12.7054C133.247 13.0004 133.117 13.3482 133.117 13.7462V17.3476H131.719V13.012C131.719 12.4787 131.703 11.9004 131.669 11.2744H132.896L132.961 12.2237H133C133.164 11.9287 133.407 11.6853 133.724 11.4908C134.104 11.2641 134.527 11.1494 134.992 11.1494C135.577 11.1494 136.065 11.3323 136.453 11.6994C136.937 12.149 137.177 12.82 137.177 13.7114V17.3489Z" fill="white"/>
    <path d="M146.581 12.288H145.043V15.2377C145.043 15.9873 145.316 16.3622 145.857 16.3622C146.108 16.3622 146.316 16.3415 146.48 16.299L146.516 17.3231C146.24 17.4235 145.877 17.4738 145.431 17.4738C144.879 17.4738 144.449 17.3115 144.139 16.9869C143.827 16.6623 143.672 16.1161 143.672 15.3497V12.288H142.753V11.2768H143.672V10.164L145.041 9.76465V11.2756H146.58V12.288H146.581Z" fill="white"/>
    <path d="M153.979 17.3483H152.58V13.8963C152.58 12.8079 152.159 12.263 151.315 12.263C150.667 12.263 150.224 12.5786 149.981 13.2097C149.94 13.3424 149.916 13.5047 149.916 13.6953V17.347H148.52V8.49023H149.916V12.1497H149.943C150.383 11.4837 151.013 11.1514 151.831 11.1514C152.409 11.1514 152.888 11.3343 153.268 11.7014C153.741 12.1587 153.979 12.8388 153.979 13.7378V17.3483Z" fill="white"/>
    <path d="M161.609 14.0256C161.609 14.2678 161.591 14.4713 161.557 14.6374H157.367C157.385 15.2377 157.585 15.6949 157.973 16.0118C158.328 16.2952 158.785 16.4369 159.345 16.4369C159.965 16.4369 160.531 16.3415 161.04 16.1496L161.259 17.0873C160.663 17.3372 159.961 17.4622 159.149 17.4622C158.176 17.4622 157.409 17.1852 156.855 16.6314C156.297 16.0775 156.021 15.3343 156.021 14.4017C156.021 13.4859 156.279 12.7234 156.797 12.1154C157.339 11.4662 158.071 11.1416 158.995 11.1416C159.899 11.1416 160.585 11.4662 161.049 12.1154C161.424 12.6306 161.609 13.2682 161.609 14.0256ZM160.276 13.6765C160.287 13.2759 160.195 12.9307 160.005 12.6396C159.763 12.2648 159.393 12.0767 158.893 12.0767C158.437 12.0767 158.065 12.2596 157.781 12.6267C157.549 12.9191 157.412 13.2682 157.367 13.6765H160.276Z" fill="white"/>
</svg>