<svg>
	<symbol id="base-1" width="96" height="96" viewBox="0 0 96 96" fill="none" xmlns="http://www.w3.org/2000/svg">
	<g clip-path="url(#clip0_326_1563)">
	<path d="M68.0911 41.9086C65.5349 41.9086 63.4547 39.8284 63.4547 37.2722C63.4547 34.7159 65.5349 32.6357 68.0911 32.6357C70.6473 32.6357 72.7275 34.7159 72.7275 37.2722C72.7275 39.8284 70.6473 41.9086 68.0911 41.9086Z" fill="#E3CDA1"/>
	<path d="M54.1819 51.1815C51.6257 51.1815 49.5455 49.1013 49.5455 46.5451C49.5455 43.9889 51.6257 41.9087 54.1819 41.9087C56.7381 41.9087 58.8183 43.9889 58.8183 46.5451C58.8183 49.1013 56.7381 51.1815 54.1819 51.1815Z" fill="#E3CDA1"/>
	<path d="M84.9398 31.0902C86.0479 27.9576 86.6368 24.692 86.6368 21.3337V3.09094L84.9213 3.28258C77.8724 4.06459 71.264 7.15553 66.1098 11.9882C64.1842 10.4335 61.0113 9.45364 57.2728 9.45364C53.471 9.45364 50.2502 10.4659 48.3354 12.0655C42.9216 5.43542 35.0814 1.13901 26.535 0.190093L24.818 0V16.6834C22.1242 17.7188 20.3825 19.4436 20.2094 21.4867L17.8031 28.6994C17.5434 29.4829 17.3611 30.285 17.2421 31.0964C17.1911 31.0964 17.1416 31.0918 17.0906 31.0918H0.0904236V32.6372C0.0904236 43.6441 7.97851 53.1565 18.6361 55.3309V71.274H20.1815C21.7332 71.274 23.2787 71.1736 24.818 71.0082V86.7287H21.727C20.0224 86.7287 18.6361 88.115 18.6361 89.8197V92.9106C18.6361 94.6153 20.0224 96.0015 21.727 96.0015H74.273C75.9777 96.0015 77.3639 94.6153 77.3639 92.9106V89.8197C77.3639 88.115 75.9777 86.7287 74.273 86.7287H71.1821V71.0082C72.7214 71.172 74.2668 71.274 75.8185 71.274H77.3639V55.3309C88.0215 53.1565 95.9096 43.6425 95.9096 32.6372V31.0918H84.9398V31.0902ZM83.5458 21.3337C83.5458 24.7074 82.8813 27.9792 81.6325 31.0902H78.9094C77.5324 31.0902 76.1569 31.2293 74.8093 31.4704C74.5806 31.3885 74.3549 31.302 74.1154 31.2463C73.7259 29.5587 72.6394 28.1368 71.1821 27.2899V26.9144C71.1821 25.7985 71.0476 24.692 70.7833 23.6117C76.1724 16.7931 81.4131 12.2139 81.4672 12.1659L79.4411 9.83074C79.2309 10.0147 74.7227 13.9494 69.6567 20.0865L68.0618 15.3048C68.0386 15.039 67.9938 14.7762 67.918 14.5228C72.2129 10.3809 77.6684 7.60063 83.5427 6.59607V21.3337H83.5458ZM64.3233 47.361C65.0388 48.5123 65.1516 49.8553 64.7205 51.0701C61.2617 51.9726 57.9111 53.2878 54.763 55.0048L52.4973 56.2397C51.3892 55.0574 49.8329 54.3078 48.0943 54.2816V54.2754C46.3881 54.1703 44.8596 53.2878 44.0081 51.9139C43.1333 50.5013 43.1441 48.7998 44.0405 47.361L44.5474 46.5449L44.0405 45.7289C43.1457 44.2901 43.1333 42.587 44.0081 41.176C44.8983 39.7356 46.5998 38.8423 48.4451 38.8423H48.4513H49.3152L49.768 38.1082C50.6768 36.6385 52.3675 35.7251 54.1803 35.7251C55.3425 35.7251 56.4244 36.0991 57.3161 36.759C57.3037 36.9306 57.2728 37.0975 57.2728 37.2721C57.2728 40.2039 59.3237 42.6643 62.0669 43.2964C62.3312 44.4416 62.9277 45.4523 63.7298 46.2575L64.3233 47.361ZM26.3634 34.1812C26.3634 31.3514 29.7835 28.8818 31.4171 27.9823C31.7927 27.9746 32.1728 27.9668 32.5113 27.9359C34.4864 27.786 37.8154 27.2776 39.911 25.6208L41.2633 29.6761C41.2664 29.6869 41.2695 29.6978 41.2726 29.7101C40.4597 29.6066 39.6112 29.5448 38.7256 29.5448C32.7555 29.5448 28.218 32.0392 27.9352 35.3959L27.2273 37.5163C26.5504 35.9167 26.3634 34.8519 26.3634 34.1812ZM46.4545 27.9993V26.9144C46.4545 25.7506 46.6415 24.5977 47.0078 23.4942L48.4173 19.2689C49.8268 20.4141 51.9131 21.244 54.4029 21.6088C53.5189 23.1481 52.6364 25.3411 52.6364 27.9993C52.6364 29.2774 52.8466 30.8507 53.2592 32.6883C51.791 32.8505 50.4094 33.4023 49.2472 34.2461C48.8701 33.3033 48.1468 32.4533 47.1345 31.7471C46.6925 30.5509 46.4545 29.2959 46.4545 27.9993ZM66.184 19.4389L67.5348 23.4927C67.8547 24.4524 68.0108 25.4493 68.054 26.4569C65.1393 26.4739 62.6959 28.517 62.0653 31.2463C60.54 31.5987 59.2433 32.5291 58.3809 33.7794C57.7967 33.4409 57.1739 33.1843 56.5202 32.9973C56.0102 30.9728 55.7274 29.2449 55.7274 27.9993C55.7274 24.9733 57.2867 22.6844 58.0069 21.7865C58.2666 21.7757 58.5432 21.7757 58.7858 21.754C60.761 21.6041 64.0899 21.0957 66.184 19.4389ZM44.2322 36.8579C43.056 35.2862 40.3407 34.1812 37.1817 34.1812V37.2721C39.4304 37.2721 40.9465 37.9676 41.5322 38.4513C41.2849 38.5487 40.8507 38.6584 40.2139 38.7341C39.8523 38.7666 39.5432 38.7882 39.2975 38.799C39.1105 38.8068 38.942 38.8176 38.7272 38.8176H38.7256C34.0089 38.8176 30.9983 36.9862 30.9983 35.7266C30.9983 34.4671 34.0089 32.6357 38.7256 32.6357C43.4424 32.6357 46.453 34.4671 46.4514 35.8472V35.994C45.6679 36.1795 44.9214 36.4716 44.2322 36.8579ZM28.1824 50.3793C28.0202 49.6297 27.9089 48.8678 27.9089 48.0904V47.0055C27.9089 45.8418 28.0959 44.6888 28.4622 43.5854L29.8716 39.3601C31.2811 40.5052 33.3675 41.3352 35.8572 41.6999C34.9732 43.2392 34.0908 45.4322 34.0908 48.0904C34.0908 49.2001 34.2654 50.5508 34.576 52.0824C32.4881 51.3606 30.3538 50.7811 28.1824 50.3793ZM38.0704 53.4594C37.497 51.271 37.1817 49.4118 37.1817 48.0904C37.1817 45.0752 38.7318 42.791 39.4536 41.8853C39.5046 41.8823 39.5463 41.8823 39.6019 41.8792C39.8337 41.8683 40.0563 41.8529 40.2727 41.8328C40.3329 41.8282 40.4025 41.8204 40.4658 41.8143C40.1135 43.3845 40.2742 45.0412 40.9728 46.5449C39.9234 48.7998 40.0578 51.407 41.3792 53.5397C41.9881 54.5227 42.8134 55.3387 43.767 55.9708C43.6742 56.0573 43.5877 56.1469 43.5011 56.2397L41.2355 55.0048C40.2047 54.4423 39.1429 53.9369 38.0704 53.4594ZM48 63.5451C46.2954 63.5451 44.9091 62.1588 44.9091 60.4542C44.9091 58.7495 46.2954 57.3632 48 57.3632C49.7047 57.3632 51.091 58.7495 51.091 60.4542C51.091 62.1588 49.7047 63.5451 48 63.5451ZM46.4545 77.4374C44.5351 77.3446 42.832 76.2242 42.0005 74.5164L46.4545 67.3872V77.4374ZM49.5455 66.4166C49.6119 66.3996 49.6738 66.3749 49.7387 66.3563L55.5975 76.1206C54.6965 78.6954 52.3011 80.4649 49.5455 80.5422V66.4166ZM65.0002 41.9085V40.3631H63.4547C61.7501 40.3631 60.3638 38.9768 60.3638 37.2721C60.3638 35.5675 61.7501 34.1812 63.4547 34.1812H65.0002V32.6357C65.0002 30.9311 66.3865 29.5448 68.0911 29.5448C69.7958 29.5448 71.1821 30.9311 71.1821 32.6357V34.1812H72.7275C74.4322 34.1812 75.8185 35.5675 75.8185 37.2721C75.8185 38.9768 74.4322 40.3631 72.7275 40.3631H71.1821V41.9085C71.1821 43.6132 69.7958 44.9995 68.0911 44.9995C66.3865 44.9995 65.0002 43.6132 65.0002 41.9085ZM57.2728 12.5446C61.9896 12.5446 65.0002 14.376 65.0002 15.6355C65.0002 16.4994 64.28 17.1485 63.2476 17.6215C62.5352 15.6093 59.4334 14.0901 55.7274 14.0901V17.181C57.976 17.181 59.4921 17.8765 60.0779 18.3602C59.8074 18.4668 59.3469 18.5936 58.605 18.6677C58.1167 18.7079 57.6623 18.7265 57.2713 18.728C52.5545 18.728 49.5455 16.8966 49.5455 15.6371C49.5455 14.3775 52.5561 12.5446 57.2728 12.5446ZM27.9089 3.50513C35.3102 4.76932 41.9835 8.83391 46.5488 14.8288C46.5164 14.9849 46.4963 15.1441 46.4824 15.3063L44.0761 22.5191C43.6711 23.7384 43.4471 25.0026 43.3899 26.2823L41.7919 21.4882C41.6636 19.9613 40.6544 18.6152 39.0286 17.5998C35.4632 11.3994 32.3799 7.17562 32.2486 6.99635L29.7557 8.82464C29.7805 8.85864 31.8205 11.6544 34.4478 15.9384C33.3737 15.7453 32.2192 15.6386 31.0029 15.6386C29.9195 15.6386 28.8856 15.7252 27.912 15.8797V3.50513H27.9089ZM30.9998 18.7265C35.7166 18.7265 38.7272 20.5579 38.7272 21.8174C38.7272 22.6813 38.007 23.3304 36.9746 23.8033C36.2622 21.7911 33.1604 20.2719 29.4544 20.2719V23.3629C31.703 23.3629 33.2191 24.0583 33.8049 24.5421C33.5344 24.6487 33.0739 24.7754 32.332 24.8496C31.8437 24.8898 31.3893 24.9084 30.9983 24.9099C26.2815 24.9099 23.2725 23.0785 23.2725 21.819C23.2725 20.5594 26.2831 18.7265 30.9998 18.7265ZM20.1815 33.0978C20.1815 31.9341 20.3685 30.7811 20.7348 29.6777L22.1443 25.4524C23.2879 26.3812 24.872 27.1076 26.7606 27.5418C25.0111 29.112 23.2725 31.3761 23.2725 34.1812C23.2725 36.1238 24.1472 38.6368 25.8519 41.6458L25.5304 42.6086C25.447 42.8605 25.379 43.1155 25.311 43.3705C22.1505 41.4233 20.1815 37.9969 20.1815 34.1812V33.0978ZM3.24164 34.1812H17.0906C17.0906 39.051 19.5896 43.4231 23.5986 45.9345C16.4152 43.7955 13.0909 40.4218 9.86707 37.1469L8.91042 36.1795L6.72513 38.3648L7.66323 39.3137C11.309 43.0197 15.4385 47.1956 24.92 49.4829C24.9339 49.6266 24.9339 49.7719 24.9524 49.9141C23.3698 49.741 21.778 49.6359 20.1815 49.6359H18.6361V52.1875C10.2071 50.1892 3.91546 42.8482 3.24164 34.1812ZM21.727 52.7562C28.0202 52.9957 34.2237 54.6988 39.758 57.7187L41.9402 58.9087H30.9998V61.9996H41.9402L39.758 63.1897C34.2237 66.2095 28.0202 67.9126 21.727 68.1522V52.7562ZM74.2746 92.9091H21.727V89.8181H74.273L74.2746 92.9091ZM68.0911 86.7272H27.9089V70.5724C32.5608 69.7394 37.0766 68.1738 41.237 65.9035L43.5027 64.6687C43.7021 64.8804 43.92 65.0674 44.1472 65.2498L38.5773 74.1625L38.8075 74.8533C39.9157 78.1776 42.971 80.4217 46.4545 80.5267V83.6378H49.3554C53.8172 83.6378 57.6901 80.6133 58.7719 76.286L58.928 75.6647L52.4015 64.7877C52.4371 64.7521 52.4633 64.7073 52.4989 64.6702L54.7645 65.9051C58.9249 68.1754 63.4408 69.7425 68.0927 70.5739V86.7272H68.0911ZM74.273 68.1522C67.9799 67.9126 61.7763 66.2095 56.242 63.1897L54.0598 61.9996H65.0002V58.9087H54.0598L56.242 57.7187C61.7763 54.6988 67.9799 52.9957 74.273 52.7562V68.1522ZM77.3639 52.1875V49.6359H75.8185C73.2144 49.6359 70.6195 49.8816 68.0649 50.3391C68.1359 49.5787 68.0741 48.8168 67.9072 48.0734C67.969 48.075 68.0278 48.0889 68.0911 48.0889C71.0213 48.0889 73.4833 46.038 74.1154 43.2948C76.8586 42.6643 78.9094 40.2039 78.9094 37.2721C78.9094 36.1625 78.6142 35.1224 78.0996 34.2214C78.37 34.2105 78.639 34.1812 78.9094 34.1812H92.7584C92.0845 42.8482 85.7929 50.1892 77.3639 52.1875Z" fill="#3A3D46"/>
	</g>
	<defs>
	<clipPath id="clip0_326_1563">
	<rect width="96" height="96" fill="white"/>
	</clipPath>
	</defs>
	</symbol>
	<symbol id="base-2" width="96" height="96" viewBox="0 0 96 96" fill="none" xmlns="http://www.w3.org/2000/svg">
	<g clip-path="url(#clip0_326_1583)">
	<path d="M71.2273 24.7744H7.74347V27.8712H71.2273V24.7744Z" fill="#E3CDA1"/>
	<path d="M71.2273 32.5161H7.74347V35.6129H71.2273V32.5161Z" fill="#E3CDA1"/>
	<path d="M71.2273 40.2583H7.74347V43.3551H71.2273V40.2583Z" fill="#E3CDA1"/>
	<path d="M71.2273 48H7.74347V51.0968H71.2273V48Z" fill="#E3CDA1"/>
	<path d="M44.6276 83.8904L46.1203 73.4419L52.6467 69.6777L58.8403 75.8713L55.0761 82.3977L44.6276 83.8904Z" fill="#E3CDA1"/>
	<path d="M50.8722 75.4561L44.2637 82.0646H10.8402V85.1613H46.4531V84.254L53.0616 77.6455L50.8722 75.4561Z" fill="#3A3D46"/>
	<path d="M93.4281 41.6888L95.1809 39.936C96.2709 38.8459 96.2709 37.0715 95.1809 35.9814L92.5347 33.3352C91.4462 32.2436 89.6686 32.2452 88.5801 33.3352L78.9693 42.9492V13.9355H91.3564V8.51613C91.3564 3.82142 87.5349 0 82.8402 0H8.51765C3.82295 0 0.00152588 3.82142 0.00152588 8.51613V12.3871V96H78.9693V56.1476L91.2387 43.8782L91.8008 44.4403C92.338 44.9776 92.6338 45.6914 92.6338 46.4516C92.6338 47.2119 92.338 47.9257 91.8008 48.463L84.0681 56.1956L86.2575 58.385L93.9902 50.6524C96.3066 48.336 96.3066 44.5672 93.9902 42.2508L93.4281 41.6888ZM90.5589 35.7383L92.7793 37.9587L91.2387 39.4994L89.0183 37.279L90.5589 35.7383ZM88.2596 8.51613V10.8387H17.0338V8.51613C17.0338 6.45987 16.2998 4.57084 15.0813 3.09677H82.8402C85.8286 3.09677 88.2596 5.52774 88.2596 8.51613ZM75.8725 92.9032H3.0983V12.3871V8.51613C3.0983 5.52774 5.52927 3.09677 8.51765 3.09677C11.506 3.09677 13.937 5.52774 13.937 8.51613V10.8387V12.3871V13.9355H75.8725V46.0459L51.9824 69.936L58.5817 76.5352L75.8725 59.2444V92.9032ZM58.5817 67.7156L60.802 69.936L58.5817 72.1564L56.3613 69.936L58.5817 67.7156ZM62.9915 67.745L60.7711 65.5247L86.8289 39.4684L89.0493 41.6888L62.9915 67.745Z" fill="#3A3D46"/>
	<path d="M71.2273 21.6772H7.74347V24.774H71.2273V21.6772Z" fill="#3A3D46"/>
	<path d="M71.2273 29.4194H7.74347V32.5162H71.2273V29.4194Z" fill="#3A3D46"/>
	<path d="M71.2273 37.1611H7.74347V40.2579H71.2273V37.1611Z" fill="#3A3D46"/>
	<path d="M71.2273 44.9033H7.74347V48.0001H71.2273V44.9033Z" fill="#3A3D46"/>
	</g>
	<defs>
	<clipPath id="clip0_326_1583">
	<rect width="96" height="96" fill="white"/>
	</clipPath>
	</defs>
	</symbol>
	<symbol id="base-3" width="96" height="96" viewBox="0 0 96 96" fill="none" xmlns="http://www.w3.org/2000/svg">
	<path d="M37.5 27.3825C37.5 29.472 38.313 31.4355 39.7905 32.9115L41.379 34.5H42.2115C42.087 34.0185 42 33.5205 42 33V30L48 27L54 30V33C54 33.5205 53.913 34.0185 53.7885 34.5H54.621L56.2095 32.9115C57.687 31.4355 58.5 29.4705 58.5 27.3825C58.5 24.831 57.2595 22.4655 55.182 21H40.818C38.7405 22.4655 37.5 24.831 37.5 27.3825Z" fill="#E3CDA1"/>
	<path d="M34.5 52.5V60V66H49.5V60H61.5V52.5H34.5Z" fill="#E3CDA1"/>
	<path d="M61.5 49.5C63.1545 49.5 64.5 48.1545 64.5 46.5V22.5C64.5 20.8455 63.1545 19.5 61.5 19.5H34.5C32.8455 19.5 31.5 20.8455 31.5 22.5V46.5C31.5 48.1545 32.8455 49.5 34.5 49.5H61.5ZM52.7085 44.019C54.0585 44.5005 55.2075 45.3675 56.04 46.5H51.7155L52.7085 44.019ZM48 37.5C45.519 37.5 43.5 35.481 43.5 33V30.927L48 28.677L52.5 30.927V33C52.5 35.481 50.481 37.5 48 37.5ZM48 40.5C48.3045 40.5 48.594 40.446 48.888 40.41L49.3155 41.694C49.4535 42.108 49.6905 42.4635 49.9755 42.7725L48.6645 46.05C48.4455 46.5975 47.5545 46.5975 47.334 46.05L46.023 42.7725C46.308 42.4635 46.545 42.108 46.683 41.6925L47.1105 40.41C47.406 40.446 47.6955 40.5 48 40.5ZM43.2915 44.019L44.2845 46.5H39.96C40.7925 45.3675 41.9415 44.5005 43.2915 44.019ZM34.5 22.5H61.5L61.5015 46.5H59.508C58.2315 43.713 55.782 41.649 52.761 40.8945L52.1625 40.7445L51.735 39.465C53.9745 38.1645 55.5 35.769 55.5 33V29.073L48 25.323L40.5 29.073V33C40.5 35.769 42.0255 38.1645 44.265 39.465L43.839 40.746L43.239 40.896C40.2195 41.652 37.77 43.7145 36.4935 46.5015H34.5V22.5Z" fill="#3A3D46"/>
	<path d="M34.5 52.5H40.5V55.5H34.5V52.5Z" fill="#3A3D46"/>
	<path d="M43.5 52.5H61.5V55.5H43.5V52.5Z" fill="#3A3D46"/>
	<path d="M34.5 58.5H61.5V61.5H34.5V58.5Z" fill="#3A3D46"/>
	<path d="M34.5 64.5H49.5V67.5H34.5V64.5Z" fill="#3A3D46"/>
	<path d="M93 91.5V73.3185L88.545 79.5555L82.4115 68.8215L77.814 78.0165L77.169 77.0505L90.291 24.516L85.242 22.8315C82.209 21.8205 79.704 19.713 78.1875 16.899C73.074 7.401 63.1935 1.5 52.4055 1.5H43.5945C32.8065 1.5 22.926 7.401 17.8125 16.9005C16.2975 19.7145 13.7924 21.822 10.7579 22.833L5.68945 24.522L19.2285 75.6675C18.609 76.239 18.0135 76.8405 17.466 77.4975L15.7949 79.503C15.78 79.503 15.7649 79.5 15.75 79.5C10.1939 79.5 5.14945 82.9965 3.19795 88.1985L0.835449 94.5H94.5V91.5H93ZM82.5885 75.1785L86.6265 82.2435L82.7805 87.6285L85.2225 89.3715L90 82.6815V91.5H48.6645L51.045 85.152L52.6065 89.058L55.392 87.9435L53.9655 84.3765L55.6515 80.16L58.776 86.4105L61.776 77.4105L64.5225 82.902L63.1065 86.4435L65.892 87.558L67.833 82.7055L70.566 86.805L75.066 79.305L79.752 86.3325L82.248 84.669L79.731 80.8935L82.5885 75.1785ZM27.879 71.0445L16.8344 31.008C20.4165 29.721 23.4345 27.1425 25.2525 23.7645C29.658 15.5835 38.169 10.5 47.463 10.5H48.5385C57.8325 10.5 66.342 15.5835 70.749 23.766C72.57 27.1485 75.5925 29.73 79.182 31.014L67.185 76.3245L67.1655 76.2945L66.0135 79.173L61.221 69.5895L58.221 78.5895L55.3455 72.84L52.35 80.3355L50.955 76.848L49.5075 80.7075C46.104 74.4 39.6135 70.5 32.406 70.5C30.8625 70.5 29.3475 70.695 27.879 71.0445ZM9.31045 26.478L11.7074 25.6785C15.4694 24.4245 18.576 21.8115 20.454 18.3225C25.044 9.7965 33.9105 4.5 43.5945 4.5H52.4055C62.0895 4.5 70.956 9.7965 75.5475 18.3225C77.4255 21.813 80.532 24.4245 84.294 25.6785L86.709 26.484L74.904 73.746L70.434 81.195L69.408 79.656L82.8405 28.9125L81.366 28.5435C77.961 27.693 75.054 25.431 73.3905 22.3425C68.4585 13.188 58.9365 7.5 48.537 7.5H47.4615C37.062 7.5 27.54 13.188 22.611 22.344C20.9475 25.434 18.0405 27.6945 14.6355 28.545L13.1444 28.9185L25.0245 71.982C23.8995 72.444 22.8225 73.005 21.8025 73.6695L9.31045 26.478ZM5.16445 91.5L6.00895 89.2515C7.52245 85.2135 11.4374 82.5 15.75 82.5C20.0625 82.5 23.9775 85.2135 25.4925 89.2515L26.3355 91.5H5.16445ZM28.302 88.1985C26.7765 84.132 23.3519 81.135 19.2794 80.0085L19.7715 79.419C22.905 75.657 27.5115 73.5 32.406 73.5C38.6775 73.5 44.3145 76.9845 47.118 82.593L48.0795 84.5145L45.4605 91.5H29.5395L28.302 88.1985Z" fill="#3A3D46"/>
	</symbol>
	<symbol id="base-4" width="96" height="96" viewBox="0 0 96 96" fill="none" xmlns="http://www.w3.org/2000/svg">
	<g clip-path="url(#clip0_326_842)">
	<path d="M41.7703 29.5459L42.6604 33.1035C43.2724 35.5592 45.4685 37.2731 48 37.2731C50.5314 37.2731 52.7275 35.5592 53.3395 33.1035L54.2296 29.5459H41.7703Z" fill="#E3CDA1"/>
	<path d="M64.2967 33.1035C64.9087 35.5592 67.1047 37.2731 69.6362 37.2731C71.0827 37.2731 72.4535 36.6951 73.4674 35.7138C72.9805 33.7001 72.7271 31.6307 72.7271 29.5459H63.4065L64.2967 33.1035Z" fill="#E3CDA1"/>
	<path d="M31.7033 33.1035L32.5934 29.5459H23.2729C23.2729 31.6307 23.0194 33.7001 22.5326 35.7138C23.5464 36.6951 24.9172 37.2731 26.3638 37.2731C28.8952 37.2731 31.0913 35.5592 31.7033 33.1035Z" fill="#E3CDA1"/>
	<path d="M77.3635 40.364H76.7886C75.3745 37.4709 74.5678 34.295 74.3638 31.082C76.0251 31.0341 77.3635 29.6741 77.3635 28.0004V24.9095C77.3635 23.2049 75.9772 21.8186 74.2726 21.8186H73.5323C70.3085 17.0447 64.8701 14.0914 59.0793 14.0914H55.7273V11.0005C55.7273 10.2649 55.4583 9.59722 55.0272 9.06559C55.4723 8.35004 55.7273 7.51859 55.7273 6.6686C55.7273 4.93925 54.766 3.38298 53.2174 2.60871L48 0L42.7826 2.60871C41.2341 3.38298 40.2728 4.93925 40.2728 6.6686C40.2728 7.51859 40.5278 8.35004 40.9729 9.06559C40.5417 9.59722 40.2728 10.2649 40.2728 11.0005V14.0914H36.9207C31.1299 14.0914 25.6915 17.0447 22.4677 21.8186H21.7274C20.0228 21.8186 18.6365 23.2049 18.6365 24.9095V28.0004C18.6365 29.6741 19.9749 31.0326 21.6378 31.082C21.4338 34.295 20.6271 37.4709 19.213 40.364H18.6365C16.9319 40.364 15.5457 41.7502 15.5457 43.4548V49.802C15.5457 63.201 22.5434 75.7268 33.8654 82.8019L32.884 86.7273H31.0001C29.2955 86.7273 27.9092 88.1136 27.9092 89.8182V92.9091C27.9092 94.6137 29.2955 96 31.0001 96H64.9999C66.7046 96 68.0908 94.6137 68.0908 92.9091V89.8182C68.0908 88.1136 66.7046 86.7273 64.9999 86.7273H63.116L62.1347 82.8019C73.4566 75.7268 80.4544 63.201 80.4544 49.8035V43.4564C80.4544 41.7518 79.0681 40.364 77.3635 40.364ZM22.9128 39.6129C23.9699 36.8913 24.6082 34.006 24.7735 31.0913H35.2037L34.4666 34.0384C33.5346 37.763 30.2027 40.364 26.3638 40.364C25.163 40.364 23.9915 40.1043 22.9128 39.6129ZM37.1819 35.6163C37.8001 37.474 38.8541 39.0859 40.2264 40.364H34.1374C35.5097 39.0859 36.5637 37.474 37.1819 35.6163ZM39.8972 34.0384L39.1601 31.0913H56.8384L56.1013 34.0384C55.1693 37.7614 51.8389 40.364 47.9985 40.364C44.158 40.364 40.8292 37.763 39.8972 34.0384ZM58.8181 35.6163C59.4363 37.474 60.4903 39.0859 61.8627 40.364H55.7736C57.146 39.0859 58.2 37.474 58.8181 35.6163ZM61.5335 34.0384L60.7963 31.0913H71.2265C71.3919 34.006 72.0286 36.8929 73.0873 39.6144C72.007 40.1059 70.8355 40.364 69.6363 40.364C65.7974 40.364 62.4654 37.763 61.5335 34.0384ZM69.6054 21.8186H61.1054L57.3963 17.1823H59.0778C63.1021 17.1823 66.9132 18.9209 69.6054 21.8186ZM52.6364 11.0005V14.0914H43.3637V11.0005H52.6364ZM42.5616 17.1823H46.4546V21.8186H38.8525L42.5616 17.1823ZM49.5455 17.1823H53.4384L57.1475 21.8186H49.5455V17.1823ZM44.1642 5.37506L48 3.45562L51.8358 5.37352C52.3288 5.62079 52.6364 6.11688 52.6364 6.6686C52.6364 7.05032 52.4818 7.42278 52.2129 7.69323L51.9965 7.90959H44.0035L43.7871 7.69323C43.5182 7.42432 43.3637 7.05187 43.3637 6.6686C43.3637 6.11688 43.6712 5.62079 44.1642 5.37506ZM36.9207 17.1823H38.6022L34.8931 21.8186H26.3931C29.0869 18.9209 32.8979 17.1823 36.9207 17.1823ZM21.7274 24.9095H74.2726L74.2742 28.0004H21.7274V24.9095ZM77.3635 43.4548V46.5457H18.6365V43.4548H77.3635ZM65.0015 92.9091H31.0001V89.8182H64.9999L65.0015 92.9091ZM36.0707 86.7273L36.8434 83.6364H59.1566L59.9293 86.7273H36.0707ZM59.92 80.5455H36.08C25.3144 74.1026 18.6365 62.3649 18.6365 49.8035V49.6382H77.3635V49.8035C77.3635 62.3649 70.6856 74.1026 59.92 80.5455Z" fill="#3A3D46"/>
	<path d="M55.7272 58.9093H52.6363V55.8184C52.6363 54.1138 51.2501 52.7275 49.5454 52.7275H46.4546C44.7499 52.7275 43.3637 54.1138 43.3637 55.8184V58.9093H40.2728C38.5681 58.9093 37.1819 60.2956 37.1819 62.0002V65.0911C37.1819 66.7957 38.5681 68.182 40.2728 68.182H43.3637V74.3638C43.3637 76.0684 44.7499 77.4547 46.4546 77.4547H49.5454C51.2501 77.4547 52.6363 76.0684 52.6363 74.3638V68.182H55.7272C57.4318 68.182 58.8181 66.7957 58.8181 65.0911V62.0002C58.8181 60.2971 57.4318 58.9093 55.7272 58.9093ZM55.7272 65.0911H49.5454V74.3638H46.4546V65.0911H40.2728V62.0002H46.4546V55.8184H49.5454V62.0002H55.7272V65.0911Z" fill="#3A3D46"/>
	</g>
	<defs>
	<clipPath id="clip0_326_842">
	<rect width="96" height="96" fill="white"/>
	</clipPath>
	</defs>
	</symbol>
	<symbol id="base-5" width="96" height="96" viewBox="0 0 96 96" fill="none" xmlns="http://www.w3.org/2000/svg">
	<path d="M26.3225 80.5159C20.3458 80.5159 15.484 75.6541 15.484 69.6774C15.484 63.7006 20.3458 58.8389 26.3225 58.8389C32.2993 58.8389 37.161 63.7006 37.161 69.6774C37.1615 75.6541 32.2993 80.5159 26.3225 80.5159ZM26.3225 66.5804C24.6145 66.5804 23.2255 67.9694 23.2255 69.6774C23.2255 71.3854 24.6145 72.7744 26.3225 72.7744C28.0305 72.7744 29.4195 71.3854 29.4195 69.6774C29.4195 67.9694 28.0305 66.5804 26.3225 66.5804Z" fill="#E3CDA1"/>
	<path d="M69.6775 80.5159C63.7007 80.5159 58.839 75.6541 58.839 69.6774C58.839 63.7006 63.7007 58.8389 69.6775 58.8389C75.6543 58.8389 80.516 63.7006 80.516 69.6774C80.516 75.6541 75.6543 80.5159 69.6775 80.5159ZM69.6775 66.5804C67.9695 66.5804 66.5805 67.9694 66.5805 69.6774C66.5805 71.3854 67.9695 72.7744 69.6775 72.7744C71.3855 72.7744 72.7745 71.3854 72.7745 69.6774C72.774 67.9694 71.3855 66.5804 69.6775 66.5804Z" fill="#E3CDA1"/>
	<path d="M26.3225 65.0322C23.7612 65.0322 21.6775 67.1165 21.6775 69.6772C21.6775 72.2385 23.7617 74.3222 26.3225 74.3222C28.8833 74.3222 30.9675 72.238 30.9675 69.6772C30.9675 67.116 28.8838 65.0322 26.3225 65.0322ZM26.3225 71.2257C25.4692 71.2257 24.774 70.5305 24.774 69.6772C24.774 68.824 25.4692 68.1287 26.3225 68.1287C27.1758 68.1287 27.871 68.824 27.871 69.6772C27.871 70.5305 27.1758 71.2257 26.3225 71.2257Z" fill="#3A3D46"/>
	<path d="M69.6775 65.0322C67.1162 65.0322 65.0325 67.1165 65.0325 69.6772C65.0325 72.2385 67.1167 74.3222 69.6775 74.3222C72.2387 74.3222 74.3225 72.238 74.3225 69.6772C74.3225 67.116 72.2382 65.0322 69.6775 65.0322ZM69.6775 71.2257C68.8242 71.2257 68.129 70.5305 68.129 69.6772C68.129 68.824 68.8242 68.1287 69.6775 68.1287C70.5307 68.1287 71.226 68.824 71.226 69.6772C71.226 70.5305 70.5307 71.2257 69.6775 71.2257Z" fill="#3A3D46"/>
	<path d="M35.0851 71.2261V74.3231H59.8997C59.4398 73.3597 59.1208 72.3196 58.9628 71.2261H35.0851Z" fill="#3A3D46"/>
	<path d="M34.0645 49.5483H37.1615V52.6453H34.0645V49.5483Z" fill="#3A3D46"/>
	<path d="M55.742 49.5483H58.839V52.6453H55.742V49.5483Z" fill="#3A3D46"/>
	<path d="M90.1612 47.7117L80.5165 43.8549V43.3549C80.5165 42.0432 79.696 40.9272 78.5423 40.4766L72.2975 25.4877C71.4628 23.4857 69.6716 22.1016 67.5796 21.7625L65.7248 18.051C64.9337 16.4668 63.3402 15.4839 61.5705 15.4839H17.3975C15.6278 15.4839 14.0358 16.4673 13.2432 18.051L11.3018 21.9342C4.87446 23.1716 0 28.8308 0 35.6129V69.6774C0 72.2386 2.08423 74.3224 4.645 74.3224H16.5442C16.0843 73.359 15.7653 72.3189 15.6073 71.2254H4.645C3.79174 71.2254 3.09651 70.5302 3.09651 69.6769V68.1284H15.6073C15.7653 67.0354 16.0843 65.9948 16.5442 65.0314H9.2905V58.8379C9.2905 57.1299 7.9015 55.7409 6.1935 55.7409H3.097V46.4514H27.871V58.9622C28.964 59.1202 30.0046 59.4392 30.968 59.8991V46.4514H49.5485V65.0319H36.1008C36.5607 65.9947 36.8797 67.0354 37.0377 68.1289H58.9628C59.1208 67.0359 59.4398 65.9952 59.8997 65.0319H52.6455V46.4514H68.1295C68.1295 48.1594 69.5185 49.5484 71.2265 49.5484V58.9627C72.3195 59.1207 73.3601 59.4397 74.3235 59.8996V49.5484H77.4205C78.8853 49.5484 80.1085 48.5234 80.4289 47.1559L89.01 50.5885C91.1887 51.4589 92.6393 53.4453 92.8595 55.7434H89.8075C88.0995 55.7434 86.7105 57.1324 86.7105 58.8403V65.0338H79.4553C79.9152 65.9967 80.2342 67.0374 80.3922 68.1308H92.903V69.6793C92.903 70.5326 92.2078 71.2278 91.3545 71.2278H80.3917C80.2337 72.3208 79.9147 73.3615 79.4548 74.3248H91.354C93.9153 74.3248 95.999 72.2406 95.999 69.6798V56.3402C96 52.5167 93.7083 49.1301 90.1612 47.7117ZM6.1935 58.8384V65.0319H3.097V58.8384H6.1935ZM17.3975 18.5804H61.57C62.1601 18.5804 62.6909 18.9087 62.9541 19.4366L64.075 21.6769H14.8925L16.0134 19.4366C16.2766 18.9087 16.8079 18.5804 17.3975 18.5804ZM27.871 35.6129V43.3549H9.2905V35.6129C9.2905 33.0516 11.3747 30.9679 13.9355 30.9679H29.4596C28.4762 32.2654 27.871 33.8633 27.871 35.6129ZM49.5485 43.3549H30.9675V35.6129C30.9675 33.0516 33.0517 30.9679 35.6125 30.9679H49.548V43.3549H49.5485ZM13.9355 27.8709C9.66673 27.8709 6.1935 31.3441 6.1935 35.6129V43.3549H3.097V35.6129C3.097 29.6361 7.95874 24.7744 13.9355 24.7744H66.5805C67.8345 24.7744 68.9573 25.5225 69.4387 26.6805L69.9358 27.8714H13.9355V27.8709ZM68.129 43.3549H52.645V30.9674H71.2255L75.0965 40.2579H71.2255C69.518 40.2579 68.129 41.6469 68.129 43.3549ZM71.226 46.4514V43.3544H77.4195L77.421 46.4514H71.226ZM92.903 65.0324H89.806V58.8389H92.903V65.0324Z" fill="#3A3D46"/>
	</symbol>
	<symbol id="base-6" width="96" height="96" viewBox="0 0 96 96" fill="none" xmlns="http://www.w3.org/2000/svg">
	<g clip-path="url(#clip0_326_896)">
	<path d="M26.3071 29.8219H26.4821C26.9946 27.8137 28.8 26.3226 30.9677 26.3226H32.5161V24.7742C32.5161 18.7881 37.3688 13.9355 43.3548 13.9355H52.6452C58.6312 13.9355 63.4839 18.7881 63.4839 24.7742V26.3226H65.0323C67.2 26.3226 69.0054 27.8137 69.5179 29.8219H69.6929L72.9368 24.4165C73.8426 22.9053 74.3226 21.1742 74.3226 19.4121V18.7711C74.3226 14.5425 71.6114 10.8418 67.6459 9.53652C64.4206 3.63716 58.3154 0 51.5489 0H44.4511C37.6847 0 31.5794 3.63716 28.3541 9.53652C24.3887 10.8418 21.6774 14.5425 21.6774 18.7711V19.4121C21.6774 21.1742 22.1574 22.9053 23.0632 24.415L26.3071 29.8219Z" fill="#E3CDA1"/>
	<path d="M61.9355 71.2256H58.8387V74.3224H55.7419V77.4191H58.8387V86.7094H61.9355V77.4191H65.0322V74.3224H61.9355V71.2256Z" fill="#3A3D46"/>
	<path d="M48 44.9028C50.5006 44.9028 52.7489 43.5139 53.8668 41.2765L54.0294 40.9498L51.2593 39.564L51.0968 39.8922C50.5068 41.0721 49.3208 41.806 48 41.806C46.6792 41.806 45.4932 41.0721 44.9032 39.8922L44.7406 39.5655L41.9706 40.9513L42.1332 41.278C43.2511 43.5139 45.4994 44.9028 48 44.9028Z" fill="#3A3D46"/>
	<path d="M38.7096 32.5157C39.5648 32.5157 40.258 31.8225 40.258 30.9673C40.258 30.1122 39.5648 29.4189 38.7096 29.4189C37.8545 29.4189 37.1613 30.1122 37.1613 30.9673C37.1613 31.8225 37.8545 32.5157 38.7096 32.5157Z" fill="#3A3D46"/>
	<path d="M57.2903 32.5157C58.1455 32.5157 58.8387 31.8225 58.8387 30.9673C58.8387 30.1122 58.1455 29.4189 57.2903 29.4189C56.4352 29.4189 55.7419 30.1122 55.7419 30.9673C55.7419 31.8225 56.4352 32.5157 57.2903 32.5157Z" fill="#3A3D46"/>
	<path d="M92.9032 37.1611H88.2581V35.0212L88.2952 35.0026C92.0934 33.1043 94.4516 29.2876 94.4516 25.0419C94.4516 22.5211 93.5845 20.0499 92.0114 18.0834L86.7097 11.4563L81.408 18.0819C79.8348 20.0499 78.9677 22.5211 78.9677 25.0419C78.9677 29.2876 81.3259 33.1043 85.1257 35.0042L85.1613 35.0212V37.1611H80.5161C78.8083 37.1611 77.4194 38.55 77.4194 40.2579V59.4052C74.0733 54.0958 68.3164 50.4292 61.6428 50.0112L55.7419 49.6427V49.0728C60.7092 46.9965 64.159 42.4504 64.879 37.1626H65.0323C68.448 37.1626 71.2258 34.3848 71.2258 30.9691C71.2258 27.5534 68.448 24.7756 65.0323 24.7756C65.0323 19.5946 61.8317 15.1523 57.3074 13.3066L60.1672 8.54071L57.5117 6.94742L54.1827 12.4953C53.6779 12.4303 53.167 12.3869 52.6452 12.3869H49.5484V6.19336H46.4516V12.3869H43.3548C42.833 12.3869 42.3221 12.4303 41.8173 12.4922L38.4883 6.94433L35.8328 8.53762L38.6926 13.3036C34.1683 15.1508 30.9677 19.5931 30.9677 24.774C27.552 24.774 24.7742 27.5518 24.7742 30.9676C24.7742 34.3833 27.552 37.1611 30.9677 37.1611H31.121C31.841 42.4504 35.2908 46.9965 40.2581 49.0713V49.6411L34.3572 50.0096C27.6836 50.4277 21.9267 54.0943 18.5806 59.4037V40.2579C18.5806 38.55 17.1917 37.1611 15.4839 37.1611H10.8387V35.0212L10.8759 35.0026C14.6741 33.1043 17.0323 29.2876 17.0323 25.0419C17.0323 22.5211 16.1652 20.0499 14.592 18.0834L9.29032 11.4563L3.98865 18.0819C2.41548 20.0499 1.54839 22.5211 1.54839 25.0419C1.54839 29.2876 3.90658 33.1043 7.70632 35.0042L7.74194 35.0212V37.1611H3.09677C1.3889 37.1611 0 38.55 0 40.2579V92.903C0 94.6109 1.3889 95.9998 3.09677 95.9998H15.4839C17.1917 95.9998 18.5806 94.6109 18.5806 92.903V89.5214C19.0668 89.6948 19.584 89.8063 20.129 89.8063C20.6586 89.8063 21.1773 89.7521 21.6774 89.6499V92.903C21.6774 94.6109 23.0663 95.9998 24.7742 95.9998H43.3548H44.9032H51.0968H52.6452H71.2258C72.9337 95.9998 74.3226 94.6109 74.3226 92.903V89.6499C74.8227 89.7521 75.3414 89.8063 75.871 89.8063C76.416 89.8063 76.9332 89.6948 77.4194 89.5214V92.903C77.4194 94.6109 78.8083 95.9998 80.5161 95.9998H92.9032C94.6111 95.9998 96 94.6109 96 92.903V40.2579C96 38.55 94.6111 37.1611 92.9032 37.1611ZM82.0645 25.0419C82.0645 23.221 82.6901 21.4388 83.8266 20.0189L86.7097 16.4143L89.5928 20.0189C90.7293 21.4388 91.3548 23.221 91.3548 25.0419C91.3548 27.5611 90.1905 29.8589 88.2581 31.3624V24.774H85.1613V31.3624C83.2289 29.8589 82.0645 27.5611 82.0645 25.0419ZM4.64516 25.0419C4.64516 23.221 5.27071 21.4388 6.40723 20.0189L9.29032 16.4143L12.1734 20.0189C13.3099 21.4388 13.9355 23.221 13.9355 25.0419C13.9355 27.5611 12.7711 29.8589 10.8387 31.3624V24.774H7.74194V31.3624C5.80955 29.8589 4.64516 27.5611 4.64516 25.0419ZM61.4493 53.1017C70.4052 53.6607 77.4194 61.1286 77.4194 70.0999V71.5105C76.9332 71.3371 76.416 71.2256 75.871 71.2256C75.3414 71.2256 74.8227 71.2798 74.3226 71.382V68.1288C74.3226 66.421 72.9337 65.0321 71.2258 65.0321V61.9353C71.2258 60.2274 69.8369 58.8385 68.129 58.8385H60.8903C59.0307 58.8385 57.2392 59.1869 55.5701 59.8125C55.6723 59.5043 55.7419 59.1807 55.7419 58.8385V55.7417C55.7419 54.8421 55.3502 54.0385 54.737 53.4734L55.121 52.7069L61.4493 53.1017ZM52.6452 55.7417L52.6467 58.8385H43.3548V55.7417H52.6452ZM51.7254 61.9353C50.2545 63.0548 48.9848 64.439 48 66.0432C47.0152 64.439 45.7456 63.0548 44.2746 61.9353H51.7254ZM45.6124 68.1288H45.4978C43.2728 66.1345 40.4377 65.0321 37.4261 65.0321H27.871V61.9353H35.1097C39.5412 61.9353 43.5174 64.3601 45.6124 68.1288ZM50.5022 68.1288H50.3876C52.4826 64.3601 56.4588 61.9353 60.8903 61.9353H68.129V65.0321H58.5739C55.5623 65.0321 52.7272 66.1345 50.5022 68.1288ZM52.6452 34.0643V27.8708H61.9355V34.0643H52.6452ZM68.129 30.9676C68.129 32.6754 66.7401 34.0643 65.0323 34.0643V27.8708C66.7401 27.8708 68.129 29.2597 68.129 30.9676ZM43.3548 15.4837H52.6452C57.7688 15.4837 61.9355 19.6504 61.9355 24.774H52.6452C50.9373 24.774 49.5484 26.1629 49.5484 27.8708H46.4516C46.4516 26.1629 45.0627 24.774 43.3548 24.774H34.0645C34.0645 19.6504 38.2312 15.4837 43.3548 15.4837ZM43.3564 34.0643H34.0645V27.8708H43.3548L43.3564 34.0643ZM27.871 30.9676C27.871 29.2597 29.2599 27.8708 30.9677 27.8708V34.0643C29.2599 34.0643 27.871 32.6754 27.871 30.9676ZM34.2488 37.1611H43.3548C45.0627 37.1611 46.4516 35.7722 46.4516 34.0643V30.9676H49.5484V34.0643C49.5484 35.7722 50.9373 37.1611 52.6452 37.1611H61.7512C61.008 41.4765 57.967 45.1105 53.7043 46.5319L52.6452 46.8834V50.7296L51.6883 52.645H44.3117L43.3548 50.7312V46.885L42.2957 46.5319C38.0346 45.1105 34.992 41.4765 34.2488 37.1611ZM34.5507 53.1017L40.8805 52.7054L41.2645 53.4718C40.6498 54.0385 40.2581 54.8421 40.2581 55.7417V58.8385C40.2581 59.1807 40.3277 59.5043 40.4299 59.8125C38.7623 59.1869 36.9693 58.8385 35.1097 58.8385H27.871C26.1631 58.8385 24.7742 60.2274 24.7742 61.9353V65.0321C23.0663 65.0321 21.6774 66.421 21.6774 68.1288V71.382C21.1773 71.2798 20.6586 71.2256 20.129 71.2256C19.584 71.2256 19.0668 71.3371 18.5806 71.5105V70.0999C18.5806 61.1286 25.5948 53.6607 34.5507 53.1017ZM3.09677 92.903V40.2579H6.19355V46.4514H9.29032V40.2579H15.4839L15.4854 70.0736C15.4854 70.0829 15.4839 70.0906 15.4839 70.0999V75.8708V85.1611C15.4839 85.1673 15.4854 85.1735 15.4854 85.1797V92.903H3.09677ZM18.5806 85.1611V75.8708C18.5806 75.0161 19.2759 74.3224 20.129 74.3224C22.6901 74.3224 24.7742 76.4065 24.7742 78.9676V82.0643C24.7742 84.6254 22.6901 86.7095 20.129 86.7095C19.2759 86.7095 18.5806 86.0158 18.5806 85.1611ZM24.7742 92.903V88.2176C26.6431 86.8024 27.871 84.582 27.871 82.0643V78.9676C27.871 76.4483 26.6431 74.2279 24.7742 72.8143V68.1288H37.4261C39.631 68.1288 41.7105 68.9232 43.3548 70.3601V92.903H24.7742ZM49.5484 92.903H46.4516V71.2256H49.5484V92.903ZM71.2258 92.903H52.6452V70.3601C54.2896 68.9232 56.369 68.1288 58.5739 68.1288H71.2258V72.8143C69.3569 74.2295 68.129 76.4499 68.129 78.9676V82.0643C68.129 84.5835 69.3569 86.8039 71.2258 88.2176V92.903ZM75.871 86.7095C73.3099 86.7095 71.2258 84.6254 71.2258 82.0643V78.9676C71.2258 76.4065 73.3099 74.3224 75.871 74.3224C76.7241 74.3224 77.4194 75.0161 77.4194 75.8708V85.1611C77.4194 86.0158 76.7241 86.7095 75.871 86.7095ZM80.5161 92.903V85.1611V75.8708V70.0999V40.2579H86.7097V52.645H89.8065V40.2579H92.9032L92.9048 92.903H80.5161Z" fill="#3A3D46"/>
	</g>
	<defs>
	<clipPath id="clip0_326_896">
	<rect width="96" height="96" fill="white"/>
	</clipPath>
	</defs>
	</symbol>
	<symbol id="base-7" width="96" height="96" viewBox="0 0 96 96" fill="none" xmlns="http://www.w3.org/2000/svg">
	<path d="M48 76.5C45.519 76.5 43.5 74.481 43.5 72C43.5 69.519 45.519 67.5 48 67.5C50.481 67.5 52.5 69.519 52.5 72C52.5 74.481 50.481 76.5 48 76.5Z" fill="#E3CDA1"/>
	<path d="M61.5 72C61.5 74.481 63.519 76.5 66 76.5C66.819 76.5 67.578 76.263 68.241 75.879C68.7315 74.6415 69 73.308 69 71.9355C69 70.629 68.751 69.3495 68.2965 68.151C67.623 67.7475 66.843 67.5 66 67.5C63.519 67.5 61.5 69.519 61.5 72Z" fill="#E3CDA1"/>
	<path d="M30 67.5C29.157 67.5 28.377 67.7475 27.7035 68.151C27.249 69.351 27 70.629 27 71.9355C27 73.308 27.2685 74.6415 27.759 75.879C28.422 76.263 29.181 76.5 30 76.5C32.481 76.5 34.5 74.481 34.5 72C34.5 69.519 32.481 67.5 30 67.5Z" fill="#E3CDA1"/>
	<path d="M48 33C45.867 33 43.8435 32.865 42.006 32.6235L42 32.625V36C42 37.6575 43.3425 39 45 39C46.6575 39 48 40.3425 48 42V48C48 49.6575 49.3425 51 51 51C52.6575 51 54 49.6575 54 48V40.5C54 39.672 54.672 39 55.5 39C56.328 39 57 39.672 57 40.5V42C57 43.6575 58.3425 45 60 45C61.6575 45 63 43.6575 63 42V28.5C63 30.9855 56.2845 33 48 33Z" fill="#E3CDA1"/>
	<path d="M70.5 71.9354C70.5 68.6744 69.2295 65.6084 66.924 63.3029L66.9015 63.2804C67.272 62.7809 67.5 62.1689 67.5 61.4999V58.4999C67.5 56.8454 66.1545 55.4999 64.5 55.4999V28.4999C64.5 24.6359 56.9865 22.7444 49.5 22.5224V20.4269L50.655 19.8494C53.643 18.3554 55.5 15.3509 55.5 12.0104C55.5 9.66741 54.588 7.46691 52.932 5.81091L48 0.878906L43.068 5.81091C41.412 7.46691 40.5 9.66741 40.5 12.0104C40.5 15.3524 42.357 18.3554 45.345 19.8509L46.5 20.4269V22.5224C39.0135 22.7444 31.5 24.6359 31.5 28.4999V55.4999C29.8455 55.4999 28.5 56.8454 28.5 58.4999V61.4999C28.5 62.1689 28.728 62.7809 29.0985 63.2804L29.076 63.3029C26.7705 65.6084 25.5 68.6744 25.5 71.9354C25.5 76.1999 27.771 80.2109 31.428 82.4054L31.5045 82.4519C31.5045 82.4684 31.5 82.4834 31.5 82.4999V85.4999C31.5 86.0249 31.647 86.5109 31.8855 86.9414L30.039 88.1729C29.0745 88.8134 28.5 89.8874 28.5 91.0454C28.5 92.9504 30.0495 94.4999 31.9545 94.4999H64.047C65.9505 94.4999 67.5 92.9504 67.5 91.0454C67.5 89.8874 66.9255 88.8134 65.9625 88.1714L64.116 86.9399C64.353 86.5109 64.5 86.0249 64.5 85.4999V82.4999C64.5 82.4834 64.4955 82.4684 64.4955 82.4519L64.5735 82.4054C68.229 80.2109 70.5 76.1999 70.5 71.9354ZM67.5 71.9354C67.5 74.7719 66.165 77.4584 63.9585 79.1894C60.768 78.2834 58.5 75.3689 58.5 71.9999C58.5 68.5799 60.8865 65.6039 64.1415 64.7639L64.8015 65.4239C66.5415 67.1639 67.5 69.4754 67.5 71.9354ZM34.5 85.4999V82.4999H61.5L61.5015 85.4999H34.5ZM38.997 66.6239C38.5305 65.8484 37.968 65.1329 37.3215 64.4999H40.665C40.0215 65.1299 39.4635 65.8469 38.997 66.6239ZM48 64.4999C52.1355 64.4999 55.5 67.8644 55.5 71.9999C55.5 76.1354 52.1355 79.4999 48 79.4999C43.8645 79.4999 40.5 76.1354 40.5 71.9999C40.5 67.8644 43.8645 64.4999 48 64.4999ZM55.3335 64.4999H58.623C57.99 65.1224 57.438 65.8259 56.982 66.5909C56.52 65.8259 55.9695 65.1209 55.3335 64.4999ZM57.003 77.3759C57.4725 78.1589 58.0515 78.8639 58.704 79.4999H55.3335C55.9785 78.8699 56.5365 78.1529 57.003 77.3759ZM40.6665 79.4999H37.2975C37.95 78.8639 38.5305 78.1589 38.9985 77.3759C39.4635 78.1529 40.0215 78.8699 40.6665 79.4999ZM43.5 12.0104C43.5 10.4699 44.1 9.02091 45.189 7.93191L48 5.12091L50.811 7.93191C51.9 9.02091 52.5 10.4684 52.5 12.0104C52.5 14.1344 51.3525 16.0424 49.5 17.0564V10.4999H46.5V17.0564C44.6475 16.0424 43.5 14.1344 43.5 12.0104ZM46.5 25.5239V28.4999H49.5V25.5224C57.2145 25.7504 61.212 27.7019 61.4955 28.4999C61.194 29.3474 56.6985 31.4999 48 31.4999C39.237 31.4999 34.7415 29.3159 34.5 28.5254V28.5179C34.7265 27.7319 38.724 25.7534 46.5 25.5239ZM34.5 32.1419C37.692 33.7424 42.9645 34.4999 48 34.4999C53.0355 34.4999 58.308 33.7424 61.5 32.1419V55.4999H34.5V32.1419ZM31.5 58.4999H64.5L64.5015 61.4999H31.5V58.4999ZM28.5 71.9354C28.5 69.4754 29.4585 67.1639 31.1985 65.4239L31.8585 64.7639C35.115 65.6039 37.5 68.5754 37.5 71.9999C37.5 75.3689 35.232 78.2834 32.0415 79.1894C29.835 77.4584 28.5 74.7719 28.5 71.9354ZM64.5 91.0454C64.5 91.2959 64.296 91.4999 64.0455 91.4999H31.9545C31.704 91.4999 31.5 91.2959 31.5 91.0454C31.5 90.8924 31.575 90.7529 31.7025 90.6674L34.9545 88.4999H61.047L64.299 90.6674C64.425 90.7529 64.5 90.8939 64.5 91.0454Z" fill="#3A3D46"/>
	<path d="M57.8025 9.16846L66.7979 4.67074L68.1389 7.35274L59.1435 11.8505L57.8025 9.16846Z" fill="#3A3D46"/>
	<path d="M61.5 13.5H67.5V16.5H61.5V13.5Z" fill="#3A3D46"/>
	<path d="M58.0632 20.9014L59.0138 18.0558L72.5185 22.5669L71.568 25.4124L58.0632 20.9014Z" fill="#3A3D46"/>
	<path d="M27.8213 7.35498L29.1623 4.67298L38.1577 9.1707L36.8167 11.8527L27.8213 7.35498Z" fill="#3A3D46"/>
	<path d="M28.5 13.5H34.5V16.5H28.5V13.5Z" fill="#3A3D46"/>
	<path d="M23.5295 22.5889L37.0343 18.092L37.9818 20.9376L24.4771 25.4344L23.5295 22.5889Z" fill="#3A3D46"/>
	</symbol>
	<symbol id="base-8" width="96" height="96" viewBox="0 0 96 96" fill="none" xmlns="http://www.w3.org/2000/svg">
	<g clip-path="url(#clip0_326_359)">
	<path d="M32.5161 69.6776C29.1003 69.6776 26.3225 66.8998 26.3225 63.4841C26.3225 60.0683 29.1003 57.2905 32.5161 57.2905C35.9318 57.2905 38.7096 60.0683 38.7096 63.4841C38.7096 66.8998 35.9318 69.6776 32.5161 69.6776Z" fill="#E3CDA1"/>
	<path d="M80.5053 61.8164C80.5068 61.8567 80.5161 61.8954 80.5161 61.9356C80.5161 65.356 77.7429 68.1292 74.3225 68.1292L69.9282 73.0732C71.4054 74.8492 73.5499 75.8711 75.8709 75.8711C80.1398 75.8711 83.6129 72.3981 83.6129 68.1292C83.6129 66.059 82.8062 64.1142 81.3414 62.651L80.5053 61.8164Z" fill="#E3CDA1"/>
	<path d="M48 89.8064C64.6018 89.8064 96 87.5412 96 78.9677C96 76.5879 93.6681 74.609 88.9332 72.9368C89.4875 71.4364 89.8064 69.8214 89.8064 68.129C89.8064 64.3246 88.2828 60.7649 85.5917 58.1497C86.2947 56.9791 86.7097 55.6258 86.7097 54.1935C86.7097 52.2519 85.9726 50.4403 84.7448 49.0575L87.0519 46.7504C89.8266 43.9757 91.3548 40.2875 91.3548 36.3639C91.3548 28.2658 84.7664 21.6774 76.6684 21.6774C67.6335 21.6774 58.8883 24.0805 51.2361 28.4114C49.6227 25.2681 46.7768 22.9285 43.3548 21.984V18.5806H46.4516C48.1595 18.5806 49.5484 17.1917 49.5484 15.4839V12.3871C49.5484 10.6792 48.1595 9.29032 46.4516 9.29032H43.3548V4.64516C43.3548 2.08413 41.2707 0 38.7097 0H23.2258C20.6648 0 18.5806 2.08413 18.5806 4.64516V9.29032H15.4839C13.776 9.29032 12.3871 10.6792 12.3871 12.3871V15.4839C12.3871 17.1917 13.776 18.5806 15.4839 18.5806H18.5806V21.9824C13.1257 23.4797 9.29032 28.4206 9.29032 34.1915V61.9819H9.3089C9.27019 65.0988 10.5197 68.3334 12.7463 71.3311C4.18529 73.2712 0 75.7765 0 78.9677C0 87.5412 31.3982 89.8064 48 89.8064ZM86.7097 68.129C86.7097 74.1058 81.8477 78.9677 75.871 78.9677C73.3068 78.9677 70.9068 78.0867 68.9729 76.4795L75.0488 69.6433C78.977 69.2764 82.0645 65.9597 82.0645 61.9355C82.0645 61.7249 82.0552 61.5143 82.0335 61.2991C82.5615 61.0699 83.0462 60.768 83.5045 60.4335C85.5546 62.4604 86.7097 65.2026 86.7097 68.129ZM15.5319 55.8333C16.1373 55.3409 16.8139 54.8919 17.5788 54.5032C20.0268 53.2568 23.0462 52.6328 26.3334 52.6328C29.4875 52.6328 32.8877 53.2072 36.2694 54.3577C45.9995 57.6681 52.7443 64.7814 52.6312 71.0679C48.1982 74.7282 39.9608 75.3646 31.8565 72.6054C22.2658 69.343 15.3941 62.2188 15.5319 55.8333ZM55.2465 74.273C55.2944 74.1182 55.313 73.9587 55.3548 73.8023L59.1855 69.9716C60.2214 68.9357 60.7804 67.5035 60.7185 66.0403C60.6581 64.6033 60.0263 63.3058 58.9409 62.3876C57.8911 61.5035 57.2903 60.2106 57.2903 58.8387C57.2903 56.6586 58.8372 54.7479 60.9693 54.2973L62.592 53.9535L62.1383 52.3572C62.0005 51.8741 61.9355 51.473 61.9355 51.0968C61.9355 48.5357 64.0196 46.4516 66.5806 46.4516C66.9569 46.4516 67.3579 46.5166 67.8426 46.6544L69.4374 47.1081L69.7812 45.4854C70.2255 43.3873 72.1037 41.8405 74.2498 41.808C75.3135 41.7724 76.3618 42.2694 77.2336 43.152C79.2604 45.2021 79.1009 46.5306 78.7649 47.7151L78.3128 49.3099L79.9339 49.6537C82.0661 50.1027 83.6129 52.0134 83.6129 54.1935C83.6129 56.3737 82.0661 58.2844 79.9339 58.735L78.3112 59.0787L78.7649 60.6751C78.9027 61.1582 78.9677 61.5592 78.9677 61.9355C78.9677 64.4965 76.8836 66.5806 74.3226 66.5806H73.6273L62.4108 79.1984C61.6676 80.0361 60.5977 80.5161 59.4766 80.5161H58.1203C55.9618 80.5161 54.2059 78.7634 54.1966 76.608C54.6333 75.8725 54.991 75.0952 55.2465 74.273ZM88.2581 36.3639C88.2581 39.4606 87.0519 42.3701 84.864 44.5595L82.2317 47.1917C82.1652 47.1608 82.1032 47.119 82.0351 47.0895C82.2039 45.4018 81.7765 43.3409 79.4353 40.9734C77.9644 39.4854 76.1326 38.7004 74.2003 38.7112C71.0864 38.7592 68.3923 40.6173 67.2108 43.3858C62.6648 42.9476 58.8387 46.6188 58.8387 51.0968C58.8387 51.3074 58.848 51.5179 58.8697 51.7332C56.0888 52.9378 54.1935 55.7234 54.1935 58.8387C54.1935 61.1241 55.1954 63.281 56.9419 64.7551C57.3585 65.1081 57.6 65.6098 57.6232 66.1719C57.6495 66.7711 57.4204 67.3579 56.9946 67.7837L55.5747 69.2036C54.4893 62.1414 47.3203 54.8501 37.2681 51.4281C36.1068 51.0333 34.9425 50.7205 33.7812 50.4511L34.7985 48.7215C43.488 33.9499 59.5308 24.7742 76.6684 24.7742C83.0586 24.7742 88.2581 29.9737 88.2581 36.3639ZM21.6774 4.64516C21.6774 3.792 22.3726 3.09677 23.2258 3.09677H38.7097C39.5628 3.09677 40.2581 3.792 40.2581 4.64516V9.29032H21.6774V4.64516ZM15.4839 12.3871H46.4516V15.4839H15.4839V12.3871ZM20.3845 24.7525L21.6774 24.5373V18.5806H40.2581V24.5373L41.551 24.7525C44.6415 25.2681 47.2428 27.2501 48.5853 30.0232C41.9396 34.3262 36.2539 40.1404 32.1306 47.1499L30.5357 49.8612C26.2142 49.2821 22.0723 49.5685 18.5806 50.7515V32.5161H15.4839V52.1326C14.2901 52.817 13.2526 53.6191 12.3871 54.528V34.193C12.3871 29.4952 15.7502 25.5252 20.3845 24.7525ZM12.7432 59.8064C12.785 59.6733 12.8408 59.5463 12.8888 59.4147C14.6973 66.0186 21.5613 72.3732 30.8594 75.5381C34.5941 76.8093 38.3226 77.4302 41.7925 77.4302C45.2655 77.4302 48.4723 76.8 51.168 75.5799C50.2901 76.8046 49.039 77.8483 47.4519 78.655C42.6565 81.0968 35.6686 81.1525 28.7597 78.799C17.8297 75.0813 10.6452 66.5605 12.7432 59.8064ZM15.0596 74.0021C18.2663 77.2212 22.6312 79.9866 27.7641 81.7332C31.4508 82.9889 35.184 83.6129 38.6818 83.6129C42.4707 83.6129 45.984 82.879 48.8578 81.4157C49.9401 80.8645 50.897 80.2142 51.7409 79.4895C52.8495 81.9159 55.2836 83.6129 58.1203 83.6129H59.4766C61.4803 83.6129 63.3941 82.7535 64.7257 81.2562L66.9166 78.7912C69.4126 80.8815 72.5899 82.0645 75.871 82.0645C80.7546 82.0645 85.0514 79.5344 87.5412 75.7208C92.8382 77.5123 92.9032 78.9522 92.9032 78.9677C92.9032 81.5953 77.0539 86.7097 48 86.7097C18.9461 86.7097 3.09677 81.5953 3.09677 78.9677C3.09677 78.2539 5.28929 76.0057 15.0596 74.0021Z" fill="#3A3D46"/>
	<path d="M48 92.9031C18.9461 92.9031 3.09677 87.7887 3.09677 85.1611H0C0 93.7346 31.3982 95.9998 48 95.9998C64.6018 95.9998 96 93.7346 96 85.1611H92.9032C92.9032 87.7887 77.0539 92.9031 48 92.9031Z" fill="#3A3D46"/>
	<path d="M68.129 65.0321V61.9353C67.2759 61.9353 66.5807 61.2401 66.5807 60.387C66.5807 59.5338 67.2759 58.8386 68.129 58.8386H69.6774V57.2902C69.6774 56.437 70.3727 55.7418 71.2258 55.7418C72.079 55.7418 72.7742 56.437 72.7742 57.2902H75.871C75.871 54.7291 73.7869 52.645 71.2258 52.645C69.1324 52.645 67.3595 54.0355 66.7804 55.9415C64.8743 56.5206 63.4839 58.2935 63.4839 60.387C63.4839 62.948 65.568 65.0321 68.129 65.0321Z" fill="#3A3D46"/>
	<path d="M40.9106 47.7085L42.7099 45.1877L53.5517 52.9262L51.7525 55.447L40.9106 47.7085Z" fill="#3A3D46"/>
	<path d="M47.1543 41.5596L48.8728 38.9834L58.1613 45.1794L56.4428 47.7556L47.1543 41.5596Z" fill="#3A3D46"/>
	<path d="M53.3494 35.3647L55.0679 32.7886L64.3563 38.9846L62.6378 41.5608L53.3494 35.3647Z" fill="#3A3D46"/>
	<path d="M62.5389 30.6274L64.4744 28.2089L72.2175 34.4053L70.282 36.8239L62.5389 30.6274Z" fill="#3A3D46"/>
	</g>
	<defs>
	<clipPath id="clip0_326_359">
	<rect width="96" height="96" fill="white"/>
	</clipPath>
	</defs>
	</symbol>
</svg>