<svg>
    <symbol id="catalog-1" width="96" height="96" viewBox="0 0 96 96" fill="none" xmlns="http://www.w3.org/2000/svg">
        <g clip-path="url(#clip0_326_156)">
            <path d="M88.0757 79.8392C85.1772 75.9761 80.7285 73.539 75.9552 73.0978C75.9552 73.0667 75.9598 73.0372 75.9598 73.0062C75.9598 69.519 73.6345 66.5972 70.4642 65.6186C70.9939 64.5654 71.2999 63.3849 71.2999 62.1329C71.2999 59.0092 69.4343 56.3266 66.7688 55.0948C67.5548 54.051 68.1575 52.8689 68.5287 51.5952C71.2113 50.8138 73.4994 49.0337 74.9051 46.5997C76.3621 44.0771 76.6806 41.2081 76.0359 38.5799C77.9652 36.5637 79.0665 33.8749 79.0665 31.0665C79.0665 28.2549 77.9745 25.5692 76.0421 23.553C76.707 20.8394 76.3093 17.9673 74.9051 15.5332C73.5009 13.1023 71.202 11.3237 68.5241 10.5424C67.7676 7.94369 66.0574 5.61837 63.5332 4.16135C61.0106 2.70589 58.1432 2.38746 55.515 3.03209C53.4988 1.10131 50.81 0 48 0C45.1901 0 42.5013 1.10131 40.485 3.03209C37.8568 2.38746 34.9894 2.70589 32.4668 4.16135C29.9426 5.61837 28.2324 7.94369 27.476 10.544C24.7949 11.3175 22.5209 13.065 21.0949 15.5332C19.6379 18.0558 19.3195 20.9248 19.9641 23.553C18.0349 25.5692 16.9336 28.258 16.9336 31.0665C16.9336 33.8764 18.0255 36.5637 19.9579 38.5799C19.2915 41.2935 19.6907 44.1656 21.0949 46.5997C22.5193 49.0664 24.7918 50.8138 27.4713 51.5874C27.8441 52.8735 28.4359 54.0587 29.2203 55.101C26.5595 56.3344 24.7002 59.0138 24.7002 62.1329C24.7002 63.3833 25.0062 64.5654 25.5343 65.6186C22.3655 66.5972 20.0402 69.5205 20.0402 73.0062C20.0402 73.0372 20.0449 73.0667 20.0449 73.0978C15.2715 73.539 10.8228 75.9761 7.92429 79.8392L6.70804 81.4609L8.58911 82.2143C10.9983 83.1773 13.5427 83.6573 16.0823 83.6573C17.6124 83.6573 19.1408 83.4802 20.6367 83.1338C19.2402 86.2948 18.4869 89.7355 18.4869 93.1994V95.4952L23.1841 93.6157C25.8854 92.5345 28.2744 90.8849 30.23 88.7864C30.797 90.6441 31.6327 92.4211 32.7277 94.0615L34.0201 96L35.8344 93.2786C37.526 90.7404 38.4844 87.8218 38.6459 84.7928C41.4031 83.5983 43.34 80.8567 43.34 77.6661C43.34 76.4421 43.0403 75.2538 42.5028 74.182C45.6731 73.2034 48 70.2801 48 66.7929C48 65.4291 47.6412 64.087 46.9608 62.9111L44.272 64.4644C44.6775 65.1697 44.8934 65.9743 44.8934 66.7929C44.8934 69.3621 42.8026 71.4528 40.2334 71.4528C38.0463 71.4528 36.1295 69.9011 35.6775 67.7621L35.3327 66.1358L33.7343 66.5894C33.2435 66.7276 32.8411 66.7929 32.4668 66.7929C29.8976 66.7929 27.8068 64.7021 27.8068 62.1329C27.8068 59.792 29.5465 57.8675 31.7989 57.5397C32.0179 57.6873 32.2353 57.8364 32.4668 57.97C34.132 58.9315 36.0053 59.427 37.9003 59.427C38.6273 59.427 39.3573 59.354 40.0812 59.2049L39.4567 56.1635C37.5974 56.5456 35.6682 56.2303 34.0201 55.2796C32.2229 54.2436 30.9383 52.5691 30.4009 50.5653C29.8634 48.56 30.1399 46.4676 31.1775 44.672L28.4872 43.1187C27.5925 44.6673 27.1063 46.3745 27.0379 48.1126C25.6943 47.4447 24.5635 46.3946 23.7868 45.0479C22.6622 43.1 22.4416 40.7576 23.1826 38.6203L23.5274 37.6261L22.7321 36.9365C21.0204 35.4546 20.0402 33.3157 20.0402 31.0665C20.0402 29.5318 20.5062 28.0483 21.3372 26.7902C22.2475 28.2301 23.5026 29.479 25.0761 30.3877C26.3451 31.1208 27.7229 31.5837 29.1675 31.7623L29.5512 28.6806C28.5198 28.5516 27.5365 28.2208 26.6294 27.6973C22.9201 25.5553 21.6463 20.7959 23.7868 17.0865C24.565 15.7367 25.699 14.6867 27.0472 14.0172C27.1125 15.7227 27.5769 17.436 28.4872 19.0142L31.1775 17.4609C30.1399 15.6637 29.865 13.5714 30.4009 11.5676C30.9383 9.56225 32.2229 7.88777 34.0201 6.85171C37.7279 4.70812 42.4857 5.98651 44.6309 9.69429L47.3197 8.14096C46.411 6.56745 45.1621 5.31236 43.7222 4.40367C44.9819 3.57264 46.4653 3.10665 48 3.10665C49.5347 3.10665 51.0181 3.57264 52.2779 4.40367C50.8379 5.31236 49.5891 6.56745 48.6804 8.14096L51.3692 9.69429C53.5128 5.98495 58.2737 4.71123 61.9799 6.85171C63.7771 7.88777 65.0617 9.56381 65.5992 11.5676C66.1366 13.5714 65.8601 15.6637 64.8225 17.4609L67.5129 19.0142C68.4184 17.4469 68.8798 15.7445 68.9512 14.0498C70.298 14.7255 71.449 15.76 72.2132 17.085C73.3378 19.0313 73.5568 21.3753 72.8175 23.5142L72.4726 24.5083L73.2679 25.1964C74.9797 26.6783 75.9598 28.8172 75.9598 31.0665C75.9598 32.6011 75.4938 34.083 74.6628 35.3428C73.7526 33.9028 72.499 32.6555 70.924 31.7453C69.1532 30.7232 67.1463 30.2246 65.1052 30.2945L65.217 33.3995C66.6523 33.3328 68.1031 33.7056 69.3691 34.4356C73.0784 36.5761 74.3521 41.337 72.2132 45.0448C71.087 46.9927 69.1687 48.3549 66.9474 48.7821L65.9145 48.9809L65.7157 50.0154C65.2885 52.2367 63.9262 54.155 61.9784 55.2796C60.4344 56.1713 58.6201 56.5083 56.8602 56.221L56.3647 59.2888C56.9363 59.382 57.5141 59.427 58.0888 59.427C59.9886 59.427 61.8743 58.9284 63.5317 57.97C63.7616 57.8364 63.9806 57.6889 64.1996 57.5397C66.4535 57.8675 68.1932 59.792 68.1932 62.1329C68.1932 64.7021 66.1024 66.7929 63.5332 66.7929C63.1589 66.7929 62.7566 66.7276 62.2657 66.5894L60.6674 66.1358L60.3225 67.7621C59.8705 69.9011 57.9537 71.4528 55.7666 71.4528C53.1974 71.4528 51.1067 69.3621 51.1067 66.7929C51.1067 65.9727 51.3226 65.1665 51.7295 64.4629L49.0407 62.9065C48.3604 64.0839 48 65.4275 48 66.7929C48 70.2801 50.3269 73.2034 53.4972 74.182C52.9598 75.2538 52.66 76.4421 52.66 77.6661C52.66 80.8567 54.597 83.5983 57.3541 84.7928C57.5157 87.8218 58.4741 90.7404 60.1656 93.2786L61.9799 96L63.2723 94.0615C64.3674 92.4196 65.2046 90.6441 65.77 88.7864C67.7257 90.8865 70.1147 92.5345 72.8159 93.6157L77.5131 95.4952V93.1994C77.5131 89.7355 76.7598 86.2948 75.3633 83.1338C76.8592 83.4802 78.3877 83.6573 79.9177 83.6573C82.4574 83.6573 85.0033 83.1773 87.4109 82.2143L89.292 81.4609L88.0757 79.8392ZM11.893 80.0287C14.2665 77.75 17.4042 76.3691 20.7066 76.1563C21.2099 77.2918 21.9803 78.2812 22.9309 79.0548C22.9154 79.0766 22.8999 79.0999 22.8843 79.1216C19.4111 80.6314 15.5402 80.9499 11.893 80.0287ZM22.03 90.7296L21.7225 90.8523C22.0844 87.5717 23.2012 84.3874 24.9611 81.5914C25.0093 81.5681 25.0621 81.551 25.1103 81.5277L26.7443 80.7106C27.2958 80.7821 27.8643 80.7961 28.4452 80.7417C28.6938 81.3133 29.0231 81.8368 29.3928 82.3261H29.3601V82.9397C29.3601 83.5594 29.399 84.173 29.4549 84.785C27.6064 87.4583 25.0543 89.5195 22.03 90.7296ZM34.0745 90.1455C33.2807 88.4602 32.7743 86.6583 32.5693 84.8021C33.4749 85.1873 34.4581 85.4126 35.4833 85.425C35.2985 87.0731 34.8247 88.6683 34.0745 90.1455ZM33.1052 69.8685C34.1382 72.2481 36.3283 73.9723 38.8913 74.429C39.7363 75.2973 40.2334 76.4483 40.2334 77.6661C40.2334 80.2353 38.1426 82.3261 35.5734 82.3261C33.3864 82.3261 31.4696 80.7743 31.0175 78.6354L30.6727 77.0091L29.0743 77.4626C28.5835 77.6009 28.1812 77.6661 27.8068 77.6661C25.2376 77.6661 23.1469 75.5754 23.1469 73.0062C23.1469 70.4432 25.2268 68.3602 27.7866 68.3477C29.2452 69.4568 31.1061 70.0564 33.1052 69.8685ZM55.7666 77.6661C55.7666 76.4483 56.2637 75.2973 57.1087 74.429C59.6717 73.9723 61.8619 72.2497 62.8948 69.8685C64.8908 70.0502 66.7486 69.4522 68.2072 68.3462C70.7702 68.3555 72.8532 70.4416 72.8532 73.0062C72.8532 75.5754 70.7624 77.6661 68.1932 77.6661C67.8189 77.6661 67.4165 77.6009 66.9257 77.4626L65.3273 77.0091L64.9825 78.6354C64.5305 80.7743 62.6137 82.3261 60.4266 82.3261C57.8574 82.3261 55.7666 80.2353 55.7666 77.6661ZM61.9256 90.1455C61.1737 88.6683 60.7015 87.0731 60.5167 85.425C61.5419 85.4126 62.5236 85.1873 63.4307 84.8021C63.2272 86.6583 62.7193 88.4602 61.9256 90.1455ZM73.97 90.7296C70.9457 89.5195 68.392 87.4583 66.5451 84.7835C66.6011 84.173 66.6399 83.5579 66.6399 82.9397V82.3261H66.6073C66.9785 81.8368 67.3078 81.3149 67.5548 80.7417C68.1357 80.7945 68.7027 80.7805 69.2526 80.7091L70.8898 81.5277C70.9379 81.5525 70.9907 81.5681 71.0389 81.5914C72.7988 84.3858 73.9156 87.5717 74.2776 90.8523L73.97 90.7296ZM73.1157 79.1216C73.1002 79.0999 73.0846 79.0766 73.0691 79.0548C74.0197 78.2828 74.7917 77.2933 75.2934 76.1563C78.5958 76.3707 81.7335 77.7516 84.1054 80.0287C80.4598 80.9514 76.5905 80.6314 73.1157 79.1216Z" fill="#3A3D46"/>
            <path d="M57.6694 40.7363L57.8683 39.7002C58.0329 38.8335 58.3343 38.0196 58.7614 37.2802C59.1901 36.5377 59.7447 35.8713 60.4111 35.295L61.2079 34.6069L60.8631 33.6112C60.5726 32.7771 60.4266 31.9212 60.4266 31.0669C60.4266 30.2126 60.5726 29.3567 60.8631 28.5225L61.2079 27.5269L60.4111 26.8387C59.7447 26.2625 59.1901 25.5945 58.7614 24.8536C58.3343 24.1127 58.0329 23.2987 57.8683 22.432L57.6694 21.3959L56.6334 21.1971C55.7666 21.0324 54.9527 20.7311 54.2118 20.3039C53.4708 19.8767 52.8044 19.3222 52.2266 18.6543L51.5385 17.8574L50.5428 18.2023C48.8745 18.7816 47.1224 18.7816 45.4541 18.2023L44.4584 17.8574L43.7703 18.6543C43.1925 19.3207 42.5261 19.8767 41.7852 20.3039C41.0442 20.7311 40.2303 21.0324 39.3635 21.1971L38.3275 21.3959L38.1286 22.432C37.964 23.2987 37.6626 24.1127 37.2355 24.852C36.8068 25.5945 36.2522 26.2609 35.5859 26.8372L34.789 27.5253L35.1338 28.521C35.4274 29.3567 35.5734 30.2126 35.5734 31.0669C35.5734 31.9212 35.4274 32.7771 35.1369 33.6112L34.7921 34.6069L35.589 35.295C36.2553 35.8713 36.8099 36.5392 37.2386 37.2802C37.6658 38.0211 37.9671 38.835 38.1318 39.7018L38.3306 40.7379L39.3666 40.9367C40.2334 41.1013 41.0473 41.4027 41.7883 41.8299C42.5292 42.257 43.1956 42.8115 43.7734 43.4795L44.4615 44.2763L45.4572 43.9315C47.1255 43.3521 48.8776 43.3521 50.5459 43.9315L51.5416 44.2763L52.2297 43.4795C52.8075 42.8131 53.4739 42.257 54.2149 41.8299C54.9558 41.4027 55.7697 41.1013 56.6365 40.9367L57.6694 40.7363ZM55.0552 38.1221C54.2133 38.3644 53.4102 38.7046 52.66 39.1379C51.9097 39.5713 51.2138 40.0963 50.5816 40.7037C49.7304 40.4924 48.8668 40.3868 48 40.3868C47.1333 40.3868 46.2696 40.4924 45.4184 40.7037C44.7862 40.0948 44.0919 39.5713 43.34 39.1379C42.5898 38.7046 41.7867 38.3644 40.9448 38.1221C40.7025 37.2802 40.3623 36.4771 39.9289 35.7268C39.4956 34.9766 38.9705 34.2807 38.3632 33.6501C38.5744 32.7988 38.6801 31.9336 38.6801 31.0669C38.6801 30.2001 38.5744 29.3349 38.3632 28.4853C38.9705 27.8546 39.4956 27.1587 39.9289 26.4069C40.3623 25.6567 40.7025 24.8536 40.9448 24.0117C41.7867 23.7694 42.5898 23.4292 43.34 22.9958C44.0903 22.5624 44.7862 22.0374 45.4184 21.4301C47.1208 21.851 48.8807 21.851 50.5816 21.4301C51.2138 22.039 51.9082 22.5624 52.66 22.9958C53.4102 23.4292 54.2133 23.7694 55.0552 24.0117C55.2975 24.8536 55.6377 25.6567 56.0711 26.4069C56.5045 27.1572 57.0295 27.8531 57.6368 28.4837C57.4256 29.3349 57.3199 30.2001 57.3199 31.0669C57.3199 31.9336 57.4256 32.7988 57.6368 33.6485C57.0295 34.2792 56.5045 34.975 56.0711 35.7268C55.6377 36.4771 55.2975 37.2802 55.0552 38.1221Z" fill="#3A3D46"/>
            <path d="M43.2795 66.787C41.9902 66.787 40.6916 66.4095 39.5732 65.6236C38.1799 64.645 37.2681 63.1957 37.0056 61.5383C36.7866 60.1559 37.0444 58.775 37.7357 57.5742C36.4091 56.9855 35.342 55.9836 34.6849 54.6928C33.9393 53.2265 33.8135 51.5613 34.337 50.0049C35.3529 46.9821 38.5574 45.2269 41.6826 45.8668C42.0492 42.7866 44.7411 40.3867 48 40.3867C51.2589 40.3867 53.9508 42.7866 54.3174 45.8668C57.4473 45.2424 60.6456 46.9837 61.663 50.0033C62.1865 51.5613 62.0622 53.2249 61.3151 54.6928C60.658 55.9836 59.5909 56.9886 58.2644 57.5742C58.954 58.775 59.2119 60.1559 58.9944 61.5383C58.7319 63.1942 57.8201 64.645 56.4283 65.6236C53.7877 67.4751 50.1436 67.0619 48 64.7599C46.7651 66.0865 45.0316 66.787 43.2795 66.787Z" fill="#E3CDA1"/>
            <path d="M48 60.5799C44.5734 60.5799 41.7867 57.7933 41.7867 54.3666C41.7867 50.94 44.5734 48.1533 48 48.1533C51.4267 48.1533 54.2133 50.94 54.2133 54.3666C54.2133 57.7933 51.4267 60.5799 48 60.5799ZM48 51.26C46.2867 51.26 44.8934 52.6533 44.8934 54.3666C44.8934 56.0799 46.2867 57.4733 48 57.4733C49.7133 57.4733 51.1067 56.0799 51.1067 54.3666C51.1067 52.6533 49.7133 51.26 48 51.26Z" fill="#3A3D46"/>
        </g>
        <defs>
            <clipPath id="clip0_326_156">
                <rect width="96" height="96" fill="white"/>
            </clipPath>
        </defs>
    </symbol>
</svg>