<svg width="180" height="52" viewBox="0 0 180 52" fill="none" xmlns="http://www.w3.org/2000/svg">
    <path d="M173.095 51.5684H6.6575C2.99754 51.5684 0 48.6686 0 45.128V6.48579C0 2.94519 2.99754 0.045418 6.6575 0.045418H173.095C176.755 0.045418 179.753 2.94519 179.753 6.48579V45.128C179.753 48.6686 176.755 51.5684 173.095 51.5684Z" fill="black"/>
    <path d="M173.095 1.07748C176.177 1.07748 178.686 3.5039 178.686 6.48579V45.128C178.686 48.1099 176.177 50.5363 173.095 50.5363H6.6575C3.57508 50.5363 1.06686 48.1099 1.06686 45.128V6.48579C1.06686 3.5039 3.57508 1.07748 6.6575 1.07748H173.095ZM173.095 0.045418H6.6575C2.99754 0.045418 0 2.94519 0 6.48579V45.128C0 48.6686 2.99754 51.5684 6.6575 51.5684H173.095C176.755 51.5684 179.753 48.6686 179.753 45.128V6.48579C179.753 2.94519 176.755 0.045418 173.095 0.045418Z" fill="#A6A6A6"/>
    <path d="M63.1365 13.2408C63.1365 14.3163 62.8036 15.1777 62.1478 15.8201C61.3939 16.5817 60.4119 16.9649 59.2085 16.9649C58.0585 16.9649 57.0765 16.5753 56.2709 15.8072C55.4637 15.028 55.0609 14.0716 55.0609 12.9268C55.0609 11.782 55.4637 10.8256 56.2709 10.0528C57.0765 9.27832 58.0585 8.88867 59.2085 8.88867C59.7811 8.88867 60.327 9.00299 60.848 9.21552C61.3672 9.42966 61.79 9.71948 62.0962 10.0769L61.4005 10.7564C60.8663 10.1462 60.1389 9.84507 59.2085 9.84507C58.3697 9.84507 57.6424 10.1284 57.0249 10.7C56.4141 11.2732 56.1078 12.0155 56.1078 12.9268C56.1078 13.8381 56.4141 14.5868 57.0249 15.16C57.6424 15.7251 58.3697 16.0149 59.2085 16.0149C60.099 16.0149 60.848 15.7251 61.4388 15.1535C61.8283 14.7752 62.0496 14.2535 62.1079 13.5869H59.2085V12.6563H63.0766C63.1232 12.8576 63.1365 13.0524 63.1365 13.2408Z" fill="white" stroke="white" stroke-width="0.16" stroke-miterlimit="10"/>
    <path d="M69.2729 10.0138H65.6397V12.4611H68.9151V13.3917H65.6397V15.8391H69.2729V16.7874H64.6111V9.06543H69.2729V10.0138Z" fill="white" stroke="white" stroke-width="0.16" stroke-miterlimit="10"/>
    <path d="M73.6036 16.7874H72.575V10.0138H70.3464V9.06543H75.8339V10.0138H73.6036V16.7874Z" fill="white" stroke="white" stroke-width="0.16" stroke-miterlimit="10"/>
    <path d="M79.8052 16.7874V9.06543H80.8322V16.7874H79.8052Z" fill="white" stroke="white" stroke-width="0.16" stroke-miterlimit="10"/>
    <path d="M85.3842 16.7874H84.3639V10.0138H82.127V9.06543H87.6211V10.0138H85.3842V16.7874Z" fill="white" stroke="white" stroke-width="0.16" stroke-miterlimit="10"/>
    <path d="M98.0101 15.7944C97.2228 16.5753 96.2475 16.9649 95.0841 16.9649C93.914 16.9649 92.9387 16.5753 92.1514 15.7944C91.3659 15.0151 90.9747 14.0587 90.9747 12.9268C90.9747 11.7949 91.3659 10.8385 92.1514 10.0592C92.9387 9.27831 93.914 8.88867 95.0841 8.88867C96.2408 8.88867 97.2161 9.27831 98.0034 10.0656C98.7956 10.8514 99.1868 11.8013 99.1868 12.9268C99.1868 14.0587 98.7956 15.0151 98.0101 15.7944ZM92.9121 15.1471C93.5046 15.7251 94.2253 16.0149 95.0841 16.0149C95.9362 16.0149 96.6636 15.7251 97.2494 15.1471C97.8403 14.5691 98.1399 13.8268 98.1399 12.9268C98.1399 12.0267 97.8403 11.2845 97.2494 10.7065C96.6636 10.1284 95.9362 9.83863 95.0841 9.83863C94.2253 9.83863 93.5046 10.1284 92.9121 10.7065C92.3212 11.2845 92.0216 12.0267 92.0216 12.9268C92.0216 13.8268 92.3212 14.5691 92.9121 15.1471Z" fill="white" stroke="white" stroke-width="0.16" stroke-miterlimit="10"/>
    <path d="M100.63 16.7874V9.06543H101.878L105.759 15.0711H105.804L105.759 13.5866V9.06543H106.786V16.7874H105.714L101.65 10.4855H101.605L101.65 11.9765V16.7874H100.63Z" fill="white" stroke="white" stroke-width="0.16" stroke-miterlimit="10"/>
    <path d="M90.7218 28.064C87.5944 28.064 85.0396 30.3664 85.0396 33.5431C85.0396 36.694 87.5944 39.0206 90.7218 39.0206C93.8558 39.0206 96.4106 36.694 96.4106 33.5431C96.4106 30.3664 93.8558 28.064 90.7218 28.064ZM90.7218 36.8631C89.0058 36.8631 87.5295 35.4929 87.5295 33.5431C87.5295 31.5675 89.0058 30.2215 90.7218 30.2215C92.4377 30.2215 93.9207 31.5675 93.9207 33.5431C93.9207 35.4929 92.4377 36.8631 90.7218 36.8631ZM78.3238 28.064C75.1898 28.064 72.6417 30.3664 72.6417 33.5431C72.6417 36.694 75.1898 39.0206 78.3238 39.0206C81.4562 39.0206 84.006 36.694 84.006 33.5431C84.006 30.3664 81.4562 28.064 78.3238 28.064ZM78.3238 36.8631C76.6062 36.8631 75.1249 35.4929 75.1249 33.5431C75.1249 31.5675 76.6062 30.2215 78.3238 30.2215C80.0398 30.2215 81.5161 31.5675 81.5161 33.5431C81.5161 35.4929 80.0398 36.8631 78.3238 36.8631ZM63.5708 29.7433V32.0715H69.3179C69.1498 33.3724 68.7004 34.3288 68.0114 34.9954C67.1725 35.8004 65.866 36.694 63.5708 36.694C60.034 36.694 57.2645 33.9327 57.2645 30.5113C57.2645 27.0899 60.034 24.3286 63.5708 24.3286C65.4832 24.3286 66.8746 25.0515 67.9015 25.9886L69.5975 24.3479C68.1612 23.0212 66.2505 22.002 63.5708 22.002C58.7208 22.002 54.6448 25.8195 54.6448 30.5113C54.6448 35.2031 58.7208 39.0206 63.5708 39.0206C66.1922 39.0206 68.1612 38.1898 69.709 36.6313C71.2952 35.0968 71.7895 32.9393 71.7895 31.1972C71.7895 30.6562 71.7429 30.1587 71.6597 29.7433H63.5708ZM123.898 31.5482C123.43 30.3229 121.987 28.064 119.048 28.064C116.135 28.064 113.71 30.2843 113.71 33.5431C113.71 36.6119 116.11 39.0206 119.327 39.0206C121.929 39.0206 123.43 37.4862 124.048 36.5926L122.117 35.348C121.473 36.2593 120.596 36.8631 119.327 36.8631C118.067 36.8631 117.164 36.3044 116.584 35.2031L124.159 32.1713L123.898 31.5482ZM116.175 33.3724C116.11 31.26 117.871 30.178 119.133 30.178C120.121 30.178 120.96 30.6562 121.24 31.3405L116.175 33.3724ZM110.019 38.6873H112.508V22.5864H110.019V38.6873ZM105.941 29.2844H105.858C105.298 28.6436 104.231 28.064 102.88 28.064C100.044 28.064 97.4508 30.4727 97.4508 33.5608C97.4508 36.6313 100.044 39.0206 102.88 39.0206C104.231 39.0206 105.298 38.4362 105.858 37.776H105.941V38.5618C105.941 40.6565 104.784 41.7819 102.918 41.7819C101.397 41.7819 100.453 40.7193 100.064 39.8257L97.8985 40.7C98.5227 42.1523 100.175 43.9395 102.918 43.9395C105.838 43.9395 108.301 42.2778 108.301 38.2349V28.3972H105.941V29.2844ZM103.093 36.8631C101.377 36.8631 99.9407 35.4736 99.9407 33.5608C99.9407 31.6303 101.377 30.2215 103.093 30.2215C104.784 30.2215 106.117 31.6303 106.117 33.5608C106.117 35.4736 104.784 36.8631 103.093 36.8631ZM135.555 22.5864H129.6V38.6873H132.083V32.5867H135.555C138.313 32.5867 141.017 30.6562 141.017 27.5858C141.017 24.5169 138.306 22.5864 135.555 22.5864ZM135.62 30.3471H132.083V24.8261H135.62C137.474 24.8261 138.533 26.3154 138.533 27.5858C138.533 28.832 137.474 30.3471 135.62 30.3471ZM150.97 28.0334C149.176 28.0334 147.31 28.7998 146.543 30.4984L148.747 31.392C149.221 30.4984 150.093 30.2086 151.015 30.2086C152.304 30.2086 153.61 30.9573 153.63 32.2792V32.4482C153.181 32.1971 152.219 31.8251 151.035 31.8251C148.662 31.8251 146.244 33.0891 146.244 35.4478C146.244 37.6054 148.188 38.9949 150.373 38.9949C152.044 38.9949 152.966 38.2655 153.545 37.417H153.63V38.6616H156.028V32.4853C156.028 29.6306 153.825 28.0334 150.97 28.0334ZM150.671 36.8567C149.859 36.8567 148.727 36.467 148.727 35.4929C148.727 34.2467 150.138 33.7685 151.36 33.7685C152.453 33.7685 152.966 34.002 153.63 34.3095C153.435 35.8004 152.109 36.8567 150.671 36.8567ZM164.766 28.386L161.912 35.3657H161.827L158.876 28.386H156.198L160.632 38.1399L158.102 43.5675H160.697L167.529 28.386H164.766ZM142.382 38.6873H144.872V22.5864H142.382V38.6873Z" fill="white"/>
    <path d="M13.8942 9.75577C13.5031 10.1518 13.2767 10.7685 13.2767 11.5671V40.0529C13.2767 40.8515 13.5031 41.4681 13.8942 41.8642L13.9907 41.9512L30.4913 25.9952V25.6184L13.9907 9.66239L13.8942 9.75577Z" fill="url(#paint0_linear_200_42431)"/>
    <path d="M35.9854 31.3164L30.4913 25.995V25.6183L35.9921 20.2969L36.1152 20.3662L42.6296 23.9518C44.4887 24.9694 44.4887 26.6439 42.6296 27.6679L36.1152 31.2472L35.9854 31.3164Z" fill="url(#paint1_linear_200_42431)"/>
    <path d="M36.1152 31.2476L30.4913 25.8071L13.8942 41.8645C14.5116 42.4924 15.5186 42.5681 16.6637 41.9402L36.1152 31.2476Z" fill="url(#paint2_linear_200_42431)"/>
    <path d="M36.1152 20.3661L16.6637 9.67353C15.5186 9.05204 14.5116 9.12771 13.8942 9.75564L30.4913 25.8066L36.1152 20.3661Z" fill="url(#paint3_linear_200_42431)"/>
    <defs>
        <linearGradient id="paint0_linear_200_42431" x1="29.0263" y1="40.3495" x2="7.4212" y2="18.0161" gradientUnits="userSpaceOnUse">
            <stop stop-color="#00A0FF"/>
            <stop offset="0.0066" stop-color="#00A1FF"/>
            <stop offset="0.2601" stop-color="#00BEFF"/>
            <stop offset="0.5122" stop-color="#00D2FF"/>
            <stop offset="0.7604" stop-color="#00DFFF"/>
            <stop offset="1" stop-color="#00E3FF"/>
        </linearGradient>
        <linearGradient id="paint1_linear_200_42431" x1="45.0505" y1="25.8049" x2="12.8323" y2="25.8049" gradientUnits="userSpaceOnUse">
            <stop stop-color="#FFE000"/>
            <stop offset="0.4087" stop-color="#FFBD00"/>
            <stop offset="0.7754" stop-color="#FFA500"/>
            <stop offset="1" stop-color="#FF9C00"/>
        </linearGradient>
        <linearGradient id="paint2_linear_200_42431" x1="33.0571" y1="22.8495" x2="3.75887" y2="-7.4365" gradientUnits="userSpaceOnUse">
            <stop stop-color="#FF3A44"/>
            <stop offset="1" stop-color="#C31162"/>
        </linearGradient>
        <linearGradient id="paint3_linear_200_42431" x1="9.71632" y1="51.3412" x2="22.7993" y2="37.8172" gradientUnits="userSpaceOnUse">
            <stop stop-color="#32A071"/>
            <stop offset="0.0685" stop-color="#2DA771"/>
            <stop offset="0.4762" stop-color="#15CF74"/>
            <stop offset="0.8009" stop-color="#06E775"/>
            <stop offset="1" stop-color="#00F076"/>
        </linearGradient>
    </defs>
</svg>