<svg width="24" height="24" viewBox="0 0 24 24" fill="none" xmlns="http://www.w3.org/2000/svg">
    <path d="M21.7071 3.70711L22.4142 3L21 1.58579L20.2929 2.29289L21.7071 3.70711ZM2.29289 20.2929L1.58579 21L3 22.4142L3.70711 21.7071L2.29289 20.2929ZM20.2929 2.29289L2.29289 20.2929L3.70711 21.7071L21.7071 3.70711L20.2929 2.29289Z" fill="#B3862D"/>
    <path d="M3.70711 2.29289L3 1.58579L1.58579 3L2.29289 3.70711L3.70711 2.29289ZM20.2929 21.7071L21 22.4142L22.4142 21L21.7071 20.2929L20.2929 21.7071ZM2.29289 3.70711L20.2929 21.7071L21.7071 20.2929L3.70711 2.29289L2.29289 3.70711Z" fill="#B3862D"/>
</svg>