<svg>
	<symbol id="option-1" width="96" height="96" viewBox="0 0 96 96" fill="none" xmlns="http://www.w3.org/2000/svg">
	<path d="M26.4759 27.0714C26.957 25.0202 28.787 23.4903 30.9837 23.4903H32.5306V20.4753C32.5306 18.5509 32.9096 16.6482 33.6429 14.8754C35.4945 16.2568 37.7546 17.0163 40.0936 17.0163C42.2237 17.0163 44.3059 16.3852 46.0772 15.2049L48 13.9224L49.9229 15.2049C51.6956 16.3852 53.7778 17.0163 55.9064 17.0163C58.2438 17.0163 60.5039 16.2568 62.3572 14.8754C63.0904 16.6482 63.4694 18.5509 63.4694 20.4753V23.4903H65.0163C67.213 23.4903 69.043 25.0217 69.5241 27.0714L71.1097 25.4858C73.1672 23.4299 74.298 20.6965 74.298 17.7898C74.298 14.914 73.1888 12.2084 71.1747 10.1587C70.8359 6.20632 67.5085 3.09388 63.4694 3.09388H62.5382C60.3136 1.09369 57.4688 0 54.4523 0H53.586C51.7158 0 49.8424 0.442424 48.1702 1.27777L48 1.3644L47.8283 1.27777C46.1561 0.442424 44.2827 0 42.4125 0H41.5462C38.5312 0 35.6848 1.09369 33.4603 3.09388H32.5306C28.4915 3.09388 25.1641 6.20632 24.8253 10.1587C22.8112 12.2084 21.702 14.914 21.702 17.7898C21.702 20.6965 22.8328 23.4299 24.8903 25.4858L26.4759 27.0714Z" fill="#E3CDA1"/>
	<path d="M48.8554 34.1548L50.24 31.3873L48.4857 30.5102C49.1834 28.7761 49.5469 26.9043 49.5469 25.0371H46.4531C46.4531 26.8207 46.0323 28.609 45.2325 30.207L44.3771 31.9164L48.8554 34.1548Z" fill="#3A3D46"/>
	<path d="M48 40.5065C50.4983 40.5065 52.7445 39.1189 53.8614 36.8836L54.0238 36.5572L51.2563 35.1758L51.0939 35.5006C50.5045 36.6794 49.3195 37.4127 48 37.4127C46.6804 37.4127 45.4955 36.6794 44.9061 35.5022L44.7437 35.1758L41.9762 36.5572L42.1386 36.8851C43.2555 39.1174 45.5017 40.5065 48 40.5065Z" fill="#3A3D46"/>
	<path d="M44.4529 25.8447L42.2655 23.6573L41.8122 24.109C40.9846 24.9366 39.5459 24.9366 38.7183 24.109L38.2651 23.6558L36.0777 25.8431L36.531 26.2979C37.5303 27.2957 38.856 27.8449 40.2653 27.8449C41.6745 27.8449 43.0018 27.2957 43.9996 26.2979L44.4529 25.8447Z" fill="#3A3D46"/>
	<path d="M55.7347 27.8449C57.1439 27.8449 58.4712 27.2957 59.469 26.2979L59.9222 25.8447L57.7349 23.6573L57.2816 24.109C56.454 24.9366 55.0154 24.9366 54.1877 24.109L53.7345 23.6558L51.5471 25.8431L52.0004 26.2979C52.9981 27.2957 54.3254 27.8449 55.7347 27.8449Z" fill="#3A3D46"/>
	<path d="M63.9119 49.4881L55.7347 48.4285V46.2179C60.6973 44.145 64.1439 39.6017 64.8632 34.3188H65.0164C68.4289 34.3188 71.2041 31.5436 71.2041 28.1311C71.2041 24.7185 68.4289 21.9433 65.0164 21.9433V20.4753C65.0164 18.7257 64.7225 17.0132 64.1733 15.3642C64.3249 15.2265 64.4842 15.0966 64.6296 14.9496L66.1101 13.4676L63.9227 11.2803L62.4423 12.7622C60.6958 14.5072 58.3738 15.4694 55.9064 15.4694C54.0764 15.4694 52.3036 14.9326 50.7814 13.9178L48 12.063L45.2186 13.9163C43.6964 14.9326 41.9221 15.4694 40.0936 15.4694C37.6262 15.4694 35.3043 14.5072 33.5578 12.7622L32.0774 11.2803L29.89 13.4676L31.3704 14.9496C31.5174 15.0966 31.6752 15.225 31.8268 15.3626C31.2776 17.0132 30.9837 18.7257 30.9837 20.4753V21.9433C27.5711 21.9433 24.7959 24.7185 24.7959 28.1311C24.7959 31.5436 27.5711 34.3188 30.9837 34.3188H31.1368C31.8562 39.6032 35.3027 44.145 40.2653 46.2179V48.4285L32.0882 49.4897C24.403 50.4859 18.6082 57.0805 18.6082 64.8291V76.9603C18.6082 82.291 22.9458 86.6286 28.275 86.6286C28.6664 86.6286 29.0531 86.6039 29.4367 86.5575V95.9056L66.5633 96V86.5575C66.947 86.6039 67.3337 86.6286 67.7251 86.6286C73.0543 86.6286 77.3919 82.291 77.3919 76.9603V64.8291C77.3919 57.0805 71.5971 50.4859 63.9119 49.4881ZM68.1103 28.1311C68.1103 29.8374 66.7226 31.225 65.0164 31.225V25.0372C66.7226 25.0372 68.1103 26.4248 68.1103 28.1311ZM27.8898 28.1311C27.8898 26.4248 29.2774 25.0372 30.9837 25.0372V31.225C29.2774 31.225 27.8898 29.8374 27.8898 28.1311ZM34.0776 32.2692V20.4737C34.0776 19.3661 34.2307 18.2786 34.503 17.219C36.2154 18.093 38.1166 18.5633 40.0936 18.5633C42.5362 18.5633 44.9015 17.847 46.9357 16.4919L48 15.7819L49.0643 16.4919C51.0985 17.847 53.4638 18.5633 55.9064 18.5633C57.8819 18.5633 59.7846 18.093 61.4971 17.2205C61.7693 18.2817 61.9225 19.3677 61.9225 20.4753V32.2707C61.9225 37.456 58.6167 42.0396 53.699 43.6794L52.6409 44.0321V49.2515C51.9726 51.2517 50.1085 52.5959 48 52.5959C45.8915 52.5959 44.0275 51.2517 43.3592 49.2468V44.0321L42.3011 43.6794C37.3834 42.0396 34.0776 37.4545 34.0776 32.2692ZM32.4873 52.5573L40.9584 51.4589C41.3497 52.1953 41.8463 52.8558 42.4295 53.4236C40.9011 54.2419 39.6914 55.6156 39.1144 57.3435L38.8994 57.9901L32.5306 65.0658V62.518C32.5306 61.5202 32.9189 60.5828 33.6243 59.8774L31.4369 57.6885C30.1468 58.9786 29.4367 60.6926 29.4367 62.518V64.9715H21.702V64.8291C21.702 58.6306 26.3382 53.3539 32.4873 52.5573ZM21.702 76.9603V68.0653H29.4367V68.5031L27.2633 70.9179C25.6715 72.6861 24.7959 74.9678 24.7959 77.347H27.8898C27.8898 75.7351 28.4838 74.1866 29.562 72.9877L41.6313 59.5788L42.0505 58.3212C42.5749 56.7479 44.0399 55.6898 45.6997 55.6898C47.8206 55.6898 49.547 57.4162 49.547 59.5371C49.547 61.1954 48.4889 62.6634 46.9187 63.1863L45.4754 63.6674L33.68 80.7038C32.4517 82.4766 30.433 83.5347 28.275 83.5347C24.6505 83.5347 21.702 80.5863 21.702 76.9603ZM63.4694 92.8984L32.5306 92.8195V85.6278C33.9909 84.9115 35.2718 83.8395 36.2247 82.4643L47.4308 66.2755L47.8964 66.1208C47.932 66.1085 47.9629 66.0899 47.9985 66.0775C48.0356 66.0899 48.0681 66.1085 48.1068 66.1208L48.5708 66.2755L59.7769 82.4643C60.7298 83.8395 62.0107 84.9115 63.471 85.6278V92.8984H63.4694ZM67.7251 83.5347C65.5671 83.5347 63.5483 82.4766 62.3201 80.7023L50.8619 64.1547C51.9741 62.9109 52.6409 61.2897 52.6409 59.5371C52.6409 58.2082 52.2464 56.9769 51.5967 55.9219C52.6857 56.3117 53.5675 57.1764 53.9496 58.3212L54.3688 59.5804L66.438 72.9893C67.5162 74.1866 68.1103 75.7351 68.1103 77.347H71.2041C71.2041 74.9693 70.3286 72.6861 68.7368 70.9179L66.5633 68.5031V68.0653H74.298V76.9603C74.298 80.5863 71.3495 83.5347 67.7251 83.5347ZM74.298 64.9715H66.5633V62.518C66.5633 60.6926 65.8533 58.9786 64.5631 57.6885L62.3757 59.8774C63.0812 60.5828 63.4694 61.5202 63.4694 62.518V65.0643L57.1007 57.987L56.8841 57.3404C56.3086 55.614 55.1005 54.2403 53.5721 53.422C54.1553 52.8543 54.6534 52.1922 55.0448 51.4574L63.5143 52.5557C69.6618 53.3539 74.298 58.6306 74.298 64.8291V64.9715Z" fill="#3A3D46"/>
	<path d="M86.6735 6.18774H89.7674V12.3755H86.6735V6.18774Z" fill="#3A3D46"/>
	<path d="M89.7674 12.3755H95.9551V15.4694H89.7674V12.3755Z" fill="#3A3D46"/>
	<path d="M86.6735 15.4694L89.7674 15.4694V21.6571H86.6735V15.4694Z" fill="#3A3D46"/>
	<path d="M80.4858 12.3755H86.6735V15.4694L80.4858 15.4694V12.3755Z" fill="#3A3D46"/>
	<path d="M6.23262 12.3755H9.3265V18.5633H6.23262V12.3755Z" fill="#3A3D46"/>
	<path d="M9.3265 18.5633L15.5143 18.5633V21.6571H9.32649L9.3265 18.5633Z" fill="#3A3D46"/>
	<path d="M6.23262 21.6571L9.32649 21.6571L9.3265 27.8449H6.23262V21.6571Z" fill="#3A3D46"/>
	<path d="M0.0448608 18.5633L6.23262 18.5633V21.6571L0.0448608 21.6571V18.5633Z" fill="#3A3D46"/>
	<path d="M15.5143 34.0327H18.6081V37.1265H15.5143V34.0327Z" fill="#3A3D46"/>
	<path d="M12.4204 37.1266L15.5143 37.1265L15.5143 40.2204H12.4204V37.1266Z" fill="#3A3D46"/>
	<path d="M15.5143 40.2204L18.6081 40.2204V43.3143H15.5143L15.5143 40.2204Z" fill="#3A3D46"/>
	<path d="M18.6081 37.1265L21.702 37.1266V40.2204L18.6081 40.2204V37.1265Z" fill="#3A3D46"/>
	<path d="M6.23262 52.5959H9.3265V55.6898H6.23262V52.5959Z" fill="#3A3D46"/>
	<path d="M3.13874 55.6898H6.23262V58.7837H3.13874V55.6898Z" fill="#3A3D46"/>
	<path d="M6.23262 58.7837L9.3265 58.7837V61.8776H6.23262V58.7837Z" fill="#3A3D46"/>
	<path d="M9.3265 55.6898H12.4204V58.7837L9.3265 58.7837V55.6898Z" fill="#3A3D46"/>
	<path d="M6.23262 80.4409H9.3265V83.5348H6.23262V80.4409Z" fill="#3A3D46"/>
	<path d="M3.13874 83.5347L6.23262 83.5348V86.6286H3.13874V83.5347Z" fill="#3A3D46"/>
	<path d="M6.23262 86.6286L9.3265 86.6286V89.7225H6.23262V86.6286Z" fill="#3A3D46"/>
	<path d="M9.3265 83.5348L12.4204 83.5347V86.6286L9.3265 86.6286V83.5348Z" fill="#3A3D46"/>
	<path d="M71.2041 37.0275H74.298V40.1214H71.2041V37.0275Z" fill="#3A3D46"/>
	<path d="M68.1102 40.1214H71.2041L71.2041 43.2153H68.1102V40.1214Z" fill="#3A3D46"/>
	<path d="M71.2041 43.2153H74.298V46.3092H71.2041L71.2041 43.2153Z" fill="#3A3D46"/>
	<path d="M74.298 40.1214H77.3919V43.2153H74.298V40.1214Z" fill="#3A3D46"/>
	<path d="M89.7674 52.5959H92.8613V55.6898H89.7674V52.5959Z" fill="#3A3D46"/>
	<path d="M86.6735 55.6898H89.7674V58.7837H86.6735V55.6898Z" fill="#3A3D46"/>
	<path d="M89.7674 58.7837L92.8613 58.7837V61.8776H89.7674V58.7837Z" fill="#3A3D46"/>
	<path d="M92.8613 55.6898H95.9551V58.7837L92.8613 58.7837V55.6898Z" fill="#3A3D46"/>
	<path d="M83.5797 81.9878H86.6735V85.0817H83.5797V81.9878Z" fill="#3A3D46"/>
	<path d="M80.4858 85.0817H83.5797L83.5796 88.1756H80.4858V85.0817Z" fill="#3A3D46"/>
	<path d="M83.5796 88.1756L86.6735 88.1755V91.2695H83.5797L83.5796 88.1756Z" fill="#3A3D46"/>
	<path d="M86.6735 85.0817H89.7674V88.1756L86.6735 88.1755V85.0817Z" fill="#3A3D46"/>
	</symbol>
	<symbol id="option-2" width="96" height="96" viewBox="0 0 96 96" fill="none" xmlns="http://www.w3.org/2000/svg">
	<path d="M43.3549 21.6775V48.0001H58.8387V41.8065H74.3226V35.613H77.4194V29.4194H80.5162V21.6775H43.3549Z" fill="#E3CDA1"/>
	<path d="M9.00852 26.9341C9.52104 26.5548 10.1512 26.3225 10.8387 26.3225H13.9355V24.5078C13.9355 23.6872 14.2622 22.8991 14.8428 22.3184L17.0323 20.129C20.0609 22.1481 23.6207 23.2258 27.2609 23.2258H29.4194C31.1303 23.2258 32.5161 24.6116 32.5161 26.3225H35.6129C36.3004 26.3225 36.929 26.5532 37.4431 26.9326L38.3752 23.2056C38.5967 22.3184 38.7097 21.4049 38.7097 20.4898C38.7097 14.3148 33.6852 9.29028 27.5102 9.29028H18.9414C12.7665 9.29028 7.74194 14.3148 7.74194 20.4898C7.74194 21.4049 7.85498 22.3184 8.0764 23.2056L9.00852 26.9341Z" fill="#E3CDA1"/>
	<path d="M89.8064 57.0364V3.09677C89.8064 1.3889 88.4175 0 86.7097 0H3.09677C1.3889 0 0 1.3889 0 3.09677V74.3226C0 76.0304 1.3889 77.4193 3.09677 77.4193H50.016C52.1744 88.0088 61.5577 96 72.7742 96C85.5809 96 96 85.5809 96 72.7742C96 66.6999 93.6372 61.1799 89.8064 57.0364ZM3.09677 74.3226V3.09677H86.7097V54.2369C82.8232 51.3074 78.0062 49.5484 72.7742 49.5484C59.9675 49.5484 49.5484 59.9675 49.5484 72.7742C49.5484 73.2975 49.5933 73.8085 49.6273 74.3226H3.09677ZM72.7742 92.9032C61.6754 92.9032 52.6452 83.873 52.6452 72.7742C52.6452 61.6754 61.6754 52.6452 72.7742 52.6452C83.873 52.6452 92.9032 61.6754 92.9032 72.7742C92.9032 83.873 83.873 92.9032 72.7742 92.9032Z" fill="#3A3D46"/>
	<path d="M82.3334 67L69.5 79.8333L63.6667 74" stroke="#3A3D46" stroke-width="3" stroke-linecap="round" stroke-linejoin="round"/>
	<path d="M24.7742 34.972C23.9597 35.7864 22.4919 35.7864 21.6774 34.972L21.2237 34.5183L19.0343 36.7077L19.488 37.1614C20.4867 38.1601 21.8137 38.7098 23.2258 38.7098C24.6379 38.7098 25.9664 38.1601 26.9636 37.1614L27.4173 36.7077L25.2279 34.5183L24.7742 34.972Z" fill="#3A3D46"/>
	<path d="M34.0103 34.0645H35.6129C38.1739 34.0645 40.258 31.9804 40.258 29.4193C40.258 26.8583 38.1739 24.7742 35.6129 24.7742H33.7796C33.1386 22.9765 31.4353 21.6774 29.4193 21.6774H27.2593C23.9133 21.6774 20.6741 20.6973 17.8901 18.8407L16.8341 18.1362L13.7466 21.2237C12.8702 22.1001 12.3871 23.2676 12.3871 24.5094V24.7742H10.8387C8.27767 24.7742 6.19354 26.8583 6.19354 29.4193C6.19354 31.9804 8.27767 34.0645 10.8387 34.0645H12.4413C12.7045 37.4338 14.3566 40.529 17.0322 42.5992V43.6258C10.7675 45.1478 6.19354 50.849 6.19354 57.4002V65.0322C6.19354 66.7401 7.58245 68.129 9.29032 68.129H37.1613C38.8691 68.129 40.258 66.7401 40.258 65.0322V57.4002C40.258 50.849 35.6841 45.1478 29.4193 43.6258V42.5992C32.095 40.529 33.7471 37.4338 34.0103 34.0645ZM37.1613 29.4193C37.1613 30.2725 36.4661 30.9677 35.6129 30.9677H34.0645V27.8709H35.6129C36.4661 27.8709 37.1613 28.5662 37.1613 29.4193ZM9.29032 29.4193C9.29032 28.5662 9.98554 27.8709 10.8387 27.8709H12.3871V30.9677H10.8387C9.98554 30.9677 9.29032 30.2725 9.29032 29.4193ZM18.2462 46.5414L21.5953 48.7742L19.3099 50.2978L17.839 46.6188C17.9721 46.5878 18.1099 46.5677 18.2462 46.5414ZM28.2054 46.5414C28.3417 46.5677 28.4795 46.5878 28.6126 46.6188L27.1417 50.2978L24.8562 48.7742L28.2054 46.5414ZM23.0199 57.2903H23.6067L25.8193 65.0322H21.9143L23.0199 57.2903ZM23.6578 54.1935H22.7922L22.1125 52.1512L23.2258 51.4095L24.3391 52.1512L23.6578 54.1935ZM9.29032 57.4002C9.29032 53.3218 11.5587 49.6707 14.9543 47.7491L17.8513 54.9909L19.4415 53.9303L20.0934 55.8828L18.7866 65.0322H15.4839V59.4797C15.4839 57.6542 14.7732 55.9385 13.4833 54.6472L11.2924 56.8366C11.9984 57.5427 12.3871 58.4825 12.3871 59.4797V65.0322H9.29032V57.4002ZM37.1613 57.4002V65.0322H34.0645V59.4797C34.0645 58.481 34.4531 57.5427 35.1608 56.8366L32.9698 54.6472C31.6784 55.9385 30.9677 57.6542 30.9677 59.4797V65.0322H29.0384L26.3938 55.7775L27.0085 53.9318L28.5987 54.9925L31.4957 47.7507C34.8929 49.6707 37.1613 53.3233 37.1613 57.4002ZM27.0116 40.5182L26.3226 40.978V44.0748L23.2258 46.1388L20.129 44.0748V40.978L19.44 40.5182C16.9626 38.8676 15.4839 36.1037 15.4839 33.1277V24.5094C15.4839 24.096 15.6449 23.7058 15.9375 23.4131L17.2583 22.0924C20.2962 23.8498 23.729 24.7742 27.2593 24.7742H29.4193C30.2725 24.7742 30.9677 25.4694 30.9677 26.3226V33.1277C30.9677 36.1037 29.489 38.8676 27.0116 40.5182Z" fill="#3A3D46"/>
	<path d="M18.5806 30.9676C19.4358 30.9676 20.129 30.2744 20.129 29.4192C20.129 28.5641 19.4358 27.8708 18.5806 27.8708C17.7255 27.8708 17.0322 28.5641 17.0322 29.4192C17.0322 30.2744 17.7255 30.9676 18.5806 30.9676Z" fill="#3A3D46"/>
	<path d="M27.871 30.9676C28.7261 30.9676 29.4193 30.2744 29.4193 29.4192C29.4193 28.5641 28.7261 27.8708 27.871 27.8708C27.0158 27.8708 26.3226 28.5641 26.3226 29.4192C26.3226 30.2744 27.0158 30.9676 27.871 30.9676Z" fill="#3A3D46"/>
	<path d="M46.4516 18.5806H49.5484C51.2563 18.5806 52.6452 17.1917 52.6452 15.4838V12.3871C52.6452 10.6792 51.2563 9.29028 49.5484 9.29028H46.4516C44.7438 9.29028 43.3549 10.6792 43.3549 12.3871V15.4838C43.3549 17.1917 44.7438 18.5806 46.4516 18.5806ZM46.4516 12.3871H49.5484L49.55 15.4838H46.4516V12.3871Z" fill="#3A3D46"/>
	<path d="M58.8387 18.5806H61.9355C63.6434 18.5806 65.0323 17.1917 65.0323 15.4838V12.3871C65.0323 10.6792 63.6434 9.29028 61.9355 9.29028H58.8387C57.1308 9.29028 55.7419 10.6792 55.7419 12.3871V15.4838C55.7419 17.1917 57.1308 18.5806 58.8387 18.5806ZM58.8387 12.3871H61.9355L61.937 15.4838H58.8387V12.3871Z" fill="#3A3D46"/>
	<path d="M71.2258 18.5806H74.3226C76.0305 18.5806 77.4194 17.1917 77.4194 15.4838V12.3871C77.4194 10.6792 76.0305 9.29028 74.3226 9.29028H71.2258C69.5179 9.29028 68.129 10.6792 68.129 12.3871V15.4838C68.129 17.1917 69.5179 18.5806 71.2258 18.5806ZM71.2258 12.3871H74.3226L74.3241 15.4838H71.2258V12.3871Z" fill="#3A3D46"/>
	<path d="M43.3549 21.6775H49.5484V24.7743H43.3549V21.6775Z" fill="#3A3D46"/>
	<path d="M52.6451 21.6775H80.5161V24.7743H52.6451V21.6775Z" fill="#3A3D46"/>
	<path d="M43.3549 27.8708H55.742V30.9676H43.3549V27.8708Z" fill="#3A3D46"/>
	<path d="M58.8387 27.8708H80.5161V30.9676H58.8387V27.8708Z" fill="#3A3D46"/>
	<path d="M43.3549 34.0645H55.742V37.1612H43.3549V34.0645Z" fill="#3A3D46"/>
	<path d="M58.8387 34.0645H77.4193V37.1612H58.8387V34.0645Z" fill="#3A3D46"/>
	<path d="M43.3549 40.2581H55.742V43.3548H43.3549V40.2581Z" fill="#3A3D46"/>
	<path d="M58.8387 40.2581H74.3226V43.3548H58.8387V40.2581Z" fill="#3A3D46"/>
	<path d="M43.3549 46.4517H58.8387V49.5484H43.3549V46.4517Z" fill="#3A3D46"/>
	</symbol>
	<symbol id="option-3" width="96" height="96" viewBox="0 0 96 96" fill="none" xmlns="http://www.w3.org/2000/svg">
	<g clip-path="url(#clip0_326_46)">
	<path d="M44.9179 69.363C44.9179 67.8448 46.0169 66.5901 47.4612 66.3342L47.0913 65.9565C43.2902 62.0614 38.4425 59.5289 33.0691 58.6333C30.4318 58.2064 27.9609 60.3011 27.9609 62.9616V75.766C27.9609 78.1845 29.9293 80.1544 32.3493 80.1544C32.5898 80.1544 32.8302 80.1328 33.0707 80.0943C38.4409 79.1987 43.2886 76.6662 47.0897 72.7711L47.4597 72.3934C46.0169 72.136 44.9179 70.8813 44.9179 69.363Z" fill="#E3CDA1"/>
	<path d="M62.9277 58.6333C57.5574 59.5288 52.7097 62.0613 48.9086 65.9565L48.5387 66.3341C49.983 66.59 51.082 67.8447 51.082 69.3629C51.082 70.8812 49.983 72.1359 48.5387 72.3918L48.9086 72.7694C52.7097 76.6646 57.5574 79.1971 62.9308 80.0926C63.1697 80.1312 63.4086 80.1528 63.6506 80.1528C66.0706 80.1528 68.039 78.1844 68.039 75.7644V62.96C68.039 60.3011 65.5943 58.2078 62.9277 58.6333Z" fill="#E3CDA1"/>
	<path d="M89.2301 9.63684C88.2914 8.69658 79.9571 0.557987 76.6523 3.85967C76.6508 3.86121 76.6508 3.86275 76.6492 3.86275L76.3671 4.14483C74.4543 6.0577 72.0882 7.51895 69.5202 8.37597C67.5519 9.03261 65.7361 10.1547 64.2687 11.6222C63.6475 12.2433 63.0957 12.9169 62.6148 13.6291C62.4545 13.1944 62.2757 12.7674 62.0676 12.3528C60.9316 10.0838 60.332 7.54207 60.332 5.00185V4.6242C60.332 0.129478 49.2631 0 48.0007 0C46.7383 0 35.6695 0.129478 35.6695 4.6242V5.00493C35.6695 7.54362 35.0699 10.0854 33.9339 12.3559C33.7274 12.7705 33.547 13.1975 33.3867 13.6321C32.9058 12.92 32.354 12.2464 31.7328 11.6252C30.2654 10.1563 28.4496 9.03415 26.4812 8.37905C23.9133 7.52358 21.5472 6.06079 19.6343 4.14791L19.3492 3.86275C16.0444 0.556446 7.71159 8.69967 6.77134 9.63992C5.83263 10.5786 -2.30906 18.913 0.994167 22.2178L1.27933 22.5029C3.19221 24.4158 4.65345 26.7818 5.51047 29.3498C6.16711 31.3182 7.28925 33.134 8.75666 34.6014C11.2954 37.137 14.6695 38.535 18.2594 38.535C20.7919 38.535 23.2119 37.826 25.3129 36.5235L25.9155 37.1262C26.8234 38.0341 28.0319 38.535 29.3174 38.535C29.3868 38.535 29.4515 38.5181 29.5193 38.515L27.0993 41.7411L26.6477 41.8167C21.0694 42.7461 16.3003 46.5858 14.1994 51.8358L13.7693 52.9117L27.9625 63.9496V62.9601C27.9625 62.0907 28.2461 61.2938 28.6931 60.614L17.5349 51.9344C19.417 48.2181 23.0115 45.5469 27.1564 44.8563L27.3444 44.8255L34.4857 53.3957L36.8533 51.4211L29.9263 43.1099L32.522 39.6479C38.2807 46.8987 42.8093 54.9741 45.9846 63.7092L46.4578 65.0117V65.024C45.1522 65.4895 44.1241 66.5176 43.6586 67.8232H37.2094V70.906H43.6586C44.0933 72.1252 45.0104 73.1179 46.1958 73.6219C44.7052 75.0046 43.076 76.1976 41.3296 77.1779L33.3698 91.9584L49.5391 96.0015V93.6493L60.9963 90.3754L54.2897 76.9621C52.6851 76.0234 51.1807 74.9075 49.798 73.6235C50.9849 73.1194 51.902 72.1268 52.3382 70.906H58.7875V67.8232H52.3398C51.8743 66.5176 50.8462 65.4895 49.5406 65.024V65.0117L50.0138 63.7092C53.1891 54.9741 57.7177 46.8987 63.4764 39.6479L66.0721 43.1099L59.1451 51.4211L61.5127 53.3957L68.654 44.8255L68.842 44.8563C72.9869 45.5469 76.5814 48.2181 78.4635 51.9344L67.3083 60.611C67.7538 61.2923 68.0359 62.0892 68.0359 62.9601V63.9496L82.2291 52.9117L81.799 51.8358C79.6981 46.5842 74.929 42.7461 69.3507 41.8167L68.8991 41.7411L66.4791 38.515C66.55 38.5181 66.6147 38.535 66.6841 38.535C67.9696 38.535 69.1781 38.0341 70.0859 37.1262L70.6886 36.5235C72.7896 37.826 75.208 38.535 77.7421 38.535C81.332 38.535 84.7061 37.137 87.2448 34.5983C88.7138 33.1309 89.8359 31.3151 90.491 29.3467C91.3465 26.7788 92.8093 24.4127 94.7222 22.4998L95.0073 22.2147C98.309 18.9099 90.1689 10.5756 89.2301 9.63684ZM87.0506 11.8164C90.8409 15.6067 92.4779 18.7034 92.6844 19.8933C91.496 19.6868 88.3993 18.0498 84.6075 14.2595C80.8187 10.4692 79.1802 7.37252 78.9737 6.18256C80.1621 6.38911 83.2588 8.02607 87.0506 11.8164ZM80.0973 18.7681L79.7875 13.5088C80.5875 14.4876 81.463 15.4741 82.4264 16.439C83.3898 17.4024 84.3778 18.2779 85.3551 19.0779L80.0973 18.7681ZM66.4482 13.8032C67.5796 12.6719 68.9792 11.8071 70.4959 11.3015C72.6138 10.5956 74.6053 9.51969 76.3887 8.17405L77.0654 19.6806C77.2257 22.4197 76.2053 25.1048 74.2662 27.0439L74.1444 27.1656C72.4736 28.8365 70.2925 29.8061 67.9542 29.9525L66.4498 28.4481C62.4098 24.4096 62.4098 17.8402 66.4482 13.8032ZM48.0007 33.9108C47.1514 33.9108 46.4593 33.2187 46.4593 32.3694V30.828H49.5421V32.3694C49.5421 33.2187 48.8501 33.9108 48.0007 33.9108ZM51.0912 27.7221C52.087 25.9449 52.6249 23.9364 52.6249 21.8432V21.6813C52.6249 19.0193 51.7356 16.4575 50.1448 14.3705L57.4834 7.84727C57.7856 9.88963 58.3867 11.8888 59.3085 13.7323C59.9774 15.0703 60.3304 16.567 60.3304 18.0621C60.332 23.252 56.2241 27.4893 51.0912 27.7221ZM48.0007 12.1524L44.5403 9.07731C46.2312 9.23453 47.6031 9.2484 48.0007 9.2484C48.3984 9.2484 49.7703 9.23453 51.4612 9.07731L48.0007 12.1524ZM48.0007 3.0828C52.8361 3.0828 55.9467 3.98298 56.9856 4.6242C55.9482 5.26543 52.8377 6.1656 48.0007 6.1656C43.1638 6.1656 40.0548 5.26543 39.0159 4.6242C40.0533 3.98298 43.1654 3.0828 48.0007 3.0828ZM36.6915 13.7339C37.6132 11.8904 38.2144 9.88963 38.5165 7.84727L46.5256 14.967C48.4431 16.6702 49.5421 19.118 49.5421 21.6813V21.8432C49.5421 24.0381 48.7514 26.1082 47.321 27.7452H45.3526C40.0147 27.7452 35.6711 23.4015 35.6711 18.0637C35.6695 16.5685 36.0225 15.0703 36.6915 13.7339ZM29.5533 13.8032C33.5902 17.8417 33.5902 24.4096 29.5533 28.4481L28.0488 29.9525C25.7105 29.8061 23.5295 28.8365 21.8586 27.1656L21.7368 27.0439C19.7962 25.1033 18.7758 22.4197 18.9376 19.6806L19.6143 8.17405C21.3977 9.51969 23.3892 10.5956 25.5071 11.3015C27.0223 11.8071 28.4219 12.6719 29.5533 13.8032ZM15.9026 18.7681L10.6433 19.0779C11.6221 18.2779 12.6086 17.4024 13.5735 16.439C14.5385 15.4757 15.4124 14.4876 16.2124 13.5088L15.9026 18.7681ZM8.95088 11.8164C12.7412 8.02607 15.8379 6.38911 17.0278 6.18256C16.8213 7.37098 15.1843 10.4677 11.394 14.2595C7.6037 18.0498 4.50702 19.6868 3.31706 19.8933C3.52207 18.7034 5.16057 15.6067 8.95088 11.8164ZM10.9362 32.4187C9.80482 31.2874 8.94009 29.8878 8.43451 28.371C7.72855 26.2531 6.65265 24.2616 5.30701 22.4782L15.9535 21.8524C16.308 24.6177 17.555 27.2211 19.5573 29.2219L19.679 29.3436C21.2775 30.9421 23.232 32.0503 25.3591 32.6191C21.3068 36.4449 14.9022 36.3848 10.9362 32.4187ZM28.0951 34.9466L27.7544 34.606C27.7575 34.6029 27.7591 34.6014 27.7621 34.5998L30.1991 32.1629L30.5397 32.5035C30.865 32.8303 31.0453 33.2634 31.0453 33.7258C31.0453 34.6784 30.27 35.4538 29.3174 35.4538C28.855 35.4522 28.4219 35.2719 28.0951 34.9466ZM33.5239 36.0087C33.8969 35.3258 34.1281 34.5551 34.1281 33.7243C34.1281 32.4388 33.6272 31.2303 32.7193 30.3224L32.3478 29.951C33.5162 28.6146 34.3948 27.087 34.9512 25.4377C36.9027 28.183 39.9084 30.1174 43.3765 30.66V32.3694C43.3765 34.3763 44.6698 36.0719 46.4593 36.71V56.722C43.1222 49.2555 38.7909 42.313 33.5239 36.0087ZM48.0007 67.8216C48.8501 67.8216 49.5421 68.5122 49.5421 69.363C49.5421 70.2139 48.8501 70.9044 48.0007 70.9044C47.1514 70.9044 46.4593 70.2139 46.4593 69.363C46.4593 68.5122 47.1499 67.8216 48.0007 67.8216ZM46.4593 92.0509L37.9662 89.9284L46.4593 74.1568V92.0509ZM56.5817 88.4286L49.5421 90.4401V74.351L56.5817 88.4286ZM49.5421 56.722V36.71C51.3317 36.0719 52.6249 34.3763 52.6249 32.3694V30.66C56.0931 30.1174 59.0988 28.183 61.0502 25.4377C61.6082 27.087 62.4853 28.6146 63.6537 29.951L63.2822 30.3224C62.3743 31.2303 61.8734 32.4388 61.8734 33.7243C61.8734 34.5551 62.1046 35.3258 62.4776 36.0087C57.2106 42.313 52.8793 49.2555 49.5421 56.722ZM67.9064 34.9466C67.5796 35.2719 67.1465 35.4522 66.6841 35.4522C65.7315 35.4522 64.9562 34.6769 64.9562 33.7243C64.9562 33.2619 65.1365 32.8288 65.4617 32.502L65.8024 32.1613L68.2393 34.5983C68.2424 34.6014 68.244 34.6029 68.247 34.6045L67.9064 34.9466ZM87.5654 28.371C87.0599 29.8878 86.1951 31.2874 85.0637 32.4187C81.0977 36.3848 74.6932 36.4449 70.6424 32.6207C72.7695 32.0519 74.724 30.9452 76.3224 29.3452L76.4442 29.2234C78.4465 27.2211 79.6935 24.6193 80.048 21.8524L90.6945 22.4782C89.3473 24.2632 88.2714 26.2531 87.5654 28.371Z" fill="#3A3D46"/>
	<path d="M70.032 49.7764L60.6912 59.1173C61.4264 58.9261 62.1709 58.7597 62.9293 58.6333C63.7478 58.5022 64.5354 58.6317 65.2491 58.92L72.2131 51.9559L70.032 49.7764Z" fill="black"/>
	<path d="M25.9695 49.7764L23.7899 51.9559L30.7555 58.9231C31.4692 58.6317 32.2568 58.5023 33.0707 58.6333C33.8291 58.7597 34.5751 58.9277 35.3103 59.1188L25.9695 49.7764Z" fill="black"/>
	</g>
	<defs>
	<clipPath id="clip0_326_46">
	<rect width="96" height="96" fill="white"/>
	</clipPath>
	</defs>
	</symbol>
	<symbol id="option-4" width="96" height="96" viewBox="0 0 96 96" fill="none" xmlns="http://www.w3.org/2000/svg">
	<g clip-path="url(#clip0_326_749)">
	<path d="M37.6103 20.465C35.3899 18.8005 34.0645 16.1497 34.0645 13.375C34.0645 6 28.0645 0 20.6895 0H19.5685C12.1935 0 6.19355 6 6.19355 13.375C6.19355 16.1497 4.86813 18.799 2.64929 20.465C0.990968 21.7084 0 23.6888 0 25.7621C0 28.6173 1.81935 31.1412 4.52903 32.0454L4.64516 32.0841V32.1507C4.64516 34.3649 5.64542 36.4165 7.3889 37.7822L7.80852 38.1105H7.83793C8.28542 35.6361 10.2426 33.6465 12.799 33.2206L17.0323 32.5161V29.4194C14.3396 28.5213 12.5125 26.0454 12.4072 23.2258H12.3871H9.29032C7.57935 23.2258 6.19355 21.84 6.19355 20.129C6.19355 18.4181 7.57935 17.0323 9.29032 17.0323H12.3871V15.2175C12.3871 14.3969 12.7138 13.6088 13.2945 13.0281L15.4839 10.8387C17.4674 12.8222 20.1554 13.9355 22.9595 13.9355H24.7742C26.4852 13.9355 27.871 15.3213 27.871 17.0323H27.8725H30.9677C32.6787 17.0323 34.0645 18.4181 34.0645 20.129C34.0645 21.84 32.6787 23.2258 30.9677 23.2258H27.8663H27.8508C27.7455 26.0454 25.9185 28.5213 23.2258 29.4194V32.5161L27.4591 33.2222C30.0139 33.648 31.9711 35.6377 32.4201 38.112H32.4511L32.8707 37.7822C34.6126 36.4165 35.6129 34.3634 35.6129 32.1507L35.7306 32.0454C38.4387 31.1412 40.2581 28.6173 40.2581 25.7621C40.2581 23.6888 39.2671 21.7084 37.6103 20.465Z" fill="#E3CDA1"/>
	<path d="M92.9171 8.33961L92.8226 8.29316C92.3968 5.67484 90.322 3.6 87.7021 3.17574C86.6446 1.21239 84.6224 0 82.3803 0C81.1478 0 79.9726 0.365419 78.977 1.04671C77.9968 0.365419 76.8278 0 75.5659 0C73.3161 0 71.2908 1.21239 70.2332 3.17574C67.6134 3.6 65.5385 5.67329 65.1127 8.29316L65.0183 8.33961C63.1168 9.29032 61.9354 11.2026 61.9354 13.3285C61.9354 15.1974 62.8645 16.9316 64.419 17.969L65.4286 18.6426C65.9566 17.6872 66.9615 17.0323 68.129 17.0323H71.2257V15.2175C71.2257 14.3969 71.5525 13.6088 72.1331 13.0281L74.3225 10.8387C76.306 12.8222 78.994 13.9355 81.7981 13.9355H83.6128C85.3238 13.9355 86.7096 15.3213 86.7096 17.0323H86.7112H89.8064C90.9739 17.0323 91.9788 17.6872 92.5068 18.641L93.5179 17.9675C95.0709 16.9316 95.9999 15.1974 95.9999 13.3285C95.9999 11.2026 94.8185 9.29032 92.9171 8.33961Z" fill="#E3CDA1"/>
	<path d="M24.3205 22.7722L22.1311 20.5828C21.4358 21.278 20.4712 21.6775 19.488 21.6775H17.0322V24.7742H19.488C21.3135 24.7742 23.0307 24.0635 24.3205 22.7722Z" fill="#3A3D46"/>
	<path d="M48.0001 40.2581C48.8552 40.2581 49.5484 39.5649 49.5484 38.7098C49.5484 37.8546 48.8552 37.1614 48.0001 37.1614C47.1449 37.1614 46.4517 37.8546 46.4517 38.7098C46.4517 39.5649 47.1449 40.2581 48.0001 40.2581Z" fill="#3A3D46"/>
	<path d="M78.3267 21.6775H75.871V24.7742H78.3267C80.1523 24.7742 81.8694 24.0635 83.1592 22.7722L80.9698 20.5828C80.2746 21.278 79.3099 21.6775 78.3267 21.6775Z" fill="#3A3D46"/>
	<path d="M88.0429 24.7743H89.8065C92.3675 24.7743 94.4516 22.6902 94.4516 20.1292C94.4516 17.5681 92.3675 15.484 89.8065 15.484H87.9732C87.3322 13.6863 85.6289 12.3872 83.6129 12.3872H81.7998C79.3889 12.3872 77.1221 11.4489 75.4173 9.74412L74.3226 8.64941L71.0385 11.9335C70.1605 12.8099 69.6774 13.9774 69.6774 15.2192V15.484H68.1291C65.568 15.484 63.4839 17.5681 63.4839 20.1292C63.4839 22.6902 65.568 24.7743 68.1291 24.7743H69.8927C70.4346 27.2301 72.0449 29.3312 74.3226 30.4538V31.2048L71.3838 31.6941C67.7032 32.3072 65.0323 35.4597 65.0323 39.1929C65.0323 40.0817 65.1871 40.9565 65.4891 41.7895L66.5807 44.7888V59.5263C64.9316 55.9232 62.0671 52.9999 58.5089 51.2688C57.7022 48.5281 55.8891 46.2535 53.5045 44.8615C53.935 44.253 54.1936 43.5144 54.1936 42.7139V40.8992L54.6472 40.4455C55.3533 39.7395 55.742 38.8012 55.742 37.8024C55.742 35.7586 54.0929 34.0925 52.0537 34.0646L51.6263 33.2099C50.9358 31.8272 49.5469 30.9679 48 30.9679C46.4532 30.9679 45.0643 31.8272 44.3737 33.2084L43.9463 34.0646C41.9071 34.0925 40.2581 35.7586 40.2581 37.8024C40.2581 38.8012 40.6467 39.7395 41.3528 40.4455L41.8065 40.8992V42.7139C41.8065 43.5144 42.0651 44.253 42.4955 44.8631C40.111 46.2551 38.2963 48.5297 37.4911 51.2703C35.39 52.2923 33.5288 53.7245 32.0176 55.4757L30.2091 51.1341L33.6062 41.7895C33.9097 40.955 34.0645 40.0817 34.0645 39.1929C34.0645 35.4613 31.3936 32.3088 27.7131 31.6956L24.7742 31.2048V30.4538C27.0503 29.3312 28.6607 27.2301 29.2042 24.7743H30.9678C33.5288 24.7743 35.6129 22.6902 35.6129 20.1292C35.6129 17.5681 33.5288 15.484 30.9678 15.484H29.1345C28.4934 13.6863 26.7902 12.3872 24.7742 12.3872H22.9611C20.5502 12.3872 18.2834 11.4489 16.5786 9.74412L15.4839 8.64941L12.1998 11.9335C11.3218 12.8099 10.8387 13.9774 10.8387 15.2192V15.484H9.29035C6.72932 15.484 4.64519 17.5681 4.64519 20.1292C4.64519 22.6902 6.72932 24.7743 9.29035 24.7743H11.054C11.5959 27.2301 13.2062 29.3312 15.4839 30.4538V31.2048L12.5451 31.6941C8.86454 32.3072 6.19358 35.4597 6.19358 39.1929C6.19358 40.0817 6.34841 40.9565 6.65035 41.7895L10.0491 51.1356L3.46841 66.9292C3.22222 67.5206 3.0968 68.1462 3.0968 68.7857V69.4902C3.0968 72.155 5.26454 74.3227 7.92932 74.3227C9.07048 74.3227 10.1466 73.9201 11.0122 73.1986L12.2633 86.9684C9.66351 87.7039 7.74196 90.0714 7.74196 92.9034C7.74196 94.6112 9.13087 96.0001 10.8387 96.0001H20.1291C20.6958 96.0001 21.2207 95.836 21.6774 95.5697C22.1342 95.836 22.6591 96.0001 23.2258 96.0001H30.9678H65.0323C65.599 96.0001 66.1239 95.836 66.5807 95.5697C67.0374 95.836 67.5623 96.0001 68.1291 96.0001H77.4194C77.9861 96.0001 78.511 95.836 78.9678 95.5697C79.4245 95.836 79.9494 96.0001 80.5162 96.0001H89.8065C91.5143 96.0001 92.9032 94.6112 92.9032 92.9034C92.9032 91.3472 92.3071 89.9397 91.3549 88.8497V44.7888L92.4449 41.7895C92.7484 40.955 92.9032 40.0817 92.9032 39.1929C92.9032 35.4613 90.2323 32.3088 86.5518 31.6956L83.6129 31.2048V30.4538C85.8891 29.3312 87.4994 27.2301 88.0429 24.7743ZM91.3549 20.1292C91.3549 20.9823 90.6596 21.6775 89.8065 21.6775H88.2581V18.5808H89.8065C90.6596 18.5808 91.3549 19.276 91.3549 20.1292ZM66.5807 20.1292C66.5807 19.276 67.2759 18.5808 68.1291 18.5808H69.6774V21.6775H68.1291C67.2759 21.6775 66.5807 20.9823 66.5807 20.1292ZM32.5162 20.1292C32.5162 20.9823 31.8209 21.6775 30.9678 21.6775H29.4194V18.5808H30.9678C31.8209 18.5808 32.5162 19.276 32.5162 20.1292ZM7.74196 20.1292C7.74196 19.276 8.43719 18.5808 9.29035 18.5808H10.8387V21.6775H9.29035C8.43719 21.6775 7.74196 20.9823 7.74196 20.1292ZM88.2581 86.9297C87.7595 86.7996 87.247 86.7098 86.7097 86.7098H83.6129C82.4795 86.7098 81.4312 87.0381 80.5162 87.5707V69.0861L82.7567 67.965L81.3709 65.195L78.9678 66.3981L76.5631 65.1965L75.1773 67.9666L77.4194 69.0861V87.5707C76.5043 87.0381 75.456 86.7098 74.3226 86.7098H71.2258C70.0924 86.7098 69.0442 87.0381 68.1291 87.5707V74.3227C69.8369 74.3227 71.2258 72.9338 71.2258 71.2259V68.1292C71.2258 66.988 70.5987 66.0001 69.6774 65.4628V63.484H88.2581V86.9297ZM40.2581 74.3227H55.742V77.4195H40.2581V74.3227ZM27.871 71.2259V68.1292H68.1291L68.1306 71.2259H27.871ZM27.871 86.7098H26.3226C25.1892 86.7098 24.1409 87.0381 23.2258 87.5707V74.1601C23.7368 74.2592 24.254 74.3227 24.7742 74.3227C25.4122 74.3227 26.0392 74.2221 26.6571 74.0734C27.0302 74.2329 27.4405 74.3227 27.871 74.3227V86.7098ZM15.3492 86.7098L14.2127 74.1973C15.871 74.4528 17.6067 74.2174 19.1102 73.4664L20.1291 72.957V87.5707C19.214 87.0381 18.1657 86.7098 17.0323 86.7098H15.3492ZM37.3177 65.0324C38.0377 61.5036 41.1639 58.8388 44.9032 58.8388H51.0968C54.8346 58.8388 57.9623 61.5036 58.6823 65.0324H37.3177ZM43.9959 37.1614H45.8602L47.1438 34.5926C47.4705 33.9408 48.5296 33.9408 48.8547 34.5926L50.1399 37.1614H52.0042C52.3572 37.1614 52.6452 37.4494 52.6452 37.8024C52.6452 37.9712 52.5771 38.1369 52.4578 38.2561L51.0968 39.6172V42.7139C51.0968 43.2373 50.3706 43.5361 50.0021 43.1676L48 41.1655L45.998 43.1676C45.6294 43.5361 44.9032 43.2373 44.9032 42.7139V39.6172L43.5422 38.2561C43.423 38.1369 43.3549 37.9712 43.3549 37.8024C43.3549 37.4494 43.6429 37.1614 43.9959 37.1614ZM48 46.4517C50.6416 46.4517 53.0354 47.805 54.48 49.8876C53.3869 49.6662 52.255 49.5485 51.0968 49.5485H44.9032C43.7451 49.5485 42.6132 49.6662 41.52 49.8876C42.9647 47.805 45.3585 46.4517 48 46.4517ZM44.9032 52.6453H51.0968C58.2565 52.6453 64.1667 58.0755 64.9409 65.0324H61.8116C61.056 59.788 56.5456 55.7421 51.0968 55.7421H44.9032C39.4545 55.7421 34.944 59.788 34.1884 65.0324H31.0591C31.8333 58.0755 37.7435 52.6453 44.9032 52.6453ZM21.6774 53.2368C21.6774 53.0107 21.7131 52.7877 21.7843 52.5741L22.0367 51.8169L26.1647 53.1919L25.7389 54.3624C25.44 55.1893 24.6488 55.7421 23.7724 55.7421C22.6173 55.7421 21.6774 54.8022 21.6774 53.6471V53.2368ZM13.9355 22.9751V15.2192C13.9355 14.8058 14.0965 14.4156 14.3892 14.123L15.552 12.9601C17.664 14.5983 20.2436 15.484 22.9595 15.484H24.7742C25.6274 15.484 26.3226 16.1792 26.3226 17.0324V22.9751C26.3226 25.2357 24.8811 27.2347 22.7365 27.9501L21.6774 28.3031V32.1493L20.9853 33.5351C20.6586 34.187 19.5995 34.187 19.2743 33.5351L18.5807 32.1508V28.3046L17.5216 27.9516C15.3771 27.2347 13.9355 25.2357 13.9355 22.9751ZM9.29035 39.1929C9.29035 36.9818 10.8728 35.1129 13.0545 34.749L16.159 34.2319L16.5027 34.9193C17.1933 36.3021 18.5822 37.1614 20.1291 37.1614C21.6759 37.1614 23.0648 36.3021 23.7554 34.9209L24.0991 34.2319L27.2036 34.749C29.3853 35.1129 30.9678 36.9803 30.9678 39.1929C30.9678 39.7194 30.8764 40.2365 30.6968 40.732L27.2238 50.2824L23.0168 48.8796L26.2436 39.2006L23.3063 38.2205L20.1291 47.7477L16.9533 38.219L14.016 39.1991L17.2429 48.8781L13.0359 50.2809L9.56287 40.7304C9.3817 40.2365 9.29035 39.7194 9.29035 39.1929ZM18.4738 52.5741C18.5451 52.7877 18.5807 53.0107 18.5807 53.2368V53.6486C18.5807 54.8022 17.6408 55.7421 16.4857 55.7421C15.6093 55.7421 14.8181 55.1893 14.5177 54.364L14.0919 53.1934L18.2199 51.8184L18.4738 52.5741ZM9.15719 70.7181C8.82893 71.0448 8.39383 71.2259 7.92932 71.2259C6.97241 71.2259 6.19358 70.4471 6.19358 69.4902V68.7857C6.19358 68.555 6.23848 68.3305 6.32674 68.1183L11.6129 55.4324C12.3593 57.4701 14.3149 58.8388 16.4857 58.8388C17.904 58.8388 19.1907 58.2675 20.1291 57.3431C21.0658 58.2675 22.3541 58.8388 23.7724 58.8388C25.9433 58.8388 27.9004 57.4701 28.6467 55.4324L29.9211 58.4905C28.848 60.4693 28.1636 62.6835 27.9515 65.0324H27.871C26.1631 65.0324 24.7742 66.4213 24.7742 68.1292V71.1996C24.0016 71.1981 23.2274 71.0432 22.5337 70.6964L20.1291 69.4948L17.726 70.6964C16.3386 71.3885 14.6292 71.3885 13.2434 70.6964L10.5337 69.3415L9.15719 70.7181ZM10.8387 92.9034C10.8387 91.1955 12.2276 89.8066 13.9355 89.8066H17.0323C18.7324 89.8066 20.1151 91.1831 20.1291 92.8817V92.9034H10.8387ZM23.2258 92.9034C23.2258 91.1955 24.6147 89.8066 26.3226 89.8066H27.871V92.9034H23.2258ZM30.9678 92.9034V74.3227H37.1613V77.4195C37.1613 79.1274 38.5502 80.5163 40.2581 80.5163H55.742C57.4498 80.5163 58.8387 79.1274 58.8387 77.4195V74.3227H65.0323V92.9034H30.9678ZM68.1291 92.9034C68.1291 91.1955 69.518 89.8066 71.2258 89.8066H74.3226C76.0305 89.8066 77.4194 91.1955 77.4194 92.9034H68.1291ZM80.5162 92.9034C80.5162 91.1955 81.9051 89.8066 83.6129 89.8066H86.7097C88.4176 89.8066 89.8065 91.1955 89.8065 92.9034H80.5162ZM88.2581 60.3872H69.6774V53.3064L70.447 55.4231C71.1902 57.467 73.1505 58.8404 75.3244 58.8404C76.7427 58.8404 78.0294 58.269 78.9678 57.3446C79.9045 58.2675 81.1928 58.8388 82.6111 58.8388C84.7866 58.8388 86.7453 57.4654 87.4885 55.4215L88.2581 53.3049V60.3872ZM77.3125 52.5741C77.3838 52.7877 77.4194 53.0107 77.4194 53.2368V53.6486C77.4194 54.8022 76.4795 55.7421 75.3244 55.7421C74.448 55.7421 73.6568 55.1893 73.3564 54.364L72.9306 53.1934L77.0586 51.8184L77.3125 52.5741ZM80.8754 51.8169L85.0034 53.1919L84.5776 54.3624C84.2787 55.1893 83.4875 55.7421 82.6111 55.7421C81.456 55.7421 80.5162 54.8022 80.5162 53.6471V53.2352C80.5162 53.0092 80.5518 52.7862 80.623 52.5725L80.8754 51.8169ZM86.0423 34.749C88.224 35.1129 89.8065 36.9803 89.8065 39.1929C89.8065 39.7194 89.7151 40.2365 89.5355 40.732L86.0625 50.2824L81.8555 48.8796L85.0823 39.2006L82.1451 38.2205L78.9678 47.7477L75.792 38.219L72.8547 39.1991L76.0816 48.8781L71.8746 50.2809L68.4016 40.7304C68.2204 40.2365 68.1291 39.7194 68.1291 39.1929C68.1291 36.9818 69.7115 35.1129 71.8932 34.749L74.9977 34.2319L75.3414 34.9193C76.032 36.3021 77.4209 37.1614 78.9678 37.1614C80.5146 37.1614 81.9035 36.3021 82.5941 34.9209L82.9378 34.2319L86.0423 34.749ZM81.5752 27.9501L80.5162 28.3031V32.1493L79.824 33.5351C79.4973 34.187 78.4382 34.187 78.1131 33.5351L77.4194 32.1508V28.3046L76.3603 27.9516C74.2158 27.2347 72.7742 25.2357 72.7742 22.9751V15.2192C72.7742 14.8058 72.9352 14.4156 73.2279 14.123L74.3907 12.9601C76.5027 14.5983 79.0823 15.484 81.7982 15.484H83.6129C84.4661 15.484 85.1613 16.1792 85.1613 17.0324V22.9751C85.1613 25.2357 83.7198 27.2347 81.5752 27.9501Z" fill="#3A3D46"/>
	</g>
	<defs>
	<clipPath id="clip0_326_749">
	<rect width="96" height="96" fill="white"/>
	</clipPath>
	</defs>
	</symbol>
	<symbol id="option-5" width="96" height="96" viewBox="0 0 96 96" fill="none" xmlns="http://www.w3.org/2000/svg">
	<path d="M23.2258 95.9999C29.201 95.9999 34.0645 91.138 34.0645 85.1612C34.0645 79.1844 29.201 74.3225 23.2258 74.3225C17.2506 74.3225 12.3871 79.1844 12.3871 85.1612C12.3871 91.138 17.2506 95.9999 23.2258 95.9999ZM23.2258 82.0644C24.9337 82.0644 26.3226 83.4533 26.3226 85.1612C26.3226 86.8691 24.9337 88.258 23.2258 88.258C21.5179 88.258 20.129 86.8691 20.129 85.1612C20.129 83.4533 21.5179 82.0644 23.2258 82.0644Z" fill="#E3CDA1"/>
	<path d="M75.8709 95.9999C81.8462 95.9999 86.7097 91.138 86.7097 85.1612C86.7097 79.1844 81.8462 74.3225 75.8709 74.3225C69.8957 74.3225 65.0322 79.1844 65.0322 85.1612C65.0322 91.138 69.8957 95.9999 75.8709 95.9999ZM75.8709 82.0644C77.5788 82.0644 78.9677 83.4533 78.9677 85.1612C78.9677 86.8691 77.5788 88.258 75.8709 88.258C74.1631 88.258 72.7742 86.8691 72.7742 85.1612C72.7742 83.4533 74.1631 82.0644 75.8709 82.0644Z" fill="#E3CDA1"/>
	<path d="M63.4839 71.2258H57.2903V74.3226H63.4839V71.2258Z" fill="#3A3D46"/>
	<path d="M46.4516 71.2258H40.258V74.3226H46.4516V71.2258Z" fill="#3A3D46"/>
	<path d="M23.2258 80.5161C25.7868 80.5161 27.871 82.6002 27.871 85.1613C27.871 87.7223 25.7868 89.8064 23.2258 89.8064C20.6648 89.8064 18.5806 87.7223 18.5806 85.1613C18.5806 82.6002 20.6648 80.5161 23.2258 80.5161ZM23.2258 86.7097C24.0805 86.7097 24.7742 86.0144 24.7742 85.1613C24.7742 84.3081 24.0805 83.6129 23.2258 83.6129C22.3711 83.6129 21.6774 84.3081 21.6774 85.1613C21.6774 86.0144 22.3711 86.7097 23.2258 86.7097Z" fill="#3A3D46"/>
	<path d="M65.1561 86.7097C65.3141 87.8029 65.633 88.8434 66.0929 89.8065H33.0039C33.4637 88.8434 33.7827 87.8029 33.9406 86.7097H65.1561Z" fill="#3A3D46"/>
	<path d="M6.19355 50.0903V37.0699C4.42684 36.6875 3.09678 35.1159 3.09678 33.2361C3.09678 32.4588 3.32439 31.7063 3.75639 31.0591L9.29033 22.7566V15.4839H6.19355V12.3871H9.29033V9.29032H12.3871V12.3871H15.4839V15.4839H12.3871V21.6774H33.2748L44.287 13.6026C44.9404 13.1241 45.6805 12.8067 46.4501 12.6163V6.19355H43.3533V3.09677H46.4501V0H49.5468V3.09677H52.6436V6.19355H49.5468V12.6163C50.3164 12.8067 51.0581 13.1226 51.7115 13.6026L62.7252 21.6774H83.6129V15.4839H80.5161V12.3871H83.6129V9.29032H86.7097V12.3871H89.8065V15.4839H86.7097V22.7566L92.2436 31.0575C92.6756 31.7063 92.9032 32.4588 92.9032 33.2361C92.9032 35.1159 91.5732 36.6875 89.8065 37.0699V61.9355C89.8065 63.6433 88.4175 65.0322 86.7097 65.0322H85.4121L89.647 66.4444C93.4483 67.7094 96 71.2521 96 75.2578V86.7097C96 88.4175 94.6111 89.8064 92.9032 89.8064H85.649C86.1089 88.8433 86.4279 87.8028 86.5858 86.7097H92.9032V83.6129H86.5858C86.4279 82.5197 86.1089 81.4792 85.649 80.5161H86.7097V77.4193C86.7097 75.7115 88.0986 74.3226 89.8065 74.3226H92.8289C92.4836 72.0495 90.8996 70.1264 88.6684 69.3817L77.4194 65.6315V68.129C77.4194 69.8369 76.0305 71.2258 74.3226 71.2258V74.4464C73.2294 74.6044 72.1889 74.9233 71.2258 75.3832V71.2258C69.5179 71.2258 68.129 69.8369 68.129 68.129H54.1936V80.5161H66.0929C65.633 81.4792 65.3125 82.5197 65.1561 83.6129H33.9406C33.7827 82.5197 33.4637 81.4792 33.0039 80.5161H34.0645V71.2258H3.09678V74.3226H6.19355C7.90142 74.3226 9.29033 75.7115 9.29033 77.4193V80.5161H13.4477C12.9879 81.4792 12.6674 82.5197 12.511 83.6129H3.09678V86.7097H12.511C12.6689 87.8028 12.9879 88.8433 13.4477 89.8064H3.09678C1.38891 89.8064 0 88.4175 0 86.7097V58.8387C0 54.8021 2.59045 51.3693 6.19355 50.0903ZM89.8065 80.5161H92.9032V77.4193H89.8065V80.5161ZM15.4839 49.5484V43.3548C15.4839 41.647 16.8728 40.2581 18.5807 40.2581H21.6774C23.3853 40.2581 24.7742 41.647 24.7742 43.3548V49.5484H30.9677V35.184L29.6454 36.2013C28.8387 36.8206 27.8369 37.1613 26.8227 37.1613H26.3086H9.29033V49.5484H15.4839ZM18.5807 49.5484H21.6774V43.3548H18.5807V49.5484ZM40.2581 49.5484H43.3548V40.2581H40.2581V49.5484ZM40.2581 37.1613H43.3548C45.0627 37.1613 46.4516 38.5502 46.4516 40.2581V49.5484H49.5484V40.2581C49.5484 38.5502 50.9373 37.1613 52.6452 37.1613H55.7419C57.4498 37.1613 58.8387 38.5502 58.8387 40.2581V49.5484H61.9355V32.8026L48 22.0831L34.0645 32.8026V49.5484H37.1613V40.2581C37.1613 38.5502 38.5502 37.1613 40.2581 37.1613ZM52.6452 49.5484H55.7419V40.2581H52.6452V49.5484ZM74.3226 49.5484H77.4194V43.3548H74.3226V49.5484ZM74.3226 40.2581H77.4194C79.1272 40.2581 80.5161 41.647 80.5161 43.3548V49.5484H86.7097V37.1613H69.6914H69.1773C68.1631 37.1613 67.1597 36.8206 66.3546 36.1997L65.0323 35.184V49.5484H71.2258V43.3548C71.2258 41.647 72.6147 40.2581 74.3226 40.2581ZM11.6671 24.7742L6.33291 32.7763C6.24155 32.9125 6.19355 33.072 6.19355 33.2361C6.19355 33.6929 6.56516 34.0645 7.02193 34.0645H21.9592C21.7874 33.5814 21.6774 33.0704 21.6774 32.5301C21.6774 31.0606 22.385 29.664 23.5695 28.7954L29.0524 24.7742H11.6671ZM49.8828 16.1001C48.7819 15.2934 47.2165 15.2934 46.1187 16.1001L25.3997 31.2929C25.008 31.5809 24.7742 32.0423 24.7742 32.5301C24.7742 33.3755 25.4617 34.0645 26.3086 34.0645H26.8227C27.1587 34.0645 27.4916 33.9515 27.7579 33.7455L48 18.175L68.2405 33.7455C68.5084 33.9515 68.8413 34.0645 69.1773 34.0645H69.6914C70.5383 34.0645 71.2258 33.3755 71.2258 32.5301C71.2258 32.0439 70.992 31.5809 70.5987 31.2929L49.8828 16.1001ZM89.6671 32.7763L84.3329 24.7742H66.9476L72.4305 28.7954C73.615 29.664 74.3226 31.0606 74.3226 32.5301C74.3226 33.0704 74.2126 33.5814 74.0408 34.0645H88.9781C89.4348 34.0645 89.8065 33.6929 89.8065 33.2361C89.8065 33.072 89.7585 32.9125 89.6671 32.7763ZM86.7097 52.6452H70.7427C71.0957 53.04 71.4286 53.455 71.7151 53.9148L76.7288 61.9355H86.7097V52.6452ZM74.3226 68.129V65.0322H71.2258L71.2243 68.129H74.3226ZM68.129 65.0322V63.9995L64.2581 58.8387H54.1936V65.0322H68.129ZM37.1613 65.0322H51.0968V58.8387H37.1613V65.0322ZM51.0968 80.5161V68.129H37.1613V80.5161H51.0968ZM34.0645 68.129V58.8387C34.0645 57.1308 35.4534 55.7419 37.1613 55.7419H64.2581C65.2274 55.7419 66.1548 56.2049 66.7355 56.9806L70.4516 61.9355H73.0777L69.0906 55.5561C67.951 53.7337 65.9861 52.6452 63.8369 52.6452H63.4839H9.29033C5.87458 52.6452 3.09678 55.423 3.09678 58.8387V68.129H34.0645ZM6.19355 80.5161V77.4193H3.09678V80.5161H6.19355Z" fill="#3A3D46"/>
	<path d="M75.8709 80.5161C78.432 80.5161 80.5161 82.6002 80.5161 85.1613C80.5161 87.7223 78.432 89.8064 75.8709 89.8064C73.3099 89.8064 71.2258 87.7223 71.2258 85.1613C71.2258 82.6002 73.3099 80.5161 75.8709 80.5161ZM75.8709 86.7097C76.7257 86.7097 77.4193 86.0144 77.4193 85.1613C77.4193 84.3081 76.7257 83.6129 75.8709 83.6129C75.0162 83.6129 74.3226 84.3081 74.3226 85.1613C74.3226 86.0144 75.0162 86.7097 75.8709 86.7097Z" fill="#3A3D46"/>
	<path d="M48 26.3225C50.561 26.3225 52.6451 28.4066 52.6451 30.9677C52.6451 33.5287 50.561 35.6128 48 35.6128C45.4389 35.6128 43.3548 33.5287 43.3548 30.9677C43.3548 28.4066 45.4389 26.3225 48 26.3225ZM48 32.5161C48.8547 32.5161 49.5484 31.8208 49.5484 30.9677C49.5484 30.1145 48.8547 29.4193 48 29.4193C47.1453 29.4193 46.4516 30.1145 46.4516 30.9677C46.4516 31.8208 47.1453 32.5161 48 32.5161Z" fill="#3A3D46"/>
	</symbol>
	<symbol id="option-6" width="96" height="96" viewBox="0 0 96 96" fill="none" xmlns="http://www.w3.org/2000/svg">
	<g clip-path="url(#clip0_326_1791)">
	<path d="M52.3177 58.9636H73.8604V66.6574H52.3177V58.9636Z" fill="#E3CDA1"/>
	<path d="M12.3101 42.0374V68.1962H27.6976V49.7311H40.0077V42.0374H12.3101Z" fill="#E3CDA1"/>
	<path d="M73.8604 55.8862C75.5576 55.8862 76.9379 54.506 76.9379 52.8087V46.6537C76.9379 44.9564 75.5576 43.5762 73.8604 43.5762H52.3177C50.6205 43.5762 49.2402 44.9564 49.2402 46.6537V52.8087C49.2402 54.506 50.6205 55.8862 52.3177 55.8862H73.8604ZM52.3177 46.6537H73.8604L73.8634 52.8087H52.3177V46.6537Z" fill="#3A3D46"/>
	<path d="M52.3177 58.9636H58.4728V62.0412H52.3177V58.9636Z" fill="#3A3D46"/>
	<path d="M61.5503 58.9636H73.8604V62.0412H61.5503V58.9636Z" fill="#3A3D46"/>
	<path d="M52.3177 65.1187H73.8604V68.1962H52.3177V65.1187Z" fill="#3A3D46"/>
	<path d="M12.3101 42.0374H18.4651V45.1149H12.3101V42.0374Z" fill="#3A3D46"/>
	<path d="M21.5426 42.0374H40.0077V45.1149H21.5426V42.0374Z" fill="#3A3D46"/>
	<path d="M12.3101 48.1924H40.0077V51.2699H12.3101V48.1924Z" fill="#3A3D46"/>
	<path d="M36.9302 54.3474H33.8527V57.4249H30.7751V60.5024H33.8527V71.2738H36.9302V60.5024H40.0077V57.4249H36.9302V54.3474Z" fill="#3A3D46"/>
	<path d="M12.3101 54.3474H27.6976V57.4249H12.3101V54.3474Z" fill="#3A3D46"/>
	<path d="M12.3101 60.5024H27.6976V63.58H12.3101V60.5024Z" fill="#3A3D46"/>
	<path d="M12.3101 66.6575H27.6976V69.735H12.3101V66.6575Z" fill="#3A3D46"/>
	<path d="M93.9473 52.8086L96 46.6536H89.2479V38.9598V37.4211V22.0335C89.2479 20.3362 87.8677 18.956 86.1704 18.956H81.5542V16.8294L83.8161 15.6984C86.2166 14.4982 87.7092 12.0839 87.7092 9.39876C87.7092 7.19372 86.6551 5.08716 84.8917 3.76383L80.0154 0.106201L75.1375 3.76383C73.3757 5.08716 72.3216 7.19372 72.3216 9.39876C72.3216 12.0839 73.8142 14.4967 76.2147 15.7L78.4766 16.8294V18.956H73.8604C72.1631 18.956 70.7828 20.3362 70.7828 22.0335V34.3436H56.934V22.0335C56.934 20.3362 55.5538 18.956 53.8565 18.956H49.2402V16.8294L51.5022 15.6984C53.9027 14.4982 55.3953 12.0839 55.3953 9.39876C55.3953 7.19372 54.3412 5.08716 52.5778 3.76383L47.7015 0.106201L42.8236 3.76383C41.0617 5.08716 40.0077 7.19372 40.0077 9.39876C40.0077 12.0839 41.5003 14.4967 43.9008 15.7L46.1627 16.8294V18.956H41.5465C39.8492 18.956 38.4689 20.3362 38.4689 22.0335V34.6036C37.6642 34.4343 36.8379 34.3436 35.9977 34.3436H24.6201V22.0335C24.6201 20.3362 23.2399 18.956 21.5426 18.956H16.9263V16.8294L19.1883 15.6984C21.5888 14.4982 23.0814 12.0839 23.0814 9.39876C23.0814 7.19372 22.0273 5.08716 20.2639 3.76383L15.3876 0.106201L10.5097 3.76383C8.74784 5.08716 7.69379 7.19372 7.69379 9.39876C7.69379 12.0839 9.18638 14.4967 11.5868 15.7L13.8488 16.8294V18.956H9.23255C7.5353 18.956 6.15503 20.3362 6.15503 22.0335V34.3436V35.8823V37.4211H3.07752C1.38027 37.4211 0 38.8013 0 40.4986V80.5063C0 82.2035 1.38027 83.5838 3.07752 83.5838H18.4651V92.8163C18.4651 94.5136 19.8454 95.8938 21.5426 95.8938H44.624H67.7053C69.4026 95.8938 70.7828 94.5136 70.7828 92.8163V83.5838H86.1704C87.8677 83.5838 89.2479 82.2035 89.2479 80.5063V58.9637H96L93.9473 52.8086ZM77.5919 12.9471C76.2393 12.2701 75.3991 10.9098 75.3991 9.39876C75.3991 8.15698 75.9931 6.9706 76.984 6.2243L80.0154 3.95309L83.0452 6.22584C84.0377 6.9706 84.6317 8.15698 84.6317 9.39876C84.6317 10.9098 83.7915 12.2701 82.4389 12.9471L81.5542 13.3888V9.72343H78.4766V13.3888L77.5919 12.9471ZM45.2779 12.9471C43.9254 12.2701 43.0852 10.9098 43.0852 9.39876C43.0852 8.15698 43.6792 6.9706 44.6701 6.2243L47.7015 3.95309L50.7313 6.22584C51.7238 6.9706 52.3178 8.15698 52.3178 9.39876C52.3178 10.9098 51.4776 12.2701 50.125 12.9471L49.2402 13.3888V9.72343H46.1627V13.3888L45.2779 12.9471ZM12.964 12.9471C11.6115 12.2701 10.7713 10.9098 10.7713 9.39876C10.7713 8.15698 11.3653 6.9706 12.3562 6.2243L15.3876 3.95309L18.4174 6.22584C19.4099 6.9706 20.0038 8.15698 20.0038 9.39876C20.0038 10.9098 19.1637 12.2701 17.8111 12.9471L16.9263 13.3888V9.72343H13.8488V13.3888L12.964 12.9471ZM83.0929 46.6536V40.4986H86.1704V46.6536H83.0929ZM73.8604 22.0335H86.1704V37.4211H83.0929C83.0929 35.7238 81.7126 34.3436 80.0154 34.3436H73.8604V22.0335ZM46.1627 41.0125C47.8246 38.7629 50.4343 37.4211 53.2487 37.4211H80.0154V74.3512H52.0531C49.985 74.3512 47.9523 74.9083 46.1627 75.91V41.0125ZM41.5465 22.0335H53.8565V34.3436H53.2487C49.9496 34.3436 46.849 35.6977 44.624 38.0412C43.7269 37.0964 42.6836 36.3224 41.5465 35.7238V22.0335ZM43.0852 41.0125V75.8977C41.3049 74.896 39.2937 74.3512 37.1949 74.3512H9.23255V37.4211H35.9977C38.8121 37.4211 41.4234 38.7629 43.0852 41.0125ZM9.23255 22.0335H21.5426V34.3436H9.23255V22.0335ZM67.7053 92.8163H44.624H21.5426V83.5838H37.8319L38.2827 84.0346C39.9523 85.7042 42.2635 86.6613 44.624 86.6613C46.9844 86.6613 49.2956 85.7042 50.9652 84.0346L51.416 83.5838H67.7053V92.8163ZM86.1704 80.5063H50.142L48.7894 81.8588C47.6923 82.956 46.175 83.5838 44.624 83.5838C43.0729 83.5838 41.5557 82.956 40.4586 81.8588L39.106 80.5063H3.07752V40.4986H6.15503V74.3512C6.15503 76.0485 7.5353 77.4288 9.23255 77.4288H37.1949C39.5907 77.4288 41.8434 78.3612 43.5361 80.0554L44.624 81.1433L45.7119 80.0554C47.3814 78.3859 49.6926 77.4288 52.0531 77.4288H80.0154C81.7126 77.4288 83.0929 76.0485 83.0929 74.3512V58.9637H86.1704V80.5063ZM91.7284 55.8862H83.0929V49.7311H91.7284L90.7036 52.8086L91.7284 55.8862Z" fill="#3A3D46"/>
	</g>
	<defs>
	<clipPath id="clip0_326_1791">
	<rect width="96" height="96" fill="white"/>
	</clipPath>
	</defs>
	</symbol>
	<symbol id="option-7" width="96" height="96" viewBox="0 0 96 96" fill="none" xmlns="http://www.w3.org/2000/svg">
	<path d="M30.9678 30.9678H65.0323V38.7097H30.9678V30.9678Z" fill="#E3CDA1"/>
	<path d="M92.9032 58.8387H91.3548V58.3665C94.145 57.2377 96 54.5497 96 51.5071C96 49.9107 95.4735 48.3283 94.5151 47.0524L89.8064 40.7737L85.0978 47.0524C84.1394 48.3283 83.6129 49.9107 83.6129 51.5071C83.6129 54.5497 85.4679 57.2377 88.2581 58.3665V58.8387H86.7097C85.0018 58.8387 83.6129 60.2276 83.6129 61.9355V80.5161H80.5161V68.129C80.5161 66.4212 79.1272 65.0323 77.4193 65.0323V56.9497C77.4193 43.2124 80.4619 29.3605 86.2188 16.8883C86.5394 16.193 86.7097 15.4188 86.7097 14.6508C86.7097 12.7045 85.6661 10.8883 83.9861 9.90813L83.4101 9.57213C72.6751 3.31045 60.4305 0 48 0C35.5695 0 23.3249 3.31045 12.5899 9.57368L12.0139 9.90813C10.3339 10.8883 9.29032 12.7061 9.29032 14.6508C9.29032 15.4188 9.46064 16.1915 9.78116 16.8883C15.5381 29.3605 18.5806 43.2124 18.5806 56.9497V65.0323C16.8728 65.0323 15.4839 66.4212 15.4839 68.129V80.5161H12.3871V61.9355C12.3871 60.2276 10.9982 58.8387 9.29032 58.8387H7.74194V58.3665C10.5321 57.2377 12.3871 54.5497 12.3871 51.5071C12.3871 49.9107 11.8606 48.3283 10.9022 47.0524L6.19355 40.7737L1.4849 47.0524C0.526452 48.3283 0 49.9107 0 51.5071C0 54.5497 1.85497 57.2377 4.64516 58.3665V58.8387H3.09677C1.3889 58.8387 0 60.2276 0 61.9355V96H96V61.9355C96 60.2276 94.6111 58.8387 92.9032 58.8387ZM86.7097 51.5071C86.7097 50.5765 87.0163 49.6552 87.5752 48.9104L89.8064 45.936L92.0377 48.912C92.5951 49.6552 92.9032 50.5781 92.9032 51.5086C92.9032 52.8155 92.3117 54.0062 91.3548 54.8098V51.0968H88.2581V54.8098C87.3012 54.0046 86.7097 52.8139 86.7097 51.5071ZM86.7097 92.9032H9.29032V83.6129H86.7097V92.9032ZM12.593 15.5907C12.4583 15.2981 12.3871 14.9745 12.3871 14.6508C12.3871 13.8023 12.8423 13.0095 13.5747 12.5837L14.1507 12.2477C24.4134 6.26013 36.1177 3.09677 48 3.09677C59.8823 3.09677 71.5866 6.26013 81.8493 12.2477L82.4253 12.5837C83.1577 13.0111 83.6129 13.8039 83.6129 14.6508C83.6129 14.9729 83.5417 15.2981 83.407 15.5907C77.4643 28.4655 74.3226 42.768 74.3226 56.9497V65.0323H71.2258V57.1788C71.2258 43.0591 73.7961 29.2181 78.864 16.0397L79.3688 14.7283L75.0921 12.5884C66.7246 8.40464 57.3554 6.19355 48 6.19355C38.6446 6.19355 29.2754 8.40464 20.9079 12.5884L16.6312 14.7267L17.136 16.0382C22.2039 29.2181 24.7742 43.0591 24.7742 57.1788V65.0323H21.6774V56.9497C21.6774 42.768 18.5357 28.4655 12.593 15.5907ZM68.129 65.0323H27.871V57.1788C27.871 43.1458 25.3997 29.3822 20.5223 16.2426L22.2921 15.3585C30.2323 11.3884 39.1231 9.29032 48 9.29032C56.8769 9.29032 65.7677 11.3884 73.7079 15.3585L75.4777 16.2426C70.6003 29.3822 68.129 43.1474 68.129 57.1788V65.0323ZM18.5806 68.129H77.4193V80.5161H18.5806V68.129ZM3.09677 51.5071C3.09677 50.5765 3.40335 49.6552 3.96232 48.9104L6.19355 45.936L8.42477 48.912C8.98374 49.6552 9.29032 50.5765 9.29032 51.5071C9.29032 52.8139 8.69884 54.0046 7.74194 54.8083V51.0968H4.64516V54.8098C3.68826 54.0046 3.09677 52.8139 3.09677 51.5071ZM3.09677 61.9355H9.29032V80.5161C7.58245 80.5161 6.19355 81.905 6.19355 83.6129V92.9032H3.09677V61.9355ZM92.9032 92.9032H89.8064V83.6129C89.8064 81.905 88.4175 80.5161 86.7097 80.5161V61.9355H92.9032V92.9032Z" fill="#3A3D46"/>
	<path d="M34.0645 21.6775H35.1577C36.3887 22.4053 37.1613 23.692 37.1613 25.1397V27.8711H40.2581V25.1397C40.2581 23.4241 39.6558 21.8184 38.6029 20.558C39.6062 19.7049 40.2581 18.4507 40.2581 17.0324C40.2581 14.4713 38.174 12.3872 35.6129 12.3872H34.0645C32.3567 12.3872 30.9678 13.7761 30.9678 15.484V27.8711H34.0645V21.6775ZM34.0645 15.484H35.6129C36.4661 15.484 37.1613 16.1792 37.1613 17.0324C37.1613 17.8855 36.4661 18.5808 35.6129 18.5808H34.0645V15.484Z" fill="#3A3D46"/>
	<path d="M60.3871 12.3872H58.8387C57.1308 12.3872 55.7419 13.7761 55.7419 15.484V27.8711H58.8387V21.6775H60.3871C62.9481 21.6775 65.0323 19.5934 65.0323 17.0324C65.0323 14.4713 62.9481 12.3872 60.3871 12.3872ZM60.3871 18.5808H58.8387V15.484H60.3871C61.2403 15.484 61.9355 16.1792 61.9355 17.0324C61.9355 17.8855 61.2403 18.5808 60.3871 18.5808Z" fill="#3A3D46"/>
	<path d="M52.6452 24.7743H49.5484V15.484H52.6452V12.3872H43.3549V15.484H46.4516V24.7743H43.3549V27.8711H52.6452V24.7743Z" fill="#3A3D46"/>
	<path d="M30.9678 30.9678H43.3549V34.0645H30.9678V30.9678Z" fill="#3A3D46"/>
	<path d="M46.4517 30.9678H65.0323V34.0645H46.4517V30.9678Z" fill="#3A3D46"/>
	<path d="M30.9678 37.1614H65.0323V40.2582H30.9678V37.1614Z" fill="#3A3D46"/>
	<path d="M49.5484 43.3547H46.4516V49.5483H40.2581V52.6451H46.4516V61.9354H49.5484V52.6451H55.7419V49.5483H49.5484V43.3547Z" fill="#3A3D46"/>
	</symbol>
	<symbol id="option-8" width="96" height="96" viewBox="0 0 96 96" fill="none" xmlns="http://www.w3.org/2000/svg">
	<path d="M51.0968 12.3872H44.9032C38.0733 12.3872 32.5161 17.9444 32.5161 24.7743V40.2582C32.5161 42.9942 33.4002 45.5939 35.0741 47.7787L35.2428 47.9986C37.5128 45.1697 40.9935 43.3549 44.9032 43.3549V40.2582C42.2106 39.3601 40.3835 36.8842 40.2782 34.0646H40.2581H37.1613C35.4503 34.0646 34.0645 32.6788 34.0645 30.9678C34.0645 29.2569 35.4503 27.8711 37.1613 27.8711H40.2581V26.0564C40.2581 25.2357 40.5848 24.4476 41.1654 23.8669L43.3548 21.6775C45.3383 23.661 48.0263 24.7743 50.8304 24.7743H52.6452C54.3561 24.7743 55.7419 26.1601 55.7419 27.8711H55.7435H58.8387C60.5497 27.8711 61.9355 29.2569 61.9355 30.9678C61.9355 32.6788 60.5497 34.0646 58.8387 34.0646H55.7373H55.7218C55.6165 36.8842 53.7894 39.3601 51.0968 40.2582V43.3549C55.0064 43.3549 58.4872 45.1697 60.7572 47.9986L60.9259 47.7787C62.5997 45.5939 63.4839 42.9942 63.4839 40.2582V24.7743C63.4839 17.9444 57.9267 12.3872 51.0968 12.3872Z" fill="#E3CDA1"/>
	<path d="M92.9032 80.5161H91.3548V61.9355C91.3548 60.2276 89.9659 58.8387 88.2581 58.8387H83.6129V56.9512L84.0557 56.8397C87.4421 55.9928 89.8064 52.9641 89.8064 49.4741C89.8064 47.0973 88.6715 44.8258 86.7701 43.3997L83.6129 41.0323V3.09677C83.6129 1.3889 82.224 0 80.5161 0H15.4839C13.776 0 12.3871 1.3889 12.3871 3.09677V41.0323L9.22993 43.3997C7.32852 44.8258 6.19355 47.0973 6.19355 49.4741C6.19355 52.9641 8.55794 55.9928 11.9443 56.8397L12.3871 56.9512V58.8387H7.74194C6.03406 58.8387 4.64516 60.2276 4.64516 61.9355V80.5161H3.09677C1.3889 80.5161 0 81.905 0 83.6129C0 90.4428 5.55716 96 12.3871 96H13.9355H15.4839H45.4746H50.5254H80.5161H82.0645H83.6129C90.4428 96 96 90.4428 96 83.6129C96 81.905 94.6111 80.5161 92.9032 80.5161ZM88.2581 80.5161H75.871V61.9355H82.0645V71.2258H85.1613V61.9355H88.2581V80.5161ZM86.7097 49.4741C86.7097 51.4297 85.4477 53.1267 83.6129 53.7306V49.5484H80.5161V53.7306C78.6813 53.1267 77.4193 51.4297 77.4193 49.4741C77.4193 48.0666 78.0914 46.7226 79.2186 45.8772L82.0645 43.7419L84.9105 45.8772C86.0377 46.7226 86.7097 48.0666 86.7097 49.4741ZM80.5161 3.09677V41.0323L77.4193 43.3548V9.29032C77.4193 7.58245 76.0304 6.19355 74.3226 6.19355H21.6774C19.9695 6.19355 18.5806 7.58245 18.5806 9.29032V43.3548L15.4839 41.0323V3.09677H80.5161ZM9.29032 49.4741C9.29032 48.0666 9.96232 46.7226 11.0895 45.8772L13.9355 43.7419L16.7814 45.8772C17.9086 46.7226 18.5806 48.0666 18.5806 49.4741C18.5806 51.4297 17.3187 53.1267 15.4839 53.7306V49.5484H12.3871V53.7306C10.5523 53.1283 9.29032 51.4312 9.29032 49.4741ZM7.74194 61.9355H10.8387V68.129H13.9355V61.9355H20.129V80.5161H7.74194V61.9355ZM13.9355 92.9032H12.3871C7.26348 92.9032 3.09677 88.7365 3.09677 83.6129H24.7742C24.7742 88.7365 20.6075 92.9032 15.4839 92.9032H13.9355ZM45.4746 92.9032C40.8914 92.9032 37.1613 89.1747 37.1613 84.5899C37.1613 84.0434 37.2155 83.4952 37.3223 82.9595L38.431 77.4193H57.569L58.6777 82.9579C58.7845 83.4952 58.8387 84.0434 58.8387 84.5899C58.8387 89.1747 55.1086 92.9032 50.5254 92.9032H45.4746ZM58.3153 92.9032C60.5373 90.8206 61.9355 87.8679 61.9355 84.5899C61.9355 83.8421 61.8612 83.088 61.7141 82.3525L60.7277 77.4193H65.0323V74.3226H55.7419V58.8387H52.6452V74.3226H49.5484V52.6452H46.4516V74.3226H43.3548V58.8387H40.2581V74.3226H30.9677V77.4193H35.2723L34.2859 82.3541C34.1388 83.088 34.0645 83.8405 34.0645 84.5899C34.0645 87.8679 35.4627 90.8206 37.6846 92.9032H23.6501C26.2312 90.6317 27.871 87.3135 27.871 83.6129C27.871 81.905 26.4821 80.5161 24.7742 80.5161H23.2258V61.9355C23.2258 60.2276 21.8369 58.8387 20.129 58.8387H15.4839V56.9512L15.9267 56.8397C19.313 55.9928 21.6774 52.9641 21.6774 49.4741V9.29032H74.3226V49.4741C74.3226 52.9641 76.687 55.9928 80.0733 56.8397L80.5161 56.9512V58.8387H75.871C74.1631 58.8387 72.7742 60.2276 72.7742 61.9355V80.5161H71.2258C69.5179 80.5161 68.129 81.905 68.129 83.6129C68.129 87.3135 69.7688 90.6317 72.3499 92.9032H58.3153ZM83.6129 92.9032H82.0645H80.5161C75.3925 92.9032 71.2258 88.7365 71.2258 83.6129H92.9032C92.9032 88.7365 88.7365 92.9032 83.6129 92.9032Z" fill="#3A3D46"/>
	<path d="M52.6452 41.8932V41.2924C54.9213 40.1683 56.5317 38.0687 57.0736 35.6129H58.8388C61.3998 35.6129 63.4839 33.5288 63.4839 30.9678C63.4839 28.4067 61.3998 26.3226 58.8388 26.3226H57.0055C56.3644 24.5249 54.6612 23.2258 52.6452 23.2258H50.832C48.4212 23.2258 46.1544 22.2875 44.4496 20.5827L43.3549 19.488L40.0707 22.7722C39.1928 23.6486 38.7097 24.816 38.7097 26.0563V26.3226H37.1613C34.6003 26.3226 32.5162 28.4067 32.5162 30.9678C32.5162 33.5288 34.6003 35.6129 37.1613 35.6129H38.9265C39.4684 38.0687 41.0787 40.1683 43.3549 41.2924V41.8932C36.3964 42.6658 30.9678 48.5807 30.9678 55.742V57.2903H34.0645V55.742C34.0645 50.0811 38.4295 45.4266 43.9696 44.9513L44.3737 45.7595C45.0643 47.1407 46.4547 48 48 48C49.5453 48 50.9358 47.1407 51.6264 45.7595L52.0305 44.9513C57.5706 45.4266 61.9355 50.0811 61.9355 55.742V57.2903H65.0323V55.742C65.0323 48.5807 59.6037 42.6658 52.6452 41.8932ZM60.3871 30.9678C60.3871 31.8225 59.6919 32.5162 58.8388 32.5162H57.2904V29.4194H58.8388C59.6919 29.4194 60.3871 30.1131 60.3871 30.9678ZM35.6129 30.9678C35.6129 30.1131 36.3082 29.4194 37.1613 29.4194H38.7097V32.5162H37.1613C36.3082 32.5162 35.6129 31.8225 35.6129 30.9678ZM47.1438 44.3737L46.4516 42.9894V39.1433L45.3926 38.7902C43.248 38.0733 41.8065 36.0744 41.8065 33.8137V26.0563C41.8065 25.6491 41.9722 25.2496 42.2602 24.9616L43.423 23.7987C45.5366 25.4354 48.1146 26.3226 50.8305 26.3226H52.6452C53.4984 26.3226 54.1936 27.0163 54.1936 27.871V33.8137C54.1936 36.0744 52.752 38.0733 50.6075 38.7902L49.5484 39.1417V42.9879L48.8563 44.3737C48.5296 45.0271 47.4705 45.0271 47.1438 44.3737Z" fill="#3A3D46"/>
	<path d="M50.0005 31.4214C49.296 32.1275 48.3576 32.5161 47.3589 32.5161H44.9032V35.6129H47.3589C49.186 35.6129 50.9016 34.9022 52.193 33.6108L50.0005 31.4214Z" fill="#3A3D46"/>
	<path d="M37.6134 50.643C38.321 51.3491 38.7097 52.289 38.7097 53.2861V55.7419H41.8064V53.2861C41.8064 51.4606 41.0957 49.745 39.8059 48.4536L37.6134 50.643Z" fill="#3A3D46"/>
	<path d="M54.1936 53.2861V55.7419H57.2904V53.2861C57.2904 52.2874 57.679 51.3491 58.3866 50.643L56.1957 48.4536C54.9043 49.745 54.1936 51.4606 54.1936 53.2861Z" fill="#3A3D46"/>
	</symbol>
</svg>