<svg width="242" height="437" viewBox="0 0 242 437" fill="none" xmlns="http://www.w3.org/2000/svg">
    <path d="M115.554 315.213C103.979 315.213 93.0024 312.228 82.6244 306.258C72.6456 300.288 67.6562 289.94 67.6562 275.214C67.6562 266.459 70.2507 258.3 75.4397 250.738C80.6286 243.176 87.4142 235.614 95.7964 228.052C104.578 220.49 113.559 212.729 122.739 204.769C137.907 192.033 151.877 177.705 164.65 161.786C177.423 145.468 184.209 125.767 185.007 102.683C185.406 87.9572 183.41 74.6243 179.02 62.6844C174.629 50.7445 167.045 41.1926 156.268 34.0287C145.491 26.8647 130.722 23.2828 111.962 23.2828C100.786 23.2828 90.2083 25.4718 80.2295 29.8497C70.6499 34.2277 62.8664 39.7996 56.8791 46.5656C50.8918 52.9335 47.2995 59.3014 46.102 65.6694C48.0978 68.8534 49.6944 72.4353 50.8918 76.4153C52.4885 80.3953 53.2868 84.5742 53.2868 88.9522C53.2868 92.1362 52.2889 95.9171 50.2931 100.295C48.2974 104.275 45.3037 107.658 41.3122 110.444C37.3207 113.23 32.1317 114.623 25.7453 114.623C16.9639 113.827 10.3779 110.643 5.98728 105.071C1.99576 99.1011 0 91.7382 0 82.9822C0 71.4403 4.78982 59.3015 14.3695 46.5656C24.3483 33.4317 38.3186 22.4868 56.2804 13.7309C74.2422 4.57696 95.7964 0 120.943 0C152.077 0 176.425 5.17394 193.988 15.5218C211.95 25.8697 224.523 39.0036 231.708 54.9235C239.291 70.8433 242.684 87.1612 241.886 103.877C240.689 120.195 235.3 135.12 225.72 148.652C216.54 161.786 205.364 173.924 192.192 185.068C179.02 196.212 166.047 206.56 153.274 216.112C140.501 225.664 129.724 234.818 120.943 243.574C112.162 251.932 107.771 260.091 107.771 268.051C107.771 272.826 109.567 277.403 113.16 281.781C117.151 285.761 123.737 287.751 132.918 287.751C136.111 287.751 139.703 287.552 143.695 287.154C147.686 286.358 151.478 285.164 155.07 283.572L162.255 304.467C155.869 308.049 148.285 310.835 139.504 312.825C130.722 314.417 122.739 315.213 115.554 315.213ZM119.147 437C111.164 437 103.779 433.816 96.9939 427.448C90.2083 421.478 86.8155 412.921 86.8155 401.777C86.8155 392.225 90.2083 384.066 96.9939 377.301C103.779 370.137 111.164 366.555 119.147 366.555C128.327 366.555 135.911 370.137 141.898 377.301C148.285 384.066 151.478 392.225 151.478 401.777C151.478 411.727 148.285 420.085 141.898 426.851C135.911 433.617 128.327 437 119.147 437Z" fill="#E7E7E7"/>
</svg>