<svg>
	<symbol id="services-1" width="72" height="72" viewBox="0 0 72 72" fill="none" xmlns="http://www.w3.org/2000/svg">
	<g clip-path="url(#clip0_326_1489)">
	<path d="M48.7499 32.5908H23.2501V62.727H48.7499V32.5908Z" fill="#E3CDA1"/>
	<path d="M64.9771 26.7957V25.6366H71.9316V17.9658L36 0L0.0683899 17.9658V25.6366H7.0229V26.7957C7.0229 28.3048 7.99537 29.5798 9.34107 30.0597V58.3054C7.99537 58.7841 7.0229 60.0591 7.0229 61.5682V62.7273H5.1475L1.67024 69.6818H0.0683899V72H71.9316V69.6818H70.3298L66.8525 62.7273H64.9771V61.5682C64.9771 60.0591 64.0046 58.7841 62.659 58.3043V30.0597C64.0046 29.5798 64.9771 28.3048 64.9771 26.7957ZM55.7044 58.091V30.273H60.3408V58.091H55.7044ZM51.0681 61.5682V62.7273H20.9319V61.5682C20.9319 60.0591 19.9594 58.7841 18.6137 58.3043V30.0597C19.9594 29.5798 20.9319 28.3048 20.9319 26.7957V25.6366H51.0681V26.7957C51.0681 28.3048 52.0406 29.5798 53.3863 30.0597V58.3054C52.0406 58.7841 51.0681 60.0591 51.0681 61.5682ZM16.2956 30.273V58.091H11.6592V30.273H16.2956ZM6.13736 23.3185L36 8.38714L65.8627 23.3185H6.13736ZM62.659 26.7957C62.659 27.4344 62.1385 27.9548 61.4999 27.9548H54.5454C53.9067 27.9548 53.3863 27.4344 53.3863 26.7957V25.6366H62.659V26.7957ZM36 2.59171L69.6135 19.3984V22.6021L36 5.79542L2.38656 22.6021V19.3984L36 2.59171ZM18.6137 25.6366V26.7957C18.6137 27.4344 18.0933 27.9548 17.4547 27.9548H10.5001C9.86149 27.9548 9.34107 27.4344 9.34107 26.7957V25.6366H18.6137ZM9.34107 61.5682C9.34107 60.9284 9.86149 60.4092 10.5001 60.4092H17.4547C18.0933 60.4092 18.6137 60.9284 18.6137 61.5682V62.7273H9.34107V61.5682ZM67.7381 69.6818H4.26196L6.58013 65.0455H65.4199L67.7381 69.6818ZM53.3863 62.7273V61.5682C53.3863 60.9284 53.9067 60.4092 54.5454 60.4092H61.4999C62.1385 60.4092 62.659 60.9284 62.659 61.5682V62.7273H53.3863Z" fill="#3A3D46"/>
	<path d="M29.8653 55.4335L43.7744 41.5244L42.1353 39.8852L28.2261 53.7944L29.8653 55.4335Z" fill="#3A3D46"/>
	<path d="M40.6363 48.8184C38.7192 48.8184 37.1591 50.3785 37.1591 52.2956C37.1591 54.2127 38.7192 55.7729 40.6363 55.7729C42.5535 55.7729 44.1136 54.2127 44.1136 52.2956C44.1136 50.3785 42.5535 48.8184 40.6363 48.8184ZM40.6363 53.4547C39.9977 53.4547 39.4773 52.9354 39.4773 52.2956C39.4773 51.6558 39.9977 51.1365 40.6363 51.1365C41.275 51.1365 41.7954 51.6558 41.7954 52.2956C41.7954 52.9354 41.275 53.4547 40.6363 53.4547Z" fill="#3A3D46"/>
	<path d="M31.3637 46.5004C33.2808 46.5004 34.8409 44.9403 34.8409 43.0232C34.8409 41.106 33.2808 39.5459 31.3637 39.5459C29.4466 39.5459 27.8864 41.106 27.8864 43.0232C27.8864 44.9403 29.4466 46.5004 31.3637 46.5004ZM31.3637 41.8641C32.0023 41.8641 32.5228 42.3833 32.5228 43.0232C32.5228 43.663 32.0023 44.1822 31.3637 44.1822C30.725 44.1822 30.2046 43.663 30.2046 43.0232C30.2046 42.3833 30.725 41.8641 31.3637 41.8641Z" fill="#3A3D46"/>
	<path d="M51.0681 30.2734H20.9319V32.5916H51.0681V30.2734Z" fill="#3A3D46"/>
	</g>
	<defs>
	<clipPath id="clip0_326_1489">
	<rect width="72" height="72" fill="white"/>
	</clipPath>
	</defs>
	</symbol>
</svg>