<svg>
	<symbol id="why-1" width="96" height="96" viewBox="0 0 96 96" fill="none" xmlns="http://www.w3.org/2000/svg">
	<path d="M66 7.5H60V10.5H66C68.481 10.5 70.5 12.519 70.5 15V19.5H67.5V22.5H70.5V42.42H73.5V15C73.5 10.8645 70.1355 7.5 66 7.5Z" fill="#3A3D46"/>
	<path d="M61.5 19.5H64.5V22.5H61.5V19.5Z" fill="#3A3D46"/>
	<path d="M49.5 31.5H61.5V34.5H49.5V31.5Z" fill="#3A3D46"/>
	<path d="M42.4395 31.9395L39.6555 34.7235C37.512 32.73 34.65 31.5 31.5 31.5C24.8835 31.5 19.5 36.8835 19.5 43.5C19.5 50.1165 24.8835 55.5 31.5 55.5C38.1165 55.5 43.5 50.1165 43.5 43.5C43.5 41.1165 42.7935 38.8995 41.5905 37.0305L44.5605 34.0605L42.4395 31.9395ZM40.5 43.5C40.5 48.4635 36.4635 52.5 31.5 52.5C26.5365 52.5 22.5 48.4635 22.5 43.5C22.5 38.5365 26.5365 34.5 31.5 34.5C33.8235 34.5 35.937 35.3925 37.536 36.843L28.5 45.879L26.5605 43.9395L24.4395 46.0605L28.5 50.121L39.411 39.21C40.1055 40.4865 40.5 41.9475 40.5 43.5Z" fill="#3A3D46"/>
	<path d="M49.5 37.5H52.5V40.5H49.5V37.5Z" fill="#3A3D46"/>
	<path d="M55.5 37.5H58.5V40.5H55.5V37.5Z" fill="#3A3D46"/>
	<path d="M4.5 60V22.5H58.5V19.5H4.5V15C4.5 12.519 6.519 10.5 9 10.5H15V7.5H9C4.8645 7.5 1.5 10.8645 1.5 15V60C1.5 64.1355 4.8645 67.5 9 67.5H42.0765V64.5H9C6.519 64.5 4.5 62.481 4.5 60Z" fill="#3A3D46"/>
	<path d="M64.5 25.5H10.5C8.8455 25.5 7.5 26.8455 7.5 28.5V58.5C7.5 60.1545 8.8455 61.5 10.5 61.5H43.125V58.5H10.5V28.5H64.5V42.075H67.5V28.5C67.5 26.8455 66.1545 25.5 64.5 25.5Z" fill="#3A3D46"/>
	<path d="M13.5 52.5H16.5V55.5H13.5V52.5Z" fill="#3A3D46"/>
	<path d="M13.5 46.5H16.5V49.5H13.5V46.5Z" fill="#3A3D46"/>
	<path d="M13.5 40.5H16.5V43.5H13.5V40.5Z" fill="#3A3D46"/>
	<path d="M67.5 94.5C52.6125 94.5 40.5 82.3875 40.5 67.5C40.5 52.6125 52.6125 40.5 67.5 40.5C82.3875 40.5 94.5 52.6125 94.5 67.5C94.5 82.3875 82.3875 94.5 67.5 94.5ZM67.5 48C56.748 48 48 56.748 48 67.5C48 78.252 56.748 87 67.5 87C78.252 87 87 78.252 87 67.5C87 56.748 78.252 48 67.5 48Z" fill="#E3CDA1"/>
	<path d="M67.5 46.5C55.92 46.5 46.5 55.92 46.5 67.5C46.5 79.08 55.92 88.5 67.5 88.5C79.08 88.5 88.5 79.08 88.5 67.5C88.5 55.92 79.08 46.5 67.5 46.5ZM85.4235 69C85.104 72.837 83.5845 76.3335 81.231 79.1115L77.0445 74.925L74.9235 77.046L79.11 81.2325C76.332 83.586 72.8355 85.1055 68.9985 85.425V79.5H65.9985V85.4235C62.1615 85.104 58.665 83.5845 55.887 81.231L60.0735 77.0445L57.9525 74.9235L53.766 79.11C51.4125 76.332 49.893 72.8355 49.5735 68.9985H55.5V65.9985H49.5765C49.896 62.1615 51.4155 58.665 53.769 55.887L57.9555 60.0735L60.0765 57.9525L55.89 53.766C58.668 51.4125 62.1645 49.893 66.0015 49.5735V55.5H69.0015V49.5765C72.8385 49.896 76.335 51.4155 79.113 53.769L74.9265 57.9555L77.0475 60.0765L81.234 55.89C83.5875 58.668 85.107 62.1645 85.4265 66.0015H79.5V69.0015H85.4235V69Z" fill="#3A3D46"/>
	<path d="M66 66.879L60.4395 72.4395L62.5605 74.5605L69 68.121V61.5H66V66.879Z" fill="#3A3D46"/>
	<path d="M42 7.5H51V10.5H42V7.5Z" fill="#3A3D46"/>
	<path d="M24 7.5H33V10.5H24V7.5Z" fill="#3A3D46"/>
	<path d="M58.5 16.5H52.5C50.8455 16.5 49.5 15.1545 49.5 13.5V4.5C49.5 2.8455 50.8455 1.5 52.5 1.5H58.5C60.1545 1.5 61.5 2.8455 61.5 4.5V13.5C61.5 15.1545 60.1545 16.5 58.5 16.5Z" fill="#E3CDA1"/>
	<path d="M40.5 16.5H34.5C32.8455 16.5 31.5 15.1545 31.5 13.5V4.5C31.5 2.8455 32.8455 1.5 34.5 1.5H40.5C42.1545 1.5 43.5 2.8455 43.5 4.5V13.5C43.5 15.1545 42.1545 16.5 40.5 16.5Z" fill="#E3CDA1"/>
	<path d="M22.5 16.5H16.5C14.8455 16.5 13.5 15.1545 13.5 13.5V4.5C13.5 2.8455 14.8455 1.5 16.5 1.5H22.5C24.1545 1.5 25.5 2.8455 25.5 4.5V13.5C25.5 15.1545 24.1545 16.5 22.5 16.5Z" fill="#E3CDA1"/>
	</symbol>
	<symbol id="why-2" width="96" height="96" viewBox="0 0 96 96" fill="none" xmlns="http://www.w3.org/2000/svg">
	<path d="M55.1783 37.1613C52.5336 37.1613 50.0252 36.2663 48 34.6189C45.9747 36.2663 43.4663 37.1613 40.8216 37.1613C34.5352 37.1613 29.4193 32.0454 29.4193 25.759V23.2258C29.4193 18.9569 32.8923 15.4839 37.1612 15.4839H58.8387C63.1076 15.4839 66.5806 18.9569 66.5806 23.2258V25.759C66.5806 32.0454 61.4647 37.1613 55.1783 37.1613Z" fill="#E3CDA1"/>
	<path d="M74.3226 74.3225H77.4194C78.2741 74.3225 78.9678 75.0161 78.9678 75.8708H82.0646C82.0646 73.3098 79.9805 71.2257 77.4194 71.2257V68.1289H74.3226V71.2257C71.7616 71.2257 69.6775 73.3098 69.6775 75.8708C69.6775 78.4319 71.7616 80.516 74.3226 80.516H77.4194C78.2741 80.516 78.9678 81.2097 78.9678 82.0644C78.9678 82.9191 78.2741 83.6128 77.4194 83.6128H74.3226C73.4679 83.6128 72.7743 82.9191 72.7743 82.0644H69.6775C69.6775 84.6254 71.7616 86.7096 74.3226 86.7096V89.8063H77.4194V86.7096C79.9805 86.7096 82.0646 84.6254 82.0646 82.0644C82.0646 79.5034 79.9805 77.4192 77.4194 77.4192H74.3226C73.4679 77.4192 72.7743 76.7256 72.7743 75.8708C72.7743 75.0161 73.4679 74.3225 74.3226 74.3225Z" fill="#3A3D46"/>
	<path d="M40.2581 30.9676C42.8191 30.9676 44.9032 28.8834 44.9032 26.3224C44.9032 23.7614 42.8191 21.6772 40.2581 21.6772C37.697 21.6772 35.6129 23.7614 35.6129 26.3224C35.6129 28.8834 37.697 30.9676 40.2581 30.9676ZM40.2581 24.774C41.1128 24.774 41.8065 25.4677 41.8065 26.3224C41.8065 27.1771 41.1128 27.8708 40.2581 27.8708C39.4034 27.8708 38.7097 27.1771 38.7097 26.3224C38.7097 25.4677 39.4034 24.774 40.2581 24.774Z" fill="#3A3D46"/>
	<path d="M57.2903 30.9676C59.8513 30.9676 61.9355 28.8834 61.9355 26.3224C61.9355 23.7614 59.8513 21.6772 57.2903 21.6772C54.7293 21.6772 52.6451 23.7614 52.6451 26.3224C52.6451 28.8834 54.7293 30.9676 57.2903 30.9676ZM57.2903 24.774C58.145 24.774 58.8387 25.4677 58.8387 26.3224C58.8387 27.1771 58.145 27.8708 57.2903 27.8708C56.4356 27.8708 55.7419 27.1771 55.7419 26.3224C55.7419 25.4677 56.4356 24.774 57.2903 24.774Z" fill="#3A3D46"/>
	<path d="M92.9032 74.3226H91.3548C90.8563 74.3226 90.384 74.4217 89.9334 74.5688C89.7817 74.2436 89.6315 73.9169 89.4565 73.6041L83.8761 63.5566C85.7295 60.7742 86.7097 57.5365 86.7097 54.1935V53.5525L86.256 53.0988C85.8937 52.7365 82.4268 49.5484 72.7742 49.5484H71.2258V51.0968C71.2258 51.6155 71.2413 52.1342 71.2692 52.6529C70.5213 52.6854 69.8044 52.8449 69.1246 53.0926C68.064 51.8586 66.9089 50.7112 65.6485 49.6784C67.104 48.5512 68.4759 47.2986 69.7084 45.8911L72.7742 42.3886V22.5414C74.4356 23.5355 75.7874 24.977 76.6746 26.7484L78.5543 30.5125C77.8436 31.5205 77.4193 32.7406 77.4193 34.0645C77.4193 37.4803 80.1972 40.2581 83.6129 40.2581C87.0286 40.2581 89.8064 37.4803 89.8064 34.0645C89.8064 31.0963 87.7068 28.6142 84.9151 28.015L82.4392 19.2031C79.2619 7.89677 68.8413 0 57.0983 0H43.3548C32.256 0 23.2258 9.03019 23.2258 20.129V42.3886L26.2901 45.8911C27.5226 47.3001 28.8929 48.5512 30.3499 49.6784C29.0895 50.7112 27.936 51.8586 26.8738 53.0926C26.1941 52.8449 25.4772 52.6854 24.7293 52.6529C24.7587 52.1342 24.7742 51.6155 24.7742 51.0968V49.5484H23.2258C13.5732 49.5484 10.1063 52.7365 9.744 53.0988L9.29032 53.5525V54.1935C9.29032 57.5365 10.2705 60.7742 12.1239 63.5566L6.54348 73.6026C6.37006 73.9169 6.21832 74.2421 6.06813 74.5688C5.616 74.4217 5.14374 74.3226 4.64516 74.3226H3.09677C1.3889 74.3226 0 75.7115 0 77.4193V83.6129C0 85.3208 1.3889 86.7097 3.09677 86.7097H4.64516C5.02761 86.7097 5.39303 86.6493 5.74916 86.5626C8.02065 92.1972 13.5205 96 19.7203 96H20.5363C27.9298 96 34.0846 90.6441 35.3574 83.6129H60.6395C61.9123 90.6441 68.0686 96 75.4606 96H76.2766C82.4748 96 87.9763 92.1956 90.2477 86.5626C90.607 86.6493 90.9724 86.7097 91.3548 86.7097H92.9032C94.6111 86.7097 96 85.3208 96 83.6129V77.4193C96 75.7115 94.6111 74.3226 92.9032 74.3226ZM83.5928 54.9461C83.4581 57.4095 82.6715 59.7801 81.2965 61.8441L81.2361 61.9355H76.8294C75.4204 59.0508 74.5827 55.8828 74.3737 52.6777C79.7977 52.9115 82.5693 54.2926 83.5928 54.9461ZM71.5912 55.7419H71.6206C71.9814 57.8663 72.5899 59.9505 73.4276 61.9355H70.6343L68.3474 57.3631C69.1045 56.3489 70.2921 55.7419 71.5912 55.7419ZM86.7097 34.0645C86.7097 35.7724 85.3208 37.1613 83.6129 37.1613C81.905 37.1613 80.5161 35.7724 80.5161 34.0645C80.5161 32.3566 81.905 30.9677 83.6129 30.9677C85.3208 30.9677 86.7097 32.3566 86.7097 34.0645ZM26.3226 41.2243V20.129C26.3226 10.7381 33.9639 3.09677 43.3548 3.09677H57.0983C67.4601 3.09677 76.6544 10.0645 79.457 20.0392L81.7471 28.1884C81.4901 28.2705 81.2361 28.3572 80.9946 28.4717L79.4431 25.3657C78.0077 22.495 75.6418 20.2901 72.7185 19.0514C72.1657 11.8699 66.1595 6.19355 58.8387 6.19355H57.2903V9.29032H58.8387C64.8139 9.29032 69.6774 14.1538 69.6774 20.129V41.2243L67.3781 43.8519C62.4883 49.44 55.4261 52.6452 48 52.6452C40.5739 52.6452 33.5117 49.44 28.6219 43.8519L26.3226 41.2243ZM58.8387 54.1935C58.8387 56.6245 58.0243 58.8619 56.6679 60.672L54.4521 58.4563C55.1814 57.3554 55.6119 56.0516 55.6955 54.655C56.753 54.3623 57.7889 54.0124 58.8031 53.6021C58.8139 53.7987 58.8387 54 58.8387 54.1935ZM37.1969 53.6005C38.2111 54.0108 39.247 54.3608 40.3045 54.6534C40.3881 56.0501 40.817 57.3538 41.5479 58.4547L39.3321 60.6704C37.9757 58.8619 37.1613 56.6245 37.1613 54.1935C37.1613 54 37.1861 53.7987 37.1969 53.6005ZM48 58.8387C45.84 58.8387 44.0361 57.3507 43.519 55.3502C44.993 55.5825 46.4857 55.7419 48 55.7419C49.5143 55.7419 51.007 55.5825 52.481 55.3502C51.9639 57.3507 50.16 58.8387 48 58.8387ZM43.7373 60.6457C44.5486 61.1845 45.4653 61.5778 46.4516 61.7791V64.9084C44.6199 64.6452 42.9383 63.9236 41.5215 62.8614L43.7373 60.6457ZM49.5484 61.7791C50.5347 61.5778 51.4514 61.1845 52.2627 60.6457L54.4784 62.8614C53.0617 63.9236 51.3801 64.6452 49.5484 64.9084V61.7791ZM24.3794 55.7419H24.4088C25.7079 55.7419 26.8955 56.3489 27.6526 57.3631L25.3657 61.9355H22.5724C23.4101 59.9505 24.0186 57.8663 24.3794 55.7419ZM21.6263 52.6777C21.4173 55.8813 20.5796 59.0493 19.1706 61.9355H14.7639L14.7035 61.8441C13.327 59.7801 12.5419 57.4111 12.4088 54.9492C13.4462 54.2864 16.2178 52.9115 21.6263 52.6777ZM3.09677 83.6129V77.4193H4.64516C5.49987 77.4193 6.19355 78.113 6.19355 78.9677V82.0645C6.19355 82.9192 5.49987 83.6129 4.64516 83.6129H3.09677ZM20.5378 92.9032H19.7218C14.5672 92.9032 10.0475 89.5819 8.41239 84.7634C8.95897 84 9.29032 83.0725 9.29032 82.0645V78.9677C9.29032 78.0759 9.02555 77.249 8.58735 76.5399C8.7809 76.0506 8.99303 75.569 9.25006 75.1076L14.8459 65.0323H25.4121L31.0095 75.1092C31.9943 76.8821 32.5161 78.8934 32.5161 80.9249C32.5161 87.5288 27.1417 92.9032 20.5378 92.9032ZM60.4134 80.5161H35.5866C35.52 78.0991 34.8898 75.7161 33.7146 73.6041L28.0723 63.4467L31.1505 57.2903L30.8036 56.5982C30.4614 55.9138 30.0124 55.3115 29.4968 54.7866C30.5636 53.5897 31.7466 52.5043 33.0255 51.5288C33.4204 51.7688 33.8261 51.984 34.2317 52.2039C34.1326 52.8759 34.0645 53.5417 34.0645 54.1935C34.0645 61.8782 40.3154 68.129 48 68.129C55.6846 68.129 61.9355 61.8782 61.9355 54.1935C61.9355 53.5417 61.8674 52.8759 61.7683 52.2039C62.1739 51.984 62.5796 51.7688 62.9745 51.5288C64.2534 52.5027 65.4364 53.5897 66.5032 54.7866C65.9876 55.313 65.5386 55.9138 65.1964 56.5982L64.8495 57.2903L67.9277 63.4467L62.2854 73.6026C61.1102 75.7161 60.48 78.0991 60.4134 80.5161ZM76.2797 92.9032H75.4637C68.8583 92.9032 63.4839 87.5288 63.4839 80.9249C63.4839 78.8934 64.0057 76.8836 64.992 75.1076L70.5879 65.0323H81.1541L86.7515 75.1107C87.0054 75.569 87.2191 76.0506 87.4126 76.5399C86.9744 77.249 86.7097 78.0759 86.7097 78.9677V82.0645C86.7097 83.0725 87.041 84 87.5892 84.7634C85.9525 89.5819 81.4328 92.9032 76.2797 92.9032ZM91.3548 83.6129C90.5001 83.6129 89.8064 82.9192 89.8064 82.0645V78.9677C89.8064 78.113 90.5001 77.4193 91.3548 77.4193H92.9032L92.9063 83.6129H91.3548Z" fill="#3A3D46"/>
	<path d="M18.5807 74.3225H21.6775C22.5322 74.3225 23.2259 75.0161 23.2259 75.8708H26.3226C26.3226 73.3098 24.2385 71.2257 21.6775 71.2257V68.1289H18.5807V71.2257C16.0197 71.2257 13.9355 73.3098 13.9355 75.8708C13.9355 78.4319 16.0197 80.516 18.5807 80.516H21.6775C22.5322 80.516 23.2259 81.2097 23.2259 82.0644C23.2259 82.9191 22.5322 83.6128 21.6775 83.6128H18.5807C17.726 83.6128 17.0323 82.9191 17.0323 82.0644H13.9355C13.9355 84.6254 16.0197 86.7096 18.5807 86.7096V89.8063H21.6775V86.7096C24.2385 86.7096 26.3226 84.6254 26.3226 82.0644C26.3226 79.5034 24.2385 77.4192 21.6775 77.4192H18.5807C17.726 77.4192 17.0323 76.7256 17.0323 75.8708C17.0323 75.0161 17.726 74.3225 18.5807 74.3225Z" fill="#3A3D46"/>
	</symbol>
	<symbol id="why-3" width="96" height="96" viewBox="0 0 96 96" fill="none" xmlns="http://www.w3.org/2000/svg">
	<path d="M31.644 1.5H21.1845C17.139 1.5 13.593 4.0605 12.2865 7.824C9.42 8.811 7.5 11.5005 7.5 14.5365C7.5 14.928 7.5315 15.318 7.596 15.7035L8.9625 23.8995L9.306 23.901C9.9525 22.209 11.58 21 13.5 21H15C15 17.6865 17.6865 15 21 15H22.5L22.4775 14.931C23.8425 16.7835 26.022 18 28.5 18H36C37.6575 18 39 19.3425 39 21H40.5C42.4635 21 44.1165 22.266 44.7315 24.021L45.042 24.0225L46.0575 19.959C46.35 18.783 46.5 17.571 46.5 16.356C46.5 8.1645 39.8355 1.5 31.644 1.5Z" fill="#E3CDA1"/>
	<path d="M55.1655 46.3575C57.3885 44.4045 60.033 42.8895 63 42L64.506 38.13H64.5285C60.117 36.3555 57 32.046 57 27V21C57 17.6865 59.6865 15 63 15H63.8025C64.8405 16.794 66.7785 18 69 18C71.2215 18 73.1595 16.794 74.1975 15H75C78.3135 15 81 17.6865 81 21V27C81 32.061 77.8635 36.381 73.431 38.145H73.5L75 42C78.0975 42.774 80.9115 44.1495 83.361 45.963C86.5785 43.4295 88.5 39.534 88.5 35.4225V18C88.5 8.9025 81.0975 1.5 72 1.5H66C56.9025 1.5 49.5 8.9025 49.5 18V35.4225C49.5 39.795 51.618 43.8405 55.1655 46.3575Z" fill="#E3CDA1"/>
	<path d="M21 25.5C21.8284 25.5 22.5 24.8284 22.5 24C22.5 23.1716 21.8284 22.5 21 22.5C20.1716 22.5 19.5 23.1716 19.5 24C19.5 24.8284 20.1716 25.5 21 25.5Z" fill="#3A3D46"/>
	<path d="M33 25.5C33.8284 25.5 34.5 24.8284 34.5 24C34.5 23.1716 33.8284 22.5 33 22.5C32.1716 22.5 31.5 23.1716 31.5 24C31.5 24.8284 32.1716 25.5 33 25.5Z" fill="#3A3D46"/>
	<path d="M32.6835 30.9871L32.841 30.6706L30.1575 29.3281L30 29.6461C29.4285 30.7891 28.2795 31.5001 27 31.5001C25.7205 31.5001 24.5715 30.7891 24 29.6461L23.8425 29.3296L21.159 30.6721L21.3165 30.9886C22.3995 33.1546 24.5775 34.5001 27 34.5001C29.4225 34.5001 31.6005 33.1546 32.6835 30.9871Z" fill="#3A3D46"/>
	<path d="M75 25.5C75.8284 25.5 76.5 24.8284 76.5 24C76.5 23.1716 75.8284 22.5 75 22.5C74.1716 22.5 73.5 23.1716 73.5 24C73.5 24.8284 74.1716 25.5 75 25.5Z" fill="#3A3D46"/>
	<path d="M63 25.5C63.8284 25.5 64.5 24.8284 64.5 24C64.5 23.1716 63.8284 22.5 63 22.5C62.1716 22.5 61.5 23.1716 61.5 24C61.5 24.8284 62.1716 25.5 63 25.5Z" fill="#3A3D46"/>
	<path d="M76.1325 40.7715L75.3975 38.883C79.623 36.6 82.5 32.13 82.5 27V21C82.5 17.313 79.8195 14.256 76.3095 13.632C76.4265 13.1055 76.5 12.5625 76.5 12V10.5H73.5V12C73.5 14.481 71.481 16.5 69 16.5C66.519 16.5 64.5 14.481 64.5 12V10.5H61.5V12C61.5 12.5625 61.5735 13.1055 61.6905 13.632C58.1805 14.256 55.5 17.313 55.5 21V27C55.5 32.13 58.377 36.6 62.6025 38.883L61.8525 40.809C55.3245 43.002 50.3475 47.901 47.9985 54.0555C45.651 47.8995 40.674 43.002 34.1445 40.809L33.75 39.795C37.239 38.454 39.8295 35.307 40.3785 31.5H40.5C43.809 31.5 46.5 28.809 46.5 25.5C46.5 22.191 43.809 19.5 40.5 19.5H40.224C39.603 17.7585 37.953 16.5 36 16.5H34.5C31.191 16.5 28.5 13.809 28.5 10.5H25.5C25.5 12.7695 26.3505 14.838 27.741 16.4235C24.7935 16.0455 22.5 13.548 22.5 10.5H19.5C19.5 11.574 19.689 12.606 20.0355 13.5615C16.8525 13.9725 14.295 16.3905 13.6605 19.5H13.5C10.191 19.5 7.5 22.191 7.5 25.5C7.5 28.809 10.191 31.5 13.5 31.5H13.62C14.169 35.307 16.7595 38.454 20.2485 39.795L19.869 40.7715C9.018 43.848 1.5 53.709 1.5 65.0535V66C1.5 71.7885 6.21 76.5 12 76.5H13.5V94.5H85.5V93C85.5 88.8435 84.5175 84.681 82.6575 80.9625L82.5 80.646V76.5H84C89.79 76.5 94.5 71.7885 94.5 66V65.0535C94.5 53.709 86.982 43.8495 76.1325 40.7715ZM10.5 25.5C10.5 23.8455 11.8455 22.5 13.5 22.5V28.5C11.8455 28.5 10.5 27.1545 10.5 25.5ZM58.5 27V21C58.5 18.519 60.519 16.5 63 16.5H63.039C64.41 18.3105 66.561 19.5 69 19.5C71.439 19.5 73.5915 18.3105 74.961 16.5H75C77.481 16.5 79.5 18.519 79.5 21V27C79.5 32.79 74.79 37.5 69 37.5C63.21 37.5 58.5 32.79 58.5 27ZM69 40.5C70.2525 40.5 71.4585 40.3155 72.6105 39.9945L73.4865 42.2475C73.4595 43.71 73.1895 45.1425 72.7065 46.5H65.292C64.809 45.144 64.5405 43.71 64.512 42.2475L65.388 39.9945C66.5415 40.3155 67.749 40.5 69 40.5ZM71.196 49.5C70.572 50.4345 69.846 51.303 69 52.0605C68.154 51.303 67.428 50.4345 66.804 49.5H71.196ZM20.856 43.605L23.8845 45.12L20.553 47.1195L19.9065 43.887C20.22 43.785 20.5365 43.6935 20.856 43.605ZM33.108 43.623C33.4335 43.731 33.762 43.8345 34.0785 43.9575L33.4455 47.1195L30.114 45.12L33.108 43.623ZM43.5 25.5C43.5 27.1545 42.1545 28.5 40.5 28.5V22.5C42.1545 22.5 43.5 23.8455 43.5 25.5ZM16.5 30V21C16.5 18.519 18.519 16.5 21 16.5H21.798C23.4465 18.3405 25.8405 19.5 28.5 19.5H36C36.8265 19.5 37.5 20.1735 37.5 21V30C37.5 34.1355 34.1355 37.5 30 37.5H24C19.8645 37.5 16.5 34.1355 16.5 30ZM24 40.5H30C30.267 40.5 30.5295 40.479 30.7905 40.4595L31.1055 41.2695L27 43.323L22.8945 41.2695L23.2095 40.4595C23.4705 40.479 23.733 40.5 24 40.5ZM25.5 76.5C28.809 76.5 31.5 73.809 31.5 70.5C31.5 67.191 28.809 64.5 25.5 64.5V58.5C25.5 56.8455 24.1545 55.5 22.5 55.5H13.5C11.8455 55.5 10.5 56.8455 10.5 58.5V64.5H7.5V67.5H19.5V73.5H12C7.8645 73.5 4.5 70.1355 4.5 66V65.0535C4.5 56.3715 9.4995 48.6795 17.076 45.0255L18.447 51.882L27 46.749L35.553 51.882L36.8685 45.3045C42.7695 48.747 46.5 55.0605 46.5 62.16V73.5H40.5V55.5H37.5V79.5H16.5V76.5H25.5ZM22.5 64.5H13.5V58.5H22.5V64.5ZM25.5 67.5C27.1545 67.5 28.5 68.8455 28.5 70.5C28.5 72.1545 27.1545 73.5 25.5 73.5H22.5V67.5H25.5ZM37.5 82.5V91.5H28.5V82.5H37.5ZM40.5 76.5H46.5C46.5 79.809 43.809 82.5 40.5 82.5V76.5ZM40.5 85.5C43.632 85.5 46.3905 83.8905 48.0045 81.4575C49.281 83.367 51.2775 84.7635 53.637 85.278C53.0325 87.3 52.665 89.394 52.545 91.5H40.5V85.5ZM55.5 80.646L55.3425 80.9625C55.104 81.4395 54.8805 81.9255 54.6705 82.416C51.7575 82.008 49.5 79.5255 49.5 76.5H55.5V80.646ZM16.5 82.5H25.5V91.5H16.5V82.5ZM55.5885 91.5C55.788 88.3845 56.571 85.305 57.942 82.5H80.061C81.432 85.305 82.254 88.3845 82.4535 91.5H55.5885ZM91.5 66C91.5 70.1355 88.1355 73.5 84 73.5H76.5V67.5H88.5V64.5H85.5V58.5C85.5 56.8455 84.1545 55.5 82.5 55.5H73.5C71.8455 55.5 70.5 56.8455 70.5 58.5V64.5C67.191 64.5 64.5 67.191 64.5 70.5C64.5 73.809 67.191 76.5 70.5 76.5H79.5V79.5H58.5V58.854L59.8425 56.1705L57.159 54.828L55.5 58.146V73.5H49.5V62.16C49.5 54.102 54.303 47.0535 61.632 44.07C62.1945 48.4605 64.524 52.5165 68.1 55.1985L69 55.8735L69.9 55.1985C73.5045 52.4955 75.8415 48.396 76.38 43.965C85.368 47.0025 91.5 55.4295 91.5 65.0535V66ZM82.5 64.5H73.5V58.5H82.5V64.5ZM73.5 67.5V73.5H70.5C68.8455 73.5 67.5 72.1545 67.5 70.5C67.5 68.8455 68.8455 67.5 70.5 67.5H73.5Z" fill="#3A3D46"/>
	<path d="M74.6835 30.9871L74.841 30.6706L72.1575 29.3281L72 29.6461C71.4285 30.7891 70.2795 31.5001 69 31.5001C67.7205 31.5001 66.5715 30.7891 66 29.6461L65.8425 29.3296L63.159 30.6721L63.3165 30.9886C64.3995 33.1546 66.5775 34.5001 69 34.5001C71.4225 34.5001 73.6005 33.1546 74.6835 30.9871Z" fill="#3A3D46"/>
	</symbol>
	<symbol id="why-4" width="96" height="96" viewBox="0 0 96 96" fill="none" xmlns="http://www.w3.org/2000/svg">
	<path d="M47.8425 55.5C46.6335 55.5 45.429 55.2165 44.358 54.678C34.236 49.584 28.8705 45.5415 27.351 43.6275L26.9985 43.1835L27.0285 42.618C27.261 38.1495 29.058 25.305 30.66 14.775L30.8535 13.5H33.5145C38.253 13.5 42.7095 11.655 46.0605 8.30397C47.0925 7.26897 48.9045 7.26747 49.9395 8.30547C53.2905 11.655 57.747 13.5 62.4855 13.5H65.1195L65.307 14.7825C66.735 24.54 68.538 37.5495 68.922 42.099L68.9805 42.7875L68.493 43.2795C67.575 44.2065 63.648 47.757 51.672 54.492C50.5005 55.152 49.176 55.5 47.8425 55.5Z" fill="#E3CDA1"/>
	<path d="M94.5 53.8935V46.3935H93C91.908 46.3935 90.8535 46.5615 89.8635 46.8735C90.006 44.8635 89.574 42.837 88.5645 41.019L84.5595 33.81L83.229 34.608C78.867 37.2255 77.076 42.4365 78.6885 47.076C77.5395 46.6425 76.3005 46.395 75.0015 46.395H73.7145C74.9955 44.82 75 43.968 75 43.5C75 38.94 70.668 10.0065 70.4835 8.778L70.2915 7.5H62.484C59.3475 7.5 56.3985 6.279 54.18 4.0605C52.5315 2.409 50.3355 1.5 48 1.5C45.6645 1.5 43.4685 2.409 41.8185 4.0605C39.6 6.279 36.651 7.5 33.5145 7.5H25.7175L25.518 8.766C25.3335 9.9345 21 37.452 21 43.5C21 44.3925 21.354 45.36 22.017 46.3935H21C19.701 46.3935 18.462 46.641 17.313 47.0745C18.9255 42.4365 17.1345 37.2255 12.7725 34.6065L11.442 33.81L7.437 41.0205C6.4275 42.8385 5.9955 44.8635 6.138 46.8735C5.1465 46.563 4.0935 46.3935 3.0015 46.3935H1.5V53.8935C1.5 56.7885 2.6775 59.4135 4.5795 61.3155C4.395 61.3665 4.209 61.41 4.0245 61.4715L2.601 61.944L4.575 67.8675C5.5035 70.65 7.4595 72.906 10.0845 74.2185C10.3845 74.3685 10.692 74.4915 10.9995 74.613C9.8955 75.1755 8.859 75.9105 7.9365 76.833L6.876 77.8935L10.9365 81.954C13.2255 84.24 16.266 85.5 19.5 85.5C22.227 85.5 24.8115 84.594 26.928 82.941L27 83.0145L27.567 82.4475C30.8685 82.7235 36.2205 85.3275 41.433 87.8805C42.4065 88.3575 43.3845 88.833 44.361 89.304C41.2035 90.6 38.2935 91.5 36 91.5V94.5C39.387 94.5 43.596 92.9775 48 91.0005C52.404 92.9775 56.613 94.5 60 94.5V91.5C57.7065 91.5 54.7965 90.6 51.6375 89.304C52.614 88.833 53.592 88.3575 54.5655 87.8805C59.778 85.3275 65.1315 82.722 68.4315 82.4475L69 83.0145L69.072 82.9425C71.1885 84.594 73.773 85.5 76.5 85.5C79.734 85.5 82.7745 84.24 85.0605 81.954L89.121 77.8935L88.0605 76.833C87.138 75.9105 86.1015 75.1755 84.9975 74.613C85.305 74.4915 85.6125 74.3685 85.9125 74.2185C88.5375 72.906 90.495 70.65 91.422 67.8675L93.396 61.944L91.9725 61.4715C91.7895 61.41 91.6035 61.3665 91.4175 61.3155C93.3225 59.4135 94.5 56.7885 94.5 53.8935ZM91.5 53.8935C91.5 57.516 88.9185 60.546 85.5 61.242V56.8935C85.5 53.271 88.0815 50.241 91.5 49.545V53.8935ZM83.5185 38.1165L85.941 42.4755C87.012 44.403 87.174 46.659 86.4225 48.72C85.545 49.4265 84.7875 50.2725 84.1755 51.222C84.066 50.9955 83.9745 50.763 83.853 50.5425L82.0575 47.31C80.331 44.2005 81.0075 40.431 83.5185 38.1165ZM76.5 49.5435C79.9185 50.241 82.5 53.2695 82.5 56.892V62.6955C82.32 62.8125 82.1475 62.9355 81.975 63.063C81.573 59.637 79.6515 56.454 76.557 54.552C76.5375 54.3315 76.5 54.114 76.5 53.8935V49.5435ZM78.0765 68.418L76.3065 73.728C76.2465 73.7445 76.1835 73.755 76.1235 73.773C76.437 72.6885 76.605 71.5545 76.605 70.3935C76.605 67.6125 75.6675 64.9755 73.9515 62.838C73.9605 61.536 74.253 60.24 74.841 59.0655L75.6105 57.525C78.6255 59.7675 79.8135 63.768 78.507 67.332C78.348 67.683 78.201 68.0445 78.0765 68.418ZM67.3935 73.3935C67.3935 70.962 68.34 68.6745 70.0605 66.954L71.913 65.1015C73.0125 66.6345 73.605 68.469 73.605 70.3935C73.605 72.8265 72.6585 75.1125 70.938 76.833L69.0855 78.6855C67.986 77.1525 67.3935 75.318 67.3935 73.3935ZM28.284 10.5H33.5145C37.452 10.5 41.154 8.967 43.9395 6.1815C46.1085 4.0125 49.8915 4.0125 52.0605 6.1815C54.8445 8.967 58.548 10.5 62.4855 10.5H67.707C69.2955 21.1545 71.997 40.1505 72 43.4955C71.9085 44.589 67.854 48.837 53.142 57.1065C50.0565 58.8435 46.137 58.929 43.014 57.3585C29.8785 50.751 24 45.636 24 43.5C24 38.397 27.417 16.08 28.284 10.5ZM26.913 78.6855L25.0605 76.833C23.3415 75.114 22.3935 72.8265 22.3935 70.3935C22.3935 68.469 22.986 66.6345 24.0855 65.1015L25.938 66.954C27.657 68.673 28.605 70.962 28.605 73.3935C28.6065 75.318 28.014 77.1525 26.913 78.6855ZM19.8765 73.773C19.8165 73.755 19.7535 73.7445 19.6935 73.728L17.9235 68.418C17.799 68.0445 17.6535 67.683 17.4915 67.329C16.185 63.7665 17.3745 59.7645 20.388 57.522L21.1575 59.0625C21.7455 60.237 22.038 61.533 22.047 62.835C20.331 64.974 19.3935 67.6095 19.3935 70.3905C19.3935 71.5545 19.563 72.6885 19.8765 73.773ZM19.5 53.8935C19.5 54.114 19.4625 54.333 19.443 54.552C16.3485 56.454 14.427 59.6385 14.025 63.063C13.8525 62.937 13.68 62.814 13.5 62.697V56.8935C13.5 53.271 16.0815 50.241 19.5 49.545V53.8935ZM10.059 42.4755L12.4815 38.115C14.9925 40.4295 15.669 44.2005 13.9425 47.3085L12.147 50.541C12.0255 50.76 11.934 50.994 11.8245 51.2205C11.2125 50.271 10.455 49.425 9.5775 48.7185C8.8245 46.659 8.988 44.403 10.059 42.4755ZM4.5 53.8935V49.545C7.9185 50.2425 10.5 53.271 10.5 56.8935V61.242C7.0815 60.5445 4.5 57.516 4.5 53.8935ZM7.4235 66.918L6.4425 63.975C9.828 63.525 13.1595 65.316 14.664 68.4195C14.7885 68.754 14.934 69.084 15.0915 69.4125L16.0575 72.3105C12.3405 72.81 8.6535 70.611 7.4235 66.918ZM19.5 82.5C17.067 82.5 14.781 81.552 13.0605 79.833L11.2095 77.982C14.7645 75.441 19.7505 75.765 22.9395 78.954L24.792 80.8065C23.259 81.906 21.4245 82.5 19.5 82.5ZM53.247 85.1865C51.4965 86.0445 49.7325 86.9025 48 87.7065C46.2675 86.9025 44.5035 86.0445 42.753 85.1865C37.9755 82.8465 33.42 80.6295 29.7765 79.7775C30.9615 77.8785 31.6065 75.6885 31.6065 73.3935C31.6065 70.161 30.348 67.119 28.0605 64.833L24.9975 61.77C24.8595 60.369 24.477 58.992 23.8425 57.723L22.416 54.87C22.446 54.543 22.5 54.219 22.5 53.8935V47.085C25.212 50.6475 31.614 54.984 41.6655 60.0405C43.566 60.9945 45.7035 61.5 47.8425 61.5C50.2035 61.5 52.545 60.885 54.6135 59.7225C66.4695 53.0565 71.4255 49.059 73.5015 46.6455V53.892C73.5015 54.219 73.5555 54.5415 73.587 54.8685L72.1605 57.7215C71.526 58.9905 71.1435 60.3675 71.0055 61.7685L67.9425 64.8315C65.6565 67.1175 64.3965 70.1595 64.3965 73.392C64.3965 75.687 65.0415 77.877 66.2265 79.776C62.58 80.6295 58.0245 82.8465 53.247 85.1865ZM82.9395 79.833C81.219 81.552 78.933 82.5 76.5 82.5C74.5755 82.5 72.741 81.906 71.208 80.8065L73.0605 78.954C76.251 75.765 81.237 75.4395 84.7905 77.982L82.9395 79.833ZM88.5765 66.918C87.3465 70.6095 83.652 72.807 79.9425 72.3105L80.9085 69.4125C81.066 69.0855 81.2115 68.7555 81.336 68.421C82.8405 65.3145 86.1795 63.5205 89.5575 63.975L88.5765 66.918Z" fill="#3A3D46"/>
	<path d="M38.079 41.595L41.178 43.9035L48 38.298L54.8205 43.905L57.9195 41.5965L54.5505 33.8445L61.8465 29.0475L60.426 25.5045L52.1385 25.5L50.0415 18H45.954L43.8885 25.4925L35.5695 25.506L34.152 29.046L41.448 33.843L38.079 41.595ZM38.7825 28.5L46.1745 28.4895L48.0045 21.855L49.8615 28.5L57.2145 28.5015L50.7945 32.724L53.49 38.928L48 34.4145L42.51 38.928L45.2055 32.724L38.7825 28.5Z" fill="#3A3D46"/>
	</symbol>
	<symbol id="why-5" width="96" height="96" viewBox="0 0 96 96" fill="none" xmlns="http://www.w3.org/2000/svg">
	<path d="M62.3295 57.534L48 48.717L33.6705 57.5355L38.166 41.7975L22.8315 30H42.243L48 12.7305L53.757 30H73.1685L57.8325 41.7975L62.3295 57.534Z" fill="#E3CDA1"/>
	<path d="M80.49 24H58.0815L51.3975 3.9465C50.907 2.484 49.542 1.5 48 1.5C46.458 1.5 45.093 2.484 44.6025 3.948L37.9185 24H15.51C13.575 24 12 25.575 12 27.51C12 28.5915 12.513 29.6325 13.371 30.291L31.278 44.067L25.809 63.216C25.5045 64.278 25.8 65.421 26.5815 66.1995C27.5775 67.1985 29.115 67.38 30.324 66.639L34.242 64.2285L37.1835 79.5H27.7785L21 87.9735V94.5H75V87.9735L68.22 79.5H58.815L61.7595 64.2285L65.679 66.6405C66.174 66.945 66.726 67.0935 67.2735 67.0935C68.0565 67.0935 68.832 66.789 69.42 66.201C70.2015 65.421 70.4985 64.278 70.1955 63.216L64.725 44.067L82.632 30.291C83.487 29.6325 84 28.593 84 27.51C84 25.575 82.425 24 80.49 24ZM36.9705 62.5485L40.3185 60.4875L43.251 79.5H40.239L36.9705 62.5485ZM34.5 82.5H61.5V84C61.5 84.8265 60.828 85.5 60 85.5H36C35.172 85.5 34.5 84.8265 34.5 84V82.5ZM46.287 79.5L43.092 58.782L48 55.761L52.908 58.7805L49.713 79.5H46.287ZM72 89.0265V91.5H24V89.0265L29.22 82.5H31.5V84C31.5 86.481 33.519 88.5 36 88.5H60C62.481 88.5 64.5 86.481 64.5 84V82.5H66.78L72 89.0265ZM55.761 79.5H52.749L55.68 60.4875L59.028 62.5485L55.761 79.5ZM80.8005 27.915L61.278 42.933L67.251 64.086L48 52.239L28.692 64.0425L34.7235 42.933L15.1995 27.915C15.0735 27.816 15 27.669 15 27.51C15 27.228 15.228 27 15.51 27H40.0815L47.448 4.899C47.6085 4.422 48.3915 4.4235 48.552 4.8975L55.9185 27H80.49C80.772 27 81 27.2295 81 27.51C81 27.669 80.9265 27.816 80.8005 27.915Z" fill="#3A3D46"/>
	</symbol>
	<symbol id="why-6" width="96" height="96" viewBox="0 0 96 96" fill="none" xmlns="http://www.w3.org/2000/svg">
	<path d="M13.347 53.3475L25.4985 49.059C27.297 48.4245 28.5 46.7235 28.5 44.8155V44.3235C22.9845 40.743 19.5 34.5645 19.5 27.7695V22.5H22.1355C26.2095 22.5 30.1185 20.8815 33 18C35.8815 20.8815 39.789 22.5 43.8645 22.5H46.5V27.7695C46.5 34.566 43.0155 40.7445 37.5 44.3235V44.8155C37.5 46.7235 38.703 48.4245 40.503 49.059L52.6545 53.3475C53.256 51.186 55.5 50.802 55.5 47.9865C55.5 44.739 52.5 44.739 52.5 41.4915C52.5 38.244 55.5 38.244 55.5 34.9965C55.5 31.7475 52.5 31.7475 52.5 28.5V21.2355C52.5 11.1645 44.3355 3 34.2645 3C28.725 3 23.4855 5.5185 20.025 9.8445L19.5 10.5C15.9735 11.382 13.5 14.55 13.5 18.1845V28.5C13.5 31.749 10.5 31.749 10.5 34.9965C10.5 38.244 13.5 38.244 13.5 41.4915C13.5 44.739 10.5 44.739 10.5 47.9865C10.5 50.802 12.744 51.186 13.347 53.3475Z" fill="#E3CDA1"/>
	<path d="M77.352 69.2462L75 67.4731L72.648 69.2462L71.826 68.8532C70.92 68.4212 70.113 67.8122 69.429 67.0412L68.865 66.4067L69.7665 63.5297L67.416 61.7596L67.509 60.9106C67.6245 59.8681 67.995 58.6681 68.4795 57.7801L68.907 56.9941L71.778 57.0062L72.6615 54.3286L73.5105 54.1531C74.5065 53.9476 75.4905 53.9476 76.4865 54.1531L77.3295 54.3271L78.231 57.0091L80.931 56.9896L81.36 57.7786C82.0125 58.9757 82.392 60.0286 82.4895 60.9091L82.5825 61.7582L80.232 63.5282L81.1335 66.4052L80.5695 67.0397C79.8855 67.8092 79.0785 68.4182 78.1725 68.8517L77.352 69.2462ZM75 63.7172L77.6265 65.6957C77.6655 65.6672 77.7045 65.6371 77.7405 65.6071L76.7385 62.4061L79.308 60.4711C79.2555 60.3226 79.191 60.1666 79.119 60.0031L76.083 60.0256L75.066 57.0001C75.024 56.9986 74.982 57.0001 74.94 57.0001L73.947 60.0151L70.779 60.0016C70.731 60.1441 70.686 60.2896 70.647 60.4366L73.2615 62.4047L72.2595 65.6056C72.2955 65.6357 72.3345 65.6657 72.3735 65.6942L75 63.7172Z" fill="#3A3D46"/>
	<path d="M34.5 72H37.5V75H34.5V72Z" fill="#3A3D46"/>
	<path d="M34.5 78H37.5V81H34.5V78Z" fill="#3A3D46"/>
	<path d="M85.5 74.9999V89.5784L75 86.9534L64.5 89.5784V74.9999H61.5V83.9999H52.5V64.4999H49.5V83.9999H31.5V71.1734L34.4265 68.5709C39.3435 64.2014 42.756 58.3499 44.202 51.9554L52.4925 54.8819C54.0705 55.4399 55.521 56.2814 56.802 57.3869L58.7625 55.1144C57.1965 53.7644 55.422 52.7354 53.4915 52.0529L41.0025 47.6459C39.894 47.2544 39.1515 46.2449 39.0435 45.0899C44.5605 41.1809 48 34.7909 48 27.7694V20.9999H43.863C40.1595 20.9999 36.6795 19.5584 34.0605 16.9394L33 15.8789L31.9395 16.9394C29.3205 19.5584 25.8405 20.9999 22.137 20.9999H18V27.7694C18 34.7909 21.4395 41.1809 26.9565 45.0899C26.847 46.2434 26.106 47.2544 24.9975 47.6459L12.5085 52.0529C5.9235 54.3764 1.5 60.6299 1.5 67.6124V86.9999H61.5V93.4214L75 90.0464L88.5 93.4214V74.9999H85.5ZM33 65.7809C32.1045 64.9379 31.26 64.0469 30.4845 63.1004L33 59.5799L35.5155 63.1004C34.74 64.0469 33.8955 64.9379 33 65.7809ZM41.34 50.9459C40.608 54.3704 39.276 57.6329 37.38 60.5519L34.8225 56.9714L39.348 50.1839C39.561 50.2889 39.7755 50.3939 40.0035 50.4749L41.34 50.9459ZM21 27.7694V23.9999H22.137C26.1585 23.9999 29.964 22.6019 33 20.0354C36.036 22.6019 39.843 23.9999 43.863 23.9999H45V27.7694C45 35.4659 40.1985 42.2924 33 44.9114C25.8015 42.2924 21 35.4674 21 27.7694ZM32.526 47.9234L33 48.0809L33.474 47.9234C34.4625 47.5934 35.409 47.1884 36.3195 46.7309C36.498 47.2574 36.747 47.7539 37.059 48.2084L33 54.2954L28.941 48.2054C29.253 47.7509 29.496 47.2514 29.6745 46.7264C30.5865 47.1869 31.5345 47.5934 32.526 47.9234ZM25.9965 50.4734C26.2245 50.3924 26.439 50.2874 26.6535 50.1824L31.179 56.9699L28.6215 60.5504C26.7255 57.6314 25.38 54.3734 24.6495 50.9489L25.9965 50.4734ZM28.5 69.8264V83.9999H16.5V62.9999H13.5V83.9999H4.5V67.6124C4.5 61.8989 8.1195 56.7824 13.5075 54.8819L21.798 51.9554C23.163 57.9899 26.2965 63.5234 30.7785 67.8014L28.5 69.8264Z" fill="#3A3D46"/>
	<path d="M75 81C64.248 81 55.5 72.252 55.5 61.5C55.5 50.748 64.248 42 75 42C85.752 42 94.5 50.748 94.5 61.5C94.5 72.252 85.752 81 75 81ZM75 49.5C68.3835 49.5 63 54.8835 63 61.5C63 68.1165 68.3835 73.5 75 73.5C81.6165 73.5 87 68.1165 87 61.5C87 54.8835 81.6165 49.5 75 49.5Z" fill="#E3CDA1"/>
	<path d="M75 75C67.5555 75 61.5 68.943 61.5 61.5C61.5 54.057 67.5555 48 75 48C82.4445 48 88.5 54.057 88.5 61.5C88.5 68.943 82.4445 75 75 75ZM75 51C69.2115 51 64.5 55.71 64.5 61.5C64.5 67.29 69.2115 72 75 72C80.7885 72 85.5 67.29 85.5 61.5C85.5 55.71 80.7885 51 75 51Z" fill="#3A3D46"/>
	<path d="M74.931 39C72.4875 39 70.5 37.0125 70.5 34.569V30H61.5C59.019 30 57 27.981 57 25.5V6C57 3.519 59.019 1.5 61.5 1.5H90C92.481 1.5 94.5 3.519 94.5 6V25.5C94.5 27.981 92.481 30 90 30H83.3025L78.618 37.0275C77.7945 38.262 76.416 39 74.931 39ZM61.5 4.5C60.672 4.5 60 5.1735 60 6V25.5C60 26.3265 60.672 27 61.5 27H73.5V34.569C73.5 35.358 74.142 36 74.931 36C75.4095 36 75.855 35.7615 76.122 35.3625L81.6975 27H90C90.828 27 91.5 26.3265 91.5 25.5V6C91.5 5.1735 90.828 4.5 90 4.5H61.5Z" fill="#3A3D46"/>
	<path d="M73.5 23.121L67.9395 17.5605L70.0605 15.4395L73.5 18.879L84.4395 7.93945L86.5605 10.0605L73.5 23.121Z" fill="#3A3D46"/>
	</symbol>
</svg>