<svg height="496pt" viewBox="0 0 496 496" width="496pt" xmlns="http://www.w3.org/2000/svg"><path d="m32 32h16v16h-16zm0 0"/><path d="m64 32h16v16h-16zm0 0"/><path d="m96 32h16v16h-16zm0 0"/><path d="m32 272h224v-176h-224zm16-160h192v144h-192zm0 0"/><path d="m64 128h16v16h-16zm0 0"/><path d="m96 128h128v16h-128zm0 0"/><path d="m64 160h160v16h-160zm0 0"/><path d="m64 192h160v16h-160zm0 0"/><path d="m208 224h16v16h-16zm0 0"/><path d="m64 224h128v16h-128zm0 0"/><path d="m496 0h-496v368h241.28125c-.761719 5.238281-1.28125 10.550781-1.28125 16 0 61.761719 50.238281 112 112 112s112-50.238281 112-112c0-5.449219-.519531-10.761719-1.28125-16h33.28125zm-16 16v48h-464v-48zm-224 368c0-17.695312 4.894531-34.230469 13.28125-48.480469l10.519531 3.503907c4.902344 1.640624 8.199219 6.214843 8.199219 11.390624v5.585938c0 15.441406 12.558594 28 28 28 6.617188 0 12 5.382812 12 12v7.640625c0 4.566406-2.535156 8.6875-6.632812 10.734375l-1.816407.90625c-14.527343 7.253906-23.550781 21.863281-23.550781 38.109375 0 2.601563-.382812 5.152344-1.113281 7.59375-23.542969-17.511719-38.886719-45.457031-38.886719-76.984375zm104-111.59375v-120.40625h16v122.65625c-5.207031-1.144531-10.550781-1.863281-16-2.25zm-25.054688-136.40625 17.054688-25.574219 17.054688 25.574219zm-6.945312 16h16v120.40625c-5.449219.386719-10.792969 1.105469-16 2.25zm24 136c50.238281 0 91.503906 38.800781 95.59375 88h-16.152344c-15.898437 0-30.21875-9.449219-36.488281-24.054688-8.296875-19.410156-27.320313-31.945312-48.441406-31.945312-9.664063 0-19.121094-3.921875-25.953125-10.753906l-11.160156-11.15625c12.867187-6.394532 27.289062-10.089844 42.601562-10.089844zm-56.648438 18.664062 13.894532 13.894532c9.816406 9.816406 23.394531 15.441406 37.265625 15.441406 14.710937 0 27.953125 8.734375 33.746093 22.238281 8.78125 20.515625 28.878907 33.761719 51.191407 33.761719h16.152343c-1.480468 17.832031-7.859374 34.257812-17.777343 48h-.335938c-3.03125 0-5.488281-2.457031-5.488281-5.480469v-5.046875c0-11.839844-9.632812-21.472656-21.480469-21.472656h-21.046875c-11.839844 0-21.472656 9.632812-21.472656 21.480469 0 2.519531-1.710938 4.703125-4.152344 5.3125-16.390625 4.085937-27.847656 18.757812-27.847656 35.671875v4.773437c0 .5625.152344 1.097657.175781 1.65625-6.816406-1.75-13.335937-4.199219-19.480469-7.320312 2.105469-5.109375 3.304688-10.558594 3.304688-16.183594 0-10.152344 5.632812-19.261719 14.710938-23.796875l1.816406-.90625c9.542968-4.785156 15.472656-14.375 15.472656-25.046875v-7.640625c0-15.441406-12.558594-28-28-28-6.617188 0-12-5.382812-12-12v-5.585938c0-12.0625-7.6875-22.742187-19.144531-26.558593l-5.917969-1.976563c4.855469-5.695312 10.375-10.773437 16.414062-15.214844zm49.152344 172.960938c-.328125-1.457031-.503906-2.921875-.503906-4.394531v-4.773438c0-9.546875 6.472656-17.832031 15.726562-20.152343 9.585938-2.382813 16.273438-10.953126 16.273438-20.824219 0-3.023438 2.457031-5.480469 5.480469-5.480469h21.046875c3.015625 0 5.472656 2.457031 5.472656 5.480469v5.046875c0 7.871094 4.304688 14.695312 10.632812 18.433594-17.28125 16.703124-40.753906 27.039062-66.632812 27.039062-2.527344 0-5.015625-.183594-7.496094-.375zm114.777344-127.625c-9.960938-33.335938-35.066406-60.105469-67.28125-72.488281v-137.9375l-40-60-40 60v137.9375c-32.222656 12.382812-57.320312 39.152343-67.28125 72.488281h-228.71875v-272h464v272zm0 0"/><path d="m32 288h16v16h-16zm0 0"/><path d="m32 320h16v16h-16zm0 0"/><path d="m64 288h168v16h-168zm0 0"/><path d="m64 320h168v16h-168zm0 0"/></svg>