<svg width="775" height="147" viewBox="0 0 775 147" fill="none" xmlns="http://www.w3.org/2000/svg">
    <path d="M99.5206 141.295C98.8701 141.295 98.2805 140.884 98.0773 140.271L87.3641 108.727H36.3089L25.799 140.261C25.5958 140.884 25.0062 141.295 24.3557 141.295H3.04122C2.55334 141.295 2.09594 141.065 1.80118 140.673C1.50642 140.281 1.43527 139.78 1.58773 139.318L47.5506 2.53799C47.7539 1.92557 48.3434 1.50391 48.9939 1.50391H79.7307C80.3812 1.50391 80.9708 1.91553 81.1741 2.52795L127.635 139.308C127.787 139.769 127.716 140.271 127.432 140.663C127.147 141.055 126.68 141.285 126.192 141.285H99.5206V141.295ZM79.6697 85.9772L61.5773 31.3015L43.4951 85.9772H79.6697Z" fill="black"/>
    <path d="M79.7403 3.01188L126.201 139.792H99.52L88.4613 107.223H35.2004L24.345 139.792H3.04066L49.0035 3.01188H79.7403ZM41.3905 87.4852H81.763L61.5768 26.4544L41.3905 87.4852ZM79.7403 0H49.0035C47.6923 0 46.5235 0.833288 46.1067 2.06816L0.154004 138.838C-0.150924 139.751 0.0015404 140.765 0.57074 141.548C1.13994 142.332 2.06489 142.793 3.04066 142.793H24.345C25.6663 142.793 26.8251 141.96 27.2418 140.725L37.4061 110.225H86.2658L96.6232 140.735C97.0399 141.96 98.2088 142.793 99.5098 142.793H126.191C127.177 142.793 128.092 142.332 128.671 141.538C129.24 140.755 129.403 139.741 129.088 138.818L82.627 2.05812C82.2102 0.823248 81.0515 0 79.7403 0ZM45.5985 84.4733L61.5869 36.1627L77.5753 84.4733H45.5985Z" fill="white"/>
    <path d="M96.6231 140.808C96.0132 140.808 95.4745 140.427 95.2814 139.855L85.3916 110.73H38.2394L28.5326 139.845C28.3394 140.417 27.8007 140.798 27.1909 140.798H7.52298C7.06559 140.798 6.63869 140.587 6.37442 140.216C6.11015 139.855 6.039 139.383 6.1813 138.961L48.6273 12.6627C48.8205 12.0905 49.3592 11.709 49.969 11.709H78.3579C78.9677 11.709 79.5064 12.0905 79.6996 12.6627L122.603 138.971C122.745 139.393 122.674 139.865 122.41 140.226C122.146 140.587 121.719 140.808 121.261 140.808H96.6231ZM78.2766 89.7168L61.5766 39.2476L44.8869 89.7168H78.2766Z" fill="black"/>
    <path d="M78.3468 13.1035L121.25 139.412H96.6222L86.4071 109.333H37.2222L27.2002 139.412H7.52213L49.958 13.1035H78.3468ZM42.9345 91.1113H80.2171L61.5758 34.7589L42.9345 91.1113ZM78.3468 10.3125H49.958C48.7383 10.3125 47.6609 11.0855 47.2746 12.22L4.84892 138.538C4.56432 139.392 4.70662 140.325 5.23516 141.048C5.76371 141.771 6.61751 142.203 7.52213 142.203H27.2002C28.4199 142.203 29.4973 141.43 29.8835 140.285L39.2652 112.124H84.3743L93.9389 140.295C94.3251 141.43 95.4025 142.193 96.6121 142.193H121.25C122.155 142.193 123.009 141.761 123.537 141.028C124.066 140.295 124.208 139.362 123.923 138.508L81.0302 12.22C80.644 11.0755 79.5666 10.3125 78.3468 10.3125ZM46.8274 88.3203L61.5758 43.7344L76.3343 88.3203H46.8274Z" fill="white"/>
    <path d="M93.7174 140.311C93.1583 140.311 92.6603 139.96 92.4875 139.438L83.4209 112.733H40.1821L31.2782 139.428C31.1054 139.95 30.6073 140.311 30.0483 140.311H12.0067C11.59 140.311 11.1936 140.111 10.9496 139.779C10.7057 139.448 10.6345 139.016 10.7667 138.625L49.6959 22.7878C49.8687 22.2657 50.3667 21.9043 50.9257 21.9043H76.9565C77.5155 21.9043 78.0136 22.2557 78.1863 22.7777L117.542 138.625C117.675 139.016 117.614 139.448 117.37 139.779C117.126 140.111 116.729 140.311 116.313 140.311H93.7174ZM76.8955 93.4466L61.5881 47.174L46.2807 93.4466H76.8955Z" fill="black"/>
    <path d="M76.9659 23.1912L116.322 139.038H93.7166L84.3553 111.459H39.2462L30.0577 139.038H12.0059L50.925 23.1912H76.9659ZM44.4808 94.7335H78.6735L61.5873 43.0496L44.4808 94.7335ZM76.9659 20.6211H50.925C49.8069 20.6211 48.8108 21.3339 48.4551 22.378L9.53603 138.225C9.27175 139.008 9.40389 139.872 9.89178 140.534C10.3797 141.197 11.1623 141.598 11.9958 141.598H30.0374C31.1555 141.598 32.1516 140.886 32.5073 139.831L41.1164 114.01H82.4749L91.2467 139.841C91.6024 140.886 92.5884 141.588 93.7064 141.588H116.302C117.135 141.588 117.918 141.187 118.406 140.524C118.894 139.852 119.026 138.988 118.761 138.205L79.4256 22.378C79.0699 21.3239 78.0839 20.6211 76.9659 20.6211ZM48.0688 92.1634L61.5873 51.3021L75.1058 92.1634H48.0688Z" fill="white"/>
    <path d="M90.8163 139.83C90.3081 139.83 89.8507 139.509 89.6881 139.027L81.4448 114.731H42.1192L34.0285 139.017C33.8658 139.499 33.4186 139.82 32.9002 139.82H16.4849C16.1088 139.82 15.7429 139.64 15.5193 139.339C15.2957 139.037 15.2347 138.646 15.3567 138.284L50.7589 32.9086C50.9215 32.4267 51.3687 32.1055 51.8871 32.1055H75.5699C76.0781 32.1055 76.5355 32.4267 76.6981 32.9086L112.497 138.284C112.619 138.646 112.558 139.037 112.334 139.339C112.11 139.64 111.755 139.83 111.368 139.83H90.8163ZM75.4987 97.1822L61.5838 55.1163L47.6588 97.1822H75.4987Z" fill="black"/>
    <path d="M75.5704 33.279L111.369 138.655H90.8168L82.2992 113.566H41.2558L32.8906 138.655H16.4855L51.8876 33.279H75.5704ZM46.0229 98.3557H77.1256L61.5742 51.3402L46.0229 98.3557ZM75.5704 30.9297H51.8876C50.8611 30.9297 49.9564 31.5722 49.6413 32.536L14.229 137.922C13.985 138.635 14.107 139.418 14.5542 140.03C15.0015 140.643 15.713 141.004 16.4753 141.004H32.8906C33.9172 141.004 34.8218 140.351 35.1471 139.398L42.9736 115.915H80.5814L88.5604 139.408C88.8856 140.361 89.7903 141.004 90.8067 141.004H111.359C112.121 141.004 112.843 140.643 113.28 140.03C113.727 139.418 113.849 138.635 113.605 137.922L77.8167 32.536C77.4915 31.5722 76.5869 30.9297 75.5704 30.9297ZM49.2958 96.0165L61.5844 58.89L73.8628 96.0165H49.2958Z" fill="white"/>
    <path d="M87.91 139.341C87.4526 139.341 87.0359 139.05 86.8936 138.619L79.4635 116.742H44.0613L36.7735 138.609C36.6312 139.04 36.2145 139.341 35.7571 139.341H20.968C20.6225 139.341 20.2972 139.181 20.0939 138.9C19.8906 138.619 19.8398 138.267 19.9414 137.946L51.837 43.0314C51.9793 42.5997 52.396 42.3086 52.8534 42.3086H74.1882C74.6456 42.3086 75.0623 42.5997 75.2046 43.0314L107.446 137.946C107.558 138.267 107.497 138.629 107.303 138.9C107.1 139.181 106.775 139.341 106.429 139.341H87.91ZM74.1171 100.93L61.5845 63.0504L49.0519 100.93H74.1171Z" fill="black"/>
    <path d="M74.1884 43.3706L106.43 138.285H87.9102L80.2362 115.686H43.2789L35.7471 138.285H20.9683L52.8536 43.3706H74.1884ZM47.5784 101.982H75.6013L61.5847 59.6348L47.5784 101.982ZM74.1884 41.2422H52.8536C51.9287 41.2422 51.1054 41.8245 50.8208 42.6979L18.9253 137.612C18.7118 138.255 18.8134 138.968 19.22 139.52C19.6266 140.072 20.2669 140.403 20.9581 140.403H35.737C36.6619 140.403 37.4852 139.821 37.78 138.948L44.8238 117.804H78.6912L85.8774 138.958C86.1721 139.821 86.9853 140.403 87.9102 140.403H106.43C107.121 140.403 107.771 140.072 108.168 139.52C108.564 138.968 108.676 138.255 108.462 137.612L76.2213 42.6879C75.9265 41.8245 75.1032 41.2422 74.1884 41.2422ZM50.5362 99.8635L61.5847 66.4617L72.6333 99.8635H50.5362Z" fill="white"/>
    <path d="M85.0158 138.858C84.5991 138.858 84.2332 138.597 84.101 138.216L77.4942 118.759H45.9951L39.5103 138.216C39.3782 138.607 39.0123 138.868 38.5955 138.868H25.4429C25.138 138.868 24.8433 138.718 24.6603 138.477C24.4773 138.226 24.4265 137.915 24.5282 137.623L52.9068 53.1702C53.039 52.7786 53.4049 52.5176 53.8216 52.5176H72.7983C73.2151 52.5176 73.581 52.7786 73.7131 53.1601L102.397 137.613C102.498 137.905 102.448 138.226 102.265 138.467C102.082 138.718 101.797 138.858 101.482 138.858H85.0158ZM72.7272 104.663L61.5871 70.9905L50.4471 104.663H72.7272Z" fill="black"/>
    <path d="M72.8005 53.4619L101.484 137.915H85.0179L78.1875 117.806H45.3061L38.6078 137.915H25.4451L53.8238 53.4619H72.8005ZM49.1279 105.608H74.0608L61.5893 67.9391L49.1279 105.608ZM72.8005 51.5645H53.8238C53.0005 51.5645 52.2585 52.0865 52.0043 52.8596L23.6257 137.313C23.4326 137.895 23.5342 138.528 23.8899 139.02C24.2457 139.512 24.8251 139.803 25.4451 139.803H38.5977C39.4311 139.803 40.163 139.281 40.4171 138.498L46.6884 119.693H76.8052L83.1884 138.508C83.4526 139.281 84.1845 139.803 85.0078 139.803H101.484C102.104 139.803 102.683 139.512 103.039 139.01C103.395 138.518 103.497 137.875 103.303 137.303L74.6199 52.8495C74.3556 52.0765 73.6238 51.5645 72.8005 51.5645ZM51.7706 103.71L61.5893 74.0331L71.408 103.71H51.7706Z" fill="white"/>
    <path d="M82.1076 138.364C81.7416 138.364 81.4164 138.133 81.3046 137.792L75.5211 120.744H47.9352L42.2534 137.782C42.1416 138.123 41.8163 138.354 41.4504 138.354H29.9241C29.6497 138.354 29.3956 138.223 29.2329 138.002C29.0703 137.782 29.0297 137.5 29.111 137.249L53.9728 63.2676C54.0846 62.9262 54.4099 62.6953 54.7758 62.6953H71.4046C71.7705 62.6953 72.0957 62.9262 72.2075 63.2676L97.3438 137.249C97.4353 137.5 97.3845 137.782 97.232 138.002C97.0795 138.223 96.8153 138.354 96.5408 138.354H82.1076V138.364ZM71.3436 108.396L61.596 78.9193L51.8485 108.396H71.3436Z" fill="black"/>
    <path d="M71.4152 63.5396L96.5515 137.521H82.1182L76.1416 119.902H47.3258L41.4509 137.521H29.9246L54.7864 63.5396H71.4152ZM50.6699 109.23H72.5129L61.5863 76.2297L50.6699 109.23ZM71.4152 61.873H54.7864C54.0546 61.873 53.4041 62.3349 53.1805 63.0176L28.3186 136.999C28.1458 137.511 28.2373 138.074 28.5524 138.505C28.8675 138.937 29.3859 139.198 29.9246 139.198H41.4509C42.1827 139.198 42.8332 138.736 43.0568 138.044L48.5456 121.579H74.9117L80.5021 138.054C80.7358 138.736 81.3762 139.198 82.108 139.198H96.5413C97.0902 139.198 97.5984 138.937 97.9135 138.505C98.2286 138.064 98.3201 137.511 98.1473 136.999L73.0212 63.0075C72.7874 62.3248 72.1369 61.873 71.4152 61.873ZM53.0077 107.563L61.5965 81.6109L70.1853 107.563H53.0077Z" fill="white"/>
    <path d="M79.2162 137.876C78.9011 137.876 78.6165 137.675 78.5251 137.384L73.5547 122.757H49.8821L45.0033 137.384C44.9016 137.685 44.6272 137.886 44.3019 137.886H34.4121C34.1783 137.886 33.9547 137.776 33.8124 137.585C33.6701 137.394 33.6396 137.153 33.7108 136.932L55.0557 73.4119C55.1574 73.1107 55.4318 72.9199 55.7571 72.9199H70.0277C70.3428 72.9199 70.6274 73.1207 70.7189 73.4119L92.2977 136.922C92.3688 137.143 92.3383 137.384 92.196 137.575C92.0537 137.766 91.8403 137.876 91.5963 137.876H79.2162ZM69.9566 112.135L61.5914 86.8549L53.2262 112.135H69.9566Z" fill="black"/>
    <path d="M70.0256 73.6312L91.6044 137.152H79.2141L74.0812 122.032H49.3413L44.2998 137.152H34.41L55.755 73.6312H70.0256ZM52.2178 112.866H70.9709L61.5994 84.5242L52.2178 112.866ZM70.0256 72.1855H55.755C55.1248 72.1855 54.5657 72.5871 54.3624 73.1795L33.0175 136.7C32.865 137.142 32.9463 137.624 33.2207 138.005C33.4952 138.387 33.9424 138.608 34.41 138.608H44.2998C44.93 138.608 45.4992 138.206 45.6923 137.614L50.3984 123.488H73.0139L77.8114 137.624C78.0147 138.216 78.5738 138.618 79.204 138.618H91.5942C92.0618 138.618 92.509 138.397 92.7834 138.015C93.0579 137.634 93.129 137.152 92.9867 136.71L71.4181 73.1694C71.2148 72.5871 70.6558 72.1855 70.0256 72.1855ZM54.2405 111.41L61.5893 89.1926L68.938 111.41H54.2405Z" fill="white"/>
    <path d="M76.3033 137.394C76.039 137.394 75.7951 137.223 75.7138 136.972L71.5668 124.754H51.8074L47.7417 136.962C47.6604 137.213 47.4164 137.384 47.1522 137.384H38.8886C38.6853 137.384 38.5024 137.293 38.3804 137.133C38.2686 136.972 38.2279 136.771 38.2991 136.58L56.1272 83.531C56.2085 83.28 56.4525 83.1094 56.7167 83.1094H68.6395C68.9037 83.1094 69.1477 83.28 69.229 83.531L87.2502 136.58C87.3112 136.771 87.2807 136.972 87.1689 137.133C87.0571 137.293 86.864 137.384 86.6607 137.384H76.3033V137.394ZM68.5683 115.879L61.5956 94.7955L54.6229 115.879H68.5683Z" fill="black"/>
    <path d="M68.6397 83.7209L86.661 136.77H76.3036L72.0142 124.14H51.3604L47.1524 136.77H38.8889L56.717 83.7209H68.6397ZM53.7592 116.49H69.4224L61.5959 92.8168L53.7592 116.49ZM68.6397 82.4961H56.717C56.1783 82.4961 55.7107 82.8374 55.538 83.3394L37.7098 136.389C37.5878 136.76 37.6488 137.172 37.8826 137.493C38.1164 137.814 38.4925 138.005 38.8889 138.005H47.1524C47.6911 138.005 48.1688 137.664 48.3315 137.162L52.2651 125.375H71.13L75.1347 137.172C75.3075 137.674 75.775 138.005 76.3137 138.005H86.661C87.0574 138.005 87.4335 137.814 87.6672 137.493C87.901 137.172 87.962 136.76 87.84 136.389L69.8086 83.3294C69.646 82.8374 69.1683 82.4961 68.6397 82.4961ZM55.477 115.265L61.5959 96.7724L67.7148 115.265H55.477Z" fill="white"/>
    <path d="M73.4092 136.899C73.1957 136.899 72.9924 136.758 72.9314 136.557L69.6077 126.759H53.7514L50.4887 136.557C50.4175 136.768 50.2244 136.899 50.011 136.899H43.3737C43.2111 136.899 43.0586 136.818 42.957 136.688C42.8655 136.557 42.835 136.387 42.8858 136.236L57.1971 93.648C57.2683 93.4472 57.4614 93.3066 57.6748 93.3066H67.2496C67.463 93.3066 67.6663 93.4472 67.7273 93.648L82.1911 136.236C82.2419 136.387 82.2216 136.557 82.1199 136.688C82.0285 136.818 81.8658 136.899 81.7032 136.899H73.4092ZM67.1784 119.61L61.5983 102.724L56.0181 119.61H67.1784Z" fill="black"/>
    <path d="M67.2505 93.8086L81.7143 136.397H73.4101L69.9644 126.257H53.3864L50.0017 136.397H43.3645L57.6758 93.8086H67.2505ZM55.3075 120.112H67.8807L61.5992 101.107L55.3075 120.112ZM67.2505 92.8047H57.6758C57.2387 92.8047 56.8525 93.0858 56.7102 93.4974L42.3989 136.085C42.2972 136.387 42.348 136.728 42.5412 136.989C42.7343 137.25 43.0392 137.401 43.3645 137.401H50.0017C50.4388 137.401 50.8251 137.12 50.9674 136.708L54.1183 127.261H69.2326L72.4445 136.718C72.5868 137.13 72.973 137.401 73.4101 137.401H81.7143C82.0396 137.401 82.3445 137.25 82.5376 136.979C82.7307 136.718 82.7816 136.377 82.6799 136.075L68.2161 93.4874C68.0738 93.0858 67.6876 92.8047 67.2505 92.8047ZM56.7102 119.108L61.5992 104.34L66.4882 119.108H56.7102Z" fill="white"/>
    <path d="M205.119 141.288C204.276 141.288 203.595 140.615 203.595 139.782V25.6514H168.294C167.451 25.6514 166.77 24.9787 166.77 24.1455V3.00204C166.77 2.16875 167.451 1.49609 168.294 1.49609H268.727C269.571 1.49609 270.252 2.16875 270.252 3.00204V24.1455C270.252 24.9787 269.571 25.6514 268.727 25.6514H233.427V139.782C233.427 140.615 232.746 141.288 231.902 141.288H205.119Z" fill="black"/>
    <path d="M268.729 3.01188V24.1553H231.903V139.792H205.121V24.1453H168.295V3.00183H268.729V3.01188ZM268.729 0H168.295C166.608 0 165.246 1.34531 165.246 3.01188V24.1553C165.246 25.8219 166.608 27.1672 168.295 27.1672H202.071V139.792C202.071 141.458 203.433 142.803 205.121 142.803H231.903C233.591 142.803 234.953 141.458 234.953 139.792V27.1571H268.729C270.416 27.1571 271.778 25.8118 271.778 24.1453V3.00183C271.778 1.3453 270.406 0 268.729 0Z" fill="white"/>
    <path d="M206.244 141.51C205.462 141.51 204.832 140.888 204.832 140.115V34.7689H172.245C171.462 34.7689 170.832 34.1465 170.832 33.3734V13.8564C170.832 13.0833 171.462 12.4609 172.245 12.4609H264.963C265.746 12.4609 266.376 13.0833 266.376 13.8564V33.3734C266.376 34.1465 265.746 34.7689 264.963 34.7689H232.377V140.125C232.377 140.898 231.746 141.52 230.964 141.52H206.244V141.51Z" fill="black"/>
    <path d="M264.966 13.8554V33.3724H230.967V140.124H206.247V33.3724H172.248V13.8554H264.966ZM264.966 11.0645H172.248C170.692 11.0645 169.422 12.3093 169.422 13.8554V33.3724C169.422 34.9085 170.682 36.1635 172.248 36.1635H203.421V140.124C203.421 141.66 204.682 142.915 206.247 142.915H230.967C232.522 142.915 233.792 141.67 233.792 140.124V36.1635H264.966C266.521 36.1635 267.792 34.9185 267.792 33.3724V13.8554C267.792 12.3093 266.531 11.0645 264.966 11.0645Z" fill="white"/>
    <path d="M207.377 141.739C206.656 141.739 206.076 141.167 206.076 140.454V43.8728H176.203C175.482 43.8728 174.902 43.3006 174.902 42.5878V24.6972C174.902 23.9844 175.482 23.4121 176.203 23.4121H261.207C261.929 23.4121 262.508 23.9844 262.508 24.6972V42.5878C262.508 43.3006 261.929 43.8728 261.207 43.8728H231.334V140.454C231.334 141.167 230.755 141.739 230.033 141.739H207.377Z" fill="black"/>
    <path d="M261.219 24.699V42.5897H230.056V140.456H207.389V42.5897H176.225V24.699H261.219ZM261.219 22.1289H176.215C174.782 22.1289 173.613 23.2734 173.613 24.699V42.5897C173.613 44.0052 174.772 45.1598 176.215 45.1598H204.787V140.456C204.787 141.871 205.946 143.026 207.389 143.026H230.056C231.489 143.026 232.658 141.881 232.658 140.456V45.1598H261.229C262.662 45.1598 263.831 44.0153 263.831 42.5897V24.699C263.811 23.2835 262.652 22.1289 261.219 22.1289Z" fill="white"/>
    <path d="M208.51 141.96C207.859 141.96 207.32 141.438 207.32 140.786V52.9692H180.172C179.521 52.9692 178.982 52.4471 178.982 51.7946V35.5203C178.982 34.8778 179.511 34.3457 180.172 34.3457H257.461C258.111 34.3457 258.65 34.8677 258.65 35.5203V51.7946C258.65 52.4371 258.121 52.9692 257.461 52.9692H230.312V140.786C230.312 141.428 229.783 141.96 229.123 141.96H208.51Z" fill="black"/>
    <path d="M257.458 35.5404V51.8146H229.12V140.796H208.507V51.8146H180.169V35.5404H257.458ZM257.458 33.2012H180.169C178.858 33.2012 177.801 34.2453 177.801 35.5404V51.8146C177.801 53.1097 178.858 54.1538 180.169 54.1538H206.139V140.796C206.139 142.091 207.196 143.135 208.507 143.135H229.12C230.431 143.135 231.488 142.091 231.488 140.796V54.1538H257.458C258.769 54.1538 259.827 53.1097 259.827 51.8146V35.5404C259.827 34.2453 258.769 33.2012 257.458 33.2012Z" fill="white"/>
    <path d="M209.644 142.191C209.055 142.191 208.567 141.719 208.567 141.127V62.0848H184.132C183.543 62.0848 183.055 61.613 183.055 61.0206V46.3728C183.055 45.7905 183.532 45.3086 184.132 45.3086H253.707C254.296 45.3086 254.784 45.7805 254.784 46.3728V61.0206C254.784 61.6029 254.306 62.0848 253.707 62.0848H229.272V141.127C229.272 141.709 228.794 142.191 228.194 142.191H209.644Z" fill="black"/>
    <path d="M253.696 46.382V61.0298H228.183V141.126H209.634V61.0298H184.121V46.382H253.696ZM253.696 44.2637H184.121C182.932 44.2637 181.977 45.2174 181.977 46.382V61.0298C181.977 62.2045 182.942 63.1482 184.121 63.1482H207.489V141.126C207.489 142.3 208.454 143.244 209.634 143.244H228.183C229.373 143.244 230.328 142.29 230.328 141.126V63.1482H253.696C254.885 63.1482 255.84 62.1944 255.84 61.0298V46.382C255.851 45.2074 254.885 44.2637 253.696 44.2637Z" fill="white"/>
    <path d="M210.775 142.413C210.246 142.413 209.819 141.991 209.819 141.469V71.2018H188.098C187.57 71.2018 187.143 70.7802 187.143 70.2581V57.2367C187.143 56.7146 187.57 56.293 188.098 56.293H249.948C250.476 56.293 250.903 56.7146 250.903 57.2367V70.2581C250.903 70.7802 250.476 71.2018 249.948 71.2018H228.227V141.469C228.227 141.991 227.8 142.413 227.271 142.413H210.775Z" fill="black"/>
    <path d="M249.946 57.2276V70.249H227.27V141.47H210.773V70.249H188.097V57.2276H249.946ZM249.946 55.3301H188.097C187.04 55.3301 186.176 56.1835 186.176 57.2276V70.249C186.176 71.2931 187.04 72.1464 188.097 72.1464H208.852V141.47C208.852 142.514 209.716 143.367 210.773 143.367H227.27C228.327 143.367 229.191 142.514 229.191 141.47V72.1464H249.946C251.004 72.1464 251.868 71.2931 251.868 70.249V57.2276C251.868 56.1835 251.004 55.3301 249.946 55.3301Z" fill="white"/>
    <path d="M211.902 142.632C211.434 142.632 211.058 142.26 211.058 141.798V80.3056H192.051C191.583 80.3056 191.207 79.9342 191.207 79.4724V68.0774C191.207 67.6156 191.583 67.2441 192.051 67.2441H246.186C246.653 67.2441 247.029 67.6156 247.029 68.0774V79.4724C247.029 79.9342 246.653 80.3056 246.186 80.3056H227.178V141.798C227.178 142.26 226.802 142.632 226.335 142.632H211.902Z" fill="black"/>
    <path d="M246.184 68.0672V79.4622H226.333V141.798H211.9V79.4622H192.049V68.0672H246.184ZM246.184 66.3906H192.049C191.114 66.3906 190.352 67.1436 190.352 68.0672V79.4622C190.352 80.3859 191.114 81.1388 192.049 81.1388H210.202V141.798C210.202 142.722 210.965 143.475 211.9 143.475H226.333C227.268 143.475 228.031 142.722 228.031 141.798V81.1388H246.184C247.119 81.1388 247.881 80.3859 247.881 79.4622V68.0672C247.881 67.1436 247.119 66.3906 246.184 66.3906Z" fill="white"/>
    <path d="M213.028 142.866C212.622 142.866 212.296 142.545 212.296 142.143V89.4154H196.013C195.607 89.4154 195.281 89.0942 195.281 88.6926V78.924C195.281 78.5224 195.607 78.2012 196.013 78.2012H242.433C242.84 78.2012 243.165 78.5224 243.165 78.924V88.6926C243.165 89.0942 242.84 89.4154 242.433 89.4154H226.15V142.143C226.15 142.545 225.825 142.866 225.418 142.866H213.028Z" fill="black"/>
    <path d="M242.435 78.9125V88.681H225.41V142.132H213.03V88.6911H196.004V78.9225H242.435V78.9125ZM242.435 77.4668H196.015C195.201 77.4668 194.551 78.1194 194.551 78.9125V88.681C194.551 89.4842 195.212 90.1267 196.015 90.1267H211.566V142.122C211.566 142.925 212.227 143.568 213.03 143.568H225.41C226.223 143.568 226.873 142.915 226.873 142.122V90.1267H242.425C243.238 90.1267 243.888 89.4741 243.888 88.681V78.9125C243.898 78.1093 243.248 77.4668 242.435 77.4668Z" fill="white"/>
    <path d="M214.159 143.085C213.813 143.085 213.539 142.814 213.539 142.473V98.5195H199.97C199.624 98.5195 199.35 98.2485 199.35 97.9071V89.755C199.35 89.4136 199.624 89.1426 199.97 89.1426H238.675C239.021 89.1426 239.295 89.4136 239.295 89.755V97.9071C239.295 98.2485 239.021 98.5195 238.675 98.5195H225.106V142.473C225.106 142.814 224.832 143.085 224.486 143.085H214.159Z" fill="black"/>
    <path d="M238.674 89.7542V97.9063H224.485V142.472H214.168V97.9063H199.979V89.7542H238.674ZM238.674 88.5293H199.969C199.288 88.5293 198.729 89.0815 198.729 89.7542V97.9063C198.729 98.589 199.288 99.1311 199.969 99.1311H212.918V142.472C212.918 143.155 213.477 143.697 214.158 143.697H224.475C225.156 143.697 225.715 143.145 225.715 142.472V99.1311H238.664C239.345 99.1311 239.904 98.579 239.904 97.9063V89.7542C239.914 89.0815 239.365 88.5293 238.674 88.5293Z" fill="white"/>
    <path d="M215.296 143.306C215.011 143.306 214.788 143.085 214.788 142.804V107.625H203.932C203.647 107.625 203.424 107.405 203.424 107.123V100.598C203.424 100.317 203.647 100.096 203.932 100.096H234.923C235.207 100.096 235.431 100.317 235.431 100.598V107.123C235.431 107.405 235.207 107.625 234.923 107.625H224.068V142.804C224.068 143.085 223.844 143.306 223.559 143.306H215.296Z" fill="black"/>
    <path d="M234.923 100.598V107.123H223.56V142.804H215.296V107.123H203.932V100.598H234.923ZM234.923 99.5938H203.932C203.373 99.5938 202.916 100.046 202.916 100.598V107.123C202.916 107.676 203.373 108.127 203.932 108.127H214.28V142.804C214.28 143.356 214.737 143.808 215.296 143.808H223.56C224.119 143.808 224.576 143.356 224.576 142.804V108.127H234.923C235.482 108.127 235.94 107.676 235.94 107.123V100.598C235.94 100.046 235.482 99.5938 234.923 99.5938Z" fill="white"/>
    <path d="M369.158 145.502C350.344 145.502 335.474 138.424 324.974 124.449C314.576 110.624 309.301 93.3262 309.301 73.0462C309.301 52.8766 314.911 35.7591 325.97 22.1554C337.11 8.45133 352.021 1.50391 370.276 1.50391C388.674 1.50391 403.432 8.46134 414.145 22.1855C424.757 35.7892 430.134 53.0071 430.134 73.3574C430.134 94.7318 424.533 112.261 413.505 125.473C402.395 138.755 387.474 145.502 369.158 145.502ZM369.87 24.3541C349.328 24.3541 339.336 40.548 339.336 73.8494C339.336 89.983 342.009 102.342 347.264 110.574C352.458 118.696 359.685 122.652 369.362 122.652C377.961 122.652 385.045 119.218 391.022 112.171C396.978 105.133 399.997 92.011 399.997 73.1566C399.997 57.796 397.466 45.628 392.485 36.9739C387.586 28.4804 380.197 24.3541 369.87 24.3541Z" fill="black"/>
    <path d="M370.278 3.01188C388.268 3.01188 402.488 9.70832 412.937 23.1012C423.386 36.494 428.61 53.2501 428.61 73.3494C428.61 94.4627 423.183 111.51 412.327 124.501C401.472 137.493 387.079 143.988 369.159 143.988C350.762 143.988 336.441 137.171 326.195 123.547C315.949 109.924 310.827 93.0873 310.827 73.0482C310.827 53.1397 316.275 36.494 327.161 23.1012C338.047 9.70832 352.419 3.01188 370.278 3.01188ZM369.363 124.16C378.358 124.16 385.961 120.485 392.192 113.136C398.412 105.787 401.523 92.4648 401.523 73.1587C401.523 57.4667 398.951 45.1481 393.808 36.2329C388.665 27.3178 380.686 22.8602 369.871 22.8602C348.495 22.8602 337.813 39.8573 337.813 73.8614C337.813 90.3666 340.537 102.866 345.975 111.39C351.423 119.893 359.219 124.16 369.363 124.16ZM370.278 0C351.535 0 336.227 7.13817 324.782 21.2137C313.5 35.0885 307.777 52.5373 307.777 73.0482C307.777 93.6596 313.154 111.249 323.745 125.345C334.55 139.711 349.827 147 369.159 147C387.953 147 403.271 140.073 414.675 126.419C425.937 112.936 431.66 95.0751 431.66 73.3494C431.66 52.6578 426.171 35.1286 415.356 21.2639C404.338 7.15824 389.173 0 370.278 0ZM369.363 121.148C360.256 121.148 353.445 117.423 348.556 109.773C343.454 101.782 340.862 89.7039 340.862 73.8514C340.862 41.554 350.356 25.8621 369.871 25.8621C379.598 25.8621 386.561 29.7373 391.165 37.7188C396.014 46.1421 398.473 58.0591 398.473 73.1486C398.473 91.6416 395.576 104.442 389.854 111.199C384.182 117.895 377.484 121.148 369.363 121.148Z" fill="white"/>
    <path d="M369.196 139.782C351.876 139.782 338.185 133.266 328.519 120.405C318.944 107.675 314.096 91.762 314.096 73.0884C314.096 54.5251 319.259 38.7629 329.444 26.2435C339.7 13.6238 353.421 7.22852 370.223 7.22852C387.167 7.22852 400.746 13.6338 410.606 26.2636C420.373 38.783 425.323 54.6255 425.323 73.3695C425.323 93.0371 420.17 109.181 410.016 121.339C399.791 133.567 386.059 139.782 369.196 139.782ZM369.857 28.2816C350.951 28.2816 341.763 43.1803 341.763 73.8313C341.763 88.6799 344.223 100.045 349.061 107.625C353.838 115.104 360.486 118.739 369.389 118.739C377.297 118.739 383.823 115.586 389.311 109.09C394.79 102.615 397.575 90.5372 397.575 73.1887C397.575 59.053 395.247 47.8488 390.663 39.8974C386.16 32.0765 379.35 28.2816 369.857 28.2816Z" fill="black"/>
    <path d="M370.226 8.62301C386.783 8.62301 399.875 14.7874 409.49 27.116C419.106 39.4447 423.913 54.8655 423.913 73.3685C423.913 92.7952 418.923 108.487 408.931 120.444C398.94 132.401 385.696 138.385 369.199 138.385C352.265 138.385 339.092 132.11 329.66 119.571C320.227 107.031 315.511 91.5302 315.511 73.0874C315.511 54.7651 320.522 39.4447 330.544 27.116C340.566 14.7874 353.8 8.62301 370.226 8.62301ZM369.392 120.123C377.666 120.123 384.669 116.74 390.402 109.983C396.124 103.216 398.99 90.9579 398.99 73.1878C398.99 58.7408 396.622 47.4161 391.896 39.2037C387.159 30.9913 379.821 26.8951 369.86 26.8951C350.192 26.8951 340.353 42.5469 340.353 73.8404C340.353 89.0303 342.853 100.536 347.864 108.377C352.875 116.198 360.051 120.123 369.392 120.123ZM370.226 5.83203C352.967 5.83203 338.879 12.408 328.339 25.3691C317.951 38.1496 312.686 54.2029 312.686 73.0874C312.686 92.0623 317.636 108.256 327.383 121.227C337.334 134.46 351.401 141.166 369.189 141.166C386.488 141.166 400.586 134.791 411.096 122.211C421.464 109.802 426.729 93.3574 426.729 73.3585C426.729 54.3133 421.677 38.1797 411.716 25.4093C401.593 12.418 387.627 5.83203 370.226 5.83203ZM369.392 117.332C361.017 117.332 354.756 113.908 350.263 106.871C345.567 99.5217 343.178 88.3978 343.178 73.8203C343.178 44.1131 351.91 29.6661 369.86 29.6661C378.804 29.6661 385.208 33.2301 389.446 40.5691C393.908 48.3096 396.175 59.283 396.175 73.1778C396.175 90.1949 393.502 101.971 388.247 108.186C383.022 114.34 376.853 117.332 369.392 117.332Z" fill="white"/>
    <path d="M369.249 134.047C353.424 134.047 340.922 128.093 332.089 116.347C323.348 104.721 318.916 90.1736 318.916 73.1263C318.916 56.1694 323.632 41.7726 332.933 30.3275C342.304 18.802 354.837 12.959 370.195 12.959C385.675 12.959 398.086 18.8121 407.091 30.3476C416.015 41.7827 420.538 56.2598 420.538 73.3773C420.538 91.3482 415.832 106.096 406.552 117.2C397.201 128.384 384.648 134.047 369.249 134.047ZM369.839 32.1949C352.58 32.1949 344.184 45.7986 344.184 73.789C344.184 87.3525 346.431 97.7334 350.852 104.651C355.213 111.478 361.281 114.791 369.412 114.791C376.639 114.791 382.585 111.909 387.606 105.986C392.617 100.073 395.148 89.0391 395.148 73.1966C395.148 60.2857 393.024 50.0554 388.836 42.7867C384.73 35.6686 378.519 32.1949 369.839 32.1949Z" fill="black"/>
    <path d="M370.183 14.2359C385.308 14.2359 397.261 19.8681 406.053 31.1225C414.835 42.3869 419.226 56.4625 419.226 73.3692C419.226 91.1192 414.662 105.456 405.535 116.379C396.407 127.302 384.312 132.764 369.248 132.764C353.778 132.764 341.744 127.031 333.124 115.576C324.505 104.121 320.206 89.9647 320.206 73.1182C320.206 56.3822 324.779 42.3869 333.938 31.1225C343.085 19.8681 355.171 14.2359 370.183 14.2359ZM369.411 116.088C376.973 116.088 383.366 112.996 388.601 106.821C393.836 100.647 396.448 89.4426 396.448 73.2085C396.448 60.0065 394.283 49.6657 389.963 42.1661C385.643 34.6665 378.935 30.9217 369.838 30.9217C351.867 30.9217 342.882 45.2181 342.882 73.8009C342.882 87.6757 345.169 98.1871 349.743 105.355C354.327 112.504 360.883 116.088 369.411 116.088ZM370.183 11.6758C354.419 11.6758 341.54 17.6794 331.905 29.5262C322.411 41.2022 317.604 55.8701 317.604 73.1282C317.604 90.4566 322.127 105.265 331.041 117.122C340.128 129.209 352.985 135.344 369.248 135.344C385.064 135.344 397.942 129.521 407.547 118.025C417.02 106.681 421.828 91.6613 421.828 73.3892C421.828 55.9806 417.213 41.2424 408.106 29.5764C398.847 17.6895 386.08 11.6758 370.183 11.6758ZM369.411 113.528C361.767 113.528 356.055 110.405 351.949 103.98C347.659 97.2735 345.484 87.1134 345.484 73.8009C345.484 46.6739 353.453 33.4818 369.838 33.4818C378 33.4818 383.854 36.7347 387.707 43.4311C391.782 50.499 393.846 60.5185 393.846 73.2085C393.846 88.7499 391.406 99.5023 386.609 105.175C381.852 110.797 376.231 113.528 369.411 113.528Z" fill="white"/>
    <path d="M369.294 128.325C354.962 128.325 343.639 122.933 335.64 112.291C327.722 101.76 323.707 88.5978 323.707 73.1569C323.707 57.8063 327.976 44.7649 336.402 34.404C344.889 23.9628 356.243 18.6719 370.148 18.6719C384.164 18.6719 395.406 23.9728 403.558 34.424C411.638 44.7849 415.734 57.8866 415.734 73.3878C415.734 89.662 411.476 103.015 403.07 113.064C394.603 123.194 383.239 128.325 369.294 128.325ZM369.833 36.1207C354.21 36.1207 346.617 48.4393 346.617 73.7693C346.617 86.0477 348.65 95.4448 352.655 101.71C356.599 107.884 362.098 110.886 369.446 110.886C375.982 110.886 381.369 108.275 385.912 102.914C390.446 97.5632 392.743 87.5738 392.743 73.2372C392.743 61.5511 390.822 52.2945 387.031 45.7086C383.31 39.2531 377.679 36.1207 369.833 36.1207Z" fill="black"/>
    <path d="M370.147 19.8451C383.838 19.8451 394.663 24.9452 402.611 35.1354C410.56 45.3256 414.544 58.0759 414.544 73.3863C414.544 89.4497 410.418 102.431 402.154 112.32C393.89 122.209 382.943 127.159 369.303 127.159C355.297 127.159 344.401 121.968 336.604 111.597C328.808 101.226 324.905 88.4156 324.905 73.1554C324.905 58.0057 329.052 45.3357 337.336 35.1354C345.61 24.9452 356.557 19.8451 370.147 19.8451ZM369.445 112.049C376.286 112.049 382.08 109.258 386.816 103.656C391.553 98.0637 393.921 87.9237 393.921 73.2257C393.921 61.2786 391.959 51.9116 388.056 45.1248C384.143 38.3381 378.065 34.9447 369.832 34.9447C353.569 34.9447 345.437 47.8857 345.437 73.7678C345.437 86.3274 347.511 95.845 351.658 102.331C355.795 108.816 361.731 112.049 369.445 112.049ZM370.147 17.5059C355.866 17.5059 344.207 22.9473 335.486 33.6696C326.887 44.2413 322.537 57.5238 322.537 73.1554C322.537 88.8474 326.633 102.25 334.704 112.993C342.937 123.946 354.585 129.498 369.303 129.498C383.625 129.498 395.293 124.217 403.984 113.816C412.562 103.545 416.923 89.9417 416.923 73.3863C416.923 57.6241 412.745 44.2715 404.502 33.7098C396.096 22.9574 384.539 17.5059 370.147 17.5059ZM369.445 109.71C362.534 109.71 357.37 106.889 353.65 101.076C349.767 95.0016 347.806 85.8154 347.806 73.7678C347.806 49.221 355.012 37.2939 369.832 37.2939C377.221 37.2939 382.506 40.2355 385.993 46.2894C389.682 52.6847 391.553 61.7505 391.553 73.2358C391.553 87.3013 389.347 97.0297 384.997 102.16C380.697 107.24 375.615 109.71 369.445 109.71Z" fill="white"/>
    <path d="M369.331 122.606C356.494 122.606 346.35 117.777 339.194 108.249C332.1 98.8218 328.512 87.0252 328.512 73.2007C328.512 59.4464 332.333 47.7703 339.875 38.4937C347.478 29.1469 357.643 24.4082 370.094 24.4082C382.647 24.4082 392.709 29.1569 400.017 38.5138C407.254 47.7904 410.924 59.5268 410.924 73.4115C410.924 87.9891 407.112 99.9362 399.58 108.952C392.008 118.008 381.823 122.606 369.331 122.606ZM369.819 40.0499C355.843 40.0499 349.044 51.0734 349.044 73.7529C349.044 84.7462 350.863 93.1595 354.441 98.7616C357.968 104.283 362.887 106.974 369.474 106.974C375.328 106.974 380.146 104.645 384.202 99.8459C388.257 95.057 390.311 86.1217 390.311 73.281C390.311 62.8198 388.593 54.5271 385.198 48.6438C381.874 42.851 376.843 40.0499 369.819 40.0499Z" fill="black"/>
    <path d="M370.093 25.4601C382.351 25.4601 392.048 30.0282 399.163 39.1542C406.288 48.2802 409.846 59.6952 409.846 73.3993C409.846 87.7861 406.146 99.4019 398.746 108.257C391.347 117.112 381.538 121.539 369.331 121.539C356.798 121.539 347.03 116.891 340.047 107.604C333.065 98.3176 329.578 86.8423 329.578 73.1884C329.578 59.6249 333.288 48.2701 340.708 39.1441C348.128 30.0282 357.926 25.4601 370.093 25.4601ZM369.473 108.026C375.602 108.026 380.786 105.526 385.024 100.516C389.263 95.5065 391.387 86.4307 391.387 73.2688C391.387 62.5665 389.639 54.1835 386.132 48.1095C382.626 42.0355 377.188 38.9935 369.819 38.9935C355.253 38.9935 347.976 50.5792 347.976 73.7507C347.976 84.995 349.826 93.5187 353.546 99.3216C357.245 105.124 362.561 108.026 369.473 108.026ZM370.093 23.3418C357.296 23.3418 346.847 28.211 339.041 37.829C331.337 47.2963 327.434 59.2033 327.434 73.1985C327.434 87.2539 331.103 99.2614 338.33 108.879C345.709 118.688 356.138 123.668 369.331 123.668C382.158 123.668 392.617 118.939 400.403 109.612C408.087 100.406 411.99 88.2278 411.99 73.3993C411.99 59.2836 408.25 47.3264 400.86 37.859C393.349 28.231 383.002 23.3418 370.093 23.3418ZM369.473 105.908C363.293 105.908 358.668 103.388 355.355 98.1871C351.879 92.7557 350.12 84.5333 350.12 73.7407C350.12 51.774 356.564 41.1019 369.819 41.1019C376.425 41.1019 381.152 43.7323 384.272 49.1436C387.576 54.8662 389.243 62.9882 389.243 73.2587C389.243 85.8384 387.271 94.5528 383.378 99.1509C379.536 103.699 374.982 105.908 369.473 105.908Z" fill="white"/>
    <path d="M369.382 116.88C358.038 116.88 349.084 112.613 342.751 104.189C336.49 95.8565 333.309 85.4455 333.309 73.2273C333.309 61.0794 336.683 50.7686 343.351 42.5663C350.069 34.3037 359.045 30.1172 370.052 30.1172C381.142 30.1172 390.035 34.3137 396.49 42.5763C402.883 50.7686 406.126 61.1396 406.126 73.3979C406.126 86.2687 402.751 96.8304 396.104 104.792C389.405 112.813 380.42 116.88 369.382 116.88ZM369.809 43.9618C357.469 43.9618 351.472 53.6902 351.472 73.7092C351.472 83.4175 353.078 90.8367 356.239 95.7863C359.36 100.666 363.69 103.035 369.504 103.035C374.667 103.035 378.916 100.977 382.504 96.74C386.082 92.5134 387.901 84.6222 387.901 73.2875C387.901 64.0511 386.386 56.7322 383.388 51.5317C380.44 46.4416 376.009 43.9618 369.809 43.9618Z" fill="black"/>
    <path d="M370.051 31.0713C380.876 31.0713 389.434 35.1072 395.726 43.159C402.018 51.2208 405.158 61.3006 405.158 73.4084C405.158 86.1185 401.896 96.379 395.36 104.2C388.824 112.021 380.164 115.926 369.38 115.926C358.311 115.926 349.692 111.83 343.522 103.628C337.352 95.4252 334.273 85.2953 334.273 73.2276C334.273 61.2504 337.546 51.2208 344.101 43.159C350.647 35.1072 359.307 31.0713 370.051 31.0713ZM369.502 103.989C374.92 103.989 379.493 101.78 383.244 97.3528C386.985 92.9253 388.865 84.9137 388.865 73.2879C388.865 63.8406 387.32 56.4314 384.22 51.0602C381.13 45.689 376.322 43.0084 369.807 43.0084C356.939 43.0084 350.515 53.2388 350.515 73.7095C350.515 83.6387 352.152 91.1684 355.435 96.2987C358.697 101.429 363.393 103.989 369.502 103.989ZM370.051 29.1738C358.748 29.1738 349.509 33.4808 342.607 41.9743C335.807 50.3474 332.352 60.8588 332.352 73.2276C332.352 85.6466 335.594 96.2585 341.977 104.752C348.503 113.426 357.711 117.824 369.38 117.824C380.713 117.824 389.953 113.647 396.844 105.405C403.634 97.2725 407.079 86.51 407.079 73.4084C407.079 60.9392 403.776 50.3674 397.25 42.0044C390.603 33.4908 381.455 29.1738 370.051 29.1738ZM369.502 102.092C364.054 102.092 359.978 99.8627 357.051 95.2846C353.981 90.4957 352.436 83.2371 352.436 73.7095C352.436 54.3331 358.118 44.9059 369.807 44.9059C375.631 44.9059 379.798 47.225 382.553 52.0039C385.47 57.0538 386.944 64.2221 386.944 73.2879C386.944 84.3917 385.206 92.082 381.77 96.138C378.375 100.144 374.361 102.092 369.502 102.092Z" fill="white"/>
    <path d="M369.425 111.161C359.576 111.161 351.8 107.456 346.312 100.147C340.874 92.9187 338.119 83.873 338.119 73.2712C338.119 62.7296 341.057 53.7742 346.84 46.6562C352.664 39.4879 360.47 35.8535 370.015 35.8535C379.64 35.8535 387.365 39.4979 392.966 46.6762C398.515 53.7843 401.331 62.7899 401.331 73.4318C401.331 84.6059 398.404 93.7721 392.63 100.679C386.816 107.627 379.01 111.161 369.425 111.161ZM369.801 47.8911C359.108 47.8911 353.904 56.3343 353.904 73.6928C353.904 82.106 355.297 88.5515 358.041 92.8484C360.745 97.0751 364.506 99.1332 369.537 99.1332C374.009 99.1332 377.699 97.3462 380.809 93.6717C383.909 90.0072 385.485 83.1602 385.485 73.3314C385.485 65.3198 384.163 58.9748 381.571 54.457C379.02 50.0395 375.168 47.8911 369.801 47.8911Z" fill="black"/>
    <path d="M370.003 36.6861C379.395 36.6861 386.825 40.1799 392.283 47.1775C397.741 54.1751 400.465 62.9196 400.465 73.421C400.465 84.4445 397.629 93.3496 391.958 100.136C386.286 106.923 378.775 110.317 369.413 110.317C359.808 110.317 352.327 106.763 346.981 99.6445C341.634 92.5264 338.951 83.7317 338.951 73.2704C338.951 62.8794 341.797 54.1751 347.479 47.1875C353.181 40.1899 360.682 36.6861 370.003 36.6861ZM369.535 99.9557C374.231 99.9557 378.205 98.0382 381.458 94.203C384.711 90.3679 386.337 83.4104 386.337 73.3206C386.337 65.1182 384.995 58.6929 382.312 54.0346C379.628 49.3762 375.461 47.047 369.81 47.047C358.649 47.047 353.069 55.922 353.069 73.6821C353.069 82.2961 354.492 88.8318 357.338 93.2793C360.164 97.7369 364.23 99.9557 369.535 99.9557ZM370.003 35.0195C360.184 35.0195 352.165 38.7643 346.168 46.1334C340.262 53.4021 337.264 62.528 337.264 73.2704C337.264 84.053 340.079 93.2693 345.629 100.638C351.29 108.168 359.3 111.993 369.423 111.993C379.273 111.993 387.292 108.369 393.269 101.211C399.164 94.1528 402.163 84.806 402.163 73.4311C402.163 62.5983 399.286 53.4321 393.625 46.1635C387.862 38.7643 379.913 35.0195 370.003 35.0195ZM369.535 98.2891C364.819 98.2891 361.292 96.3615 358.751 92.3959C356.098 88.2395 354.746 81.9446 354.746 73.6921C354.746 56.8958 359.666 48.7336 369.789 48.7336C374.831 48.7336 378.439 50.7415 380.818 54.8778C383.338 59.2551 384.619 65.4696 384.619 73.3307C384.619 82.9586 383.115 89.625 380.137 93.1388C377.209 96.6025 373.743 98.2891 369.535 98.2891Z" fill="white"/>
    <path d="M369.466 105.425C361.121 105.425 354.524 102.282 349.859 96.0876C345.244 89.9534 342.906 82.2933 342.906 73.2978C342.906 64.3625 345.397 56.7625 350.296 50.7287C355.236 44.6447 361.852 41.5625 369.953 41.5625C378.115 41.5625 384.671 44.6447 389.418 50.7387C394.124 56.7725 396.513 64.4027 396.513 73.4283C396.513 82.9057 394.033 90.6763 389.133 96.5294C384.214 102.443 377.597 105.425 369.466 105.425ZM369.781 51.8029C360.724 51.8029 356.323 58.9511 356.323 73.6491C356.323 80.7772 357.502 86.2388 359.82 89.8732C362.107 93.4473 365.288 95.1942 369.547 95.1942C373.338 95.1942 376.459 93.6882 379.091 90.5759C381.724 87.4737 383.055 81.6708 383.055 73.3479C383.055 66.5612 381.937 61.18 379.742 57.3649C377.587 53.6201 374.334 51.8029 369.781 51.8029Z" fill="black"/>
    <path d="M369.963 42.2973C377.921 42.2973 384.223 45.2589 388.848 51.1924C393.473 57.1258 395.79 64.535 395.79 73.4401C395.79 82.787 393.391 90.3268 388.584 96.0795C383.776 101.832 377.413 104.703 369.475 104.703C361.333 104.703 354.991 101.692 350.457 95.6578C345.924 89.624 343.657 82.1746 343.657 73.2996C343.657 64.4848 346.066 57.1157 350.884 51.1924C355.702 45.269 362.065 42.2973 369.963 42.2973ZM369.556 95.9289C373.54 95.9289 376.905 94.3025 379.659 91.0496C382.414 87.7968 383.786 81.9035 383.786 73.3498C383.786 66.4024 382.648 60.9508 380.371 57.0053C378.094 53.0597 374.567 51.0819 369.769 51.0819C360.306 51.0819 355.58 58.6116 355.58 73.661C355.58 80.9598 356.79 86.5017 359.199 90.2665C361.618 94.0414 365.074 95.9289 369.556 95.9289ZM369.963 40.8516C361.628 40.8516 354.828 44.024 349.736 50.2888C344.725 56.4531 342.184 64.1937 342.184 73.3097C342.184 82.4557 344.572 90.2665 349.278 96.5312C354.086 102.926 360.876 106.169 369.475 106.169C377.83 106.169 384.64 103.087 389.712 97.0132C394.713 91.0195 397.254 83.0982 397.254 73.4502C397.254 64.2639 394.814 56.4832 390.007 50.3189C385.107 44.0341 378.368 40.8516 369.963 40.8516ZM369.556 94.4731C365.572 94.4731 362.593 92.8467 360.449 89.4935C358.202 85.9796 357.064 80.6486 357.064 73.661C357.064 59.4449 361.221 52.5377 369.79 52.5377C374.049 52.5377 377.098 54.2344 379.11 57.7281C381.245 61.4328 382.332 66.6935 382.332 73.3498C382.332 81.502 381.062 87.1442 378.541 90.116C376.051 93.0475 373.113 94.4731 369.556 94.4731Z" fill="white"/>
    <path d="M369.513 99.7054C362.662 99.7054 357.245 97.1252 353.423 92.0351C349.642 87.0052 347.721 80.7104 347.721 73.3413C347.721 66.0024 349.764 59.7778 353.789 54.8283C357.844 49.8386 363.272 47.3086 369.92 47.3086C376.618 47.3086 381.995 49.8386 385.898 54.8383C389.76 59.7878 391.712 66.0525 391.712 73.4517C391.712 81.2224 389.679 87.6076 385.664 92.4166C381.619 97.2557 376.181 99.7054 369.513 99.7054ZM369.767 55.7318C362.357 55.7318 358.749 61.5849 358.749 73.6324C358.749 79.4755 359.715 83.9532 361.615 86.925C363.486 89.8565 366.088 91.2721 369.574 91.2721C372.674 91.2721 375.225 90.0372 377.38 87.4872C379.535 84.9471 380.622 80.1984 380.622 73.3715C380.622 67.8095 379.708 63.4021 377.909 60.2697C376.16 57.2177 373.487 55.7318 369.767 55.7318Z" fill="black"/>
    <path d="M369.918 47.9104C376.444 47.9104 381.607 50.3399 385.409 55.1991C389.2 60.0583 391.101 66.1423 391.101 73.4411C391.101 81.1013 389.129 87.2958 385.185 92.0144C381.241 96.733 376.017 99.0924 369.512 99.0924C362.834 99.0924 357.64 96.6226 353.92 91.6731C350.2 86.7235 348.34 80.6194 348.34 73.3407C348.34 66.1122 350.312 60.0683 354.265 55.2092C358.219 50.35 363.434 47.9104 369.918 47.9104ZM369.583 91.8939C372.846 91.8939 375.61 90.5587 377.867 87.8881C380.123 85.2176 381.252 80.3785 381.252 73.3709C381.252 67.6684 380.316 63.2007 378.456 59.9679C376.586 56.7352 373.689 55.1088 369.766 55.1088C362.011 55.1088 358.128 61.2832 358.128 73.6219C358.128 79.6155 359.114 84.1534 361.096 87.2456C363.068 90.3478 365.903 91.8939 369.583 91.8939ZM369.918 46.6855C363.068 46.6855 357.477 49.2958 353.3 54.4361C349.183 59.4961 347.1 65.8612 347.1 73.3407C347.1 80.8503 349.061 87.2657 352.924 92.4059C356.878 97.6567 362.458 100.317 369.522 100.317C376.383 100.317 381.983 97.7872 386.151 92.7975C390.257 87.8781 392.341 81.3724 392.341 73.4511C392.341 65.9114 390.338 59.5162 386.395 54.4562C382.359 49.3059 376.82 46.6855 369.918 46.6855ZM369.583 90.6691C366.33 90.6691 363.891 89.3439 362.143 86.6031C360.303 83.7217 359.368 79.3645 359.368 73.6318C359.368 61.9959 362.773 56.3437 369.766 56.3437C373.242 56.3437 375.732 57.7291 377.379 60.5803C379.127 63.6123 380.011 67.9193 380.011 73.3809C380.011 80.0572 378.965 84.6755 376.911 87.1051C374.889 89.5045 372.49 90.6691 369.583 90.6691Z" fill="white"/>
    <path d="M369.555 93.9808C364.198 93.9808 359.96 91.9629 356.971 87.9872C354.014 84.0517 352.52 79.1423 352.52 73.3795C352.52 67.6469 354.115 62.7777 357.256 58.9125C360.427 55.0071 364.676 53.0293 369.87 53.0293C375.115 53.0293 379.313 55.0071 382.362 58.9225C385.381 62.7878 386.905 67.6871 386.905 73.4699C386.905 79.5439 385.31 84.5336 382.179 88.2884C379.018 92.0633 374.769 93.9808 369.555 93.9808ZM369.758 59.6554C363.985 59.6554 361.18 64.2235 361.18 73.6105C361.18 78.1685 361.932 81.6522 363.416 83.9814C364.869 86.2603 366.902 87.3648 369.616 87.3648C372.025 87.3648 374.017 86.4009 375.694 84.4231C377.371 82.4453 378.225 78.7407 378.225 73.4197C378.225 69.0826 377.514 65.639 376.111 63.1994C374.728 60.81 372.655 59.6554 369.758 59.6554Z" fill="black"/>
    <path d="M369.87 53.5313C374.973 53.5313 378.998 55.4288 381.956 59.2237C384.913 63.0187 386.397 67.7674 386.397 73.4599C386.397 79.4435 384.863 84.2726 381.783 87.9571C378.703 91.6416 374.627 93.4789 369.545 93.4789C364.331 93.4789 360.275 91.5513 357.368 87.686C354.461 83.8208 353.008 79.052 353.008 73.3696C353.008 67.7273 354.553 63.0087 357.633 59.2137C360.743 55.4288 364.819 53.5313 369.87 53.5313ZM369.616 87.8567C372.167 87.8567 374.322 86.8126 376.081 84.7344C377.839 82.6562 378.723 78.8713 378.723 73.3997C378.723 68.9521 377.992 65.4584 376.538 62.9384C375.085 60.4185 372.818 59.1434 369.759 59.1434C363.701 59.1434 360.672 63.9625 360.672 73.6005C360.672 78.2789 361.444 81.8229 362.989 84.2324C364.534 86.6519 366.74 87.8567 369.616 87.8567ZM369.87 52.5273C364.514 52.5273 360.133 54.5654 356.86 58.5912C353.638 62.5569 352.012 67.5265 352.012 73.3796C352.012 79.2527 353.547 84.2726 356.565 88.2884C359.655 92.4047 364.026 94.4829 369.555 94.4829C374.932 94.4829 379.313 92.5051 382.576 88.5997C385.788 84.7545 387.424 79.6543 387.424 73.4599C387.424 67.5667 385.859 62.567 382.769 58.6113C379.618 54.5654 375.278 52.5273 369.87 52.5273ZM369.616 86.8528C367.096 86.8528 365.205 85.8187 363.853 83.7003C362.42 81.4615 361.698 78.0681 361.698 73.6005C361.698 64.5548 364.341 60.1474 369.769 60.1474C372.462 60.1474 374.393 61.2216 375.674 63.4303C377.036 65.7897 377.727 69.1429 377.727 73.3997C377.727 78.6002 376.914 82.1944 375.318 84.0818C373.733 85.9492 371.873 86.8528 369.616 86.8528Z" fill="white"/>
    <path d="M581.075 141.295C580.231 141.295 579.55 140.623 579.55 139.79V29.7955L544.178 140.241C543.975 140.864 543.386 141.295 542.725 141.295H529.633C528.973 141.295 528.383 140.874 528.18 140.241L492.605 29.7453V139.779C492.605 140.613 491.924 141.285 491.08 141.285H470.691C469.847 141.285 469.166 140.613 469.166 139.779V3.00985C469.166 2.17656 469.847 1.50391 470.691 1.50391H509.752C510.413 1.50391 511.002 1.92555 511.205 2.548L538.761 86.188L565.828 2.55805C566.032 1.9356 566.621 1.51393 567.282 1.51393H606.546C607.39 1.51393 608.071 2.18658 608.071 3.01987V139.8C608.071 140.633 607.39 141.306 606.546 141.306H581.075V141.295Z" fill="black"/>
    <path d="M606.545 3.01188V139.792H581.083V20.0491L542.734 139.792H529.642L491.099 20.0491V139.792H470.709V3.01188H509.771L538.78 91.0894L567.29 3.01188H606.545ZM606.545 0H567.29C565.969 0 564.79 0.843324 564.383 2.09828L538.759 81.2807L512.668 2.07821C512.261 0.833295 511.092 0 509.771 0H470.709C469.022 0 467.66 1.34531 467.66 3.01188V139.792C467.66 141.458 469.022 142.803 470.709 142.803H491.099C492.786 142.803 494.148 141.458 494.148 139.792V39.4557L526.745 140.695C527.152 141.95 528.321 142.793 529.652 142.793H542.744C544.075 142.793 545.254 141.94 545.651 140.685L578.044 39.546V139.781C578.044 141.448 579.406 142.793 581.093 142.793H606.555C608.242 142.793 609.604 141.448 609.604 139.781V3.01188C609.594 1.34531 608.222 0 606.545 0Z" fill="white"/>
    <path d="M577.838 139.91C577.055 139.91 576.425 139.287 576.425 138.514V36.9232L543.757 138.936C543.574 139.518 543.025 139.91 542.415 139.91H530.33C529.72 139.91 529.171 139.518 528.988 138.936L496.127 36.8731V138.514C496.127 139.287 495.497 139.91 494.714 139.91H475.88C475.097 139.91 474.467 139.287 474.467 138.514V12.1555C474.467 11.3825 475.097 10.76 475.88 10.76H511.963C512.573 10.76 513.111 11.1516 513.305 11.7238L538.756 88.9787L563.76 11.7238C563.943 11.1415 564.492 10.75 565.102 10.75H601.368C602.151 10.75 602.781 11.3725 602.781 12.1455V138.504C602.781 139.277 602.151 139.9 601.368 139.9H577.838V139.91Z" fill="black"/>
    <path d="M601.369 12.1562V138.515H577.849V27.8883L542.427 138.515H530.331L494.716 27.8883V138.515H475.881V12.1562H511.964L538.768 93.5273L565.103 12.1562H601.369ZM601.369 9.36523H565.093C563.863 9.36523 562.776 10.1483 562.4 11.3029L538.727 84.4415L514.627 11.2929C514.251 10.1483 513.164 9.36523 511.944 9.36523H475.861C474.306 9.36523 473.035 10.6101 473.035 12.1562V138.515C473.035 140.051 474.295 141.306 475.861 141.306H494.695C496.25 141.306 497.521 140.061 497.521 138.515V45.8693L527.617 139.368C527.993 140.523 529.081 141.316 530.311 141.316H542.396C543.626 141.316 544.714 140.523 545.09 139.368L575.003 45.9697V138.525C575.003 140.061 576.264 141.316 577.829 141.316H601.349C602.904 141.316 604.175 140.071 604.175 138.525V12.1562C604.195 10.6202 602.925 9.36523 601.369 9.36523Z" fill="white"/>
    <path d="M574.605 138.525C573.884 138.525 573.304 137.953 573.304 137.24V44.0424L543.34 137.632C543.167 138.164 542.669 138.525 542.1 138.525H531.011C530.442 138.525 529.944 138.164 529.771 137.632L499.634 44.0122V137.25C499.634 137.963 499.054 138.535 498.333 138.535H481.043C480.322 138.535 479.742 137.963 479.742 137.25V21.3026C479.742 20.5898 480.322 20.0176 481.043 20.0176H514.148C514.707 20.0176 515.205 20.379 515.388 20.9011L538.736 91.7807L561.676 20.9111C561.849 20.379 562.347 20.0176 562.916 20.0176H596.194C596.916 20.0176 597.495 20.5898 597.495 21.3026V137.25C597.495 137.963 596.916 138.535 596.194 138.535H574.605V138.525Z" fill="black"/>
    <path d="M596.196 21.3045V137.252H574.607V35.7515L542.102 137.252H531.013L498.334 35.7515V137.252H481.045V21.3045H514.15L538.748 95.969L562.908 21.3045H596.196ZM596.196 18.7344H562.918C561.79 18.7344 560.784 19.4572 560.449 20.5214L538.738 87.6061L516.63 20.5114C516.285 19.4572 515.289 18.7444 514.16 18.7444H481.055C479.622 18.7444 478.453 19.8889 478.453 21.3145V137.262C478.453 138.678 479.612 139.832 481.055 139.832H498.345C499.778 139.832 500.947 138.688 500.947 137.262V52.2967L528.553 138.045C528.899 139.109 529.895 139.832 531.033 139.832H542.122C543.251 139.832 544.257 139.109 544.602 138.045L572.036 52.3871V137.272C572.036 138.688 573.194 139.842 574.638 139.842H596.196C597.629 139.842 598.798 138.698 598.798 137.272V21.3045C598.788 19.8889 597.629 18.7344 596.196 18.7344Z" fill="white"/>
    <path d="M571.381 137.141C570.73 137.141 570.191 136.619 570.191 135.966V51.1718L542.921 136.328C542.768 136.81 542.311 137.141 541.792 137.141H531.699C531.181 137.141 530.724 136.81 530.571 136.328L503.148 51.1417V135.976C503.148 136.619 502.619 137.151 501.959 137.151H486.224C485.574 137.151 485.035 136.629 485.035 135.976V30.4501C485.035 29.8075 485.564 29.2754 486.224 29.2754H516.361C516.88 29.2754 517.327 29.6067 517.49 30.0886L538.733 94.5931L559.61 30.0886C559.763 29.6067 560.22 29.2754 560.739 29.2754H591.028C591.679 29.2754 592.217 29.7975 592.217 30.4501V135.976C592.217 136.619 591.689 137.151 591.028 137.151H571.381V137.141Z" fill="black"/>
    <path d="M591.026 30.4489V135.975H571.378V43.5907L541.79 135.975H531.697L501.956 43.5907V135.975H486.222V30.4489H516.359L538.741 98.407L560.736 30.4489H591.026ZM591.026 28.0996H560.736C559.699 28.0996 558.795 28.7622 558.48 29.726L538.72 90.7668L518.605 29.716C518.29 28.7522 517.375 28.0996 516.349 28.0996H486.222C484.911 28.0996 483.854 29.1437 483.854 30.4389V135.965C483.854 137.26 484.911 138.304 486.222 138.304H501.956C503.267 138.304 504.324 137.26 504.324 135.965V58.6803L529.43 136.678C529.745 137.652 530.66 138.314 531.687 138.314H541.78C542.817 138.314 543.731 137.652 544.036 136.678L568.989 58.7606V135.975C568.989 137.27 570.047 138.314 571.358 138.314H591.005C592.317 138.314 593.374 137.27 593.374 135.975V30.4489C593.394 29.1538 592.337 28.0996 591.026 28.0996Z" fill="white"/>
    <path d="M568.145 135.767C567.555 135.767 567.067 135.295 567.067 134.703V58.3015L542.5 135.024C542.358 135.466 541.941 135.767 541.474 135.767H532.377C531.909 135.767 531.492 135.466 531.35 135.024L506.641 58.2713V134.703C506.641 135.285 506.163 135.767 505.563 135.767H491.384C490.795 135.767 490.307 135.295 490.307 134.703V39.5876C490.307 39.0053 490.784 38.5234 491.384 38.5234H518.543C519.011 38.5234 519.417 38.8146 519.559 39.2563L538.709 97.3756L557.523 39.2563C557.665 38.8146 558.082 38.5234 558.55 38.5234H585.851C586.44 38.5234 586.928 38.9953 586.928 39.5876V134.703C586.928 135.285 586.451 135.767 585.851 135.767H568.145Z" fill="black"/>
    <path d="M585.851 39.5971V134.712H568.145V51.4338L541.484 134.702H532.387L505.584 51.4338V134.702H491.405V39.5871H518.564L538.74 100.839L558.56 39.5871H585.851V39.5971ZM585.851 37.4688H558.55C557.615 37.4688 556.792 38.0611 556.507 38.9445L538.709 93.9315L520.597 38.9345C520.312 38.061 519.489 37.4688 518.554 37.4688H491.395C490.205 37.4688 489.25 38.4225 489.25 39.5871V134.702C489.25 135.877 490.216 136.821 491.395 136.821H505.574C506.763 136.821 507.718 135.867 507.718 134.702V65.0977L530.334 135.345C530.619 136.228 531.442 136.821 532.377 136.821H541.474C542.409 136.821 543.243 136.218 543.517 135.345L565.99 65.168V134.702C565.99 135.877 566.956 136.821 568.135 136.821H585.841C587.03 136.821 587.986 135.867 587.986 134.702V39.5871C587.996 38.4225 587.04 37.4688 585.851 37.4688Z" fill="white"/>
    <path d="M564.913 134.383C564.384 134.383 563.958 133.961 563.958 133.439V65.4306L542.084 133.72C541.962 134.112 541.586 134.383 541.169 134.383H533.068C532.652 134.383 532.275 134.112 532.153 133.72L510.158 65.4005V133.439C510.158 133.961 509.731 134.383 509.203 134.383H496.578C496.05 134.383 495.623 133.961 495.623 133.439V48.7448C495.623 48.2227 496.05 47.8011 496.578 47.8011H520.759C521.176 47.8011 521.542 48.0621 521.674 48.4537L538.72 100.198L555.46 48.4537C555.592 48.0621 555.958 47.791 556.375 47.791H580.688C581.216 47.791 581.643 48.2127 581.643 48.7347V133.429C581.643 133.951 581.216 134.373 580.688 134.373H564.913V134.383Z" fill="black"/>
    <path d="M580.677 48.7351V133.429H564.912V59.2867L541.168 133.429H533.067L509.192 59.2867V133.429H496.567V48.7351H520.748L538.719 103.27L556.374 48.7351H580.677ZM580.677 46.8477H556.364C555.53 46.8477 554.789 47.3798 554.534 48.1628L538.698 97.1059L522.578 48.1529C522.324 47.3698 521.582 46.8477 520.748 46.8477H496.567C495.51 46.8477 494.646 47.701 494.646 48.7452V133.439C494.646 134.483 495.51 135.337 496.567 135.337H509.192C510.249 135.337 511.113 134.483 511.113 133.439V71.515L531.238 134.012C531.492 134.795 532.234 135.337 533.067 135.337H541.168C542.002 135.337 542.744 134.805 542.998 134.012L562.991 71.5752V133.439C562.991 134.483 563.855 135.337 564.912 135.337H580.677C581.734 135.337 582.598 134.483 582.598 133.439V48.7452C582.598 47.691 581.744 46.8477 580.677 46.8477Z" fill="white"/>
    <path d="M561.68 132.996C561.212 132.996 560.836 132.625 560.836 132.163V72.5578L541.666 132.424C541.555 132.775 541.229 133.006 540.864 133.006H533.759C533.393 133.006 533.068 132.775 532.956 132.424L513.674 72.5377V132.173C513.674 132.635 513.298 133.006 512.83 133.006H501.762C501.294 133.006 500.918 132.635 500.918 132.173V57.8899C500.918 57.4281 501.294 57.0566 501.762 57.0566H522.974C523.34 57.0566 523.666 57.2875 523.777 57.6389L538.719 103.008L553.396 57.6489C553.508 57.2976 553.833 57.0666 554.199 57.0666H575.524C575.991 57.0666 576.367 57.4381 576.367 57.8999V132.183C576.367 132.645 575.991 133.016 575.524 133.016H561.68V132.996Z" fill="black"/>
    <path d="M575.503 57.8794V132.163H561.68V67.136L540.853 132.163H533.748L512.81 67.136V132.163H501.741V57.8794H522.954L538.708 105.708L554.188 57.8794H575.503ZM575.503 56.2129H554.178C553.436 56.2129 552.786 56.6847 552.562 57.3775L538.678 100.267L524.549 57.3675C524.326 56.6747 523.675 56.2129 522.943 56.2129H501.731C500.796 56.2129 500.033 56.9658 500.033 57.8895V132.173C500.033 133.096 500.796 133.849 501.731 133.849H512.8C513.735 133.849 514.497 133.096 514.497 132.173V77.9286L532.122 132.685C532.345 133.377 532.996 133.849 533.738 133.849H540.843C541.585 133.849 542.235 133.377 542.459 132.685L559.972 77.9888V132.183C559.972 133.106 560.734 133.859 561.669 133.859H575.493C576.428 133.859 577.19 133.106 577.19 132.183V57.8995C577.2 56.9558 576.438 56.2129 575.503 56.2129Z" fill="white"/>
    <path d="M558.446 131.612C558.04 131.612 557.715 131.291 557.715 130.89V79.6775L541.248 131.11C541.157 131.412 540.872 131.612 540.547 131.612H534.438C534.123 131.612 533.839 131.412 533.737 131.11L517.169 79.6574V130.89C517.169 131.291 516.844 131.612 516.437 131.612H506.913C506.507 131.612 506.182 131.291 506.182 130.89V67.0276C506.182 66.626 506.507 66.3047 506.913 66.3047H525.148C525.463 66.3047 525.748 66.5055 525.85 66.8067L538.697 105.791L551.311 66.8067C551.413 66.5055 551.687 66.3047 552.012 66.3047H570.339C570.745 66.3047 571.07 66.626 571.07 67.0276V130.89C571.07 131.291 570.745 131.612 570.339 131.612H558.446Z" fill="black"/>
    <path d="M570.338 67.0258V130.888H558.445V74.9771L540.536 130.888H534.427L516.426 74.9771V130.888H506.902V67.0258H525.137L538.686 108.148L551.991 67.0258H570.338ZM570.338 65.5801H552.011C551.371 65.5801 550.812 65.9917 550.609 66.584L538.686 103.429L526.55 66.584C526.357 65.9917 525.788 65.5801 525.157 65.5801H506.923C506.11 65.5801 505.459 66.2327 505.459 67.0258V130.888C505.459 131.691 506.12 132.333 506.923 132.333H516.447C517.26 132.333 517.91 131.681 517.91 130.888V84.324L533.045 131.329C533.238 131.932 533.807 132.343 534.448 132.343H540.556C541.197 132.343 541.766 131.932 541.959 131.329L556.992 84.3742V130.888C556.992 131.691 557.653 132.333 558.456 132.333H570.348C571.161 132.333 571.811 131.681 571.811 130.888V67.0258C571.801 66.2226 571.141 65.5801 570.338 65.5801Z" fill="white"/>
    <path d="M555.216 130.233C554.87 130.233 554.596 129.962 554.596 129.62V86.8013L540.823 129.801C540.742 130.052 540.498 130.233 540.234 130.233H535.121C534.847 130.233 534.613 130.062 534.532 129.801L520.678 86.7812V129.62C520.678 129.962 520.403 130.233 520.058 130.233H512.089C511.743 130.233 511.469 129.962 511.469 129.62V76.1693C511.469 75.828 511.743 75.5569 512.089 75.5569H527.356C527.62 75.5569 527.864 75.7276 527.945 75.9786L538.689 108.587L549.239 75.9786C549.321 75.7276 549.564 75.5469 549.829 75.5469H565.167C565.512 75.5469 565.787 75.8179 565.787 76.1593V129.61C565.787 129.952 565.512 130.223 565.167 130.223H555.216V130.233Z" fill="black"/>
    <path d="M565.165 76.1702V129.621H555.215V82.8264L540.233 129.621H535.12L520.056 82.8264V129.621H512.088V76.1702H527.354L538.688 110.586L549.828 76.1702H565.165ZM565.165 74.9453H549.828C549.289 74.9453 548.811 75.2867 548.648 75.7987L538.677 106.59L528.533 75.7887C528.371 75.2867 527.893 74.9453 527.354 74.9453H512.088C511.407 74.9453 510.848 75.4975 510.848 76.1702V129.621C510.848 130.304 511.407 130.846 512.088 130.846H520.056C520.737 130.846 521.296 130.294 521.296 129.621V90.7377L533.931 129.993C534.093 130.505 534.571 130.846 535.11 130.846H540.222C540.761 130.846 541.239 130.494 541.412 129.993L553.964 90.7778V129.621C553.964 130.304 554.523 130.846 555.204 130.846H565.155C565.836 130.846 566.395 130.294 566.395 129.621V76.1702C566.405 75.4975 565.846 74.9453 565.165 74.9453Z" fill="white"/>
    <path d="M551.986 128.848C551.701 128.848 551.477 128.627 551.477 128.346V93.9301L540.408 128.507C540.337 128.717 540.144 128.858 539.921 128.858H535.804C535.58 128.858 535.387 128.717 535.316 128.507L524.176 93.9201V128.356C524.176 128.637 523.953 128.858 523.668 128.858H517.254C516.97 128.858 516.746 128.637 516.746 128.356V85.3262C516.746 85.0451 516.97 84.8242 517.254 84.8242H529.543C529.766 84.8242 529.96 84.9647 530.031 85.1756L538.67 111.409L547.158 85.1856C547.229 84.9748 547.422 84.8343 547.645 84.8343H559.995C560.28 84.8343 560.503 85.0551 560.503 85.3362V128.366C560.503 128.647 560.28 128.868 559.995 128.868H551.986V128.848Z" fill="black"/>
    <path d="M559.995 85.3145V128.344H551.986V90.6757L539.921 128.344H535.804L523.678 90.6757V128.344H517.264V85.3145H529.553L538.681 113.024L547.645 85.3145H559.995ZM559.995 84.3105H547.645C547.198 84.3105 546.812 84.5917 546.68 85.0133L538.67 109.761L530.519 85.0133C530.387 84.6017 529.99 84.3206 529.553 84.3206H517.264C516.705 84.3206 516.248 84.7724 516.248 85.3246V128.354C516.248 128.907 516.705 129.358 517.264 129.358H523.678C524.237 129.358 524.695 128.907 524.695 128.354V97.1513L534.839 128.656C534.971 129.077 535.367 129.358 535.804 129.358H539.921C540.368 129.358 540.754 129.077 540.886 128.656L550.969 97.1813V128.354C550.969 128.907 551.427 129.358 551.986 129.358H559.995C560.554 129.358 561.012 128.907 561.012 128.354V85.3246C561.012 84.7623 560.554 84.3105 559.995 84.3105Z" fill="white"/>
    <path d="M745.124 141.295C744.474 141.295 743.884 140.884 743.681 140.271L732.968 108.727H681.912L671.403 140.261C671.199 140.884 670.61 141.295 669.959 141.295H648.645C648.157 141.295 647.699 141.065 647.405 140.673C647.11 140.281 647.039 139.78 647.191 139.318L693.154 2.53799C693.357 1.92557 693.947 1.50391 694.597 1.50391H725.334C725.985 1.50391 726.574 1.91553 726.778 2.52795L773.239 139.308C773.391 139.769 773.32 140.271 773.035 140.663C772.751 141.055 772.283 141.285 771.795 141.285H745.124V141.295ZM725.273 85.9772L707.181 31.3015L689.099 85.9772H725.273Z" fill="black"/>
    <path d="M725.344 3.01188L771.805 139.792H745.124L734.065 107.223H680.804L669.949 139.792H648.644L694.607 3.01188H725.344ZM686.994 87.4852H727.367L707.18 26.4544L686.994 87.4852ZM725.344 0H694.607C693.296 0 692.127 0.833288 691.71 2.06816L645.758 138.838C645.453 139.751 645.605 140.765 646.174 141.548C646.743 142.332 647.668 142.793 648.644 142.793H669.949C671.27 142.793 672.429 141.96 672.845 140.725L683.01 110.225H731.869L742.227 140.735C742.643 141.96 743.812 142.793 745.113 142.793H771.795C772.781 142.793 773.695 142.332 774.275 141.538C774.844 140.755 775.006 139.741 774.691 138.818L728.23 2.05812C727.814 0.823248 726.655 0 725.344 0ZM691.202 84.4733L707.19 36.1627L723.179 84.4733H691.202Z" fill="white"/>
    <path d="M742.227 140.808C741.617 140.808 741.078 140.427 740.885 139.855L730.995 110.73H683.843L674.136 139.845C673.943 140.417 673.404 140.798 672.794 140.798H653.126C652.669 140.798 652.242 140.587 651.978 140.216C651.714 139.855 651.643 139.383 651.785 138.961L694.231 12.6627C694.424 12.0905 694.963 11.709 695.573 11.709H723.961C724.571 11.709 725.11 12.0905 725.303 12.6627L768.207 138.971C768.349 139.393 768.278 139.865 768.014 140.226C767.749 140.587 767.322 140.808 766.865 140.808H742.227ZM723.88 89.7168L707.18 39.2476L690.49 89.7168H723.88Z" fill="black"/>
    <path d="M723.95 13.1035L766.854 139.412H742.226L732.011 109.333H682.826L672.804 139.412H653.126L695.561 13.1035H723.95ZM688.538 91.1113H725.821L707.179 34.7589L688.538 91.1113ZM723.95 10.3125H695.561C694.342 10.3125 693.264 11.0855 692.878 12.22L650.452 138.538C650.168 139.392 650.31 140.325 650.839 141.048C651.367 141.771 652.221 142.203 653.126 142.203H672.804C674.023 142.203 675.101 141.43 675.487 140.285L684.869 112.124H729.978L739.542 140.295C739.929 141.43 741.006 142.193 742.216 142.193H766.854C767.758 142.193 768.612 141.761 769.141 141.028C769.669 140.295 769.812 139.362 769.527 138.508L726.634 12.22C726.247 11.0755 725.17 10.3125 723.95 10.3125ZM692.431 88.3203L707.179 43.7344L721.938 88.3203H692.431Z" fill="white"/>
    <path d="M739.319 140.311C738.76 140.311 738.262 139.96 738.089 139.438L729.022 112.733H685.784L676.88 139.428C676.707 139.95 676.209 140.311 675.65 140.311H657.608C657.192 140.311 656.795 140.111 656.551 139.779C656.307 139.448 656.236 139.016 656.368 138.625L695.297 22.7878C695.47 22.2657 695.968 21.9043 696.527 21.9043H722.558C723.117 21.9043 723.615 22.2557 723.788 22.7777L763.144 138.625C763.276 139.016 763.215 139.448 762.971 139.779C762.727 140.111 762.331 140.311 761.914 140.311H739.319ZM722.497 93.4466L707.19 47.174L691.882 93.4466H722.497Z" fill="black"/>
    <path d="M722.568 23.1912L761.924 139.038H739.318L729.957 111.46H684.848L675.659 139.038H657.608L696.527 23.1912H722.568ZM690.082 94.7335H724.275L707.189 43.0496L690.082 94.7335ZM722.568 20.6211H696.527C695.409 20.6211 694.412 21.3339 694.057 22.378L655.138 138.225C654.873 139.008 655.005 139.872 655.493 140.534C655.981 141.197 656.764 141.598 657.597 141.598H675.639C676.757 141.598 677.753 140.886 678.109 139.831L686.718 114.01H728.077L736.848 139.842C737.204 140.886 738.19 141.588 739.308 141.588H761.903C762.737 141.588 763.519 141.187 764.007 140.524C764.495 139.852 764.627 138.988 764.363 138.205L725.027 22.378C724.672 21.3239 723.686 20.6211 722.568 20.6211ZM693.67 92.1634L707.189 51.3022L720.707 92.1634H693.67Z" fill="white"/>
    <path d="M736.422 139.831C735.914 139.831 735.456 139.509 735.294 139.027L727.05 114.731H687.725L679.634 139.017C679.471 139.499 679.024 139.82 678.506 139.82H662.09C661.714 139.82 661.348 139.64 661.125 139.339C660.901 139.037 660.84 138.646 660.962 138.284L696.364 32.9086C696.527 32.4267 696.974 32.1055 697.493 32.1055H721.175C721.684 32.1055 722.141 32.4267 722.304 32.9086L758.102 138.284C758.224 138.646 758.163 139.037 757.94 139.339C757.716 139.64 757.36 139.831 756.974 139.831H736.422ZM721.104 97.1822L707.189 55.1163L693.264 97.1822H721.104Z" fill="black"/>
    <path d="M721.176 33.279L756.975 138.655H736.422L727.905 113.566H686.861L678.496 138.655H662.091L697.493 33.279H721.176ZM691.628 98.3557H722.731L707.18 51.3402L691.628 98.3557ZM721.176 30.9297H697.493C696.467 30.9297 695.562 31.5722 695.247 32.536L659.834 137.922C659.591 138.635 659.712 139.418 660.16 140.03C660.607 140.643 661.318 141.004 662.081 141.004H678.496C679.523 141.004 680.427 140.351 680.753 139.398L688.579 115.915H726.187L734.166 139.408C734.491 140.361 735.396 141.004 736.412 141.004H756.964C757.727 141.004 758.448 140.643 758.885 140.03C759.333 139.418 759.455 138.635 759.211 137.922L723.422 32.536C723.097 31.5722 722.192 30.9297 721.176 30.9297ZM694.901 96.0165L707.19 58.89L719.468 96.0165H694.901Z" fill="white"/>
    <path d="M733.514 139.341C733.056 139.341 732.639 139.05 732.497 138.619L725.067 116.742H689.665L682.377 138.609C682.235 139.04 681.818 139.341 681.361 139.341H666.572C666.226 139.341 665.901 139.181 665.697 138.9C665.494 138.619 665.443 138.267 665.545 137.946L697.44 43.0314C697.583 42.5997 698 42.3086 698.457 42.3086H719.792C720.249 42.3086 720.666 42.5997 720.808 43.0314L753.049 137.946C753.161 138.267 753.1 138.629 752.907 138.9C752.704 139.181 752.378 139.341 752.033 139.341H733.514ZM719.721 100.93L707.188 63.0504L694.655 100.93H719.721Z" fill="black"/>
    <path d="M719.792 43.3706L752.033 138.285H733.514L725.84 115.686H688.882L681.351 138.285H666.572L698.457 43.3706H719.792ZM693.182 101.982H721.205L707.188 59.6348L693.182 101.982ZM719.792 41.2422H698.457C697.532 41.2422 696.709 41.8245 696.424 42.6979L664.529 137.612C664.315 138.255 664.417 138.968 664.824 139.52C665.23 140.072 665.87 140.403 666.562 140.403H681.34C682.265 140.403 683.089 139.821 683.384 138.948L690.427 117.804H724.295L731.481 138.958C731.776 139.821 732.589 140.403 733.514 140.403H752.033C752.724 140.403 753.375 140.072 753.771 139.52C754.168 138.968 754.279 138.255 754.066 137.612L721.825 42.6879C721.53 41.8245 720.707 41.2422 719.792 41.2422ZM696.14 99.8635L707.188 66.4617L718.237 99.8635H696.14Z" fill="white"/>
    <path d="M730.619 138.858C730.203 138.858 729.837 138.597 729.705 138.216L723.098 118.759H691.599L685.114 138.216C684.982 138.607 684.616 138.868 684.199 138.868H671.046C670.742 138.868 670.447 138.718 670.264 138.477C670.081 138.226 670.03 137.915 670.132 137.623L698.51 53.1702C698.642 52.7786 699.008 52.5176 699.425 52.5176H718.402C718.819 52.5176 719.184 52.7786 719.317 53.1601L748 137.613C748.102 137.905 748.051 138.226 747.868 138.467C747.685 138.718 747.401 138.858 747.085 138.858H730.619ZM718.331 104.663L707.191 70.9905L696.051 104.663H718.331Z" fill="black"/>
    <path d="M718.404 53.4619L747.087 137.915H730.621L723.791 117.806H690.91L684.211 137.915H671.049L699.427 53.4619H718.404ZM694.731 105.608H719.664L707.193 67.9391L694.731 105.608ZM718.404 51.5645H699.427C698.604 51.5645 697.862 52.0865 697.608 52.8596L669.229 137.313C669.036 137.895 669.138 138.528 669.493 139.019C669.849 139.511 670.429 139.803 671.049 139.803H684.201C685.035 139.803 685.766 139.281 686.021 138.497L692.292 119.693H722.409L728.792 138.507C729.056 139.281 729.788 139.803 730.611 139.803H747.087C747.707 139.803 748.287 139.511 748.643 139.009C748.998 138.518 749.1 137.875 748.907 137.303L720.223 52.8495C719.959 52.0765 719.227 51.5645 718.404 51.5645ZM697.374 103.71L707.193 74.0331L717.011 103.71H697.374Z" fill="white"/>
    <path d="M727.711 138.364C727.345 138.364 727.02 138.133 726.908 137.792L721.125 120.744H693.539L687.857 137.782C687.745 138.123 687.42 138.354 687.054 138.354H675.528C675.253 138.354 674.999 138.223 674.836 138.002C674.674 137.782 674.633 137.501 674.714 137.25L699.576 63.2676C699.688 62.9262 700.013 62.6953 700.379 62.6953H717.008C717.374 62.6953 717.699 62.9262 717.811 63.2676L742.947 137.25C743.039 137.501 742.988 137.782 742.836 138.002C742.683 138.223 742.419 138.354 742.145 138.354H727.711V138.364ZM716.947 108.396L707.2 78.9193L697.452 108.396H716.947Z" fill="black"/>
    <path d="M717.019 63.5396L742.155 137.521H727.722L721.745 119.902H692.929L687.054 137.521H675.528L700.39 63.5396H717.019ZM696.273 109.23H718.117L707.19 76.2297L696.273 109.23ZM717.019 61.873H700.39C699.658 61.873 699.008 62.3349 698.784 63.0176L673.922 136.999C673.749 137.511 673.841 138.074 674.156 138.505C674.471 138.937 674.989 139.198 675.528 139.198H687.054C687.786 139.198 688.437 138.736 688.66 138.044L694.149 121.579H720.515L726.106 138.054C726.339 138.736 726.98 139.198 727.712 139.198H742.145C742.694 139.198 743.202 138.937 743.517 138.505C743.832 138.064 743.924 137.511 743.751 136.999L718.625 63.0075C718.391 62.3248 717.74 61.873 717.019 61.873ZM698.611 107.563L707.2 81.6109L715.789 107.563H698.611Z" fill="white"/>
    <path d="M724.818 137.876C724.503 137.876 724.218 137.675 724.127 137.384L719.156 122.757H695.484L690.605 137.384C690.503 137.685 690.229 137.886 689.903 137.886H680.014C679.78 137.886 679.556 137.776 679.414 137.585C679.272 137.394 679.241 137.153 679.312 136.932L700.657 73.4119C700.759 73.1107 701.033 72.9199 701.359 72.9199H715.629C715.944 72.9199 716.229 73.1207 716.32 73.4119L737.899 136.922C737.97 137.143 737.94 137.384 737.798 137.575C737.655 137.766 737.442 137.876 737.198 137.876H724.818ZM715.558 112.135L707.193 86.8549L698.828 112.135H715.558Z" fill="black"/>
    <path d="M715.629 73.6312L737.208 137.152H724.818L719.685 122.032H694.945L689.903 137.152H680.013L701.358 73.6312H715.629ZM697.821 112.866H716.574L707.203 84.5242L697.821 112.866ZM715.629 72.1855H701.358C700.728 72.1855 700.169 72.5871 699.966 73.1795L678.621 136.7C678.469 137.142 678.55 137.624 678.824 138.005C679.099 138.387 679.546 138.608 680.013 138.608H689.903C690.534 138.608 691.103 138.206 691.296 137.614L696.002 123.488H718.617L723.415 137.624C723.618 138.216 724.177 138.618 724.807 138.618H737.198C737.665 138.618 738.113 138.397 738.387 138.015C738.661 137.634 738.733 137.152 738.59 136.71L717.022 73.1694C716.818 72.5871 716.259 72.1855 715.629 72.1855ZM699.844 111.41L707.193 89.1926L714.542 111.41H699.844Z" fill="white"/>
    <path d="M721.907 137.394C721.643 137.394 721.399 137.223 721.317 136.972L717.17 124.754H697.411L693.345 136.962C693.264 137.213 693.02 137.384 692.756 137.384H684.492C684.289 137.384 684.106 137.293 683.984 137.133C683.872 136.972 683.831 136.771 683.903 136.58L701.731 83.531C701.812 83.28 702.056 83.1094 702.32 83.1094H714.243C714.507 83.1094 714.751 83.28 714.832 83.531L732.854 136.58C732.915 136.771 732.884 136.972 732.772 137.133C732.661 137.293 732.467 137.384 732.264 137.384H721.907V137.394ZM714.172 115.879L707.199 94.7955L700.226 115.879H714.172Z" fill="black"/>
    <path d="M714.243 83.7209L732.264 136.77H721.907L717.618 124.14H696.964L692.756 136.77H684.492L702.32 83.7209H714.243ZM699.363 116.49H715.026L707.199 92.8168L699.363 116.49ZM714.243 82.4961H702.32C701.782 82.4961 701.314 82.8374 701.141 83.3394L683.313 136.389C683.191 136.76 683.252 137.172 683.486 137.493C683.72 137.814 684.096 138.005 684.492 138.005H692.756C693.295 138.005 693.772 137.664 693.935 137.162L697.869 125.375H716.733L720.738 137.172C720.911 137.674 721.378 138.005 721.917 138.005H732.264C732.661 138.005 733.037 137.814 733.271 137.493C733.504 137.172 733.565 136.76 733.443 136.389L715.412 83.3294C715.249 82.8374 714.772 82.4961 714.243 82.4961ZM701.08 115.265L707.199 96.7724L713.318 115.265H701.08Z" fill="white"/>
    <path d="M719.013 136.899C718.799 136.899 718.596 136.758 718.535 136.557L715.211 126.759H699.355L696.092 136.557C696.021 136.768 695.828 136.899 695.614 136.899H688.977C688.815 136.899 688.662 136.818 688.56 136.688C688.469 136.557 688.439 136.387 688.489 136.236L702.801 93.648C702.872 93.4472 703.065 93.3066 703.278 93.3066H712.853C713.067 93.3066 713.27 93.4472 713.331 93.648L727.795 136.236C727.845 136.387 727.825 136.557 727.723 136.688C727.632 136.818 727.469 136.899 727.307 136.899H719.013ZM712.782 119.61L707.202 102.724L701.622 119.61H712.782Z" fill="black"/>
    <path d="M712.854 93.8086L727.318 136.397H719.014L715.568 126.257H698.99L695.605 136.397H688.968L703.279 93.8086H712.854ZM700.911 120.112H713.484L707.203 101.107L700.911 120.112ZM712.854 92.8047H703.279C702.842 92.8047 702.456 93.0858 702.314 93.4974L688.002 136.085C687.901 136.387 687.952 136.728 688.145 136.989C688.338 137.25 688.643 137.401 688.968 137.401H695.605C696.042 137.401 696.429 137.12 696.571 136.708L699.722 127.261H714.836L718.048 136.718C718.19 137.13 718.577 137.401 719.014 137.401H727.318C727.643 137.401 727.948 137.25 728.141 136.979C728.334 136.718 728.385 136.377 728.284 136.075L713.82 93.4874C713.677 93.0858 713.291 92.8047 712.854 92.8047ZM702.314 119.108L707.203 104.34L712.092 119.108H702.314Z" fill="white"/>
</svg>