<svg width="65" height="68" viewBox="0 0 65 68" fill="none" xmlns="http://www.w3.org/2000/svg">
    <path d="M55.3877 66.0287C54.8574 66.0287 54.3801 65.7145 54.1679 65.2233L45.6647 45.3953H18.922L10.3393 65.2278C10.1272 65.7145 9.64984 66.0287 9.12391 66.0287H2.6979C2.25153 66.0287 1.83609 65.803 1.59302 65.4313C1.34994 65.0596 1.30575 64.5862 1.48253 64.1791L27.7081 2.96938C27.9158 2.48265 28.3976 2.16406 28.9279 2.16406H35.7959C36.3262 2.16406 36.8035 2.47823 37.0157 2.96497L63.3208 64.1746C63.4976 64.5862 63.4534 65.0552 63.2103 65.4313C62.9673 65.803 62.5474 66.0287 62.101 66.0287H55.3877ZM42.16 37.196L32.384 13.8502L22.4046 37.196H42.16Z" fill="black"/>
    <path d="M35.792 3.48697L62.0972 64.6966H55.3883L46.5403 44.0633H18.0519L9.12001 64.6966H2.69399L28.9196 3.48697H35.792ZM20.3943 38.5233H44.1538L32.3934 10.4473L20.3943 38.5233ZM35.792 0.832031H28.924C27.8633 0.832031 26.9043 1.46479 26.4888 2.43827L0.263242 63.6479C-0.0903222 64.4665 -0.00635079 65.409 0.484219 66.1568C0.97479 66.9046 1.80567 67.3516 2.69842 67.3516H9.12444C10.1807 67.3516 11.1353 66.7232 11.5596 65.7542L19.7976 46.7227H44.799L52.9575 65.7497C53.3774 66.7232 54.332 67.356 55.3927 67.356H62.1016C62.9943 67.356 63.8252 66.9091 64.3158 66.1613C64.8064 65.4135 64.8903 64.471 64.5368 63.6523L38.2272 2.43827C37.8073 1.46479 36.8483 0.832031 35.792 0.832031ZM24.4161 35.8684L32.3713 17.2528L40.1674 35.8684H24.4161Z" fill="#006CFF"/>
</svg>