<svg width="24" height="24" viewBox="0 0 24 24" fill="none" xmlns="http://www.w3.org/2000/svg">
    <g clip-path="url(#clip0_14_116)">
        <path d="M-6.25 3.125C-6.25 1.39911 -4.85089 0 -3.125 0H28.125C29.8509 0 31.25 1.39911 31.25 3.125V21.875C31.25 23.6009 29.8509 25 28.125 25H-3.125C-4.85089 25 -6.25 23.6009 -6.25 21.875V3.125Z" fill="#D8E3F3"/>
        <path d="M19.4061 9.50977H18.2667C17.9222 9.50977 17.6572 9.61691 17.4982 9.96512L15.3253 14.9741H16.8622C16.8622 14.9741 17.1272 14.3044 17.1802 14.1437C17.3392 14.1437 18.8496 14.1437 19.0616 14.1437C19.1146 14.3312 19.2471 14.9473 19.2471 14.9473H20.625L19.4061 9.50977ZM17.6042 13.0187C17.7367 12.6973 18.1872 11.4919 18.1872 11.4919C18.1872 11.5187 18.3197 11.1705 18.3726 10.983L18.4786 11.4651C18.4786 11.4651 18.7701 12.7776 18.8231 13.0455H17.6042V13.0187Z" fill="#3362AB"/>
        <path d="M15.4313 13.1797C15.4313 14.3047 14.4243 15.0547 12.8609 15.0547C12.1985 15.0547 11.5625 14.9208 11.218 14.76L11.43 13.5279L11.6155 13.6083C12.0925 13.8225 12.4105 13.9029 12.9934 13.9029C13.4174 13.9029 13.8679 13.7422 13.8679 13.3672C13.8679 13.1261 13.6824 12.9654 13.0994 12.6975C12.5429 12.4297 11.801 12.0011 11.801 11.2243C11.801 10.1529 12.8344 9.42969 14.2918 9.42969C14.8483 9.42969 15.3253 9.53683 15.6168 9.67076L15.4048 10.8493L15.2988 10.7422C15.0338 10.635 14.6893 10.5279 14.1859 10.5279C13.6294 10.5547 13.3644 10.7958 13.3644 11.01C13.3644 11.2511 13.6824 11.4386 14.1859 11.6797C15.0338 12.0815 15.4313 12.5368 15.4313 13.1797Z" fill="#3362AB"/>
        <path d="M2.5 9.56417L2.5265 9.45703H4.80537C5.12336 9.45703 5.36184 9.56417 5.44134 9.91239L5.94481 12.3231C5.44134 11.0374 4.2754 9.99275 2.5 9.56417Z" fill="#F9B50B"/>
        <path d="M9.15111 9.51018L6.84574 14.9477H5.28232L3.9574 10.3941C4.91134 11.0102 5.7063 11.9745 5.99778 12.6441L6.15678 13.2066L7.5877 9.4834H9.15111V9.51018Z" fill="#3362AB"/>
        <path d="M9.76058 9.4834H11.218L10.2905 14.9477H8.83313L9.76058 9.4834Z" fill="#3362AB"/>
    </g>
    <defs>
        <clipPath id="clip0_14_116">
            <rect width="37.5" height="25" fill="white" transform="translate(-6.25)"/>
        </clipPath>
    </defs>
</svg>
