<svg>

    <svg id="clock" width="16" height="16" viewBox="0 0 16 16" fill="none" xmlns="http://www.w3.org/2000/svg">
        <path d="M8 14.6667C11.6819 14.6667 14.6667 11.6819 14.6667 8C14.6667 4.3181 11.6819 1.33333 8 1.33333C4.3181 1.33333 1.33334 4.3181 1.33334 8C1.33334 11.6819 4.3181 14.6667 8 14.6667Z" stroke="var(--akcent-color)" stroke-width="1.5" stroke-linecap="round" stroke-linejoin="round"/>
        <path d="M8 4V8L10.6667 9.33333" stroke="var(--akcent-color)" stroke-width="1.5" stroke-linecap="square" stroke-linejoin="round"/>
    </svg>

    <svg id="place" width="16" height="16" viewBox="0 0 16 16" fill="none" xmlns="http://www.w3.org/2000/svg">
        <g clip-path="url(#clip0_30_45)">
            <path d="M14 6.66667C14 11.3333 8 15.3333 8 15.3333C8 15.3333 2 11.3333 2 6.66667C2 5.07537 2.63214 3.54925 3.75736 2.42403C4.88258 1.29881 6.4087 0.666672 8 0.666672C9.5913 0.666672 11.1174 1.29881 12.2426 2.42403C13.3679 3.54925 14 5.07537 14 6.66667Z" stroke="var(--akcent-color)" stroke-width="1.5" stroke-linecap="round"/>
            <path d="M8 8.66667C9.10457 8.66667 10 7.77124 10 6.66667C10 5.5621 9.10457 4.66667 8 4.66667C6.89543 4.66667 6 5.5621 6 6.66667C6 7.77124 6.89543 8.66667 8 8.66667Z" stroke="var(--akcent-color)" stroke-width="1.5" stroke-linecap="round" stroke-linejoin="round"/>
        </g>
        <defs>
            <clipPath id="clip0_30_45">
                <rect width="16" height="16" fill="white"/>
            </clipPath>
        </defs>
    </svg>

    <svg id="phone" width="16" height="16" viewBox="0 0 16 16" fill="none" xmlns="http://www.w3.org/2000/svg">
        <path d="M14.6666 11.28V13.28C14.6674 13.4657 14.6294 13.6494 14.555 13.8196C14.4806 13.9897 14.3715 14.1424 14.2347 14.2679C14.0979 14.3934 13.9364 14.489 13.7605 14.5485C13.5846 14.6079 13.3982 14.63 13.2133 14.6133C11.1619 14.3904 9.19131 13.6894 7.45997 12.5667C5.84919 11.5431 4.48353 10.1774 3.45998 8.56666C2.33329 6.82747 1.63214 4.84733 1.41331 2.78666C1.39665 2.60231 1.41856 2.41651 1.47764 2.24108C1.53673 2.06566 1.63169 1.90446 1.75649 1.76775C1.88128 1.63103 2.03318 1.5218 2.2025 1.44701C2.37183 1.37222 2.55487 1.33351 2.73998 1.33333H4.73998C5.06351 1.33015 5.37717 1.44472 5.62248 1.65569C5.8678 1.86666 6.02803 2.15963 6.07331 2.48C6.15772 3.12004 6.31428 3.74848 6.53998 4.35333C6.62967 4.59195 6.64908 4.85127 6.59591 5.10058C6.54274 5.3499 6.41922 5.57874 6.23997 5.76L5.39331 6.60666C6.34235 8.27569 7.72428 9.65763 9.39331 10.6067L10.24 9.76C10.4212 9.58076 10.6501 9.45723 10.8994 9.40406C11.1487 9.35089 11.408 9.3703 11.6466 9.46C12.2515 9.6857 12.8799 9.84225 13.52 9.92666C13.8438 9.97235 14.1396 10.1355 14.351 10.385C14.5624 10.6345 14.6748 10.953 14.6666 11.28Z" stroke="var(--akcent-color)" stroke-width="1.5" stroke-linecap="round"/>
    </svg>

    <svg id="search" width="20" height="20" viewBox="0 0 20 20" fill="none" xmlns="http://www.w3.org/2000/svg">
        <path d="M9.16667 15.8333C12.8486 15.8333 15.8333 12.8486 15.8333 9.16667C15.8333 5.48477 12.8486 2.5 9.16667 2.5C5.48477 2.5 2.5 5.48477 2.5 9.16667C2.5 12.8486 5.48477 15.8333 9.16667 15.8333Z" stroke="var(--akcent-color)" stroke-width="2" stroke-linecap="round" stroke-linejoin="round"/>
        <path d="M17.5 17.5L13.875 13.875" stroke="var(--akcent-color)" stroke-width="2" stroke-linecap="round" stroke-linejoin="round"/>
    </svg>

    <svg id="mark" width="24" height="24" viewBox="0 0 24 24" fill="none" xmlns="http://www.w3.org/2000/svg">
        <path d="M0 12C0 5.37258 5.37258 0 12 0C18.6274 0 24 5.37258 24 12C24 18.6274 18.6274 24 12 24C5.37258 24 0 18.6274 0 12Z" fill="#1D2A2A"/>
        <path d="M17.3728 8.39999L10.1728 15.6L6.90002 12.3273" stroke-width="2" stroke="#fff" stroke-linecap="square"/>
    </svg>

    <svg id="attention" width="64" height="64" viewBox="0 0 64 64" fill="none" xmlns="http://www.w3.org/2000/svg">
        <path d="M27.44 10.2933L4.85333 48C4.38764 48.8064 4.14124 49.7208 4.13863 50.652C4.13602 51.5833 4.3773 52.499 4.83846 53.308C5.29963 54.1171 5.96459 54.7913 6.76721 55.2636C7.56983 55.7358 8.48212 55.9897 9.41332 56H54.5866C55.5178 55.9897 56.4301 55.7358 57.2327 55.2636C58.0354 54.7913 58.7003 54.1171 59.1615 53.308C59.6226 52.499 59.8639 51.5833 59.8613 50.652C59.8587 49.7208 59.6123 48.8064 59.1466 48L36.56 10.2933C36.0846 9.50961 35.4152 8.86165 34.6165 8.41195C33.8178 7.96226 32.9166 7.72601 32 7.72601C31.0833 7.72601 30.1822 7.96226 29.3835 8.41195C28.5847 8.86165 27.9154 9.50961 27.44 10.2933V10.2933Z" stroke="#fff" stroke-width="3" stroke-linecap="round" stroke-linejoin="round"/>
        <path d="M32 24V34.6667" stroke="#fff" stroke-width="3" stroke-linecap="round" stroke-linejoin="round"/>
        <path d="M32 45.3333H32.01" stroke="#fff" stroke-width="3" stroke-linecap="round" stroke-linejoin="round"/>
    </svg>

    <svg id="file" width="70" height="70" viewBox="0 0 70 70" fill="none" xmlns="http://www.w3.org/2000/svg">
        <rect width="70" height="70" fill="var(--akcent-second)"/>
        <path d="M38.3333 18.3334H25C24.116 18.3334 23.2681 18.6846 22.643 19.3097C22.0179 19.9348 21.6667 20.7827 21.6667 21.6667V48.3334C21.6667 49.2174 22.0179 50.0653 22.643 50.6904C23.2681 51.3155 24.116 51.6667 25 51.6667H45C45.8841 51.6667 46.7319 51.3155 47.357 50.6904C47.9822 50.0653 48.3333 49.2174 48.3333 48.3334V28.3334L38.3333 18.3334Z" stroke-width="2" stroke-linecap="round" stroke-linejoin="round" stroke="#fff"/>
        <path d="M41.6666 43.3334H28.3333" stroke-width="2" stroke-linecap="round" stroke-linejoin="round" stroke="#fff"/>
        <path d="M41.6666 36.6666H28.3333" stroke-width="2" stroke-linecap="round" stroke-linejoin="round" stroke="#fff"/>
        <path d="M31.6666 30H30H28.3333" stroke-width="2" stroke-linecap="round" stroke-linejoin="round" stroke="#fff"/>
        <path d="M38.3333 18.3334V28.3334H48.3333" stroke-width="2" stroke-linecap="round" stroke-linejoin="round" stroke="#fff"/>
    </svg>

    <svg id="price-attention" width="71" height="71" viewBox="0 0 71 71" fill="none" xmlns="http://www.w3.org/2000/svg">
        <rect width="71" height="71" fill="white"/>
        <path d="M35.75 69.5C54.3896 69.5 69.5 54.3896 69.5 35.75C69.5 17.1104 54.3896 2 35.75 2C17.1104 2 2 17.1104 2 35.75C2 54.3896 17.1104 69.5 35.75 69.5Z" fill="#7CB342"/>
        <path d="M24.75 42H23.25V45H24.75V42ZM38.5 45H40V42H38.5V45ZM24.75 45H38.5V42H24.75V45Z" fill="white"/>
        <path d="M28.25 49.75V51.25H31.25V49.75H28.25ZM29.75 22.25V20.75C28.9216 20.75 28.25 21.4216 28.25 22.25H29.75ZM47.25 30.375H48.75H47.25ZM24.75 37H23.25V40H24.75V37ZM31.25 49.75V22.25H28.25V49.75H31.25ZM29.75 23.75H39.125V20.75H29.75V23.75ZM39.125 23.75C40.8821 23.75 42.5672 24.448 43.8096 25.6904L45.9309 23.5691C44.1259 21.7641 41.6777 20.75 39.125 20.75V23.75ZM43.8096 25.6904C45.052 26.9328 45.75 28.6179 45.75 30.375H48.75C48.75 27.8223 47.7359 25.3741 45.9309 23.5691L43.8096 25.6904ZM45.75 30.375C45.75 32.1321 45.052 33.8172 43.8096 35.0596L45.9309 37.1809C47.7359 35.3759 48.75 32.9277 48.75 30.375H45.75ZM43.8096 35.0596C42.5672 36.302 40.8821 37 39.125 37V40C41.6777 40 44.1259 38.9859 45.9309 37.1809L43.8096 35.0596ZM39.125 37H24.75V40H39.125V37Z" fill="white"/>
    </svg>

    <svg id="facebook" width="32" height="32" viewBox="0 0 32 32" fill="none" xmlns="http://www.w3.org/2000/svg">
        <path d="M18.5016 29.1115V16.0542H22.106L22.5836 11.5546H18.5016L18.5077 9.30251C18.5077 8.12894 18.6192 7.50012 20.3048 7.50012H22.5581V3H18.9532C14.6232 3 13.0991 5.18279 13.0991 8.85357V11.5551H10.4V16.0547H13.0991V29.1115H18.5016Z" fill="#3B5998"/>
    </svg>

    <svg id="youtube" width="32" height="32" viewBox="0 0 32 32" fill="none" xmlns="http://www.w3.org/2000/svg">
        <path fill-rule="evenodd" clip-rule="evenodd" d="M25.8016 7.54933C26.9031 7.85159 27.7706 8.74221 28.065 9.87322C28.6 11.923 28.6 16.2 28.6 16.2C28.6 16.2 28.6 20.4768 28.065 22.5268C27.7706 23.6578 26.9031 24.5484 25.8016 24.8508C23.8054 25.4 15.8 25.4 15.8 25.4C15.8 25.4 7.79462 25.4 5.79825 24.8508C4.69673 24.5484 3.82924 23.6578 3.53484 22.5268C3 20.4768 3 16.2 3 16.2C3 16.2 3 11.923 3.53484 9.87322C3.82924 8.74221 4.69673 7.85159 5.79825 7.54933C7.79462 7 15.8 7 15.8 7C15.8 7 23.8054 7 25.8016 7.54933ZM13.4 12.6001V20.6001L19.8 16.6003L13.4 12.6001Z" fill="#FF0000"/>
    </svg>

    <svg id="ok" width="32" height="32" viewBox="0 0 32 32" fill="none" xmlns="http://www.w3.org/2000/svg">
        <path d="M18.596 21.4403L22.1826 24.9028C22.9174 25.6106 22.9174 26.7601 22.1826 27.4686C21.4486 28.1771 20.259 28.1771 19.5257 27.4686L15.9993 24.0661L12.476 27.4686C12.1086 27.8225 11.6272 27.9996 11.1458 27.9996C10.6652 27.9996 10.1846 27.8225 9.81719 27.4686C9.0832 26.7601 9.0832 25.6113 9.81643 24.9028L13.4035 21.4403C12.0975 21.1531 10.838 20.6536 9.67784 19.951C8.79989 19.4167 8.53616 18.2972 9.08934 17.449C9.64099 16.5996 10.8011 16.3439 11.6806 16.8783C14.3072 18.4732 17.6907 18.4736 20.3188 16.8783C21.1983 16.3439 22.3581 16.5996 22.9109 17.449C23.464 18.2964 23.1995 19.4167 22.3216 19.951C21.1615 20.6543 19.9019 21.1531 18.596 21.4403Z" fill="#F68634"/>
        <path fill-rule="evenodd" clip-rule="evenodd" d="M9.56775 10.1936C9.56775 13.6079 12.4454 16.3853 15.9837 16.3853C19.5227 16.3853 22.3996 13.6079 22.3996 10.1936C22.3996 6.77811 19.5227 4 15.9837 4C12.4454 4 9.56775 6.77811 9.56775 10.1936ZM18.6402 10.1938C18.6402 8.77974 17.4486 7.62988 15.9837 7.62988C14.5199 7.62988 13.3272 8.77974 13.3272 10.1938C13.3272 11.6068 14.5199 12.7574 15.9837 12.7574C17.4486 12.7574 18.6402 11.6068 18.6402 10.1938Z" fill="#F68634"/>
    </svg>

    <svg id="car" width="37" height="36" viewBox="0 0 37 36" fill="none" xmlns="http://www.w3.org/2000/svg">
        <path d="M2.75 16.875H34.25" stroke-width="2" stroke-linecap="round" stroke-linejoin="round"/>
        <path d="M32 25.875V29.25C32 29.5484 31.8815 29.8345 31.6705 30.0455C31.4595 30.2565 31.1734 30.375 30.875 30.375H27.5C27.2016 30.375 26.9155 30.2565 26.7045 30.0455C26.4935 29.8345 26.375 29.5484 26.375 29.25V25.875" stroke-width="2" stroke-linecap="round" stroke-linejoin="round"/>
        <path d="M10.625 25.875V29.25C10.625 29.5484 10.5065 29.8345 10.2955 30.0455C10.0845 30.2565 9.79837 30.375 9.5 30.375H6.125C5.82663 30.375 5.54048 30.2565 5.32951 30.0455C5.11853 29.8345 5 29.5484 5 29.25V25.875" stroke-width="2" stroke-linecap="round" stroke-linejoin="round"/>
        <path d="M9.5 21.375H11.75" stroke-width="2" stroke-linecap="round" stroke-linejoin="round"/>
        <path d="M25.25 21.375H27.5" stroke-width="2" stroke-linecap="round" stroke-linejoin="round"/>
        <path d="M32 16.875L27.7969 7.41809C27.7085 7.21923 27.5644 7.05028 27.3819 6.9317C27.1995 6.81311 26.9865 6.75 26.7689 6.75H10.2311C10.0135 6.75 9.80055 6.81311 9.61808 6.9317C9.43561 7.05028 9.29145 7.21923 9.20307 7.41809L5 16.875V25.875H32V16.875Z" stroke-width="2" stroke-linecap="round" stroke-linejoin="round"/>
    </svg>

    <svg id="train" width="36" height="36" viewBox="0 0 36 36" fill="none" xmlns="http://www.w3.org/2000/svg">
        <path d="M6.1875 18H29.8125" stroke-width="2" stroke-linecap="round" stroke-linejoin="round"/>
        <path d="M13.5 29.25L10.125 33.75" stroke-width="2" stroke-linecap="round" stroke-linejoin="round"/>
        <path d="M22.5 29.25L25.875 33.75" stroke-width="2" stroke-linecap="round" stroke-linejoin="round"/>
        <path d="M26.4375 4.5H9.5625C7.69854 4.5 6.1875 6.01104 6.1875 7.875V25.875C6.1875 27.739 7.69854 29.25 9.5625 29.25H26.4375C28.3015 29.25 29.8125 27.739 29.8125 25.875V7.875C29.8125 6.01104 28.3015 4.5 26.4375 4.5Z" stroke-width="2" stroke-linecap="round" stroke-linejoin="round"/>
        <path d="M12.5 24.1875C12.5 24.5672 12.1922 24.875 11.8125 24.875C11.4328 24.875 11.125 24.5672 11.125 24.1875C11.125 23.8078 11.4328 23.5 11.8125 23.5C12.1922 23.5 12.5 23.8078 12.5 24.1875Z" stroke-width="2"/>
        <path d="M24.875 24.1875C24.875 24.5672 24.5672 24.875 24.1875 24.875C23.8078 24.875 23.5 24.5672 23.5 24.1875C23.5 23.8078 23.8078 23.5 24.1875 23.5C24.5672 23.5 24.875 23.8078 24.875 24.1875Z" stroke-width="2"/>
    </svg>

    <svg id="bus" width="36" height="36" viewBox="0 0 36 36" fill="none" xmlns="http://www.w3.org/2000/svg">
        <path d="M5.90625 10.125H30.0938" stroke-width="2" stroke-linecap="round" stroke-linejoin="round"/>
        <path d="M5.90625 16.875H30.0938" stroke-width="2" stroke-linecap="round" stroke-linejoin="round"/>
        <path d="M30.0938 27H5.90625V9C5.90625 8.10489 6.26183 7.24645 6.89476 6.61351C7.5277 5.98058 8.38614 5.625 9.28125 5.625H26.7188C27.6139 5.625 28.4723 5.98058 29.1052 6.61351C29.7382 7.24645 30.0937 8.10489 30.0938 9V27Z" stroke-width="2" stroke-linecap="round" stroke-linejoin="round"/>
        <path d="M30.0938 27V30.375C30.0938 30.6734 29.9752 30.9595 29.7642 31.1705C29.5533 31.3815 29.2671 31.5 28.9688 31.5H25.5938C25.2954 31.5 25.0092 31.3815 24.7983 31.1705C24.5873 30.9595 24.4688 30.6734 24.4688 30.375V27" stroke-width="2" stroke-linecap="round" stroke-linejoin="round"/>
        <path d="M11.5312 27V30.375C11.5312 30.6734 11.4127 30.9595 11.2017 31.1705C10.9908 31.3815 10.7046 31.5 10.4062 31.5H7.03125C6.73288 31.5 6.44673 31.3815 6.23576 31.1705C6.02478 30.9595 5.90625 30.6734 5.90625 30.375V27" stroke-width="2" stroke-linecap="round" stroke-linejoin="round"/>
        <path d="M12.5 21.9375C12.5 22.3172 12.1922 22.625 11.8125 22.625C11.4328 22.625 11.125 22.3172 11.125 21.9375C11.125 21.5578 11.4328 21.25 11.8125 21.25C12.1922 21.25 12.5 21.5578 12.5 21.9375Z" stroke-width="2"/>
        <path d="M24.1875 23.625C25.1195 23.625 25.875 22.8695 25.875 21.9375C25.875 21.0055 25.1195 20.25 24.1875 20.25C23.2555 20.25 22.5 21.0055 22.5 21.9375C22.5 22.8695 23.2555 23.625 24.1875 23.625Z"/>
    </svg>
</svg>
