<svg>

    <svg id="clock" width="16" height="16" viewBox="0 0 16 16" fill="none" xmlns="http://www.w3.org/2000/svg">
        <path d="M8 14.6667C11.6819 14.6667 14.6667 11.6819 14.6667 8C14.6667 4.3181 11.6819 1.33333 8 1.33333C4.3181 1.33333 1.33334 4.3181 1.33334 8C1.33334 11.6819 4.3181 14.6667 8 14.6667Z" stroke="var(--akcent-color)" stroke-width="1.5" stroke-linecap="round" stroke-linejoin="round"/>
        <path d="M8 4V8L10.6667 9.33333" stroke="var(--akcent-color)" stroke-width="1.5" stroke-linecap="square" stroke-linejoin="round"/>
    </svg>

    <svg id="place" width="16" height="16" viewBox="0 0 16 16" fill="none" xmlns="http://www.w3.org/2000/svg">
        <g clip-path="url(#clip0_30_45)">
            <path d="M14 6.66667C14 11.3333 8 15.3333 8 15.3333C8 15.3333 2 11.3333 2 6.66667C2 5.07537 2.63214 3.54925 3.75736 2.42403C4.88258 1.29881 6.4087 0.666672 8 0.666672C9.5913 0.666672 11.1174 1.29881 12.2426 2.42403C13.3679 3.54925 14 5.07537 14 6.66667Z" stroke="var(--akcent-color)" stroke-width="1.5" stroke-linecap="round"/>
            <path d="M8 8.66667C9.10457 8.66667 10 7.77124 10 6.66667C10 5.5621 9.10457 4.66667 8 4.66667C6.89543 4.66667 6 5.5621 6 6.66667C6 7.77124 6.89543 8.66667 8 8.66667Z" stroke="var(--akcent-color)" stroke-width="1.5" stroke-linecap="round" stroke-linejoin="round"/>
        </g>
        <defs>
            <clipPath id="clip0_30_45">
                <rect width="16" height="16" fill="white"/>
            </clipPath>
        </defs>
    </svg>

    <svg id="phone" width="16" height="16" viewBox="0 0 16 16" fill="none" xmlns="http://www.w3.org/2000/svg">
        <path d="M14.6666 11.28V13.28C14.6674 13.4657 14.6294 13.6494 14.555 13.8196C14.4806 13.9897 14.3715 14.1424 14.2347 14.2679C14.0979 14.3934 13.9364 14.489 13.7605 14.5485C13.5846 14.6079 13.3982 14.63 13.2133 14.6133C11.1619 14.3904 9.19131 13.6894 7.45997 12.5667C5.84919 11.5431 4.48353 10.1774 3.45998 8.56666C2.33329 6.82747 1.63214 4.84733 1.41331 2.78666C1.39665 2.60231 1.41856 2.41651 1.47764 2.24108C1.53673 2.06566 1.63169 1.90446 1.75649 1.76775C1.88128 1.63103 2.03318 1.5218 2.2025 1.44701C2.37183 1.37222 2.55487 1.33351 2.73998 1.33333H4.73998C5.06351 1.33015 5.37717 1.44472 5.62248 1.65569C5.8678 1.86666 6.02803 2.15963 6.07331 2.48C6.15772 3.12004 6.31428 3.74848 6.53998 4.35333C6.62967 4.59195 6.64908 4.85127 6.59591 5.10058C6.54274 5.3499 6.41922 5.57874 6.23997 5.76L5.39331 6.60666C6.34235 8.27569 7.72428 9.65763 9.39331 10.6067L10.24 9.76C10.4212 9.58076 10.6501 9.45723 10.8994 9.40406C11.1487 9.35089 11.408 9.3703 11.6466 9.46C12.2515 9.6857 12.8799 9.84225 13.52 9.92666C13.8438 9.97235 14.1396 10.1355 14.351 10.385C14.5624 10.6345 14.6748 10.953 14.6666 11.28Z" stroke="var(--akcent-color)" stroke-width="1.5" stroke-linecap="round"/>
    </svg>

    <svg id="search" width="20" height="20" viewBox="0 0 20 20" fill="none" xmlns="http://www.w3.org/2000/svg">
        <path d="M9.16667 15.8333C12.8486 15.8333 15.8333 12.8486 15.8333 9.16667C15.8333 5.48477 12.8486 2.5 9.16667 2.5C5.48477 2.5 2.5 5.48477 2.5 9.16667C2.5 12.8486 5.48477 15.8333 9.16667 15.8333Z" stroke="var(--akcent-color)" stroke-width="2" stroke-linecap="round" stroke-linejoin="round"/>
        <path d="M17.5 17.5L13.875 13.875" stroke="var(--akcent-color)" stroke-width="2" stroke-linecap="round" stroke-linejoin="round"/>
    </svg>

    <svg id="mark" width="24" height="24" viewBox="0 0 24 24" fill="none" xmlns="http://www.w3.org/2000/svg">
        <path d="M0 12C0 5.37258 5.37258 0 12 0C18.6274 0 24 5.37258 24 12C24 18.6274 18.6274 24 12 24C5.37258 24 0 18.6274 0 12Z" fill="#1D2A2A"/>
        <path d="M17.3728 8.39999L10.1728 15.6L6.90002 12.3273" stroke-width="2" stroke="#fff" stroke-linecap="square"/>
    </svg>

    <svg id="attention" width="64" height="64" viewBox="0 0 64 64" fill="none" xmlns="http://www.w3.org/2000/svg">
        <path d="M27.44 10.2933L4.85333 48C4.38764 48.8064 4.14124 49.7208 4.13863 50.652C4.13602 51.5833 4.3773 52.499 4.83846 53.308C5.29963 54.1171 5.96459 54.7913 6.76721 55.2636C7.56983 55.7358 8.48212 55.9897 9.41332 56H54.5866C55.5178 55.9897 56.4301 55.7358 57.2327 55.2636C58.0354 54.7913 58.7003 54.1171 59.1615 53.308C59.6226 52.499 59.8639 51.5833 59.8613 50.652C59.8587 49.7208 59.6123 48.8064 59.1466 48L36.56 10.2933C36.0846 9.50961 35.4152 8.86165 34.6165 8.41195C33.8178 7.96226 32.9166 7.72601 32 7.72601C31.0833 7.72601 30.1822 7.96226 29.3835 8.41195C28.5847 8.86165 27.9154 9.50961 27.44 10.2933V10.2933Z" stroke="#fff" stroke-width="3" stroke-linecap="round" stroke-linejoin="round"/>
        <path d="M32 24V34.6667" stroke="#fff" stroke-width="3" stroke-linecap="round" stroke-linejoin="round"/>
        <path d="M32 45.3333H32.01" stroke="#fff" stroke-width="3" stroke-linecap="round" stroke-linejoin="round"/>
    </svg>

    <svg id="check" width="70" height="70" viewBox="0 0 70 70" fill="none" xmlns="http://www.w3.org/2000/svg">
        <rect width="70" height="70" fill="var(--akcent-second)"/>
        <path d="M48.3333 25L30 43.3333L21.6667 35" stroke="white" stroke-width="2" stroke-linecap="square" stroke-linejoin="round"/>
    </svg>

    <svg id="file" width="32" height="32" viewBox="0 0 32 32" fill="none" xmlns="http://www.w3.org/2000/svg">
        <path d="M12 12H20" stroke="var(--akcent-second)" stroke-width="2" stroke-linecap="round" stroke-linejoin="round"/>
        <path d="M12 16H20" stroke="var(--akcent-second)" stroke-width="2" stroke-linecap="round" stroke-linejoin="round"/>
        <path d="M12 20H16" stroke="var(--akcent-second)" stroke-width="2" stroke-linecap="round" stroke-linejoin="round"/>
        <path d="M19.5858 27H6C5.73478 27 5.48043 26.8946 5.29289 26.7071C5.10536 26.5196 5 26.2652 5 26V6C5 5.73478 5.10536 5.48043 5.29289 5.29289C5.48043 5.10536 5.73478 5 6 5H26C26.2652 5 26.5196 5.10536 26.7071 5.29289C26.8946 5.48043 27 5.73478 27 6V19.5858C27 19.7171 26.9741 19.8471 26.9239 19.9685C26.8736 20.0898 26.8 20.2 26.7071 20.2929L20.2929 26.7071C20.2 26.8 20.0898 26.8736 19.9685 26.9239C19.8471 26.9741 19.7171 27 19.5858 27V27Z" stroke="var(--akcent-second)" stroke-width="2" stroke-linecap="round" stroke-linejoin="round"/>
        <path d="M26.9095 19.999H20V26.909" stroke="var(--akcent-second)" stroke-width="2" stroke-linecap="round" stroke-linejoin="round"/>
    </svg>

    <svg id="price-attention" width="71" height="71" viewBox="0 0 71 71" fill="none" xmlns="http://www.w3.org/2000/svg">
        <path d="M35.75 69.5003C54.3896 69.5003 69.5 54.3899 69.5 35.7503C69.5 17.1106 54.3896 2.00024 35.75 2.00024C17.1104 2.00024 2 17.1106 2 35.7503C2 54.3899 17.1104 69.5003 35.75 69.5003Z" fill="var(--akcent-second)"/>
        <path fill-rule="evenodd" clip-rule="evenodd" d="M35.3477 16.1199C34.9838 16.3171 27.5414 22.535 27.3487 22.803C27.1759 23.0432 27.1729 23.0874 27.1729 25.3307V27.6139L26.764 27.7838C24.848 28.5801 23.0341 30.2983 22.0543 32.2451C20.9803 34.3794 20.7162 36.798 21.311 39.0556C21.5239 39.8639 27.22 55.2938 27.3932 55.5314C27.4715 55.6388 27.6562 55.7882 27.8035 55.8633C28.0534 55.9907 28.5986 56 35.8466 56C43.0946 56 43.6398 55.9907 43.8897 55.8633C44.037 55.7882 44.2217 55.6388 44.3 55.5314C44.4732 55.2938 50.1693 39.8639 50.3822 39.0556C50.8484 37.2862 50.7772 35.2894 50.1853 33.5262C49.7759 32.3064 49.0037 31.0136 48.0786 29.999C47.4496 29.3092 46.242 28.4261 45.315 27.978L44.5239 27.5957L44.5221 25.3274C44.5203 23.1017 44.5171 23.0544 44.3445 22.8122C44.1423 22.5283 36.6892 16.3021 36.328 16.1153C36.0275 15.9599 35.6398 15.9618 35.3477 16.1199ZM38.0076 20.4881L40.0702 22.2039L37.9584 22.2247C36.7969 22.2361 34.8965 22.2361 33.7351 22.2247L31.6237 22.2039L33.7136 20.4645C34.863 19.5079 35.8353 18.7359 35.8743 18.7488C35.9133 18.7618 36.8732 19.5445 38.0076 20.4881ZM42.1761 25.9547V27.3222H35.8466H29.5171V25.9547V24.5872H35.8466H42.1761V25.9547ZM43.9734 29.9245C45.5476 30.6124 46.8841 31.9153 47.6421 33.501C48.0871 34.4318 48.2781 35.2296 48.3282 36.3671L48.3704 37.3243H35.8466H23.3228L23.365 36.3671C23.4151 35.2296 23.6061 34.4318 24.0511 33.501C24.8158 31.9014 26.1629 30.5996 27.7763 29.9013L28.3059 29.6721L35.8466 29.6702L43.3873 29.6683L43.9734 29.9245ZM47.5326 40.1738C47.4281 40.4516 47.1031 41.3305 46.8105 42.1268L46.2785 43.5747H35.8466H25.4147L24.8827 42.1268C24.5901 41.3305 24.2651 40.4516 24.1606 40.1738L23.9704 39.6686H35.8466H47.7228L47.5326 40.1738ZM45.3799 45.9601C45.3799 45.9935 43.2792 51.7251 42.7239 53.2067L42.5555 53.656H35.8466H29.1377L28.9693 53.2067C28.414 51.7251 26.3133 45.9935 26.3133 45.9601C26.3133 45.938 30.6033 45.9199 35.8466 45.9199C41.0899 45.9199 45.3799 45.938 45.3799 45.9601Z" fill="white"/>
    </svg>

    <svg id="facebook" width="32" height="32" viewBox="0 0 32 32" fill="none" xmlns="http://www.w3.org/2000/svg">
        <path d="M18.5016 29.1115V16.0542H22.106L22.5836 11.5546H18.5016L18.5077 9.30251C18.5077 8.12894 18.6192 7.50012 20.3048 7.50012H22.5581V3H18.9532C14.6232 3 13.0991 5.18279 13.0991 8.85357V11.5551H10.4V16.0547H13.0991V29.1115H18.5016Z" fill="#3B5998"/>
    </svg>

    <svg id="youtube" width="32" height="32" viewBox="0 0 32 32" fill="none" xmlns="http://www.w3.org/2000/svg">
        <path fill-rule="evenodd" clip-rule="evenodd" d="M25.8016 7.54933C26.9031 7.85159 27.7706 8.74221 28.065 9.87322C28.6 11.923 28.6 16.2 28.6 16.2C28.6 16.2 28.6 20.4768 28.065 22.5268C27.7706 23.6578 26.9031 24.5484 25.8016 24.8508C23.8054 25.4 15.8 25.4 15.8 25.4C15.8 25.4 7.79462 25.4 5.79825 24.8508C4.69673 24.5484 3.82924 23.6578 3.53484 22.5268C3 20.4768 3 16.2 3 16.2C3 16.2 3 11.923 3.53484 9.87322C3.82924 8.74221 4.69673 7.85159 5.79825 7.54933C7.79462 7 15.8 7 15.8 7C15.8 7 23.8054 7 25.8016 7.54933ZM13.4 12.6001V20.6001L19.8 16.6003L13.4 12.6001Z" fill="#FF0000"/>
    </svg>

    <svg id="ok" width="32" height="32" viewBox="0 0 32 32" fill="none" xmlns="http://www.w3.org/2000/svg">
        <path d="M18.596 21.4403L22.1826 24.9028C22.9174 25.6106 22.9174 26.7601 22.1826 27.4686C21.4486 28.1771 20.259 28.1771 19.5257 27.4686L15.9993 24.0661L12.476 27.4686C12.1086 27.8225 11.6272 27.9996 11.1458 27.9996C10.6652 27.9996 10.1846 27.8225 9.81719 27.4686C9.0832 26.7601 9.0832 25.6113 9.81643 24.9028L13.4035 21.4403C12.0975 21.1531 10.838 20.6536 9.67784 19.951C8.79989 19.4167 8.53616 18.2972 9.08934 17.449C9.64099 16.5996 10.8011 16.3439 11.6806 16.8783C14.3072 18.4732 17.6907 18.4736 20.3188 16.8783C21.1983 16.3439 22.3581 16.5996 22.9109 17.449C23.464 18.2964 23.1995 19.4167 22.3216 19.951C21.1615 20.6543 19.9019 21.1531 18.596 21.4403Z" fill="#F68634"/>
        <path fill-rule="evenodd" clip-rule="evenodd" d="M9.56775 10.1936C9.56775 13.6079 12.4454 16.3853 15.9837 16.3853C19.5227 16.3853 22.3996 13.6079 22.3996 10.1936C22.3996 6.77811 19.5227 4 15.9837 4C12.4454 4 9.56775 6.77811 9.56775 10.1936ZM18.6402 10.1938C18.6402 8.77974 17.4486 7.62988 15.9837 7.62988C14.5199 7.62988 13.3272 8.77974 13.3272 10.1938C13.3272 11.6068 14.5199 12.7574 15.9837 12.7574C17.4486 12.7574 18.6402 11.6068 18.6402 10.1938Z" fill="#F68634"/>
    </svg>

    <svg id="car" width="37" height="36" viewBox="0 0 37 36" fill="none" xmlns="http://www.w3.org/2000/svg">
        <path d="M2.75 16.875H34.25" stroke-width="2" stroke-linecap="round" stroke-linejoin="round"/>
        <path d="M32 25.875V29.25C32 29.5484 31.8815 29.8345 31.6705 30.0455C31.4595 30.2565 31.1734 30.375 30.875 30.375H27.5C27.2016 30.375 26.9155 30.2565 26.7045 30.0455C26.4935 29.8345 26.375 29.5484 26.375 29.25V25.875" stroke-width="2" stroke-linecap="round" stroke-linejoin="round"/>
        <path d="M10.625 25.875V29.25C10.625 29.5484 10.5065 29.8345 10.2955 30.0455C10.0845 30.2565 9.79837 30.375 9.5 30.375H6.125C5.82663 30.375 5.54048 30.2565 5.32951 30.0455C5.11853 29.8345 5 29.5484 5 29.25V25.875" stroke-width="2" stroke-linecap="round" stroke-linejoin="round"/>
        <path d="M9.5 21.375H11.75" stroke-width="2" stroke-linecap="round" stroke-linejoin="round"/>
        <path d="M25.25 21.375H27.5" stroke-width="2" stroke-linecap="round" stroke-linejoin="round"/>
        <path d="M32 16.875L27.7969 7.41809C27.7085 7.21923 27.5644 7.05028 27.3819 6.9317C27.1995 6.81311 26.9865 6.75 26.7689 6.75H10.2311C10.0135 6.75 9.80055 6.81311 9.61808 6.9317C9.43561 7.05028 9.29145 7.21923 9.20307 7.41809L5 16.875V25.875H32V16.875Z" stroke-width="2" stroke-linecap="round" stroke-linejoin="round"/>
    </svg>

    <svg id="train" width="36" height="36" viewBox="0 0 36 36" fill="none" xmlns="http://www.w3.org/2000/svg">
        <path d="M6.1875 18H29.8125" stroke-width="2" stroke-linecap="round" stroke-linejoin="round"/>
        <path d="M13.5 29.25L10.125 33.75" stroke-width="2" stroke-linecap="round" stroke-linejoin="round"/>
        <path d="M22.5 29.25L25.875 33.75" stroke-width="2" stroke-linecap="round" stroke-linejoin="round"/>
        <path d="M26.4375 4.5H9.5625C7.69854 4.5 6.1875 6.01104 6.1875 7.875V25.875C6.1875 27.739 7.69854 29.25 9.5625 29.25H26.4375C28.3015 29.25 29.8125 27.739 29.8125 25.875V7.875C29.8125 6.01104 28.3015 4.5 26.4375 4.5Z" stroke-width="2" stroke-linecap="round" stroke-linejoin="round"/>
        <path d="M12.5 24.1875C12.5 24.5672 12.1922 24.875 11.8125 24.875C11.4328 24.875 11.125 24.5672 11.125 24.1875C11.125 23.8078 11.4328 23.5 11.8125 23.5C12.1922 23.5 12.5 23.8078 12.5 24.1875Z" stroke-width="2"/>
        <path d="M24.875 24.1875C24.875 24.5672 24.5672 24.875 24.1875 24.875C23.8078 24.875 23.5 24.5672 23.5 24.1875C23.5 23.8078 23.8078 23.5 24.1875 23.5C24.5672 23.5 24.875 23.8078 24.875 24.1875Z" stroke-width="2"/>
    </svg>

    <svg id="bus" width="36" height="36" viewBox="0 0 36 36" fill="none" xmlns="http://www.w3.org/2000/svg">
        <path d="M5.90625 10.125H30.0938" stroke-width="2" stroke-linecap="round" stroke-linejoin="round"/>
        <path d="M5.90625 16.875H30.0938" stroke-width="2" stroke-linecap="round" stroke-linejoin="round"/>
        <path d="M30.0938 27H5.90625V9C5.90625 8.10489 6.26183 7.24645 6.89476 6.61351C7.5277 5.98058 8.38614 5.625 9.28125 5.625H26.7188C27.6139 5.625 28.4723 5.98058 29.1052 6.61351C29.7382 7.24645 30.0937 8.10489 30.0938 9V27Z" stroke-width="2" stroke-linecap="round" stroke-linejoin="round"/>
        <path d="M30.0938 27V30.375C30.0938 30.6734 29.9752 30.9595 29.7642 31.1705C29.5533 31.3815 29.2671 31.5 28.9688 31.5H25.5938C25.2954 31.5 25.0092 31.3815 24.7983 31.1705C24.5873 30.9595 24.4688 30.6734 24.4688 30.375V27" stroke-width="2" stroke-linecap="round" stroke-linejoin="round"/>
        <path d="M11.5312 27V30.375C11.5312 30.6734 11.4127 30.9595 11.2017 31.1705C10.9908 31.3815 10.7046 31.5 10.4062 31.5H7.03125C6.73288 31.5 6.44673 31.3815 6.23576 31.1705C6.02478 30.9595 5.90625 30.6734 5.90625 30.375V27" stroke-width="2" stroke-linecap="round" stroke-linejoin="round"/>
        <path d="M12.5 21.9375C12.5 22.3172 12.1922 22.625 11.8125 22.625C11.4328 22.625 11.125 22.3172 11.125 21.9375C11.125 21.5578 11.4328 21.25 11.8125 21.25C12.1922 21.25 12.5 21.5578 12.5 21.9375Z" stroke-width="2"/>
        <path d="M24.1875 23.625C25.1195 23.625 25.875 22.8695 25.875 21.9375C25.875 21.0055 25.1195 20.25 24.1875 20.25C23.2555 20.25 22.5 21.0055 22.5 21.9375C22.5 22.8695 23.2555 23.625 24.1875 23.625Z"/>
    </svg>

    <svg id="clothes" width="32" height="32" viewBox="0 0 32 32" fill="none" xmlns="http://www.w3.org/2000/svg">
        <path d="M24 15H27.382C27.5677 15 27.7497 14.9483 27.9077 14.8507C28.0657 14.753 28.1933 14.6133 28.2764 14.4472L30.5769 9.84612C30.6913 9.61749 30.7137 9.35376 30.6396 9.10912C30.5655 8.86447 30.4006 8.65748 30.1787 8.53066L24 5" stroke="#A8AC90" stroke-width="2" stroke-linecap="round" stroke-linejoin="round"/>
        <path d="M7.9999 15H4.61793C4.43222 15 4.25018 14.9483 4.0922 14.8507C3.93423 14.753 3.80656 14.6133 3.72351 14.4472L1.42296 9.84612C1.30864 9.61749 1.28622 9.35376 1.36029 9.10912C1.43436 8.86447 1.59931 8.65748 1.82125 8.53066L7.9999 5" stroke="#A8AC90" stroke-width="2" stroke-linecap="round" stroke-linejoin="round"/>
        <path d="M20 5C20 6.06087 19.5786 7.07828 18.8284 7.82843C18.0783 8.57857 17.0609 9 16 9C14.9391 9 13.9217 8.57857 13.1716 7.82843C12.4214 7.07828 12 6.06087 12 5H8V26C8 26.2652 8.10536 26.5196 8.29289 26.7071C8.48043 26.8946 8.73478 27 9 27H23C23.2652 27 23.5196 26.8946 23.7071 26.7071C23.8946 26.5196 24 26.2652 24 26V5H20Z" stroke="#A8AC90" stroke-width="2" stroke-linecap="round" stroke-linejoin="round"/>
    </svg>

    <svg id="emblem" width="105" height="105" viewBox="0 0 105 105" fill="none" xmlns="http://www.w3.org/2000/svg">
        <path d="M43.8261 105L42.1141 103.288C42 103.174 35.2663 96.5543 24.1957 96.5543H14.038C6.27717 96.5543 0 88.6793 0 79.0924V2.51086H75.8967V7.5326H5.13587V79.0924C5.13587 85.9402 9.13043 91.4185 14.038 91.4185H24.1957C34.0109 91.4185 40.9728 95.7554 43.9402 98.1522C47.1359 95.7554 54.3261 91.4185 63.5706 91.4185H73.7283C78.6359 91.4185 82.6304 85.8261 82.6304 79.0924V52.5H87.8804V79.0924C87.8804 88.6793 81.6032 96.5543 73.8424 96.5543H63.6848C53.2989 96.5543 45.7663 103.288 45.6522 103.402L43.8261 105Z" fill="#F3F1E9"/>
        <path d="M43.7118 71.3315L15.6357 45.538L19.0597 41.8859L43.3694 64.1413L100.206 0L104.087 3.42391L43.7118 71.3315Z" fill="#F3F1E9"/>
    </svg>
</svg>
