<svg>
    <svg id="emblem" width="56" height="56" fill="none" xmlns="http://www.w3.org/2000/svg">
        <path d="M23.3739 56L22.4609 55.087C22.4 55.0261 18.8087 51.4957 12.9043 51.4957H7.48696C3.34783 51.4957 0 47.2957 0 42.1826V1.33913H40.4783V4.01739H2.73913V42.1826C2.73913 45.8348 4.86957 48.7565 7.48696 48.7565H12.9043C18.1391 48.7565 21.8522 51.0696 23.4348 52.3478C25.1391 51.0696 28.9739 48.7565 33.9043 48.7565H39.3217C41.9391 48.7565 44.0696 45.7739 44.0696 42.1826V28H46.8696V42.1826C46.8696 47.2957 43.5217 51.4957 39.3826 51.4957H33.9652C28.4261 51.4957 24.4087 55.087 24.3478 55.1478L23.3739 56Z" fill="#C20D19"/>
        <path d="M23.313 38.0435L8.33911 24.287L10.1652 22.3391L23.1304 34.2087L53.4435 0L55.513 1.82609L23.313 38.0435Z" fill="#244B90"/>
    </svg>

    <svg id="phone" width="19" height="18" viewBox="0 0 19 18" fill="none" xmlns="http://www.w3.org/2000/svg">
        <path d="M4.61744 7.79C6.05744 10.62 8.37744 12.93 11.2074 14.38L13.4074 12.18C13.6774 11.91 14.0774 11.82 14.4274 11.94C15.5474 12.31 16.7574 12.51 17.9974 12.51C18.5474 12.51 18.9974 12.96 18.9974 13.51V17C18.9974 17.55 18.5474 18 17.9974 18C8.60744 18 0.997437 10.39 0.997437 1C0.997437 0.45 1.44744 0 1.99744 0H5.49744C6.04744 0 6.49744 0.45 6.49744 1C6.49744 2.25 6.69744 3.45 7.06744 4.57C7.17744 4.92 7.09744 5.31 6.81744 5.59L4.61744 7.79Z" fill="#85878E"/>
    </svg>

    <svg id="star" width="28" height="28" viewBox="0 0 28 28" fill="none" xmlns="http://www.w3.org/2000/svg">
        <path d="M14 2.33334L17.605 9.63668L25.6667 10.815L19.8333 16.4967L21.21 24.5233L14 20.7317L6.79001 24.5233L8.16668 16.4967L2.33334 10.815L10.395 9.63668L14 2.33334Z" stroke="#A4C5D8" stroke-width="2" stroke-linecap="round" stroke-linejoin="round"/>
    </svg>

    <svg id="check" width="19" height="15" viewBox="0 0 19 15" fill="none" xmlns="http://www.w3.org/2000/svg">
        <path d="M17.5 2L6.5 13L1.5 8" stroke="#8BC34A" stroke-width="2" stroke-linecap="square"/>
    </svg>

    <svg id="arrow-right" width="67" height="40" viewBox="0 0 67 40" fill="none" xmlns="http://www.w3.org/2000/svg">
        <path d="M19 20L59 20" stroke="#A4C5D8" stroke-width="3" stroke-linecap="round" stroke-linejoin="round"/>
        <path d="M47 8.33325L58.6667 19.9999L47 31.6666" stroke="#A4C5D8" stroke-width="3" stroke-linecap="round" stroke-linejoin="round"/>
    </svg>

    <svg id="play" width="104" height="104" viewBox="0 0 104 104" fill="none" xmlns="http://www.w3.org/2000/svg">
        <g filter="url(#filter0_b_831_4627)">
            <rect x="2" y="2" width="100" height="100" rx="5" fill="white" fill-opacity="0.2"/>
            <rect x="1" y="1" width="102" height="102" rx="6" stroke="white" stroke-width="2"/>
        </g>
        <path d="M68 53L38 74L38 32L68 53Z" fill="white"/>
        <defs>
            <filter id="filter0_b_831_4627" x="-10" y="-10" width="124" height="124" filterUnits="userSpaceOnUse" color-interpolation-filters="sRGB">
                <feFlood flood-opacity="0" result="BackgroundImageFix"/>
                <feGaussianBlur in="BackgroundImage" stdDeviation="5"/>
                <feComposite in2="SourceAlpha" operator="in" result="effect1_backgroundBlur_831_4627"/>
                <feBlend mode="normal" in="SourceGraphic" in2="effect1_backgroundBlur_831_4627" result="shape"/>
            </filter>
        </defs>
    </svg>

    <svg id="status" width="96" height="96" viewBox="0 0 96 96" fill="none" xmlns="http://www.w3.org/2000/svg">
        <path d="M47.8425 55.5C46.6335 55.5 45.429 55.2165 44.358 54.678C34.236 49.584 28.8705 45.5415 27.351 43.6275L26.9985 43.1835L27.0285 42.618C27.261 38.1495 29.058 25.305 30.66 14.775L30.8535 13.5H33.5145C38.253 13.5 42.7095 11.655 46.0605 8.30397C47.0925 7.26897 48.9045 7.26747 49.9395 8.30547C53.2905 11.655 57.747 13.5 62.4855 13.5H65.1195L65.307 14.7825C66.735 24.54 68.538 37.5495 68.922 42.099L68.9805 42.7875L68.493 43.2795C67.575 44.2065 63.648 47.757 51.672 54.492C50.5005 55.152 49.176 55.5 47.8425 55.5V55.5Z" fill="#A4C5D8"/>
        <path d="M94.5 53.8935V46.3935H93C91.908 46.3935 90.8535 46.5615 89.8635 46.8735C90.006 44.8635 89.574 42.837 88.5645 41.019L84.5595 33.81L83.229 34.608C78.867 37.2255 77.076 42.4365 78.6885 47.076C77.5395 46.6425 76.3005 46.395 75.0015 46.395H73.7145C74.9955 44.82 75 43.968 75 43.5C75 38.94 70.668 10.0065 70.4835 8.778L70.2915 7.5H62.484C59.3475 7.5 56.3985 6.279 54.18 4.0605C52.5315 2.409 50.3355 1.5 48 1.5C45.6645 1.5 43.4685 2.409 41.8185 4.0605C39.6 6.279 36.651 7.5 33.5145 7.5H25.7175L25.518 8.766C25.3335 9.9345 21 37.452 21 43.5C21 44.3925 21.354 45.36 22.017 46.3935H21C19.701 46.3935 18.462 46.641 17.313 47.0745C18.9255 42.4365 17.1345 37.2255 12.7725 34.6065L11.442 33.81L7.437 41.0205C6.4275 42.8385 5.9955 44.8635 6.138 46.8735C5.1465 46.563 4.0935 46.3935 3.0015 46.3935H1.5V53.8935C1.5 56.7885 2.6775 59.4135 4.5795 61.3155C4.395 61.3665 4.209 61.41 4.0245 61.4715L2.601 61.944L4.575 67.8675C5.5035 70.65 7.4595 72.906 10.0845 74.2185C10.3845 74.3685 10.692 74.4915 10.9995 74.613C9.8955 75.1755 8.859 75.9105 7.9365 76.833L6.876 77.8935L10.9365 81.954C13.2255 84.24 16.266 85.5 19.5 85.5C22.227 85.5 24.8115 84.594 26.928 82.941L27 83.0145L27.567 82.4475C30.8685 82.7235 36.2205 85.3275 41.433 87.8805C42.4065 88.3575 43.3845 88.833 44.361 89.304C41.2035 90.6 38.2935 91.5 36 91.5V94.5C39.387 94.5 43.596 92.9775 48 91.0005C52.404 92.9775 56.613 94.5 60 94.5V91.5C57.7065 91.5 54.7965 90.6 51.6375 89.304C52.614 88.833 53.592 88.3575 54.5655 87.8805C59.778 85.3275 65.1315 82.722 68.4315 82.4475L69 83.0145L69.072 82.9425C71.1885 84.594 73.773 85.5 76.5 85.5C79.734 85.5 82.7745 84.24 85.0605 81.954L89.121 77.8935L88.0605 76.833C87.138 75.9105 86.1015 75.1755 84.9975 74.613C85.305 74.4915 85.6125 74.3685 85.9125 74.2185C88.5375 72.906 90.495 70.65 91.422 67.8675L93.396 61.944L91.9725 61.4715C91.7895 61.41 91.6035 61.3665 91.4175 61.3155C93.3225 59.4135 94.5 56.7885 94.5 53.8935V53.8935ZM91.5 53.8935C91.5 57.516 88.9185 60.546 85.5 61.242V56.8935C85.5 53.271 88.0815 50.241 91.5 49.545V53.8935ZM83.5185 38.1165L85.941 42.4755C87.012 44.403 87.174 46.659 86.4225 48.72C85.545 49.4265 84.7875 50.2725 84.1755 51.222C84.066 50.9955 83.9745 50.763 83.853 50.5425L82.0575 47.31C80.331 44.2005 81.0075 40.431 83.5185 38.1165V38.1165ZM76.5 49.5435C79.9185 50.241 82.5 53.2695 82.5 56.892V62.6955C82.32 62.8125 82.1475 62.9355 81.975 63.063C81.573 59.637 79.6515 56.454 76.557 54.552C76.5375 54.3315 76.5 54.114 76.5 53.8935V49.5435ZM78.0765 68.418L76.3065 73.728C76.2465 73.7445 76.1835 73.755 76.1235 73.773C76.437 72.6885 76.605 71.5545 76.605 70.3935C76.605 67.6125 75.6675 64.9755 73.9515 62.838C73.9605 61.536 74.253 60.24 74.841 59.0655L75.6105 57.525C78.6255 59.7675 79.8135 63.768 78.507 67.332C78.348 67.683 78.201 68.0445 78.0765 68.418ZM67.3935 73.3935C67.3935 70.962 68.34 68.6745 70.0605 66.954L71.913 65.1015C73.0125 66.6345 73.605 68.469 73.605 70.3935C73.605 72.8265 72.6585 75.1125 70.938 76.833L69.0855 78.6855C67.986 77.1525 67.3935 75.318 67.3935 73.3935ZM28.284 10.5H33.5145C37.452 10.5 41.154 8.967 43.9395 6.1815C46.1085 4.0125 49.8915 4.0125 52.0605 6.1815C54.8445 8.967 58.548 10.5 62.4855 10.5H67.707C69.2955 21.1545 71.997 40.1505 72 43.4955C71.9085 44.589 67.854 48.837 53.142 57.1065C50.0565 58.8435 46.137 58.929 43.014 57.3585C29.8785 50.751 24 45.636 24 43.5C24 38.397 27.417 16.08 28.284 10.5V10.5ZM26.913 78.6855L25.0605 76.833C23.3415 75.114 22.3935 72.8265 22.3935 70.3935C22.3935 68.469 22.986 66.6345 24.0855 65.1015L25.938 66.954C27.657 68.673 28.605 70.962 28.605 73.3935C28.6065 75.318 28.014 77.1525 26.913 78.6855V78.6855ZM19.8765 73.773C19.8165 73.755 19.7535 73.7445 19.6935 73.728L17.9235 68.418C17.799 68.0445 17.6535 67.683 17.4915 67.329C16.185 63.7665 17.3745 59.7645 20.388 57.522L21.1575 59.0625C21.7455 60.237 22.038 61.533 22.047 62.835C20.331 64.974 19.3935 67.6095 19.3935 70.3905C19.3935 71.5545 19.563 72.6885 19.8765 73.773ZM19.5 53.8935C19.5 54.114 19.4625 54.333 19.443 54.552C16.3485 56.454 14.427 59.6385 14.025 63.063C13.8525 62.937 13.68 62.814 13.5 62.697V56.8935C13.5 53.271 16.0815 50.241 19.5 49.545V53.8935ZM10.059 42.4755L12.4815 38.115C14.9925 40.4295 15.669 44.2005 13.9425 47.3085L12.147 50.541C12.0255 50.76 11.934 50.994 11.8245 51.2205C11.2125 50.271 10.455 49.425 9.5775 48.7185C8.8245 46.659 8.988 44.403 10.059 42.4755V42.4755ZM4.5 53.8935V49.545C7.9185 50.2425 10.5 53.271 10.5 56.8935V61.242C7.0815 60.5445 4.5 57.516 4.5 53.8935V53.8935ZM7.4235 66.918L6.4425 63.975C9.828 63.525 13.1595 65.316 14.664 68.4195C14.7885 68.754 14.934 69.084 15.0915 69.4125L16.0575 72.3105C12.3405 72.81 8.6535 70.611 7.4235 66.918V66.918ZM19.5 82.5C17.067 82.5 14.781 81.552 13.0605 79.833L11.2095 77.982C14.7645 75.441 19.7505 75.765 22.9395 78.954L24.792 80.8065C23.259 81.906 21.4245 82.5 19.5 82.5V82.5ZM53.247 85.1865C51.4965 86.0445 49.7325 86.9025 48 87.7065C46.2675 86.9025 44.5035 86.0445 42.753 85.1865C37.9755 82.8465 33.42 80.6295 29.7765 79.7775C30.9615 77.8785 31.6065 75.6885 31.6065 73.3935C31.6065 70.161 30.348 67.119 28.0605 64.833L24.9975 61.77C24.8595 60.369 24.477 58.992 23.8425 57.723L22.416 54.87C22.446 54.543 22.5 54.219 22.5 53.8935V47.085C25.212 50.6475 31.614 54.984 41.6655 60.0405C43.566 60.9945 45.7035 61.5 47.8425 61.5C50.2035 61.5 52.545 60.885 54.6135 59.7225C66.4695 53.0565 71.4255 49.059 73.5015 46.6455V53.892C73.5015 54.219 73.5555 54.5415 73.587 54.8685L72.1605 57.7215C71.526 58.9905 71.1435 60.3675 71.0055 61.7685L67.9425 64.8315C65.6565 67.1175 64.3965 70.1595 64.3965 73.392C64.3965 75.687 65.0415 77.877 66.2265 79.776C62.58 80.6295 58.0245 82.8465 53.247 85.1865V85.1865ZM82.9395 79.833C81.219 81.552 78.933 82.5 76.5 82.5C74.5755 82.5 72.741 81.906 71.208 80.8065L73.0605 78.954C76.251 75.765 81.237 75.4395 84.7905 77.982L82.9395 79.833ZM88.5765 66.918C87.3465 70.6095 83.652 72.807 79.9425 72.3105L80.9085 69.4125C81.066 69.0855 81.2115 68.7555 81.336 68.421C82.8405 65.3145 86.1795 63.5205 89.5575 63.975L88.5765 66.918Z" fill="#3A3D46"/>
        <path d="M38.079 41.595L41.178 43.9035L48 38.298L54.8205 43.905L57.9195 41.5965L54.5505 33.8445L61.8465 29.0475L60.426 25.5045L52.1385 25.5L50.0415 18H45.954L43.8885 25.4925L35.5695 25.506L34.152 29.046L41.448 33.843L38.079 41.595ZM38.7825 28.5L46.1745 28.4895L48.0045 21.855L49.8615 28.5L57.2145 28.5015L50.7945 32.724L53.49 38.928L48 34.4145L42.51 38.928L45.2055 32.724L38.7825 28.5Z" fill="#3A3D46"/>
    </svg>

    <svg id="base-1" width="64" height="64" viewBox="0 0 64 64" fill="none" xmlns="http://www.w3.org/2000/svg">
        <g clip-path="url(#clip0_173_799)">
            <path d="M45.3941 27.9392C43.6899 27.9392 42.3031 26.5524 42.3031 24.8483C42.3031 23.1441 43.6899 21.7573 45.3941 21.7573C47.0982 21.7573 48.485 23.1441 48.485 24.8483C48.485 26.5524 47.0982 27.9392 45.3941 27.9392Z" fill="#A4C5D8"/>
            <path d="M36.1213 34.1208C34.4171 34.1208 33.0303 32.734 33.0303 31.0299C33.0303 29.3258 34.4171 27.939 36.1213 27.939C37.8254 27.939 39.2122 29.3258 39.2122 31.0299C39.2122 32.734 37.8254 34.1208 36.1213 34.1208Z" fill="#A4C5D8"/>
            <path d="M56.6266 20.7268C57.3653 18.6384 57.7578 16.4613 57.7578 14.2225V2.06063L56.6142 2.18839C51.9149 2.70973 47.5093 4.77035 44.0732 7.99214C42.7894 6.95565 40.6742 6.30243 38.1819 6.30243C35.6473 6.30243 33.5001 6.97729 32.2236 8.04366C28.6144 3.62361 23.3876 0.759341 17.69 0.126729L16.5453 0V11.1222C14.7495 11.8125 13.5883 12.9624 13.4729 14.3245L11.8687 19.1329C11.6956 19.6553 11.574 20.19 11.4947 20.7309C11.4607 20.7309 11.4277 20.7279 11.3937 20.7279H0.0602722V21.7582C0.0602722 29.0961 5.31899 35.4376 12.424 36.8873V47.516H13.4544C14.4888 47.516 15.5191 47.449 16.5453 47.3388V57.8192H14.4847C13.3482 57.8192 12.424 58.7433 12.424 59.8798V61.9404C12.424 63.0768 13.3482 64.001 14.4847 64.001H49.5153C50.6518 64.001 51.576 63.0768 51.576 61.9404V59.8798C51.576 58.7433 50.6518 57.8192 49.5153 57.8192H47.4547V47.3388C48.4809 47.448 49.5112 47.516 50.5456 47.516H51.576V36.8873C58.681 35.4376 63.9397 29.095 63.9397 21.7582V20.7279H56.6266V20.7268ZM55.6972 14.2225C55.6972 16.4716 55.2542 18.6528 54.4217 20.7268H52.6063C51.6883 20.7268 50.7713 20.8196 49.8728 20.9803C49.7204 20.9257 49.5699 20.868 49.4102 20.8309C49.1506 19.7058 48.4263 18.7579 47.4547 18.1933V17.9429C47.4547 17.199 47.3651 16.4613 47.1889 15.7411C50.7816 11.1954 54.2754 8.14257 54.3114 8.11063L52.9607 6.55383C52.8206 6.67643 49.8152 9.29961 46.4378 13.391L45.3745 10.2032C45.359 10.026 45.3292 9.85083 45.2787 9.68186C48.1419 6.92062 51.7789 5.06708 55.6952 4.39738V14.2225H55.6972ZM42.8822 31.574C43.3592 32.3416 43.4344 33.2369 43.147 34.0467C40.8411 34.6484 38.6074 35.5252 36.5087 36.6699L34.9982 37.4931C34.2595 36.7049 33.222 36.2052 32.0628 36.1877V36.1836C30.9254 36.1135 29.9064 35.5252 29.3387 34.6093C28.7555 33.6676 28.7628 32.5332 29.3603 31.574L29.6983 31.03L29.3603 30.486C28.7638 29.5267 28.7555 28.3913 29.3387 27.4507C29.9322 26.4904 31.0665 25.8949 32.2967 25.8949H32.3008H32.8768L33.1787 25.4055C33.7845 24.4257 34.9117 23.8167 36.1202 23.8167C36.895 23.8167 37.6162 24.0661 38.2107 24.506C38.2025 24.6204 38.1819 24.7317 38.1819 24.8481C38.1819 26.8026 39.5491 28.4428 41.3779 28.8642C41.5541 29.6277 41.9518 30.3015 42.4865 30.8383L42.8822 31.574ZM17.5756 22.7875C17.5756 20.9009 19.8557 19.2545 20.9447 18.6549C21.1951 18.6497 21.4486 18.6446 21.6742 18.624C22.9909 18.524 25.2102 18.185 26.6073 17.0805L27.5089 19.7841C27.5109 19.7913 27.513 19.7985 27.515 19.8068C26.9731 19.7377 26.4075 19.6965 25.8171 19.6965C21.837 19.6965 18.812 21.3594 18.6234 23.5973L18.1516 25.0109C17.7003 23.9445 17.5756 23.2346 17.5756 22.7875ZM30.9697 18.6662V17.9429C30.9697 17.1671 31.0944 16.3985 31.3385 15.6628L32.2782 12.846C33.2178 13.6094 34.6088 14.1627 36.2686 14.4058C35.6792 15.432 35.0909 16.8941 35.0909 18.6662C35.0909 19.5183 35.2311 20.5671 35.5062 21.7922C34.5274 21.9004 33.6063 22.2682 32.8315 22.8307C32.5801 22.2022 32.0979 21.6356 31.423 21.1647C31.1284 20.3672 30.9697 19.5306 30.9697 18.6662ZM44.1227 12.9593L45.0232 15.6618C45.2364 16.3016 45.3405 16.9662 45.3694 17.6379C43.4262 17.6493 41.7973 19.0114 41.3769 20.8309C40.36 21.0658 39.4955 21.686 38.9206 22.5196C38.5312 22.2939 38.1159 22.1229 37.6801 21.9982C37.3401 20.6485 37.1516 19.4966 37.1516 18.6662C37.1516 16.6488 38.1912 15.1229 38.6713 14.5243C38.8444 14.5171 39.0288 14.5171 39.1906 14.5027C40.5073 14.4028 42.7266 14.0638 44.1227 12.9593ZM29.4881 24.572C28.704 23.5241 26.8938 22.7875 24.7878 22.7875V24.8481C26.2869 24.8481 27.2976 25.3117 27.6881 25.6342C27.5233 25.6991 27.2338 25.7723 26.8093 25.8228C26.5682 25.8444 26.3621 25.8588 26.1983 25.866C26.0736 25.8712 25.9613 25.8784 25.8181 25.8784H25.8171C22.6726 25.8784 20.6655 24.6575 20.6655 23.8178C20.6655 22.9781 22.6726 21.7571 25.8171 21.7571C28.9616 21.7571 30.9687 22.9781 30.9676 23.8981V23.996C30.4453 24.1196 29.9476 24.3144 29.4881 24.572ZM18.7883 33.5862C18.6801 33.0865 18.6059 32.5785 18.6059 32.0603V31.337C18.6059 30.5612 18.7306 29.7926 18.9748 29.0569L19.9144 26.24C20.8541 27.0035 22.245 27.5568 23.9048 27.7999C23.3155 28.8261 22.7272 30.2881 22.7272 32.0603C22.7272 32.8 22.8436 33.7005 23.0507 34.7216C21.6587 34.2404 20.2359 33.8541 18.7883 33.5862ZM25.3802 35.6396C24.998 34.1807 24.7878 32.9412 24.7878 32.0603C24.7878 30.0501 25.8212 28.5273 26.3024 27.9236C26.3364 27.9215 26.3642 27.9215 26.4013 27.9194C26.5558 27.9122 26.7042 27.9019 26.8484 27.8885C26.8886 27.8854 26.935 27.8803 26.9772 27.8762C26.7423 28.923 26.8495 30.0275 27.3152 31.03C26.6156 32.5332 26.7052 34.2713 27.5861 35.6932C27.9921 36.3484 28.5423 36.8924 29.178 37.3138C29.1161 37.3715 29.0585 37.4313 29.0008 37.4931L27.4903 36.6699C26.8031 36.2949 26.0953 35.958 25.3802 35.6396ZM32 42.3634C30.8636 42.3634 29.9394 41.4392 29.9394 40.3028C29.9394 39.1664 30.8636 38.2422 32 38.2422C33.1364 38.2422 34.0606 39.1664 34.0606 40.3028C34.0606 41.4392 33.1364 42.3634 32 42.3634ZM30.9697 51.6249C29.69 51.5631 28.5546 50.8161 28.0003 49.6776L30.9697 44.9248V51.6249ZM33.0303 44.2777C33.0746 44.2664 33.1158 44.2499 33.1591 44.2376L37.065 50.7471C36.4643 52.4636 34.8674 53.6433 33.0303 53.6948V44.2777ZM43.3335 27.939V26.9087H42.3031C41.1667 26.9087 40.2425 25.9845 40.2425 24.8481C40.2425 23.7116 41.1667 22.7875 42.3031 22.7875H43.3335V21.7571C43.3335 20.6207 44.2576 19.6965 45.3941 19.6965C46.5305 19.6965 47.4547 20.6207 47.4547 21.7571V22.7875H48.485C49.6215 22.7875 50.5456 23.7116 50.5456 24.8481C50.5456 25.9845 49.6215 26.9087 48.485 26.9087H47.4547V27.939C47.4547 29.0755 46.5305 29.9996 45.3941 29.9996C44.2576 29.9996 43.3335 29.0755 43.3335 27.939ZM38.1819 8.36306C41.3264 8.36306 43.3335 9.58398 43.3335 10.4237C43.3335 10.9996 42.8533 11.4324 42.1651 11.7476C41.6901 10.4062 39.6223 9.39337 37.1516 9.39337V11.454C38.6507 11.454 39.6614 11.9176 40.0519 12.2401C39.8716 12.3112 39.5646 12.3957 39.07 12.4452C38.7444 12.4719 38.4415 12.4843 38.1809 12.4853C35.0363 12.4853 33.0303 11.2644 33.0303 10.4247C33.0303 9.58501 35.0374 8.36306 38.1819 8.36306ZM18.6059 2.33675C23.5401 3.17955 27.989 5.88927 31.0325 9.88586C31.0109 9.98992 30.9975 10.096 30.9882 10.2042L29.384 15.0127C29.1141 15.8256 28.9647 16.6684 28.9266 17.5215L27.8612 14.3255C27.7757 13.3075 27.1029 12.4101 26.019 11.7332C23.6421 7.59959 21.5866 4.78375 21.499 4.66423L19.8371 5.88309C19.8536 5.90576 21.2136 7.7696 22.9652 10.6256C22.2491 10.4968 21.4795 10.4257 20.6686 10.4257C19.9464 10.4257 19.2571 10.4834 18.608 10.5865V2.33675H18.6059ZM20.6665 12.4843C23.8111 12.4843 25.8181 13.7052 25.8181 14.5449C25.8181 15.1209 25.338 15.5536 24.6497 15.8689C24.1748 14.5274 22.1069 13.5146 19.6362 13.5146V15.5753C21.1353 15.5753 22.1461 16.0389 22.5366 16.3614C22.3563 16.4325 22.0492 16.517 21.5547 16.5664C21.2291 16.5932 20.9262 16.6056 20.6655 16.6066C17.521 16.6066 15.515 15.3857 15.515 14.546C15.515 13.7063 17.522 12.4843 20.6665 12.4843ZM13.4544 22.0652C13.4544 21.2894 13.579 20.5208 13.8232 19.7851L14.7628 16.9682C15.5253 17.5875 16.5814 18.0717 17.8404 18.3612C16.6741 19.408 15.515 20.9174 15.515 22.7875C15.515 24.0826 16.0981 25.7578 17.2346 27.7639L17.0203 28.4058C16.9646 28.5737 16.9193 28.7437 16.874 28.9137C14.767 27.6155 13.4544 25.3313 13.4544 22.7875V22.0652ZM2.16108 22.7875H11.3937C11.3937 26.034 13.0597 28.9487 15.7324 30.623C10.9435 29.197 8.72727 26.9479 6.57804 24.7646L5.94027 24.1196L4.48341 25.5765L5.10881 26.2091C7.53932 28.6798 10.2923 31.4637 16.6133 32.9886C16.6226 33.0844 16.6226 33.1813 16.6349 33.276C15.5799 33.1607 14.5187 33.0906 13.4544 33.0906H12.424V34.7916C6.80471 33.4594 2.6103 28.5655 2.16108 22.7875ZM14.4847 35.1708C18.6801 35.3305 22.8158 36.4659 26.5053 38.4791L27.9601 39.2725H20.6665V41.3331H27.9601L26.5053 42.1264C22.8158 44.1397 18.6801 45.2751 14.4847 45.4348V35.1708ZM49.5164 61.9394H14.4847V59.8787H49.5153L49.5164 61.9394ZM45.3941 57.8181H18.6059V47.0483C21.7072 46.4929 24.7177 45.4492 27.4913 43.9357L29.0018 43.1125C29.1347 43.2536 29.28 43.3783 29.4314 43.4999L25.7182 49.4417L25.8717 49.9022C26.6104 52.1184 28.6474 53.6144 30.9697 53.6845V55.7585H32.9036C35.8781 55.7585 38.4601 53.7422 39.1813 50.8573L39.2853 50.4431L34.9343 43.1918C34.958 43.1681 34.9755 43.1382 34.9992 43.1135L36.5097 43.9367C39.2833 45.4502 42.2939 46.495 45.3951 47.0493V57.8181H45.3941ZM49.5153 45.4348C45.3199 45.2751 41.1842 44.1397 37.4947 42.1264L36.0399 41.3331H43.3335V39.2725H36.0399L37.4947 38.4791C41.1842 36.4659 45.3199 35.3305 49.5153 35.1708V45.4348ZM51.576 34.7916V33.0906H50.5456C48.8096 33.0906 47.0797 33.2544 45.3766 33.5594C45.424 33.0525 45.3827 32.5445 45.2715 32.0489C45.3127 32.05 45.3518 32.0592 45.3941 32.0592C47.3475 32.0592 48.9888 30.692 49.4102 28.8632C51.239 28.4428 52.6063 26.8026 52.6063 24.8481C52.6063 24.1083 52.4095 23.4149 52.0664 22.8142C52.2467 22.807 52.426 22.7875 52.6063 22.7875H61.8389C61.3897 28.5655 57.1953 33.4594 51.576 34.7916Z" fill="#3A3D46"/>
        </g>
        <defs>
            <clipPath id="clip0_173_799">
                <rect width="64" height="64" fill="white"/>
            </clipPath>
        </defs>
    </svg>

    <svg id="callback" width="74" height="74" viewBox="0 0 74 74" fill="none" xmlns="http://www.w3.org/2000/svg">
        <rect opacity="0.1" width="74" height="74" rx="5" fill="white"/>
        <path d="M40.7829 27.1162C42.2764 27.4076 43.649 28.138 44.7249 29.2139C45.8009 30.2899 46.5313 31.6624 46.8227 33.1559M40.7829 21C43.8858 21.3447 46.7792 22.7342 48.9881 24.9404C51.1971 27.1465 52.5902 30.0382 52.9388 33.1406M51.4098 45.3424V49.9295C51.4115 50.3553 51.3243 50.7769 51.1537 51.167C50.9831 51.5572 50.7329 51.9075 50.4191 52.1953C50.1053 52.4832 49.7348 52.7024 49.3314 52.8388C48.928 52.9752 48.5006 53.0259 48.0765 52.9876C43.3714 52.4763 38.8518 50.8686 34.8808 48.2934C31.1864 45.9458 28.0542 42.8136 25.7066 39.1192C23.1225 35.1302 21.5143 30.5886 21.0124 25.8624C20.9742 25.4395 21.0245 25.0134 21.16 24.611C21.2955 24.2087 21.5133 23.839 21.7995 23.5254C22.0857 23.2118 22.4341 22.9613 22.8225 22.7898C23.2108 22.6182 23.6307 22.5294 24.0552 22.529H28.6423C29.3844 22.5217 30.1038 22.7845 30.6664 23.2684C31.2291 23.7523 31.5966 24.4242 31.7004 25.159C31.894 26.627 32.2531 28.0684 32.7708 29.4556C32.9765 30.0029 33.021 30.5977 32.899 31.1695C32.7771 31.7413 32.4938 32.2662 32.0827 32.6819L30.1408 34.6238C32.3175 38.4518 35.487 41.6214 39.3151 43.798L41.2569 41.8562C41.6727 41.445 42.1975 41.1617 42.7693 41.0398C43.3412 40.9178 43.9359 40.9624 44.4832 41.1681C45.8705 41.6857 47.3118 42.0448 48.7798 42.2384C49.5226 42.3432 50.2009 42.7173 50.6858 43.2896C51.1707 43.8619 51.4284 44.5925 51.4098 45.3424Z" stroke="white" stroke-width="2" stroke-linecap="round" stroke-linejoin="round"/>
    </svg>

    <svg id="book" width="32" height="33" viewBox="0 0 32 33" fill="none" xmlns="http://www.w3.org/2000/svg">
        <path d="M29.3333 4.34375H21.3333C19.9188 4.34375 18.5623 4.90565 17.5621 5.90585C16.5619 6.90604 16 8.2626 16 9.67708V28.3438C16 27.2829 16.4214 26.2655 17.1716 25.5153C17.9217 24.7652 18.9391 24.3438 20 24.3438H29.3333V4.34375Z" stroke="#A4C5D8" stroke-width="2" stroke-linecap="round" stroke-linejoin="round"/>
        <path d="M2.66666 4.34375H10.6667C12.0811 4.34375 13.4377 4.90565 14.4379 5.90585C15.4381 6.90604 16 8.2626 16 9.67708V28.3438C16 27.2829 15.5786 26.2655 14.8284 25.5153C14.0783 24.7652 13.0609 24.3438 12 24.3438H2.66666V4.34375Z" stroke="#A4C5D8" stroke-width="2" stroke-linecap="round" stroke-linejoin="round"/>
    </svg>
</svg>