<svg>
    <svg id="emblem" width="56" height="56" fill="none" xmlns="http://www.w3.org/2000/svg">
        <path d="M23.3739 56L22.4609 55.087C22.4 55.0261 18.8087 51.4957 12.9043 51.4957H7.48696C3.34783 51.4957 0 47.2957 0 42.1826V1.33913H40.4783V4.01739H2.73913V42.1826C2.73913 45.8348 4.86957 48.7565 7.48696 48.7565H12.9043C18.1391 48.7565 21.8522 51.0696 23.4348 52.3478C25.1391 51.0696 28.9739 48.7565 33.9043 48.7565H39.3217C41.9391 48.7565 44.0696 45.7739 44.0696 42.1826V28H46.8696V42.1826C46.8696 47.2957 43.5217 51.4957 39.3826 51.4957H33.9652C28.4261 51.4957 24.4087 55.087 24.3478 55.1478L23.3739 56Z" fill="#C20D19"/>
        <path d="M23.313 38.0435L8.33911 24.287L10.1652 22.3391L23.1304 34.2087L53.4435 0L55.513 1.82609L23.313 38.0435Z" fill="#244B90"/>
    </svg>

    <svg id="phone" width="19" height="18" viewBox="0 0 19 18" fill="none" xmlns="http://www.w3.org/2000/svg">
        <path d="M4.61744 7.79C6.05744 10.62 8.37744 12.93 11.2074 14.38L13.4074 12.18C13.6774 11.91 14.0774 11.82 14.4274 11.94C15.5474 12.31 16.7574 12.51 17.9974 12.51C18.5474 12.51 18.9974 12.96 18.9974 13.51V17C18.9974 17.55 18.5474 18 17.9974 18C8.60744 18 0.997437 10.39 0.997437 1C0.997437 0.45 1.44744 0 1.99744 0H5.49744C6.04744 0 6.49744 0.45 6.49744 1C6.49744 2.25 6.69744 3.45 7.06744 4.57C7.17744 4.92 7.09744 5.31 6.81744 5.59L4.61744 7.79Z" fill="#85878E"/>
    </svg>

    <svg id="star" width="28" height="28" viewBox="0 0 28 28" fill="none" xmlns="http://www.w3.org/2000/svg">
        <path d="M14 2.33334L17.605 9.63668L25.6667 10.815L19.8333 16.4967L21.21 24.5233L14 20.7317L6.79001 24.5233L8.16668 16.4967L2.33334 10.815L10.395 9.63668L14 2.33334Z" stroke="#A4C5D8" stroke-width="2" stroke-linecap="round" stroke-linejoin="round"/>
    </svg>

    <svg id="check" width="19" height="15" viewBox="0 0 19 15" fill="none" xmlns="http://www.w3.org/2000/svg">
        <path d="M17.5 2L6.5 13L1.5 8" stroke="#8BC34A" stroke-width="2" stroke-linecap="square"/>
    </svg>

    <svg id="arrow-right" width="67" height="40" viewBox="0 0 67 40" fill="none" xmlns="http://www.w3.org/2000/svg">
        <path d="M19 20L59 20" stroke="#A4C5D8" stroke-width="3" stroke-linecap="round" stroke-linejoin="round"/>
        <path d="M47 8.33325L58.6667 19.9999L47 31.6666" stroke="#A4C5D8" stroke-width="3" stroke-linecap="round" stroke-linejoin="round"/>
    </svg>

    <svg id="play" width="104" height="104" viewBox="0 0 104 104" fill="none" xmlns="http://www.w3.org/2000/svg">
        <g filter="url(#filter0_b_831_4627)">
            <rect x="2" y="2" width="100" height="100" rx="5" fill="white" fill-opacity="0.2"/>
            <rect x="1" y="1" width="102" height="102" rx="6" stroke="white" stroke-width="2"/>
        </g>
        <path d="M68 53L38 74L38 32L68 53Z" fill="white"/>
        <defs>
            <filter id="filter0_b_831_4627" x="-10" y="-10" width="124" height="124" filterUnits="userSpaceOnUse" color-interpolation-filters="sRGB">
                <feFlood flood-opacity="0" result="BackgroundImageFix"/>
                <feGaussianBlur in="BackgroundImage" stdDeviation="5"/>
                <feComposite in2="SourceAlpha" operator="in" result="effect1_backgroundBlur_831_4627"/>
                <feBlend mode="normal" in="SourceGraphic" in2="effect1_backgroundBlur_831_4627" result="shape"/>
            </filter>
        </defs>
    </svg>

    <svg id="status" width="96" height="96" viewBox="0 0 96 96" fill="none" xmlns="http://www.w3.org/2000/svg">
        <path d="M47.8425 55.5C46.6335 55.5 45.429 55.2165 44.358 54.678C34.236 49.584 28.8705 45.5415 27.351 43.6275L26.9985 43.1835L27.0285 42.618C27.261 38.1495 29.058 25.305 30.66 14.775L30.8535 13.5H33.5145C38.253 13.5 42.7095 11.655 46.0605 8.30397C47.0925 7.26897 48.9045 7.26747 49.9395 8.30547C53.2905 11.655 57.747 13.5 62.4855 13.5H65.1195L65.307 14.7825C66.735 24.54 68.538 37.5495 68.922 42.099L68.9805 42.7875L68.493 43.2795C67.575 44.2065 63.648 47.757 51.672 54.492C50.5005 55.152 49.176 55.5 47.8425 55.5V55.5Z" fill="#A4C5D8"/>
        <path d="M94.5 53.8935V46.3935H93C91.908 46.3935 90.8535 46.5615 89.8635 46.8735C90.006 44.8635 89.574 42.837 88.5645 41.019L84.5595 33.81L83.229 34.608C78.867 37.2255 77.076 42.4365 78.6885 47.076C77.5395 46.6425 76.3005 46.395 75.0015 46.395H73.7145C74.9955 44.82 75 43.968 75 43.5C75 38.94 70.668 10.0065 70.4835 8.778L70.2915 7.5H62.484C59.3475 7.5 56.3985 6.279 54.18 4.0605C52.5315 2.409 50.3355 1.5 48 1.5C45.6645 1.5 43.4685 2.409 41.8185 4.0605C39.6 6.279 36.651 7.5 33.5145 7.5H25.7175L25.518 8.766C25.3335 9.9345 21 37.452 21 43.5C21 44.3925 21.354 45.36 22.017 46.3935H21C19.701 46.3935 18.462 46.641 17.313 47.0745C18.9255 42.4365 17.1345 37.2255 12.7725 34.6065L11.442 33.81L7.437 41.0205C6.4275 42.8385 5.9955 44.8635 6.138 46.8735C5.1465 46.563 4.0935 46.3935 3.0015 46.3935H1.5V53.8935C1.5 56.7885 2.6775 59.4135 4.5795 61.3155C4.395 61.3665 4.209 61.41 4.0245 61.4715L2.601 61.944L4.575 67.8675C5.5035 70.65 7.4595 72.906 10.0845 74.2185C10.3845 74.3685 10.692 74.4915 10.9995 74.613C9.8955 75.1755 8.859 75.9105 7.9365 76.833L6.876 77.8935L10.9365 81.954C13.2255 84.24 16.266 85.5 19.5 85.5C22.227 85.5 24.8115 84.594 26.928 82.941L27 83.0145L27.567 82.4475C30.8685 82.7235 36.2205 85.3275 41.433 87.8805C42.4065 88.3575 43.3845 88.833 44.361 89.304C41.2035 90.6 38.2935 91.5 36 91.5V94.5C39.387 94.5 43.596 92.9775 48 91.0005C52.404 92.9775 56.613 94.5 60 94.5V91.5C57.7065 91.5 54.7965 90.6 51.6375 89.304C52.614 88.833 53.592 88.3575 54.5655 87.8805C59.778 85.3275 65.1315 82.722 68.4315 82.4475L69 83.0145L69.072 82.9425C71.1885 84.594 73.773 85.5 76.5 85.5C79.734 85.5 82.7745 84.24 85.0605 81.954L89.121 77.8935L88.0605 76.833C87.138 75.9105 86.1015 75.1755 84.9975 74.613C85.305 74.4915 85.6125 74.3685 85.9125 74.2185C88.5375 72.906 90.495 70.65 91.422 67.8675L93.396 61.944L91.9725 61.4715C91.7895 61.41 91.6035 61.3665 91.4175 61.3155C93.3225 59.4135 94.5 56.7885 94.5 53.8935V53.8935ZM91.5 53.8935C91.5 57.516 88.9185 60.546 85.5 61.242V56.8935C85.5 53.271 88.0815 50.241 91.5 49.545V53.8935ZM83.5185 38.1165L85.941 42.4755C87.012 44.403 87.174 46.659 86.4225 48.72C85.545 49.4265 84.7875 50.2725 84.1755 51.222C84.066 50.9955 83.9745 50.763 83.853 50.5425L82.0575 47.31C80.331 44.2005 81.0075 40.431 83.5185 38.1165V38.1165ZM76.5 49.5435C79.9185 50.241 82.5 53.2695 82.5 56.892V62.6955C82.32 62.8125 82.1475 62.9355 81.975 63.063C81.573 59.637 79.6515 56.454 76.557 54.552C76.5375 54.3315 76.5 54.114 76.5 53.8935V49.5435ZM78.0765 68.418L76.3065 73.728C76.2465 73.7445 76.1835 73.755 76.1235 73.773C76.437 72.6885 76.605 71.5545 76.605 70.3935C76.605 67.6125 75.6675 64.9755 73.9515 62.838C73.9605 61.536 74.253 60.24 74.841 59.0655L75.6105 57.525C78.6255 59.7675 79.8135 63.768 78.507 67.332C78.348 67.683 78.201 68.0445 78.0765 68.418ZM67.3935 73.3935C67.3935 70.962 68.34 68.6745 70.0605 66.954L71.913 65.1015C73.0125 66.6345 73.605 68.469 73.605 70.3935C73.605 72.8265 72.6585 75.1125 70.938 76.833L69.0855 78.6855C67.986 77.1525 67.3935 75.318 67.3935 73.3935ZM28.284 10.5H33.5145C37.452 10.5 41.154 8.967 43.9395 6.1815C46.1085 4.0125 49.8915 4.0125 52.0605 6.1815C54.8445 8.967 58.548 10.5 62.4855 10.5H67.707C69.2955 21.1545 71.997 40.1505 72 43.4955C71.9085 44.589 67.854 48.837 53.142 57.1065C50.0565 58.8435 46.137 58.929 43.014 57.3585C29.8785 50.751 24 45.636 24 43.5C24 38.397 27.417 16.08 28.284 10.5V10.5ZM26.913 78.6855L25.0605 76.833C23.3415 75.114 22.3935 72.8265 22.3935 70.3935C22.3935 68.469 22.986 66.6345 24.0855 65.1015L25.938 66.954C27.657 68.673 28.605 70.962 28.605 73.3935C28.6065 75.318 28.014 77.1525 26.913 78.6855V78.6855ZM19.8765 73.773C19.8165 73.755 19.7535 73.7445 19.6935 73.728L17.9235 68.418C17.799 68.0445 17.6535 67.683 17.4915 67.329C16.185 63.7665 17.3745 59.7645 20.388 57.522L21.1575 59.0625C21.7455 60.237 22.038 61.533 22.047 62.835C20.331 64.974 19.3935 67.6095 19.3935 70.3905C19.3935 71.5545 19.563 72.6885 19.8765 73.773ZM19.5 53.8935C19.5 54.114 19.4625 54.333 19.443 54.552C16.3485 56.454 14.427 59.6385 14.025 63.063C13.8525 62.937 13.68 62.814 13.5 62.697V56.8935C13.5 53.271 16.0815 50.241 19.5 49.545V53.8935ZM10.059 42.4755L12.4815 38.115C14.9925 40.4295 15.669 44.2005 13.9425 47.3085L12.147 50.541C12.0255 50.76 11.934 50.994 11.8245 51.2205C11.2125 50.271 10.455 49.425 9.5775 48.7185C8.8245 46.659 8.988 44.403 10.059 42.4755V42.4755ZM4.5 53.8935V49.545C7.9185 50.2425 10.5 53.271 10.5 56.8935V61.242C7.0815 60.5445 4.5 57.516 4.5 53.8935V53.8935ZM7.4235 66.918L6.4425 63.975C9.828 63.525 13.1595 65.316 14.664 68.4195C14.7885 68.754 14.934 69.084 15.0915 69.4125L16.0575 72.3105C12.3405 72.81 8.6535 70.611 7.4235 66.918V66.918ZM19.5 82.5C17.067 82.5 14.781 81.552 13.0605 79.833L11.2095 77.982C14.7645 75.441 19.7505 75.765 22.9395 78.954L24.792 80.8065C23.259 81.906 21.4245 82.5 19.5 82.5V82.5ZM53.247 85.1865C51.4965 86.0445 49.7325 86.9025 48 87.7065C46.2675 86.9025 44.5035 86.0445 42.753 85.1865C37.9755 82.8465 33.42 80.6295 29.7765 79.7775C30.9615 77.8785 31.6065 75.6885 31.6065 73.3935C31.6065 70.161 30.348 67.119 28.0605 64.833L24.9975 61.77C24.8595 60.369 24.477 58.992 23.8425 57.723L22.416 54.87C22.446 54.543 22.5 54.219 22.5 53.8935V47.085C25.212 50.6475 31.614 54.984 41.6655 60.0405C43.566 60.9945 45.7035 61.5 47.8425 61.5C50.2035 61.5 52.545 60.885 54.6135 59.7225C66.4695 53.0565 71.4255 49.059 73.5015 46.6455V53.892C73.5015 54.219 73.5555 54.5415 73.587 54.8685L72.1605 57.7215C71.526 58.9905 71.1435 60.3675 71.0055 61.7685L67.9425 64.8315C65.6565 67.1175 64.3965 70.1595 64.3965 73.392C64.3965 75.687 65.0415 77.877 66.2265 79.776C62.58 80.6295 58.0245 82.8465 53.247 85.1865V85.1865ZM82.9395 79.833C81.219 81.552 78.933 82.5 76.5 82.5C74.5755 82.5 72.741 81.906 71.208 80.8065L73.0605 78.954C76.251 75.765 81.237 75.4395 84.7905 77.982L82.9395 79.833ZM88.5765 66.918C87.3465 70.6095 83.652 72.807 79.9425 72.3105L80.9085 69.4125C81.066 69.0855 81.2115 68.7555 81.336 68.421C82.8405 65.3145 86.1795 63.5205 89.5575 63.975L88.5765 66.918Z" fill="#3A3D46"/>
        <path d="M38.079 41.595L41.178 43.9035L48 38.298L54.8205 43.905L57.9195 41.5965L54.5505 33.8445L61.8465 29.0475L60.426 25.5045L52.1385 25.5L50.0415 18H45.954L43.8885 25.4925L35.5695 25.506L34.152 29.046L41.448 33.843L38.079 41.595ZM38.7825 28.5L46.1745 28.4895L48.0045 21.855L49.8615 28.5L57.2145 28.5015L50.7945 32.724L53.49 38.928L48 34.4145L42.51 38.928L45.2055 32.724L38.7825 28.5Z" fill="#3A3D46"/>
    </svg>

    <svg id="base-1" width="64" height="64" viewBox="0 0 64 64" fill="none" xmlns="http://www.w3.org/2000/svg">
        <g clip-path="url(#clip0_173_799)">
            <path d="M45.3941 27.9392C43.6899 27.9392 42.3031 26.5524 42.3031 24.8483C42.3031 23.1441 43.6899 21.7573 45.3941 21.7573C47.0982 21.7573 48.485 23.1441 48.485 24.8483C48.485 26.5524 47.0982 27.9392 45.3941 27.9392Z" fill="#A4C5D8"/>
            <path d="M36.1213 34.1208C34.4171 34.1208 33.0303 32.734 33.0303 31.0299C33.0303 29.3258 34.4171 27.939 36.1213 27.939C37.8254 27.939 39.2122 29.3258 39.2122 31.0299C39.2122 32.734 37.8254 34.1208 36.1213 34.1208Z" fill="#A4C5D8"/>
            <path d="M56.6266 20.7268C57.3653 18.6384 57.7578 16.4613 57.7578 14.2225V2.06063L56.6142 2.18839C51.9149 2.70973 47.5093 4.77035 44.0732 7.99214C42.7894 6.95565 40.6742 6.30243 38.1819 6.30243C35.6473 6.30243 33.5001 6.97729 32.2236 8.04366C28.6144 3.62361 23.3876 0.759341 17.69 0.126729L16.5453 0V11.1222C14.7495 11.8125 13.5883 12.9624 13.4729 14.3245L11.8687 19.1329C11.6956 19.6553 11.574 20.19 11.4947 20.7309C11.4607 20.7309 11.4277 20.7279 11.3937 20.7279H0.0602722V21.7582C0.0602722 29.0961 5.31899 35.4376 12.424 36.8873V47.516H13.4544C14.4888 47.516 15.5191 47.449 16.5453 47.3388V57.8192H14.4847C13.3482 57.8192 12.424 58.7433 12.424 59.8798V61.9404C12.424 63.0768 13.3482 64.001 14.4847 64.001H49.5153C50.6518 64.001 51.576 63.0768 51.576 61.9404V59.8798C51.576 58.7433 50.6518 57.8192 49.5153 57.8192H47.4547V47.3388C48.4809 47.448 49.5112 47.516 50.5456 47.516H51.576V36.8873C58.681 35.4376 63.9397 29.095 63.9397 21.7582V20.7279H56.6266V20.7268ZM55.6972 14.2225C55.6972 16.4716 55.2542 18.6528 54.4217 20.7268H52.6063C51.6883 20.7268 50.7713 20.8196 49.8728 20.9803C49.7204 20.9257 49.5699 20.868 49.4102 20.8309C49.1506 19.7058 48.4263 18.7579 47.4547 18.1933V17.9429C47.4547 17.199 47.3651 16.4613 47.1889 15.7411C50.7816 11.1954 54.2754 8.14257 54.3114 8.11063L52.9607 6.55383C52.8206 6.67643 49.8152 9.29961 46.4378 13.391L45.3745 10.2032C45.359 10.026 45.3292 9.85083 45.2787 9.68186C48.1419 6.92062 51.7789 5.06708 55.6952 4.39738V14.2225H55.6972ZM42.8822 31.574C43.3592 32.3416 43.4344 33.2369 43.147 34.0467C40.8411 34.6484 38.6074 35.5252 36.5087 36.6699L34.9982 37.4931C34.2595 36.7049 33.222 36.2052 32.0628 36.1877V36.1836C30.9254 36.1135 29.9064 35.5252 29.3387 34.6093C28.7555 33.6676 28.7628 32.5332 29.3603 31.574L29.6983 31.03L29.3603 30.486C28.7638 29.5267 28.7555 28.3913 29.3387 27.4507C29.9322 26.4904 31.0665 25.8949 32.2967 25.8949H32.3008H32.8768L33.1787 25.4055C33.7845 24.4257 34.9117 23.8167 36.1202 23.8167C36.895 23.8167 37.6162 24.0661 38.2107 24.506C38.2025 24.6204 38.1819 24.7317 38.1819 24.8481C38.1819 26.8026 39.5491 28.4428 41.3779 28.8642C41.5541 29.6277 41.9518 30.3015 42.4865 30.8383L42.8822 31.574ZM17.5756 22.7875C17.5756 20.9009 19.8557 19.2545 20.9447 18.6549C21.1951 18.6497 21.4486 18.6446 21.6742 18.624C22.9909 18.524 25.2102 18.185 26.6073 17.0805L27.5089 19.7841C27.5109 19.7913 27.513 19.7985 27.515 19.8068C26.9731 19.7377 26.4075 19.6965 25.8171 19.6965C21.837 19.6965 18.812 21.3594 18.6234 23.5973L18.1516 25.0109C17.7003 23.9445 17.5756 23.2346 17.5756 22.7875ZM30.9697 18.6662V17.9429C30.9697 17.1671 31.0944 16.3985 31.3385 15.6628L32.2782 12.846C33.2178 13.6094 34.6088 14.1627 36.2686 14.4058C35.6792 15.432 35.0909 16.8941 35.0909 18.6662C35.0909 19.5183 35.2311 20.5671 35.5062 21.7922C34.5274 21.9004 33.6063 22.2682 32.8315 22.8307C32.5801 22.2022 32.0979 21.6356 31.423 21.1647C31.1284 20.3672 30.9697 19.5306 30.9697 18.6662ZM44.1227 12.9593L45.0232 15.6618C45.2364 16.3016 45.3405 16.9662 45.3694 17.6379C43.4262 17.6493 41.7973 19.0114 41.3769 20.8309C40.36 21.0658 39.4955 21.686 38.9206 22.5196C38.5312 22.2939 38.1159 22.1229 37.6801 21.9982C37.3401 20.6485 37.1516 19.4966 37.1516 18.6662C37.1516 16.6488 38.1912 15.1229 38.6713 14.5243C38.8444 14.5171 39.0288 14.5171 39.1906 14.5027C40.5073 14.4028 42.7266 14.0638 44.1227 12.9593ZM29.4881 24.572C28.704 23.5241 26.8938 22.7875 24.7878 22.7875V24.8481C26.2869 24.8481 27.2976 25.3117 27.6881 25.6342C27.5233 25.6991 27.2338 25.7723 26.8093 25.8228C26.5682 25.8444 26.3621 25.8588 26.1983 25.866C26.0736 25.8712 25.9613 25.8784 25.8181 25.8784H25.8171C22.6726 25.8784 20.6655 24.6575 20.6655 23.8178C20.6655 22.9781 22.6726 21.7571 25.8171 21.7571C28.9616 21.7571 30.9687 22.9781 30.9676 23.8981V23.996C30.4453 24.1196 29.9476 24.3144 29.4881 24.572ZM18.7883 33.5862C18.6801 33.0865 18.6059 32.5785 18.6059 32.0603V31.337C18.6059 30.5612 18.7306 29.7926 18.9748 29.0569L19.9144 26.24C20.8541 27.0035 22.245 27.5568 23.9048 27.7999C23.3155 28.8261 22.7272 30.2881 22.7272 32.0603C22.7272 32.8 22.8436 33.7005 23.0507 34.7216C21.6587 34.2404 20.2359 33.8541 18.7883 33.5862ZM25.3802 35.6396C24.998 34.1807 24.7878 32.9412 24.7878 32.0603C24.7878 30.0501 25.8212 28.5273 26.3024 27.9236C26.3364 27.9215 26.3642 27.9215 26.4013 27.9194C26.5558 27.9122 26.7042 27.9019 26.8484 27.8885C26.8886 27.8854 26.935 27.8803 26.9772 27.8762C26.7423 28.923 26.8495 30.0275 27.3152 31.03C26.6156 32.5332 26.7052 34.2713 27.5861 35.6932C27.9921 36.3484 28.5423 36.8924 29.178 37.3138C29.1161 37.3715 29.0585 37.4313 29.0008 37.4931L27.4903 36.6699C26.8031 36.2949 26.0953 35.958 25.3802 35.6396ZM32 42.3634C30.8636 42.3634 29.9394 41.4392 29.9394 40.3028C29.9394 39.1664 30.8636 38.2422 32 38.2422C33.1364 38.2422 34.0606 39.1664 34.0606 40.3028C34.0606 41.4392 33.1364 42.3634 32 42.3634ZM30.9697 51.6249C29.69 51.5631 28.5546 50.8161 28.0003 49.6776L30.9697 44.9248V51.6249ZM33.0303 44.2777C33.0746 44.2664 33.1158 44.2499 33.1591 44.2376L37.065 50.7471C36.4643 52.4636 34.8674 53.6433 33.0303 53.6948V44.2777ZM43.3335 27.939V26.9087H42.3031C41.1667 26.9087 40.2425 25.9845 40.2425 24.8481C40.2425 23.7116 41.1667 22.7875 42.3031 22.7875H43.3335V21.7571C43.3335 20.6207 44.2576 19.6965 45.3941 19.6965C46.5305 19.6965 47.4547 20.6207 47.4547 21.7571V22.7875H48.485C49.6215 22.7875 50.5456 23.7116 50.5456 24.8481C50.5456 25.9845 49.6215 26.9087 48.485 26.9087H47.4547V27.939C47.4547 29.0755 46.5305 29.9996 45.3941 29.9996C44.2576 29.9996 43.3335 29.0755 43.3335 27.939ZM38.1819 8.36306C41.3264 8.36306 43.3335 9.58398 43.3335 10.4237C43.3335 10.9996 42.8533 11.4324 42.1651 11.7476C41.6901 10.4062 39.6223 9.39337 37.1516 9.39337V11.454C38.6507 11.454 39.6614 11.9176 40.0519 12.2401C39.8716 12.3112 39.5646 12.3957 39.07 12.4452C38.7444 12.4719 38.4415 12.4843 38.1809 12.4853C35.0363 12.4853 33.0303 11.2644 33.0303 10.4247C33.0303 9.58501 35.0374 8.36306 38.1819 8.36306ZM18.6059 2.33675C23.5401 3.17955 27.989 5.88927 31.0325 9.88586C31.0109 9.98992 30.9975 10.096 30.9882 10.2042L29.384 15.0127C29.1141 15.8256 28.9647 16.6684 28.9266 17.5215L27.8612 14.3255C27.7757 13.3075 27.1029 12.4101 26.019 11.7332C23.6421 7.59959 21.5866 4.78375 21.499 4.66423L19.8371 5.88309C19.8536 5.90576 21.2136 7.7696 22.9652 10.6256C22.2491 10.4968 21.4795 10.4257 20.6686 10.4257C19.9464 10.4257 19.2571 10.4834 18.608 10.5865V2.33675H18.6059ZM20.6665 12.4843C23.8111 12.4843 25.8181 13.7052 25.8181 14.5449C25.8181 15.1209 25.338 15.5536 24.6497 15.8689C24.1748 14.5274 22.1069 13.5146 19.6362 13.5146V15.5753C21.1353 15.5753 22.1461 16.0389 22.5366 16.3614C22.3563 16.4325 22.0492 16.517 21.5547 16.5664C21.2291 16.5932 20.9262 16.6056 20.6655 16.6066C17.521 16.6066 15.515 15.3857 15.515 14.546C15.515 13.7063 17.522 12.4843 20.6665 12.4843ZM13.4544 22.0652C13.4544 21.2894 13.579 20.5208 13.8232 19.7851L14.7628 16.9682C15.5253 17.5875 16.5814 18.0717 17.8404 18.3612C16.6741 19.408 15.515 20.9174 15.515 22.7875C15.515 24.0826 16.0981 25.7578 17.2346 27.7639L17.0203 28.4058C16.9646 28.5737 16.9193 28.7437 16.874 28.9137C14.767 27.6155 13.4544 25.3313 13.4544 22.7875V22.0652ZM2.16108 22.7875H11.3937C11.3937 26.034 13.0597 28.9487 15.7324 30.623C10.9435 29.197 8.72727 26.9479 6.57804 24.7646L5.94027 24.1196L4.48341 25.5765L5.10881 26.2091C7.53932 28.6798 10.2923 31.4637 16.6133 32.9886C16.6226 33.0844 16.6226 33.1813 16.6349 33.276C15.5799 33.1607 14.5187 33.0906 13.4544 33.0906H12.424V34.7916C6.80471 33.4594 2.6103 28.5655 2.16108 22.7875ZM14.4847 35.1708C18.6801 35.3305 22.8158 36.4659 26.5053 38.4791L27.9601 39.2725H20.6665V41.3331H27.9601L26.5053 42.1264C22.8158 44.1397 18.6801 45.2751 14.4847 45.4348V35.1708ZM49.5164 61.9394H14.4847V59.8787H49.5153L49.5164 61.9394ZM45.3941 57.8181H18.6059V47.0483C21.7072 46.4929 24.7177 45.4492 27.4913 43.9357L29.0018 43.1125C29.1347 43.2536 29.28 43.3783 29.4314 43.4999L25.7182 49.4417L25.8717 49.9022C26.6104 52.1184 28.6474 53.6144 30.9697 53.6845V55.7585H32.9036C35.8781 55.7585 38.4601 53.7422 39.1813 50.8573L39.2853 50.4431L34.9343 43.1918C34.958 43.1681 34.9755 43.1382 34.9992 43.1135L36.5097 43.9367C39.2833 45.4502 42.2939 46.495 45.3951 47.0493V57.8181H45.3941ZM49.5153 45.4348C45.3199 45.2751 41.1842 44.1397 37.4947 42.1264L36.0399 41.3331H43.3335V39.2725H36.0399L37.4947 38.4791C41.1842 36.4659 45.3199 35.3305 49.5153 35.1708V45.4348ZM51.576 34.7916V33.0906H50.5456C48.8096 33.0906 47.0797 33.2544 45.3766 33.5594C45.424 33.0525 45.3827 32.5445 45.2715 32.0489C45.3127 32.05 45.3518 32.0592 45.3941 32.0592C47.3475 32.0592 48.9888 30.692 49.4102 28.8632C51.239 28.4428 52.6063 26.8026 52.6063 24.8481C52.6063 24.1083 52.4095 23.4149 52.0664 22.8142C52.2467 22.807 52.426 22.7875 52.6063 22.7875H61.8389C61.3897 28.5655 57.1953 33.4594 51.576 34.7916Z" fill="#3A3D46"/>
        </g>
        <defs>
            <clipPath id="clip0_173_799">
                <rect width="64" height="64" fill="white"/>
            </clipPath>
        </defs>
    </svg>

    <svg id="callback" width="74" height="74" viewBox="0 0 74 74" fill="none" xmlns="http://www.w3.org/2000/svg">
        <rect opacity="0.1" width="74" height="74" rx="5" fill="white"/>
        <path d="M40.7829 27.1162C42.2764 27.4076 43.649 28.138 44.7249 29.2139C45.8009 30.2899 46.5313 31.6624 46.8227 33.1559M40.7829 21C43.8858 21.3447 46.7792 22.7342 48.9881 24.9404C51.1971 27.1465 52.5902 30.0382 52.9388 33.1406M51.4098 45.3424V49.9295C51.4115 50.3553 51.3243 50.7769 51.1537 51.167C50.9831 51.5572 50.7329 51.9075 50.4191 52.1953C50.1053 52.4832 49.7348 52.7024 49.3314 52.8388C48.928 52.9752 48.5006 53.0259 48.0765 52.9876C43.3714 52.4763 38.8518 50.8686 34.8808 48.2934C31.1864 45.9458 28.0542 42.8136 25.7066 39.1192C23.1225 35.1302 21.5143 30.5886 21.0124 25.8624C20.9742 25.4395 21.0245 25.0134 21.16 24.611C21.2955 24.2087 21.5133 23.839 21.7995 23.5254C22.0857 23.2118 22.4341 22.9613 22.8225 22.7898C23.2108 22.6182 23.6307 22.5294 24.0552 22.529H28.6423C29.3844 22.5217 30.1038 22.7845 30.6664 23.2684C31.2291 23.7523 31.5966 24.4242 31.7004 25.159C31.894 26.627 32.2531 28.0684 32.7708 29.4556C32.9765 30.0029 33.021 30.5977 32.899 31.1695C32.7771 31.7413 32.4938 32.2662 32.0827 32.6819L30.1408 34.6238C32.3175 38.4518 35.487 41.6214 39.3151 43.798L41.2569 41.8562C41.6727 41.445 42.1975 41.1617 42.7693 41.0398C43.3412 40.9178 43.9359 40.9624 44.4832 41.1681C45.8705 41.6857 47.3118 42.0448 48.7798 42.2384C49.5226 42.3432 50.2009 42.7173 50.6858 43.2896C51.1707 43.8619 51.4284 44.5925 51.4098 45.3424Z" stroke="white" stroke-width="2" stroke-linecap="round" stroke-linejoin="round"/>
    </svg>

    <svg id="book" width="32" height="33" viewBox="0 0 32 33" fill="none" xmlns="http://www.w3.org/2000/svg">
        <path d="M29.3333 4.34375H21.3333C19.9188 4.34375 18.5623 4.90565 17.5621 5.90585C16.5619 6.90604 16 8.2626 16 9.67708V28.3438C16 27.2829 16.4214 26.2655 17.1716 25.5153C17.9217 24.7652 18.9391 24.3438 20 24.3438H29.3333V4.34375Z" stroke="#A4C5D8" stroke-width="2" stroke-linecap="round" stroke-linejoin="round"/>
        <path d="M2.66666 4.34375H10.6667C12.0811 4.34375 13.4377 4.90565 14.4379 5.90585C15.4381 6.90604 16 8.2626 16 9.67708V28.3438C16 27.2829 15.5786 26.2655 14.8284 25.5153C14.0783 24.7652 13.0609 24.3438 12 24.3438H2.66666V4.34375Z" stroke="#A4C5D8" stroke-width="2" stroke-linecap="round" stroke-linejoin="round"/>
    </svg>

    <svg id="review-star" width="24" height="24" viewBox="0 0 24 24" fill="none" xmlns="http://www.w3.org/2000/svg">
        <path d="M12 17L6.12199 20.59L7.71999 13.89L2.48999 9.41L9.35499 8.86L12 2.5L14.645 8.86L21.511 9.41L16.28 13.89L17.878 20.59L12 17Z" fill="#A4C5D8"/>
    </svg>

    <svg id="place" width="74" height="74" viewBox="0 0 74 74" fill="none" xmlns="http://www.w3.org/2000/svg">
        <rect opacity="0.1" width="74" height="74" rx="5" fill="white"/>
        <path d="M49 34.333C49 43.6663 37 51.6663 37 51.6663C37 51.6663 25 43.6663 25 34.333C25 31.1504 26.2643 28.0982 28.5147 25.8477C30.7652 23.5973 33.8174 22.333 37 22.333C40.1826 22.333 43.2348 23.5973 45.4853 25.8477C47.7357 28.0982 49 31.1504 49 34.333Z" stroke="white" stroke-width="2" stroke-linecap="round" stroke-linejoin="round"/>
        <path d="M37 38.333C39.2091 38.333 41 36.5421 41 34.333C41 32.1239 39.2091 30.333 37 30.333C34.7909 30.333 33 32.1239 33 34.333C33 36.5421 34.7909 38.333 37 38.333Z" stroke="white" stroke-width="2" stroke-linecap="round" stroke-linejoin="round"/>
    </svg>

    <svg id="contacts-place" width="24" height="24" viewBox="0 0 24 24" fill="none" xmlns="http://www.w3.org/2000/svg">
        <path d="M21 10C21 17 12 23 12 23C12 23 3 17 3 10C3 7.61305 3.94821 5.32387 5.63604 3.63604C7.32387 1.94821 9.61305 1 12 1C14.3869 1 16.6761 1.94821 18.364 3.63604C20.0518 5.32387 21 7.61305 21 10Z" stroke="#A4C5D8" stroke-width="2" stroke-linecap="round" stroke-linejoin="round"/>
        <path d="M12 13C13.6569 13 15 11.6569 15 10C15 8.34315 13.6569 7 12 7C10.3431 7 9 8.34315 9 10C9 11.6569 10.3431 13 12 13Z" stroke="#A4C5D8" stroke-width="2" stroke-linecap="round" stroke-linejoin="round"/>
    </svg>

    <svg id="contacts-phone" width="24" height="24" viewBox="0 0 24 24" fill="none" xmlns="http://www.w3.org/2000/svg">
        <path d="M22 16.9201V19.9201C22.0011 20.1986 21.9441 20.4743 21.8325 20.7294C21.7209 20.9846 21.5573 21.2137 21.3521 21.402C21.1468 21.5902 20.9046 21.7336 20.6407 21.8228C20.3769 21.912 20.0974 21.9452 19.82 21.9201C16.7428 21.5857 13.787 20.5342 11.19 18.8501C8.77382 17.3148 6.72533 15.2663 5.18999 12.8501C3.49997 10.2413 2.44824 7.27109 2.11999 4.1801C2.095 3.90356 2.12787 3.62486 2.21649 3.36172C2.30512 3.09859 2.44756 2.85679 2.63476 2.65172C2.82196 2.44665 3.0498 2.28281 3.30379 2.17062C3.55777 2.05843 3.83233 2.00036 4.10999 2.0001H7.10999C7.5953 1.99532 8.06579 2.16718 8.43376 2.48363C8.80173 2.80008 9.04207 3.23954 9.10999 3.7201C9.23662 4.68016 9.47144 5.62282 9.80999 6.5301C9.94454 6.88802 9.97366 7.27701 9.8939 7.65098C9.81415 8.02494 9.62886 8.36821 9.35999 8.6401L8.08999 9.9101C9.51355 12.4136 11.5864 14.4865 14.09 15.9101L15.36 14.6401C15.6319 14.3712 15.9751 14.1859 16.3491 14.1062C16.7231 14.0264 17.1121 14.0556 17.47 14.1901C18.3773 14.5286 19.3199 14.7635 20.28 14.8901C20.7658 14.9586 21.2094 15.2033 21.5265 15.5776C21.8437 15.9519 22.0122 16.4297 22 16.9201Z" stroke="#A4C5D8" stroke-width="2" stroke-linecap="round" stroke-linejoin="round"/>
    </svg>

    <svg id="contacts-mail" width="24" height="24" viewBox="0 0 24 24" fill="none" xmlns="http://www.w3.org/2000/svg">
        <path d="M4 4H20C21.1 4 22 4.9 22 6V18C22 19.1 21.1 20 20 20H4C2.9 20 2 19.1 2 18V6C2 4.9 2.9 4 4 4Z" stroke="#A4C5D8" stroke-width="2" stroke-linecap="round" stroke-linejoin="round"/>
        <path d="M22 6L12 13L2 6" stroke="#A4C5D8" stroke-width="2" stroke-linecap="round" stroke-linejoin="round"/>
    </svg>

    <svg id="contacts-addresses" width="24" height="24" viewBox="0 0 24 24" fill="none" xmlns="http://www.w3.org/2000/svg">
        <path d="M1 6V22L8 18L16 22L23 18V2L16 6L8 2L1 6Z" stroke="#A4C5D8" stroke-width="2" stroke-linecap="round" stroke-linejoin="round"/>
        <path d="M16 6V22" stroke="#A4C5D8" stroke-width="2" stroke-linecap="round" stroke-linejoin="round"/>
        <path d="M8 2V18" stroke="#A4C5D8" stroke-width="2" stroke-linecap="round" stroke-linejoin="round"/>
    </svg>

    <svg id="appstore" width="178" height="51" viewBox="0 0 178 51" fill="none" xmlns="http://www.w3.org/2000/svg">
        <path d="M178 45.5825C178 48.3282 175.709 50.5523 172.874 50.5523H5.13243C2.2995 50.5523 0 48.3282 0 45.5825V5.94993C0 3.2055 2.2995 0.973633 5.13243 0.973633H172.873C175.709 0.973633 177.999 3.2055 177.999 5.94993L178 45.5825Z" fill="black"/>
        <path d="M39.1707 25.4841C39.132 21.3326 42.6894 19.3129 42.852 19.2189C40.8374 16.3813 37.7147 15.9936 36.6174 15.9626C33.9947 15.696 31.4507 17.4787 30.1147 17.4787C28.752 17.4787 26.6947 15.9884 24.4774 16.0322C21.624 16.0747 18.9547 17.6706 17.4907 20.1489C14.4694 25.202 16.7227 32.6277 19.6174 36.7122C21.0654 38.7126 22.7574 40.9461 24.972 40.8675C27.1387 40.7812 27.948 39.5331 30.5627 39.5331C33.1534 39.5331 33.9134 40.8675 36.172 40.8173C38.4974 40.7812 39.9614 38.8079 41.3587 36.7895C43.032 34.4967 43.704 32.2387 43.7307 32.1228C43.676 32.1048 39.2147 30.4599 39.1707 25.4841Z" fill="white"/>
        <path d="M34.904 13.2757C36.0694 11.8679 36.8667 9.95249 36.6454 8.00879C34.9587 8.08092 32.8494 9.13585 31.6347 10.5128C30.56 11.7262 29.6 13.715 29.848 15.5852C31.7427 15.7218 33.688 14.6617 34.904 13.2757Z" fill="white"/>
        <path d="M70.5266 40.5811H67.4986L65.84 35.5461H60.0746L58.4946 40.5811H55.5466L61.2586 23.4395H64.7866L70.5266 40.5811ZM65.34 33.4336L63.84 28.9576C63.6813 28.5003 63.384 27.4235 62.9453 25.7284H62.892C62.7173 26.4574 62.436 27.5342 62.0493 28.9576L60.576 33.4336H65.34Z" fill="white"/>
        <path d="M85.2161 34.2487C85.2161 36.3509 84.6281 38.0125 83.4521 39.2323C82.3987 40.3181 81.0907 40.8604 79.5294 40.8604C77.844 40.8604 76.6333 40.2756 75.896 39.1061H75.8427V45.6173H73V32.2896C73 30.968 72.964 29.6117 72.8947 28.2205H75.3947L75.5533 30.1797H75.6067C76.5547 28.7036 77.9934 27.9668 79.924 27.9668C81.4334 27.9668 82.6934 28.5426 83.7014 29.6954C84.7121 30.8495 85.2161 32.3669 85.2161 34.2487ZM82.32 34.3492C82.32 33.1461 82.04 32.1543 81.4774 31.3738C80.8627 30.5597 80.0374 30.1527 79.0027 30.1527C78.3014 30.1527 77.664 30.3794 77.0947 30.8263C76.524 31.2771 76.1507 31.8658 75.976 32.5948C75.888 32.9349 75.844 33.2131 75.844 33.4321V35.493C75.844 36.3921 76.1293 37.1508 76.7 37.7703C77.2707 38.3899 78.012 38.699 78.924 38.699C79.9947 38.699 80.828 38.2997 81.424 37.5037C82.0214 36.7064 82.32 35.6553 82.32 34.3492Z" fill="white"/>
        <path d="M99.932 34.2487C99.932 36.3509 99.344 38.0125 98.1667 39.2323C97.1147 40.3181 95.8067 40.8604 94.2453 40.8604C92.56 40.8604 91.3493 40.2756 90.6133 39.1061H90.56V45.6173H87.7173V32.2896C87.7173 30.968 87.6813 29.6117 87.6119 28.2205H90.112L90.2706 30.1797H90.3239C91.2706 28.7036 92.7093 27.9668 94.6413 27.9668C96.1493 27.9668 97.4093 28.5426 98.42 29.6954C99.4267 30.8495 99.932 32.3669 99.932 34.2487ZM97.036 34.3492C97.036 33.1461 96.7547 32.1543 96.192 31.3738C95.5773 30.5597 94.7546 30.1527 93.7186 30.1527C93.016 30.1527 92.38 30.3794 91.8093 30.8263C91.2386 31.2771 90.8666 31.8658 90.692 32.5948C90.6053 32.9349 90.56 33.2131 90.56 33.4321V35.493C90.56 36.3921 90.8453 37.1508 91.4133 37.7703C91.984 38.3886 92.7253 38.699 93.64 38.699C94.7107 38.699 95.544 38.2997 96.14 37.5037C96.7373 36.7064 97.036 35.6553 97.036 34.3492Z" fill="white"/>
        <path d="M116.385 35.7733C116.385 37.2314 115.861 38.4177 114.809 39.3335C113.653 40.3343 112.044 40.8341 109.976 40.8341C108.067 40.8341 106.536 40.4786 105.377 39.7663L106.036 37.4774C107.284 38.2064 108.653 38.5723 110.145 38.5723C111.216 38.5723 112.049 38.3378 112.648 37.8715C113.244 37.4053 113.541 36.7793 113.541 35.9987C113.541 35.3031 113.296 34.7171 112.804 34.2418C112.315 33.7665 111.497 33.3246 110.356 32.9163C107.249 31.797 105.697 30.1573 105.697 28.001C105.697 26.5919 106.241 25.4365 107.331 24.5374C108.416 23.637 109.864 23.1875 111.675 23.1875C113.289 23.1875 114.631 23.4593 115.701 24.0016L114.991 26.2402C113.991 25.7147 112.86 25.4519 111.595 25.4519C110.595 25.4519 109.813 25.6902 109.253 26.1642C108.78 26.588 108.543 27.1045 108.543 27.7164C108.543 28.3939 108.813 28.9542 109.357 29.3947C109.831 29.8018 110.691 30.2423 111.939 30.7176C113.465 31.3114 114.587 32.0057 115.308 32.8017C116.027 33.5951 116.385 34.5882 116.385 35.7733Z" fill="white"/>
        <path d="M125.784 30.2813H122.651V36.2825C122.651 37.8088 123.203 38.5714 124.309 38.5714C124.817 38.5714 125.239 38.5289 125.572 38.4438L125.651 40.5292C125.091 40.7315 124.353 40.8332 123.44 40.8332C122.317 40.8332 121.44 40.5022 120.807 39.8414C120.176 39.1793 119.859 38.069 119.859 36.5092V30.2787H117.992V28.2178H119.859V25.9547L122.651 25.1406V28.2178H125.784V30.2813Z" fill="white"/>
        <path d="M139.921 34.2987C139.921 36.1986 139.359 37.7584 138.236 38.9782C137.059 40.2341 135.496 40.8601 133.548 40.8601C131.671 40.8601 130.176 40.2586 129.061 39.0555C127.947 37.8525 127.389 36.3338 127.389 34.5035C127.389 32.5881 127.963 31.0192 129.113 29.7994C130.261 28.5783 131.811 27.9678 133.759 27.9678C135.636 27.9678 137.147 28.5693 138.287 29.7737C139.377 30.9419 139.921 32.4503 139.921 34.2987ZM136.972 34.3875C136.972 33.2476 136.72 32.2699 136.209 31.4546C135.613 30.4679 134.761 29.9759 133.657 29.9759C132.515 29.9759 131.647 30.4692 131.051 31.4546C130.54 32.2712 130.288 33.2643 130.288 34.4391C130.288 35.579 130.54 36.5567 131.051 37.3707C131.665 38.3574 132.524 38.8494 133.632 38.8494C134.717 38.8494 135.569 38.3471 136.184 37.345C136.708 36.5141 136.972 35.5262 136.972 34.3875Z" fill="white"/>
        <path d="M149.161 30.6357C148.88 30.5855 148.58 30.5597 148.265 30.5597C147.265 30.5597 146.492 30.9242 145.948 31.6546C145.475 32.2986 145.237 33.1127 145.237 34.0955V40.5809H142.396L142.423 32.1131C142.423 30.6885 142.387 29.3914 142.316 28.2218H144.792L144.896 30.5867H144.975C145.275 29.774 145.748 29.1196 146.396 28.6289C147.029 28.1871 147.713 27.9668 148.451 27.9668C148.713 27.9668 148.951 27.9848 149.161 28.017V30.6357Z" fill="white"/>
        <path d="M161.875 33.8157C161.875 34.3077 161.841 34.7225 161.771 35.0612H153.243C153.276 36.2823 153.688 37.2162 154.48 37.8602C155.199 38.436 156.128 38.7245 157.269 38.7245C158.532 38.7245 159.684 38.53 160.72 38.1397L161.165 40.0461C159.955 40.5562 158.525 40.8099 156.876 40.8099C154.892 40.8099 153.335 40.2457 152.201 39.1187C151.071 37.9916 150.504 36.4781 150.504 34.5795C150.504 32.7157 151.031 31.1635 152.085 29.9257C153.189 28.6041 154.681 27.9434 156.559 27.9434C158.403 27.9434 159.799 28.6041 160.747 29.9257C161.497 30.9755 161.875 32.2739 161.875 33.8157ZM159.164 33.1034C159.183 32.2893 158.997 31.586 158.612 30.9922C158.12 30.2284 157.364 29.8471 156.347 29.8471C155.417 29.8471 154.661 30.2194 154.084 30.9665C153.611 31.5603 153.329 32.2726 153.243 33.1021H159.164V33.1034Z" fill="white"/>
        <path d="M64.3999 12.8935C64.3999 14.4096 63.9292 15.5508 62.9892 16.3172C62.1186 17.0244 60.8813 17.3786 59.2786 17.3786C58.4839 17.3786 57.8039 17.3451 57.2346 17.2781V8.99451C57.9773 8.87859 58.7773 8.81934 59.6413 8.81934C61.1679 8.81934 62.3186 9.14007 63.0946 9.78153C63.9639 10.5067 64.3999 11.5436 64.3999 12.8935ZM62.9266 12.9309C62.9266 11.9481 62.6572 11.1945 62.1186 10.669C61.5799 10.1448 60.7933 9.882 59.7573 9.882C59.3173 9.882 58.9426 9.91033 58.6319 9.96959V16.267C58.8039 16.2927 59.1186 16.3043 59.5759 16.3043C60.6453 16.3043 61.4706 16.0171 62.0519 15.4426C62.6333 14.8681 62.9266 14.0309 62.9266 12.9309Z" fill="white"/>
        <path d="M72.2119 14.2178C72.2119 15.1517 71.9359 15.9168 71.3839 16.517C70.8052 17.134 70.0386 17.4419 69.0812 17.4419C68.1586 17.4419 67.4239 17.1469 66.8759 16.5544C66.3292 15.9631 66.0559 15.2174 66.0559 14.3183C66.0559 13.378 66.3372 12.6064 66.9026 12.0075C67.4679 11.4085 68.2279 11.1084 69.1852 11.1084C70.1079 11.1084 70.8492 11.4034 71.4106 11.9946C71.9439 12.5691 72.2119 13.311 72.2119 14.2178ZM70.7626 14.2616C70.7626 13.7013 70.6372 13.2208 70.3879 12.8202C70.0946 12.3359 69.6772 12.0938 69.1346 12.0938C68.5732 12.0938 68.1466 12.3359 67.8532 12.8202C67.6026 13.2208 67.4786 13.709 67.4786 14.2861C67.4786 14.8464 67.6039 15.3268 67.8532 15.7274C68.1559 16.2117 68.5772 16.4539 69.1212 16.4539C69.6546 16.4539 70.0732 16.2079 70.3746 15.7146C70.6332 15.3062 70.7626 14.8219 70.7626 14.2616Z" fill="white"/>
        <path d="M82.6866 11.2314L80.72 17.3034H79.44L78.6253 14.6667C78.4186 14.0085 78.2506 13.3542 78.12 12.705H78.0946C77.9733 13.3722 77.8053 14.0253 77.5893 14.6667L76.724 17.3034H75.4293L73.58 11.2314H75.016L75.7266 14.118C75.8986 14.8007 76.04 15.4512 76.1533 16.0669H76.1786C76.2826 15.5594 76.4546 14.9128 76.6973 14.1309L77.5893 11.2327H78.728L79.5826 14.0691C79.7893 14.7608 79.9573 15.4267 80.0866 16.0682H80.1253C80.22 15.4435 80.3626 14.7775 80.552 14.0691L81.3146 11.2327H82.6866V11.2314Z" fill="white"/>
        <path d="M89.9305 17.304H88.5332V13.8262C88.5332 12.7545 88.1119 12.2187 87.2666 12.2187C86.8519 12.2187 86.5172 12.3655 86.2572 12.6605C85.9999 12.9555 85.8692 13.3032 85.8692 13.7013V17.3027H84.4719V12.967C84.4719 12.4338 84.4546 11.8554 84.4213 11.2294H85.6493L85.7146 12.1787H85.7533C85.9159 11.8838 86.1586 11.6403 86.4772 11.4458C86.8559 11.2191 87.2799 11.1045 87.7439 11.1045C88.3306 11.1045 88.8186 11.2874 89.2065 11.6545C89.6892 12.104 89.9305 12.7751 89.9305 13.6665V17.304Z" fill="white"/>
        <path d="M93.7839 17.3034H92.3879V8.44531H93.7839V17.3034Z" fill="white"/>
        <path d="M102.011 14.2178C102.011 15.1517 101.735 15.9168 101.183 16.517C100.604 17.134 99.836 17.4419 98.88 17.4419C97.956 17.4419 97.2213 17.1469 96.6746 16.5544C96.1279 15.9631 95.8546 15.2174 95.8546 14.3183C95.8546 13.378 96.136 12.6064 96.7013 12.0075C97.2666 11.4085 98.0266 11.1084 98.9826 11.1084C99.9066 11.1084 100.647 11.4034 101.209 11.9946C101.743 12.5691 102.011 13.311 102.011 14.2178ZM100.56 14.2616C100.56 13.7013 100.435 13.2208 100.185 12.8202C99.8933 12.3359 99.4746 12.0938 98.9333 12.0938C98.3706 12.0938 97.9439 12.3359 97.6519 12.8202C97.4013 13.2208 97.2773 13.709 97.2773 14.2861C97.2773 14.8464 97.4026 15.3268 97.6519 15.7274C97.9546 16.2117 98.376 16.4539 98.92 16.4539C99.4533 16.4539 99.8706 16.2079 100.172 15.7146C100.432 15.3062 100.56 14.8219 100.56 14.2616Z" fill="white"/>
        <path d="M108.773 17.304H107.519L107.415 16.6046H107.376C106.947 17.1623 106.335 17.4419 105.54 17.4419C104.947 17.4419 104.467 17.2577 104.105 16.8918C103.777 16.5595 103.613 16.1461 103.613 15.6553C103.613 14.9134 103.933 14.3479 104.577 13.9563C105.22 13.5648 106.124 13.3728 107.288 13.3818V13.2685C107.288 12.4686 106.853 12.0693 105.983 12.0693C105.363 12.0693 104.816 12.22 104.344 12.5188L104.06 11.6326C104.644 11.2836 105.365 11.1084 106.216 11.1084C107.859 11.1084 108.683 11.9456 108.683 13.6201V15.8562C108.683 16.4629 108.713 16.9459 108.773 17.304ZM107.323 15.2174V14.2809C105.781 14.2552 105.011 14.6635 105.011 15.5046C105.011 15.8215 105.099 16.0585 105.279 16.2169C105.459 16.3753 105.688 16.4539 105.961 16.4539C106.268 16.4539 106.555 16.3599 106.816 16.1731C107.079 15.985 107.24 15.7468 107.3 15.4544C107.315 15.3887 107.323 15.3088 107.323 15.2174Z" fill="white"/>
        <path d="M116.713 17.3034H115.473L115.408 16.3283H115.369C114.973 17.0702 114.299 17.4412 113.351 17.4412C112.593 17.4412 111.963 17.154 111.463 16.5795C110.963 16.005 110.713 15.2592 110.713 14.3434C110.713 13.3606 110.984 12.5646 111.528 11.9566C112.055 11.3898 112.7 11.1065 113.468 11.1065C114.312 11.1065 114.903 11.3808 115.239 11.9308H115.265V8.44531H116.664V15.6675C116.664 16.2588 116.68 16.8036 116.713 17.3034ZM115.265 14.7427V13.7303C115.265 13.5551 115.252 13.4134 115.227 13.3052C115.148 12.9806 114.979 12.7075 114.721 12.4873C114.461 12.267 114.148 12.1563 113.787 12.1563C113.265 12.1563 112.857 12.3559 112.557 12.7565C112.26 13.1571 112.109 13.6684 112.109 14.2932C112.109 14.8934 112.252 15.3803 112.539 15.7551C112.841 16.1544 113.249 16.3541 113.76 16.3541C114.219 16.3541 114.585 16.1879 114.864 15.8543C115.133 15.5465 115.265 15.1755 115.265 14.7427Z" fill="white"/>
        <path d="M128.664 14.2178C128.664 15.1517 128.388 15.9168 127.836 16.517C127.257 17.134 126.492 17.4419 125.533 17.4419C124.612 17.4419 123.877 17.1469 123.328 16.5544C122.781 15.9631 122.508 15.2174 122.508 14.3183C122.508 13.378 122.789 12.6064 123.355 12.0075C123.92 11.4085 124.68 11.1084 125.639 11.1084C126.56 11.1084 127.303 11.4034 127.863 11.9946C128.396 12.5691 128.664 13.311 128.664 14.2178ZM127.216 14.2616C127.216 13.7013 127.091 13.2208 126.841 12.8202C126.547 12.3359 126.131 12.0938 125.587 12.0938C125.027 12.0938 124.6 12.3359 124.305 12.8202C124.055 13.2208 123.931 13.709 123.931 14.2861C123.931 14.8464 124.056 15.3268 124.305 15.7274C124.608 16.2117 125.029 16.4539 125.573 16.4539C126.107 16.4539 126.527 16.2079 126.828 15.7146C127.085 15.3062 127.216 14.8219 127.216 14.2616Z" fill="white"/>
        <path d="M136.177 17.304H134.781V13.8262C134.781 12.7545 134.36 12.2187 133.513 12.2187C133.099 12.2187 132.764 12.3655 132.505 12.6605C132.247 12.9555 132.117 13.3032 132.117 13.7013V17.3027H130.719V12.967C130.719 12.4338 130.703 11.8554 130.669 11.2294H131.896L131.961 12.1787H132C132.164 11.8838 132.407 11.6403 132.724 11.4458C133.104 11.2191 133.527 11.1045 133.992 11.1045C134.577 11.1045 135.065 11.2874 135.453 11.6545C135.937 12.104 136.177 12.7751 136.177 13.6665V17.304Z" fill="white"/>
        <path d="M145.581 12.2431H144.043V15.1927C144.043 15.9424 144.316 16.3172 144.857 16.3172C145.108 16.3172 145.316 16.2966 145.48 16.2541L145.516 17.2781C145.24 17.3786 144.877 17.4288 144.431 17.4288C143.879 17.4288 143.449 17.2665 143.139 16.9419C142.827 16.6174 142.672 16.0712 142.672 15.3048V12.2431H141.753V11.2319H142.672V10.119L144.041 9.71973V11.2306H145.58V12.2431H145.581Z" fill="white"/>
        <path d="M152.979 17.3034H151.58V13.8514C151.58 12.7629 151.159 12.2181 150.315 12.2181C149.667 12.2181 149.224 12.5337 148.981 13.1648C148.94 13.2975 148.916 13.4598 148.916 13.6504V17.3021H147.52V8.44531H148.916V12.1047H148.943C149.383 11.4388 150.013 11.1065 150.831 11.1065C151.409 11.1065 151.888 11.2894 152.268 11.6565C152.741 12.1137 152.979 12.7939 152.979 13.6929V17.3034Z" fill="white"/>
        <path d="M160.609 13.9807C160.609 14.2228 160.591 14.4263 160.557 14.5925H156.367C156.385 15.1927 156.585 15.65 156.973 15.9669C157.328 16.2503 157.785 16.3919 158.345 16.3919C158.965 16.3919 159.531 16.2966 160.04 16.1047L160.259 17.0424C159.663 17.2923 158.961 17.4173 158.149 17.4173C157.176 17.4173 156.409 17.1403 155.855 16.5864C155.297 16.0326 155.021 15.2894 155.021 14.3568C155.021 13.441 155.279 12.6784 155.797 12.0705C156.339 11.4213 157.071 11.0967 157.995 11.0967C158.899 11.0967 159.585 11.4213 160.049 12.0705C160.424 12.5857 160.609 13.2233 160.609 13.9807ZM159.276 13.6316C159.287 13.231 159.195 12.8858 159.005 12.5947C158.763 12.2199 158.393 12.0318 157.893 12.0318C157.437 12.0318 157.065 12.2147 156.781 12.5818C156.549 12.8742 156.412 13.2233 156.367 13.6316H159.276Z" fill="white"/>
    </svg>

    <svg id="googleplay" width="180" height="52" viewBox="0 0 180 52" fill="none" xmlns="http://www.w3.org/2000/svg">
        <path d="M173.095 51.5225H6.6575C2.99754 51.5225 0 48.6227 0 45.0821V6.43989C0 2.8993 2.99754 -0.000480441 6.6575 -0.000480441H173.095C176.755 -0.000480441 179.753 2.8993 179.753 6.43989V45.0821C179.753 48.6227 176.755 51.5225 173.095 51.5225Z" fill="black"/>
        <path d="M63.1365 13.1949C63.1365 14.2704 62.8036 15.1318 62.1478 15.7742C61.3939 16.5358 60.4119 16.919 59.2085 16.919C58.0585 16.919 57.0765 16.5294 56.2709 15.7613C55.4637 14.9821 55.0609 14.0257 55.0609 12.8809C55.0609 11.7361 55.4637 10.7797 56.2709 10.0069C57.0765 9.23242 58.0585 8.84277 59.2085 8.84277C59.7811 8.84277 60.327 8.95709 60.848 9.16962C61.3672 9.38376 61.79 9.67358 62.0962 10.031L61.4005 10.7105C60.8663 10.1003 60.1389 9.79917 59.2085 9.79917C58.3697 9.79917 57.6424 10.0825 57.0249 10.6541C56.4141 11.2273 56.1078 11.9696 56.1078 12.8809C56.1078 13.7922 56.4141 14.5409 57.0249 15.1141C57.6424 15.6792 58.3697 15.969 59.2085 15.969C60.099 15.969 60.848 15.6792 61.4388 15.1076C61.8283 14.7293 62.0496 14.2076 62.1079 13.541H59.2085V12.6104H63.0766C63.1232 12.8117 63.1365 13.0065 63.1365 13.1949V13.1949Z" fill="white" stroke="white" stroke-width="0.16" stroke-miterlimit="10"/>
        <path d="M69.2729 9.96787H65.6397V12.4152H68.9151V13.3458H65.6397V15.7932H69.2729V16.7415H64.6111V9.01953H69.2729V9.96787Z" fill="white" stroke="white" stroke-width="0.16" stroke-miterlimit="10"/>
        <path d="M73.6036 16.7415H72.575V9.96787H70.3464V9.01953H75.8339V9.96787H73.6036V16.7415V16.7415Z" fill="white" stroke="white" stroke-width="0.16" stroke-miterlimit="10"/>
        <path d="M79.8052 16.7415V9.01953H80.8322V16.7415H79.8052Z" fill="white" stroke="white" stroke-width="0.16" stroke-miterlimit="10"/>
        <path d="M85.3842 16.7415H84.3639V9.96787H82.127V9.01953H87.6211V9.96787H85.3842V16.7415Z" fill="white" stroke="white" stroke-width="0.16" stroke-miterlimit="10"/>
        <path d="M98.0101 15.7485C97.2228 16.5294 96.2475 16.919 95.0841 16.919C93.914 16.919 92.9387 16.5294 92.1514 15.7485C91.3659 14.9692 90.9747 14.0128 90.9747 12.8809C90.9747 11.749 91.3659 10.7926 92.1514 10.0133C92.9387 9.23242 93.914 8.84277 95.0841 8.84277C96.2408 8.84277 97.2161 9.23242 98.0034 10.0198C98.7956 10.8055 99.1868 11.7554 99.1868 12.8809C99.1868 14.0128 98.7956 14.9692 98.0101 15.7485ZM92.9121 15.1012C93.5046 15.6792 94.2253 15.969 95.0841 15.969C95.9362 15.969 96.6636 15.6792 97.2494 15.1012C97.8403 14.5232 98.1399 13.7809 98.1399 12.8809C98.1399 11.9808 97.8403 11.2386 97.2494 10.6606C96.6636 10.0825 95.9362 9.79273 95.0841 9.79273C94.2253 9.79273 93.5046 10.0825 92.9121 10.6606C92.3212 11.2386 92.0216 11.9808 92.0216 12.8809C92.0216 13.7809 92.3212 14.5232 92.9121 15.1012V15.1012Z" fill="white" stroke="white" stroke-width="0.16" stroke-miterlimit="10"/>
        <path d="M100.63 16.7415V9.01953H101.878L105.759 15.0252H105.804L105.759 13.5407V9.01953H106.786V16.7415H105.714L101.65 10.4396H101.605L101.65 11.9306V16.7415H100.63V16.7415Z" fill="white" stroke="white" stroke-width="0.16" stroke-miterlimit="10"/>
        <path d="M90.7218 28.0181C87.5944 28.0181 85.0396 30.3205 85.0396 33.4972C85.0396 36.6481 87.5944 38.9747 90.7218 38.9747C93.8558 38.9747 96.4106 36.6481 96.4106 33.4972C96.4106 30.3205 93.8558 28.0181 90.7218 28.0181ZM90.7218 36.8172C89.0058 36.8172 87.5295 35.447 87.5295 33.4972C87.5295 31.5216 89.0058 30.1756 90.7218 30.1756C92.4377 30.1756 93.9207 31.5216 93.9207 33.4972C93.9207 35.447 92.4377 36.8172 90.7218 36.8172V36.8172ZM78.3238 28.0181C75.1898 28.0181 72.6417 30.3205 72.6417 33.4972C72.6417 36.6481 75.1898 38.9747 78.3238 38.9747C81.4562 38.9747 84.006 36.6481 84.006 33.4972C84.006 30.3205 81.4562 28.0181 78.3238 28.0181ZM78.3238 36.8172C76.6062 36.8172 75.1249 35.447 75.1249 33.4972C75.1249 31.5216 76.6062 30.1756 78.3238 30.1756C80.0398 30.1756 81.5161 31.5216 81.5161 33.4972C81.5161 35.447 80.0398 36.8172 78.3238 36.8172ZM63.5708 29.6974V32.0256H69.3179C69.1498 33.3265 68.7004 34.2829 68.0114 34.9495C67.1725 35.7545 65.866 36.6481 63.5708 36.6481C60.034 36.6481 57.2645 33.8868 57.2645 30.4654C57.2645 27.044 60.034 24.2827 63.5708 24.2827C65.4832 24.2827 66.8746 25.0056 67.9015 25.9427L69.5975 24.302C68.1612 22.9753 66.2505 21.9561 63.5708 21.9561C58.7208 21.9561 54.6448 25.7736 54.6448 30.4654C54.6448 35.1572 58.7208 38.9747 63.5708 38.9747C66.1922 38.9747 68.1612 38.1439 69.709 36.5854C71.2952 35.0509 71.7895 32.8934 71.7895 31.1513C71.7895 30.6103 71.7429 30.1128 71.6597 29.6974H63.5708ZM123.898 31.5023C123.43 30.277 121.987 28.0181 119.048 28.0181C116.135 28.0181 113.71 30.2384 113.71 33.4972C113.71 36.566 116.11 38.9747 119.327 38.9747C121.929 38.9747 123.43 37.4403 124.048 36.5467L122.117 35.3021C121.473 36.2134 120.596 36.8172 119.327 36.8172C118.067 36.8172 117.164 36.2585 116.584 35.1572L124.159 32.1254L123.898 31.5023V31.5023ZM116.175 33.3265C116.11 31.2141 117.871 30.1321 119.133 30.1321C120.121 30.1321 120.96 30.6103 121.24 31.2946L116.175 33.3265V33.3265ZM110.019 38.6414H112.508V22.5405H110.019V38.6414ZM105.941 29.2385H105.858C105.298 28.5977 104.231 28.0181 102.88 28.0181C100.044 28.0181 97.4508 30.4268 97.4508 33.5149C97.4508 36.5854 100.044 38.9747 102.88 38.9747C104.231 38.9747 105.298 38.3903 105.858 37.7301H105.941V38.5159C105.941 40.6106 104.784 41.736 102.918 41.736C101.397 41.736 100.453 40.6734 100.064 39.7798L97.8985 40.6541C98.5227 42.1064 100.175 43.8936 102.918 43.8936C105.838 43.8936 108.301 42.2319 108.301 38.189V28.3514H105.941V29.2385V29.2385ZM103.093 36.8172C101.377 36.8172 99.9407 35.4277 99.9407 33.5149C99.9407 31.5844 101.377 30.1756 103.093 30.1756C104.784 30.1756 106.117 31.5844 106.117 33.5149C106.117 35.4277 104.784 36.8172 103.093 36.8172V36.8172ZM135.555 22.5405H129.6V38.6414H132.083V32.5408H135.555C138.313 32.5408 141.017 30.6103 141.017 27.5399C141.017 24.471 138.306 22.5405 135.555 22.5405V22.5405ZM135.62 30.3012H132.083V24.7802H135.62C137.474 24.7802 138.533 26.2695 138.533 27.5399C138.533 28.7861 137.474 30.3012 135.62 30.3012ZM150.97 27.9875C149.176 27.9875 147.31 28.7539 146.543 30.4525L148.747 31.3461C149.221 30.4525 150.093 30.1627 151.015 30.1627C152.304 30.1627 153.61 30.9114 153.63 32.2333V32.4023C153.181 32.1512 152.219 31.7792 151.035 31.7792C148.662 31.7792 146.244 33.0432 146.244 35.4019C146.244 37.5595 148.188 38.949 150.373 38.949C152.044 38.949 152.966 38.2196 153.545 37.3711H153.63V38.6157H156.028V32.4394C156.028 29.5847 153.825 27.9875 150.97 27.9875ZM150.671 36.8108C149.859 36.8108 148.727 36.4211 148.727 35.447C148.727 34.2008 150.138 33.7226 151.36 33.7226C152.453 33.7226 152.966 33.9561 153.63 34.2636C153.435 35.7545 152.109 36.8108 150.671 36.8108V36.8108ZM164.766 28.3401L161.912 35.3198H161.827L158.876 28.3401H156.198L160.632 38.094L158.102 43.5216H160.697L167.529 28.3401H164.766V28.3401ZM142.382 38.6414H144.872V22.5405H142.382V38.6414Z" fill="white"/>
        <path d="M13.8942 9.70987C13.5031 10.106 13.2767 10.7226 13.2767 11.5212V40.007C13.2767 40.8056 13.5031 41.4222 13.8942 41.8183L13.9907 41.9053L30.4913 25.9493V25.5725L13.9907 9.61649L13.8942 9.70987Z" fill="url(#paint0_linear_200_40167)"/>
        <path d="M35.9854 31.2705L30.4913 25.9492V25.5724L35.9921 20.251L36.1152 20.3203L42.6296 23.9059C44.4887 24.9235 44.4887 26.598 42.6296 27.622L36.1152 31.2013L35.9854 31.2705V31.2705Z" fill="url(#paint1_linear_200_40167)"/>
        <path d="M36.1152 31.2017L30.4913 25.7612L13.8942 41.8186C14.5116 42.4465 15.5186 42.5222 16.6637 41.8943L36.1152 31.2017" fill="url(#paint2_linear_200_40167)"/>
        <path d="M36.1152 20.3202L16.6637 9.62763C15.5186 9.00614 14.5116 9.08181 13.8942 9.70974L30.4913 25.7607L36.1152 20.3202Z" fill="url(#paint3_linear_200_40167)"/>
        <defs>
            <linearGradient id="paint0_linear_200_40167" x1="29.0263" y1="40.3036" x2="7.4212" y2="17.9702" gradientUnits="userSpaceOnUse">
                <stop stop-color="#00A0FF"/>
                <stop offset="0.0066" stop-color="#00A1FF"/>
                <stop offset="0.2601" stop-color="#00BEFF"/>
                <stop offset="0.5122" stop-color="#00D2FF"/>
                <stop offset="0.7604" stop-color="#00DFFF"/>
                <stop offset="1" stop-color="#00E3FF"/>
            </linearGradient>
            <linearGradient id="paint1_linear_200_40167" x1="45.0505" y1="25.759" x2="12.8323" y2="25.759" gradientUnits="userSpaceOnUse">
                <stop stop-color="#FFE000"/>
                <stop offset="0.4087" stop-color="#FFBD00"/>
                <stop offset="0.7754" stop-color="#FFA500"/>
                <stop offset="1" stop-color="#FF9C00"/>
            </linearGradient>
            <linearGradient id="paint2_linear_200_40167" x1="33.0571" y1="22.8036" x2="3.75887" y2="-7.4824" gradientUnits="userSpaceOnUse">
                <stop stop-color="#FF3A44"/>
                <stop offset="1" stop-color="#C31162"/>
            </linearGradient>
            <linearGradient id="paint3_linear_200_40167" x1="9.71632" y1="51.2953" x2="22.7993" y2="37.7713" gradientUnits="userSpaceOnUse">
                <stop stop-color="#32A071"/>
                <stop offset="0.0685" stop-color="#2DA771"/>
                <stop offset="0.4762" stop-color="#15CF74"/>
                <stop offset="0.8009" stop-color="#06E775"/>
                <stop offset="1" stop-color="#00F076"/>
            </linearGradient>
        </defs>
    </svg>
</svg>