<svg xmlns="http://www.w3.org/2000/svg" xmlns:xlink="http://www.w3.org/1999/xlink"><symbol id="arrow-down">
    <path data-name="Path 12" d="M7.033 8.579L.32 1.861A1.093 1.093 0 011.866.315l5.94 5.94 1.556-1.551L13.746.32a1.093 1.093 0 011.546 1.546L8.579 8.579a1.093 1.093 0 01-1.546 0z"/>
</symbol><symbol id="flash">
    <path d="M63.2 39.5H36.141L61.225 0h-31.6L0 59.25h23.305L0 114.55z"/>
</symbol><symbol id="group">
    <g data-name="Group 479">
        <g data-name="Group 478">
            <path data-name="Path 17" d="M77.959 71.321l-14.4-7.854a4.267 4.267 0 01-2.223-3.746v-7.509a33.928 33.928 0 005.654-11.684 6.421 6.421 0 002.416-5.018v-6.457a6.428 6.428 0 00-1.614-4.237v-8.585a14.455 14.455 0 00-3.378-10.532c-3.314-3.782-8.695-5.7-15.992-5.7s-12.677 1.919-15.992 5.7a14.471 14.471 0 00-3.377 10.532v8.585a6.437 6.437 0 00-1.614 4.237v6.456a6.421 6.421 0 002.416 5.018 33.933 33.933 0 005.654 11.684v7.509a4.265 4.265 0 01-2.223 3.746l-14.4 7.854a14.558 14.558 0 00-7.588 12.784V95.23a1.612 1.612 0 001.614 1.614h71.019a1.612 1.612 0 001.614-1.614V84.104a14.558 14.558 0 00-7.586-12.783z"/>
            <path data-name="Path 18" d="M90.221 60.14l-10.866-6.808a3.464 3.464 0 01-1.806-3.042v-4.428a24.719 24.719 0 005.882-10.144 5.765 5.765 0 002.116-4.463v-5.576a5.624 5.624 0 00-1.614-3.761v-7.48C83.921 14.293 82.944.001 66.177.001a24.684 24.684 0 00-3.336.244 17.356 17.356 0 014 3.327 17.747 17.747 0 014.177 12.809v7.354a9.609 9.609 0 011.614 5.32v6.456a9.61 9.61 0 01-2.773 6.766 37.4 37.4 0 01-5.3 10.99v6.455a1.031 1.031 0 00.539.91l14.4 7.854a17.76 17.76 0 017.969 8.99h7.759a1.615 1.615 0 001.614-1.614v-4.514a12.788 12.788 0 00-6.619-11.208z"/>
            <path data-name="Path 19" d="M17.338 68.488l14.4-7.856a1.033 1.033 0 00.541-.91v-6.455a37.355 37.355 0 01-5.3-10.99 9.6 9.6 0 01-2.773-6.766v-6.457a9.6 9.6 0 011.614-5.32v-7.353A17.741 17.741 0 0130 3.571a17.379 17.379 0 014-3.326 24.661 24.661 0 00-3.332-.244C13.9.001 12.924 14.294 12.913 14.528v7.391a5.608 5.608 0 00-1.613 3.76v5.577a5.763 5.763 0 002.114 4.461 24.738 24.738 0 005.882 10.144v4.433a3.515 3.515 0 01-1.89 3.091L6.669 60.116A12.788 12.788 0 000 71.348v4.515a1.614 1.614 0 001.614 1.614h7.757a17.769 17.769 0 017.967-8.989z"/>
        </g>
    </g>
</symbol><symbol id="like">
    <path d="M102.8 28.548C101.3 12.005 89.587.002 74.933.002A27.7 27.7 0 0051.2 13.674 26.7 26.7 0 0028.037 0C13.385 0 1.673 12 .172 28.546c-.119.731-.606 4.577.875 10.848A46.531 46.531 0 0015.3 63.184l35.877 32.554 36.489-32.552a46.536 46.536 0 0014.257-23.792c1.477-6.269.994-10.12.877-10.846z"/>
</symbol></svg>