<svg width="1920" height="29" viewBox="0 0 1920 29" fill="none" xmlns="http://www.w3.org/2000/svg">
<rect x="14.1426" width="20" height="20" transform="rotate(45 14.1426 0)" fill="white"/>
<rect x="42.1426" width="20" height="20" transform="rotate(45 42.1426 0)" fill="white"/>
<rect x="70.1426" width="20" height="20" transform="rotate(45 70.1426 0)" fill="white"/>
<rect x="98.1426" width="20" height="20" transform="rotate(45 98.1426 0)" fill="white"/>
<rect x="126.143" width="20" height="20" transform="rotate(45 126.143 0)" fill="white"/>
<rect x="154.143" width="20" height="20" transform="rotate(45 154.143 0)" fill="white"/>
<rect x="182.143" width="20" height="20" transform="rotate(45 182.143 0)" fill="white"/>
<rect x="210.143" width="20" height="20" transform="rotate(45 210.143 0)" fill="white"/>
<rect x="238.143" width="20" height="20" transform="rotate(45 238.143 0)" fill="white"/>
<rect x="266.143" width="20" height="20" transform="rotate(45 266.143 0)" fill="white"/>
<rect x="294.143" width="20" height="20" transform="rotate(45 294.143 0)" fill="white"/>
<rect x="322.143" width="20" height="20" transform="rotate(45 322.143 0)" fill="white"/>
<rect x="350.143" width="20" height="20" transform="rotate(45 350.143 0)" fill="white"/>
<rect x="378.143" width="20" height="20" transform="rotate(45 378.143 0)" fill="white"/>
<rect x="406.143" width="20" height="20" transform="rotate(45 406.143 0)" fill="white"/>
<rect x="434.143" width="20" height="20" transform="rotate(45 434.143 0)" fill="white"/>
<rect x="462.143" width="20" height="20" transform="rotate(45 462.143 0)" fill="white"/>
<rect x="490.143" width="20" height="20" transform="rotate(45 490.143 0)" fill="white"/>
<rect x="518.143" width="20" height="20" transform="rotate(45 518.143 0)" fill="white"/>
<rect x="546.143" width="20" height="20" transform="rotate(45 546.143 0)" fill="white"/>
<rect x="574.143" width="20" height="20" transform="rotate(45 574.143 0)" fill="white"/>
<rect x="602.143" width="20" height="20" transform="rotate(45 602.143 0)" fill="white"/>
<rect x="630.143" width="20" height="20" transform="rotate(45 630.143 0)" fill="white"/>
<rect x="658.143" width="20" height="20" transform="rotate(45 658.143 0)" fill="white"/>
<rect x="686.143" width="20" height="20" transform="rotate(45 686.143 0)" fill="white"/>
<rect x="714.143" width="20" height="20" transform="rotate(45 714.143 0)" fill="white"/>
<rect x="742.143" width="20" height="20" transform="rotate(45 742.143 0)" fill="white"/>
<rect x="770.143" width="20" height="20" transform="rotate(45 770.143 0)" fill="white"/>
<rect x="798.143" width="20" height="20" transform="rotate(45 798.143 0)" fill="white"/>
<rect x="826.143" width="20" height="20" transform="rotate(45 826.143 0)" fill="white"/>
<rect x="854.143" width="20" height="20" transform="rotate(45 854.143 0)" fill="white"/>
<rect x="882.143" width="20" height="20" transform="rotate(45 882.143 0)" fill="white"/>
<rect x="910.143" width="20" height="20" transform="rotate(45 910.143 0)" fill="white"/>
<rect x="938.143" width="20" height="20" transform="rotate(45 938.143 0)" fill="white"/>
<rect x="966.143" width="20" height="20" transform="rotate(45 966.143 0)" fill="white"/>
<rect x="994.143" width="20" height="20" transform="rotate(45 994.143 0)" fill="white"/>
<rect x="1022.14" width="20" height="20" transform="rotate(45 1022.14 0)" fill="white"/>
<rect x="1050.14" width="20" height="20" transform="rotate(45 1050.14 0)" fill="white"/>
<rect x="1078.14" width="20" height="20" transform="rotate(45 1078.14 0)" fill="white"/>
<rect x="1106.14" width="20" height="20" transform="rotate(45 1106.14 0)" fill="white"/>
<rect x="1134.14" width="20" height="20" transform="rotate(45 1134.14 0)" fill="white"/>
<rect x="1162.14" width="20" height="20" transform="rotate(45 1162.14 0)" fill="white"/>
<rect x="1190.14" width="20" height="20" transform="rotate(45 1190.14 0)" fill="white"/>
<rect x="1218.14" width="20" height="20" transform="rotate(45 1218.14 0)" fill="white"/>
<rect x="1246.14" width="20" height="20" transform="rotate(45 1246.14 0)" fill="white"/>
<rect x="1274.14" width="20" height="20" transform="rotate(45 1274.14 0)" fill="white"/>
<rect x="1302.14" width="20" height="20" transform="rotate(45 1302.14 0)" fill="white"/>
<rect x="1330.14" width="20" height="20" transform="rotate(45 1330.14 0)" fill="white"/>
<rect x="1358.14" width="20" height="20" transform="rotate(45 1358.14 0)" fill="white"/>
<rect x="1386.14" width="20" height="20" transform="rotate(45 1386.14 0)" fill="white"/>
<rect x="1414.14" width="20" height="20" transform="rotate(45 1414.14 0)" fill="white"/>
<rect x="1442.14" width="20" height="20" transform="rotate(45 1442.14 0)" fill="white"/>
<rect x="1470.14" width="20" height="20" transform="rotate(45 1470.14 0)" fill="white"/>
<rect x="1498.14" width="20" height="20" transform="rotate(45 1498.14 0)" fill="white"/>
<rect x="1526.14" width="20" height="20" transform="rotate(45 1526.14 0)" fill="white"/>
<rect x="1554.14" width="20" height="20" transform="rotate(45 1554.14 0)" fill="white"/>
<rect x="1582.14" width="20" height="20" transform="rotate(45 1582.14 0)" fill="white"/>
<rect x="1610.14" width="20" height="20" transform="rotate(45 1610.14 0)" fill="white"/>
<rect x="1638.14" width="20" height="20" transform="rotate(45 1638.14 0)" fill="white"/>
<rect x="1666.14" width="20" height="20" transform="rotate(45 1666.14 0)" fill="white"/>
<rect x="1694.14" width="20" height="20" transform="rotate(45 1694.14 0)" fill="white"/>
<rect x="1722.14" width="20" height="20" transform="rotate(45 1722.14 0)" fill="white"/>
<rect x="1750.14" width="20" height="20" transform="rotate(45 1750.14 0)" fill="white"/>
<rect x="1778.14" width="20" height="20" transform="rotate(45 1778.14 0)" fill="white"/>
<rect x="1806.14" width="20" height="20" transform="rotate(45 1806.14 0)" fill="white"/>
<rect x="1834.14" width="20" height="20" transform="rotate(45 1834.14 0)" fill="white"/>
<rect x="1862.14" width="20" height="20" transform="rotate(45 1862.14 0)" fill="white"/>
<rect x="1890.14" width="20" height="20" transform="rotate(45 1890.14 0)" fill="white"/>
<rect x="1918.14" width="20" height="20" transform="rotate(45 1918.14 0)" fill="white"/>
</svg>