<svg>
	<symbol id="banner-1" width="867" height="856" viewBox="0 0 867 856" fill="none" xmlns="http://www.w3.org/2000/svg">
	<path fill-rule="evenodd" clip-rule="evenodd" d="M386.34 798.19L325.626 737.568L472.353 596.116L275.03 399.095L67.5872 601.168L376.221 909.33L684.855 601.168L264.911 191.97L-139.855 596.116L355.983 1091.2L264.911 1192.23L-322 601.168L269.97 0L867 591.064L406.579 1050.78L-43.7234 606.22L275.03 282.903L588.723 596.116L386.34 798.19Z" fill="#0B736D" fill-opacity="0.1"/>
	</symbol>
	<symbol id="banner-2" width="257" height="220" viewBox="0 0 257 220" fill="none" xmlns="http://www.w3.org/2000/svg">
	<path fill-rule="evenodd" clip-rule="evenodd" d="M181.702 118.864L166.128 103.305L203.766 67L153.149 16.4322L99.9362 68.2966L179.106 147.39L258.277 68.2966L150.553 -36.7288L46.7234 67L173.915 194.068L150.553 220L0 68.2966L151.851 -86L305 65.7034L186.894 183.695L71.383 69.5932L153.149 -13.3898L233.617 67L181.702 118.864Z" fill="#0B736D" fill-opacity="0.05"/>
	</symbol>
</svg>