<svg width="25" height="25" viewBox="0 0 25 25" fill="none" xmlns="http://www.w3.org/2000/svg">
<path d="M24.0263 5.96009C23.3421 5.79827 22.6579 6.22977 22.5 6.93096L20.2895 16.343H9.23684L6.07895 3.42503C5.94737 2.83172 5.42105 2.42719 4.8421 2.42719H1.26316C0.552632 2.42719 0 3.0205 0 3.72168C0 4.42287 0.578947 5.01618 1.26316 5.01618H3.81579L6.97368 17.9342C7.10526 18.5275 7.63158 18.932 8.21053 18.932H21.2632C21.8421 18.932 22.3684 18.5275 22.5 17.9342L24.9474 7.52427C25.1316 6.85005 24.7105 6.14887 24.0263 5.96009Z" fill="white"/>
<path d="M9.97409 25C11.224 25 12.2373 23.9616 12.2373 22.6807C12.2373 21.3998 11.224 20.3614 9.97409 20.3614C8.72419 20.3614 7.71094 21.3998 7.71094 22.6807C7.71094 23.9616 8.72419 25 9.97409 25Z" fill="white"/>
<path d="M18.8686 25C20.1185 25 21.1318 23.9616 21.1318 22.6807C21.1318 21.3998 20.1185 20.3614 18.8686 20.3614C17.6187 20.3614 16.6055 21.3998 16.6055 22.6807C16.6055 23.9616 17.6187 25 18.8686 25Z" fill="white"/>
<path d="M13.7369 12.7292C13.9738 12.972 14.3159 13.1068 14.6317 13.1068C14.9475 13.1068 15.2896 12.972 15.5264 12.7292L18.7633 9.41208C19.2633 8.89968 19.2633 8.06365 18.7633 7.57821C18.2633 7.0658 17.4475 7.0658 16.9738 7.57821L15.9212 8.65696V1.2945C15.9212 0.566343 15.3422 0 14.658 0C13.9475 0 13.3948 0.593312 13.3948 1.2945V8.65696L12.3422 7.57821C11.8422 7.0658 11.0264 7.0658 10.5527 7.57821C10.0527 8.09062 10.0527 8.92665 10.5527 9.41208L13.7369 12.7292Z" fill="white"/>
</svg>