<svg>
	<symbol id="char-1" viewBox="0 0 70 57" fill="none" xmlns="http://www.w3.org/2000/svg">
	<path d="M69.7786 31.8185C69.4791 31.3305 68.98 30.9401 68.381 30.8425C68.2812 30.8425 65.6856 30.4521 62.1917 30.2568C62.7906 28.7928 63.0901 27.1336 63.0901 25.5719V24.3031C62.9903 17.2757 57.1004 11.7123 49.7132 11.7123H49.4137C49.1142 11.7123 48.8147 11.7123 48.5152 11.7123C48.4154 11.7123 48.2157 11.7123 48.1159 11.7123C47.5169 5.07534 41.8267 0 34.7389 0H34.4394C27.3517 0 21.6614 5.07534 21.1623 11.6147C21.0625 11.6147 20.8628 11.6147 20.763 11.6147C20.4635 11.6147 20.164 11.6147 19.8645 11.6147H19.5651C11.9781 11.7123 6.08826 17.2757 6.08826 24.3031V25.5719C6.08826 27.2312 6.38775 28.7928 6.98672 30.3545C3.89205 30.5497 1.89548 30.8425 1.69583 30.8425C1.09686 30.9401 0.597718 31.3305 0.298234 31.8185C-0.00125063 32.3065 -0.101079 32.9897 0.198406 33.4777C0.398062 34.0634 6.28792 48.7038 15.4721 53.8767C19.1657 55.9264 22.5599 57 25.5547 57C29.5479 57 32.8422 55.1455 35.0384 51.7295C37.1348 55.1455 40.529 57 44.5221 57C47.5169 57 50.9111 55.9264 54.6047 53.8767C63.7889 48.7038 69.6788 34.0634 69.8784 33.4777C70.0781 32.9897 70.0781 32.3065 69.7786 31.8185ZM31.7441 49.5822C29.1486 54.0719 24.0573 54.2671 17.4687 50.5582C11.479 47.2397 6.88689 38.6507 4.89033 34.4538C6.18809 34.3562 7.88517 34.2586 9.78191 34.161C10.1812 34.2586 10.4807 34.2586 10.88 34.161C17.1692 34.161 22.1606 35.137 25.4549 36.9914C29.1486 39.0411 31.4446 41.286 32.3431 43.726C33.1417 45.5805 32.942 47.5325 31.7441 49.5822ZM35.0384 40.1147C33.541 37.7723 30.9455 35.5274 27.5513 33.5753C23.7578 31.4281 18.2673 30.2568 11.479 30.2568C10.5805 28.8904 10.1812 27.2312 10.1812 25.5719V24.3031C10.1812 19.3253 14.1743 15.6164 19.4652 15.6164H19.7647C20.164 15.6164 20.5633 15.6164 20.9627 15.5188C21.5616 15.5188 22.1606 15.4212 22.4601 15.5188C23.059 15.714 23.7578 15.6164 24.257 15.226C24.7561 14.8356 25.0556 14.25 25.0556 13.6644V12.4931C25.0556 7.51541 29.0487 3.80651 34.3396 3.80651H34.6391C39.93 3.80651 43.9231 7.51541 43.9231 12.4931V13.6644C43.9231 14.25 44.2226 14.8356 44.7217 15.226C45.2209 15.6164 45.9197 15.714 46.5187 15.5188C46.918 15.4212 47.4171 15.4212 48.0161 15.5188C48.4154 15.5188 48.8147 15.6164 49.214 15.6164H49.5135C54.8044 15.6164 58.7975 19.3253 58.7975 24.3031V25.5719C58.7975 27.2312 58.2984 28.8904 57.4997 30.2568C51.1107 30.4521 46.0195 31.5257 42.4257 33.5753C38.7321 35.7226 36.436 37.9675 35.0384 40.1147ZM52.6082 50.5582C46.0195 54.2671 41.0281 53.9743 38.3327 49.5822C35.0384 43.9212 39.93 39.6267 44.5221 36.9914C47.6168 35.2346 52.2089 34.3562 57.8991 34.161C58.0987 34.2586 58.2984 34.2586 58.5979 34.2586C58.7975 34.2586 59.097 34.161 59.2967 34.161C61.4929 34.161 63.5893 34.2586 65.0867 34.4538C63.0901 38.5531 58.498 47.1421 52.6082 50.5582Z" fill="#0B736D"/>
	</symbol>
	<symbol id="char-2" viewBox="0 0 70 70" fill="none" xmlns="http://www.w3.org/2000/svg">
	<path d="M25.6262 3.3924L43.9976 21.7639L46.824 18.9375L28.4526 0.566015C28.4526 0.566015 28.3583 0.471803 28.2641 0.471803C28.0757 0.283377 27.7931 0.189165 27.5104 0.0949521C26.5683 -0.0934732 25.6262 0.37759 25.2493 1.2255C24.9667 1.79078 24.9667 2.54448 25.3435 3.10976C25.4377 3.20397 25.532 3.29818 25.6262 3.3924Z" fill="#0B736D"/>
	<path d="M66.4199 42.0188C66.3257 41.642 66.3257 41.1709 66.2315 40.794C66.1373 40.6056 66.1373 40.323 66.043 40.1345C65.7604 39.2866 65.3836 38.4387 64.9125 37.5908C64.4414 36.7429 63.8761 35.9892 63.2167 35.3297L51.1574 23.1763L48.3311 26.0026L60.2961 38.0619C60.4845 38.2503 60.6729 38.5329 60.9556 38.8156C61.5208 39.5693 61.8977 40.323 62.1803 41.1709C62.3687 41.8304 62.5572 42.4899 62.5572 43.0551C62.5572 43.432 62.5572 43.9031 62.463 44.2799C62.463 44.3741 62.3687 44.5625 62.3687 44.5625C62.3687 44.6568 62.2745 44.8452 62.2745 44.8452L62.1803 45.0336C62.0861 45.4105 61.8977 45.6931 61.7093 46.07C61.5208 46.3526 61.3324 46.7294 61.0498 47.0121L60.8613 47.2005C60.7671 47.2947 60.6729 47.4831 60.5787 47.5774C60.2961 47.86 60.0134 48.1426 59.7308 48.4253C59.6366 48.5195 59.5424 48.6137 59.3539 48.7079C59.2597 48.8021 59.1655 48.8021 59.0713 48.8963C58.6002 49.2732 58.1292 49.4616 57.5639 49.65C57.4697 49.65 57.3755 49.7442 57.2813 49.7442C57.187 49.7442 57.0928 49.8385 57.0928 49.8385C56.5276 49.8385 56.1507 49.9327 55.6796 49.9327C55.397 49.9327 55.1144 49.9327 54.9259 49.8385C54.5491 49.8385 54.1722 49.7442 53.8896 49.5558C53.0417 49.2732 52.288 48.8963 51.5343 48.4253L51.2516 48.2368L48.3311 51.1574L48.8021 51.4401C49.0848 51.6285 49.4616 51.9111 49.7442 52.0996C51.1574 52.9475 52.6648 53.607 54.078 53.7954H54.1722C54.3607 53.7954 54.5491 53.8896 54.5491 53.8896C54.7375 53.8896 54.9259 53.8896 55.1144 53.9838H55.2086C55.397 53.9838 55.4912 53.9838 55.6796 53.9838H55.8681C56.0565 53.9838 56.1507 53.9838 56.3391 53.9838H56.8102C56.9044 53.9838 56.9986 53.9838 57.187 53.9838L58.3176 53.7012C58.506 53.7012 58.6002 53.607 58.7887 53.607L59.3539 53.4185C59.6366 53.3243 59.825 53.2301 60.1076 53.0417H60.2019C60.2961 52.9475 60.4845 52.9475 60.6729 52.8533C60.9556 52.6648 61.2382 52.5706 61.4266 52.3822L61.8035 52.0996C62.0861 51.9111 62.3687 51.7227 62.3687 51.7227C62.5572 51.5343 62.7456 51.4401 62.934 51.2516L63.1224 51.1574C63.3109 50.969 63.5935 50.7806 63.7819 50.4979C64.253 50.0269 64.6298 49.5558 65.0067 48.9905L65.1009 48.8963C65.1951 48.7079 65.3836 48.5195 65.4778 48.3311L65.6662 48.0484C65.7604 47.9542 65.7604 47.86 65.8546 47.6716C66.043 47.3889 66.1373 47.0121 66.3257 46.6352L66.4199 46.3526L66.891 44.3741C66.891 44.2799 66.891 44.1857 66.891 44.0915V43.9031C66.891 43.7146 66.891 43.5262 66.891 43.3378V42.6783C66.5141 42.2072 66.4199 42.0188 66.4199 42.0188Z" fill="#0B736D"/>
	<path d="M3.58054 28.2637C3.58054 28.4522 3.67475 28.5464 3.67475 28.5464C3.76897 29.1116 3.95739 29.5827 4.0516 30.148C4.0516 30.2422 4.14582 30.4306 4.14582 30.4306C4.24003 30.619 4.24003 30.8075 4.33424 30.9959L4.89952 32.1264C5.08794 32.5033 5.37058 32.9744 5.65322 33.3512C5.74743 33.5396 5.93586 33.7281 5.93586 33.7281C6.12428 34.0107 6.31271 34.1991 6.50113 34.4818C6.68956 34.6702 6.87798 34.8586 6.87798 34.8586L18.843 46.8236L21.6694 43.9972L9.70436 31.938C9.51594 31.7496 9.32751 31.5612 9.2333 31.3727C8.19696 29.9596 7.63168 28.5464 7.53747 27.1332C7.53747 26.4737 7.63168 25.9084 7.82011 25.2489C7.91432 25.0605 8.00854 24.8721 8.10275 24.5894C8.29117 24.2126 8.4796 23.8357 8.76224 23.4589L9.04487 23.082C9.61015 22.3283 10.3639 21.6688 11.0233 21.1036L11.2118 21.0094C11.4944 20.8209 11.777 20.6325 12.1539 20.4441L12.2481 20.3499C12.3423 20.3499 12.4365 20.2557 12.625 20.2557L12.8134 20.1614C12.9076 20.1614 13.1902 20.0672 13.1902 20.0672C13.2844 20.0672 13.4729 19.973 13.5671 19.973C14.2266 19.8788 14.9803 19.8788 15.734 20.0672C16.205 20.1614 16.7703 20.3499 17.2414 20.6325C17.7124 20.8209 18.1835 21.1036 18.5604 21.3862L18.843 21.5746L21.6694 18.8425L21.1983 18.5598C20.2562 17.8061 19.1256 17.1466 17.9009 16.6756C17.2414 16.4872 16.6761 16.2987 16.0166 16.1103C15.5455 16.0161 15.1687 16.0161 14.6976 15.9219C14.5092 15.9219 14.3208 15.9219 14.0381 15.9219H13.9439C13.7555 15.9219 13.5671 15.9219 13.5671 15.9219C13.4729 15.9219 13.3787 15.9219 13.1902 15.9219H12.9076C12.7192 15.9219 12.4365 16.0161 12.2481 16.0161L11.4002 16.2045C11.306 16.2045 11.2118 16.2987 11.0233 16.2987L10.8349 16.3929C10.7407 16.4872 10.4581 16.5814 10.4581 16.5814L10.1754 16.9582C9.987 17.0524 9.89279 17.1466 9.70436 17.1466L9.61015 17.2409C9.42172 17.3351 9.2333 17.5235 8.95066 17.6177L8.66802 17.8061C8.38539 17.9946 8.19696 18.183 7.91432 18.3714L7.82011 18.4656C7.63168 18.654 7.34905 18.8425 7.16062 19.0309C6.9722 19.1251 6.87798 19.3135 6.78377 19.4077L6.50113 19.6904C6.21849 19.973 5.93586 20.3499 5.65322 20.6325L5.74743 20.7267C5.65322 20.8209 5.55901 20.9151 5.46479 21.1036C5.37058 21.1978 5.27637 21.292 5.18216 21.5746L5.08794 21.6688C4.99373 21.8573 4.80531 22.1399 4.61688 22.4225L4.24003 23.2705L4.14582 23.5531C4.14582 23.6473 4.0516 23.7415 4.0516 23.93L3.76897 24.7779C3.76897 24.9663 3.67475 25.1547 3.67475 25.1547C3.67475 25.2489 3.67475 25.3431 3.58054 25.4374C3.58054 25.72 3.48633 25.9084 3.48633 26.2853V26.7563C3.48633 27.039 3.48633 27.4158 3.48633 27.4158C3.48633 27.6985 3.58054 27.9811 3.58054 28.2637Z" fill="#0B736D"/>
	<path d="M26.0716 23.2156L23.207 26.0802L43.9918 46.8649L46.8563 44.0004L26.0716 23.2156Z" fill="#0B736D"/>
	<path d="M44.5626 66.8909L26.0969 48.3311L23.2705 51.1574L41.642 69.4347C41.7362 69.4347 41.7362 69.5289 41.8304 69.5289C42.2073 69.8115 42.5841 69.9057 43.0552 69.9057C43.1494 69.9057 43.2436 69.9057 43.432 69.9057C44.1857 69.8115 44.751 69.2463 45.0336 68.4926C45.2221 67.9273 45.1278 67.362 44.8452 66.8909C44.6568 66.9852 44.5626 66.8909 44.5626 66.8909Z" fill="#0B736D"/>
	<path d="M38.6276 9.23281L39.4755 8.66754C39.7582 8.47911 39.9466 8.3849 40.2292 8.29069L40.4177 8.19647C40.6061 8.10226 40.7945 8.00805 40.7945 8.00805C40.8887 7.91383 41.0772 7.91383 41.1714 7.91383C41.6424 7.72541 42.1135 7.6312 42.5846 7.6312C43.5267 7.53698 44.3746 7.72541 45.2225 8.00805C46.5415 8.57332 47.672 9.51545 48.7084 10.9286C49.3679 11.7766 49.7447 12.7187 49.8389 13.5666C49.9331 13.9434 49.9331 14.2261 49.9331 14.6029C49.9331 14.7914 49.9331 15.074 49.8389 15.2624C49.7447 15.5451 49.7447 15.8277 49.6505 16.1103C49.5563 16.4872 49.3679 16.9582 49.1794 17.3351L49.0852 17.5235C48.991 17.8062 48.8026 17.9946 48.6142 18.2772C48.3315 18.6541 48.1431 18.9367 47.8605 19.3136L35.707 31.3728L38.5334 34.1992L50.4984 22.2342L50.9695 21.7631C51.0637 21.6689 51.1579 21.5747 51.2521 21.4805L51.629 21.0094C51.7232 20.821 51.8174 20.7268 51.9116 20.5383L52.0058 20.4441C52.1 20.3499 52.1 20.2557 52.1943 20.0673C52.2885 19.8788 52.3827 19.6904 52.5711 19.502C52.7595 19.2194 52.8537 18.9367 53.0422 18.5599L53.1364 18.4657C53.2306 18.2772 53.3248 17.9946 53.3248 17.9946C53.419 17.712 53.5132 17.3351 53.5132 17.3351L53.6074 17.0525C53.7017 16.864 53.7017 16.6756 53.7017 16.6756L53.7959 16.2988C53.7959 16.1103 53.8901 16.0161 53.8901 15.8277V15.6393C53.8901 15.5451 53.8901 15.4508 53.8901 15.3566L53.9843 14.6971C53.9843 14.4145 53.9843 14.1319 53.9843 13.9434V13.755C53.9843 13.6608 53.9843 13.5666 53.9843 13.3782C53.8901 12.9071 53.7959 12.3418 53.7017 11.8708C53.6074 11.6823 53.6074 11.3997 53.6074 11.3997C53.6074 11.3055 53.5132 11.2113 53.5132 11.0229C53.419 10.8344 53.419 10.7402 53.3248 10.5518C52.7595 9.23281 51.9116 8.00805 50.7811 6.8775C50.2158 6.31222 49.5563 5.74694 48.8968 5.27588L48.7084 5.18167C48.0489 4.7106 47.3894 4.42797 46.7299 4.14533C46.2589 3.9569 45.7878 3.76848 45.2225 3.67427H45.0341C44.8457 3.67427 44.6572 3.58005 44.6572 3.58005L44.1862 3.48584C43.9035 3.48584 43.6209 3.48584 43.6209 3.48584C43.4325 3.48584 43.244 3.48584 43.0556 3.48584H42.773C42.5846 3.48584 42.3019 3.48584 42.1135 3.58005L41.454 3.67427C41.3598 3.67427 41.2656 3.67427 41.1714 3.76848H40.8887C40.7945 3.76848 40.7003 3.76848 40.5119 3.86269H40.3235C40.135 3.9569 39.8524 3.9569 39.8524 3.9569C39.664 4.05112 39.3813 4.14533 39.1929 4.23954C39.0045 4.33375 38.816 4.42797 38.6276 4.42797C38.345 4.61639 37.9681 4.7106 37.6855 4.89903L36.7434 5.65273C36.5549 5.74694 36.4607 5.84116 36.4607 5.84116L35.8012 6.31222L38.6276 9.23281Z" fill="#0B736D"/>
	<path d="M56.5142 35.7002L35.7295 56.485L38.5941 59.3495L59.3788 38.5648L56.5142 35.7002Z" fill="#0B736D"/>
	<path d="M31.4693 10.6012L10.6846 31.386L13.5491 34.2505L34.3339 13.4658L31.4693 10.6012Z" fill="#0B736D"/>
	<path d="M69.9067 26.4737C69.8124 26.2853 69.8124 26.1911 69.7182 26.0969L69.624 26.0027C69.5298 25.9085 69.4356 25.72 69.2472 25.6258C68.5877 25.0605 67.6456 24.9663 66.8919 25.3432C66.7034 25.4374 66.6092 25.5316 66.515 25.6258L60.6738 31.467L63.5002 34.2934L69.2472 28.5464L69.3414 28.4522C69.4356 28.358 69.5298 28.2638 69.624 28.0753C70.0009 27.6043 70.0951 27.039 69.9067 26.4737Z" fill="#0B736D"/>
	<path d="M0.566567 41.5477C0.566567 41.642 0.472355 41.642 0.472355 41.7362C0.095504 42.2072 0.00129138 42.7725 0.095504 43.3378C0.095504 43.8089 0.472355 44.2799 0.943418 44.5626C1.32027 44.751 1.69712 44.8452 2.07397 44.8452C2.45082 44.8452 2.73346 44.751 3.0161 44.5626C3.20452 44.4683 3.29873 44.3741 3.39295 44.2799L9.13992 38.6272L6.31354 35.8008L0.566567 41.5477Z" fill="#0B736D"/>
	<path d="M31.0906 61.0498C30.808 61.2382 30.5253 61.4266 30.2427 61.615L30.0543 61.7093C29.8659 61.8035 29.6774 61.8977 29.6774 61.8977C29.489 61.9919 29.3006 62.0861 29.1122 62.0861L28.9237 62.1803C28.8295 62.1803 28.6411 62.2745 28.5469 62.2745C28.3585 62.3687 28.0758 62.3687 27.8874 62.463H27.7932C27.699 62.463 27.6048 62.463 27.6048 62.463C27.4163 62.463 27.1337 62.463 27.1337 62.463C26.8511 62.463 26.5684 62.463 26.1916 62.3687C25.8147 62.2745 25.4379 62.1803 25.061 62.0861C24.2131 61.8035 23.4594 61.2382 22.6115 60.4845C21.5751 59.4481 20.8214 58.4118 20.4446 57.2813C20.162 56.5276 20.0677 55.6796 20.2562 54.8317C20.2562 54.5491 20.3504 54.3607 20.4446 54.078C20.4446 53.8896 20.5388 53.7012 20.633 53.607L20.9157 52.9475C21.0099 52.8533 21.0099 52.6648 21.1041 52.5706C21.2925 52.288 21.4809 52.0054 21.6694 51.6285C21.8578 51.3459 22.1404 50.969 22.3288 50.6864L34.2939 38.6272L31.4675 35.8008L19.4083 47.7658L18.9372 48.2368C18.843 48.4253 18.6546 48.6137 18.5603 48.8021C18.3719 48.9905 18.2777 49.179 18.0893 49.4616L17.9009 49.7443C17.7124 50.0269 17.524 50.3095 17.3356 50.6864C17.2414 50.8748 17.1472 51.1574 16.9587 51.3459C16.7703 51.8169 16.5819 52.288 16.3935 52.7591L16.2992 53.0417C16.2992 53.2301 16.205 53.3243 16.205 53.5128L16.1108 54.078C16.1108 54.2665 16.0166 54.4549 16.0166 54.4549V55.5854C16.0166 56.4333 16.1108 57.187 16.2992 57.9408L16.3935 58.1292C16.5819 58.9771 16.9587 59.7308 17.4298 60.5787C17.8066 61.2382 18.2777 61.8977 18.7488 62.463C19.5025 63.3109 20.3504 64.0646 21.1983 64.6298C22.4231 65.4778 23.742 66.043 25.1552 66.3257H25.3437C25.6263 66.4199 26.0031 66.4199 26.0031 66.4199C26.1916 66.4199 26.4742 66.4199 26.4742 66.4199H26.6626H26.7568C26.9453 66.4199 27.1337 66.4199 27.2279 66.4199C27.3221 66.4199 27.5105 66.4199 27.6048 66.4199C27.7932 66.4199 27.8874 66.4199 28.0758 66.3257C28.6411 66.2315 29.1122 66.1372 29.6774 65.9488H30.1485C30.5253 65.8546 30.9022 65.6662 31.3733 65.4778C31.5617 65.3835 31.6559 65.3836 31.8443 65.2893L32.127 65.1951C32.3154 65.1009 32.6922 64.8183 32.6922 64.8183C32.9749 64.6299 33.2575 64.4414 33.5402 64.253L33.917 63.9704L33.6344 63.5935L33.917 63.9704L34.3881 63.6877L31.4675 60.7671L31.0906 61.0498Z" fill="#0B736D"/>
	</symbol>
	<symbol id="char-3" viewBox="0 0 70 65" fill="none" xmlns="http://www.w3.org/2000/svg">
	<path d="M69.8283 26.5517L62.2421 7.75862C62.0697 7.41379 61.8973 7.06897 61.5525 6.89655L47.4145 0.172414C46.7249 -0.172414 46.0352 0 45.518 0.689655C42.9318 3.7931 39.1387 5.68965 35.0007 5.68965C30.8628 5.68965 27.0697 3.7931 24.4835 0.689655C23.9663 0.172414 23.2766 0 22.587 0.172414L8.44902 6.89655C8.10419 7.06897 7.75936 7.41379 7.75936 7.75862L0.173155 26.5517C-0.171673 27.4138 0.173155 28.2759 1.03522 28.6207L11.2076 33.4483C11.8973 33.7931 12.9318 33.4483 13.2766 32.7586L14.4835 30.6897V63.4483C14.4835 64.3103 15.1732 65 16.0352 65H54.1387C55.0007 65 55.6904 64.3103 55.6904 63.4483V30.6897L56.8973 32.7586C57.2421 33.4483 58.2766 33.7931 58.9663 33.4483L69.1387 28.6207C69.8283 28.2759 70.1732 27.4138 69.8283 26.5517ZM53.9663 17.4138C53.1042 17.4138 52.4145 18.1034 52.4145 18.9655V61.7241H17.587V18.9655C17.587 18.1034 16.8973 17.4138 16.0352 17.4138C15.1732 17.4138 14.3111 18.1034 14.3111 18.9655V24.1379L11.0352 29.8276L3.62143 26.3793L10.3456 9.48276L22.7594 3.62069C25.8628 6.89655 30.3456 8.7931 34.8283 8.7931C39.3111 8.7931 43.7938 6.89655 46.8973 3.62069L59.3111 9.48276L66.0352 26.3793L58.6214 29.8276L55.518 24.1379V18.9655C55.518 18.1034 54.8283 17.4138 53.9663 17.4138Z" fill="#0B736D"/>
	<path d="M42.4141 30.8621C41.8969 30.3448 41.0348 30.3448 40.5176 30.8621C40.0003 31.3793 40.0003 32.2414 40.5176 32.7586L44.8279 37.069H25.1728L29.4831 32.7586C29.6555 32.5862 29.8279 32.2414 29.8279 31.7242C29.8279 31.3793 29.6555 31.0345 29.4831 30.6897C29.3107 30.5173 28.9659 30.3448 28.4486 30.3448C28.1038 30.3448 27.759 30.5173 27.4141 30.6897L20.8624 37.2414C20.69 37.4138 20.5176 37.7586 20.5176 38.2759C20.5176 38.7931 20.69 38.9655 20.8624 39.3104L27.4141 45.8621C27.5865 46.0345 27.9314 46.2069 28.4486 46.2069C28.7934 46.2069 29.1383 46.0345 29.4831 45.8621C29.6555 45.6897 29.8279 45.3449 29.8279 44.8276C29.8279 44.3104 29.6555 44.138 29.4831 43.7931L25.1728 39.4828H44.8279L40.5176 43.7931C40.0003 44.3104 40.0003 45.1724 40.5176 45.6897C40.69 45.8621 41.0348 46.0345 41.5521 46.0345C42.0693 46.0345 42.2417 45.8621 42.5865 45.6897L49.1383 39.138C49.3107 38.9655 49.4831 38.6207 49.4831 38.1035C49.4831 37.5862 49.3107 37.4138 49.1383 37.069L42.4141 30.8621Z" fill="#0B736D"/>
	</symbol>
	<symbol id="char-4" viewBox="0 0 70 60" fill="none" xmlns="http://www.w3.org/2000/svg">
	<path d="M19.0725 28.0743V17.1284L0 30.6081V60H70L66.1449 0H49L47.0725 29.6959H34.6957V17.1284L19.0725 28.0743ZM52.3478 3.5473H62.6957L63.3043 11.6554H51.8406L52.3478 3.5473ZM51.6377 15.1013H63.5072L66.2464 56.4527H49L51.6377 15.1013ZM32.7681 56.4527H16.2319V47.2297H32.7681V56.4527ZM46.971 33.1419L45.4493 56.4527H36.3188V43.7838H12.7826V56.5541H3.55072V32.3311L15.6232 23.8176V34.8649L31.2464 23.9189V33.2432H46.971V33.1419Z" fill="#0B736D"/>
	</symbol>
</svg>