<svg>
	<symbol id="desc-1" viewBox="0 0 70 66" fill="none" xmlns="http://www.w3.org/2000/svg">
	<path d="M62.357 8.01952C62.1833 7.67015 62.0096 7.49546 61.6622 7.32077L47.419 0.507938C46.898 0.158562 46.2032 0.33325 45.6821 0.857314C43.0766 4.17639 39.0816 5.92327 34.9128 5.92327C30.7441 5.92327 26.9228 4.17639 24.3173 0.857314C23.9699 0.33325 23.2751 0.158562 22.5803 0.507938L8.33716 7.32077C8.16347 7.49546 7.81607 7.67015 7.64238 8.01952L0.173394 27.0605C-0.174001 27.7593 0.173394 28.458 0.868183 28.8074L11.1163 33.6987C11.29 33.8734 11.4637 33.8734 11.6374 33.8734C12.1585 33.8734 12.6796 33.6987 12.8533 33.1746L14.4166 30.3796V64.2691C14.4166 64.9678 15.1114 65.6666 15.8061 65.6666H54.1932C54.888 65.6666 55.5828 64.9678 55.5828 64.2691V30.3796L57.1461 33.1746C57.4935 33.8734 58.362 34.048 58.8831 33.6987L69.1312 28.8074C69.826 28.458 70.1734 27.7593 69.826 27.0605L62.357 8.01952ZM59.0568 30.5543L55.5828 24.6149V19.3742C55.5828 18.6755 54.888 17.9767 54.1932 17.9767C53.4985 17.9767 52.8037 18.6755 52.8037 19.3742V62.8716H17.1957V19.3742C17.1957 18.6755 16.5009 17.9767 15.8061 17.9767C15.1114 17.9767 14.4166 18.6755 14.4166 19.3742V24.6149L10.9426 30.5543L3.12625 26.8858L10.0741 9.59172L22.754 3.47763C25.8806 6.79671 30.223 8.71828 34.9128 8.71828C39.6027 8.71828 43.9451 6.79671 47.0717 3.47763L59.7516 9.59172L66.6994 26.8858L59.0568 30.5543Z" fill="white"/>
	</symbol>
	<symbol id="desc-2" viewBox="0 0 69 53" fill="none" xmlns="http://www.w3.org/2000/svg">
	<path d="M67.5 38.5C66.9 38 66.1 37.7 65.2 37.4L64.8 37.3V37V34.3C64.8 20.1 55.2 8 41.4 4.8L41.1 4.7L41 4.5C40 1.8 37.4 0 34.5 0C31.6 0 29 1.8 28 4.5L27.9 4.7L27.6 4.8C21 6.3 15 10.1 10.8 15.5C6.6 20.8 4.2 27.5 4.2 34.3V37V37.4L3.8 37.5C2.9 37.7 2.1 38.1 1.5 38.6C0.5 39.4 0 40.6 0 41.8C0 44.1 2 46.5 5.6 46.5C9.9 46.5 13.7 47.8 17.7 49.1C22.3 50.6 27.6 52.4 34.5 52.4C41.4 52.4 46.7 50.7 51.3 49.1C55.3 47.8 59.1 46.5 63.4 46.5C67 46.5 69 44.1 69 41.8C69 40.5 68.4 39.3 67.5 38.5ZM41.4 8.4V7.7L42 7.9C43 8.2 44.1 8.6 45.3 9.1L45.6 9.2V9.5V19.3C45.6 20.5 44.6 21.4 43.5 21.4C42.3 21.4 41.4 20.4 41.4 19.3V8.4ZM26.9 7.9L27.5 7.7V8.4V19.4C27.5 20.6 26.5 21.5 25.4 21.5C24.2 21.5 23.3 20.5 23.3 19.4V9.2L23.6 9.1C24.8 8.6 25.9 8.2 26.9 7.9ZM7 37V34.3C7 24.9 11.7 16.3 19.7 11.2L20.5 10.7V11.6V19.4C20.5 22.1 22.7 24.4 25.5 24.4C28.2 24.4 30.5 22.2 30.5 19.4V6.2V6.1V6C30.9 4.1 32.6 2.7 34.6 2.7C36.6 2.7 38.2 4 38.7 6V6.1V6.2V19.4C38.7 22.1 40.9 24.4 43.7 24.4C46.4 24.4 48.7 22.2 48.7 19.4V11.6V10.7L49.5 11.2C57.5 16.3 62.2 24.9 62.2 34.3V37V37.4L61.8 37.5C57 38.1 44.7 39.4 34.8 39.4C24.9 39.4 12.6 38.1 7.8 37.5L7 37.4V37ZM63.4 43.6C58.6 43.6 54.6 44.9 50.4 46.3C45.8 47.8 41 49.4 34.5 49.4C28 49.4 23.2 47.8 18.6 46.3C14.4 44.9 10.4 43.6 5.6 43.6C3.8 43.6 2.8 42.7 2.8 41.8C2.8 41.5 2.9 41.1 3.3 40.8C3.8 40.4 4.5 40.2 5.5 40.2C7.2 40.4 22.5 42.3 34.4 42.3C46.3 42.3 61.6 40.4 63.3 40.2C64.2 40.2 65 40.4 65.5 40.8C65.9 41.2 66 41.6 66 41.8C66.2 42.7 65.2 43.6 63.4 43.6Z" fill="white"/>
	</symbol>
	<symbol id="desc-3" viewBox="0 0 68 68" fill="none" xmlns="http://www.w3.org/2000/svg">
	<path d="M5 61.5C5 65.1 7.9 68 11.5 68H56.5C60.1 68 63 65.1 63 61.5V34V33H64H66.5C67.3 33 68 32.3 68 31.5V21.5C68 17.9 65.1 15 61.5 15H57.6H55.8L56.7 13.5C57.6 12.1 58 10.6 58 9C58 4 54 0 49 0C43.2 0 37.8 3.1 34.9 8L34 9.5L33.1 8C30.1 3 24.7 0 19 0C14 0 10 4 10 9C10 10.6 10.4 12.1 11.3 13.5L12.2 15H10.4H6.5C2.9 15 0 17.9 0 21.5V31.5C0 32.3 0.7 33 1.5 33H4H5V34V61.5ZM25 34V64V65H24H11.5C9.6 65 8 63.4 8 61.5V34V33H9H24H25V34ZM60 34V61.5C60 63.4 58.4 65 56.5 65H44H43V64V34V33H44H59H60V34ZM61.5 18C63.4 18 65 19.6 65 21.5V29V30H64H44H43V29V19V18H44H61.5ZM35.8 13.8C37 7.5 42.6 3 49 3C52.3 3 55 5.7 55 9C55 12.3 52.3 15 49 15H36.8H35.6L35.8 13.8ZM39 18H40V19V64V65H39H29H28V64V19V18H29H39ZM19 3C25.4 3 31 7.5 32.2 13.8L32.4 15H31.2H19C15.7 15 13 12.3 13 9C13 5.7 15.7 3 19 3ZM4 30H3V29V21.5C3 19.6 4.6 18 6.5 18H24H25V19V29V30H24H4Z" fill="white"/>
	</symbol>
	<symbol id="desc-4" viewBox="0 0 69 70" fill="none" xmlns="http://www.w3.org/2000/svg">
	<path d="M44.5003 16.7001C44.2003 16.8001 43.9003 17.0001 43.7003 17.3001C43.4003 17.9001 43.6003 18.7001 44.2003 19.0001L54.4003 24.8001C54.6003 24.9001 54.9003 24.9001 55.0003 24.9001C55.5003 24.9001 55.9003 24.6001 56.1003 24.2001C56.4003 23.6001 56.2003 22.8001 55.6003 22.5001L45.4003 16.9001C45.1003 16.7001 44.8003 16.6001 44.5003 16.7001Z" fill="white"/>
	<path d="M13.4999 25.0999C13.5999 25.0999 13.9999 25.0999 14.1999 24.7999L24.4999 18.8999C24.7999 18.6999 24.9999 18.4999 25.0999 18.0999C25.1999 17.7999 25.0999 17.3999 24.9999 17.0999C24.7999 16.7999 24.5999 16.5999 24.1999 16.4999C23.8999 16.3999 23.4999 16.4999 23.1999 16.5999L12.7999 22.5999C12.1999 22.9999 11.9999 23.7999 12.2999 24.2999C12.4999 24.7999 12.9999 25.0999 13.4999 25.0999Z" fill="white"/>
	<path d="M59.0004 41.8C58.3004 41.8 57.7004 42.4 57.7004 43.1V53.7001L34.4004 67.1L11.0004 53.7001V43.5C11.0004 42.8 10.4004 42.2001 9.70039 42.2001C9.00039 42.2001 8.40039 42.8 8.40039 43.5V55.1L34.1004 69.9001L34.4004 70L60.3004 55V43C60.3004 42.3 59.7004 41.8 59.0004 41.8Z" fill="white"/>
	<path d="M34.4 41.9L42.6 50.2L68.8 34.7999L59.3 24.2L34.5 38.5999L9.5 24.2L0 34.7999L26.1 50.2999L34.4 41.9ZM58.8 27.5L64.8 34.2L43.1 47L36.5 40.4L58.8 27.5ZM4 34.2L10 27.5L32.3 40.2999L25.7 47L4 34.2Z" fill="white"/>
	<path d="M25.7996 16.8C25.9996 17 26.0996 17.3 26.0996 17.5L24.7996 25.3C24.6996 25.9 24.8996 26.6 25.3996 26.8C25.6996 27 25.9996 27.1 26.2996 27.1C26.4996 27.1 26.7996 27.1 27.0996 26.9L33.9996 23.2C34.2996 23.1 34.4996 23.1 34.7996 23.2L41.7996 26.9C42.2996 27.2 42.8996 27.2 43.3996 26.8C43.8996 26.5 44.1996 25.9 44.0996 25.2L42.6996 17.5C42.6996 17.2 42.7996 16.9 42.9996 16.7L48.6996 11.2C49.0996 10.8 49.2996 10.1 49.0996 9.6C48.9996 9 48.4996 8.5 47.7996 8.4L39.8996 7.2C39.5996 7.2 39.3996 6.9 39.3996 6.8L35.8996 -0.3C35.4996 -0.7 34.9996 -1 34.3996 -1C33.7996 -1 33.1996 -0.7 32.9996 -0.1L29.3996 7C29.2996 7.2 29.0996 7.3 28.7996 7.4L20.8996 8.5C20.2996 8.6 19.8996 9 19.6996 9.6C19.4996 10.2 19.6996 10.8 20.0996 11.2L25.7996 16.8ZM41.1996 15C40.3996 15.8 40.0996 16.9 40.1996 18L41.1996 23.8L35.8996 21C35.2996 20.7 34.8996 20.6 34.2996 20.6C33.6996 20.6 33.1996 20.8 32.6996 21L27.4996 23.7L28.4996 17.9C28.6996 16.8 28.2996 15.7 27.4996 14.9L23.2996 10.8L29.1996 10C30.2996 9.8 31.1996 9.1 31.6996 8.1L34.2996 2.8L36.9996 8.1C37.4996 9.1 38.3996 9.8 39.4996 10L45.3996 10.8L41.1996 15Z" fill="white"/>
	</symbol>
	<symbol id="desc-5" viewBox="0 0 69 69" fill="none" xmlns="http://www.w3.org/2000/svg">
	<g clip-path="url(#clip0)">
	<path d="M43.6999 68.3C43.8999 68.6 44.1999 68.7 44.4999 68.8C44.5999 68.8 44.5999 68.8 44.6999 68.8C44.9999 68.8 45.2999 68.7 45.4999 68.5L68.4999 50.4C68.7999 50.2 68.8999 49.9 68.9999 49.6C68.9999 49.3 68.8999 48.9 68.6999 48.7L63.4999 42.1C63.2999 41.8 62.8999 41.6 62.4999 41.6C62.1999 41.6 61.8999 41.7 61.6999 41.9C61.1999 42.3 61.0999 43.1 61.4999 43.7L65.5999 48.9L65.8999 49.3L65.4999 49.6L45.2999 65.4L44.8999 65.7L44.5999 65.3L21.5999 36L21.3999 35.8L21.4999 35.6L25.1999 21.6L25.4999 20.5L26.0999 21.5C26.7999 22.7 27.4999 23.9 28.0999 24.9C28.2999 25.3 28.6999 25.5 29.1999 25.5C29.3999 25.5 29.5999 25.4 29.7999 25.3C30.0999 25.1 30.2999 24.9 30.3999 24.5C30.4999 24.2 30.4999 23.8 30.2999 23.5C30.0999 23.2 29.4999 22.1 28.5999 20.6L28.1999 19.9H28.9999L42.1999 19.3H42.4999L42.6999 19.5L56.5999 37.2C56.7999 37.5 57.1999 37.7 57.5999 37.7C57.8999 37.7 58.1999 37.6 58.3999 37.4C58.8999 37 58.9999 36.2 58.5999 35.6L44.0999 17.2C43.8999 16.9 43.4999 16.7 43.0999 16.7L26.9999 17.4H26.6999L26.4999 17.2C23.2999 12.5 20.4999 9.5 18.4999 8.5C17.3999 8 16.1999 7.8 14.7999 7.8C13.1999 7.8 11.5999 8.1 10.0999 8.4C8.69994 8.7 7.49994 8.9 6.39994 8.9C5.69994 8.9 5.09994 8.8 4.59994 8.5C2.39994 7.4 2.39994 3 2.59994 1.4C2.69994 0.7 2.19994 0.1 1.49994 0H1.39994C0.699942 0 0.199942 0.5 0.099942 1.1C-5.80102e-05 1.9 -0.800058 8.7 3.49994 10.8C4.29994 11.2 5.29994 11.4 6.39994 11.4C7.69994 11.4 9.19994 11.1 10.5999 10.8C11.9999 10.5 13.3999 10.2 14.7999 10.2C15.7999 10.2 16.6999 10.4 17.3999 10.7C19.2999 11.6 21.7999 14.8 23.5999 17.4L23.7999 17.7L23.5999 18C23.4999 18.1 23.4999 18.3 23.3999 18.4L18.7999 35.7C18.6999 36.1 18.7999 36.5 18.9999 36.8L43.6999 68.3Z" fill="white"/>
	<path d="M32.2 31.1001C32 30.8001 31.6 30.6001 31.2 30.6001C30.9 30.6001 30.7 30.7001 30.4 30.9001C29.8 31.3001 29.7 32.1001 30.2 32.7001L46.5 54.3001C46.7 54.6001 47.1 54.8001 47.5 54.8001C47.8 54.8001 48 54.7001 48.3 54.5001C48.9 54.1001 49 53.3001 48.5 52.7001L32.2 31.1001Z" fill="white"/>
	<path d="M41.3996 31.1001C41.1996 30.8001 40.7996 30.6001 40.3996 30.6001C40.0996 30.6001 39.8996 30.7001 39.5996 30.8001C39.2996 31.0001 39.1996 31.3001 39.0996 31.6001C39.0996 31.9001 39.0996 32.3001 39.2996 32.5001L51.9996 49.7001C52.1996 50.0001 52.5996 50.2001 52.9996 50.2001C53.2996 50.2001 53.4996 50.1001 53.6996 50.0001C53.9996 49.8001 54.0996 49.5001 54.1996 49.2001C54.1996 48.9001 54.1996 48.5001 53.9996 48.3001L41.3996 31.1001Z" fill="white"/>
	</g>
	<defs>
	<clipPath id="clip0">
	<rect width="69" height="68.8" fill="white"/>
	</clipPath>
	</defs>
	</symbol>
</svg>