<svg width="270" height="125" viewBox="0 0 270 125" fill="none" xmlns="http://www.w3.org/2000/svg">
<path fill-rule="evenodd" clip-rule="evenodd" d="M86.851 70.853C86.851 71.7653 86.851 70.853 87.1558 71.4612C88.07 71.4612 88.07 71.1571 88.3747 70.549C88.6795 69.9408 88.6795 69.6367 88.9842 69.0285C93.2506 59.6017 95.6885 62.3385 93.5553 64.4672C92.0316 65.6835 91.7269 65.9876 89.8984 66.8999C90.2032 67.8121 90.2032 68.7244 90.8126 69.3326C91.4221 70.2449 92.9458 71.1571 93.86 71.1571H98.7359C100.564 71.1571 104.831 70.2449 106.659 69.3326C109.402 67.8121 109.707 65.9876 108.792 63.2508C108.488 62.0345 108.488 61.4263 108.488 59.9058C107.573 60.2099 107.269 60.8181 106.964 61.7304C106.05 63.2508 106.964 65.0753 107.573 66.2917C107.269 66.2917 106.659 66.8999 106.659 66.8999C105.135 67.5081 103.916 67.5081 102.393 67.5081C99.3454 67.5081 95.6885 67.5081 92.6411 67.5081C92.6411 66.2917 93.2506 66.2917 94.1648 65.6835C95.6885 64.4672 98.1264 62.9467 97.5169 60.514C97.2122 59.2977 95.6885 58.9936 95.079 58.9936C94.1648 59.2977 93.2506 59.9058 92.3363 60.8181L88.6795 64.1631L90.5079 50.175C90.8127 47.1341 90.2032 48.0464 96.298 48.0464H136.219C136.219 49.8709 133.781 50.175 133.781 52.6077V70.549C133.781 72.3735 135.914 70.853 136.219 70.2449L139.571 66.2917C140.485 65.9876 140.485 67.204 140.485 68.4203C140.485 69.6367 140.485 69.9408 140.79 70.853C143.228 70.2449 144.142 66.5958 146.275 65.3794C147.19 64.7713 146.885 65.6835 146.885 66.8999C146.885 67.8121 147.19 68.1162 147.799 68.7244C150.237 71.7653 157.551 71.4612 159.989 68.7244C160.598 68.1162 162.122 66.5958 161.817 65.3794C161.512 64.1631 161.512 65.0753 161.208 65.3794C158.77 67.204 155.418 67.204 152.37 67.204C149.323 67.204 148.409 65.9876 149.018 62.9467C149.018 62.0345 149.323 60.8181 149.018 60.2099C148.713 59.6017 149.323 59.9058 148.409 59.6017L146.885 58.9936C145.971 60.2099 143.533 63.2508 142.314 63.5549C142.314 61.7304 142.314 59.6017 141.4 58.0813C140.485 58.3854 138.962 60.2099 138.657 61.1222C138.352 61.7304 138.352 61.4263 138.047 62.0345L137.438 62.9467C137.133 63.5549 137.743 62.6426 137.133 63.2508C136.828 63.5549 136.524 64.1631 135.914 64.4672C135 62.6426 136.828 51.3913 136.828 48.0464H178.578C178.578 55.9527 178.578 52.9118 180.711 53.824C181.016 54.1281 181.016 54.7363 181.016 55.0404C181.321 61.1222 181.016 67.204 181.016 72.9817L182.54 71.4612C184.368 69.9408 185.282 56.5609 185.282 53.2159C186.806 53.2159 186.196 53.2159 187.72 53.2159V70.853C188.939 71.1571 188.634 71.1571 189.853 71.4612C191.072 68.7244 191.072 65.0753 191.682 62.3385C191.682 61.7304 191.682 60.8181 191.986 59.9058L193.205 52.9118C193.815 52.9118 193.815 52.9118 194.424 52.6077C194.424 53.52 194.729 53.52 194.729 54.1281L195.339 59.6017C195.643 61.4263 196.253 69.3326 197.167 70.549C198.386 72.3735 201.738 72.6776 203.262 71.4612C204.786 70.2449 204.786 68.7244 204.786 66.5958C204.786 65.6835 204.481 65.6835 204.176 64.7713H203.567C202.652 68.4203 196.558 67.204 198.386 58.9936L199.605 52.6077C203.871 52.6077 203.567 46.83 203.567 43.7891C203.567 42.2687 203.262 43.1809 202.957 43.1809C199.605 44.3973 196.862 46.2218 192.596 46.5259C190.463 46.5259 178.578 48.0464 178.273 45.6136H163.95C161.817 45.6136 159.684 45.6136 157.551 45.6136H152.675C151.151 45.6136 149.932 45.6136 148.409 45.6136H143.837C142.619 45.6136 141.4 45.6136 140.181 45.6136H126.772C125.248 45.6136 124.029 45.6136 122.506 45.6136C111.535 45.6136 100.564 45.6136 89.5937 45.6136C89.5937 44.7014 89.8984 43.1809 90.2032 42.5728C89.2889 42.2687 88.3747 41.3564 87.1558 41.3564C86.5463 52.3036 86.851 61.7304 86.851 70.853ZM238.307 63.5549C239.221 63.5549 240.44 63.859 240.44 62.9467C240.44 62.3385 240.44 62.3385 240.135 61.7304C238.002 61.4263 238.002 62.0345 238.307 63.5549ZM154.199 63.5549C154.199 62.9467 154.199 62.9467 154.503 62.3385C156.332 60.514 157.246 64.7713 154.808 63.859C154.808 63.859 154.808 63.859 154.199 63.5549ZM101.174 63.5549C101.174 61.7304 101.479 62.3385 101.783 61.4263H103.307C103.612 62.9467 103.612 61.7304 103.307 63.5549H101.174ZM164.255 60.514C165.779 60.514 164.56 60.2099 166.998 59.2977C167.912 58.9936 166.693 58.9936 167.912 58.9936C169.131 58.9936 176.749 58.9936 177.359 59.2977C177.968 59.6017 177.664 59.6017 177.359 60.2099L176.445 63.5549C174.312 63.5549 169.74 63.2508 167.912 63.859L165.474 64.4672C164.56 64.7713 164.56 64.4672 163.95 64.7713C163.95 62.0345 164.255 61.7304 164.255 60.514ZM247.449 68.4203C247.449 69.0285 247.449 69.9408 247.754 70.2449C247.754 70.549 247.754 70.853 248.059 71.1571L248.363 71.4612C249.887 74.198 258.115 72.6776 259.944 71.1571C260.248 70.853 259.944 71.1571 260.248 70.549C260.858 69.6367 261.163 69.0285 261.467 67.8121C260.553 68.1162 260.248 68.7244 259.029 69.0285C255.677 70.2449 248.059 70.853 249.887 65.3794C250.801 62.6426 253.544 62.0345 253.544 65.0753C254.458 65.0753 255.372 65.0753 255.677 63.859C255.982 63.2508 255.677 62.6426 255.372 62.0345C253.849 60.2099 252.63 60.2099 250.497 61.4263L249.887 61.7304C248.059 63.2508 247.449 65.9876 247.449 68.4203ZM210.576 67.8121C210.576 66.2917 210.88 64.1631 212.404 63.859C213.318 65.0753 212.404 67.5081 210.576 67.8121ZM221.546 67.5081C220.632 67.8122 221.242 68.1162 220.023 68.4203H219.718C219.413 68.4203 219.413 68.7244 219.108 68.7244C218.804 68.7244 218.499 69.0285 218.194 69.0285C214.537 70.2449 211.49 69.9408 214.233 65.6835L214.842 64.4672C216.366 61.1222 214.842 58.3854 212.099 60.8181L211.795 61.1222C209.661 62.9467 209.357 63.859 208.442 66.2917C208.138 69.0285 207.833 71.7653 210.576 72.3735C212.709 72.6776 216.67 72.3735 219.108 71.4612C220.023 71.1571 221.242 70.2449 221.851 69.3326C221.851 68.7244 221.546 68.7244 221.546 67.5081ZM115.801 65.6835C116.716 65.0753 117.63 64.4672 118.849 64.4672C118.849 68.4203 115.192 70.2449 113.973 69.3326C113.363 69.0285 113.668 67.5081 115.801 65.6835ZM117.325 70.853C115.801 72.0694 112.144 73.8939 111.23 71.7653C110.316 69.6367 111.23 66.5958 112.754 65.0753C113.973 63.859 117.02 60.8181 118.849 62.3385C119.154 62.6426 119.154 62.6426 119.458 63.2508C120.677 63.2508 120.982 63.2508 121.287 62.3385H121.896C121.896 65.3794 121.591 69.0285 124.639 69.0285C125.858 69.0285 128.296 68.4203 129.21 67.8121C129.515 67.8121 129.515 67.5081 129.819 67.5081C130.124 67.204 130.124 67.204 130.429 67.204C130.734 66.8999 130.429 66.8999 131.038 66.8999C131.038 68.7244 130.734 69.9408 129.515 71.1571C127.381 72.9817 121.287 74.198 119.458 71.7653L119.154 70.853C118.849 70.5489 118.849 70.2449 118.849 69.9408C118.239 69.9408 117.935 70.2449 117.325 70.853ZM31.3883 66.8999C32.6072 65.3794 33.5214 64.4672 35.6546 64.4672C35.6546 65.3794 35.3499 65.6835 35.0452 66.2917C34.1309 67.8121 32.3025 69.0285 31.693 69.0285C29.5598 69.9408 30.7788 67.8121 31.3883 66.8999ZM27.7314 68.1162C26.8172 71.7653 29.2551 73.2858 31.9977 72.0694L33.5214 71.1571C34.1309 70.549 34.4357 70.2449 35.0452 69.6367C36.5689 72.0694 37.7878 73.8939 43.8826 72.0694C44.1874 72.0694 44.4921 71.7653 45.1016 71.7653C45.1016 71.7653 45.1016 71.7653 45.4063 71.7653C45.4063 71.7653 45.4063 71.7653 45.7111 71.7653C47.5395 70.853 48.4537 68.7244 48.4537 66.8999L46.93 67.8121C46.0158 68.4203 46.3205 68.1162 45.4063 68.4203C44.1874 68.7244 40.8352 69.6367 39.6163 68.1162C38.702 66.8999 38.702 63.5549 38.702 62.3385L37.4831 62.9467L37.1783 63.2508C36.8736 63.5549 37.1783 63.5549 36.5689 63.5549C35.9594 62.0345 35.9594 60.8181 32.6072 62.3385C32.6072 62.3385 32.6072 62.3385 32.3025 62.3385C30.7788 63.5549 28.3409 65.9876 27.7314 68.1162ZM68.2618 66.2917C70.0903 64.1631 73.4424 63.5549 71.614 66.2917C70.0903 67.5081 63.9955 71.7653 68.2618 66.2917ZM64.3002 69.0285C64.3002 69.9408 64.3002 70.853 64.9097 71.4612C65.2144 72.0694 67.9571 72.9817 70.6998 70.853C71.3093 70.2449 71.614 69.6367 72.5282 69.0285C72.5282 73.2858 77.7088 72.9817 80.7562 72.0694L81.3657 71.7653C81.3657 71.7653 81.3657 71.7653 81.6704 71.7653C83.8036 70.549 85.0226 69.3326 85.0226 66.5958C84.1084 66.8999 83.4989 67.8121 81.9752 68.1162C81.9752 68.1162 81.9752 68.1162 81.6704 68.1162C81.6704 68.1162 81.6704 68.1162 81.3657 68.1162C80.4515 68.4203 78.623 68.7244 77.7088 68.7244C77.7088 68.7244 77.0993 68.7244 76.7946 68.4203L76.4899 68.1162C74.6614 66.8999 75.2709 62.6426 75.2709 61.7304L72.833 62.9467C71.614 60.514 71.614 60.8181 69.1761 61.7304C67.3476 63.859 64.3002 66.5958 64.3002 69.0285ZM223.375 70.853C223.375 58.9936 222.765 54.1281 225.508 42.8768C226.727 42.8768 227.641 43.7891 228.555 44.0932C228.251 44.7014 227.946 48.3504 227.641 49.2627L225.508 64.7713C227.032 64.7713 228.86 62.0345 230.079 60.8181C234.65 57.7772 235.869 62.3385 231.603 65.6835L229.47 67.204C229.47 69.9408 244.097 68.4203 244.097 66.5958C244.097 65.0753 243.183 64.4672 243.488 63.2508C243.792 62.3385 244.402 60.514 245.316 60.514C245.316 61.4263 244.707 62.3385 245.011 62.9467C245.316 64.1631 246.23 64.7713 246.23 66.2917C246.23 69.3326 241.05 70.5489 238.612 70.853C235.869 71.1571 231.907 72.0694 229.165 70.549C227.641 69.6367 227.032 68.4203 226.727 66.8999L227.641 66.5958C227.641 66.5958 227.641 66.5958 227.946 66.5958C229.774 65.6835 231.603 64.1631 230.993 62.0345C227.336 63.859 227.032 65.6835 225.813 69.0285C224.898 71.1571 224.898 71.1571 223.984 71.1571C223.375 71.1571 223.375 71.7653 223.375 70.853ZM15.8465 65.6835L15.5418 65.3794C13.1038 59.6017 21.9413 56.5609 23.465 62.9467C24.9887 68.4203 17.3702 67.5081 15.8465 65.6835ZM11.8849 45.0055C11.8849 48.9586 11.5801 58.9936 12.4944 62.6426C13.1038 65.0753 14.6275 70.5489 14.6275 72.3735C15.8465 72.3735 19.5034 74.5021 23.1603 71.4612L25.2935 68.7244C27.1219 65.6835 27.4266 58.6895 24.684 55.9527C24.3792 55.6486 24.684 55.9527 24.0745 55.6486C21.6366 54.4322 19.1986 56.2568 17.3702 57.4731L15.8465 58.3854C15.8465 56.2568 15.237 55.3445 15.8465 52.6077C16.1512 50.175 15.8465 48.9586 17.9797 48.3504C19.8081 47.7423 21.3318 47.4382 23.1603 47.1341C23.7698 46.83 25.2935 46.83 25.9029 46.83C28.0361 46.5259 28.9503 47.1341 29.2551 48.9586L30.1693 48.0464C30.1693 48.0464 30.1693 48.0464 30.1693 47.7423L30.7788 45.6136C31.0835 44.7014 31.3883 42.5728 31.3883 41.6605C31.3883 38.9237 29.2551 39.2278 27.4266 39.8359L22.2461 41.3564C21.6366 41.6605 21.0271 41.6605 20.4176 41.9646L13.1038 44.0932C12.4944 44.0932 11.8849 44.0932 11.8849 45.0055ZM51.1964 75.4144V60.514C53.0248 61.1222 53.6343 62.9467 54.8533 63.5549C55.4628 63.5549 57.2912 61.7304 58.8149 61.4263C60.3386 61.4263 61.5576 62.0345 62.167 63.2508C62.4718 63.5549 62.7765 65.6835 62.7765 65.9876C62.7765 67.5081 61.5576 72.3735 58.2054 72.3735C57.2912 72.3735 56.377 71.4612 55.4628 70.549C55.158 69.9408 55.158 70.2449 54.8533 69.6367C55.158 69.0285 55.4628 69.0285 55.4628 68.4203C55.7675 68.4203 56.9865 69.0285 57.9007 69.0285C60.6433 69.9408 61.2528 66.8999 60.0339 65.0753C59.1196 63.5549 57.5959 64.4672 56.377 65.6835C54.2438 67.8122 53.3296 72.3735 53.0248 75.4144C54.2438 75.4144 54.5485 75.4144 55.7675 75.4144H263.6C269.391 75.4144 268.172 69.0285 270 66.8999C270 69.3326 270.305 71.7653 270 73.5898C269.695 75.7185 267.867 77.2389 266.648 77.2389C263.6 77.543 255.982 77.2389 252.325 77.2389L53.0248 77.543C51.8059 83.0166 50.5869 91.227 43.2731 91.227C36.2641 91.227 35.9594 84.8411 37.4831 83.6248C37.7878 85.1452 39.0068 86.0575 40.2257 86.6657C42.0542 87.5779 44.7968 87.5779 46.3205 86.6657L48.149 84.8411C48.4537 84.537 48.149 84.8411 48.4537 84.537C49.6727 82.7125 50.5869 79.6716 50.5869 77.2389H0V75.1103H51.1964V75.4144Z" fill="#0B736D"/>
<path fill-rule="evenodd" clip-rule="evenodd" d="M138.961 27.6721L136.828 25.8476L142.009 20.6781L135 13.9881L127.991 20.9822L138.657 31.6253L149.322 20.9822L134.695 6.68996L120.677 20.6781L138.047 38.0111L134.695 41.3561L114.277 20.9822L135 0L155.722 20.6781L139.571 36.7948L124.029 20.9822L135 9.73085L145.97 20.6781L138.961 27.6721Z" fill="#0B736D"/>
<path fill-rule="evenodd" clip-rule="evenodd" d="M163.341 41.9642H167.607L157.246 31.6252L146.886 41.9642H150.847L157.246 35.5784L163.341 41.9642Z" fill="#0B736D"/>
<path fill-rule="evenodd" clip-rule="evenodd" d="M170.654 41.9639H177.359L156.94 21.894L137.132 41.9639H143.532L156.94 28.584L170.654 41.9639Z" fill="#0B736D"/>
<path fill-rule="evenodd" clip-rule="evenodd" d="M119.154 41.9642H123.116L112.755 31.6252L102.698 41.9642H106.355L112.755 35.5784L119.154 41.9642Z" fill="#0B736D"/>
<path fill-rule="evenodd" clip-rule="evenodd" d="M126.163 41.9639H132.867L112.754 21.894L92.9463 41.9639H99.0411L112.45 28.584L126.163 41.9639Z" fill="#0B736D"/>
<path fill-rule="evenodd" clip-rule="evenodd" d="M138.962 96.3965L136.829 98.5251L142.01 103.694L135.305 110.384L127.991 103.39L138.657 92.4433L149.323 103.39L134.696 117.682L120.678 103.39L138.048 86.0575L135 82.7126L114.278 103.39L135 124.372L155.723 103.694L139.572 87.578L123.725 103.086L135 114.337L145.971 103.39L138.962 96.3965ZM163.341 82.4085H167.608L157.247 92.7474L147.19 82.4085H151.152L157.551 88.4902L163.341 82.4085ZM170.655 82.4085H177.359L156.942 102.478L137.134 82.4085H143.533L156.942 95.7883L170.655 82.4085ZM119.154 82.4085H123.116L112.754 92.7474L102.698 82.4085H106.66L113.059 88.4902L119.154 82.4085ZM126.163 82.4085H132.867L112.754 102.478L92.9463 82.4085H99.3458L112.754 95.7883L126.163 82.4085Z" fill="#0B736D"/>
</svg>