<svg width="20" height="20" viewBox="0 0 20 20" fill="none" xmlns="http://www.w3.org/2000/svg">
<g clip-path="url(#clip0)">
<path d="M10.7381 5.17385C11.7548 5.3482 12.6843 5.82869 13.425 6.56665C14.1617 7.30259 14.6447 8.23112 14.8192 9.24886C14.8862 9.65028 15.2312 9.9402 15.6391 9.9402C15.6919 9.9402 15.7386 9.93411 15.771 9.92803C15.7731 9.92803 15.7751 9.92803 15.7771 9.926C15.9983 9.88951 16.1911 9.7699 16.319 9.58541C16.4468 9.40294 16.4956 9.18399 16.457 8.96706C16.2256 7.60872 15.5843 6.37202 14.6001 5.38875C13.6117 4.40548 12.3718 3.76483 11.0141 3.53573H11.012C10.5595 3.46072 10.1313 3.76686 10.0562 4.21693C9.98515 4.67106 10.2896 5.09884 10.7381 5.17385Z" fill="#0B736D"/>
<path d="M15.8537 12.1338C15.3991 11.6614 14.8491 11.4121 14.2626 11.4121C13.6822 11.4121 13.1281 11.6574 12.6634 12.1237L11.5087 13.2772C11.4802 13.2631 11.4518 13.2489 11.4254 13.2347L11.3666 13.2063C11.2428 13.1434 11.1007 13.0725 10.983 12.9995C9.79785 12.2473 8.71616 11.262 7.67304 9.98479C7.22657 9.42321 6.91403 8.94678 6.68471 8.47238C6.97492 8.19868 7.24483 7.92499 7.49851 7.66548C7.55533 7.60872 7.61216 7.54992 7.67101 7.49113C7.72783 7.43234 7.78669 7.37354 7.84554 7.31475C8.32854 6.83223 8.58425 6.27268 8.58222 5.69691C8.58222 5.12316 8.32651 4.56564 7.84554 4.08718L6.72327 2.96604C6.65833 2.90116 6.59338 2.83629 6.53047 2.77141C6.46756 2.70654 6.40262 2.64166 6.33971 2.57881L6.25041 2.48758C6.0292 2.26254 5.79988 2.0294 5.56852 1.81652C5.11799 1.36847 4.57208 1.13127 3.99369 1.13127C3.41733 1.13127 2.86736 1.36847 2.39856 1.81652C2.39653 1.81855 2.3945 1.81855 2.3945 1.82058L0.988108 3.22352C0.41378 3.79726 0.0870421 4.4967 0.0160122 5.30157V5.3036C-0.0590766 6.25646 0.113425 7.26204 0.559899 8.46832C1.2357 10.293 2.25041 11.9838 3.75016 13.7881C5.5807 15.9676 7.77857 17.6868 10.2809 18.8971H10.2829C11.2469 19.3573 12.5416 19.8966 14.0028 19.9919C14.0049 19.9919 14.0069 19.9919 14.0089 19.9919H14.0191C14.1023 19.9959 14.1895 20 14.2809 20C15.3057 20 16.1702 19.629 16.8481 18.8971L16.8582 18.887C16.8663 18.8789 16.8724 18.8728 16.8785 18.8647C17.0815 18.6214 17.3148 18.3964 17.5766 18.145C17.7573 17.9726 17.9419 17.7962 18.1205 17.6057C18.5812 17.1252 18.8247 16.5656 18.8227 15.9878C18.8207 15.408 18.5731 14.8545 18.1063 14.3882L15.8537 12.1338ZM15.6304 17.7841C15.2692 18.1693 14.8552 18.3416 14.291 18.3416C14.2382 18.3416 14.1794 18.3376 14.1185 18.3335C12.9495 18.2585 11.8435 17.7962 11.0114 17.4009C8.71413 16.296 6.70094 14.7228 5.02667 12.7238C3.6568 11.0755 2.73341 9.53877 2.12256 7.89255C1.75726 6.91333 1.61926 6.15509 1.67608 5.43943C1.71261 5.02179 1.86888 4.6893 2.1672 4.39534L3.56345 3.00051C3.70957 2.86062 3.85975 2.7856 3.99978 2.7856C4.13169 2.7856 4.27172 2.85859 4.41987 3.00253C4.4219 3.00456 4.42393 3.00659 4.42596 3.00862C4.66746 3.23568 4.90287 3.47491 5.15249 3.7263L5.16061 3.73441C5.28035 3.85808 5.41835 4 5.55838 4.13583L6.67862 5.25494C7.00536 5.58135 7.00536 5.81044 6.67862 6.13685C6.56091 6.25443 6.44118 6.37405 6.32347 6.49569L6.24026 6.58084C5.9257 6.89914 5.62941 7.19919 5.30673 7.48505C5.30267 7.4891 5.29658 7.49316 5.29252 7.49924L5.27223 7.51951C4.92925 7.86214 4.8359 8.27167 4.99623 8.73391C5.00028 8.74607 5.00434 8.75621 5.0084 8.76635C5.01043 8.77243 5.01246 8.77851 5.01652 8.78459C5.31687 9.50836 5.739 10.1956 6.38841 11.0167C6.38841 11.0188 6.39044 11.0188 6.39044 11.0208C7.54316 12.4379 8.75878 13.5449 10.1084 14.4004C10.2849 14.5119 10.4676 14.6052 10.638 14.6903C10.7639 14.7532 10.9059 14.8262 11.0236 14.8971C11.0317 14.9032 11.0399 14.9072 11.048 14.9113L11.0541 14.9154C11.0662 14.9214 11.0784 14.9295 11.0926 14.9356C11.2692 15.0248 11.4437 15.0674 11.6243 15.0674C11.9328 15.0674 12.2169 14.9397 12.4463 14.6984L13.8506 13.2955C13.9521 13.1941 14.1104 13.0725 14.2768 13.0725C14.431 13.0725 14.5812 13.1921 14.6786 13.2935C14.6806 13.2955 14.6806 13.2955 14.6827 13.2975L16.9495 15.5621C17.1728 15.7851 17.325 16.0487 16.9313 16.4622L16.9293 16.4643C16.8055 16.5981 16.6735 16.7258 16.5335 16.8616C16.5031 16.89 16.4726 16.9204 16.4422 16.9508C16.1581 17.2164 15.8861 17.48 15.6304 17.7841Z" fill="#0B736D"/>
<path d="M19.9859 8.80487C19.6125 6.60923 18.5734 4.60618 16.9803 3.0147C15.3811 1.42119 13.3761 0.383173 11.1762 0.0121639C10.7236 -0.0628488 10.2954 0.243284 10.2203 0.69336C10.1452 1.14546 10.4517 1.57324 10.9002 1.64825C12.7611 1.96452 14.4557 2.8444 15.8033 4.18855C17.1508 5.53472 18.0295 7.22757 18.3461 9.08465C18.4131 9.48606 18.7581 9.77598 19.166 9.77598C19.168 9.77598 19.1701 9.77598 19.1721 9.77598C19.2228 9.77598 19.2655 9.7699 19.2979 9.76381C19.3 9.76381 19.302 9.76381 19.304 9.76179C19.5252 9.72529 19.718 9.60568 19.8459 9.42119C19.9758 9.24075 20.0245 9.0218 19.9859 8.80487Z" fill="#0B736D"/>
</g>
<defs>
<clipPath id="clip0">
<rect width="20" height="20" fill="white"/>
</clipPath>
</defs>
</svg>