<svg width="110" height="90" viewBox="0 0 110 90" fill="none" xmlns="http://www.w3.org/2000/svg">
<path d="M109.652 50.2397C109.181 49.4692 108.397 48.8527 107.456 48.6986C107.299 48.6986 103.22 48.0822 97.7295 47.774C98.6707 45.4623 99.1413 42.8425 99.1413 40.3767V38.3733C98.9845 27.2774 89.729 18.4932 78.1204 18.4932H77.6498C77.1791 18.4932 76.7085 18.4932 76.2379 18.4932C76.081 18.4932 75.7673 18.4932 75.6104 18.4932C74.6692 8.0137 65.7274 0 54.5895 0H54.1189C42.9809 0 34.0391 8.0137 33.2548 18.339C33.0979 18.339 32.7842 18.339 32.6273 18.339C32.1567 18.339 31.6861 18.339 31.2154 18.339H30.7448C18.8225 18.4932 9.56699 27.2774 9.56699 38.3733V40.3767C9.56699 42.9966 10.0376 45.4623 10.9788 47.9281C6.11579 48.2363 2.97834 48.6986 2.66459 48.6986C1.72336 48.8527 0.938992 49.4692 0.468374 50.2397C-0.00224429 51.0103 -0.159117 52.089 0.311501 52.8596C0.625247 53.7842 9.88074 76.9007 24.313 85.0685C30.1173 88.3048 35.451 90 40.1572 90C46.4321 90 51.6089 87.0719 55.0601 81.6781C58.3544 87.0719 63.6881 90 69.963 90C74.6692 90 80.0029 88.3048 85.8072 85.0685C100.239 76.9007 109.495 53.7842 109.809 52.8596C110.122 52.089 110.122 51.0103 109.652 50.2397ZM49.8833 78.2877C45.8046 85.3767 37.8041 85.6849 27.4505 79.8288C18.0381 74.589 10.822 61.0274 7.68452 54.4007C9.72387 54.2466 12.3907 54.0925 15.3713 53.9384C15.9988 54.0925 16.4694 54.0925 17.0969 53.9384C26.9799 53.9384 34.8235 55.4795 40.0003 58.4075C45.8046 61.6438 49.4127 65.1884 50.8245 69.0411C52.0795 71.9692 51.7658 75.0514 49.8833 78.2877ZM55.0601 63.339C52.707 59.6404 48.6283 56.0959 43.2946 53.0137C37.3335 49.6233 28.7055 47.774 18.0381 47.774C16.6263 45.6164 15.9988 42.9966 15.9988 40.3767V38.3733C15.9988 30.5137 22.2737 24.6575 30.5879 24.6575H31.0586C31.686 24.6575 32.3135 24.6575 32.941 24.5034C33.8823 24.5034 34.8235 24.3493 35.2941 24.5034C36.2354 24.8116 37.3335 24.6575 38.1178 24.0411C38.9022 23.4247 39.3728 22.5 39.3728 21.5753V19.726C39.3728 11.8664 45.6477 6.01027 53.962 6.01027H54.4326C62.7469 6.01027 69.0218 11.8664 69.0218 19.726V21.5753C69.0218 22.5 69.4924 23.4247 70.2767 24.0411C71.0611 24.6575 72.1592 24.8116 73.1005 24.5034C73.728 24.3493 74.5123 24.3493 75.4535 24.5034C76.081 24.5034 76.7085 24.6575 77.336 24.6575H77.8066C86.1209 24.6575 92.3958 30.5137 92.3958 38.3733V40.3767C92.3958 42.9966 91.6114 45.6164 90.3565 47.774C80.3166 48.0822 72.3161 49.7774 66.6687 53.0137C60.8644 56.4041 57.2563 59.9486 55.0601 63.339ZM82.6697 79.8288C72.3161 85.6849 64.4725 85.2226 60.2369 78.2877C55.0601 69.3493 62.7469 62.5685 69.963 58.4075C74.8261 55.6336 82.0422 54.2466 90.984 53.9384C91.2977 54.0925 91.6114 54.0925 92.0821 54.0925C92.3958 54.0925 92.8664 53.9384 93.1802 53.9384C96.6314 53.9384 99.9257 54.0925 102.279 54.4007C99.1413 60.8733 91.9252 74.4349 82.6697 79.8288Z" fill="#0B736D"/>
</svg>