<svg>
	<symbol id="why-1" viewBox="0 0 100 100" fill="none" xmlns="http://www.w3.org/2000/svg">
	<path d="M49.9487 36.918C42.1539 36.918 35.8975 43.2171 35.8975 50.837C35.8975 58.457 42.2564 64.7561 49.9487 64.7561C57.641 64.7561 64 58.457 64 50.837C64 43.2171 57.7436 36.918 49.9487 36.918ZM49.9487 60.8954C44.4103 60.8954 39.8975 56.425 39.8975 50.9386C39.8975 45.4523 44.4103 40.9819 49.9487 40.9819C55.4872 40.9819 60 45.4523 60 50.9386C60 56.425 55.4872 60.8954 49.9487 60.8954Z" fill="white"/>
	<path d="M80.2047 42.9124L74.8714 42.8108L74.6663 42.2012C74.3586 41.3884 74.0509 40.6772 73.6406 39.7628L73.3329 39.1532L77.1278 35.3941C77.5381 34.9877 77.7432 34.4797 77.7432 33.9717C77.7432 33.4637 77.5381 32.9557 77.1278 32.5493L68.615 24.1166C67.897 23.4054 66.5637 23.4054 65.7432 24.1166L61.8458 27.7741L61.2304 27.4693C60.4099 27.0629 59.6919 26.7582 58.7688 26.4534L58.0509 26.2502V20.967C58.0509 19.8494 57.1278 19.0366 56.1022 19.0366H43.897C42.7688 19.0366 41.9483 19.951 41.9483 20.967L41.8458 26.2502L41.0252 26.555C40.2047 26.8598 39.4868 27.1645 38.5637 27.5709L37.9483 27.8757L34.1534 24.1166C33.4355 23.4054 32.1022 23.4054 31.2817 24.1166L22.7688 32.5493C22.3586 32.9557 22.1534 33.4637 22.1534 33.9717C22.1534 34.4797 22.3586 34.9877 22.7688 35.3941L26.4611 39.2548L26.1534 39.8644C25.7432 40.6772 25.4355 41.3884 25.1278 42.3028L24.9227 43.014H19.5893C18.4611 43.014 17.6406 43.9284 17.6406 44.9444V56.9331C17.6406 58.0507 18.5637 58.8635 19.5893 58.8635L24.9227 58.9651L25.1278 59.5747C25.4355 60.3874 25.7432 61.0986 26.1534 62.013L26.4611 62.6226L22.6663 66.3818C22.256 66.7882 22.0509 67.2962 22.0509 67.8042C22.0509 68.3122 22.256 68.8202 22.6663 69.2266L31.1791 77.6593C31.897 78.3705 33.2304 78.3705 34.0509 77.6593L37.9483 74.0017L38.5637 74.3065C39.3842 74.7129 40.1022 75.0177 41.0252 75.3225L41.7432 75.5257V80.8089C41.7432 81.9264 42.6663 82.7392 43.6919 82.7392H55.7945C56.9227 82.7392 57.7432 81.8248 57.7432 80.8089L57.8458 75.5257L58.4611 75.3225C59.2817 75.0177 59.9996 74.7129 60.9227 74.3065L61.5381 74.0017L65.3329 77.7609C66.0509 78.4721 67.3842 78.4721 68.2047 77.7609L76.7176 69.3282C77.1278 68.9218 77.3329 68.4138 77.3329 67.9058C77.3329 67.3978 77.1278 66.8898 76.7176 66.4834L73.0252 62.6226L73.3329 62.013C73.7432 61.2002 74.0509 60.489 74.3586 59.5747L74.8714 58.8635H80.2047C81.3329 58.8635 82.1535 57.9491 82.1535 56.9331V44.9444C82.1535 43.8268 81.2304 42.9124 80.2047 42.9124ZM78.1534 54.9011H75.5893C73.4355 54.9011 71.5893 56.2219 70.7688 58.3555C70.5637 59.0667 70.256 59.6763 69.9483 60.2858C69.0252 62.3178 69.3329 64.553 70.8714 66.077L72.7176 67.9058L66.974 73.5953L65.1278 71.7665C63.5893 70.2425 61.3329 69.9378 59.2817 70.8522C58.6663 71.1569 58.0509 71.3601 57.3329 71.6649C55.2817 72.3761 53.8458 74.3065 53.8458 76.4401V78.9801H45.7432V76.4401C45.7432 74.3065 44.4099 72.4777 42.256 71.6649C41.5381 71.4617 40.9227 71.1569 40.3073 70.8522C38.256 69.9378 35.9996 70.2425 34.4611 71.7665L32.8201 73.5953L27.0765 67.9058L28.9227 66.077C30.4611 64.553 30.7688 62.3178 29.8458 60.2858C29.5381 59.6763 29.3329 59.0667 29.0252 58.3555C28.3073 56.3235 26.3586 54.9011 24.3073 54.9011H21.7432V46.8748H24.3073C26.4611 46.8748 28.3073 45.554 29.1278 43.4204C29.3329 42.7092 29.6406 42.0996 29.9483 41.49C30.8714 39.458 30.5637 37.2229 29.0252 35.6989L27.1791 33.8701L32.9227 28.1805L34.7688 30.0093C36.3073 31.5333 38.5637 31.8381 40.615 30.9237C41.2304 30.6189 41.8458 30.4157 42.5637 30.1109C44.615 29.3997 46.0509 27.4693 46.0509 25.3358V22.7958H54.1534V25.3358C54.1534 27.4693 55.4868 29.2981 57.6406 30.1109C58.3586 30.3141 58.974 30.6189 59.5893 30.9237C61.6406 31.8381 63.897 31.5333 65.4355 30.0093L67.2817 28.1805L73.0252 33.8701L71.1791 35.6989C69.6406 37.2229 69.3329 39.458 70.256 41.49C70.5637 42.0996 70.7688 42.7092 71.0765 43.4204C71.7945 45.4524 73.7432 46.8748 75.7945 46.8748H78.3586V54.9011H78.1534Z" fill="white"/>
	<path d="M8.30769 73.2904C16.6154 88.4287 32.6154 97.7758 49.9487 97.7758C75.6923 97.7758 96.718 77.2528 97.3333 51.853H93.3333C92.718 75.1192 73.5385 93.9151 49.9487 93.9151C31.5897 93.9151 15.1795 82.4344 9.02564 65.2641C8.71795 64.4513 8 63.9433 7.17949 63.9433C6.35897 63.9433 5.64103 64.4513 5.33333 65.2641L0 79.2848L3.79487 80.7072L7.17949 71.3601L8.30769 73.2904Z" fill="white"/>
	<path d="M95.5901 39.4581L100 22.491L96.1029 21.475L93.3337 32.0413L92.1029 29.603C84.1029 14.0583 67.5901 4 49.9491 4C24.1029 4 3.07727 24.523 2.56445 49.9228H6.56445C7.07727 26.6566 26.3593 7.96236 49.9491 7.96236C69.4362 7.96236 86.5645 20.967 91.7952 39.4581C92.0004 40.2709 92.8209 40.8805 93.7439 40.8805C94.5645 40.8805 95.385 40.2709 95.5901 39.4581Z" fill="white"/>
	</symbol>
	<symbol id="why-2" viewBox="0 0 100 90" fill="none" xmlns="http://www.w3.org/2000/svg">
	<path d="M91.4999 27.4001C91.4999 27.3001 91.3999 27.3001 91.3999 27.2001C84.3999 11.2001 68.5999 0.500079 51.0999 7.85738e-05C33.5999 -0.399921 17.2999 9.40008 9.49994 25.1001C8.99994 26.2001 9.39994 27.4001 10.4999 28.0001C10.9999 28.3001 11.5999 28.3001 12.0999 28.1001C12.5999 27.9001 13.0999 27.5001 13.2999 27.0001C20.3999 12.8001 35.1999 3.80008 50.9999 4.20008C66.5999 4.60008 80.6999 14.0001 87.1999 28.2001C83.8999 29.7001 81.6999 33.0001 81.7999 36.6001C81.7999 39.0001 82.7999 41.3001 84.5999 43.0001C86.2999 44.7001 88.5999 45.6001 90.9999 45.6001H91.0999C96.0999 45.6001 100.1 41.4001 100.1 36.4001C99.9999 31.7001 96.1999 27.7001 91.4999 27.4001ZM90.8999 41.4001C89.5999 41.4001 88.3999 40.9001 87.4999 40.0001C86.5999 39.1001 86.0999 37.8001 85.9999 36.5001C85.9999 33.8001 88.0999 31.6001 90.7999 31.6001C93.4999 31.6001 95.6999 33.7001 95.6999 36.4001C95.7999 39.2001 93.5999 41.4001 90.8999 41.4001Z" fill="white"/>
	<path d="M90.2996 61.0999C89.3996 60.7999 88.2996 61.1999 87.7996 62.0999C81.0996 76.5999 66.5996 85.8999 50.5996 85.8999C50.3996 85.8999 50.2996 85.8999 50.0996 85.8999C34.3996 85.5999 19.9996 76.2999 13.4996 61.8999C16.3996 60.2999 18.1996 57.1999 18.1996 53.8999C18.1996 51.4999 17.1996 49.1999 15.4996 47.4999C13.7996 45.7999 11.4996 44.8999 9.09961 44.8999C4.09961 44.8999 0.0996094 49.0999 0.0996094 54.0999C0.0996094 56.4999 1.09961 58.7999 2.79961 60.4999C4.49961 62.1999 6.79961 63.0999 9.19961 63.0999C9.29961 63.0999 9.39961 63.0999 9.49961 63.0999C16.5996 79.2999 32.5996 89.7999 50.1996 90.0999C50.3996 90.0999 50.5996 90.0999 50.6996 90.0999C68.2996 90.0999 84.2996 79.7999 91.6996 63.7999C91.9996 62.5999 91.3996 61.3999 90.2996 61.0999ZM9.09961 49.0999C10.3996 49.0999 11.5996 49.5999 12.4996 50.4999C13.3996 51.3999 13.8996 52.5999 13.8996 53.8999C13.8996 56.5999 11.7996 58.7999 9.09961 58.8999C7.79961 58.8999 6.59961 58.3999 5.69961 57.4999C4.79961 56.5999 4.29961 55.2999 4.19961 53.9999C4.19961 51.2999 6.29961 49.0999 9.09961 49.0999Z" fill="white"/>
	<path d="M37.1993 52.3001C36.6993 52.4001 36.2993 52.6001 35.9993 53.0001C35.6993 53.4001 35.4993 53.9001 35.5993 54.4001C35.6993 54.9001 35.8993 55.3001 36.2993 55.6001C36.6993 55.9001 37.1993 56.1001 37.5993 56.0001H39.2993V65.1001C39.2993 65.6001 39.4993 66.1001 39.8993 66.4001C40.2993 66.8001 40.6993 67.0001 41.1993 67.0001C41.6993 67.0001 42.1993 66.8001 42.4993 66.4001C42.8993 66.0001 43.0993 65.6001 43.0993 65.1001V56.0001H55.3993C55.8993 56.0001 56.3993 55.8001 56.6993 55.5001C57.0993 55.1001 57.2993 54.7001 57.2993 54.2001C57.2993 53.7001 57.0993 53.2001 56.6993 52.9001C56.2993 52.5001 55.8993 52.3001 55.3993 52.3001H42.9993V48.8001H52.1993C58.9993 48.6001 64.4993 42.6001 64.2993 35.6001C64.0993 28.6001 58.6993 23.2001 51.8993 23.1001H41.3993C39.9993 23.1001 39.2993 23.8001 39.2993 25.2001V45.0001H37.3993C36.8993 45.0001 36.4993 45.3001 36.0993 45.6001C35.7993 46.0001 35.5993 46.5001 35.5993 46.9001C35.6993 47.9001 36.5993 48.7001 37.5993 48.7001H39.2993V52.2001L37.1993 52.3001ZM42.9993 45.0001V26.8001H45.0993C47.2993 26.8001 49.3993 26.8001 51.5993 26.8001C56.4993 26.7001 60.4993 30.6001 60.6993 35.6001C60.7993 38.1001 59.7993 40.5001 58.1993 42.3001C56.5993 44.0001 54.4993 44.9001 52.2993 45.0001C50.1993 45.0001 47.9993 45.0001 45.8993 45.0001C44.7993 45.0001 43.8993 45.0001 42.9993 45.0001Z" fill="white"/>
	</symbol>
	<symbol id="why-3" viewBox="0 0 100 100" fill="none" xmlns="http://www.w3.org/2000/svg">
	<path d="M61.2 40.6998L46.2 54.8998L39 47.4998C38.2 46.6998 36.9 46.6998 36.1 47.4998C35.3 48.2998 35.3 49.5998 36.1 50.3998L44.8 59.2998C45.2 59.6998 45.8 59.8998 46.3 59.8998C46.8 59.8998 47.3 59.6998 47.7 59.2998L64.2 43.6998C65 42.8998 65.1 41.5998 64.3 40.7998C63.3 39.9998 62 39.8998 61.2 40.6998Z" fill="white"/>
	<path d="M49.9998 18.8999C32.7998 18.8999 18.7998 32.8999 18.7998 50.0999C18.7998 67.2999 32.7998 81.2999 49.9998 81.2999C67.1998 81.2999 81.1998 67.2999 81.1998 50.0999C81.1998 32.8999 67.1998 18.8999 49.9998 18.8999ZM49.9998 76.9999C35.0998 76.9999 22.9998 64.8999 22.9998 49.9999C22.9998 35.0999 35.0998 22.9999 49.9998 22.9999C64.8998 22.9999 76.9998 35.0999 76.9998 49.9999C76.9998 64.8999 64.8998 76.9999 49.9998 76.9999Z" fill="white"/>
	<path d="M92.8998 38.5998L93.5998 26.1998C93.5998 25.3998 93.1998 24.5998 92.4998 24.1998L81.4998 18.5998L75.8998 7.5998C75.4998 6.8998 74.7998 6.3998 73.8998 6.4998L61.4998 7.1998L51.1998 0.299805C50.4998 -0.200195 49.5998 -0.200195 48.8998 0.299805L38.4998 7.1998L26.1998 6.4998C25.3998 6.4998 24.5998 6.8998 24.1998 7.5998L18.5998 18.5998L7.5998 24.1998C6.8998 24.5998 6.3998 25.2998 6.4998 26.1998L7.1998 38.5998L0.299805 48.8998C-0.200195 49.5998 -0.200195 50.4998 0.299805 51.1998L7.0998 61.4998L6.4998 73.8998C6.4998 74.6998 6.8998 75.4998 7.5998 75.8998L18.5998 81.4998L24.1998 92.4998C24.5998 93.1998 25.2998 93.6998 26.1998 93.5998L38.5998 92.8998L48.8998 99.6998C49.2998 99.8998 49.6998 100.1 49.9998 100.1C50.3998 100.1 50.7998 99.9998 51.0998 99.6998L61.3998 92.8998L73.7998 93.5998C74.5998 93.5998 75.3998 93.1998 75.7998 92.4998L81.3998 81.4998L92.3998 75.8998C93.0998 75.4998 93.5998 74.7998 93.4998 73.8998L92.7998 61.4998L99.5998 51.1998C100.1 50.4998 100.1 49.5998 99.5998 48.8998L92.8998 38.5998ZM88.9998 59.7998C88.6998 60.1998 88.5998 60.5998 88.6998 61.0998L89.2998 72.7998L78.8998 77.9998C78.4998 78.1998 78.1998 78.4998 77.9998 78.8998L72.6998 89.2998L60.9998 88.6998C60.5998 88.6998 60.0998 88.7998 59.6998 88.9998L49.9998 95.4998L40.2998 88.9998C39.9998 88.7998 39.4998 88.5998 39.1998 88.5998H39.0998L27.3998 89.1998L21.9998 78.8998C21.7998 78.4998 21.4998 78.1998 21.0998 77.9998L10.6998 72.7998L11.2998 61.0998C11.2998 60.6998 11.1998 60.1998 10.9998 59.7998L4.5998 49.9998L10.9998 40.1998C11.2998 39.7998 11.3998 39.3998 11.2998 38.8998L10.6998 27.1998L21.0998 21.9998C21.4998 21.7998 21.7998 21.4998 21.9998 21.0998L27.2998 10.6998L38.9998 11.3998C39.3998 11.3998 39.8998 11.2998 40.2998 11.0998L49.9998 4.5998L59.7998 10.9998C60.1998 11.2998 60.5998 11.3998 61.0998 11.2998L72.7998 10.6998L77.9998 21.0998C78.1998 21.4998 78.4998 21.7998 78.8998 21.9998L89.2998 27.2998L88.6998 38.9998C88.6998 39.3998 88.7998 39.8998 88.9998 40.2998L95.3998 50.0998L88.9998 59.7998Z" fill="white"/>
	</symbol>
	<symbol id="why-4" viewBox="0 0 100 92" fill="none" xmlns="http://www.w3.org/2000/svg">
	<g clip-path="url(#clip0)">
	<path d="M99.9998 45.9C99.9998 71.2 79.4998 91.8 54.0998 91.8C28.6998 91.8 8.2998 71.2 8.2998 45.9C8.2998 45.5 8.39981 45.1 8.5998 44.8L3.9998 49.3C3.5998 49.7 2.8998 50 2.3998 50C1.8998 50 1.1998 49.7 0.799805 49.3C-0.200195 48.3 -0.200195 46.8 0.799805 46L9.1998 37.6C9.2998 37.5 9.4998 37.3 9.6998 37.2C10.1998 36.9 10.8998 36.8 11.5998 37.1C11.8998 37.2 12.2998 37.4 12.5998 37.6L20.9998 46C21.9998 47 21.9998 48.5 20.9998 49.3C20.5998 49.7 19.8998 50 19.3998 50C18.8998 50 18.1998 49.7 17.7998 49.3L12.9998 44.8C13.0998 45.1 13.2998 45.5 13.2998 45.9C13.2998 68.6 31.7998 87.1 54.4998 87.1C77.1998 87.1 95.6998 68.6 95.6998 45.9C95.6998 23.2 77.2998 4.7 54.4998 4.7C43.2998 4.7 32.8998 9 25.0998 17.1C24.0998 18.1 22.5998 18.1 21.7998 17.1C20.7998 16.1 20.7998 14.6 21.7998 13.8C30.5998 4.9 42.1998 0 54.6998 0C79.4998 0 99.9998 20.5 99.9998 45.9ZM67.3998 29.2L36.8998 59.7C35.8998 60.7 35.8998 62.2 36.8998 63C37.2998 63.4 37.9998 63.7 38.4998 63.7C38.9998 63.7 39.6998 63.4 40.0998 63L70.5998 32.5C71.5998 31.5 71.5998 30 70.5998 29.2C69.8998 28.2 68.3998 28.2 67.3998 29.2ZM48.8998 29.6C52.2998 33 52.2998 38.6 48.8998 42.1C47.0998 43.9 44.8998 44.7 42.6998 44.7C40.4998 44.7 38.1998 43.9 36.4998 42.1C33.0998 38.7 33.0998 33.1 36.4998 29.6C39.8998 26.2 45.4998 26.2 48.8998 29.6ZM45.4998 32.9C44.6998 32.1 43.6998 31.7 42.5998 31.7C41.4998 31.7 40.4998 32.1 39.6998 32.9C38.0998 34.5 38.0998 37 39.6998 38.7C41.2998 40.3 43.7998 40.3 45.4998 38.7C47.0998 37.1 47.0998 34.5 45.4998 32.9ZM65.5998 47.2C67.8998 47.2 70.0998 48.2 71.7998 49.8C75.1998 53.2 75.1998 58.8 71.7998 62.3C70.1998 63.9 67.9998 64.9 65.5998 64.9C63.2998 64.9 61.0998 63.9 59.3998 62.3C55.9998 58.9 55.9998 53.3 59.3998 49.8C61.0998 48.1 63.2998 47.2 65.5998 47.2ZM68.4998 53.1C67.6998 52.3 66.6998 51.9 65.5998 51.9C64.4998 51.9 63.4998 52.3 62.6998 53.1C61.0998 54.7 61.0998 57.2 62.6998 58.9C63.4998 59.7 64.4998 60.1 65.5998 60.1C66.6998 60.1 67.6998 59.7 68.4998 58.9C70.0998 57.2 70.0998 54.6 68.4998 53.1Z" fill="white"/>
	</g>
	<defs>
	<clipPath id="clip0">
	<rect width="100" height="91.7" fill="white"/>
	</clipPath>
	</defs>
	</symbol>
</svg>