<svg width="389" height="325" viewBox="0 0 389 325" fill="none" xmlns="http://www.w3.org/2000/svg">
    <path fill-rule="evenodd" clip-rule="evenodd" d="M206.487 195.658C206.048 196.67 205.149 196.674 204.392 196.962C193.424 201.165 182.413 205.295 172.867 212.191C172.281 212.613 171.69 213.111 170.872 213.103C170.207 213.095 169.486 213.169 169.066 212.533C168.545 211.755 169.287 211.357 169.733 210.955C170.642 210.138 171.6 209.364 172.576 208.618C180.482 202.574 189.56 198.703 198.983 195.4C201.664 194.459 203.963 195.237 206.487 195.658ZM193.018 192.196C192.832 192.417 192.794 192.509 192.725 192.535C181.604 196.878 171.154 202.208 162.879 210.821C161.679 212.067 160.857 211.117 160.663 209.94C160.364 208.13 160.301 206.283 160.163 204.452C160.102 203.63 160.663 203.16 161.298 202.718C168.323 197.85 175.349 192.975 182.353 188.075C183.101 187.551 183.632 187.365 184.557 187.875C187.279 189.374 190.097 190.718 193.018 192.196ZM292.67 29.4563C290.061 29.0645 287.832 28.5946 285.635 29.3804C285.001 29.6063 284.315 29.9082 284.378 30.6739C284.453 31.5597 285.273 31.5237 285.917 31.4937C287.535 31.4177 289.053 31.8736 290.605 32.1755C293.657 32.7733 294.092 33.1851 293.701 36.2121C293.17 40.3328 292.511 44.4415 291.79 48.5341C290.598 55.292 289.758 62.1197 286.657 68.4537C282.264 77.4248 276.324 81.0836 266.031 80.7757C264.791 80.7377 264.474 81.3215 264.15 82.2272C263.311 84.5644 262.414 86.8837 261.521 89.205C260.595 91.6082 258.927 92.4699 256.244 92.0101C252.943 91.4462 250.52 89.5448 248.314 87.3096C247.624 86.6118 247.542 85.8321 247.868 84.8824C248.675 82.5311 249.261 80.1119 250.112 77.7767C250.806 75.8593 250.522 74.7057 248.56 73.4601C242.618 69.6873 237.669 65.0028 235.524 58.207C235.232 57.2813 234.604 57.0054 233.67 56.9374C226.99 56.4536 223.082 50.3036 224.332 43.5578C225.081 39.5151 228.698 37.4258 232.472 38.7993C235.422 39.873 236.392 42.3622 236.867 45.0313C237.17 46.7407 237.766 48.2522 238.947 49.5538C239.959 50.6715 241.167 51.2513 242.719 50.6735C244.241 50.1076 244.87 48.91 244.814 47.4525C244.768 46.3449 244.458 45.2492 244.245 44.1496C243.806 41.8823 244.103 39.771 246.129 38.3015C248.22 36.788 248.966 34.8046 248.784 32.4354C248.563 29.4903 248.098 26.5553 247.99 23.6082C247.687 15.5608 252.152 11.1463 260.635 10.8224C268.047 10.5385 274.535 13.0976 280.644 16.7245C285.746 19.7555 290.063 23.5483 292.67 29.4563ZM222.206 133.065C226.914 134.888 231.683 136.74 236.747 137.743C243.869 139.153 250.969 139.767 258.019 137.385C258.335 137.279 258.665 137.205 258.96 137.059C260.156 136.478 261.682 135.866 261.505 134.428C261.291 132.691 259.466 132.745 258.095 132.695C256.008 132.611 253.915 132.737 251.824 132.773C251.35 132.781 250.762 133.027 250.453 132.539C250.106 131.995 250.664 131.699 250.998 131.365C251.674 130.687 252.79 130.002 252.146 128.988C251.425 127.856 250.195 128.508 249.198 128.834C247.231 129.478 245.255 130.114 243.336 130.879C241.358 131.663 239.595 131.211 237.824 130.348C232.706 127.852 228.307 124.47 224.38 120.483C223.205 119.291 222.739 117.892 222.925 116.312C223.95 107.529 235.39 100.111 244.368 102.357C249.604 103.666 254.076 106.333 257.804 109.918C259.784 111.822 261.492 111.928 263.922 111.316C268.461 110.176 272.981 110.104 277.343 112.263C285.827 116.468 288.685 123.726 284.508 131.897C280.391 139.956 274.334 146.073 264.597 147.916C261.26 148.55 258.145 148.556 255.379 146.302C254.756 145.793 253.951 145.483 253.223 145.093C252.416 144.661 251.49 144.081 250.683 144.757C249.811 145.483 250.411 146.392 250.915 147.124C251.916 148.576 251.341 148.888 249.786 148.76C248.038 148.618 246.279 148.56 244.523 148.542C242.687 148.518 241.084 149.169 240.718 150.997C240.358 152.782 241.761 153.74 243.319 154.332C246.84 155.669 250.49 156.465 254.291 156.549C265.128 156.785 275.358 154.784 284.617 149.096C299.275 140.09 303.534 126.971 296.183 111.828C291.489 102.161 284.259 94.5592 273.96 89.9527C273.675 89.8268 273.439 89.5948 272.887 89.2029C277.169 88.0893 280.897 86.4658 284.1 83.9067C289.438 79.6421 292.288 74.0219 293.168 67.574C293.858 62.5316 295.566 57.7911 297.042 52.9727C299.068 46.3589 300.82 39.715 300.603 32.7373C300.377 25.5596 298.14 19.0637 293.375 13.4855C288.919 8.27121 283.278 5.71404 276.134 7.21355C274.788 7.49546 273.916 7.00562 272.929 6.36382C262.868 -0.198046 252.075 -1.84951 240.546 2.17718C235.167 4.05457 230.523 7.17556 227.353 11.7181C220.759 21.161 211.365 24.7799 199.934 24.7299C195.636 24.7099 191.46 25.4236 187.486 27.0571C181.857 29.3684 179.48 34.0569 180.962 39.723C181.782 42.864 182.988 45.851 185.004 48.4262C186.436 50.2556 186.509 51.7211 185.382 53.7785C183.877 56.5276 182.84 59.5306 183.961 62.7675C185.819 68.1558 190.572 69.9052 195.629 71.0129C197.593 71.4427 198.053 71.7646 197.394 73.7C196.244 77.0969 197.375 79.9879 200.43 82.1112C200.825 82.3872 201.427 82.5151 201.158 83.1409C200.967 83.5768 200.476 83.4708 200.07 83.4868C181.611 84.2406 163.147 85.3842 144.725 82.835C139.259 82.0793 133.938 80.6857 128.514 79.746C124.007 78.9663 119.472 81.1955 117.12 85.3902C115.359 88.5292 116.08 91.8301 119.394 95.143C120.64 96.3886 122.087 97.4503 123.66 98.7818C119.599 100.243 116.342 102.361 114.468 105.952C112.858 109.041 112.428 112.365 112.925 115.764C113.877 122.262 116.948 125.421 123.34 126.603C123.354 127.634 122.485 127.577 121.799 127.774C115.602 129.564 113.216 133.832 114.926 139.783C116.641 145.733 120.979 148.61 127.017 149.833C135.749 151.603 144.346 150.611 152.851 148.744C171.426 144.663 187.981 136.408 203.374 125.853C203.577 125.713 203.779 125.571 203.991 125.445C205.316 124.637 205.95 122.43 207.436 122.666C208.551 122.844 209.431 124.635 210.32 125.775C211.413 127.181 214.077 127.944 213.918 129.442C213.725 131.267 211.403 132.463 209.954 133.876C200.162 143.417 189.294 151.791 178.504 160.244C175.209 162.825 171.947 165.454 169.147 168.545C166.946 170.976 166.925 172.11 169.003 174.615C171.658 177.818 174.567 180.801 177.927 183.336C179.041 184.178 179.085 184.58 177.885 185.412C171.058 190.144 164.292 194.959 157.497 199.731C157.033 200.059 156.506 200.499 155.986 200.529C152.716 200.703 151.821 202.828 151.578 205.401C151.177 209.618 152.199 213.655 153.414 217.665C154.836 222.36 156.473 226.964 159.396 231.037C160.955 233.204 162.02 233.08 163.211 230.659C163.423 230.229 163.521 229.747 163.717 229.307C164.202 228.234 164.721 228.098 165.317 229.261C166.019 230.623 166.887 231.881 167.866 233.092C168.917 234.388 169.674 234.26 170.479 232.942C172.064 230.347 172.662 227.436 173.392 224.569C173.668 223.485 174.036 222.368 174.006 221.276C173.904 217.515 176.097 215.39 179.217 213.539C186.476 209.224 194.229 205.929 202.111 202.87C205.895 201.401 209.726 200.035 213.55 198.661C216.759 197.506 219.994 196.674 223.525 196.832C228.976 197.08 234.368 196.208 239.718 195.322C243.566 194.687 246.411 192.473 248.023 189.047C249.733 185.406 251.285 181.699 252.907 178.02C253.3 177.122 253.56 176.059 254.854 177.36C255.673 178.18 256.89 177.966 257.957 178.004C272.348 178.518 284.527 173.458 295.068 164.391C302.698 157.829 307.751 149.661 311.218 140.5C311.81 138.943 310.81 138.461 309.825 137.905C308.533 137.181 307.509 137.735 306.942 138.879C306.194 140.386 305.688 142.004 304.981 143.535C297.891 158.892 285.428 167.995 268.607 171.962C264.626 172.904 260.57 173.374 256.46 173.554C254.896 173.626 254.758 173.29 255.195 172.034C256.535 168.167 257.804 164.283 259.102 160.404C259.274 159.892 259.776 159.318 259.261 158.854C258.72 158.373 258.222 159.01 257.708 159.182C253.974 160.41 250.126 161.148 246.196 161.406C238.458 161.911 232.628 159.014 228.702 152.514C225.313 146.908 223.092 140.946 221.984 134.58C221.907 134.128 221.698 133.641 222.206 133.065Z" fill="#DD1851"/>
    <path fill-rule="evenodd" clip-rule="evenodd" d="M269.386 228.046C280.992 228.228 292.006 227.894 303.013 227.179C311.165 226.649 318.179 221.095 320.538 213.567C321.7 209.852 321.629 206.413 320.025 202.87C317.861 198.096 313.674 196.131 308.438 197.708C307.096 198.114 305.814 198.728 304.547 199.326C301.881 200.579 300.777 200.205 299.96 197.418C299.218 194.889 298.762 192.284 298.097 189.735C296.809 184.786 293.792 181.515 288.289 180.812C281.739 179.972 273.444 181.737 269.894 187.469C268.485 189.745 267.864 192.186 267.644 194.733C267.506 196.337 267.067 196.972 265.163 197.106C258.455 197.58 253 200.337 249.538 206.057C247.918 208.731 247.033 211.67 247.537 214.775C247.79 216.336 247.152 216.566 245.818 216.552C242.149 216.512 238.459 216.242 234.842 217.088C232.048 217.742 229.483 218.729 227.681 221.109C226.445 222.736 226.972 223.77 228.548 224.575C230.781 225.715 233.223 226.283 235.716 226.597C247.083 228.038 258.512 228.306 269.386 228.046Z" fill="#DD1851"/>
    <path fill-rule="evenodd" clip-rule="evenodd" d="M115.311 38.9622C113.908 27.1101 105.633 26.1744 98.0996 27.9638C93.7361 28.9995 89.8492 30.9369 89.0945 35.8373C88.4317 40.1679 90.6437 43.8567 92.6509 48.0113C89.9684 47.5435 87.7208 47.0516 85.446 46.7757C81.4609 46.2939 77.4445 46.028 73.5137 47.1076C71.1846 47.7474 69.2694 48.965 68.4184 51.3182C67.4002 54.1333 68.2365 56.3526 70.9692 57.8181C75.8178 60.4173 81.1996 61.231 86.5918 61.7608C96.7552 62.7565 106.973 62.6946 117.151 62.2447C127.057 61.8028 137.003 61.237 146.544 58.246C155.21 55.5289 158.81 47.3735 154.359 39.808C150.111 32.5823 143.75 27.534 135.228 25.4206C131.346 24.457 127.754 25.7585 124.705 28.0498C121.19 30.6869 118.416 33.9839 116.453 37.8626C116.275 38.2125 116.016 38.5304 115.754 38.8323C115.673 38.9263 115.464 38.9203 115.311 38.9622Z" fill="#DD1851"/>
    <path fill-rule="evenodd" clip-rule="evenodd" d="M84.3481 226.551C88.7681 225.133 93.2361 223.848 97.5934 222.274C112.334 216.944 125.92 209.58 138.592 200.645C143.97 196.854 149.115 192.796 154.091 188.541C155.308 187.501 155.781 186.324 154.478 185.036C153.253 183.827 152.124 184.314 150.991 185.26C131.444 201.535 108.999 213.019 84.898 221.758C84.1056 222.044 83.332 222.33 82.7194 222.88C81.9604 223.56 81.8726 224.417 82.2594 225.301C82.6315 226.143 83.3299 226.489 84.3481 226.551Z" fill="#DD1851"/>
    <path fill-rule="evenodd" clip-rule="evenodd" d="M106.968 226.191C107 227.707 108.862 228.509 110.592 227.605C113.882 225.882 117.115 224.054 120.36 222.255C121.947 221.375 123.546 220.509 125.081 219.55C126.271 218.8 126.354 217.67 125.627 216.609C124.918 215.571 123.858 215.509 122.764 216.125C118.022 218.796 113.282 221.467 108.549 224.15C107.736 224.61 107.106 225.234 106.968 226.191Z" fill="#DD1851"/>
    <path fill-rule="evenodd" clip-rule="evenodd" d="M278.562 164.493C282.327 163.615 285.409 161.648 287.772 158.749C288.61 157.721 288.366 156.493 287.207 155.566C286.058 154.644 285.209 155.214 284.402 156.007C282.334 158.037 279.816 159.408 277.169 160.598C276.172 161.048 275.434 161.72 275.844 162.841C276.264 163.989 277.172 164.645 278.562 164.493Z" fill="#DD1851"/>
    <path fill-rule="evenodd" clip-rule="evenodd" d="M283.128 51.6085C285.924 51.5006 287.509 50.187 288.717 48.3556C289.215 47.6038 289.597 47.006 288.121 46.7641C286.495 46.4982 285.384 45.4425 285.455 43.7771C285.524 42.1636 286.469 41.0919 288.278 41.002C289.752 40.928 289.436 40.2822 288.899 39.4705C287.057 36.6854 283.82 36.4075 281.251 38.8307C278.393 41.5238 277.744 47.2279 279.877 51.1787C280.295 51.9544 280.753 52.7362 281.339 53.4039C282.796 55.0694 283.643 56.6229 281.136 58.1364C280.632 58.4403 280.393 58.9881 280.82 59.5919C281.293 60.2537 281.905 60.2197 282.585 59.9838C285.037 59.1321 286.081 56.1051 284.696 53.7538C284.339 53.144 283.86 52.6002 283.128 51.6085Z" fill="#DD1851"/>
    <path fill-rule="evenodd" clip-rule="evenodd" d="M259.651 40.9058C259.759 42.9871 260.426 44.7365 261.94 46.1461C263.213 47.3297 264.721 47.5496 266.324 46.9818C268.045 46.372 269.218 45.1344 269.983 43.5789C270.328 42.8811 269.764 42.6472 269.126 42.4713C267.656 42.0694 266.937 41.0258 266.937 39.6242C266.937 38.1927 267.809 37.133 269.203 36.8111C270.717 36.4612 270.404 35.8814 269.812 35.0017C268.081 32.4185 264.683 32.1466 262.354 34.4919C260.56 36.3013 259.772 38.5326 259.651 40.9058Z" fill="#DD1851"/>
    <path fill-rule="evenodd" clip-rule="evenodd" d="M275.19 62.2623C273.26 62.4642 271.37 62.2523 269.478 61.8984C268.25 61.6705 267.245 61.8544 267.751 63.5119C268.853 67.1267 274.464 71.2813 278.253 71.2354C280.024 71.2134 283.168 68.4483 283.453 66.6669C283.729 64.9174 281.972 63.022 279.409 62.5522C278.033 62.2983 276.597 62.3483 275.19 62.2623Z" fill="#DD1851"/>
    <path fill-rule="evenodd" clip-rule="evenodd" d="M255.659 23.0806C255.826 23.9163 256.466 24.0223 257.171 24.0383C259.249 24.0883 261.308 24.2902 263.372 24.5781C266.947 25.076 270.309 26.0776 273.498 27.7111C274.259 28.101 275.361 29.1626 276.122 28.015C276.87 26.8834 275.618 26.1376 274.807 25.5358C272.323 23.6964 269.391 22.7807 266.368 22.2069C263.5 21.6611 260.581 21.6711 257.668 21.961C256.819 22.0449 256.033 22.2449 255.659 23.0806Z" fill="#DD1851"/>
    <path fill-rule="evenodd" clip-rule="evenodd" d="M227.139 45.6251C227.135 46.8087 227.747 47.7664 228.358 48.7161C229.228 50.0696 230.137 51.3992 230.98 52.7647C231.291 53.2726 231.536 53.8024 232.278 53.5385C233.043 53.2686 232.83 52.6528 232.713 52.1209C232.504 51.1713 232.046 50.3815 231.264 49.7017C230.148 48.7281 229.366 47.4845 228.96 46.0849C228.699 45.1892 229.246 44.5414 230.039 44.1455C230.729 43.8037 231.32 44.1116 231.806 44.6254C232.351 45.2032 232.654 45.825 232.134 46.5548C231.764 47.0726 230.639 47.5644 231.799 48.1922C232.813 48.7441 233.593 47.9803 233.963 47.1466C234.63 45.6551 233.995 44.3395 232.981 43.1978C231.994 42.0882 230.739 41.9143 229.372 42.4921C227.954 43.0919 227.145 44.1056 227.139 45.6251Z" fill="#DD1851"/>
    <path fill-rule="evenodd" clip-rule="evenodd" d="M141.102 298.738C139.746 300.96 138.399 303.186 137.032 305.402C132.978 311.972 127.857 312.037 123.426 305.575C122.046 303.561 120.676 301.541 118.331 299.771C118.331 305.395 118.375 311.017 118.312 316.639C118.28 319.492 117.942 322.3 114.46 323.337C109.66 324.766 106.184 322.539 106.125 317.606C105.983 305.472 105.891 293.329 106.254 281.203C106.317 279.095 108.213 276.163 110.128 275.182C113.166 273.625 116.37 275.001 118.349 277.939C121.733 282.967 125.018 288.056 128.369 293.104C129.08 294.176 129.899 295.181 130.976 296.63C135.005 290.389 138.622 284.486 142.595 278.816C143.766 277.146 145.748 275.533 147.699 274.943C151.602 273.764 154.895 276.032 154.952 279.958C155.138 292.676 155.126 305.398 154.977 318.117C154.933 321.919 152.365 323.74 148.27 323.603C144.456 323.476 142.336 321.609 142.224 317.897C142.128 314.684 142.191 311.465 142.187 308.248C142.183 305.2 142.186 302.154 142.186 299.106C141.825 298.983 141.463 298.861 141.102 298.738Z" fill="#DD1851"/>
    <path fill-rule="evenodd" clip-rule="evenodd" d="M84.3827 299.099C84.3508 290.695 80.7399 285.695 74.3839 285.257C67.0318 284.75 62.4466 290.019 62.3974 299.031C62.35 307.815 66.6882 313.274 73.6356 313.172C80.4154 313.071 84.4164 307.834 84.3827 299.099ZM73.5527 274C88.9678 274.032 98.3797 283.674 98.3205 299.373C98.2621 314.897 88.5495 324.544 73.1344 324.391C58.0045 324.242 48.6082 314.592 48.5927 299.189C48.579 283.548 58.0719 273.968 73.5527 274Z" fill="#DD1851"/>
    <path fill-rule="evenodd" clip-rule="evenodd" d="M198.064 299.406C198.082 295.122 197.583 294.24 196.707 291.797C195.243 287.716 192.21 285.365 187.53 285.229C182.716 285.091 179.365 287.142 177.594 291.396C175.285 296.943 175.348 302.522 178.073 307.931C179.907 311.576 183.142 313.231 187.294 313.163C191.465 313.093 194.667 311.273 196.243 307.551C197.309 305.032 198.045 303.691 198.064 299.406ZM186.899 274.003C202.526 273.956 211.812 283.302 211.848 299.112C211.885 314.862 202.474 324.448 187.029 324.396C171.619 324.344 162.196 314.688 162.256 299.015C162.315 283.475 171.603 274.048 186.899 274.003Z" fill="#DD1851"/>
    <path fill-rule="evenodd" clip-rule="evenodd" d="M28.495 286.158H12.863C12.863 296.511 12.904 306.577 12.8456 316.64C12.8174 321.542 10.6766 323.69 6.18526 323.601C2.38297 323.525 0.0798822 321.741 0.0561862 317.999C-0.0221928 305.41 -0.0148945 292.82 0.055282 280.232C0.074421 276.69 2.34923 274.763 5.83801 274.714C15.7065 274.573 25.5795 274.574 35.4479 274.706C39.2174 274.757 41.3419 276.937 41.3574 280.613C41.4075 293.056 41.4348 305.499 41.3328 317.94C41.3009 321.916 38.7663 323.665 34.7817 323.595C30.7443 323.525 28.5415 321.55 28.5187 317.627C28.4667 308.843 28.4977 300.06 28.495 291.277C28.495 289.688 28.495 288.099 28.495 286.158Z" fill="#DD1851"/>
    <path fill-rule="evenodd" clip-rule="evenodd" d="M318.537 291.284C318.462 293.724 318.621 297.738 322.253 297.745C326.918 297.755 329.869 295.349 329.974 291.45C330.082 287.45 327.361 285.395 322.435 285.188C317.508 284.981 318.611 288.844 318.537 291.284ZM318.505 308.317C318.505 311.616 318.619 314.359 318.48 317.088C318.247 321.673 316.093 323.688 311.785 323.599C307.701 323.513 305.531 321.498 305.492 317.148C305.385 305.465 305.434 293.78 305.475 282.096C305.489 278.401 307.374 275.68 311.219 275.34C317.062 274.826 323.056 274.181 328.814 274.887C339.41 276.186 344.1 282.187 343.73 292.343C343.407 301.209 337.424 307.219 327.622 308.273C324.939 308.561 322.197 308.317 318.505 308.317Z" fill="#DD1851"/>
    <path fill-rule="evenodd" clip-rule="evenodd" d="M369.408 297.619C371.836 291.863 373.812 287.132 375.832 282.418C376.525 280.8 377.209 279.16 378.108 277.648C379.802 274.798 382.487 274.069 385.536 275.189C388.847 276.405 389.492 279.105 388.614 282.061C387.91 284.434 386.814 286.713 385.749 288.971C381.297 298.409 377.177 308.02 372.18 317.183C368.548 323.843 363.358 325.668 356.104 323.938C353.894 323.41 351.265 322.174 350.133 320.461C349.069 318.85 349.022 315.866 349.876 314.089C350.458 312.877 353.517 311.837 355.242 312.135C356.967 312.433 357.455 312.577 358.429 312.433C359.801 312.23 361.499 312.113 362.151 311.183C362.739 310.341 362.45 308.398 361.806 307.374C357.643 300.748 353.268 294.248 348.984 287.691C348.179 286.457 347.311 285.224 346.757 283.881C345.393 280.57 345.548 277.506 349.117 275.487C352.348 273.657 355.777 274.592 357.989 278.178C361.01 283.075 363.737 288.139 366.612 293.121C367.32 294.349 368.109 295.534 369.408 297.619Z" fill="#DD1851"/>
    <path fill-rule="evenodd" clip-rule="evenodd" d="M281.246 297.684C284.13 290.944 286.474 285.246 289.002 279.625C290.991 275.201 293.826 273.792 297.412 275.137C300.837 276.421 301.843 279.634 299.825 284.081C295.029 294.657 290.398 305.319 285.092 315.656C281.129 323.377 276.257 325.548 268.513 324.022C266.271 323.58 263.589 322.493 262.343 320.839C261.165 319.273 260.796 316.226 261.598 314.485C262.214 313.151 265.398 311.698 267.165 312.124C268.931 312.55 269.662 312.433 269.662 312.433C269.662 312.433 273.04 312.133 274.052 311.124C274.691 310.488 274.177 308.131 273.449 306.973C269.21 300.22 264.739 293.604 260.388 286.916C259.588 285.687 258.743 284.403 258.347 283.03C257.414 279.787 257.847 276.828 261.463 275.278C264.915 273.796 267.785 274.791 269.656 277.851C272.503 282.509 275.139 287.286 277.877 292.007C278.818 293.631 279.792 295.236 281.246 297.684Z" fill="#DD1851"/>
    <path fill-rule="evenodd" clip-rule="evenodd" d="M219.755 298.891C219.755 293.191 219.71 287.491 219.769 281.792C219.82 276.625 221.559 274.732 226.713 274.625C233.382 274.486 240.057 274.544 246.728 274.629C250.478 274.676 253.369 276.002 253.33 280.198C253.293 284.295 250.605 285.757 246.745 285.786C243.41 285.81 240.063 285.958 236.741 285.756C233.566 285.562 232.512 286.684 232.573 289.76C232.75 298.526 232.659 307.297 232.626 316.065C232.605 321.467 230.704 323.632 226.15 323.605C221.62 323.581 219.792 321.435 219.762 315.99C219.73 310.291 219.755 304.591 219.755 298.891Z" fill="#DD1851"/>
</svg>
