<svg width="70" height="59" viewBox="0 0 70 59" fill="none" xmlns="http://www.w3.org/2000/svg">
    <path d="M37.2189 57.9607L64.2297 30.95C70.8665 24.3132 71.8457 13.3947 65.565 6.41991C63.9918 4.6678 62.0781 3.25459 59.9407 2.2665C57.8032 1.27842 55.4869 0.73619 53.133 0.672891C50.7791 0.609591 48.437 1.02655 46.2495 1.89833C44.0621 2.77011 42.0752 4.07843 40.4101 5.74346L35.3333 10.8203L30.95 6.43695C24.3132 -0.19986 13.3947 -1.17902 6.41989 5.10165C4.66778 6.67485 3.25457 8.58855 2.26649 10.726C1.2784 12.8634 0.736171 15.1797 0.672872 17.5336C0.609572 19.8875 1.02653 22.2296 1.89831 24.4171C2.77009 26.6045 4.07841 28.5914 5.74345 30.2565L33.4477 57.9607C33.9478 58.4608 34.6261 58.7418 35.3333 58.7418C36.0405 58.7418 36.7188 58.4608 37.2189 57.9607Z" fill="#DD1851"/>
</svg>
