<svg width="75" height="64" viewBox="0 0 75 64" fill="none" xmlns="http://www.w3.org/2000/svg">
    <path d="M39.219 59.9607L66.2298 32.95C72.8666 26.3132 73.8457 15.3947 67.5651 8.41991C65.9919 6.6678 64.0782 5.25459 61.9407 4.2665C59.8033 3.27842 57.487 2.73619 55.1331 2.67289C52.7792 2.60959 50.4371 3.02655 48.2496 3.89833C46.0622 4.77011 44.0753 6.07843 42.4102 7.74346L37.3334 12.8203L32.9501 8.43695C26.3133 1.80014 15.3947 0.820984 8.41997 7.10165C6.66786 8.67485 5.25465 10.5885 4.26657 12.726C3.27848 14.8634 2.73625 17.1797 2.67295 19.5336C2.60965 21.8875 3.02661 24.2296 3.89839 26.4171C4.77017 28.6045 6.07849 30.5914 7.74353 32.2565L35.4478 59.9607C35.9479 60.4608 36.6261 60.7418 37.3334 60.7418C38.0406 60.7418 38.7189 60.4608 39.219 59.9607V59.9607Z" stroke="#817D66" stroke-width="3" stroke-linecap="round" stroke-linejoin="round"/>
</svg>
