<svg width="64" height="64" viewBox="0 0 64 64" fill="none" xmlns="http://www.w3.org/2000/svg">
    <circle cx="32" cy="32" r="30.5" stroke="#DD1851" stroke-width="3"/>
    <path d="M32.7071 42.4853L42.8361 32.3563C45.3249 29.8675 45.6921 25.773 43.3369 23.1575C42.7469 22.5004 42.0293 21.9705 41.2278 21.6C40.4262 21.2294 39.5576 21.0261 38.6749 21.0023C37.7922 20.9786 36.9139 21.135 36.0936 21.4619C35.2733 21.7888 34.5282 22.2794 33.9038 22.9038L32 24.8076L30.3563 23.1639C27.8675 20.6751 23.773 20.3079 21.1575 22.6631C20.5004 23.2531 19.9705 23.9707 19.6 24.7723C19.2294 25.5738 19.0261 26.4424 19.0023 27.3251C18.9786 28.2078 19.135 29.0861 19.4619 29.9064C19.7888 30.7267 20.2794 31.4718 20.9038 32.0962L31.2929 42.4853C31.4804 42.6728 31.7348 42.7782 32 42.7782C32.2652 42.7782 32.5196 42.6728 32.7071 42.4853V42.4853Z" stroke="#DD1851" stroke-width="3" stroke-linecap="round" stroke-linejoin="round"/>
</svg>
