<svg width="40" height="40" viewBox="0 0 40 40" fill="none" xmlns="http://www.w3.org/2000/svg">
    <path d="M15 20.0007H25" stroke="#DD1851" stroke-width="2.5" stroke-linecap="round" stroke-linejoin="round"/>
    <path d="M15 25.0007H25" stroke="#DD1851" stroke-width="2.5" stroke-linecap="round" stroke-linejoin="round"/>
    <path d="M8.75 6.25073H31.25C31.5815 6.25073 31.8995 6.38243 32.1339 6.61685C32.3683 6.85127 32.5 7.16921 32.5 7.50073V31.2507C32.5 32.2453 32.1049 33.1991 31.4017 33.9024C30.6984 34.6056 29.7446 35.0007 28.75 35.0007H11.25C10.2554 35.0007 9.30161 34.6056 8.59835 33.9024C7.89509 33.1991 7.5 32.2453 7.5 31.2507V7.50073C7.5 7.16921 7.6317 6.85127 7.86612 6.61685C8.10054 6.38243 8.41848 6.25073 8.75 6.25073Z" stroke="#DD1851" stroke-width="2.5" stroke-linecap="round" stroke-linejoin="round"/>
    <path d="M12.5 3.75073V8.75073" stroke="#DD1851" stroke-width="2.5" stroke-linecap="round" stroke-linejoin="round"/>
    <path d="M20 3.75073V8.75073" stroke="#DD1851" stroke-width="2.5" stroke-linecap="round" stroke-linejoin="round"/>
    <path d="M27.5 3.75073V8.75073" stroke="#DD1851" stroke-width="2.5" stroke-linecap="round" stroke-linejoin="round"/>
</svg>
