<svg width="40" height="40" viewBox="0 0 40 40" fill="none" xmlns="http://www.w3.org/2000/svg">
    <path d="M23.75 17.5H30" stroke="#DD1851" stroke-width="2.5" stroke-linecap="round" stroke-linejoin="round"/>
    <path d="M23.75 22.5H30" stroke="#DD1851" stroke-width="2.5" stroke-linecap="round" stroke-linejoin="round"/>
    <path d="M14.3907 22.5C16.4618 22.5 18.1407 20.8211 18.1407 18.75C18.1407 16.6789 16.4618 15 14.3907 15C12.3196 15 10.6407 16.6789 10.6407 18.75C10.6407 20.8211 12.3196 22.5 14.3907 22.5Z" stroke="#DD1851" stroke-width="2.5" stroke-linecap="round" stroke-linejoin="round"/>
    <path d="M9.54822 26.2499C9.82565 25.1766 10.4518 24.2259 11.3283 23.5471C12.2048 22.8684 13.2819 22.5 14.3905 22.5C15.4991 22.5 16.5763 22.8682 17.4528 23.5469C18.3293 24.2256 18.9555 25.1763 19.233 26.2496" stroke="#DD1851" stroke-width="2.5" stroke-linecap="round" stroke-linejoin="round"/>
    <path d="M33.75 7.5H6.25C5.55964 7.5 5 8.05964 5 8.75V31.25C5 31.9404 5.55964 32.5 6.25 32.5H33.75C34.4404 32.5 35 31.9404 35 31.25V8.75C35 8.05964 34.4404 7.5 33.75 7.5Z" stroke="#DD1851" stroke-width="2.5" stroke-linecap="round" stroke-linejoin="round"/>
</svg>
