<svg width="96" height="96" viewBox="0 0 96 96" fill="none" xmlns="http://www.w3.org/2000/svg">
    <path d="M87.8241 80.0522L87.8241 80.0523C87.8239 80.0525 87.8236 80.0528 87.8234 80.053C87.8236 80.0528 87.8239 80.0525 87.8241 80.0522Z" fill="#DD1851"/>
    <path fill-rule="evenodd" clip-rule="evenodd" d="M28.6654 95.7213L28.6176 95.6547L28.5429 95.6884C27.5615 96.1299 26.4976 96.3579 25.4214 96.3574H8.30099C6.27426 96.3551 4.3311 95.5489 2.8979 94.1158C1.46471 92.6826 0.65854 90.7394 0.65625 88.7127V56.9177C0.658554 54.8909 1.46473 52.9477 2.8979 51.5145C4.3311 50.0814 6.27426 49.2752 8.3011 49.2729C8.86801 49.2723 9.41152 49.0468 9.81238 48.6459C10.2132 48.2451 10.4387 47.7015 10.4393 47.1346V45.8114H10.3391C9.93327 45.8114 9.54403 45.6502 9.25704 45.3632C8.97005 45.0762 8.80883 44.687 8.80883 44.2811V37.7591C8.80883 37.3532 8.97005 36.964 9.25704 36.677C9.54403 36.39 9.93327 36.2288 10.3391 36.2288H23.3833C23.7891 36.2288 24.1784 36.39 24.4653 36.677C24.7523 36.964 24.9136 37.3532 24.9136 37.7591V44.2811C24.9136 44.687 24.7523 45.0762 24.4653 45.3632C24.1784 45.6502 23.7891 45.8114 23.3833 45.8114H23.283V47.1346C23.2837 47.7015 23.5091 48.2451 23.91 48.6459C24.3109 49.0468 24.8544 49.2723 25.4213 49.2729H25.4214C26.3859 49.2725 27.3417 49.4558 28.2377 49.8128L28.375 49.8675V32.6638C28.3787 29.9636 29.3645 27.3569 31.1485 25.3299C32.9325 23.3029 35.3929 21.994 38.0708 21.6473L38.1581 21.6359V16.5624C38.1581 16.1565 38.3193 15.7673 38.6063 15.4803C38.8933 15.1933 39.2825 15.0321 39.6884 15.0321H39.7886V8.30958H33.1663C32.7605 8.30958 32.3712 8.14835 32.0843 7.86136C31.7973 7.57438 31.636 7.18514 31.636 6.77927V3.92599C31.6371 2.97989 32.0135 2.07285 32.6825 1.40385C33.3514 0.734864 34.2585 0.358539 35.2046 0.357422H51.102C51.5079 0.357422 51.8971 0.51865 52.1841 0.805638C52.4711 1.09263 52.6323 1.48187 52.6323 1.88773V15.0321H52.7325C53.1384 15.0321 53.5276 15.1933 53.8146 15.4803C54.1016 15.7673 54.2628 16.1565 54.2628 16.5624V21.6359L54.3502 21.6473C57.0281 21.994 59.4885 23.3029 61.2724 25.3299C63.0564 27.3569 64.0422 29.9636 64.0459 32.6638V63.9475H80.4513C82.3211 63.9463 84.1511 64.4868 85.7201 65.5036C87.2892 66.5204 88.5301 67.97 89.2927 69.6772C90.0553 71.3843 90.3071 73.2758 90.0175 75.1229C89.7279 76.9701 88.9093 78.6938 87.6608 80.0856L87.5109 80.2527H91.8649C92.2708 80.2527 92.66 80.4139 92.947 80.7009C93.234 80.9879 93.3952 81.3771 93.3952 81.783V88.305C93.3952 88.7109 93.234 89.1002 92.947 89.3871C92.66 89.6741 92.2708 89.8354 91.8649 89.8354H89.7986L88.4579 95.1982C88.3752 95.5293 88.1841 95.8232 87.9151 96.0333C87.6461 96.2433 87.3146 96.3574 86.9734 96.3574H29.9053C29.663 96.3574 29.4241 96.2997 29.2085 96.1891C28.9929 96.0785 28.8067 95.9181 28.6654 95.7213ZM31.4356 47.442V52.2069L31.4568 52.2341C32.5009 53.5719 33.0673 55.2206 33.0661 56.9175V70.4696H47.9412V47.442H31.4356ZM64.0459 93.2968H85.7786L86.6439 89.8354H64.0459V93.2968ZM64.0459 67.0081V80.2527H80.4513C82.2076 80.2527 83.892 79.555 85.1339 78.3131C86.3759 77.0711 87.0736 75.3867 87.0736 73.6304C87.0736 71.8741 86.3759 70.1897 85.1339 68.9478C83.892 67.7058 82.2076 67.0081 80.4513 67.0081H64.0459ZM51.2022 18.0927H41.2187V21.5541H51.2022V18.0927ZM64.0459 86.7747H90.3346V83.3133H64.0459V86.7747ZM34.6967 3.92587V5.24897H39.7886V3.41804H35.2045C35.0698 3.41804 34.9406 3.47154 34.8454 3.56678C34.7502 3.66202 34.6967 3.79119 34.6967 3.92587ZM49.5717 3.41804H42.8492V15.0321H49.5717V3.41804ZM52.9365 24.6147H39.4845C37.3505 24.6171 35.3047 25.4659 33.7957 26.9748C32.2868 28.4838 31.438 30.5296 31.4356 32.6636V44.3813H49.4715C49.8774 44.3813 50.2666 44.5426 50.5536 44.8296C50.8406 45.1165 51.0018 45.5058 51.0018 45.9116V71.9999C51.0018 72.4058 50.8406 72.795 50.5536 73.082C50.2666 73.369 49.8774 73.5302 49.4715 73.5302H33.0661V88.7127C33.0674 90.2998 32.5718 91.8473 31.6488 93.1383L31.5354 93.2968H60.9853V32.6636C60.9829 30.5296 60.1341 28.4838 58.6252 26.9748C57.1163 25.4659 55.0704 24.6171 52.9365 24.6147ZM21.8529 39.2894H11.8694V42.7508H21.8529V39.2894ZM20.2224 45.8114H13.5V47.1344C13.4984 48.5128 12.9502 49.8343 11.9755 50.809C11.0008 51.7837 9.67929 52.332 8.30088 52.3335C7.08554 52.3349 5.92038 52.8183 5.06101 53.6776C4.20164 54.537 3.71824 55.7022 3.71686 56.9175V59.056H18.4917C18.8976 59.056 19.2868 59.2172 19.5738 59.5042C19.8608 59.7912 20.022 60.1804 20.022 60.5863V83.4135C20.022 83.8194 19.8608 84.2086 19.5738 84.4956C19.2868 84.7826 18.8976 84.9438 18.4917 84.9438H3.71686V88.7127L3.71686 88.7128C3.71824 89.9281 4.20164 91.0933 5.06101 91.9527C5.92038 92.812 7.08554 93.2954 8.30088 93.2968H25.4214C26.6368 93.2954 27.802 92.812 28.6614 91.9527C29.5207 91.0933 30.0041 89.9281 30.0055 88.7128V56.9175C30.0041 55.7022 29.5207 54.537 28.6614 53.6776C27.802 52.8183 26.6368 52.3349 25.4215 52.3335C24.0431 52.332 22.7216 51.7837 21.7469 50.809C20.7722 49.8343 20.224 48.5128 20.2224 47.1344V45.8114ZM16.9614 81.8832V62.1166H3.71686V81.8832H16.9614Z" fill="#DD1851"/>
    <path fill-rule="evenodd" clip-rule="evenodd" d="M70.3614 48.7246C71.4175 48.019 72.6591 47.6424 73.9292 47.6424C75.6318 47.6443 77.2641 48.3215 78.468 49.5254C79.672 50.7294 80.3492 52.3617 80.3511 54.0642C80.3511 55.3343 79.9745 56.5759 79.2688 57.632C78.5632 58.6881 77.5602 59.5112 76.3868 59.9972C75.2133 60.4833 73.9221 60.6105 72.6764 60.3627C71.4307 60.1149 70.2864 59.5033 69.3883 58.6052C68.4902 57.707 67.8786 56.5628 67.6308 55.3171C67.383 54.0713 67.5102 52.7801 67.9962 51.6067C68.4823 50.4332 69.3054 49.4303 70.3614 48.7246ZM72.0618 56.859C72.6146 57.2283 73.2645 57.4255 73.9292 57.4255C74.8205 57.4244 75.6748 57.07 76.3049 56.4398C76.935 55.8097 77.2894 54.9554 77.2905 54.0643C77.2905 53.3994 77.0934 52.7496 76.724 52.1968C76.3547 51.6441 75.8297 51.2132 75.2155 50.9588C74.6013 50.7044 73.9255 50.6379 73.2735 50.7676C72.6215 50.8973 72.0226 51.2174 71.5525 51.6875C71.0824 52.1575 70.7623 52.7565 70.6326 53.4085C70.5029 54.0605 70.5695 54.7363 70.8239 55.3505C71.0783 55.9647 71.5091 56.4897 72.0618 56.859Z" fill="#DD1851"/>
    <path fill-rule="evenodd" clip-rule="evenodd" d="M87.5725 40.2973C88.3604 39.7708 89.2867 39.4898 90.2344 39.4898C91.5046 39.4912 92.7225 39.9965 93.6208 40.8947C94.519 41.793 95.0243 43.0109 95.0257 44.2811C95.0257 45.2288 94.7447 46.1551 94.2182 46.9431C93.6917 47.731 92.9435 48.3451 92.0679 48.7077C91.1925 49.0704 90.2291 49.1653 89.2996 48.9804C88.3702 48.7955 87.5165 48.3392 86.8464 47.6691C86.1763 46.999 85.72 46.1453 85.5351 45.2159C85.3502 44.2864 85.4451 43.3231 85.8078 42.4476C86.1704 41.5721 86.7845 40.8238 87.5725 40.2973ZM89.2729 45.7202C89.5575 45.9104 89.8921 46.0119 90.2344 46.0119C90.6933 46.0113 91.1332 45.8288 91.4576 45.5044C91.7821 45.18 91.9646 44.7401 91.9651 44.2812C91.9651 43.9388 91.8636 43.6042 91.6734 43.3196C91.4833 43.035 91.2129 42.8131 90.8967 42.6821C90.5804 42.5512 90.2325 42.5169 89.8967 42.5837C89.561 42.6504 89.2526 42.8153 89.0106 43.0573C88.7685 43.2994 88.6037 43.6078 88.5369 43.9435C88.4701 44.2792 88.5044 44.6272 88.6354 44.9434C88.7664 45.2597 88.9882 45.53 89.2729 45.7202Z" fill="#DD1851"/>
    <path fill-rule="evenodd" clip-rule="evenodd" d="M70.3614 25.8974C71.4175 25.1918 72.6591 24.8152 73.9292 24.8152C75.6318 24.8171 77.2641 25.4943 78.468 26.6982C79.672 27.9022 80.3492 29.5345 80.3511 31.237C80.3511 32.5071 79.9745 33.7487 79.2688 34.8048C78.5632 35.8609 77.5602 36.684 76.3868 37.17C75.2133 37.6561 73.9221 37.7833 72.6764 37.5355C71.4307 37.2877 70.2864 36.6761 69.3883 35.7779C68.4902 34.8798 67.8786 33.7356 67.6308 32.4898C67.383 31.2441 67.5102 29.9529 67.9962 28.7795C68.4823 27.606 69.3054 26.6031 70.3614 25.8974ZM72.0618 34.0318C72.6146 34.4011 73.2645 34.5982 73.9292 34.5982C74.8205 34.5972 75.6748 34.2427 76.3049 33.6126C76.935 32.9825 77.2894 32.1282 77.2905 31.2371C77.2905 30.5722 77.0934 29.9224 76.724 29.3696C76.3547 28.8168 75.8297 28.386 75.2155 28.1316C74.6013 27.8772 73.9255 27.8107 73.2735 27.9404C72.6215 28.07 72.0226 28.3902 71.5525 28.8603C71.0824 29.3303 70.7623 29.9292 70.6326 30.5813C70.5029 31.2333 70.5695 31.9091 70.8239 32.5233C71.0783 33.1375 71.5091 33.6624 72.0618 34.0318Z" fill="#DD1851"/>
</svg>
