<svg width="87" height="96" viewBox="0 0 87 96" fill="none" xmlns="http://www.w3.org/2000/svg">
    <path d="M33.6827 76.7713C32.7995 76.7713 32.0833 77.4875 32.0833 78.3714V79.9708C32.0716 82.6393 33.7245 85.0318 36.2231 85.9662C38.7225 86.9007 41.5397 86.1794 43.2819 84.1589C45.0241 86.1794 47.8406 86.9007 50.34 85.9662C52.8394 85.0318 54.4915 82.6393 54.4798 79.9708V78.3714C54.4798 77.4875 53.7636 76.7713 52.8804 76.7713C51.9965 76.7713 51.2803 77.4875 51.2803 78.3714V79.9708C51.2803 81.7379 49.8479 83.1703 48.0808 83.1703C46.3137 83.1703 44.8813 81.7379 44.8813 79.9708V74.8709C45.4444 74.6637 45.9534 74.3305 46.3694 73.8977L48.764 71.3375C49.6706 70.4089 49.9284 69.0256 49.4158 67.8326C48.7304 66.4039 47.2635 65.5163 45.6795 65.5727H40.8836C39.2996 65.5163 37.8335 66.4039 37.148 67.8326C36.6362 69.0248 36.8925 70.4082 37.7983 71.3375L40.1959 73.8977C40.6112 74.3305 41.1194 74.6637 41.6818 74.8709V79.9708C41.6818 81.7379 40.2494 83.1703 38.4823 83.1703C36.7152 83.1703 35.2828 81.7379 35.2828 79.9708V78.3714C35.2828 77.4875 34.5666 76.7713 33.6827 76.7713ZM40.0802 69.1127C40.0993 69.038 40.3387 68.7722 40.8836 68.7722H45.6795C46.2251 68.7722 46.4638 69.038 46.4279 69.1508L44.0333 71.7103C43.5851 72.0339 42.9802 72.0339 42.532 71.7103L40.0802 69.1127Z" fill="#DD1851"/>
    <path d="M23.0678 60.114C25.915 59.0009 28.1808 58.8691 29.8073 59.7288C30.9417 60.382 31.7736 61.4564 32.1207 62.7189C32.3221 63.5669 33.165 64.0978 34.0167 63.9125C34.8683 63.728 35.4154 62.8946 35.2469 62.04C34.7006 59.8768 33.2953 58.0298 31.3554 56.9284C28.8663 55.589 25.6873 55.6579 21.902 57.1335C21.0788 57.4557 20.6724 58.3836 20.9939 59.2067C21.3161 60.0298 22.2439 60.4362 23.0678 60.114Z" fill="#DD1851"/>
    <path d="M50.9463 63.9382C51.3608 64.0261 51.7944 63.9462 52.1503 63.7156C52.5062 63.4841 52.7559 63.1209 52.8445 62.7064C53.1865 61.4578 54.006 60.3945 55.1249 59.7449C56.7514 58.8684 59.0297 58.9943 61.8959 60.1126C62.7191 60.4348 63.6476 60.0283 63.9691 59.2052C64.2913 58.3821 63.8849 57.4535 63.0618 57.132C59.2779 55.6557 56.0982 55.5868 53.6083 56.9263C51.6684 58.0284 50.2624 59.8753 49.7168 62.0385C49.6274 62.453 49.7073 62.8866 49.9372 63.2432C50.1679 63.5991 50.5311 63.8496 50.9463 63.9382Z" fill="#DD1851"/>
    <path d="M1.68783 62.3732C3.14367 62.3747 4.59879 62.4662 6.04365 62.6464C5.29156 65.1531 4.90197 67.755 4.88732 70.3723V70.3862C3.44539 70.8117 2.0701 71.4364 0.800263 72.2404C0.319131 72.5553 0.0437804 73.1038 0.0789315 73.678C0.114083 74.2521 0.45461 74.7625 0.970893 75.0159C1.48718 75.2693 2.09939 75.2261 2.5754 74.9031C3.37948 74.3891 4.24288 73.9731 5.14656 73.6641C5.42704 75.6069 5.9836 77.4999 6.80013 79.2853C3.83791 81.2274 1.94853 84.4372 1.68783 87.9699C1.68783 92.9035 6.59142 95.9682 14.4858 95.9682C18.0463 96.1872 21.5834 95.2549 24.5734 93.3099C30.6399 95.1363 36.9474 96.0327 43.2819 95.9682C49.6165 96.0327 55.9239 95.1363 61.9897 93.3099C64.9797 95.2549 68.5168 96.1872 72.0773 95.9682C79.9717 95.9682 84.8753 92.9035 84.8753 87.9699C84.6153 84.4372 82.7252 81.2274 79.763 79.2853C80.5795 77.4999 81.1361 75.6069 81.4165 73.6641C82.3202 73.9731 83.1836 74.3891 83.9884 74.9031C84.4637 75.2261 85.0759 75.2693 85.5922 75.0159C86.1085 74.7625 86.449 74.2521 86.4849 73.678C86.5201 73.1038 86.2447 72.5553 85.7628 72.2404C84.493 71.4364 83.1177 70.8117 81.6758 70.3862V70.3723C81.6619 67.755 81.2723 65.1531 80.5195 62.6464C81.9643 62.4662 83.4194 62.3754 84.8753 62.3732C85.7592 62.3732 86.4754 61.657 86.4754 60.7738C86.4754 59.8899 85.7592 59.1737 84.8753 59.1737C83.0496 59.1745 81.2262 59.3033 79.4181 59.5589C78.7458 57.9105 77.9498 56.3148 77.038 54.7857C78.0904 51.3694 82.2133 36.9963 78.6594 32.0949C77.9044 31.0015 76.6536 30.3578 75.3251 30.3783C72.9429 30.5599 70.6266 31.2469 68.5307 32.3937C64.4378 26.6084 57.2208 22.544 48.9947 21.2383C48.9676 19.0589 48.6937 16.8898 48.1789 14.7712C47.8201 12.9961 48.4784 11.1682 49.8867 10.0287C51.8822 8.68419 55.141 10.7647 56.4482 11.7204C57.8323 12.7478 59.6602 12.9543 61.2383 12.2616C62.8165 11.5695 63.9025 10.0836 64.0826 8.3693C64.2635 6.65568 63.5107 4.97648 62.112 3.97027C53.3315 -2.4558 46.8996 0.480056 44.5313 2.04721C39.7829 5.43344 37.545 11.3498 38.8639 17.0311C39.1817 18.3288 39.3662 19.655 39.4131 20.99C30.4225 21.9435 22.4241 26.1719 18.0361 32.3827C15.9533 31.2447 13.6524 30.5614 11.2863 30.3783C9.95568 30.3578 8.70195 31.003 7.94474 32.0971C4.40472 36.978 8.50716 51.3094 9.55657 54.7205C8.63092 56.2694 7.82391 57.8863 7.14285 59.5575C5.3355 59.3026 3.51276 59.1745 1.68783 59.1737C0.803925 59.1737 0.0877192 59.8899 0.0877192 60.7738C0.0877192 61.657 0.803925 62.3732 1.68783 62.3732ZM4.88732 87.9699C4.88732 84.3691 9.31637 79.9708 14.4858 79.9708C19.6552 79.9708 24.0843 84.3691 24.0843 87.9699C24.0843 90.2986 21.9327 91.6358 19.1419 92.2817C19.2334 91.9178 19.2817 91.5443 19.2854 91.1693V87.9699C19.2854 87.086 18.5692 86.3698 17.6853 86.3698C16.8021 86.3698 16.0859 87.086 16.0859 87.9699V91.1693C16.0859 92.0525 15.3697 92.7687 14.4858 92.7687C13.6026 92.7687 12.8857 92.0525 12.8857 91.1693V87.9699C12.8857 87.086 12.1695 86.3698 11.2863 86.3698C10.4024 86.3698 9.68619 87.086 9.68619 87.9699V91.1693C9.68985 91.5443 9.73818 91.9178 9.82972 92.2817C7.03886 91.6358 4.88732 90.2986 4.88732 87.9699ZM81.6758 87.9699C81.6758 90.2986 79.5243 91.6358 76.7341 92.2817C76.8249 91.9178 76.8733 91.5443 76.8769 91.1693V87.9699C76.8769 87.086 76.1607 86.3698 75.2768 86.3698C74.3936 86.3698 73.6774 87.086 73.6774 87.9699V91.1693C73.6774 92.0525 72.9612 92.7687 72.0773 92.7687C71.1942 92.7687 70.4779 92.0525 70.4779 91.1693V87.9699C70.4779 87.086 69.7617 86.3698 68.8778 86.3698C67.9947 86.3698 67.2785 87.086 67.2785 87.9699V91.1693C67.2821 91.5443 67.3297 91.9178 67.4213 92.2817C64.6304 91.6358 62.4789 90.2986 62.4789 87.9699C62.4789 84.3691 66.9079 79.9708 72.0773 79.9708C77.2467 79.9708 81.6758 84.3705 81.6758 87.9699ZM41.9711 16.2695C40.9436 11.8932 42.6558 7.32868 46.3079 4.70845C48.5436 3.2299 53.3205 1.50091 60.2233 6.55315C60.6847 6.89075 60.9315 7.44804 60.87 8.01705C60.8092 8.58533 60.4489 9.07745 59.926 9.30886C59.4039 9.54027 58.7968 9.47436 58.3354 9.1375C54.3626 6.2324 50.7288 5.60627 48.1057 7.37042C45.5821 9.25906 44.395 12.449 45.0702 15.5277C45.5001 17.2801 45.744 19.0728 45.7996 20.8758C44.9655 20.8187 44.1277 20.7791 43.2819 20.7791C43.0549 20.7791 42.8308 20.7945 42.6045 20.7989C42.5467 19.2713 42.3343 17.7539 41.9711 16.2695ZM43.2819 23.9786C52.608 23.9786 61.1849 27.8299 65.6805 33.9052C63.5363 35.1186 61.1702 36.6213 58.55 38.458C48.8483 34.1065 37.7515 34.1014 28.0461 38.4441C25.4127 36.6067 23.0378 35.104 20.8899 33.892C25.3739 27.8247 33.9471 23.9786 43.2819 23.9786ZM12.822 54.4386C9.88977 45.4596 8.86306 36.2815 10.5342 33.9762C10.6917 33.7133 10.9809 33.5602 11.2863 33.5778C13.5689 33.8312 15.7666 34.5891 17.7197 35.796C17.7336 35.8048 17.7402 35.8187 17.7541 35.8275C17.8061 35.8531 17.8596 35.8758 17.9138 35.8956C21.0466 37.5946 24.0652 39.4957 26.9505 41.5864C27.4214 41.9204 28.0351 41.9745 28.5565 41.7278C37.8789 37.2753 48.7157 37.2804 58.0337 41.7417C58.5573 41.9914 59.1754 41.9379 59.6477 41.6003C66.8127 36.502 72.5277 33.5778 75.3251 33.5778C75.6269 33.561 75.9132 33.7133 76.0684 33.9725C77.7484 36.2896 76.7173 45.4985 73.7719 54.5008C73.624 54.9519 73.684 55.4448 73.9359 55.8468C74.7957 57.2258 75.5514 58.6662 76.1988 60.1558C72.672 60.8925 69.318 62.2971 66.3184 64.2934C65.6293 64.8279 65.496 65.8158 66.0181 66.5145C66.5403 67.2131 67.526 67.3647 68.2334 66.855C71.0125 65.0718 74.1022 63.8276 77.3412 63.1868C77.9878 65.2578 78.3584 67.4057 78.4434 69.5741C75.8158 69.0783 73.1509 68.8103 70.4779 68.7722C69.594 68.7722 68.8778 69.4884 68.8778 70.3723C68.8778 71.2555 69.594 71.9717 70.4779 71.9717C73.1128 72.0186 75.7389 72.299 78.324 72.8095C78.1123 74.5092 77.6532 76.1686 76.9611 77.7357C75.4108 77.1016 73.7521 76.7742 72.0773 76.7713C64.8691 76.7713 59.2794 82.7909 59.2794 87.9699C59.2735 88.886 59.4617 89.7933 59.8308 90.6326C54.4388 92.1009 48.8702 92.82 43.2819 92.7687C37.6936 92.82 32.1251 92.1009 26.7323 90.6326C27.1014 89.7933 27.2896 88.886 27.2837 87.9699C27.2837 82.7909 21.694 76.7713 14.4858 76.7713C12.811 76.7742 11.1523 77.1016 9.60197 77.7357C8.90993 76.1686 8.45077 74.5092 8.23913 72.8095C10.8249 72.299 13.4503 72.0186 16.0859 71.9717C16.9691 71.9717 17.6853 71.2555 17.6853 70.3723C17.6853 69.4884 16.9691 68.7722 16.0859 68.7722C13.4122 68.8103 10.7466 69.0783 8.11976 69.5741C8.20398 67.4064 8.57453 65.2585 9.22117 63.1876C12.4602 63.8276 15.5498 65.0718 18.329 66.855C19.0364 67.3639 20.0221 67.2131 20.5442 66.5145C21.0671 65.8166 20.9338 64.8279 20.2447 64.2934C17.2444 62.2963 13.8904 60.8917 10.3621 60.155C11.0175 58.6428 11.785 57.1811 12.6587 55.7838C12.9098 55.3818 12.9699 54.8889 12.822 54.4386Z" fill="#DD1851"/>
</svg>
