<svg width="90" height="90" viewBox="0 0 90 90" fill="none" xmlns="http://www.w3.org/2000/svg">
    <path d="M82.7419 0H7.25806C5.33381 0.00230495 3.48904 0.767732 2.12838 2.12838C0.767732 3.48904 0.00230495 5.33381 0 7.25806V65.3226C0.00230495 67.2468 0.767732 69.0916 2.12838 70.4523C3.48904 71.8129 5.33381 72.5783 7.25806 72.5807H30.076L27.8985 81.2903H26.129C24.5891 81.2903 23.1122 81.9021 22.0233 82.991C20.9343 84.0799 20.3226 85.5568 20.3226 87.0968V88.5484C20.3226 88.9334 20.4755 89.3026 20.7477 89.5748C21.02 89.8471 21.3892 90 21.7742 90H68.2258C68.6108 90 68.98 89.8471 69.2523 89.5748C69.5245 89.3026 69.6774 88.9334 69.6774 88.5484V87.0968C69.6774 85.5568 69.0657 84.0799 67.9768 82.991C66.8878 81.9021 65.4109 81.2903 63.871 81.2903H62.1015L59.924 72.5807H82.7419C84.6662 72.5783 86.511 71.8129 87.8716 70.4523C89.2323 69.0916 89.9977 67.2468 90 65.3226V7.25806C89.9977 5.33381 89.2323 3.48904 87.8716 2.12838C86.511 0.767732 84.6662 0.00230495 82.7419 0ZM66.7742 87.0968H23.2258C23.2258 86.3268 23.5317 85.5883 24.0761 85.0439C24.6206 84.4994 25.359 84.1936 26.129 84.1936H63.871C64.641 84.1936 65.3794 84.4994 65.9239 85.0439C66.4683 85.5883 66.7742 86.3268 66.7742 87.0968ZM59.1082 81.2903H30.8918L33.0692 72.5807H56.9308L59.1082 81.2903ZM87.0968 65.3226C87.0968 66.4776 86.638 67.5852 85.8213 68.4019C85.0046 69.2186 83.8969 69.6774 82.7419 69.6774H7.25806C6.10309 69.6774 4.99542 69.2186 4.17873 68.4019C3.36204 67.5852 2.90323 66.4776 2.90323 65.3226V7.25806C2.90323 6.10309 3.36204 4.99542 4.17873 4.17873C4.99542 3.36204 6.10309 2.90323 7.25806 2.90323H82.7419C83.8969 2.90323 85.0046 3.36204 85.8213 4.17873C86.638 4.99542 87.0968 6.10309 87.0968 7.25806V65.3226Z" fill="#DD1851"/>
    <path d="M82.7419 5.80645H7.25806C6.87307 5.80645 6.50385 5.95939 6.23162 6.23162C5.95939 6.50385 5.80645 6.87307 5.80645 7.25806V59.5161C5.80645 59.9011 5.95939 60.2703 6.23162 60.5426C6.50385 60.8148 6.87307 60.9677 7.25806 60.9677H82.7419C83.1269 60.9677 83.4962 60.8148 83.7684 60.5426C84.0406 60.2703 84.1936 59.9011 84.1936 59.5161V7.25806C84.1936 6.87307 84.0406 6.50385 83.7684 6.23162C83.4962 5.95939 83.1269 5.80645 82.7419 5.80645ZM81.2903 58.0645H8.70968V8.70968H81.2903V58.0645Z" fill="#DD1851"/>
    <path d="M43.9737 50.3866C44.1085 50.5216 44.2686 50.6286 44.4448 50.7017C44.6211 50.7747 44.81 50.8123 45.0007 50.8123C45.1915 50.8123 45.3804 50.7747 45.5566 50.7017C45.7328 50.6286 45.8929 50.5216 46.0277 50.3866L60.1171 36.2958H71.129V33.3926H62.9361C64.6629 31.2655 65.507 28.5566 65.294 25.8251C65.081 23.0937 63.8273 20.5483 61.7917 18.7146C59.7561 16.8809 57.094 15.899 54.3552 15.9715C51.6164 16.044 49.0101 17.1655 47.0744 19.1043L45 21.1787L42.9256 19.1043C40.9899 17.1655 38.3836 16.044 35.6448 15.9715C32.906 15.899 30.244 16.8809 28.2083 18.7146C26.1727 20.5483 24.919 23.0937 24.706 25.8251C24.493 28.5566 25.3371 31.2655 27.0639 33.3926H18.871V36.2958H29.8829L43.9737 50.3866ZM45 47.3077L32.2505 34.5538L34.9244 29.2061L39.3852 37.0216C39.5049 37.23 39.6744 37.4053 39.8786 37.532C40.0828 37.6587 40.3153 37.7327 40.5552 37.7474C40.7957 37.7636 41.0365 37.7189 41.2552 37.6174C41.4739 37.5159 41.6635 37.3609 41.8065 37.1667L45 32.9092L48.1936 37.1667C48.3288 37.347 48.5041 37.4934 48.7057 37.5941C48.9072 37.6949 49.1295 37.7474 49.3548 37.7474H49.4448C49.6847 37.7327 49.9172 37.6587 50.1214 37.532C50.3256 37.4053 50.4951 37.23 50.6148 37.0216L55.0756 29.2148L57.7495 34.5538L45 47.3077ZM35.3671 18.8764C36.39 18.8739 37.4033 19.0742 38.3483 19.4656C39.2934 19.857 40.1515 20.4319 40.8731 21.1569L43.9737 24.259C44.2459 24.5311 44.6151 24.684 45 24.684C45.3849 24.684 45.7541 24.5311 46.0263 24.259L49.1269 21.1569C50.5872 19.6966 52.5678 18.8763 54.6329 18.8763C56.698 18.8763 58.6786 19.6966 60.1389 21.1569C61.5991 22.6172 62.4195 24.5977 62.4195 26.6629C62.4195 28.728 61.5991 30.7086 60.1389 32.1688L59.9139 32.3938L56.4677 25.4856C56.3498 25.2493 56.1695 25.0497 55.9465 24.9082C55.7234 24.7668 55.466 24.6889 55.2019 24.6829C54.9373 24.6646 54.6731 24.7234 54.4412 24.8522C54.2093 24.9811 54.0198 25.1743 53.8955 25.4087L49.185 33.6524L46.1613 29.6184C46.0202 29.4469 45.8429 29.3088 45.6421 29.214C45.4413 29.1192 45.222 29.07 45 29.07C44.778 29.07 44.5587 29.1192 44.3579 29.214C44.1571 29.3088 43.9798 29.4469 43.8387 29.6184L40.8092 33.6582L36.0987 25.4087C35.9725 25.176 35.7825 24.9841 35.5511 24.8556C35.3197 24.727 35.0565 24.6671 34.7923 24.6829C34.5296 24.69 34.2738 24.7683 34.0522 24.9095C33.8305 25.0506 33.6513 25.2492 33.5337 25.4842L30.0803 32.3924L29.8553 32.1674C28.7665 31.078 28.0252 29.6902 27.7252 28.1794C27.4252 26.6687 27.58 25.1029 28.17 23.6801C28.76 22.2574 29.7587 21.0416 31.0398 20.1865C32.3209 19.3314 33.8269 18.8755 35.3671 18.8764Z" fill="#DD1851"/>
</svg>
