<svg width="80" height="92" viewBox="0 0 80 92" fill="none" xmlns="http://www.w3.org/2000/svg">
    <path d="M30.9365 9.16726L30.9365 9.16727C24.2096 13.6281 17.2087 16.6939 10.1276 18.2741C9.46733 18.4214 8.99774 19.0073 8.99774 19.6839V45.9513C8.99774 53.3637 12.5494 61.3994 19.0454 68.5693C24.878 75.0066 32.4818 80.1354 39.8954 82.6426C40.0453 82.6934 40.2015 82.7187 40.3581 82.7187C40.5144 82.7187 40.6707 82.6933 40.8209 82.6426C48.2345 80.1354 55.8382 75.0066 61.6708 68.5692C68.1668 61.3994 71.7184 53.3639 71.7184 45.9513V19.6839C71.7184 19.0073 71.249 18.4214 70.5886 18.2741C63.5073 16.6939 56.5064 13.6282 49.7798 9.16735L49.7522 9.20902L49.7798 9.16734C49.5429 9.0104 49.2651 8.92663 48.9812 8.92663H31.7348C31.451 8.92663 31.1733 9.01035 30.9365 9.16726ZM52.2981 1.21865L52.2981 1.21865C52.0531 1.04388 51.7598 0.95 51.4589 0.95H29.2573C28.9563 0.95 28.663 1.04391 28.4182 1.21863C22.5926 5.3764 13.3318 10.5308 2.35121 11.4042L2.35517 11.454L2.3512 11.4042C1.60021 11.464 1.02129 12.0907 1.02129 12.8442V45.9511C1.02129 51.241 2.29242 56.5726 4.80578 61.7995L4.85084 61.7779L4.80578 61.7995C7.05832 66.4835 10.2503 70.9808 14.2966 75.1649C21.6196 82.7368 31.229 88.6548 39.9845 91.0008C40.1067 91.0337 40.2323 91.05 40.3581 91.05C40.4839 91.05 40.6098 91.0336 40.7319 91.0007C49.4875 88.6547 59.0966 82.7368 66.4195 75.1649C70.466 70.981 73.658 66.4835 75.9104 61.7995C78.4237 56.5726 79.6949 51.241 79.6949 45.9511V12.8441C79.695 12.0909 79.116 11.464 78.3651 11.4042C67.3845 10.5308 58.1238 5.37642 52.2981 1.21865ZM32.7195 26.779V34.6506H24.848C24.0502 34.6506 23.4035 35.2972 23.4035 36.095V48.4832C23.4035 49.2808 24.0502 49.9276 24.848 49.9276H32.7195V57.7992C32.7195 58.5968 33.3662 59.2436 34.164 59.2436H46.5524C47.3501 59.2436 47.9968 58.5968 47.9968 57.7992V49.9276H55.8682C56.6659 49.9276 57.3126 49.2808 57.3126 48.4832V36.095C57.3126 35.2972 56.666 34.6506 55.8682 34.6506H47.9968V26.779C47.9968 25.9812 47.3501 25.3346 46.5524 25.3346H34.164C33.3662 25.3346 32.7195 25.9812 32.7195 26.779ZM46.5524 37.5394H54.4238V47.0388H46.5524C45.7546 47.0388 45.1079 47.6856 45.1079 48.4832V56.3548H35.6084V48.4832C35.6084 47.6856 34.9617 47.0388 34.164 47.0388H26.2924V37.5394H34.164C34.9617 37.5394 35.6084 36.8927 35.6084 36.095V28.2234H45.1079V36.095C45.1079 36.8927 45.7546 37.5394 46.5524 37.5394ZM40.3581 79.7458L40.2474 79.7062C33.5411 77.3048 26.4618 72.4518 21.1864 66.6293C15.208 60.0311 11.8866 52.6906 11.8866 45.9513V20.83L12.1354 20.7679C18.9264 19.0745 25.6296 16.0863 32.0864 11.8689L32.1682 11.8155H48.548L48.6297 11.8689C55.0866 16.0864 61.7898 19.0745 68.5808 20.7679L68.8296 20.83V45.9513C68.8296 52.6908 65.5081 60.0311 59.53 66.6293C54.2543 72.4518 47.175 77.305 40.4687 79.7062L40.3581 79.7458ZM40.3581 88.1079L40.2686 88.0826C32.7422 85.9496 23.6635 80.5836 16.4643 73.1828C9.2652 65.782 3.90998 56.3083 3.90998 45.9513V14.159L4.20006 14.1251C12.7286 13.129 21.4767 9.61921 29.6323 3.89837L29.7172 3.83887H50.999L51.0838 3.89837C59.2394 9.61921 67.9876 13.129 76.5161 14.1251L76.8062 14.159V45.9513C76.8062 56.3083 71.451 65.7821 64.2519 73.1828C57.0528 80.5837 47.974 85.9496 40.4475 88.0826L40.3581 88.1079Z" fill="#DD1851" stroke="#DD1851" stroke-width="0.1"/>
</svg>
