<svg width="106" height="91" viewBox="0 0 106 91" fill="none" xmlns="http://www.w3.org/2000/svg">
    <path d="M36.525 27.6025C36.315 28.2435 36.4858 28.9363 36.9768 29.4081L43.6182 35.7898L42.0507 44.8046C41.9375 45.4624 42.2148 46.1384 42.762 46.5278C43.0681 46.748 43.4274 46.8625 43.8075 46.8625C44.0951 46.8625 44.382 46.7932 44.6393 46.6642L52.8467 42.4055L61.0586 46.6664C61.6672 46.9698 62.3888 46.9151 62.9338 46.5286C63.4772 46.1377 63.7575 45.4624 63.6458 44.8076L62.0783 35.7898L68.7197 29.4081C69.2069 28.9334 69.3792 28.2428 69.167 27.6003C68.9548 26.9615 68.4017 26.5028 67.7296 26.4051L58.5529 25.0889L54.4476 16.8857C54.1422 16.2812 53.5299 15.9071 52.8482 15.9071C52.1657 15.9071 51.552 16.2827 51.2489 16.8879L47.1422 25.0882L37.9655 26.4045C37.289 26.503 36.7387 26.9615 36.525 27.6025ZM58.9122 33.9162C58.4886 34.321 58.2993 34.9051 58.4021 35.4746L59.5149 41.8861L53.6749 38.8562C53.4198 38.7257 53.1322 38.6564 52.8468 38.6564C52.5577 38.6564 52.27 38.7257 52.0135 38.8562L46.1781 41.8861L47.2909 35.4769C47.3914 34.9051 47.1999 34.3225 46.7799 33.9185L42.0574 29.3783L48.5805 28.4412C49.1602 28.361 49.663 28 49.9269 27.4786L52.8439 21.6455L55.7608 27.4786C56.0218 28.0001 56.5283 28.361 57.1073 28.439L63.6319 29.3768L58.9122 33.9162Z" fill="#DD1851"/>
    <path d="M8.05974 28.8496L11.14 34.5056C11.4513 35.0773 12.054 35.4332 12.712 35.4332H12.7712C13.4455 35.412 14.06 35.0058 14.3387 34.3962L17.0162 28.547L23.424 27.4036C24.0962 27.2825 24.63 26.8056 24.82 26.1573C25.0078 25.5185 24.8052 24.8169 24.3062 24.3714L19.4918 20.0485L20.3695 13.6889C20.4619 13.0195 20.1683 12.3697 19.599 11.9898C19.0459 11.6186 18.2917 11.5938 17.7172 11.9227L12.0629 15.1036L6.20236 12.3157C5.60417 12.024 4.85294 12.1042 4.32647 12.5126C3.78893 12.9268 3.53975 13.594 3.67801 14.2554L4.99786 20.5415L0.496378 25.181C0.0246315 25.6688 -0.124717 26.3667 0.108184 27.0011C0.33889 27.6232 0.920801 28.0739 1.58922 28.1453L8.05974 28.8496ZM7.90742 17.0345L11.3589 18.676C11.8795 18.9189 12.5183 18.9057 13.0189 18.6177L16.3462 16.7451L15.8286 20.489C15.7488 21.0629 15.961 21.639 16.3965 22.0314L19.2307 24.5742L15.4582 25.2473C14.8807 25.3508 14.3905 25.7264 14.1494 26.2551L12.573 29.7L10.7614 26.3695C10.4871 25.8649 9.97249 25.5214 9.38467 25.4551L5.57599 25.0387L8.22528 22.3099C8.63269 21.8935 8.80276 21.3043 8.68519 20.7347L7.90742 17.0345Z" fill="#DD1851"/>
    <path d="M105.417 47.2772L100.601 42.9572L101.482 36.5946C101.573 35.9288 101.279 35.2783 100.71 34.8955C100.149 34.5265 99.401 34.5046 98.8228 34.8306L93.1729 38.0085L87.3108 35.2192C86.7126 34.9421 85.9665 35.0121 85.4379 35.419C84.9018 35.8333 84.6526 36.4991 84.785 37.1626L86.1078 43.4487L81.6078 48.0852C81.1383 48.565 80.9845 49.2804 81.2174 49.9097C81.457 50.542 82.0248 50.9803 82.6992 51.0532L89.1698 51.7576L92.2509 57.4121C92.5607 57.9838 93.1626 58.3397 93.8221 58.3397H93.885C94.5601 58.3156 95.176 57.908 95.4496 57.3035L98.1307 51.4513L104.533 50.3107C105.212 50.1897 105.749 49.7098 105.931 49.0623C106.118 48.4271 105.917 47.725 105.417 47.2772ZM89.0181 39.9433L92.4696 41.5856C92.9872 41.8284 93.6334 41.8124 94.1273 41.5272L97.4562 39.6531L96.9379 43.3984C96.858 43.9767 97.0724 44.5528 97.5101 44.9371L100.341 47.4814L96.577 48.1545C95.9928 48.2515 95.4996 48.6292 95.2638 49.163L93.6851 52.6064L91.8714 49.2767C91.5926 48.7684 91.0795 48.425 90.4931 48.3586L86.6859 47.9444L89.3316 45.2192C89.7354 44.8072 89.9091 44.2194 89.7967 43.6418L89.0181 39.9433Z" fill="#DD1851"/>
    <path d="M68.1287 19.4146C71.6911 19.4146 74.5941 16.5573 74.5941 13.0424C74.5941 9.52754 71.6927 6.66809 68.1287 6.66809C64.5648 6.66809 61.6677 9.52736 61.6677 13.0424C61.6677 16.5575 64.5648 19.4146 68.1287 19.4146ZM68.1287 10.1905C69.7229 10.1905 71.0212 11.471 71.0212 13.0432C71.0212 14.6169 69.7228 15.8939 68.1287 15.8939C66.5368 15.8939 65.2398 14.6162 65.2398 13.0432C65.2398 11.4701 66.5367 10.1905 68.1287 10.1905Z" fill="#DD1851"/>
    <path d="M16.1689 71.662C12.6065 71.662 9.70788 74.5192 9.70788 78.0341C9.70788 81.549 12.6057 84.4062 16.1689 84.4062C19.7328 84.4062 22.6306 81.549 22.6306 78.0341C22.6306 74.5192 19.7328 71.662 16.1689 71.662ZM16.1689 80.8846C14.5747 80.8846 13.2771 79.6063 13.2771 78.0339C13.2771 76.4617 14.5748 75.1812 16.1689 75.1812C17.763 75.1812 19.0607 76.4618 19.0607 78.0339C19.0607 79.6062 17.7645 80.8846 16.1689 80.8846Z" fill="#DD1851"/>
    <path d="M89.8667 64.4429C86.3005 64.4429 83.4013 67.3022 83.4013 70.8173C83.4013 74.3322 86.2991 77.1879 89.8667 77.1879C93.4291 77.1879 96.3277 74.3314 96.3277 70.8173C96.3277 67.3024 93.4306 64.4429 89.8667 64.4429ZM89.8667 73.6663C88.271 73.6663 86.9762 72.3879 86.9762 70.8156C86.9762 69.2419 88.2717 67.9629 89.8667 67.9629C91.4609 67.9629 92.7571 69.2434 92.7571 70.8156C92.7579 72.3893 91.4609 73.6663 89.8667 73.6663Z" fill="#DD1851"/>
    <path d="M12.2695 53.2848C12.2695 50.2948 14.7362 47.8606 17.7693 47.8606C18.7527 47.8606 19.5543 47.0701 19.5543 46.101C19.5543 45.1311 18.7542 44.3406 17.7693 44.3406C14.7621 44.3406 12.2962 41.9268 12.2733 38.9596C12.2659 37.9948 11.4614 37.2116 10.4832 37.2116C9.5057 37.2116 8.7042 37.997 8.69827 38.9596C8.67461 41.9225 6.21158 44.3371 3.1468 44.3391C2.16191 44.3391 1.36187 45.1296 1.36187 46.1039C1.36187 46.7937 1.80402 47.4245 2.47246 47.7002C2.55527 47.7388 2.6307 47.7549 2.74383 47.784C2.81481 47.8081 2.91019 47.8424 3.03145 47.8533L3.20225 47.8606C6.23391 47.8606 8.70053 50.294 8.70053 53.2847C8.70053 54.2539 9.50058 55.0444 10.4855 55.0444C11.4696 55.0437 12.2695 54.2539 12.2695 53.2848ZM10.4846 47.9613C9.95148 47.2524 9.31115 46.6231 8.59244 46.0959C9.31189 45.5672 9.95148 44.9379 10.4846 44.229C11.0177 44.9379 11.658 45.5701 12.3767 46.0959C11.6588 46.6231 11.0199 47.2532 10.4846 47.9613Z" fill="#DD1851"/>
    <path d="M27.0833 10.4944C27.1447 10.5206 27.2112 10.5396 27.3465 10.5731C27.4197 10.5972 27.5151 10.6315 27.6341 10.6424L27.8049 10.6497C30.8366 10.6497 33.3047 13.0831 33.3047 16.0738C33.3047 17.043 34.1033 17.8335 35.0889 17.8335C36.0716 17.8335 36.8731 17.043 36.8731 16.0738C36.8731 13.0839 39.342 10.6497 42.3758 10.6497C43.3584 10.6497 44.16 9.85921 44.16 8.88933C44.16 7.91726 43.3599 7.12749 42.3758 7.12749C39.3693 7.12749 36.9027 4.71217 36.8775 1.74799C36.8708 0.785401 36.0678 0 35.0874 0C34.1091 0 33.3098 0.785383 33.301 1.74799C33.2788 4.7131 30.8122 7.12749 27.7531 7.12749C26.7675 7.12749 25.9667 7.91653 25.9667 8.89224C25.9652 9.58283 26.406 10.2122 27.0833 10.4944ZM33.1945 8.88568C33.9154 8.35699 34.5543 7.72766 35.0874 7.01884C35.6205 7.72766 36.2601 8.35918 36.9803 8.88568C36.2616 9.41292 35.6205 10.0423 35.0874 10.7511C34.5543 10.0423 33.9154 9.41146 33.1945 8.88568Z" fill="#DD1851"/>
    <path d="M81.4982 17.6429C81.5818 17.6808 81.655 17.6991 81.774 17.7297C81.845 17.7545 81.9522 17.7917 82.069 17.7975L82.2376 17.8055C85.2685 17.8055 87.7351 20.2382 87.7351 23.2282C87.7351 24.2002 88.5344 24.9907 89.5171 24.9907C90.5027 24.9907 91.3065 24.2002 91.3065 23.2282C91.3065 20.239 93.7724 17.8055 96.8048 17.8055C97.7882 17.8055 98.589 17.0165 98.589 16.0437C98.589 15.0738 97.7889 14.284 96.8048 14.284C93.7975 14.284 91.3317 11.8687 91.3065 8.90304C91.2991 7.93898 90.4968 7.15724 89.5171 7.15724C88.5411 7.15724 87.7425 7.93898 87.7351 8.90304C87.7107 11.8659 85.2464 14.2798 82.1806 14.2818C81.198 14.2818 80.3964 15.0723 80.3964 16.0473C80.3957 16.7393 80.8386 17.3702 81.4982 17.6429ZM87.6295 16.0422C88.346 15.5136 88.9841 14.8842 89.5187 14.1732C90.054 14.8842 90.6921 15.5157 91.4086 16.0422C90.6921 16.5658 90.054 17.1966 89.5187 17.9076C88.9841 17.1988 88.346 16.568 87.6295 16.0422Z" fill="#DD1851"/>
    <path d="M52.8455 50.5032C51.8621 50.5032 51.0591 51.2922 51.0591 52.265V89.2416C51.0591 90.2115 51.8614 90.9991 52.8455 90.9991C53.8282 90.9991 54.6319 90.2115 54.6319 89.2416V52.265C54.6312 51.2929 53.8289 50.5032 52.8455 50.5032Z" fill="#DD1851"/>
    <path d="M85.5301 32.2267C85.8828 31.911 86.0905 31.4771 86.1142 31.0067C86.1386 30.5393 85.9744 30.0886 85.655 29.7386C85.0199 29.0494 83.8412 28.986 83.1344 29.6124C67.9351 43.1405 59.2178 62.4708 59.2178 82.6458C59.2178 84.8758 59.3272 87.1488 59.5372 89.4066C59.6281 90.316 60.3934 90.9985 61.3169 90.9985L61.4855 90.992C61.9595 90.9467 62.3898 90.7243 62.693 90.3604C62.9962 89.998 63.1403 89.5415 63.0967 89.0755C62.8941 86.9367 62.7913 84.7722 62.7913 82.6459C62.7898 63.4622 71.0801 45.0849 85.5306 32.2261L85.5301 32.2267Z" fill="#DD1851"/>
    <path d="M89.6225 57.487C89.6905 57.0218 89.573 56.558 89.2875 56.1802C88.7175 55.4284 87.544 55.2592 86.7899 55.8215C77.2529 62.8184 70.5724 72.9854 67.9823 84.4477C67.64 85.9645 67.3686 87.5032 67.1749 89.0215C67.0558 89.9855 67.7494 90.8664 68.7121 90.986C68.7898 90.9954 68.8711 90.9998 68.9495 90.9998C69.8442 90.9998 70.6021 90.3391 70.7152 89.4611C70.903 88.0194 71.1551 86.5901 71.4679 85.2155C73.8681 74.5782 80.0658 65.1432 88.9209 58.6466C89.3024 58.3643 89.5539 57.9531 89.6226 57.4878L89.6225 57.487Z" fill="#DD1851"/>
    <path d="M18.8341 55.8199C18.0732 55.265 16.9035 55.4335 16.3364 56.1824C15.7493 56.9605 15.9142 58.0653 16.7032 58.6457C25.5562 65.141 31.7531 74.5759 34.1554 85.2147C34.4726 86.6228 34.7255 88.0521 34.9059 89.4602C35.0205 90.3382 35.7828 90.9989 36.6761 90.9989C36.7515 90.9989 36.8269 90.9946 36.8994 90.9851C37.3741 90.9267 37.7963 90.6912 38.0906 90.3193C38.3819 89.9459 38.5106 89.4843 38.4492 89.0191C38.2466 87.4563 37.9745 85.9162 37.6395 84.4475C35.0508 72.9875 28.3733 62.8201 18.834 55.8194L18.8341 55.8199Z" fill="#DD1851"/>
    <path d="M22.4438 29.6131C21.7392 28.9867 20.5561 29.0465 19.9232 29.7393C19.6031 30.0893 19.4397 30.54 19.4641 31.0104C19.4885 31.48 19.6962 31.9117 20.0512 32.2275C34.4992 45.0876 42.7867 63.4635 42.7867 82.6473C42.7867 84.7949 42.6861 86.9586 42.4835 89.0748C42.4377 89.543 42.5811 90.0002 42.8821 90.3619C43.1882 90.7265 43.6163 90.9497 44.0821 90.992L44.2603 91C45.1868 91 45.9476 90.3145 46.0371 89.4059C46.2493 87.17 46.3565 84.8978 46.3565 82.6473C46.3573 62.4705 37.6411 43.1411 22.4436 29.6139L22.4438 29.6131Z" fill="#DD1851"/>
</svg>
