<svg width="92" height="78" viewBox="0 0 92 78" fill="none" xmlns="http://www.w3.org/2000/svg">
    <mask id="path-1-outside-1_718_2499" maskUnits="userSpaceOnUse" x="0" y="0" width="92" height="78" fill="black">
        <rect fill="white" width="92" height="78"/>
        <path d="M60.0084 35.3315C60.0184 35.3391 60.0285 35.3467 60.0386 35.3542C60.0285 35.3467 60.0184 35.3391 60.0084 35.3315C60.0084 35.3315 60.0084 35.3315 60.0084 35.3315Z"/>
        <path fill-rule="evenodd" clip-rule="evenodd" d="M87.7331 74.9064C86.408 76.2419 84.6107 76.9945 82.7343 77H66.2097C64.3328 76.9972 62.5343 76.2454 61.2085 74.9091L61.2084 74.9091C59.8821 73.573 59.1375 71.7613 59.1375 69.8727V39.8587C59.1361 38.3694 59.6487 36.9266 60.5875 35.7749L60.8423 35.4622L60.5072 35.2388C58.9423 34.1953 57.9996 32.4332 57.9955 30.5439V29.1686C57.9982 27.6747 58.5898 26.2435 59.6401 25.1887C60.6904 24.1338 62.1129 23.5414 63.5966 23.5414H67.632V7.65218C67.6346 5.88606 68.3332 4.19433 69.5742 2.94749L69.5743 2.94742C70.8153 1.69998 72.4975 1 74.251 1H74.6828C76.4371 1 78.1186 1.69993 79.3596 2.94742L79.3596 2.94748L79.3597 2.94754C80.6013 4.19451 81.2999 5.88626 81.3026 7.6522V23.5414H85.3997C86.8826 23.5414 88.306 24.1338 89.3562 25.1887C90.4063 26.2434 90.9978 27.6745 91 29.168L91 29.1685L91 30.5436C90.9922 31.4984 90.7444 32.4189 90.2982 33.229C89.8566 34.0308 89.2208 34.7244 88.4313 35.2362L88.0872 35.4591L88.3481 35.7762C88.8624 36.4013 89.2496 37.1143 89.4954 37.8747C89.701 38.5107 89.8077 39.18 89.807 39.8587V69.8722C89.8049 71.7602 89.0591 73.5699 87.7331 74.9064ZM71.5631 4.95995C70.8415 5.68384 70.4345 6.66581 70.4314 7.69142L70.4313 23.5824H78.5638V7.69213L78.5637 7.69171C78.5614 6.66584 78.1543 5.6838 77.4327 4.95996C76.711 4.23522 75.7332 3.82853 74.7135 3.82853H74.2816C73.2626 3.82853 72.2848 4.23525 71.5631 4.95995ZM60.754 29.1662L60.754 29.1684L60.754 29.1707L60.7647 30.5459L60.7647 30.547C60.7712 32.1147 62.0372 33.3834 63.5964 33.3834H85.3477C86.9074 33.3834 88.1737 32.1141 88.1795 30.5459V29.1665C88.1736 27.5974 86.9072 26.329 85.3477 26.329H63.5972C62.8464 26.3259 62.1249 26.6233 61.5919 27.1548L61.5918 27.1549L61.5917 27.155C61.0584 27.6875 60.7573 28.4112 60.754 29.1662ZM77.5151 48.5699H61.8953L61.8961 60.9752H77.5151V48.5699ZM85.7791 72.9233L85.7792 72.9233L85.7793 72.9232C86.5864 72.1111 87.0391 71.0095 87.0391 69.8618V39.8586C87.0391 38.8861 86.6552 37.9537 85.9724 37.2658L85.9721 37.2655C85.2884 36.5783 84.3616 36.1917 83.3947 36.1917H65.53L65.5294 36.1917C64.565 36.1949 63.6405 36.5822 62.9598 37.2697C62.2785 37.9577 61.8969 38.8885 61.8969 39.8585V45.7821H78.9003C79.6643 45.7821 80.2846 46.4054 80.2846 47.1759V62.41C80.2846 63.1805 79.6643 63.8038 78.9003 63.8038H61.8969V69.8618C61.8969 71.0095 62.3497 72.111 63.1568 72.9232C63.9631 73.7347 65.0579 74.1914 66.1992 74.1914H82.7362C82.9002 74.1914 83.0632 74.1819 83.2245 74.1634C84.1865 74.0529 85.0881 73.6181 85.7791 72.9233Z"/>
        <path d="M39.8457 49.2008H34.6418V54.4377H31.873V49.2008H26.6692V46.4132H31.873V41.1764H34.6418V46.4132H39.8457V49.2008Z"/>
        <path fill-rule="evenodd" clip-rule="evenodd" d="M45.1228 4.51451V11.2553H52.2229C52.5899 11.2553 52.9421 11.4017 53.2016 11.6628C53.4615 11.9251 53.6074 12.2792 53.6074 12.6491V21.632C53.6074 22.4026 52.9869 23.0265 52.2231 23.0265H47.6525V75.5536C47.6525 76.324 47.0322 76.9474 46.2682 76.9474H8.33925C7.57523 76.9474 6.95488 76.324 6.95488 75.5536L6.95415 23.0265H2.38438C1.62055 23.0265 1 22.4026 1 21.632V12.6491C1 11.8787 1.62036 11.2553 2.38438 11.2553H9.44351V4.51451C9.44351 3.74405 10.0639 3.1207 10.8279 3.1207H43.7377C44.5019 3.1207 45.1228 3.74425 45.1228 4.51451ZM9.75393 23.0269V74.1915L44.8827 74.1908V62.9962H17.3611V32.6787L44.8827 32.6794V23.0269H9.75393ZM44.8827 60.2492V35.4666H20.1301V60.2492H44.8827ZM3.76736 20.2387H50.8362L50.8482 14.0434H43.7474C42.9834 14.0434 42.363 13.42 42.363 12.6496V5.90877H12.2222L12.2214 11.2559H31.0971C31.8613 11.2559 32.4822 11.8794 32.4822 12.6497C32.4822 13.4199 31.8613 14.0435 31.0971 14.0435H11.54L11.5233 14.0451C11.4294 14.0538 11.335 14.0538 11.2411 14.0451L11.2071 14.0419L11.1731 14.0451C11.0826 14.0538 10.9923 14.0538 10.9029 14.0452L10.8856 14.0435H3.76736V20.2387Z"/>
    </mask>
    <path d="M60.0084 35.3315C60.0184 35.3391 60.0285 35.3467 60.0386 35.3542C60.0285 35.3467 60.0184 35.3391 60.0084 35.3315C60.0084 35.3315 60.0084 35.3315 60.0084 35.3315Z" fill="#DD1851"/>
    <path fill-rule="evenodd" clip-rule="evenodd" d="M87.7331 74.9064C86.408 76.2419 84.6107 76.9945 82.7343 77H66.2097C64.3328 76.9972 62.5343 76.2454 61.2085 74.9091L61.2084 74.9091C59.8821 73.573 59.1375 71.7613 59.1375 69.8727V39.8587C59.1361 38.3694 59.6487 36.9266 60.5875 35.7749L60.8423 35.4622L60.5072 35.2388C58.9423 34.1953 57.9996 32.4332 57.9955 30.5439V29.1686C57.9982 27.6747 58.5898 26.2435 59.6401 25.1887C60.6904 24.1338 62.1129 23.5414 63.5966 23.5414H67.632V7.65218C67.6346 5.88606 68.3332 4.19433 69.5742 2.94749L69.5743 2.94742C70.8153 1.69998 72.4975 1 74.251 1H74.6828C76.4371 1 78.1186 1.69993 79.3596 2.94742L79.3596 2.94748L79.3597 2.94754C80.6013 4.19451 81.2999 5.88626 81.3026 7.6522V23.5414H85.3997C86.8826 23.5414 88.306 24.1338 89.3562 25.1887C90.4063 26.2434 90.9978 27.6745 91 29.168L91 29.1685L91 30.5436C90.9922 31.4984 90.7444 32.4189 90.2982 33.229C89.8566 34.0308 89.2208 34.7244 88.4313 35.2362L88.0872 35.4591L88.3481 35.7762C88.8624 36.4013 89.2496 37.1143 89.4954 37.8747C89.701 38.5107 89.8077 39.18 89.807 39.8587V69.8722C89.8049 71.7602 89.0591 73.5699 87.7331 74.9064ZM71.5631 4.95995C70.8415 5.68384 70.4345 6.66581 70.4314 7.69142L70.4313 23.5824H78.5638V7.69213L78.5637 7.69171C78.5614 6.66584 78.1543 5.6838 77.4327 4.95996C76.711 4.23522 75.7332 3.82853 74.7135 3.82853H74.2816C73.2626 3.82853 72.2848 4.23525 71.5631 4.95995ZM60.754 29.1662L60.754 29.1684L60.754 29.1707L60.7647 30.5459L60.7647 30.547C60.7712 32.1147 62.0372 33.3834 63.5964 33.3834H85.3477C86.9074 33.3834 88.1737 32.1141 88.1795 30.5459V29.1665C88.1736 27.5974 86.9072 26.329 85.3477 26.329H63.5972C62.8464 26.3259 62.1249 26.6233 61.5919 27.1548L61.5918 27.1549L61.5917 27.155C61.0584 27.6875 60.7573 28.4112 60.754 29.1662ZM77.5151 48.5699H61.8953L61.8961 60.9752H77.5151V48.5699ZM85.7791 72.9233L85.7792 72.9233L85.7793 72.9232C86.5864 72.1111 87.0391 71.0095 87.0391 69.8618V39.8586C87.0391 38.8861 86.6552 37.9537 85.9724 37.2658L85.9721 37.2655C85.2884 36.5783 84.3616 36.1917 83.3947 36.1917H65.53L65.5294 36.1917C64.565 36.1949 63.6405 36.5822 62.9598 37.2697C62.2785 37.9577 61.8969 38.8885 61.8969 39.8585V45.7821H78.9003C79.6643 45.7821 80.2846 46.4054 80.2846 47.1759V62.41C80.2846 63.1805 79.6643 63.8038 78.9003 63.8038H61.8969V69.8618C61.8969 71.0095 62.3497 72.111 63.1568 72.9232C63.9631 73.7347 65.0579 74.1914 66.1992 74.1914H82.7362C82.9002 74.1914 83.0632 74.1819 83.2245 74.1634C84.1865 74.0529 85.0881 73.6181 85.7791 72.9233Z" fill="#DD1851"/>
    <path d="M39.8457 49.2008H34.6418V54.4377H31.873V49.2008H26.6692V46.4132H31.873V41.1764H34.6418V46.4132H39.8457V49.2008Z" fill="#DD1851"/>
    <path fill-rule="evenodd" clip-rule="evenodd" d="M45.1228 4.51451V11.2553H52.2229C52.5899 11.2553 52.9421 11.4017 53.2016 11.6628C53.4615 11.9251 53.6074 12.2792 53.6074 12.6491V21.632C53.6074 22.4026 52.9869 23.0265 52.2231 23.0265H47.6525V75.5536C47.6525 76.324 47.0322 76.9474 46.2682 76.9474H8.33925C7.57523 76.9474 6.95488 76.324 6.95488 75.5536L6.95415 23.0265H2.38438C1.62055 23.0265 1 22.4026 1 21.632V12.6491C1 11.8787 1.62036 11.2553 2.38438 11.2553H9.44351V4.51451C9.44351 3.74405 10.0639 3.1207 10.8279 3.1207H43.7377C44.5019 3.1207 45.1228 3.74425 45.1228 4.51451ZM9.75393 23.0269V74.1915L44.8827 74.1908V62.9962H17.3611V32.6787L44.8827 32.6794V23.0269H9.75393ZM44.8827 60.2492V35.4666H20.1301V60.2492H44.8827ZM3.76736 20.2387H50.8362L50.8482 14.0434H43.7474C42.9834 14.0434 42.363 13.42 42.363 12.6496V5.90877H12.2222L12.2214 11.2559H31.0971C31.8613 11.2559 32.4822 11.8794 32.4822 12.6497C32.4822 13.4199 31.8613 14.0435 31.0971 14.0435H11.54L11.5233 14.0451C11.4294 14.0538 11.335 14.0538 11.2411 14.0451L11.2071 14.0419L11.1731 14.0451C11.0826 14.0538 10.9923 14.0538 10.9029 14.0452L10.8856 14.0435H3.76736V20.2387Z" fill="#DD1851"/>
    <path d="M60.0084 35.3315C60.0184 35.3391 60.0285 35.3467 60.0386 35.3542C60.0285 35.3467 60.0184 35.3391 60.0084 35.3315C60.0084 35.3315 60.0084 35.3315 60.0084 35.3315Z" stroke="#DD1851" stroke-width="0.4" mask="url(#path-1-outside-1_718_2499)"/>
    <path fill-rule="evenodd" clip-rule="evenodd" d="M87.7331 74.9064C86.408 76.2419 84.6107 76.9945 82.7343 77H66.2097C64.3328 76.9972 62.5343 76.2454 61.2085 74.9091L61.2084 74.9091C59.8821 73.573 59.1375 71.7613 59.1375 69.8727V39.8587C59.1361 38.3694 59.6487 36.9266 60.5875 35.7749L60.8423 35.4622L60.5072 35.2388C58.9423 34.1953 57.9996 32.4332 57.9955 30.5439V29.1686C57.9982 27.6747 58.5898 26.2435 59.6401 25.1887C60.6904 24.1338 62.1129 23.5414 63.5966 23.5414H67.632V7.65218C67.6346 5.88606 68.3332 4.19433 69.5742 2.94749L69.5743 2.94742C70.8153 1.69998 72.4975 1 74.251 1H74.6828C76.4371 1 78.1186 1.69993 79.3596 2.94742L79.3596 2.94748L79.3597 2.94754C80.6013 4.19451 81.2999 5.88626 81.3026 7.6522V23.5414H85.3997C86.8826 23.5414 88.306 24.1338 89.3562 25.1887C90.4063 26.2434 90.9978 27.6745 91 29.168L91 29.1685L91 30.5436C90.9922 31.4984 90.7444 32.4189 90.2982 33.229C89.8566 34.0308 89.2208 34.7244 88.4313 35.2362L88.0872 35.4591L88.3481 35.7762C88.8624 36.4013 89.2496 37.1143 89.4954 37.8747C89.701 38.5107 89.8077 39.18 89.807 39.8587V69.8722C89.8049 71.7602 89.0591 73.5699 87.7331 74.9064ZM71.5631 4.95995C70.8415 5.68384 70.4345 6.66581 70.4314 7.69142L70.4313 23.5824H78.5638V7.69213L78.5637 7.69171C78.5614 6.66584 78.1543 5.6838 77.4327 4.95996C76.711 4.23522 75.7332 3.82853 74.7135 3.82853H74.2816C73.2626 3.82853 72.2848 4.23525 71.5631 4.95995ZM60.754 29.1662L60.754 29.1684L60.754 29.1707L60.7647 30.5459L60.7647 30.547C60.7712 32.1147 62.0372 33.3834 63.5964 33.3834H85.3477C86.9074 33.3834 88.1737 32.1141 88.1795 30.5459V29.1665C88.1736 27.5974 86.9072 26.329 85.3477 26.329H63.5972C62.8464 26.3259 62.1249 26.6233 61.5919 27.1548L61.5918 27.1549L61.5917 27.155C61.0584 27.6875 60.7573 28.4112 60.754 29.1662ZM77.5151 48.5699H61.8953L61.8961 60.9752H77.5151V48.5699ZM85.7791 72.9233L85.7792 72.9233L85.7793 72.9232C86.5864 72.1111 87.0391 71.0095 87.0391 69.8618V39.8586C87.0391 38.8861 86.6552 37.9537 85.9724 37.2658L85.9721 37.2655C85.2884 36.5783 84.3616 36.1917 83.3947 36.1917H65.53L65.5294 36.1917C64.565 36.1949 63.6405 36.5822 62.9598 37.2697C62.2785 37.9577 61.8969 38.8885 61.8969 39.8585V45.7821H78.9003C79.6643 45.7821 80.2846 46.4054 80.2846 47.1759V62.41C80.2846 63.1805 79.6643 63.8038 78.9003 63.8038H61.8969V69.8618C61.8969 71.0095 62.3497 72.111 63.1568 72.9232C63.9631 73.7347 65.0579 74.1914 66.1992 74.1914H82.7362C82.9002 74.1914 83.0632 74.1819 83.2245 74.1634C84.1865 74.0529 85.0881 73.6181 85.7791 72.9233Z" stroke="#DD1851" stroke-width="0.4" mask="url(#path-1-outside-1_718_2499)"/>
    <path d="M39.8457 49.2008H34.6418V54.4377H31.873V49.2008H26.6692V46.4132H31.873V41.1764H34.6418V46.4132H39.8457V49.2008Z" stroke="#DD1851" stroke-width="0.4" mask="url(#path-1-outside-1_718_2499)"/>
    <path fill-rule="evenodd" clip-rule="evenodd" d="M45.1228 4.51451V11.2553H52.2229C52.5899 11.2553 52.9421 11.4017 53.2016 11.6628C53.4615 11.9251 53.6074 12.2792 53.6074 12.6491V21.632C53.6074 22.4026 52.9869 23.0265 52.2231 23.0265H47.6525V75.5536C47.6525 76.324 47.0322 76.9474 46.2682 76.9474H8.33925C7.57523 76.9474 6.95488 76.324 6.95488 75.5536L6.95415 23.0265H2.38438C1.62055 23.0265 1 22.4026 1 21.632V12.6491C1 11.8787 1.62036 11.2553 2.38438 11.2553H9.44351V4.51451C9.44351 3.74405 10.0639 3.1207 10.8279 3.1207H43.7377C44.5019 3.1207 45.1228 3.74425 45.1228 4.51451ZM9.75393 23.0269V74.1915L44.8827 74.1908V62.9962H17.3611V32.6787L44.8827 32.6794V23.0269H9.75393ZM44.8827 60.2492V35.4666H20.1301V60.2492H44.8827ZM3.76736 20.2387H50.8362L50.8482 14.0434H43.7474C42.9834 14.0434 42.363 13.42 42.363 12.6496V5.90877H12.2222L12.2214 11.2559H31.0971C31.8613 11.2559 32.4822 11.8794 32.4822 12.6497C32.4822 13.4199 31.8613 14.0435 31.0971 14.0435H11.54L11.5233 14.0451C11.4294 14.0538 11.335 14.0538 11.2411 14.0451L11.2071 14.0419L11.1731 14.0451C11.0826 14.0538 10.9923 14.0538 10.9029 14.0452L10.8856 14.0435H3.76736V20.2387Z" stroke="#DD1851" stroke-width="0.4" mask="url(#path-1-outside-1_718_2499)"/>
</svg>
