<svg width="67" height="95" viewBox="0 0 67 95" fill="none" xmlns="http://www.w3.org/2000/svg">
    <path d="M42.7366 61.5749C42.5329 61.4415 42.3563 61.2339 42.3069 60.927C45.6031 60.6822 51.2141 59.4935 58.5243 55.431L58.5244 55.4311L58.5259 55.4302C58.9289 55.1872 59.2532 54.7014 59.2532 54.2101V31.5291C59.2532 22.6623 56.2889 15.6691 50.5879 11.1053L52.7672 2.73919L52.7673 2.73921L52.7679 2.73635C52.8481 2.33337 52.7885 1.88808 52.5656 1.54191C52.3412 1.19356 51.954 0.95 51.3907 0.95H15.4535C14.6447 0.95 13.8341 1.68192 14.0767 2.73778L14.0767 2.73778L14.077 2.73908C14.3505 3.79893 14.917 5.89863 15.415 7.73304C15.6641 8.65031 15.896 9.50136 16.0657 10.1231L16.2679 10.8633L16.3234 11.0662L16.334 11.1052C10.6331 15.5914 7.66921 22.663 7.66921 31.5291V54.1316C7.66921 54.6182 7.91144 55.1076 8.39868 55.3529C15.631 59.4931 21.2411 60.6044 24.6138 60.8485C24.5176 61.3446 24.0834 61.6943 23.5785 61.6943C23.2645 61.6943 22.8141 61.714 22.4333 61.7336C22.2473 61.7432 22.0788 61.7527 21.9503 61.7599C21.814 61.7676 21.7227 61.7728 21.7035 61.7728V61.7726L21.6995 61.7729C9.71998 62.7168 0.872303 72.6276 0.950514 84.4255V92.5873C0.950514 93.4037 1.60121 93.9693 2.40175 94.0498L2.40173 94.05H2.40675H64.5938C65.4069 94.05 65.9697 93.396 66.0498 92.5923L66.05 92.5923V92.5873V84.5038L66.05 84.5033C66.0108 80.4912 64.6213 75.1441 61.3138 70.6419C58.0054 66.1385 52.7783 62.481 45.0682 61.8516C44.5182 61.7728 43.891 61.7728 43.3459 61.7728H43.3439C43.1974 61.7728 42.953 61.7168 42.7366 61.5749ZM10.506 30.0658C10.8257 23.3055 13.0661 17.8645 17.1458 14.1198L18.2959 18.2792L18.2959 18.2792L18.2967 18.2816C18.4182 18.6477 18.7007 18.9716 19.0536 19.1539C19.407 19.3365 19.8337 19.3781 20.2403 19.1744C24.3747 17.3723 28.8985 16.3539 33.4217 16.3538C37.9465 16.4322 42.4711 17.3727 46.6052 19.175L46.6059 19.1752C47.0909 19.3783 47.5371 19.2969 47.8811 19.0937C48.223 18.8916 48.4663 18.5677 48.5482 18.2795L48.5483 18.2792L49.6985 14.1198C53.7783 17.8646 56.0187 23.3059 56.3383 30.0664C53.2388 30.0642 50.744 29.8633 48.3563 28.6786C45.9553 27.4873 43.6566 25.2978 40.9636 21.2987C40.7992 21.0512 40.4745 20.8284 40.0913 20.7575C39.7057 20.6861 39.26 20.7684 38.8573 21.1325L38.8573 21.1325L38.8554 21.1343C33.0174 26.999 23.6757 29.9018 10.506 30.0658ZM49.2655 65.5588L49.2732 65.5614H49.2814H49.3519C57.608 68.1469 63.2155 75.8165 63.2156 84.5035C63.2156 84.5036 63.2156 84.5037 63.2156 84.5038L63.1381 91.2032H30.4253V78.5613L45.5508 64.7766H45.6845C46.931 64.9332 48.0985 65.168 49.2655 65.5588ZM41.8465 64.2706L33.4223 71.8793L25.0784 64.2734C26.5394 63.6967 27.4566 62.2847 27.4566 60.6456V58.2039C31.3335 59.5118 35.5889 59.5118 39.4658 58.2039V60.6456C39.4658 62.2102 40.3855 63.6204 41.8465 64.2706ZM16.9098 32.5949C26.8716 31.6505 34.3574 28.9125 39.7478 24.2203L39.7906 24.2633C39.8315 24.317 39.8722 24.3705 39.9127 24.4238C41.3807 26.3528 42.6261 27.9893 44.1315 29.291C45.6733 30.6241 47.4868 31.6056 50.0908 32.1969V39.6911C50.0908 48.8462 42.691 56.3576 33.5003 56.3576C24.3094 56.3576 16.9098 48.9245 16.9098 39.6911V32.5949ZM56.4188 53.317C50.0711 56.7342 45.1869 57.7586 42.3002 58.0014V56.9876C48.7855 53.678 52.847 46.9982 52.847 39.6911V32.6855C53.9141 32.8356 55.0571 32.9114 56.4188 32.9133V53.317ZM49.5288 3.79684L46.2786 16.002C42.1488 14.4429 37.8633 13.5854 33.4221 13.5854C29.0589 13.5854 24.6961 14.4428 20.5657 16.002L17.3154 3.79684H49.5288ZM10.5036 32.9132C11.1128 32.9122 11.7216 32.8931 12.3204 32.874L12.3498 32.8731C12.9376 32.8543 13.5153 32.8359 14.0754 32.8349V39.7696C14.0754 47.0767 18.1369 53.7564 24.6222 57.0661V58.08C21.6602 57.8374 16.8523 56.8128 10.5036 53.3173V32.9132ZM3.70674 84.5038C3.70674 74.4125 11.2547 65.8849 21.2959 64.7787L31.3171 73.9093L28.0775 76.9313C27.7512 77.1783 27.5909 77.5862 27.5909 77.9899V91.2816H3.70674V84.5038ZM51.0782 78.0183H44.047C43.238 78.0183 42.5908 78.6688 42.5908 79.481C42.5908 80.2932 43.238 80.9437 44.047 80.9437H51.0782C51.8873 80.9437 52.5345 80.2932 52.5345 79.481C52.5345 78.667 51.8074 78.0183 51.0782 78.0183Z" fill="#DD1851" stroke="#DD1851" stroke-width="0.1"/>
</svg>
