<svg width="83" height="90" viewBox="0 0 83 90" fill="none" xmlns="http://www.w3.org/2000/svg">
    <path d="M75.498 2.63672H52.7273C51.0388 0.975586 48.7396 0 46.2605 0C43.7808 0 41.4807 0.976641 39.7927 2.63672H17.1387C13.5039 2.63672 10.5469 5.59371 10.5469 9.22852V64.9512C10.5469 65.6793 11.1371 66.2695 11.8652 66.2695C12.5933 66.2695 13.1836 65.6793 13.1836 64.9512V9.22852C13.1836 7.0476 14.9578 5.27344 17.1387 5.27344H37.9236C37.8504 5.4283 37.7798 5.58475 37.7147 5.74488L36.8177 7.91016H17.1387C16.4106 7.91016 15.8203 8.50043 15.8203 9.22852V68.9062H1.31836C0.590273 68.9062 0 69.4965 0 70.2246C0 75.3133 4.13982 79.4531 9.22852 79.4531H10.5469V83.4082C10.5469 87.043 13.5039 90 17.1387 90H75.498C79.1329 90 82.0898 87.043 82.0898 83.4082V9.22852C82.0898 5.59371 79.1329 2.63672 75.498 2.63672ZM40.1539 6.74631C41.1697 4.24986 43.5669 2.63672 46.2605 2.63672C48.9551 2.63672 51.3526 4.25057 52.3714 6.75598L55.7889 15.0064C55.9928 15.4992 56.4738 15.8203 57.0069 15.8203H59.6777C61.3965 15.8203 62.8627 16.9225 63.4069 18.457H29.2298C29.7738 16.9225 31.2402 15.8203 32.959 15.8203H35.5143C36.0475 15.8203 36.5282 15.4992 36.7323 15.0064L40.1539 6.74631ZM18.457 10.5469H35.7256L34.6335 13.1836H32.959C29.3242 13.1836 26.3672 16.1406 26.3672 19.7754C26.3672 20.5035 26.9575 21.0938 27.6855 21.0938H64.9512C65.6794 21.0938 66.2695 20.5035 66.2695 19.7754C66.2695 16.1406 63.3125 13.1836 59.6777 13.1836H57.8878L56.7954 10.5469H74.1797V70.2246C74.1797 73.8594 71.2227 76.8164 67.5879 76.8164C63.9531 76.8164 60.9961 73.8594 60.9961 70.2246C60.9961 69.4965 60.406 68.9062 59.6777 68.9062H18.457V10.5469ZM2.76908 71.543H58.4532C58.748 73.5949 59.7203 75.4309 61.1355 76.8164H9.22852C6.04529 76.8164 3.38168 74.548 2.76908 71.543ZM79.4531 83.4082C79.4531 85.5891 77.6788 87.3633 75.498 87.3633H17.1387C14.9578 87.3633 13.1836 85.5891 13.1836 83.4082V79.4531H67.5879C72.6764 79.4531 76.8164 75.3133 76.8164 70.2246V9.22852C76.8164 8.50043 76.2263 7.91016 75.498 7.91016H55.7033L54.8105 5.7549C54.7441 5.59143 54.672 5.43146 54.5971 5.27344H75.498C77.6788 5.27344 79.4531 7.0476 79.4531 9.22852V83.4082Z" fill="#DD1851"/>
    <path d="M46.2605 13.1836C48.4413 13.1836 50.2156 11.4094 50.2156 9.22852C50.2156 7.0476 48.4413 5.27344 46.2605 5.27344C44.0798 5.27344 42.3054 7.0476 42.3054 9.22852C42.3054 11.4094 44.0798 13.1836 46.2605 13.1836ZM46.2605 7.91016C46.9876 7.91016 47.5789 8.50148 47.5789 9.22852C47.5789 9.95555 46.9876 10.5469 46.2605 10.5469C45.5335 10.5469 44.9422 9.95555 44.9422 9.22852C44.9422 8.50148 45.5335 7.91016 46.2605 7.91016Z" fill="#DD1851"/>
    <path d="M54.4043 56.8652H27.6855C26.9575 56.8652 26.3672 57.4555 26.3672 58.1836C26.3672 58.9117 26.9575 59.502 27.6855 59.502H54.4043C55.1326 59.502 55.7227 58.9117 55.7227 58.1836C55.7227 57.4555 55.1326 56.8652 54.4043 56.8652Z" fill="#DD1851"/>
    <path d="M64.9512 62.1387C65.6794 62.1387 66.2695 61.5484 66.2695 60.8203V55.5469C66.2695 54.8188 65.6794 54.2285 64.9512 54.2285H59.6777C58.9495 54.2285 58.3594 54.8188 58.3594 55.5469V60.8203C58.3594 61.5484 58.9495 62.1387 59.6777 62.1387H64.9512ZM60.9961 56.8652H63.6328V59.502H60.9961V56.8652Z" fill="#DD1851"/>
    <path d="M54.4043 43.6816H27.6855C26.9575 43.6816 26.3672 44.2719 26.3672 45C26.3672 45.7281 26.9575 46.3184 27.6855 46.3184H54.4043C55.1326 46.3184 55.7227 45.7281 55.7227 45C55.7227 44.2719 55.1326 43.6816 54.4043 43.6816Z" fill="#DD1851"/>
    <path d="M59.6777 48.9551H64.9512C65.6794 48.9551 66.2695 48.3648 66.2695 47.6367V42.3633C66.2695 41.6352 65.6794 41.0449 64.9512 41.0449H59.6777C58.9495 41.0449 58.3594 41.6352 58.3594 42.3633V47.6367C58.3594 48.3648 58.9495 48.9551 59.6777 48.9551ZM60.9961 43.6816H63.6328V46.3184H60.9961V43.6816Z" fill="#DD1851"/>
    <path d="M54.4043 30.498H27.6855C26.9575 30.498 26.3672 31.0883 26.3672 31.8164C26.3672 32.5445 26.9575 33.1348 27.6855 33.1348H54.4043C55.1326 33.1348 55.7227 32.5445 55.7227 31.8164C55.7227 31.0883 55.1326 30.498 54.4043 30.498Z" fill="#DD1851"/>
    <path d="M59.6777 35.7715H64.9512C65.6794 35.7715 66.2695 35.1812 66.2695 34.4531V29.1797C66.2695 28.4516 65.6794 27.8613 64.9512 27.8613H59.6777C58.9495 27.8613 58.3594 28.4516 58.3594 29.1797V34.4531C58.3594 35.1812 58.9495 35.7715 59.6777 35.7715ZM60.9961 30.498H63.6328V33.1348H60.9961V30.498Z" fill="#DD1851"/>
</svg>
