<svg width="97" height="96" viewBox="0 0 97 96" fill="none" xmlns="http://www.w3.org/2000/svg">
    <path d="M81.4829 51.2006H78.0061C77.9951 51.2006 77.9834 51.2006 77.9724 51.2006C77.2444 51.2021 76.5208 51.3098 75.8235 51.5207C75.7693 51.5331 75.7159 51.5485 75.6639 51.5668C74.8165 51.8605 74.0291 52.3058 73.3407 52.8808C73.6878 49.2004 75.5101 43.8568 82.4255 39.7736C83.1616 39.3143 83.3974 38.3512 82.9565 37.6034C82.5149 36.8556 81.5583 36.5956 80.7996 37.0182C76.504 39.3517 73.1532 43.1068 71.3214 47.6389C71.2365 47.3621 71.1456 47.0918 71.046 46.8391C70.2448 44.7313 68.9242 42.8599 67.206 41.3995V14.4014C67.206 11.7501 65.0571 9.60117 62.4065 9.60117H55.7123C55.0363 7.69031 53.2331 6.41006 51.2065 6.40127H42.6351C41.2904 2.5671 37.6701 0 33.6067 0C29.5432 0 25.9229 2.5671 24.5782 6.40127H16.0068C13.9803 6.41006 12.1771 7.69031 11.5018 9.60117H4.80754C2.15622 9.60117 0.00732422 11.7501 0.00732422 14.4014V91.1998C0.00732422 93.8511 2.15622 96 4.80754 96H62.4065C63.1543 96.0007 63.8918 95.8228 64.5569 95.48C66.018 95.8228 67.5144 95.9978 69.0158 96H74.9967C86.5805 96 96.0059 85.9535 96.0059 73.6V66.6721C96.0059 58.1446 89.4911 51.2006 81.4829 51.2006ZM68.0541 47.9846C68.4701 49.24 68.7697 50.5305 68.9484 51.8408C68.7887 51.7719 68.6459 51.6804 68.4848 51.6276C67.6975 51.3449 66.8669 51.2006 66.0305 51.2006C66.0173 51.2006 66.0078 51.2006 65.9953 51.2006H62.5296C62.0909 51.2006 61.6595 51.2307 61.2303 51.2709C61.1907 51.26 61.1614 51.2343 61.1197 51.2263C55.8243 50.1657 55.8976 43.9879 56.0975 41.7767C57.1185 41.6588 58.1454 41.6017 59.1729 41.6053H59.2066C63.2114 41.6412 66.7585 44.201 68.0541 47.9912V47.9846ZM51.7983 86.4003H9.60703V19.2009H11.5018C12.1771 21.1117 13.9803 22.3927 16.0068 22.4008H51.2065C53.2331 22.3927 55.0363 21.1117 55.7123 19.2009H57.6063V38.4245C53.474 38.5717 53.2001 39.7223 53.0529 40.38C52.4897 43.6715 52.7761 49.5 56.5853 52.5768C51.2629 55.245 47.9312 60.719 48.0066 66.6721V73.6C47.9934 78.1453 49.3117 82.5954 51.7983 86.4003ZM64.0061 14.4014V39.4389C62.9822 39.0089 61.9063 38.7145 60.8062 38.5622V19.2009C60.8062 17.4336 59.3736 16.001 57.6063 16.001H56.0067V12.8011H62.4065C63.2898 12.8011 64.0061 13.5174 64.0061 14.4014ZM16.0068 9.60117H25.7669C25.8211 9.59312 25.8739 9.58213 25.9266 9.56748C26.0269 9.55723 26.1251 9.53745 26.221 9.50816C26.3228 9.47813 26.421 9.43711 26.514 9.38658C26.7799 9.24376 26.9981 9.0255 27.1409 8.75963C27.1929 8.66662 27.2347 8.56847 27.2647 8.46667C27.2889 8.41833 27.3101 8.36926 27.3284 8.31799C27.9371 5.33927 30.5584 3.1999 33.5986 3.1999C36.6396 3.1999 39.2601 5.33927 39.8688 8.31799C39.8878 8.37585 39.9105 8.43224 39.9362 8.48791C39.9611 8.56554 39.9911 8.64245 40.0262 8.71642C40.0797 8.81969 40.1456 8.9171 40.2211 9.00572C40.2672 9.06651 40.317 9.12291 40.3712 9.17564C40.4664 9.25767 40.5704 9.32798 40.6818 9.38511C40.9066 9.53818 41.1754 9.61436 41.4464 9.60117H51.2065C52.0905 9.60117 52.8068 10.3175 52.8068 11.2015V17.6013C52.8068 18.4846 52.0905 19.2009 51.2065 19.2009H16.0068C15.1235 19.2009 14.4073 18.4846 14.4073 17.6013V11.2015C14.4073 10.3175 15.1235 9.60117 16.0068 9.60117ZM4.80754 92.8001C3.92352 92.8001 3.20723 92.0838 3.20723 91.1998V14.4014C3.20723 13.5174 3.92352 12.8011 4.80754 12.8011H11.2073V16.001H9.60703C7.83972 16.001 6.40713 17.4336 6.40713 19.2009V86.4003C6.40713 88.1676 7.83972 89.6002 9.60703 89.6002H54.339C55.5109 90.8175 56.8219 91.8912 58.2464 92.8001H4.80754ZM92.806 73.6C92.806 84.1855 84.8154 92.8001 74.9967 92.8001H69.0158C59.1971 92.8001 51.2065 84.1891 51.2065 73.6V66.6721C51.2065 59.909 56.2865 54.4005 62.5296 54.4005H66.0576C66.5153 54.4049 66.9687 54.4862 67.4001 54.6408C69.2604 55.3856 70.4601 57.2115 70.4059 59.2147V60.8003C70.4059 61.6844 71.1222 62.4007 72.0062 62.4007C72.8895 62.4007 73.6058 61.6844 73.6058 60.8003V59.2103C73.5465 57.2093 74.7366 55.382 76.5919 54.629L76.6688 54.6071C77.0826 54.4738 77.514 54.4035 77.9483 54.3976H81.4814C87.726 54.4005 92.806 59.909 92.806 66.6721V73.6Z" fill="#DD1851"/>
    <path d="M60.3009 57.6825C60.0592 57.7608 54.4064 59.7333 54.4064 67.2003C54.4064 68.0843 55.1227 68.8006 56.0067 68.8006C56.89 68.8006 57.6063 68.0843 57.6063 67.2003C57.6063 62.1224 61.1454 60.7784 61.3263 60.714C62.1635 60.4313 62.6132 59.5223 62.3297 58.6852C62.0463 57.848 61.1381 57.399 60.3009 57.6825Z" fill="#DD1851"/>
    <path d="M18.6688 35.2011H41.0681C41.9521 35.2011 42.6684 34.4848 42.6684 33.6008C42.6684 32.7175 41.9521 32.0012 41.0681 32.0012H18.6688C17.7847 32.0012 17.0684 32.7175 17.0684 33.6008C17.0684 34.4848 17.7847 35.2011 18.6688 35.2011Z" fill="#DD1851"/>
    <path d="M36.2679 46.4004H18.6688C17.7847 46.4004 17.0684 47.1167 17.0684 48.0007C17.0684 48.884 17.7847 49.6003 18.6688 49.6003H36.2679C37.1519 49.6003 37.8682 48.884 37.8682 48.0007C37.8682 47.1167 37.1519 46.4004 36.2679 46.4004Z" fill="#DD1851"/>
    <path d="M33.068 60.8003H18.6688C17.7847 60.8003 17.0684 61.5166 17.0684 62.4007C17.0684 63.2839 17.7847 64.0002 18.6688 64.0002H33.068C33.952 64.0002 34.6683 63.2839 34.6683 62.4007C34.6683 61.5166 33.952 60.8003 33.068 60.8003Z" fill="#DD1851"/>
    <path d="M33.068 75.2003H18.6688C17.7847 75.2003 17.0684 75.9166 17.0684 76.8006C17.0684 77.6839 17.7847 78.4002 18.6688 78.4002H33.068C33.952 78.4002 34.6683 77.6839 34.6683 76.8006C34.6683 75.9166 33.952 75.2003 33.068 75.2003Z" fill="#DD1851"/>
</svg>
