<svg width="80" height="96" viewBox="0 0 80 96" fill="none" xmlns="http://www.w3.org/2000/svg">
    <path fill-rule="evenodd" clip-rule="evenodd" d="M29.7146 46.6218L21.3594 40.5527C20.5514 39.9645 20.0735 39.0253 20.0741 38.0259C20.0749 36.3008 21.474 34.9033 23.1991 34.9041H33.5287L36.7233 25.0809C37.0331 24.1382 37.7725 23.3988 38.7152 23.089C40.3539 22.5504 42.1189 23.442 42.6576 25.0806L42.6577 25.0809L45.8607 34.9041H56.1817C57.18 34.9045 58.1178 35.3821 58.7054 36.1893C59.7206 37.5838 59.4129 39.5375 58.0183 40.5526L49.663 46.6218L52.8544 56.4473L52.8551 56.4494C53.2883 57.7348 52.828 59.1523 51.7224 59.938L51.7207 59.9392L51.719 59.9405C50.6295 60.7499 49.1387 60.7499 48.0493 59.9405L39.6905 53.87L31.3301 59.9376C30.5209 60.5256 29.4792 60.6907 28.528 60.3815C26.8877 59.8484 25.9899 58.0862 26.5232 56.4457L29.7146 46.6218ZM32.2957 44.8848C32.8077 45.257 33.0218 45.9165 32.8261 46.5185L29.1166 57.9398L38.8329 50.8817C39.3448 50.51 40.0378 50.51 40.5498 50.8817L50.2661 57.9399L46.5548 46.5183C46.3584 45.9159 46.5727 45.2556 47.0852 44.8831L56.7999 37.8267L44.7915 37.8249C44.1584 37.8249 43.5974 37.4172 43.4018 36.8152L39.6905 25.3955L35.9792 36.8168C35.7835 37.4189 35.2226 37.8266 34.5895 37.8266H22.581L32.2957 44.8848Z" fill="#69A042"/>
    <path fill-rule="evenodd" clip-rule="evenodd" d="M9.97356 43.0137C9.97356 26.6016 23.2782 13.2969 39.6902 13.2968C56.0947 13.316 69.3884 26.6095 69.4074 43.0139C69.4073 59.426 56.1026 72.7306 39.6905 72.7306C23.2783 72.7306 9.97356 59.4259 9.97356 43.0137ZM12.8961 43.0137C12.8961 57.8117 24.8924 69.8081 39.6905 69.8081C54.4813 69.7905 66.4673 57.8045 66.4849 43.0137C66.4849 28.2157 54.4885 16.2193 39.6905 16.2193C24.8924 16.2193 12.8961 28.2157 12.8961 43.0137Z" fill="#69A042"/>
    <path fill-rule="evenodd" clip-rule="evenodd" d="M69.0604 70.3522L68.7792 70.4363L79.0733 83.6706C79.3112 83.9767 79.4177 84.3646 79.3695 84.7493C79.269 85.5501 78.5383 86.1178 77.7375 86.0173L65.6828 84.5117L62.7019 94.9407C62.5509 95.4696 62.1154 95.8689 61.5753 95.9737C61.4835 95.9911 61.3906 96 61.2978 96C60.8458 95.9992 60.4198 95.7893 60.1437 95.4316L60.1432 95.431L49.3913 81.6063L49.2304 81.7629C46.6558 84.2693 43.275 85.7804 39.6905 86.0269C36.106 85.7804 32.7251 84.2693 30.1505 81.7629L29.9897 81.6063L19.2378 95.4359C18.9606 95.7921 18.5343 96.0004 18.0832 96C17.9904 96 17.8975 95.9911 17.8057 95.9737C17.2655 95.8689 16.8301 95.4696 16.679 94.9406L13.6982 84.5101L1.64344 86.0157C1.25864 86.0639 0.87069 85.9574 0.564557 85.7194C-0.0727519 85.224 -0.187639 84.306 0.307725 83.6689L10.6104 70.4345L10.3287 70.3505C7.09574 69.3874 4.30199 67.3229 2.43238 64.5149C1.26964 62.5054 0.948019 60.2664 1.04957 57.9154C1.15065 55.5751 1.66987 53.1399 2.18497 50.7241L2.19473 50.6783C2.82825 48.1711 3.2068 45.6062 3.32496 43.0229L3.32537 43.0137L3.32496 43.0046C3.20743 40.4212 2.82928 37.8564 2.19636 35.349C1.6748 32.92 1.14964 30.4688 1.04874 28.1125C0.947926 25.7582 1.27182 23.5148 2.4372 21.5004C3.64526 19.4131 5.46869 17.9764 7.59781 16.8701C9.72892 15.7628 12.1528 14.9929 14.5567 14.231C16.9591 13.5706 19.286 12.6613 21.4996 11.5175L21.5084 11.513L21.5168 11.5076C23.5256 10.2035 25.391 8.6907 27.0817 6.99436C28.8658 5.34 30.7535 3.59114 32.8335 2.25368C34.9121 0.91708 37.1703 0 39.6905 0C42.2107 0 44.4688 0.91708 46.5473 2.25388C48.6271 3.59154 50.5144 5.34083 52.2976 6.996C53.9889 8.69195 55.8548 10.2042 57.8643 11.5076L57.8725 11.5129L57.8812 11.5175C60.095 12.6635 62.4225 13.5752 64.8259 14.2376C67.2298 14.9995 69.6537 15.7694 71.7848 16.8768C73.9139 17.9831 75.7374 19.4199 76.9455 21.5071C78.1107 23.5181 78.433 25.7589 78.3314 28.112C78.2303 30.4523 77.7111 32.8875 77.196 35.3034L77.1862 35.3491C76.5527 37.8563 76.1742 40.4212 76.056 43.0045L76.0556 43.0137L76.056 43.0229C76.1746 45.604 76.5533 48.1667 77.1863 50.6718C77.7078 53.1007 78.233 55.552 78.3339 57.9082C78.4346 60.2604 78.1114 62.502 76.9485 64.515C75.0814 67.3219 72.2907 69.3871 69.0604 70.3522ZM16.1632 82.5023L18.6969 91.3693L27.7874 79.6822L27.0832 79.0312C25.3919 77.3354 23.5261 75.8232 21.5167 74.5198L21.5084 74.5144L21.4996 74.5099C19.2882 73.3666 16.9637 72.4573 14.5636 71.7965L13.5148 71.4608L4.78891 82.6782L14.5777 81.4545C15.2921 81.3656 15.965 81.8102 16.1632 82.5023ZM29.059 76.8831L29.0617 76.8857L29.0644 76.8883L29.0654 76.8892C30.7725 78.4718 32.4468 80.0241 34.1772 81.1788C35.9101 82.3352 37.7163 83.1049 39.6905 83.1049C41.6647 83.1049 43.4709 82.3352 45.204 81.1788C46.9332 80.025 48.6065 78.4744 50.313 76.8931L50.3181 76.8883L50.3209 76.8857L50.3236 76.883C52.1716 75.0363 54.213 73.3936 56.4124 71.9834C58.8069 70.7306 61.327 69.7343 63.9311 69.0113L63.9346 69.0103L63.9424 69.0078C66.1337 68.3122 68.2818 67.6303 70.1105 66.7259C71.9419 65.8202 73.4739 64.6816 74.4158 63.0597L74.4161 63.0594C75.3135 61.5064 75.5233 59.6609 75.396 57.6642C75.2688 55.6684 74.8026 53.4964 74.3272 51.282L74.3264 51.2786L74.3256 51.2752C73.6446 48.5697 73.2451 45.8014 73.1334 43.0138C73.2457 40.2261 73.6459 37.4577 74.3272 34.7523L74.3281 34.7488L74.3289 34.7453C74.8043 32.5301 75.2704 30.3578 75.3977 28.362C75.525 26.3652 75.3152 24.5201 74.4177 22.9679C73.479 21.3459 71.9468 20.2072 70.1146 19.3015C68.2881 18.3986 66.1424 17.7174 63.9549 17.023L63.9363 17.0171L63.9327 17.0161C61.3283 16.2933 58.8074 15.2971 56.4124 14.044C54.2124 12.6338 52.1706 10.9913 50.3219 9.14434L50.3193 9.14169L50.3165 9.13914L50.3156 9.13824C48.6085 7.55559 46.9342 6.0033 45.2038 4.8486C43.4709 3.6922 41.6647 2.92252 39.6905 2.92252C37.7163 2.92252 35.9101 3.69221 34.177 4.84859C32.4478 6.00238 30.7744 7.55306 29.0679 9.1344L29.06 9.14168L29.0574 9.14436C27.2093 10.9911 25.1679 12.6338 22.9685 14.044C20.574 15.2969 18.0539 16.2931 15.4499 17.0161L15.4464 17.0171L15.4386 17.0196C13.2472 17.7152 11.0991 18.3971 9.27045 19.3015C7.43903 20.2072 5.90704 21.3458 4.96512 22.9677L4.9649 22.968C4.06743 24.521 3.85764 26.3665 3.98494 28.3632C4.11218 30.3591 4.57838 32.531 5.05379 34.7454L5.05453 34.7488L5.05539 34.7522C5.73635 37.4577 6.13586 40.2261 6.24753 43.0137C6.13524 45.8013 5.73511 48.5697 5.05373 51.2751L5.05287 51.2786L5.0521 51.2822C4.5767 53.4974 4.11052 55.6696 3.98328 57.6654C3.85598 59.6622 4.0658 61.5073 4.9633 63.0595C5.90194 64.6815 7.43411 65.8202 9.26633 66.7259C11.0929 67.6289 13.2387 68.31 15.4263 69.0044L15.4412 69.0092L15.4447 69.0103L15.4483 69.0113C18.0527 69.7341 20.5736 70.7304 22.9686 71.9834C25.1686 73.3936 27.2104 75.0361 29.059 76.8831ZM60.6838 91.3689L63.226 82.5023C63.4242 81.8103 64.0971 81.3656 64.8115 81.4545L74.6004 82.6782L65.8727 71.4608L64.824 71.7965C62.4217 72.4568 60.0949 73.3662 57.8814 74.5099L57.8725 74.5144L57.8642 74.5198C55.8554 75.8239 53.99 77.3367 52.2994 79.033L51.5952 79.6839L60.6838 91.3689Z" fill="#69A042"/>
</svg>
