<svg width="96" height="96" viewBox="0 0 96 96" fill="none" xmlns="http://www.w3.org/2000/svg">
    <path d="M15.1195 80.8805C13.4681 79.229 13.0783 76.5396 12.9798 73.0691C12.9643 72.5236 12.9556 71.9526 12.9467 71.3716C12.9292 70.2251 12.9111 69.0394 12.8392 67.9327C12.7293 66.2399 12.4867 64.5088 11.8522 62.9753C11.2017 61.4031 10.147 59.9725 9.02163 58.6664C8.24694 57.7673 7.37967 56.8628 6.5466 55.994C6.1831 55.615 5.82611 55.2427 5.48616 54.8805C4.32876 53.6477 3.31864 52.4836 2.59632 51.3142C1.88023 50.1549 1.5 49.0737 1.5 47.9998C1.5 46.926 1.88023 45.8448 2.59632 44.6855C3.31864 43.5161 4.32877 42.3521 5.48616 41.1193C5.82611 40.7572 6.1831 40.3849 6.5466 40.0058C7.37968 39.137 8.24695 38.2326 9.02165 37.3335C10.147 36.0274 11.2017 34.5969 11.8523 33.0246C12.4867 31.4912 12.7293 29.7601 12.8392 28.0673C12.9111 26.9605 12.9292 25.7749 12.9467 24.6284C12.9556 24.0474 12.9643 23.4764 12.9798 22.9309C13.0783 19.4603 13.4681 16.771 15.1195 15.1195C16.771 13.4681 19.4604 13.0783 22.9309 12.9798C23.4764 12.9643 24.0474 12.9556 24.6284 12.9467C25.7749 12.9292 26.9606 12.9111 28.0673 12.8392C29.7601 12.7293 31.4912 12.4867 33.0247 11.8522C34.5969 11.2017 36.0275 10.147 37.3336 9.02163C38.2327 8.24693 39.1372 7.37965 40.006 6.54657C40.3851 6.18308 40.7574 5.8261 41.1195 5.48616C42.3523 4.32876 43.5164 3.31864 44.6858 2.59632C45.8451 1.88023 46.9263 1.5 48.0002 1.5C49.074 1.5 50.1552 1.88023 51.3145 2.59632C52.4839 3.31864 53.6479 4.32877 54.8807 5.48616C55.2428 5.82611 55.6151 6.1831 55.9942 6.5466C56.863 7.37968 57.7674 8.24695 58.6665 9.02165C59.9726 10.147 61.4031 11.2017 62.9754 11.8523C64.5088 12.4867 66.2399 12.7293 67.9327 12.8392C69.0395 12.9111 70.2251 12.9292 71.3716 12.9467C71.9527 12.9556 72.5236 12.9643 73.0691 12.9798C76.5397 13.0783 79.229 13.4681 80.8805 15.1195C82.5319 16.771 82.9217 19.4604 83.0202 22.9309C83.0357 23.4764 83.0444 24.0474 83.0533 24.6284C83.0708 25.7749 83.0889 26.9606 83.1608 28.0673C83.2707 29.7601 83.5133 31.4912 84.1478 33.0247C84.7983 34.5969 85.853 36.0275 86.9784 37.3336C87.7531 38.2327 88.6203 39.1372 89.4534 40.006C89.8169 40.3851 90.1739 40.7574 90.5138 41.1195C91.6712 42.3523 92.6814 43.5164 93.4037 44.6858C94.1198 45.8451 94.5 46.9263 94.5 48.0002C94.5 49.074 94.1198 50.1552 93.4037 51.3145C92.6814 52.4839 91.6712 53.6479 90.5138 54.8807C90.1739 55.2428 89.8169 55.6151 89.4534 55.9942C88.6203 56.863 87.7531 57.7674 86.9783 58.6665C85.853 59.9726 84.7983 61.4031 84.1477 62.9754C83.5133 64.5088 83.2707 66.2399 83.1608 67.9327C83.0889 69.0395 83.0708 70.2252 83.0533 71.3718C83.0444 71.9527 83.0357 72.5236 83.0202 73.0691C82.9217 76.5397 82.5319 79.229 80.8805 80.8805C79.229 82.5319 76.5396 82.9217 73.0691 83.0202C72.5236 83.0357 71.9526 83.0444 71.3716 83.0533C70.2251 83.0708 69.0394 83.0889 67.9327 83.1608C66.2399 83.2707 64.5088 83.5133 62.9753 84.1478C61.4031 84.7983 59.9725 85.853 58.6664 86.9784C57.7673 87.7531 56.8628 88.6204 55.994 89.4535C55.6149 89.817 55.2426 90.1739 54.8805 90.5138C53.6477 91.6712 52.4836 92.6814 51.3142 93.4037C50.1549 94.1198 49.0737 94.5 47.9998 94.5C46.926 94.5 45.8448 94.1198 44.6855 93.4037C43.5161 92.6814 42.3521 91.6712 41.1193 90.5138C40.7572 90.1739 40.3849 89.8169 40.0058 89.4534C39.137 88.6203 38.2326 87.7531 37.3335 86.9783C36.0274 85.853 34.5969 84.7983 33.0246 84.1477C31.4912 83.5133 29.7601 83.2707 28.0673 83.1608C26.9605 83.0889 25.7748 83.0708 24.6282 83.0533C24.0473 83.0444 23.4764 83.0357 22.9309 83.0202C19.4603 82.9217 16.771 82.5319 15.1195 80.8805Z" stroke="#69A042" stroke-width="3" stroke-linecap="round" stroke-linejoin="round"/>
    <path d="M23.6048 72.3952C22.4844 71.2747 22.1839 69.4083 22.1097 66.7912C22.0984 66.3927 22.0919 65.9701 22.0852 65.5371C22.072 64.6713 22.0581 63.764 22.0036 62.9252C21.9203 61.6418 21.735 60.295 21.2357 59.0881C20.7252 57.8544 19.9041 56.746 19.0503 55.755C18.4625 55.0729 17.8001 54.382 17.1721 53.7271C16.9014 53.4447 16.6371 53.1691 16.388 52.9037C15.5227 51.982 14.7871 51.1317 14.2663 50.2886C13.7517 49.4555 13.5 48.713 13.5 47.9999C13.5 47.2867 13.7517 46.5443 14.2663 45.7112C14.7871 44.8681 15.5227 44.0178 16.388 43.0961C16.6371 42.8308 16.9014 42.5551 17.1721 42.2728C17.8001 41.6179 18.4626 40.9271 19.0503 40.2449C19.9041 39.254 20.7253 38.1455 21.2357 36.9118C21.7351 35.705 21.9203 34.3582 22.0036 33.0747C22.0581 32.236 22.072 31.3286 22.0853 30.4628C22.0919 30.0299 22.0984 29.6073 22.1097 29.2088C22.184 26.5917 22.4844 24.7253 23.6048 23.6048C24.7253 22.4844 26.5917 22.1839 29.2088 22.1097C29.6073 22.0984 30.0299 22.0919 30.4629 22.0852C31.3287 22.072 32.236 22.0581 33.0748 22.0036C34.3582 21.9203 35.705 21.735 36.9119 21.2357C38.1456 20.7252 39.254 19.9041 40.245 19.0503C40.9271 18.4625 41.618 17.8001 42.2729 17.1721C42.5553 16.9014 42.8309 16.6371 43.0963 16.388C44.018 15.5227 44.8683 14.7871 45.7114 14.2663C46.5445 13.7517 47.287 13.5 48.0001 13.5C48.7133 13.5 49.4557 13.7517 50.2888 14.2663C51.1319 14.7871 51.9822 15.5227 52.9039 16.388C53.1692 16.6371 53.4448 16.9014 53.7272 17.1721C54.382 17.8001 55.0729 18.4626 55.7551 19.0503C56.746 19.9041 57.8545 20.7253 59.0882 21.2357C60.295 21.7351 61.6418 21.9203 62.9253 22.0036C63.7641 22.0581 64.6714 22.072 65.5372 22.0853C65.9701 22.0919 66.3927 22.0984 66.7912 22.1097C69.4083 22.184 71.2747 22.4844 72.3952 23.6048C73.5156 24.7253 73.8161 26.5917 73.8903 29.2088C73.9016 29.6073 73.9081 30.0299 73.9148 30.4628C73.928 31.3287 73.9419 32.236 73.9964 33.0748C74.0797 34.3582 74.265 35.705 74.7643 36.9119C75.2748 38.1456 76.0959 39.254 76.9497 40.245C77.5374 40.9271 78.1999 41.618 78.8278 42.2729C79.0985 42.5552 79.3629 42.8309 79.612 43.0963C80.4773 44.018 81.2129 44.8683 81.7337 45.7114C82.2483 46.5445 82.5 47.287 82.5 48.0001C82.5 48.7133 82.2483 49.4557 81.7337 50.2888C81.2129 51.1319 80.4773 51.9822 79.612 52.9039C79.3628 53.1692 79.0985 53.4449 78.8278 53.7272C78.1999 54.3821 77.5374 55.073 76.9497 55.7551C76.0959 56.746 75.2747 57.8545 74.7643 59.0882C74.2649 60.295 74.0797 61.6418 73.9964 62.9253C73.9419 63.7641 73.928 64.6714 73.9147 65.5372C73.9081 65.9702 73.9016 66.3927 73.8903 66.7912C73.816 69.4083 73.5156 71.2747 72.3952 72.3952C71.2747 73.5156 69.4083 73.8161 66.7912 73.8903C66.3927 73.9016 65.9701 73.9081 65.5372 73.9148C64.6713 73.928 63.764 73.9419 62.9252 73.9964C61.6418 74.0797 60.295 74.265 59.0881 74.7643C57.8544 75.2748 56.746 76.0959 55.755 76.9497C55.0729 77.5374 54.382 78.1999 53.7271 78.8278C53.4448 79.0986 53.1691 79.3629 52.9037 79.612C51.982 80.4773 51.1317 81.2129 50.2886 81.7337C49.4555 82.2483 48.713 82.5 47.9999 82.5C47.2867 82.5 46.5443 82.2483 45.7112 81.7337C44.8681 81.2129 44.0178 80.4773 43.0961 79.612C42.8308 79.3629 42.5551 79.0986 42.2728 78.8278C41.6179 78.1999 40.927 77.5374 40.2449 76.9497C39.254 76.0959 38.1455 75.2747 36.9118 74.7643C35.705 74.2649 34.3582 74.0797 33.0747 73.9964C32.2359 73.9419 31.3286 73.928 30.4628 73.9147C30.0298 73.9081 29.6073 73.9016 29.2088 73.8903C26.5917 73.816 24.7253 73.5156 23.6048 72.3952Z" stroke="#69A042" stroke-width="3" stroke-linecap="round" stroke-linejoin="round"/>
    <path d="M64 39L42.6665 60L32 49.5" stroke="#69A042" stroke-width="3" stroke-linecap="round" stroke-linejoin="round"/>
</svg>
