<svg width="91" height="90" viewBox="0 0 91 90" fill="none" xmlns="http://www.w3.org/2000/svg">
    <path d="M33.3904 58.3183V44.2697C33.3904 41.4678 31.1111 39.1885 28.3093 39.1885C27.5268 39.1885 26.7936 39.3816 26.1316 39.6981V31.2039C26.1316 28.402 23.8524 26.1227 21.0505 26.1227C20.268 26.1227 19.5348 26.3158 18.8728 26.6323V22.4933C18.8728 19.6914 16.5936 17.4122 13.7917 17.4122C11.4326 17.4122 9.45965 19.0381 8.89201 21.2216C7.99482 20.6554 6.9423 20.3157 5.80703 20.3157C2.60445 20.3157 0 22.9201 0 26.1227V50.8026C0 51.045 0.0609738 51.2846 0.177114 51.498L8.88766 67.4673C8.95444 67.5878 9.03864 67.701 9.13591 67.7983L20.5017 79.1641C21.3118 79.9742 21.7764 81.0964 21.7764 82.2433V88.5482C21.7764 89.3496 22.4267 90 23.2281 90H40.6492C41.4506 90 42.1009 89.3496 42.1009 88.5482V70.5131C42.1009 68.6679 41.407 66.9084 40.1483 65.5597L33.3904 58.3183ZM28.3093 42.092C29.5099 42.092 30.4869 43.0691 30.4869 44.2697V55.2072L26.1316 50.5413V44.2697C26.1316 43.0691 27.1087 42.092 28.3093 42.092ZM21.0505 29.0262C22.2511 29.0262 23.2281 30.0033 23.2281 31.2039V47.4301L22.2467 46.3791C21.4265 45.5008 20.2665 44.9955 19.063 44.9955H18.8728V31.2039C18.8728 30.0033 19.8499 29.0262 21.0505 29.0262ZM11.6141 22.4933C11.6141 21.2927 12.5911 20.3157 13.7917 20.3157C14.9923 20.3157 15.9693 21.2927 15.9693 22.4933V46.125C15.3247 46.7057 14.8442 47.4679 14.6366 48.3404L11.6141 44.4932V22.4933ZM39.1974 87.0965H24.6799V82.2433C24.6799 80.3052 23.9249 78.4818 22.5545 77.1113L11.3368 65.8936L2.90351 50.4324V26.1227C2.90351 24.5214 4.20574 23.2192 5.80703 23.2192C7.40831 23.2192 8.71054 24.5214 8.71054 26.1227V44.9955C8.71054 45.3207 8.81942 45.6358 9.02122 45.8927L24.9905 66.2173L27.2727 64.4244L17.4211 51.8841V49.3508C17.4211 48.5509 18.0729 47.8991 18.8728 47.8991H19.063C19.4637 47.8991 19.8499 48.0675 20.1243 48.3593L38.0273 67.5399C38.7808 68.35 39.1974 69.4054 39.1974 70.5131V87.0965Z" fill="#69A042"/>
    <path d="M84.2019 20.3157C83.0666 20.3157 82.0141 20.6554 81.1169 21.2216C80.5493 19.0381 78.5763 17.4122 76.2172 17.4122C73.4153 17.4122 71.1361 19.6914 71.1361 22.4933V26.6323C70.4741 26.3158 69.7409 26.1227 68.9584 26.1227C66.1566 26.1227 63.8773 28.402 63.8773 31.2039V39.6981C63.2153 39.3816 62.4822 39.1885 61.6997 39.1885C58.8978 39.1885 56.6185 41.4678 56.6185 44.2697V58.3183L49.8606 65.5597C48.6019 66.9084 47.908 68.6679 47.908 70.5131V88.5482C47.908 89.3496 48.5584 90 49.3597 90H66.7808C67.5822 90 68.2326 89.3496 68.2326 88.5482V82.2433C68.2326 81.0964 68.6971 79.9756 69.5072 79.1641L80.873 67.7983C80.9703 67.701 81.0545 67.5878 81.1213 67.4673L89.8318 51.498C89.9479 51.2846 90.0089 51.045 90.0089 50.8026V26.1227C90.0089 22.9201 87.4045 20.3157 84.2019 20.3157ZM74.0396 22.4933C74.0396 21.2927 75.0166 20.3157 76.2172 20.3157C77.4178 20.3157 78.3949 21.2927 78.3949 22.4933V44.4932L75.3723 48.3389C75.1647 47.4664 74.6842 46.7057 74.0396 46.1236V22.4933ZM66.7808 31.2039C66.7808 30.0033 67.7578 29.0262 68.9584 29.0262C70.159 29.0262 71.1361 30.0033 71.1361 31.2039V44.9955H70.9459C69.7424 44.9955 68.5824 45.5008 67.7622 46.3791L66.7808 47.4316V31.2039ZM59.522 44.2697C59.522 43.0691 60.4991 42.092 61.6997 42.092C62.9003 42.092 63.8773 43.0691 63.8773 44.2697V50.5413L59.522 55.2072V44.2697ZM87.1054 50.4324L78.6721 65.8921L67.4544 77.1098C66.084 78.4818 65.3291 80.3037 65.3291 82.2433V87.0965H50.8115V70.5131C50.8115 69.4054 51.2281 68.35 51.9831 67.5413L69.8861 48.3607C70.159 48.0675 70.5452 47.8991 70.9459 47.8991H71.1361C71.936 47.8991 72.5878 48.5509 72.5878 49.3508V51.8841L62.7362 64.423L65.0184 66.2159L80.9877 45.8913C81.1895 45.6358 81.2984 45.3207 81.2984 44.9955V26.1227C81.2984 24.5214 82.6006 23.2192 84.2019 23.2192C85.8032 23.2192 87.1054 24.5214 87.1054 26.1227V50.4324Z" fill="#69A042"/>
    <path d="M66.7547 11.9507C66.5108 8.03382 64.5466 4.5046 61.3687 2.26744C56.7303 -0.996109 50.4645 -0.711565 46.131 2.95848L45.0045 3.91373L43.8764 2.95848C39.5429 -0.711565 33.2786 -0.996109 28.6388 2.26744C25.4609 4.5046 23.4967 8.03382 23.2528 11.9507C23.0074 15.8791 24.5231 19.6377 27.4121 22.2639L44.0274 37.3753C44.3047 37.6264 44.6546 37.7527 45.0045 37.7527C45.3543 37.7527 45.7042 37.6264 45.9815 37.3753L62.5968 22.2639C65.4844 19.6377 67 15.8791 66.7547 11.9507ZM45.0045 34.3411L29.3661 20.1182C27.1333 18.0872 25.9618 15.1765 26.1519 12.1336C26.3407 9.10086 27.8578 6.3701 30.3112 4.64397C31.9648 3.47966 33.8869 2.90476 35.8061 2.90476C38.0157 2.90476 40.2209 3.66693 41.9993 5.17531L44.0652 6.92613C44.6067 7.38343 45.4008 7.38343 45.9423 6.92613L48.0096 5.17386C51.3327 2.3589 56.1409 2.13823 59.6977 4.64251C62.1512 6.36865 63.6682 9.09941 63.857 12.1321C64.0471 15.1765 62.8756 18.0872 60.6428 20.1168L45.0045 34.3411Z" fill="#69A042"/>
</svg>
