<svg width="254" height="52" xmlns="http://www.w3.org/2000/svg"><g fill="#D29B7A" fill-rule="evenodd"><path d="M70.41 24.828l.44.041v.76c-.463 0-.919 0-1.376-.02-.478-.02-.98-.04-1.458-.04h-1.594c-.478 0-.974.02-1.453.04-.461.02-.918.02-1.38.02v-.76l.44-.04c1.656-.16 1.639-.72 1.639-1.86v-8.082c0-1.14.017-1.7-1.64-1.86l-.438-.04v-.76c.461 0 .918 0 1.38.02.478.02.974.04 1.452.04h10.526c.48 0 .974-.02 1.454-.04.456-.02.917-.02 1.374-.02v.76l-.44.04c-1.65.16-1.633.72-1.633 1.86v8.081c0 1.14-.017 1.7 1.633 1.86l.44.041v.76c-.457 0-.918 0-1.374-.02-.48-.02-.975-.04-1.454-.04h-1.599c-.473 0-.974.02-1.453.04-.456.02-.919.02-1.374.02v-.76l.44-.04c1.655-.16 1.632-.72 1.632-1.86v-8.562c0-1.24-.456-1.12-1.098-1.12H69.87c-.636 0-1.093-.12-1.093 1.12v8.561c0 1.14-.023 1.7 1.634 1.86zm15.662-6.56h.501c1.256 0 2.293-.76 2.27-2.24h.777l-.062 2.7.062 2.7h-.777c.023-1.48-1.014-2.24-2.27-2.24h-.501v2.64c0 2.48.738 2.86 2.45 2.86 1.059 0 3.312-.24 3.548-2.96h.777c-.078.68-.158 1.7-.118 2.66l.04 1.24-9.045-.06c-1.037 0-.062.04-2.834.06v-.759l.44-.04c1.655-.16 1.633-.72 1.633-1.86v-8.082c0-1.14.022-1.7-1.633-1.86l-.44-.04v-.76c2.75.02 1.854.06 2.834.06l8.211-.06c.056 1.82.078 2.5.158 3.54h-.856c-.282-2.48-2.473-2.56-3.83-2.56h-.44c-.912 0-.895.06-.895 1.04v4.02zm13.275.259c.197.02.4.041.597.041 1.137 0 2.911-.4 2.911-2.76 0-.8-.18-2.662-2.652-2.662-.755 0-.856.08-.856.721v4.66zm0 4.441c0 .94-.203 1.68 1.83 1.86l.44.041v.76c-.496 0-.975 0-1.476-.02-.518-.02-1.037-.04-1.555-.04h-1.593c-.48 0-.975.02-1.454.04-.456.02-.918.02-1.374.02v-.76l.44-.04c1.65-.16 1.633-.72 1.633-1.86v-8.082c0-1.14.017-1.7-1.633-1.86l-.44-.04v-.76c1.853.02 2.568.08 3.368.06l3.627-.06c3.926-.06 5.063 1.9 5.063 3.48 0 1.08-.462 3.76-5.643 3.76h-1.233v3.501zm21.142.161l.045 2.38h-.879l-.4-1.16c-1.396 1.2-2.95 1.5-4.263 1.5-4.089 0-7.017-2.66-7.017-6.822 0-4.1 3.109-7.02 7.152-7.02 1.02 0 2.377.16 3.83 1.26l.299-1.16h.878l.18 4.26h-.9a4.815 4.815 0 0 0-.795-1.78c-.856-1.22-1.954-1.6-3.03-1.6-1.757 0-4.066 1.36-4.066 5.94 0 5.082 2.872 5.841 4.342 5.841 2.394 0 3.531-2.08 3.79-3.82h.879l-.045 2.18zm9.326-10.202c-1.295 0-4.004.66-4.004 5.86 0 5.361 2.59 6.142 4.004 6.142 2.118 0 4.09-1.26 4.09-6.041 0-5.321-2.732-5.961-4.09-5.961zm-.118 12.922c-3.925 0-7.434-2.78-7.434-6.941 0-4.101 3.368-6.902 7.637-6.902 4.759 0 7.552 3.321 7.552 7.042 0 4.32-3.807 6.8-7.755 6.8zm9.208-13.622c.457 0 .918 0 1.375.02.478.02.974.04 1.453.04h1.593c.48 0 .98-.02 1.46-.04.455-.02.917-.02 1.373-.02v.76l-.439.04c-1.656.16-1.633.72-1.633 1.86v3.42h5.98v-3.42c0-1.14.018-1.7-1.632-1.86l-.44-.04v-.76c.456 0 .913 0 1.374.02.48.02.975.04 1.453.04h1.594c.479 0 .98-.02 1.459-.04.456-.02.912-.02 1.374-.02v.76l-.44.04c-1.655.16-1.632.72-1.632 1.86v8.081c0 1.14-.023 1.7 1.633 1.86l.44.041v.76c-.463 0-.919 0-1.375-.02-.479-.02-.98-.04-1.459-.04h-1.594c-.478 0-.974.02-1.453.04-.461.02-.918.02-1.374.02v-.76l.44-.04c1.65-.16 1.633-.72 1.633-1.86v-3.661h-5.981v3.66c0 1.14-.023 1.7 1.633 1.86l.44.041v.76c-.457 0-.919 0-1.375-.02-.479-.02-.98-.04-1.459-.04h-1.593c-.48 0-.975.02-1.453.04-.457.02-.918.02-1.375.02v-.76l.44-.04c1.65-.16 1.633-.72 1.633-1.86v-8.082c0-1.14.017-1.7-1.633-1.86l-.44-.04v-.76zm24.471 8.301l-1.813-4.74-1.91 4.74h3.723zm-4.303 1.44c-.236.6-.518 1.12-.518 1.7 0 .9.518 1 1.194 1.12l.479.081v.76l-2.81-.06a19.94 19.94 0 0 0-2.05.06v-.76c1.61-.3 2.01-1.4 2.607-2.84l4.168-10.023h.974l4.325 10.823c.423 1.06.738 1.98 2.253 2.04v.76c-.636-.02-1.695-.06-2.348-.06h-2.394c-.597 0-1.515.04-2.073.06v-.76l.519-.06c.439-.06 1.154-.08 1.154-.78 0-.34-.056-.8-.557-1.94l-.26-.6h-4.466l-.197.48z"/><path d="M182.271 22.968c0 1.14-.017 1.7 1.633 1.86l.44.041v.76c-.456 0-.918 0-1.374-.02-.48-.02-.975-.04-1.453-.04h-1.6c-.473 0-.974.02-1.453.04-.456.02-.918.02-1.374.02v-.76l.44-.04c1.655-.16 1.632-.72 1.632-1.86v-9.202c0-.54-.22-.56-.495-.56h-1.836c-.676 0-.738.4-.76.6l-.096 1.8c-.203 3.46-.918 7.281-2.794 9.161-.895.9-1.813 1.08-2.427 1.08-1.2 0-1.656-.8-1.656-1.4 0-.6.456-1.2 1.273-1.2.501 0 .777.24.94.36.198.14.417.32.637.32.14 0 .597-.04 1.216-1.16.637-1.14 1.256-2.54 1.532-5.98.22-2.72-.22-3.581-1.813-3.76l-.338-.041v-.76c2.315.04 2.81.06 3.25.06h5.722c.478 0 .974-.02 1.453-.04.456-.02.918-.02 1.374-.02v.76l-.44.04c-1.65.16-1.633.72-1.633 1.86v8.081zm8.212.021c0 .42.056 1.64 1.436 1.64 1.013 0 2.466-.5 2.466-2.921 0-.72-.118-1.72-.856-2.4-.62-.56-1.216-.58-2.01-.58-.338 0-.699 0-1.036.02v4.24zm-5.024 1.88l.281-.02c1.172-.08 1.634-.32 1.634-1.86v-8.122c0-1.54-.462-1.78-1.634-1.86l-.281-.02v-.76c.636.02 1.734.06 2.41.06h2.112c.682 0 1.774-.04 2.416-.06v.76l-.281.02c-1.177.08-1.633.32-1.633 1.86v2.96c.456-.02.895-.04 1.351-.04 1.138 0 2.512 0 3.729.56 1.914.88 2.292 2.441 2.292 3.461 0 3.36-3.149 3.82-5.458 3.82-.996 0-2.016-.06-3.469-.06-1.138 0-2.331.02-3.47.06v-.759zm13.753-12.642c.456 0 .912 0 1.374.02.479.02.975.04 1.453.04h1.594c.479 0 .98-.02 1.459-.04.456-.02.912-.02 1.374-.02v.76l-.44.04c-1.655.16-1.633.72-1.633 1.86v3.42h5.976v-3.42c0-1.14.022-1.7-1.633-1.86l-.44-.04v-.76c.462 0 .918 0 1.38.02.479.02.974.04 1.453.04h1.594c.479 0 .98-.02 1.453-.04.462-.02.918-.02 1.38-.02v.76l-.44.04c-1.655.16-1.633.72-1.633 1.86v8.081c0 1.14-.022 1.7 1.634 1.86l.439.041v.76c-.462 0-.918 0-1.38-.02-.473-.02-.974-.04-1.453-.04h-1.594c-.479 0-.974.02-1.453.04-.462.02-.918.02-1.38.02v-.76l.44-.04c1.655-.16 1.633-.72 1.633-1.86v-3.661h-5.976v3.66c0 1.14-.022 1.7 1.634 1.86l.439.041v.76c-.462 0-.918 0-1.374-.02-.479-.02-.98-.04-1.459-.04h-1.594c-.478 0-.974.02-1.453.04-.462.02-.918.02-1.374.02v-.76l.434-.04c1.655-.16 1.639-.72 1.639-1.86v-8.082c0-1.14.016-1.7-1.64-1.86l-.433-.04v-.76zm29.99 12.642l.282-.02c1.177-.08 1.633-.32 1.633-1.86v-8.122c0-1.54-.456-1.78-1.633-1.86l-.282-.02v-.76c.642.02 1.735.06 2.416.06h2.112c.676 0 1.774-.04 2.41-.06v.76l-.281.02c-1.171.08-1.633.32-1.633 1.86v8.122c0 1.54.462 1.78 1.633 1.86l.282.02v.76c-.519-.02-1.791-.06-2.41-.06h-2.113c-.62 0-1.892.04-2.416.06v-.76zm-7.513-1.88c0 .74.18 1.64 1.538 1.64.715 0 2.37-.36 2.37-2.921 0-2.92-2.072-3-2.691-3-.4 0-.817 0-1.217.04v4.24zm-5.024 1.88l.282-.02c1.177-.08 1.633-.32 1.633-1.86v-8.122c0-1.54-.456-1.78-1.633-1.86l-.282-.02v-.76c.642.02 1.735.06 2.416.06h2.112c.676 0 1.775-.04 2.41-.06v.76l-.28.02c-1.172.08-1.634.32-1.634 1.86v2.96c.44-.02.879-.04 1.318-.04 1.87 0 6.06.2 6.06 4.021 0 3.42-3.21 3.82-5.165 3.82-1.115 0-2.112-.06-3.767-.06-1.132 0-2.332.02-3.47.06v-.759zM241.8 9.186c0-.7.44-1.32 1.178-1.32.614 0 1.115.4 1.115.92 0 .14-.062.3-.14.42-.102.14-.26.26-.26.42 0 .38.698.94 1.915.94 1.21 0 1.91-.56 1.91-.94 0-.16-.159-.28-.26-.42a.815.815 0 0 1-.135-.42c0-.52.495-.92 1.115-.92.738 0 1.177.62 1.177 1.32 0 .98-1.295 2.16-3.807 2.16s-3.807-1.18-3.807-2.16zm-4.544 3.04c.456 0 .918 0 1.374.02.479.02.974.04 1.453.04h1.594c.478 0 .98-.02 1.458-.04.457-.02.918-.02 1.375-.02v.761l-.44.04c-1.655.16-1.633.72-1.633 1.86v6.641l6.336-6.64v-.16c0-1.561-.653-1.621-1.633-1.7l-.44-.041v-.76c.462 0 .918 0 1.38.02.473.02.975.04 1.453.04h1.594c.479 0 .974-.02 1.453-.04.462-.02.918-.02 1.374-.02v.76l-.433.04c-1.656.16-1.64.72-1.64 1.86v8.081c0 1.14-.016 1.7 1.64 1.86l.433.041v.76c-.456 0-.912 0-1.374-.02a35.23 35.23 0 0 0-1.453-.04h-1.594c-.478 0-.98.02-1.453.04-.462.02-.918.02-1.38.02v-.76l.44-.04c1.656-.16 1.633-.72 1.633-1.86v-6.622l-6.336 6.621v.24c0 1.46.659 1.54 1.633 1.62l.44.041v.76c-.457 0-.918 0-1.375-.02-.478-.02-.98-.04-1.458-.04h-1.594c-.479 0-.974.02-1.453.04-.456.02-.918.02-1.374.02v-.76l.439-.04c1.65-.16 1.633-.72 1.633-1.86v-8.082c0-1.14.017-1.7-1.633-1.86l-.44-.04v-.76zM136.49 42.227l.027 1.661h-.613l-.276-.81c-.975.838-2.062 1.047-2.98 1.047-2.85 0-4.894-1.856-4.894-4.76 0-2.862 2.168-4.9 4.996-4.9.71 0 1.655.112 2.67.88l.208-.81h.613l.124 2.973h-.625a3.385 3.385 0 0 0-.557-1.243c-.597-.851-1.363-1.116-2.112-1.116-1.228 0-2.839.95-2.839 4.146 0 3.546 2 4.076 3.03 4.076 1.667 0 2.461-1.451 2.642-2.666h.613l-.028 1.522zm11.578-.112c0 .195.023 1.159 1.15 1.159.337 0 1.56-.084 1.56-1.843 0-.53-.04-2.052-2.084-2.052h-.626v2.736zm.445-3.378c.485 0 1.78-.028 1.78-1.76 0-1.102-.642-1.716-1.628-1.716h-.281c-.332 0-.316.14-.316.39v3.086h.445zm-2.618-2.262c0-.796.016-1.187-1.138-1.298l-.31-.028v-.53c1.464.013 1.003.027 2.033.041.823.014 1.656-.042 2.478-.042.778 0 2.31 0 3.115.88.304.335.512.796.512 1.27 0 .977-.749 1.94-2.421 2.178 1.34.07 3.063.796 3.063 2.471 0 .572-.236 1.144-.625 1.55-1.239 1.312-3.908.977-5.857.963-.755 0-1.768.028-2.298.042v-.53l.31-.029c1.154-.112 1.138-.502 1.138-1.298v-5.64zm18.821 2.359h.35c.878 0 1.6-.53 1.588-1.563h.54l-.039 1.884.04 1.885h-.541c.011-1.033-.71-1.564-1.588-1.564h-.35v1.843c0 1.731.519 1.996 1.713 1.996.737 0 2.309-.167 2.478-2.065h.54a12.289 12.289 0 0 0-.084 1.856l.028.866-6.313-.042c-.721 0-.04.028-1.977.042v-.53l.31-.029c1.154-.112 1.137-.502 1.137-1.298v-5.64c0-.796.017-1.187-1.137-1.298l-.31-.028v-.53c1.92.013 1.295.041 1.977.041l5.733-.042c.04 1.271.05 1.745.107 2.471h-.597c-.192-1.73-1.723-1.787-2.67-1.787h-.31c-.636 0-.625.042-.625.726v2.806zm12.498-1.549c.056-.782.067-1.299.112-2.667l3.126.042h2.698l3.131-.042c.04 1.368.056 1.885.113 2.667h-.57l-.055-.307c-.18-.978-.834-1.62-2.433-1.62-.49 0-.45.14-.45.531v6.226c0 .796-.012 1.186 1.142 1.298l.304.028v.53c-.315 0-.636 0-.957-.013a25.284 25.284 0 0 0-1.014-.028h-1.115c-.332 0-.681.014-1.014.028-.32.014-.642.014-.963.014v-.53l.31-.029c1.155-.112 1.138-.502 1.138-1.298v-6.226c0-.391.045-.53-.445-.53-1.6 0-2.253.641-2.433 1.619l-.056.307h-.57zm-56.517.789c-.653-.019-1.2.5-1.216 1.157 0 .085.005.167.017.247-1.279.702-3.931.832-7.26.74-5.84-.162-24.308-2.562-36.658-2.904-5.965-.166-9.389.094-9.45 2.437a1.747 1.747 0 0 0 1.695 1.8 1.751 1.751 0 0 0 1.796-1.704 1.72 1.72 0 0 0-.186-.813c1.746-.747 6.883-.615 13.128-.272 10.386.57 26.628 2.447 31.376 2.492 2.76.026 7.857.1 7.913-1.957a1.185 1.185 0 0 0-1.155-1.223zm73.705 0c.66-.019 1.2.5 1.222 1.157 0 .085-.005.167-.022.247 1.284.702 3.931.832 7.26.74 5.845-.162 24.307-2.562 36.663-2.904 5.965-.166 9.383.094 9.45 2.437a1.747 1.747 0 0 1-3.492.097 1.786 1.786 0 0 1 .181-.814c-1.74-.747-6.882-.615-13.128-.272-10.385.57-26.628 2.447-31.375 2.492-2.754.026-7.857.1-7.913-1.957a1.192 1.192 0 0 1 1.154-1.223zM44.379 34.34c-.282.96-.394 1.963-.242 2.939a16.43 16.43 0 0 1-1.904.536c-.304.064-.608.118-.918.166a2.963 2.963 0 0 1 .034-1.277c.22.231.53.387.845.35.563-.064.952-.446 1.014-1.008a1.072 1.072 0 0 0-.789-1.143 1.417 1.417 0 0 0-1.413.419c-.66.746-.817 1.844-.648 2.8-.676.084-1.363.164-2.039.277a18.368 18.368 0 0 0 3.582-6.031c.253.182.54.31.85.343.67.07 1.425-.161 1.696-.847.236-.595.157-1.437-.518-1.716-.496-.199-1.093-.145-1.442.252.084-.375.163-.757.225-1.142.394-.171.867-.198 1.262-.032.523.22.884.643 1.03 1.195.372 1.34-.248 2.654-.625 3.92zm-2.698 6.075c-.422.178-.8.483-.996.89-.299.617-.293 1.432.214 1.952.467.482 1.25.643 1.824.252.507-.349.811-1.163.417-1.71a1.356 1.356 0 0 0-.828-.547 1.39 1.39 0 0 1 .699.06c.163.117.31.25.433.401.355.428.54 1.002.546 1.56.012 1.27-.743 2.407-1.683 3.2-1.211 1.024-2.8 1.518-4.365 1.438a3.916 3.916 0 0 0 1.65-.918c1.245-1.147.84-3.854-.94-4.283-.451-.107-.705.07-.48.386.564.794.39 1.833-.129 2.61-1.267 1.889-3.593 1.192-5.266.35-1.081-.547-2.455-1.373-3.897-2 1.312-.31 2.58-.767 3.779-1.357a3.205 3.205 0 0 0 .18 1.86c.502 1.164 1.605 2.118 2.934 1.926 1.138-.162 2.253-1.11 2.236-2.338-.01-.692-.349-1.362-.923-1.743a1.722 1.722 0 0 0-1.825-.037c-.558.332-.896.933-.783 1.582.101.552.552 1.056 1.098 1.2a1.237 1.237 0 0 0 1.42-.616c-.305.799-1.33 1.292-2.13.933-1.103-.493-1.56-1.801-1.221-2.927a2.43 2.43 0 0 1 .169-.456 18.427 18.427 0 0 0 3.305-2.473c1.15-.326 2.338-.438 3.515-.594a3.859 3.859 0 0 0 1.047 1.4zm-30.356 5.298c-.518-.773-.692-1.818-.13-2.611.226-.317-.027-.5-.484-.387-1.774.43-2.185 3.137-.94 4.284a4.03 4.03 0 0 0 1.65.917c-1.56.081-3.148-.412-4.36-1.437-.94-.793-1.7-1.935-1.683-3.2.006-.553.186-1.132.54-1.56.136-.157.282-.285.434-.403.22-.086.468-.102.704-.059a1.35 1.35 0 0 0-.828.546c-.394.548-.095 1.363.417 1.711.575.397 1.352.232 1.825-.252.507-.52.512-1.33.214-1.95-.192-.409-.575-.714-.997-.891.45-.381.811-.859 1.053-1.388 1.093.143 2.185.25 3.244.52a18.641 18.641 0 0 0 3.644 2.69c.04.096.073.2.107.306.338 1.126-.118 2.429-1.222 2.927-.8.36-1.825-.134-2.135-.932.276.509.85.766 1.425.616.547-.144.992-.65 1.093-1.201.113-.649-.231-1.25-.777-1.582a1.725 1.725 0 0 0-1.825.038c-.574.386-.912 1.05-.924 1.743-.017 1.227 1.093 2.172 2.236 2.337 1.33.188 2.433-.761 2.929-1.924a3.14 3.14 0 0 0 .197-1.754c1.177.563 2.416.992 3.694 1.287-1.424.611-2.77 1.42-3.835 1.958-1.673.84-4.004 1.538-5.266-.35zm-4.19-7.898a16.96 16.96 0 0 1-1.904-.536c.153-.976.04-1.979-.242-2.938-.377-1.26-.996-2.58-.625-3.92a1.744 1.744 0 0 1 1.03-1.194c.327-.14.71-.147 1.054-.033.062.343.124.681.203 1.019-.35-.21-.811-.215-1.205-.054-.676.279-.755 1.12-.519 1.716.276.68 1.025.917 1.696.846.247-.026.478-.111.692-.24a18.462 18.462 0 0 0 3.515 5.887c-.603-.097-1.211-.167-1.814-.242.17-.954.011-2.058-.647-2.798a1.432 1.432 0 0 0-1.42-.42 1.076 1.076 0 0 0-.788 1.143c.067.563.456.944 1.014 1.008.315.032.625-.118.844-.348.113.418.124.852.04 1.275-.31-.047-.62-.107-.924-.17zm-1.74-14.82a1.744 1.744 0 0 1-1.03-1.195c-.372-1.34.247-2.66.624-3.92.282-.959.395-1.962.242-2.937a16.841 16.841 0 0 1 1.904-.537c.304-.064.614-.124.924-.17a2.79 2.79 0 0 1-.04 1.275c-.22-.23-.53-.38-.844-.348-.558.063-.947.444-1.014 1.008a1.076 1.076 0 0 0 .788 1.142 1.432 1.432 0 0 0 1.42-.42c.658-.74.816-1.844.647-2.798.603-.075 1.211-.144 1.814-.241a18.465 18.465 0 0 0-3.515 5.887 1.675 1.675 0 0 0-.692-.24c-.67-.071-1.42.165-1.696.846-.236.595-.157 1.437.519 1.716.394.16.856.155 1.205-.055-.08.338-.141.676-.203 1.02a1.507 1.507 0 0 1-1.053-.033zM7.687 11.8c.422-.177.805-.483.997-.89.298-.622.293-1.432-.214-1.952-.473-.483-1.25-.649-1.825-.252-.512.348-.81 1.163-.417 1.711.203.284.502.482.828.546a1.306 1.306 0 0 1-.704-.058 3.046 3.046 0 0 1-.433-.403c-.355-.429-.535-1.008-.541-1.56-.017-1.265.743-2.407 1.684-3.2 1.21-1.025 2.799-1.519 4.359-1.438a4.034 4.034 0 0 0-1.65.918c-1.245 1.147-.834 3.854.94 4.284.457.111.71-.07.485-.387-.563-.794-.389-1.839.13-2.611 1.26-1.887 3.592-1.19 5.265-.35 1.065.538 2.41 1.347 3.835 1.959a17.836 17.836 0 0 0-3.694 1.286 3.139 3.139 0 0 0-.197-1.753c-.496-1.163-1.6-2.112-2.929-1.925-1.143.166-2.253 1.11-2.236 2.337.012.693.35 1.358.924 1.744a1.726 1.726 0 0 0 1.825.037c.546-.332.89-.933.777-1.581-.101-.553-.546-1.057-1.093-1.201a1.245 1.245 0 0 0-1.425.616c.31-.799 1.335-1.292 2.135-.933 1.104.499 1.56 1.802 1.222 2.928-.034.106-.067.21-.107.305a18.644 18.644 0 0 0-3.644 2.69c-1.059.27-2.151.377-3.244.52A3.992 3.992 0 0 0 7.687 11.8zm30.356-5.287c.518.778.693 1.817.13 2.61-.226.317.028.494.478.388 1.78-.43 2.186-3.137.94-4.284a3.91 3.91 0 0 0-1.65-.918c1.566-.08 3.155.414 4.366 1.438.94.793 1.695 1.93 1.683 3.2-.005.559-.191 1.132-.546 1.56-.124.15-.27.285-.433.402a1.39 1.39 0 0 1-.699.06c.327-.064.631-.268.828-.547.394-.547.09-1.361-.417-1.71-.574-.392-1.357-.23-1.824.251-.507.52-.513 1.335-.214 1.953.197.407.574.711.996.889a3.86 3.86 0 0 0-1.047 1.4c-1.177-.156-2.366-.269-3.515-.595a18.48 18.48 0 0 0-3.305-2.473 2.427 2.427 0 0 1-.17-.455c-.337-1.126.119-2.434 1.223-2.928.8-.359 1.824.135 2.129.934a1.238 1.238 0 0 0-1.42-.617c-.546.145-.997.648-1.098 1.2-.113.65.225 1.25.783 1.583a1.722 1.722 0 0 0 1.825-.038c.574-.38.912-1.05.923-1.743.017-1.228-1.098-2.175-2.236-2.338-1.329-.192-2.432.762-2.934 1.926a3.207 3.207 0 0 0-.18 1.86 17.95 17.95 0 0 0-3.779-1.357c1.442-.627 2.816-1.452 3.897-1.999 1.673-.842 3.999-1.54 5.266.348zM7.051 26.111c0-9.773 7.89-17.695 17.633-17.695 9.738 0 17.628 7.922 17.628 17.695 0 9.772-7.89 17.695-17.628 17.695-9.743 0-17.633-7.923-17.633-17.695zm35.182-11.704c.648.14 1.284.321 1.904.536-.152.975-.04 1.978.242 2.938.377 1.265.997 2.579.625 3.92a1.745 1.745 0 0 1-1.03 1.194c-.395.166-.868.14-1.262-.031a18.59 18.59 0 0 0-.225-1.142c.349.396.946.45 1.442.251.675-.279.754-1.12.518-1.716-.27-.686-1.025-.916-1.696-.847-.31.033-.597.161-.85.344a18.368 18.368 0 0 0-3.582-6.032c.676.113 1.363.193 2.039.278-.17.956-.011 2.054.648 2.8.354.396.906.552 1.413.418.501-.129.85-.633.789-1.143-.062-.562-.451-.943-1.014-1.007-.315-.038-.625.118-.845.349a2.96 2.96 0 0 1-.034-1.276c.31.048.614.101.918.166zm6.42 23.842c-.574-.321-1.35-.23-1.694.381-.31.542-.209 1.207.27 1.587a2.06 2.06 0 0 1-.907-.536 4.418 4.418 0 0 1-1.064-1.753c-.012-.027-.017-.054-.028-.081.202-.08.405-.166.608-.258 1.29-.573 3.007-1.35 3.227-2.937.09-.65-.034-1.405-.597-1.824-.518-.385-1.284-.589-1.87-.197-.49.326-.698.916-.54 1.49.157.552.59.96 1.17.965.603.005.57-.928-.027-.933-.08 0-.124-.038-.147-.075a.493.493 0 0 1-.112-.31c0-.114.017-.216.062-.264a.484.484 0 0 1 .382-.144c.885.038.918 1.082.575 1.677-.513.89-1.656 1.357-2.557 1.743a9.775 9.775 0 0 1-.372.155 4.673 4.673 0 0 1-.028-1.05c.062-.724.304-1.42.53-2.107.445-1.357.856-2.954.095-4.285a2.618 2.618 0 0 0-2.77-1.27 18.77 18.77 0 0 0 .123-2.112c0-.711-.045-1.417-.124-2.113a2.618 2.618 0 0 0 2.771-1.27c.76-1.33.35-2.928-.095-4.284-.226-.687-.468-1.384-.53-2.107a4.673 4.673 0 0 1 .028-1.05c.124.047.248.101.372.155.901.386 2.044.852 2.557 1.742.343.595.31 1.64-.575 1.678a.484.484 0 0 1-.382-.145c-.045-.048-.062-.15-.062-.263a.49.49 0 0 1 .112-.31c.023-.038.068-.076.147-.076.597-.005.63-.938.028-.932-.58.005-1.014.412-1.172.965a1.34 1.34 0 0 0 .541 1.49c.586.391 1.352.188 1.87-.198.563-.418.687-1.175.597-1.823-.22-1.587-1.938-2.365-3.227-2.938a14.005 14.005 0 0 0-.608-.257c.01-.028.016-.054.028-.081a4.42 4.42 0 0 1 1.064-1.754c.237-.235.563-.449.907-.536-.479.381-.58 1.046-.27 1.587.343.612 1.12.703 1.695.381.602-.337.844-1.062.636-1.705-.23-.713-.845-1.115-1.56-1.217-1.549-.214-2.675 1.346-3.216 2.579-.056.14-.112.28-.157.423-.89-.3-1.797-.518-2.72-.681.134-.241.298-.466.495-.658.377-.377.867-.617 1.307-.912.163-.07.31-.156.456-.263 1.188-.863 1.413-2.385 1.182-3.753-.36-2.075-1.892-3.897-3.818-4.686-1.386-.568-2.923-.579-4.32-.117.107-.167.197-.333.254-.489.169-.477.101-1.157-.023-1.33-.13-.171-.315-.144-.53.097-.213.241-1.07.268-1.587.29-.519.021-1.786.863-2.107 1.62-.157.363-.433.818-.71 1.223-.078.098-1.96 2.38-4.606 2.266-2.71-.115-2.946-2.15-2.45-3.35 0 0 .349.982 1.442.78 1.424-.264 1.323-2.137-.119-2.34-1.03-.144-1.577.492-1.819 1.099-.248-.607-.794-1.243-1.825-1.098-1.441.202-1.543 2.075-.118 2.34 1.093.201 1.442-.78 1.442-.78.315 1.237.259 3.234-2.45 3.35-2.703.115-4.612-2.276-4.612-2.276-.276-.403-.547-.854-.699-1.215-.326-.756-1.594-1.598-2.112-1.62-.518-.026-1.374-.048-1.588-.29-.214-.24-.4-.267-.53-.095-.123.172-.19.852-.016 1.33.05.149.14.321.248.488-1.397-.462-2.935-.451-4.315.117-1.931.793-3.463 2.611-3.824 4.686-.23 1.368-.017 2.89 1.183 3.753.14.102.293.194.45.263.446.295.941.535 1.313.912.197.192.366.417.495.658-.923.163-1.83.387-2.72.681a6.55 6.55 0 0 0-.157-.423c-.541-1.238-1.668-2.793-3.216-2.579-.716.097-1.33.504-1.56 1.217-.209.643.04 1.368.636 1.705.569.322 1.357.231 1.7-.38.3-.542.204-1.207-.275-1.588.343.087.676.3.907.536a4.42 4.42 0 0 1 1.064 1.754c.011.027.017.053.028.08-.202.08-.405.167-.608.258C2.241 15.211.53 15.983.298 17.57c-.09.648.04 1.405.597 1.823.518.386 1.29.59 1.87.198.49-.327.698-.917.54-1.49-.152-.548-.58-.96-1.171-.965-.603-.006-.569.927.028.932a.18.18 0 0 1 .152.075.532.532 0 0 1 .107.31c0 .114-.011.216-.062.264a.484.484 0 0 1-.383.145c-.884-.038-.923-1.083-.574-1.678.512-.884 1.656-1.356 2.557-1.742a7.35 7.35 0 0 1 .371-.156c.051.348.057.697.029 1.051-.068.723-.305 1.42-.53 2.107-.445 1.356-.856 2.948-.096 4.285a2.626 2.626 0 0 0 2.58 1.297 18.26 18.26 0 0 0 0 4.17 2.625 2.625 0 0 0-2.58 1.297c-.76 1.336-.349 2.928.096 4.285.225.686.462 1.383.53 2.107.028.353.022.703-.029 1.05a7.35 7.35 0 0 1-.371-.155c-.901-.386-2.045-.859-2.557-1.743-.35-.595-.31-1.64.574-1.677a.484.484 0 0 1 .383.144c.05.048.062.15.062.263a.53.53 0 0 1-.107.31.178.178 0 0 1-.152.076c-.597.005-.63.938-.028.933.591-.005 1.02-.418 1.171-.966a1.339 1.339 0 0 0-.54-1.49c-.58-.39-1.352-.187-1.87.198-.558.419-.687 1.175-.597 1.824.23 1.586 1.943 2.359 3.227 2.937.203.092.406.178.608.258-.01.027-.017.054-.028.08a4.418 4.418 0 0 1-1.064 1.754 2.03 2.03 0 0 1-.907.536c.479-.38.574-1.045.276-1.587-.344-.612-1.132-.702-1.7-.38-.598.337-.846 1.061-.637 1.704.23.713.844 1.12 1.56 1.217 1.548.215 2.675-1.34 3.216-2.579.056-.14.112-.284.157-.423.89.294 1.797.519 2.72.681a2.718 2.718 0 0 1-.495.659c-.372.376-.867.616-1.312.912-.158.069-.31.16-.45.262-1.2.863-1.415 2.385-1.184 3.753.36 2.075 1.893 3.893 3.824 4.686 1.38.569 2.918.58 4.315.118a2.336 2.336 0 0 0-.248.488c-.175.477-.107 1.158.017 1.33.13.172.315.144.529-.096.214-.242 1.07-.264 1.588-.29.518-.022 1.786-.863 2.112-1.62.209-.486.62-1.137.986-1.61l.022-.06s.428-.592 1.397-1.227c.772-.475 1.768-.872 2.906-.823 2.709.115 2.765 2.112 2.45 3.35 0 0-.35-.982-1.442-.78-1.425.264-1.323 2.137.118 2.339 1.031.145 1.577-.49 1.825-1.097.242.606.789 1.242 1.82 1.097 1.441-.202 1.542-2.075.118-2.339-1.093-.202-1.442.78-1.442.78-.496-1.2-.26-3.235 2.45-3.35 1.087-.047 2.044.314 2.804.76.462.295.806.584 1.042.813a2.4 2.4 0 0 1 .282.29c.101.118.152.187.152.187.372.478.817 1.163 1.036 1.67.321.757 1.588 1.598 2.107 1.62.518.021 1.374.048 1.588.29.214.24.4.268.53.096.123-.172.19-.853.022-1.33a2.522 2.522 0 0 0-.254-.488c1.397.461 2.934.45 4.32-.118 1.926-.788 3.458-2.611 3.818-4.686.231-1.368.006-2.89-1.182-3.753a2.248 2.248 0 0 0-.456-.262c-.44-.296-.93-.536-1.307-.912a2.89 2.89 0 0 1-.496-.659 18.49 18.49 0 0 0 2.72-.681c.046.144.102.284.158.423.54 1.233 1.667 2.794 3.216 2.579.715-.102 1.33-.504 1.56-1.217.208-.643-.034-1.367-.636-1.705z"/><path d="M24.684 1.305a.652.652 0 0 0 0-1.305.653.653 0 1 0 0 1.305zm0 49.381a.653.653 0 1 0 0 1.306.652.652 0 0 0 0-1.306zm-7.924-18.02c-1.104 0-1.768-.025-3.66.074v-.568l.613-.049c.417-.025 1.059-.124 1.425-.666.299-.42.344-1.11.344-2.22v-9.52c0-1.11-.045-1.801-.344-2.22-.366-.543-1.008-.642-1.425-.666l-.614-.05v-.567c1.645.074 2.41.074 4.619.074h10.07c2.213 0 2.973 0 4.618-.074v.567l-.614.05c-.417.024-1.053.123-1.425.666-.293.419-.344 1.11-.344 2.22v.438c1.217.093 2.732.462 4.37 1.552l.395-1.184h.394l.175 4.958h-.57c-.438-2.97-2.652-4.519-4.764-4.671v8.427c0 1.11.05 1.8.344 2.22.372.542 1.008.641 1.425.666l.614.05v.567c-1.893-.1-2.557-.074-3.661-.074s-1.769-.025-3.661.074l-.186-.568.8-.049c.417-.025 1.059-.124 1.425-.666.298-.42.343-1.11.343-2.22V18.089c0-.543.074-.987-1.08-.987H19.12c-1.155 0-1.081.444-1.081.987v11.148c0 1.11.05 1.8.343 2.22.372.542 1.008.641 1.425.666l.614.05.163.567c-1.892-.1-2.714-.074-3.824-.074z"/><path d="M35.351 36.398h-.313l-.572-1.252C33.454 35.94 31.677 37 28.92 37c-4.873 0-8.163-3.493-8.163-8.407 0-3.877 2.41-6.988 5.864-8.056v1.155c-1.518 1.02-2.816 3.065-2.816 6.925 0 3.156.67 5.06 2.112 6.335.891.772 2.112 1.398 3.625 1.398 2.904 0 4.466-1.783 5.23-4.77l.15-.554h.428v5.372z"/></g></svg>