<svg width="106" height="30" viewBox="0 0 106 30" fill="none" xmlns="http://www.w3.org/2000/svg">
    <path d="M17.4483 7.41113L9.86328 17.7002H17.4483V7.41113Z" fill="#14A5F4"/>
    <path d="M0 29.9998H17.4494V26.6489H0V29.9998Z" fill="#14A5F4"/>
    <path d="M0 0V16.0841L11.7508 0H0Z" fill="#14A5F4"/>
    <path d="M82.0193 0.157586L79.9364 5.99202C81.9407 9.46114 82.2158 13.2062 82.2158 15.0196C82.2158 20.9329 79.6613 27.1615 73.0195 29.8816H83.6307L84.8097 25.5452H92.2768L93.4558 29.8816H105.6L95.0278 0.118164C95.0671 0.157586 82.0193 0.157586 82.0193 0.157586ZM86.4996 18.1734L88.5825 10.6044L90.6654 18.1734C90.6261 18.1734 86.4996 18.1734 86.4996 18.1734Z" fill="#4474C4"/>
    <path d="M64.9627 0.157715H51.1289V0.433668C55.1376 2.64129 56.7096 6.58347 56.7096 10.4074C56.7096 14.2313 55.1376 18.2129 51.1289 20.4205V29.9212H64.9627C76.0061 29.9212 80.8007 23.0224 80.8007 15.0592C80.8007 8.39688 77.6174 0.157715 64.9627 0.157715ZM63.9409 21.2878H62.9976V8.7911H63.9409C67.2421 8.7911 69.5215 10.7622 69.5215 15.0592C69.5215 20.9724 65.3557 21.2878 63.9409 21.2878Z" fill="#4474C4"/>
    <path d="M28.6885 0.157715H43.4261C52.8583 0.157715 55.2556 6.14983 55.2556 10.4074C55.2556 14.7044 52.8583 20.6965 43.4261 20.6965H39.8105V29.9212H28.6885V0.157715ZM39.8498 12.9698H41.1467C43.5048 12.9698 43.9764 11.6295 43.9764 10.4074C43.9764 8.04208 42.1292 7.88439 41.1467 7.88439H39.8498C39.8498 7.92382 39.8498 12.9698 39.8498 12.9698Z" fill="#4474C4"/>
</svg>