<svg width="188" height="30" viewBox="0 0 188 30" fill="none" xmlns="http://www.w3.org/2000/svg">
    <path d="M7.14317 8.11976C7.00514 7.54491 7.03965 6.97006 7.10866 6.64671C7.2812 5.7485 7.86784 4.77844 9.55874 4.77844C11.1461 4.77844 12.0433 5.78443 12.0433 7.32934C12.0433 7.83234 12.0433 9.05389 12.0433 9.05389H18.7379V7.07784C18.7724 0.97006 13.4927 0 9.69677 0C4.93466 0 1.03524 1.65269 0.310573 6.21557C0.103524 7.47305 0.0690162 8.58683 0.379589 9.98802C1.55286 15.7006 11.1116 17.3533 12.4919 20.982C12.768 21.6647 12.6645 22.5269 12.5609 23.0659C12.3539 24 11.7327 24.9701 9.93833 24.9701C8.24743 24.9701 7.2467 23.9641 7.2467 22.4192V19.7246H0V21.8802C0 28.1317 4.72761 30 9.76579 30C14.6314 30 18.5999 28.2754 19.2555 23.6048C19.5661 21.1976 19.3245 19.6168 19.221 19.0419C18.1167 13.1138 7.90235 11.3892 7.14317 8.11976ZM94.5521 8.15569C94.4486 7.61677 94.4831 7.00599 94.5176 6.71856C94.7247 5.82036 95.2768 4.8503 96.9677 4.8503C98.5206 4.8503 99.4178 5.85629 99.4178 7.36527C99.4178 7.86826 99.4178 9.08982 99.4178 9.08982H106.043V7.1497C106.043 1.11377 100.867 0.179641 97.1057 0.179641C92.3781 0.179641 88.5132 1.79641 87.7885 6.32335C87.616 7.54491 87.547 8.65868 87.8576 10.0599C88.9963 15.7006 98.4515 17.3533 99.8319 20.9461C100.073 21.6287 100.004 22.491 99.8664 22.994C99.6593 23.9281 99.0727 24.8623 97.2783 24.8623C95.6219 24.8623 94.5866 23.8563 94.5866 22.3473V19.6527H87.4435V21.7725C87.4435 27.9521 92.1021 29.8204 97.1057 29.8204C101.902 29.8204 105.871 28.0958 106.492 23.497C106.802 21.0898 106.561 19.5449 106.457 18.9701C105.388 13.1497 95.3113 11.4252 94.5521 8.15569ZM155.562 23.4251L149.247 0.898204H139.275V28.5988H145.866L145.486 5.35329L152.284 28.5988H161.843V0.898204H155.217L155.562 23.4251ZM28.7797 0.898204L23.7761 28.8862H31.0228L34.7841 2.98204L38.442 28.8862H45.6542L40.7195 0.898204H28.7797ZM69.3612 0.898204L65.9794 22.7784L62.5976 0.898204H51.6241L51.0374 28.8862H57.7665L57.9391 2.98204L62.5631 28.8862H69.3612L73.9853 2.98204L74.1579 28.8862H80.8869L80.3003 0.898204H69.3612ZM131.821 0.898204H125.023V21.5928C125.023 21.9521 125.023 22.3473 124.954 22.6707C124.816 23.3533 124.264 24.7186 122.366 24.7186C120.502 24.7186 119.95 23.3892 119.812 22.6707C119.743 22.3832 119.743 21.9521 119.743 21.5928V0.898204H112.945V20.9461C112.945 21.4491 112.979 22.5269 113.014 22.7784C113.497 27.988 117.431 29.7126 122.366 29.7126C127.3 29.7126 131.269 28.024 131.752 22.7784C131.786 22.491 131.855 21.4491 131.821 20.9461V0.898204ZM178.476 13.1497V17.2455H181.236V21.3054C181.236 21.6647 181.236 22.0599 181.167 22.3832C181.064 23.1377 180.374 24.4311 178.407 24.4311C176.474 24.4311 175.784 23.1377 175.681 22.3832C175.646 22.0599 175.612 21.6647 175.612 21.3054V8.51497C175.612 8.0479 175.646 7.58084 175.75 7.18563C175.888 6.50299 176.474 5.17365 178.407 5.17365C180.477 5.17365 180.96 6.57485 181.098 7.18563C181.167 7.58084 181.167 8.26347 181.167 8.26347V9.80838H187.931V8.87425C187.931 8.87425 187.965 7.90419 187.896 7.00599C187.379 1.79641 183.203 0.143713 178.441 0.143713C173.679 0.143713 169.607 1.83234 169.021 7.04192C168.952 7.50898 168.883 8.37126 168.883 8.91018V20.6587C168.883 21.1617 168.883 21.5569 168.986 22.491C169.435 27.5928 173.679 29.3892 178.441 29.3892C183.238 29.3892 187.448 27.5928 187.896 22.491C187.965 21.5569 188 21.1617 188 20.6587V13.1497H178.476Z" fill="black"/>
</svg>