<svg width="88" height="90" viewBox="0 0 88 90" fill="none" xmlns="http://www.w3.org/2000/svg">
    <path d="M41.8576 54.6163C42.4497 54.6163 42.931 54.1369 42.931 53.5438V51.3996C42.931 50.8065 42.4505 50.3271 41.8576 50.3271C41.2655 50.3271 40.7842 50.8065 40.7842 51.3996V53.5438C40.785 54.1376 41.2655 54.6163 41.8576 54.6163Z" fill="#466E8C"/>
    <path d="M41.8576 59.9773C42.4497 59.9773 42.931 59.4979 42.931 58.9048V56.7606C42.931 56.1675 42.4505 55.6881 41.8576 55.6881C41.2655 55.6881 40.7842 56.1675 40.7842 56.7606V58.9048C40.785 59.4986 41.2655 59.9773 41.8576 59.9773Z" fill="#466E8C"/>
    <path d="M41.8576 65.3382C42.4497 65.3382 42.931 64.8588 42.931 64.2657V62.1215C42.931 61.5284 42.4505 61.049 41.8576 61.049C41.2655 61.049 40.7842 61.5284 40.7842 62.1215V64.2657C40.785 64.8596 41.2655 65.3382 41.8576 65.3382Z" fill="#466E8C"/>
    <path d="M41.8576 70.6992C42.4497 70.6992 42.931 70.2198 42.931 69.6267V67.4825C42.931 66.8894 42.4505 66.41 41.8576 66.41C41.2655 66.41 40.7842 66.8894 40.7842 67.4825V69.6267C40.785 70.2205 41.2655 70.6992 41.8576 70.6992Z" fill="#466E8C"/>
    <path d="M41.8576 76.0602C42.4497 76.0602 42.931 75.5808 42.931 74.9877V72.8435C42.931 72.2504 42.4505 71.771 41.8576 71.771C41.2655 71.771 40.7842 72.2504 40.7842 72.8435V74.9877C40.785 75.5815 41.2655 76.0602 41.8576 76.0602Z" fill="#466E8C"/>
    <path d="M46.1501 54.6163C46.7437 54.6163 47.2235 54.1369 47.2235 53.5438V51.3996C47.2235 50.8065 46.7437 50.3271 46.1501 50.3271C45.5564 50.3271 45.0766 50.8065 45.0766 51.3996V53.5438C45.0766 54.1376 45.5564 54.6163 46.1501 54.6163Z" fill="#466E8C"/>
    <path d="M46.1501 59.9773C46.7437 59.9773 47.2235 59.4979 47.2235 58.9048V56.7606C47.2235 56.1675 46.7437 55.6881 46.1501 55.6881C45.5564 55.6881 45.0766 56.1675 45.0766 56.7606V58.9048C45.0766 59.4986 45.5564 59.9773 46.1501 59.9773Z" fill="#466E8C"/>
    <path d="M46.1501 65.3382C46.7437 65.3382 47.2235 64.8588 47.2235 64.2657V62.1215C47.2235 61.5284 46.7437 61.049 46.1501 61.049C45.5564 61.049 45.0766 61.5284 45.0766 62.1215V64.2657C45.0766 64.8596 45.5564 65.3382 46.1501 65.3382Z" fill="#466E8C"/>
    <path d="M46.1501 70.6992C46.7437 70.6992 47.2235 70.2198 47.2235 69.6267V67.4825C47.2235 66.8894 46.7437 66.41 46.1501 66.41C45.5564 66.41 45.0766 66.8894 45.0766 67.4825V69.6267C45.0766 70.2205 45.5564 70.6992 46.1501 70.6992Z" fill="#466E8C"/>
    <path d="M46.1501 76.0602C46.7437 76.0602 47.2235 75.5808 47.2235 74.9877V72.8435C47.2235 72.2504 46.7437 71.771 46.1501 71.771C45.5564 71.771 45.0766 72.2504 45.0766 72.8435V74.9877C45.0766 75.5815 45.5564 76.0602 46.1501 76.0602Z" fill="#466E8C"/>
    <path d="M86.9282 62.1217V55.6881C86.9282 55.095 86.4484 54.6156 85.8548 54.6156H83.7087V50.3272C83.7087 49.7341 83.2289 49.2547 82.6353 49.2547H81.5619V47.1105C81.5619 46.5174 81.0821 46.038 80.4885 46.038C79.8949 46.038 79.4151 46.5174 79.4151 47.1105V49.2547H78.3417C77.7481 49.2547 77.2682 49.7341 77.2682 50.3272V54.6156H75.1222C74.5286 54.6156 74.0488 55.095 74.0488 55.6881V62.1217H72.9754C72.3818 62.1217 71.902 62.6011 71.902 63.1942V65.3383H64.3904V62.1216C64.3904 61.5285 63.9106 61.0491 63.317 61.0491H60.0975C59.5039 61.0491 59.0241 61.5285 59.0241 62.1216V65.3383H56.878L56.881 47.1105C56.881 46.5174 56.4012 46.038 55.8076 46.038H53.6616V42.8212C53.6616 42.2296 53.1818 41.7487 52.5882 41.7487C51.9946 41.7487 51.5148 42.2289 51.5148 42.8212V46.038H50.4413L50.4421 33.1719C50.4421 32.5803 49.9623 32.0994 49.3687 32.0994H48.2953V23.5216C48.2953 22.9301 47.8154 22.4491 47.2218 22.4491V20.3049C47.2218 19.7134 46.742 19.2324 46.1484 19.2324H45.075V17.0882C45.6686 17.0882 46.1484 16.6081 46.1484 16.0157C46.1484 15.4242 45.6686 14.9432 45.075 14.9432L45.0765 3.96323C45.703 3.59152 46.1267 2.91466 46.1267 2.13386C46.1267 0.956664 45.1716 0 43.9926 0C42.8129 0 41.8569 0.956569 41.8569 2.13386C41.8569 2.92289 42.2918 3.60498 42.9303 3.9737V14.9447C42.3382 14.9447 41.8569 15.4249 41.8569 16.0172C41.8569 16.6088 42.3375 17.0897 42.9303 17.0897V19.2339H41.8569C41.2648 19.2339 40.7835 19.7141 40.7835 20.3064V22.4506C40.1914 22.4506 39.7101 22.9308 39.7101 23.5231V32.1008H38.6367C38.0446 32.1008 37.5632 32.581 37.5632 33.1733V46.0395H36.4898V42.8227C36.4898 42.2311 36.0093 41.7502 35.4164 41.7502C34.8243 41.7502 34.343 42.2304 34.343 42.8227V46.0395H32.197C31.6049 46.0395 31.1236 46.5189 31.1236 47.112V65.3391H28.9775V62.1223C28.9775 61.5292 28.497 61.0498 27.9041 61.0498H24.6846C24.0925 61.0498 23.6112 61.5292 23.6112 62.1223V65.3391H16.0996V63.1949C16.0996 62.6018 15.6191 62.1224 15.0262 62.1224H13.9528V55.6888C13.9528 55.0957 13.4722 54.6163 12.8794 54.6163H10.7333V50.3279C10.7333 49.7348 10.2528 49.2554 9.65993 49.2554H8.58651V47.1112C8.58651 46.5181 8.10595 46.0387 7.5131 46.0387C6.92101 46.0387 6.43969 46.5181 6.43969 47.1112V49.2554H5.36627C4.77418 49.2554 4.29286 49.7348 4.29286 50.3279V54.6163H2.14683C1.55474 54.6163 1.07342 55.0957 1.07342 55.6888V62.1224C0.481329 62.1224 0 62.6018 0 63.1949V88.9275C0 89.5206 0.480563 90 1.07342 90H86.9221C87.5157 90 87.9955 89.5206 87.9955 88.9275L88 63.193C88 62.5999 87.5202 62.1212 86.9273 62.1212L86.9282 62.1217ZM79.4158 51.3997H81.5619V54.6165H79.4158V51.3997ZM76.1971 56.7607H84.7814V62.1217H76.1963L76.1971 56.7607ZM61.1732 63.1935H62.2466V65.3377H61.1732V63.1935ZM71.9051 67.4826V87.8543H56.8812V67.4826H71.9051ZM54.735 48.1831V87.8543H51.5155V80.3491H52.5889C53.1825 80.3491 53.6623 79.8697 53.6623 79.2766C53.6623 78.6835 53.1825 78.2041 52.5889 78.2041H51.5155V48.1827L54.735 48.1831ZM49.3694 48.1831V78.2046H38.6384V48.1831H49.3694ZM42.9304 34.2444H45.0764V46.039H42.9304V34.2444ZM38.6384 80.3487H40.7844V87.8539H38.6384V80.3487ZM42.9304 80.3487H45.0764V87.8539H42.9304V80.3487ZM47.2225 80.3487H49.3685V87.8539H47.2225V80.3487ZM47.2225 46.0386V34.2441H48.2959V46.0386H47.2225ZM42.9304 21.3781H45.0764V22.4506H42.9304V21.3781ZM41.857 24.5949H46.149V32.1001H41.857V24.5949ZM39.711 34.2443H40.7844V46.0388H39.711V34.2443ZM25.7604 63.1935H26.8338V65.3377H25.7604V63.1935ZM6.44441 51.3997H8.59044V54.6165H6.44441V51.3997ZM3.22489 56.7607H11.8092V62.1217H3.22413L3.22489 56.7607ZM2.15148 64.2659H13.9561V87.8541H2.15148V64.2659ZM16.1021 67.4826H31.126V87.8543H16.1021V67.4826ZM33.2722 48.1831H36.4917V78.2046H35.4183C34.8262 78.2046 34.3449 78.684 34.3449 79.2771C34.3449 79.8701 34.8254 80.3495 35.4183 80.3495H36.4917V87.8547H33.2722V48.1831ZM85.8545 87.8543H74.0499V64.266H85.8545V87.8543Z" fill="#466E8C"/>
    <path d="M77.2702 69.627C77.8638 69.627 78.3436 69.1476 78.3436 68.5545V66.4103C78.3436 65.8172 77.8638 65.3378 77.2702 65.3378C76.6766 65.3378 76.1968 65.8172 76.1968 66.4103V68.5545C76.1975 69.1476 76.6766 69.627 77.2702 69.627Z" fill="#466E8C"/>
    <path d="M77.2702 74.988C77.8638 74.988 78.3436 74.5086 78.3436 73.9155V71.7713C78.3436 71.1782 77.8638 70.6988 77.2702 70.6988C76.6766 70.6988 76.1968 71.1782 76.1968 71.7713V73.9155C76.1975 74.5086 76.6766 74.988 77.2702 74.988Z" fill="#466E8C"/>
    <path d="M77.2702 80.3489C77.8638 80.3489 78.3436 79.8695 78.3436 79.2764V77.1322C78.3436 76.5391 77.8638 76.0597 77.2702 76.0597C76.6766 76.0597 76.1968 76.5391 76.1968 77.1322V79.2764C76.1975 79.8695 76.6766 80.3489 77.2702 80.3489Z" fill="#466E8C"/>
    <path d="M77.2702 85.7099C77.8638 85.7099 78.3436 85.2305 78.3436 84.6374V82.4932C78.3436 81.9001 77.8638 81.4207 77.2702 81.4207C76.6766 81.4207 76.1968 81.9001 76.1968 82.4932V84.6374C76.1975 85.2305 76.6766 85.7099 77.2702 85.7099Z" fill="#466E8C"/>
    <path d="M83.7088 69.627C84.3024 69.627 84.7823 69.1476 84.7823 68.5545V66.4103C84.7823 65.8172 84.3024 65.3378 83.7088 65.3378C83.1152 65.3378 82.6354 65.8172 82.6354 66.4103V68.5545C82.6354 69.1476 83.1152 69.627 83.7088 69.627Z" fill="#466E8C"/>
    <path d="M83.7088 74.988C84.3024 74.988 84.7823 74.5086 84.7823 73.9155V71.7713C84.7823 71.1782 84.3024 70.6988 83.7088 70.6988C83.1152 70.6988 82.6354 71.1782 82.6354 71.7713V73.9155C82.6354 74.5086 83.1152 74.988 83.7088 74.988Z" fill="#466E8C"/>
    <path d="M83.7088 80.3489C84.3024 80.3489 84.7823 79.8695 84.7823 79.2764V77.1322C84.7823 76.5391 84.3024 76.0597 83.7088 76.0597C83.1152 76.0597 82.6354 76.5391 82.6354 77.1322V79.2764C82.6354 79.8695 83.1152 80.3489 83.7088 80.3489Z" fill="#466E8C"/>
    <path d="M83.7088 85.7099C84.3024 85.7099 84.7823 85.2305 84.7823 84.6374V82.4932C84.7823 81.9001 84.3024 81.4207 83.7088 81.4207C83.1152 81.4207 82.6354 81.9001 82.6354 82.4932V84.6374C82.6354 85.2305 83.1152 85.7099 83.7088 85.7099Z" fill="#466E8C"/>
    <path d="M82.0781 59.5867C82.0781 60.6173 81.242 61.4527 80.2105 61.4527C79.1798 61.4527 78.3436 60.6173 78.3436 59.5867C78.3436 58.5561 79.1798 57.7214 80.2105 57.7214C81.242 57.7214 82.0781 58.5561 82.0781 59.5867Z" fill="#466E8C"/>
    <path d="M60.1005 74.988C60.6941 74.988 61.1739 74.5086 61.1739 73.9155V71.7713C61.1739 71.1782 60.6941 70.6988 60.1005 70.6988C59.5069 70.6988 59.0271 71.1782 59.0271 71.7713V73.9155C59.0271 74.5086 59.5069 74.988 60.1005 74.988Z" fill="#466E8C"/>
    <path d="M60.1005 80.3489C60.6941 80.3489 61.1739 79.8695 61.1739 79.2764V77.1322C61.1739 76.5391 60.6941 76.0597 60.1005 76.0597C59.5069 76.0597 59.0271 76.5391 59.0271 77.1322V79.2764C59.0271 79.8695 59.5069 80.3489 60.1005 80.3489Z" fill="#466E8C"/>
    <path d="M60.1005 85.7099C60.6941 85.7099 61.1739 85.2305 61.1739 84.6374V82.4932C61.1739 81.9001 60.6941 81.4207 60.1005 81.4207C59.5069 81.4207 59.0271 81.9001 59.0271 82.4932V84.6374C59.0271 85.2305 59.5069 85.7099 60.1005 85.7099Z" fill="#466E8C"/>
    <path d="M64.3929 74.988C64.9865 74.988 65.4663 74.5086 65.4663 73.9155V71.7713C65.4663 71.1782 64.9865 70.6988 64.3929 70.6988C63.7993 70.6988 63.3195 71.1782 63.3195 71.7713V73.9155C63.3195 74.5086 63.7993 74.988 64.3929 74.988Z" fill="#466E8C"/>
    <path d="M64.3929 80.3489C64.9865 80.3489 65.4663 79.8695 65.4663 79.2764V77.1322C65.4663 76.5391 64.9865 76.0597 64.3929 76.0597C63.7993 76.0597 63.3195 76.5391 63.3195 77.1322V79.2764C63.3195 79.8695 63.7993 80.3489 64.3929 80.3489Z" fill="#466E8C"/>
    <path d="M64.3929 85.7099C64.9865 85.7099 65.4663 85.2305 65.4663 84.6374V82.4932C65.4663 81.9001 64.9865 81.4207 64.3929 81.4207C63.7993 81.4207 63.3195 81.9001 63.3195 82.4932V84.6374C63.3195 85.2305 63.7993 85.7099 64.3929 85.7099Z" fill="#466E8C"/>
    <path d="M68.6853 74.988C69.2789 74.988 69.7587 74.5086 69.7587 73.9155V71.7713C69.7587 71.1782 69.2789 70.6988 68.6853 70.6988C68.0917 70.6988 67.6119 71.1782 67.6119 71.7713V73.9155C67.6127 74.5086 68.0925 74.988 68.6853 74.988Z" fill="#466E8C"/>
    <path d="M68.6853 80.3489C69.2789 80.3489 69.7587 79.8695 69.7587 79.2764V77.1322C69.7587 76.5391 69.2789 76.0597 68.6853 76.0597C68.0917 76.0597 67.6119 76.5391 67.6119 77.1322V79.2764C67.6127 79.8695 68.0925 80.3489 68.6853 80.3489Z" fill="#466E8C"/>
    <path d="M68.6853 85.7099C69.2789 85.7099 69.7587 85.2305 69.7587 84.6374V82.4932C69.7587 81.9001 69.2789 81.4207 68.6853 81.4207C68.0917 81.4207 67.6119 81.9001 67.6119 82.4932V84.6374C67.6127 85.2305 68.0925 85.7099 68.6853 85.7099Z" fill="#466E8C"/>
    <path d="M10.7375 65.3382C10.1454 65.3382 9.66406 65.8176 9.66406 66.4107V68.5549C9.66406 69.148 10.1446 69.6274 10.7375 69.6274C11.3296 69.6274 11.8109 69.148 11.8109 68.5549V66.4107C11.8109 65.8176 11.3296 65.3382 10.7375 65.3382Z" fill="#466E8C"/>
    <path d="M10.7375 70.6992C10.1454 70.6992 9.66406 71.1786 9.66406 71.7717V73.9159C9.66406 74.509 10.1446 74.9884 10.7375 74.9884C11.3296 74.9884 11.8109 74.509 11.8109 73.9159V71.7717C11.8109 71.1786 11.3296 70.6992 10.7375 70.6992Z" fill="#466E8C"/>
    <path d="M10.7375 76.0602C10.1454 76.0602 9.66406 76.5396 9.66406 77.1327V79.2769C9.66406 79.8699 10.1446 80.3494 10.7375 80.3494C11.3296 80.3494 11.8109 79.8699 11.8109 79.2769V77.1327C11.8109 76.5396 11.3296 76.0602 10.7375 76.0602Z" fill="#466E8C"/>
    <path d="M10.7375 81.4211C10.1454 81.4211 9.66406 81.9005 9.66406 82.4936V84.6378C9.66406 85.2309 10.1446 85.7103 10.7375 85.7103C11.3296 85.7103 11.8109 85.2309 11.8109 84.6378V82.4936C11.8109 81.9005 11.3296 81.4211 10.7375 81.4211Z" fill="#466E8C"/>
    <path d="M4.29882 65.3382C3.70674 65.3382 3.22541 65.8176 3.22541 66.4107V68.5549C3.22541 69.148 3.70597 69.6274 4.29882 69.6274C4.89091 69.6274 5.37224 69.148 5.37224 68.5549V66.4107C5.37224 65.8176 4.89168 65.3382 4.29882 65.3382Z" fill="#466E8C"/>
    <path d="M4.29882 70.6992C3.70674 70.6992 3.22541 71.1786 3.22541 71.7717V73.9159C3.22541 74.509 3.70597 74.9884 4.29882 74.9884C4.89091 74.9884 5.37224 74.509 5.37224 73.9159V71.7717C5.37224 71.1786 4.89168 70.6992 4.29882 70.6992Z" fill="#466E8C"/>
    <path d="M4.29882 76.0602C3.70674 76.0602 3.22541 76.5396 3.22541 77.1327V79.2769C3.22541 79.8699 3.70597 80.3494 4.29882 80.3494C4.89091 80.3494 5.37224 79.8699 5.37224 79.2769V77.1327C5.37224 76.5396 4.89168 76.0602 4.29882 76.0602Z" fill="#466E8C"/>
    <path d="M4.29882 81.4211C3.70674 81.4211 3.22541 81.9005 3.22541 82.4936V84.6378C3.22541 85.2309 3.70597 85.7103 4.29882 85.7103C4.89091 85.7103 5.37224 85.2309 5.37224 84.6378V82.4936C5.37224 81.9005 4.89168 81.4211 4.29882 81.4211Z" fill="#466E8C"/>
    <path d="M9.66437 59.5867C9.66437 60.6173 8.82899 61.4527 7.79751 61.4527C6.76602 61.4527 5.92989 60.6173 5.92989 59.5867C5.92989 58.5561 6.76602 57.7214 7.79751 57.7214C8.82899 57.7214 9.66437 58.5561 9.66437 59.5867Z" fill="#466E8C"/>
    <path d="M27.9072 70.6992C27.3151 70.6992 26.8338 71.1786 26.8338 71.7717V73.9159C26.8338 74.509 27.3144 74.9884 27.9072 74.9884C28.4993 74.9884 28.9806 74.509 28.9806 73.9159V71.7717C28.9799 71.1786 28.4993 70.6992 27.9072 70.6992Z" fill="#466E8C"/>
    <path d="M27.9072 76.0602C27.3151 76.0602 26.8338 76.5396 26.8338 77.1327V79.2769C26.8338 79.8699 27.3144 80.3494 27.9072 80.3494C28.4993 80.3494 28.9806 79.8699 28.9806 79.2769V77.1327C28.9799 76.5396 28.4993 76.0602 27.9072 76.0602Z" fill="#466E8C"/>
    <path d="M27.9072 81.4211C27.3151 81.4211 26.8338 81.9005 26.8338 82.4936V84.6378C26.8338 85.2309 27.3144 85.7103 27.9072 85.7103C28.4993 85.7103 28.9806 85.2309 28.9806 84.6378V82.4936C28.9799 81.9005 28.4993 81.4211 27.9072 81.4211Z" fill="#466E8C"/>
    <path d="M23.6148 70.6992C23.0227 70.6992 22.5414 71.1786 22.5414 71.7717V73.9159C22.5414 74.509 23.0219 74.9884 23.6148 74.9884C24.2069 74.9884 24.6882 74.509 24.6882 73.9159V71.7717C24.6882 71.1786 24.2076 70.6992 23.6148 70.6992Z" fill="#466E8C"/>
    <path d="M23.6148 76.0602C23.0227 76.0602 22.5414 76.5396 22.5414 77.1327V79.2769C22.5414 79.8699 23.0219 80.3494 23.6148 80.3494C24.2069 80.3494 24.6882 79.8699 24.6882 79.2769V77.1327C24.6882 76.5396 24.2076 76.0602 23.6148 76.0602Z" fill="#466E8C"/>
    <path d="M23.6148 81.4211C23.0227 81.4211 22.5414 81.9005 22.5414 82.4936V84.6378C22.5414 85.2309 23.0219 85.7103 23.6148 85.7103C24.2069 85.7103 24.6882 85.2309 24.6882 84.6378V82.4936C24.6882 81.9005 24.2076 81.4211 23.6148 81.4211Z" fill="#466E8C"/>
    <path d="M19.3223 70.6992C18.7303 70.6992 18.2489 71.1786 18.2489 71.7717V73.9159C18.2489 74.509 18.7295 74.9884 19.3223 74.9884C19.9144 74.9884 20.3958 74.509 20.3958 73.9159V71.7717C20.395 71.1786 19.9145 70.6992 19.3223 70.6992Z" fill="#466E8C"/>
    <path d="M19.3223 76.0602C18.7303 76.0602 18.2489 76.5396 18.2489 77.1327V79.2769C18.2489 79.8699 18.7295 80.3494 19.3223 80.3494C19.9144 80.3494 20.3958 79.8699 20.3958 79.2769V77.1327C20.395 76.5396 19.9145 76.0602 19.3223 76.0602Z" fill="#466E8C"/>
    <path d="M19.3223 81.4211C18.7303 81.4211 18.2489 81.9005 18.2489 82.4936V84.6378C18.2489 85.2309 18.7295 85.7103 19.3223 85.7103C19.9144 85.7103 20.3958 85.2309 20.3958 84.6378V82.4936C20.395 81.9005 19.9145 81.4211 19.3223 81.4211Z" fill="#466E8C"/>
</svg>
