<svg width="87" height="80" viewBox="0 0 87 80" fill="none" xmlns="http://www.w3.org/2000/svg">
    <path d="M32.676 10.0068C32.676 15.7502 37.2004 22.1814 43.2591 22.1814C49.3185 22.1814 53.8422 15.75 53.8422 10.0068C53.8422 4.26338 49.2978 0 43.2591 0C37.2211 0 32.676 4.2942 32.676 10.0068ZM43.2591 3.08241C47.6093 3.08241 50.7721 5.98997 50.7721 10.0068C50.7721 14.0238 47.4251 19.0992 43.2591 19.0992C39.0938 19.0992 35.7466 14.1162 35.7466 10.0068C35.7466 5.89677 38.9501 3.08168 43.3004 3.08168L43.2591 3.08241Z" fill="#466E8C"/>
    <path d="M30.7715 36.9652L29.7476 52.3764C29.7169 52.7841 29.8497 53.1876 30.1174 53.4965C30.3845 53.8047 30.7636 53.9939 31.1706 54.0197H31.2834C32.0873 54.0218 32.7541 53.3969 32.8084 52.5921L33.8936 37.181H33.8929C33.9529 36.3296 33.3132 35.5914 32.4657 35.5319C31.6175 35.4724 30.8821 36.1139 30.8229 36.9652L30.7715 36.9652Z" fill="#466E8C"/>
    <path d="M60.6188 36.8111C60.6138 36.8728 60.6138 36.9351 60.6188 36.9967L62.5023 52.6853C62.5944 53.4557 63.2434 54.0362 64.0167 54.0412H64.2116C65.0491 53.9394 65.6481 53.1776 65.5524 52.3355L63.689 36.7187C63.7725 33.4321 62.6595 30.2279 60.559 27.7052C58.4585 25.1826 55.514 23.5141 52.277 23.0133C49.3447 22.622 46.3911 22.4091 43.4337 22.3762C40.3914 22.4292 37.3542 22.6385 34.3342 23.0032C27.7322 23.9077 22.9321 29.6711 22.9014 36.7294L21.1607 52.3354C21.0679 53.1868 21.6798 53.9522 22.5273 54.0461C23.3755 54.1399 24.1387 53.5258 24.2315 52.6744L25.9408 36.9759V36.8118C25.9408 31.1917 29.5435 26.7634 34.7226 26.0655L34.7233 26.0648C37.6043 25.7122 40.5007 25.5101 43.403 25.4585C46.2061 25.4979 49.0047 25.6971 51.7857 26.0547C54.3131 26.4546 56.6071 27.7697 58.2342 29.7512C59.862 31.7336 60.7095 34.2448 60.6188 36.8111Z" fill="#466E8C"/>
    <path d="M54.1705 35.5379C53.3287 35.6031 52.6947 36.3355 52.7475 37.1819L53.8328 52.593C53.8863 53.3978 54.5539 54.0228 55.3578 54.0206H55.4706C56.3152 53.9604 56.9514 53.2251 56.8928 52.3773L55.8076 36.9662H55.8083C55.7483 36.1176 55.0151 35.4791 54.1705 35.5379Z" fill="#466E8C"/>
    <path d="M53.1469 67.993L60.5373 60.8013C60.9571 60.3906 61.107 59.7758 60.9243 59.2168C60.7422 58.6577 60.2581 58.2521 59.6777 58.1711L49.4422 56.6812L44.877 47.4349C44.6185 46.9089 44.0845 46.5756 43.5005 46.5756C42.9157 46.5756 42.3824 46.9089 42.124 47.4349L37.5588 56.6812L27.3233 58.1711C26.7678 58.2822 26.3187 58.6907 26.1538 59.234C25.9889 59.7772 26.1353 60.3677 26.5351 60.7705L33.9147 67.9622L32.1747 78.1645C32.0755 78.7436 32.3125 79.3284 32.7866 79.6738C33.2607 80.0185 33.889 80.0622 34.4059 79.7878L43.5255 74.9688L52.6557 79.7878C52.8763 79.9053 53.1227 79.9655 53.3726 79.9626C53.6953 79.9648 54.0108 79.8637 54.2729 79.6745C54.7427 79.3255 54.979 78.7436 54.8876 78.1645L53.1469 67.993ZM49.984 67.7156L51.3348 75.6369L44.2515 71.8974H44.2522C43.8031 71.6652 43.2691 71.6652 42.8193 71.8974L35.736 75.6369L37.0868 67.7156H37.0875C37.1746 67.2154 37.0097 66.7044 36.6477 66.3489L30.916 60.7397L38.8174 59.5887C39.3179 59.5163 39.7499 59.201 39.9741 58.7466L43.5154 51.555L47.0674 58.7466C47.288 59.1996 47.7164 59.5149 48.2134 59.5887L56.1455 60.7397L50.4037 66.3489C50.0339 66.7001 49.8583 67.2104 49.9332 67.7156H49.984Z" fill="#466E8C"/>
    <path d="M85.6646 62.8247L78.203 61.7053L74.8659 54.9242C74.6074 54.3982 74.0741 54.0649 73.4893 54.0649C72.9053 54.0649 72.3713 54.3982 72.1128 54.9242L68.7757 61.7053L61.3347 62.8247C60.7564 62.9093 60.2751 63.3164 60.0952 63.8747C59.9146 64.4329 60.066 65.0457 60.4851 65.4549L65.8792 70.736L64.6097 78.1949H64.6104C64.5312 78.6429 64.6547 79.103 64.9474 79.4505C65.2402 79.7981 65.6721 79.9967 66.1248 79.9931C66.3747 79.9959 66.621 79.9357 66.8416 79.8182L73.5051 76.2944L80.1786 79.8182C80.6955 80.0927 81.3238 80.049 81.7979 79.7042C82.2712 79.3588 82.509 78.774 82.4098 78.1949L81.1403 70.736L86.5344 65.4549C86.9542 65.0457 87.1056 64.4329 86.925 63.8747C86.7443 63.3164 86.2638 62.9093 85.6855 62.8247L85.6646 62.8247ZM78.3971 69.0919C78.0301 69.4438 77.8652 69.9577 77.9573 70.4586L78.8376 75.5956L74.2011 73.1504C73.9784 73.0372 73.7335 72.9777 73.4843 72.9755C73.2387 72.9763 72.9959 73.0365 72.7782 73.1504L68.1417 75.5956L69.022 70.4586C69.1141 69.9576 68.9485 69.4438 68.5815 69.0919L64.8353 65.4241L70.0145 64.6737V64.6745C70.5128 64.5963 70.9433 64.2832 71.1711 63.8316L73.4843 59.116L75.8076 63.8316C76.036 64.2831 76.4666 64.5963 76.9642 64.6745L82.1433 65.4248L78.3971 69.0919Z" fill="#466E8C"/>
    <path d="M25.6647 62.8247L18.203 61.7053L14.8659 54.9242H14.8666C14.606 54.3968 14.0712 54.0621 13.4844 54.0614C12.8996 54.0592 12.3663 54.3946 12.1128 54.9242L8.77644 61.7053L1.31478 62.8247C0.735749 62.9093 0.25525 63.3164 0.074612 63.8747C-0.105309 64.4329 0.0460525 65.0457 0.465149 65.4549L5.85924 70.736L4.5898 78.1949C4.48557 78.7733 4.71975 79.361 5.19311 79.7064C5.66647 80.0525 6.29547 80.0963 6.81098 79.8182L13.4845 76.2944L20.158 79.8182C20.3786 79.9357 20.625 79.9959 20.8749 79.9931C21.1976 79.9952 21.5131 79.8942 21.7759 79.705C22.245 79.3559 22.4813 78.774 22.3899 78.1949L21.1105 70.736L26.5353 65.4549C26.9544 65.0457 27.1057 64.4329 26.9251 63.8747C26.7452 63.3164 26.2647 62.9093 25.6857 62.8247H25.6647ZM18.3465 69.0919C17.9874 69.4488 17.8232 69.9584 17.9067 70.4586L18.797 75.5956L14.2527 73.1913C13.8029 72.9591 13.2688 72.9591 12.8197 73.1913L8.11106 75.6366L8.99138 70.4995C9.0742 69.9993 8.90999 69.4897 8.55086 69.1336L4.83538 65.4241L10.0145 64.6737V64.6744C10.5172 64.5999 10.952 64.286 11.1819 63.8316L13.4951 59.116L15.8184 63.8316C16.0418 64.2824 16.4688 64.597 16.965 64.6744L22.1542 65.4248L18.3465 69.0919Z" fill="#466E8C"/>
</svg>
