<svg width="98" height="76" viewBox="0 0 98 76" fill="none" xmlns="http://www.w3.org/2000/svg">
    <path d="M97.1705 22.6931L49.5513 0.103048C49.1373 -0.0343493 48.7233 -0.0343493 48.3092 0.103048L0.828011 22.6931C0.414004 22.9688 0 23.382 0 23.9325C0 24.4831 0.276322 24.8972 0.828011 25.172L17.391 33.0239V47.8995C17.391 58.2303 31.3315 66.3569 48.9991 66.3569C57.8329 66.3569 65.7009 64.2912 71.4978 60.8477V66.6329C69.5654 67.1835 68.0471 69.1118 68.0471 71.1785C68.0471 73.7958 70.2557 76 72.8785 76C75.5013 76 77.71 73.7959 77.71 71.1785C77.71 68.9743 76.1916 67.1844 74.2593 66.6329V59.0568C78.2616 56.0264 80.609 52.1696 80.609 48.037V33.1614L97.172 25.3095C97.586 25.0337 98 24.6206 98 24.07C98 23.5195 97.7237 22.9689 97.172 22.6931L97.1705 22.6931ZM74.9482 71.1789C74.9482 72.281 73.9816 73.2447 72.8782 73.2447C71.7739 73.2447 70.8082 72.28 70.8082 71.1789C70.8082 70.0768 71.7748 69.1131 72.8782 69.1131C73.9816 69.1122 74.9482 70.0769 74.9482 71.1789ZM48.4471 47.7627C48.5847 47.9001 48.8611 47.9001 48.9987 47.9001C49.1364 47.9001 49.4128 47.9001 49.5504 47.7627L71.4965 37.4319V52.171C66.1134 55.7521 57.9701 58.232 48.9978 58.232C33.1252 58.232 20.1502 51.2073 20.1502 42.5292V34.54L48.4471 47.7627ZM48.9987 63.6027C34.782 63.6027 23.0497 57.955 20.5652 50.6546C25.672 56.7156 36.3003 60.8479 48.9987 60.8479C57.8325 60.8479 65.7005 58.7821 71.4974 55.3386V57.5427C66.1143 61.2611 57.97 63.6027 48.9987 63.6027V63.6027ZM74.2577 55.3376V53.4093C75.4997 52.4446 76.4663 51.4809 77.432 50.3789C76.8803 52.1699 75.776 53.8225 74.2577 55.3377V55.3376ZM77.8461 42.3904C77.8461 45.0078 76.6041 47.6249 74.2577 49.8281V36.0537L77.8461 34.4011V42.3904ZM72.8771 33.7123L49.6891 22.1421C48.9988 21.8663 48.1708 22.1421 47.8945 22.831C47.6182 23.5199 47.8945 24.3462 48.5848 24.622L69.7029 35.2275L48.9989 45.0078L4.55424 23.932L48.9989 2.85719L93.4435 23.932L72.8771 33.7123Z" fill="#466E8C"/>
</svg>
