<svg width="62" height="79" viewBox="0 0 62 79" fill="none" xmlns="http://www.w3.org/2000/svg">
    <path d="M18.7674 34.8081L18.7883 34.8126H18.8097H19.3284H19.3497L19.3707 34.8081C24.1894 33.7653 26.6355 31.1296 27.8707 28.7341C29.1013 26.3475 29.1248 24.2111 29.1248 24.1517V15.406C29.1248 14.89 28.8118 14.4838 28.4082 14.2836L28.3194 14.4628L28.4082 14.2836L19.5898 9.91081C19.2026 9.71845 18.7825 9.7025 18.4504 9.91596L9.64237 14.2836L9.64224 14.2837C9.23952 14.4837 8.92574 14.8898 8.92574 15.406V24.1523V24.2364L8.94187 24.2522C8.94305 24.2615 8.94435 24.2722 8.9458 24.2845C8.94826 24.3055 8.95109 24.3307 8.95432 24.3594C8.96072 24.4161 8.96867 24.4868 8.97839 24.5662C9.00814 24.8094 9.05663 25.1549 9.14253 25.5736C9.31422 26.4106 9.6356 27.5412 10.2569 28.7353C11.503 31.1301 13.9489 33.7656 18.7674 34.8081ZM0.803919 5.20469L0.8 5.20538V5.37348V73.6271C0.8 76.14 2.87941 78.2 5.40905 78.2H56.5903C59.12 78.2 61.1994 76.14 61.1994 73.6271L61.2 21.1507C61.2 19.9809 60.7454 18.9054 59.9378 18.0149L59.936 18.013L45.2388 2.23575L45.2389 2.23564L45.2333 2.23007C44.3355 1.33956 43.1628 0.8 41.8938 0.8H5.40984C2.937 0.8 0.894447 2.76909 0.803919 5.20469ZM58.0057 19.8351C58.0348 19.864 58.0613 19.893 58.0858 19.922H40.5366V6.65956V6.45956H40.3366H38.1752H37.9752V6.65956V21.2362C37.9752 21.9487 38.5849 22.5511 39.2993 22.5511H58.6381V73.7128C58.6381 74.8012 57.6919 75.742 56.5904 75.742H5.40912C4.30768 75.742 3.36145 74.8012 3.36145 73.7128V5.3734C3.36145 4.285 4.30763 3.34417 5.40912 3.34417H41.8931L41.8933 3.34417C42.3733 3.34369 42.8404 3.52063 43.1526 3.86107L43.1349 3.87175L43.303 4.0522L58.0002 19.8294L58.0001 19.8295L58.0057 19.8351ZM10.3371 40.3291H10.1371V40.5291V42.6727V42.8727H10.3371H51.1438H51.3438V42.6727V40.5291V40.3291H51.1438H10.3371ZM10.3371 50.4471H10.1371V50.6471V52.7907V52.9907H10.3371H51.1438H51.3438V52.7907V50.6471V50.4471H51.1438H10.3371ZM10.3371 61.1653H10.1371V61.3653V63.509V63.709H10.3371H51.1438H51.3438V63.509V61.3653V61.1653H51.1438H10.3371ZM33.68 30.0396H33.48V30.2396V32.3832V32.5832H33.68H51.0574H51.2574V32.3832V30.2396V30.0396H51.0574H33.68ZM17.8316 26.381V26.581H18.0316H20.193H20.393V26.381V23.5796H23.1323H23.3323V23.3796V21.236V21.036H23.1323H20.393V18.2352V18.0352H20.193H18.0316H17.8316V18.2352V21.036H15.0054H14.8054V21.236V23.3796V23.5796H15.0054H17.8316V26.381ZM11.5746 16.215L19.0691 12.4569L26.5636 16.215V24.1518C26.5636 24.1517 26.5636 24.1534 26.5635 24.1573L26.5632 24.173C26.5628 24.1865 26.5621 24.206 26.561 24.2311C26.5586 24.2812 26.5542 24.3535 26.5458 24.4453C26.5291 24.6291 26.4969 24.8905 26.4349 25.208C26.3108 25.8433 26.0677 26.7003 25.5923 27.6066C24.6486 29.4058 22.7826 31.4146 19.0693 32.264C15.3978 31.4147 13.5316 29.4473 12.5775 27.6693C11.6151 25.8756 11.5746 24.261 11.5746 24.1518V16.215Z" fill="#466E8C" stroke="#466E8C" stroke-width="0.4"/>
</svg>
