<svg width="67" height="95" viewBox="0 0 67 95" fill="none" xmlns="http://www.w3.org/2000/svg">
    <path d="M42.764 61.5331C42.5818 61.4138 42.4241 61.2339 42.3664 60.9726C45.6777 60.718 51.2735 59.5177 58.5486 55.4747L58.5487 55.4748L58.5517 55.473C58.9672 55.2226 59.3032 54.7217 59.3032 54.2101V31.5291C59.3032 22.6639 56.3433 15.6624 50.6445 11.0865L52.8156 2.75179L52.8158 2.75183L52.8169 2.74611C52.8993 2.33256 52.8387 1.87362 52.6076 1.51484C52.3737 1.15169 51.9704 0.9 51.3907 0.9H15.4535C14.6171 0.9 13.7772 1.65751 14.0279 2.74897L14.0279 2.74898L14.0286 2.75157C14.3022 3.81179 14.8688 5.91181 15.3668 7.74614C15.6158 8.66344 15.8478 9.51451 16.0174 10.1363L16.2196 10.8765L16.2751 11.0794L16.2771 11.0865C10.5782 15.5854 7.61921 22.6652 7.61921 31.5291V54.1316C7.61921 54.6338 7.86927 55.1417 8.37495 55.397C15.5722 59.5169 21.1665 60.6411 24.5524 60.8941C24.4405 61.3368 24.041 61.6443 23.5785 61.6443C23.2631 61.6443 22.8115 61.6641 22.4307 61.6837C22.2404 61.6935 22.0695 61.7031 21.941 61.7104C21.809 61.7178 21.7216 61.7228 21.7035 61.7228V61.7225L21.6956 61.7231C9.68951 62.669 0.822217 72.6021 0.900514 84.4256V92.5873C0.900514 93.4352 1.57691 94.0171 2.39676 94.0995L2.39671 94.1H2.40675H64.5938C65.4387 94.1 66.0176 93.4199 66.0995 92.5972L66.1 92.5973V92.5873L66.1 84.5038L66.1 84.5028C66.0607 80.4812 64.6683 75.1237 61.3541 70.6123C58.038 66.0984 52.7986 62.4329 45.0738 61.8018C44.5206 61.7228 43.8912 61.7228 43.3478 61.7228H43.3439C43.2071 61.7228 42.9723 61.6696 42.764 61.5331ZM10.5585 30.0151C10.8853 23.3226 13.1004 17.9342 17.1194 14.2121L18.2477 18.2925L18.2476 18.2925L18.2492 18.2973C18.375 18.6764 18.6667 19.0103 19.0306 19.1983C19.3957 19.387 19.8389 19.431 20.2615 19.2197C24.3896 17.4205 28.9061 16.4039 33.4213 16.4038C37.9397 16.4822 42.4575 17.4214 46.5852 19.2208L46.5865 19.2214C47.0879 19.4312 47.5507 19.347 47.9065 19.1367C48.2584 18.9288 48.5105 18.5949 48.5963 18.2932L48.5965 18.2925L49.7248 14.2121C53.7441 17.9345 55.9592 23.3233 56.2859 30.0164C53.2121 30.0119 50.7418 29.8064 48.3786 28.6338C45.9886 27.448 43.6958 25.2665 41.0051 21.2709C40.8326 21.0112 40.4957 20.7815 40.1004 20.7083C39.7002 20.6343 39.2386 20.7204 38.8238 21.0954L38.8237 21.0953L38.82 21.0991C33.0034 26.9422 23.6948 29.844 10.5585 30.0151ZM49.2496 65.6062L49.2651 65.6114H49.2814H49.3442C57.5751 68.1925 63.1653 75.8404 63.1656 84.503C63.1656 84.5032 63.1656 84.5035 63.1656 84.5038L63.0887 91.1532H30.4753V78.5834L45.5701 64.8266H45.6814C46.9244 64.9829 48.0875 65.2171 49.2496 65.6062ZM41.7565 64.2846L33.4224 71.8118L25.1706 64.2899C26.609 63.6872 27.5066 62.276 27.5066 60.6456V58.2734C31.3541 59.5553 35.5683 59.5553 39.4158 58.2734V60.6456C39.4158 62.2052 40.3183 63.613 41.7565 64.2846ZM16.9598 32.6403C26.8837 31.6935 34.3553 28.9641 39.7453 24.2887L39.7528 24.2962C39.7936 24.3498 39.8342 24.4032 39.8746 24.4563C41.3412 26.3834 42.5894 28.0236 44.0988 29.3288C45.6393 30.6608 47.4499 31.6428 50.0408 32.2368V39.6911C50.0408 48.8189 42.663 56.3076 33.5003 56.3076C24.3372 56.3076 16.9598 48.8971 16.9598 39.6911V32.6403ZM56.3688 53.2871C50.0794 56.6685 45.2326 57.6968 42.3502 57.9469V57.0182C48.8365 53.6951 52.897 47.0066 52.897 39.6911V32.7429C53.9374 32.8863 55.0513 32.9596 56.3688 32.9632V53.2871ZM49.4638 3.84684L46.2445 15.9357C42.1256 14.387 37.8513 13.5354 33.4221 13.5354C29.0706 13.5354 24.7201 14.387 20.5998 15.9357L17.3805 3.84684H49.4638ZM10.5536 32.9631C11.147 32.9612 11.7397 32.9426 12.322 32.924L12.3509 32.9231C12.9215 32.9049 13.4817 32.887 14.0254 32.885V39.7696C14.0254 47.0851 18.0859 53.7736 24.5722 57.0967V58.0257C21.6173 57.776 16.845 56.7474 10.5536 53.2877V32.9631ZM3.75674 84.5038C3.75674 74.4452 11.2745 65.9445 21.2789 64.8309L31.2434 73.9097L28.0452 76.893C27.7053 77.1516 27.5409 77.575 27.5409 77.9899V91.2316H3.75674V84.5038ZM51.0782 77.9684H44.047C43.2101 77.9684 42.5408 78.6414 42.5408 79.481C42.5408 80.3206 43.2101 80.9937 44.047 80.9937H51.0782C51.9151 80.9937 52.5845 80.3206 52.5845 79.481C52.5845 78.6379 51.8334 77.9684 51.0782 77.9684Z" fill="#69A042" stroke="#69A042" stroke-width="0.2"/>
</svg>
