<svg width="95" height="95" viewBox="0 0 95 95" fill="none" xmlns="http://www.w3.org/2000/svg">
    <mask id="path-1-outside-1_702_1783" maskUnits="userSpaceOnUse" x="0" y="0" width="95" height="95" fill="black">
        <rect fill="white" width="95" height="95"/>
        <path d="M56.2932 59.6397H65.2395C65.8815 59.6397 66.4019 59.1198 66.4019 58.4766V43.1853C66.4019 42.5429 65.8815 42.0222 65.2395 42.0222H56.2932C55.6512 42.0222 55.1308 42.5421 55.1308 43.1853V58.4766C55.1308 59.1198 55.6512 59.6397 56.2932 59.6397ZM57.4556 44.3485H64.078V57.3141H57.4556V44.3485Z"/>
        <path d="M40.6864 68.5643H31.7401C31.0981 68.5643 30.5777 69.0843 30.5777 69.7275V85.0188C30.5777 85.6612 31.0981 86.1819 31.7401 86.1819H40.6864C41.3284 86.1819 41.8488 85.662 41.8488 85.0188L41.848 69.7267C41.848 69.0842 41.3276 68.5643 40.6864 68.5643ZM39.5241 83.8556H32.9016V70.89H39.5241V83.8556Z"/>
        <path d="M24.4717 68.5643H15.5253C14.8833 68.5643 14.363 69.0843 14.363 69.7275V85.0188C14.363 85.6612 14.8833 86.1819 15.5253 86.1819H24.4717C25.1137 86.1819 25.6341 85.662 25.6341 85.0188L25.6333 69.7267C25.6333 69.0842 25.1129 68.5643 24.4717 68.5643ZM23.3093 83.8556H16.6869V70.89H23.3093V83.8556Z"/>
        <path d="M71.5659 59.6397H80.5122C81.1542 59.6397 81.6746 59.1198 81.6746 58.4766L81.6738 43.1853C81.6738 42.5429 81.1534 42.0222 80.5114 42.0222H71.5651C70.9231 42.0222 70.4027 42.5421 70.4027 43.1853V58.4766C70.4035 59.1198 70.9239 59.6397 71.5659 59.6397ZM72.7275 44.3485H79.3499V57.3141H72.7275V44.3485Z"/>
        <path d="M69.3082 1.42097C68.8664 0.859678 67.9205 0.859678 67.4787 1.42097L43.0362 32.6094C42.7622 32.959 42.712 33.4359 42.9057 33.8358C43.1002 34.2357 43.5063 34.4895 43.9505 34.4895H47.8689V40.9768L33.7299 40.9776V34.724C33.7299 34.0815 33.2095 33.5608 32.5675 33.5608H23.6212C22.9792 33.5608 22.4588 34.0807 22.4588 34.724V40.9776H11.4583C11.01 40.9776 10.6015 41.2356 10.4094 41.6411L1.11279 61.2012C0.941754 61.5613 0.966072 61.9847 1.18007 62.3221C1.39243 62.6587 1.76369 62.8632 2.1625 62.8632H6.0452V92.8369C6.0452 93.4793 6.56559 94 7.20758 94H87.7585C88.4005 94 88.9209 93.4801 88.9209 92.8369L88.9201 34.4904H92.8425C93.1302 34.4896 93.3937 34.3833 93.5955 34.2089C93.6498 34.1627 93.7001 34.11 93.7447 34.0548C93.7455 34.0548 93.7455 34.054 93.7455 34.054C93.8962 33.8658 93.9895 33.629 93.9992 33.3719C94 33.3491 94 33.3264 94 33.3045V33.3029C93.9935 33.0385 93.9003 32.7952 93.7455 32.6037L69.3082 1.42097ZM24.7829 35.8881H31.4054V48.3955H24.7829V35.8881ZM12.1921 43.3042H22.459V49.5579C22.459 50.2003 22.9794 50.721 23.6214 50.721H32.5678C33.2098 50.721 33.7302 50.2011 33.7302 49.5579V43.3042H47.87V60.5388H4.00053L12.1921 43.3042ZM8.36855 62.8643H47.87V91.6751H8.36855V62.8643ZM74.1572 91.6751H62.6283V77.4132C62.6283 74.2329 65.214 71.6454 68.3922 71.6454C71.5713 71.6462 74.157 74.2329 74.157 77.4132L74.1572 91.6751ZM86.5941 91.6751H76.4814V77.4132C76.4814 72.9504 72.8524 69.3198 68.3933 69.3198C63.9335 69.3198 60.3052 72.9502 60.3052 77.4132L60.3044 91.6751H50.1925V34.4915H86.5937L86.5941 91.6751ZM46.3373 32.1638L68.3914 4.02152L90.4455 32.1638H46.3373Z"/>
    </mask>
    <path d="M56.2932 59.6397H65.2395C65.8815 59.6397 66.4019 59.1198 66.4019 58.4766V43.1853C66.4019 42.5429 65.8815 42.0222 65.2395 42.0222H56.2932C55.6512 42.0222 55.1308 42.5421 55.1308 43.1853V58.4766C55.1308 59.1198 55.6512 59.6397 56.2932 59.6397ZM57.4556 44.3485H64.078V57.3141H57.4556V44.3485Z" fill="#69A042"/>
    <path d="M40.6864 68.5643H31.7401C31.0981 68.5643 30.5777 69.0843 30.5777 69.7275V85.0188C30.5777 85.6612 31.0981 86.1819 31.7401 86.1819H40.6864C41.3284 86.1819 41.8488 85.662 41.8488 85.0188L41.848 69.7267C41.848 69.0842 41.3276 68.5643 40.6864 68.5643ZM39.5241 83.8556H32.9016V70.89H39.5241V83.8556Z" fill="#69A042"/>
    <path d="M24.4717 68.5643H15.5253C14.8833 68.5643 14.363 69.0843 14.363 69.7275V85.0188C14.363 85.6612 14.8833 86.1819 15.5253 86.1819H24.4717C25.1137 86.1819 25.6341 85.662 25.6341 85.0188L25.6333 69.7267C25.6333 69.0842 25.1129 68.5643 24.4717 68.5643ZM23.3093 83.8556H16.6869V70.89H23.3093V83.8556Z" fill="#69A042"/>
    <path d="M71.5659 59.6397H80.5122C81.1542 59.6397 81.6746 59.1198 81.6746 58.4766L81.6738 43.1853C81.6738 42.5429 81.1534 42.0222 80.5114 42.0222H71.5651C70.9231 42.0222 70.4027 42.5421 70.4027 43.1853V58.4766C70.4035 59.1198 70.9239 59.6397 71.5659 59.6397ZM72.7275 44.3485H79.3499V57.3141H72.7275V44.3485Z" fill="#69A042"/>
    <path d="M69.3082 1.42097C68.8664 0.859678 67.9205 0.859678 67.4787 1.42097L43.0362 32.6094C42.7622 32.959 42.712 33.4359 42.9057 33.8358C43.1002 34.2357 43.5063 34.4895 43.9505 34.4895H47.8689V40.9768L33.7299 40.9776V34.724C33.7299 34.0815 33.2095 33.5608 32.5675 33.5608H23.6212C22.9792 33.5608 22.4588 34.0807 22.4588 34.724V40.9776H11.4583C11.01 40.9776 10.6015 41.2356 10.4094 41.6411L1.11279 61.2012C0.941754 61.5613 0.966072 61.9847 1.18007 62.3221C1.39243 62.6587 1.76369 62.8632 2.1625 62.8632H6.0452V92.8369C6.0452 93.4793 6.56559 94 7.20758 94H87.7585C88.4005 94 88.9209 93.4801 88.9209 92.8369L88.9201 34.4904H92.8425C93.1302 34.4896 93.3937 34.3833 93.5955 34.2089C93.6498 34.1627 93.7001 34.11 93.7447 34.0548C93.7455 34.0548 93.7455 34.054 93.7455 34.054C93.8962 33.8658 93.9895 33.629 93.9992 33.3719C94 33.3491 94 33.3264 94 33.3045V33.3029C93.9935 33.0385 93.9003 32.7952 93.7455 32.6037L69.3082 1.42097ZM24.7829 35.8881H31.4054V48.3955H24.7829V35.8881ZM12.1921 43.3042H22.459V49.5579C22.459 50.2003 22.9794 50.721 23.6214 50.721H32.5678C33.2098 50.721 33.7302 50.2011 33.7302 49.5579V43.3042H47.87V60.5388H4.00053L12.1921 43.3042ZM8.36855 62.8643H47.87V91.6751H8.36855V62.8643ZM74.1572 91.6751H62.6283V77.4132C62.6283 74.2329 65.214 71.6454 68.3922 71.6454C71.5713 71.6462 74.157 74.2329 74.157 77.4132L74.1572 91.6751ZM86.5941 91.6751H76.4814V77.4132C76.4814 72.9504 72.8524 69.3198 68.3933 69.3198C63.9335 69.3198 60.3052 72.9502 60.3052 77.4132L60.3044 91.6751H50.1925V34.4915H86.5937L86.5941 91.6751ZM46.3373 32.1638L68.3914 4.02152L90.4455 32.1638H46.3373Z" fill="#69A042"/>
    <path d="M56.2932 59.6397H65.2395C65.8815 59.6397 66.4019 59.1198 66.4019 58.4766V43.1853C66.4019 42.5429 65.8815 42.0222 65.2395 42.0222H56.2932C55.6512 42.0222 55.1308 42.5421 55.1308 43.1853V58.4766C55.1308 59.1198 55.6512 59.6397 56.2932 59.6397ZM57.4556 44.3485H64.078V57.3141H57.4556V44.3485Z" stroke="#69A042" stroke-width="0.8" mask="url(#path-1-outside-1_702_1783)"/>
    <path d="M40.6864 68.5643H31.7401C31.0981 68.5643 30.5777 69.0843 30.5777 69.7275V85.0188C30.5777 85.6612 31.0981 86.1819 31.7401 86.1819H40.6864C41.3284 86.1819 41.8488 85.662 41.8488 85.0188L41.848 69.7267C41.848 69.0842 41.3276 68.5643 40.6864 68.5643ZM39.5241 83.8556H32.9016V70.89H39.5241V83.8556Z" stroke="#69A042" stroke-width="0.8" mask="url(#path-1-outside-1_702_1783)"/>
    <path d="M24.4717 68.5643H15.5253C14.8833 68.5643 14.363 69.0843 14.363 69.7275V85.0188C14.363 85.6612 14.8833 86.1819 15.5253 86.1819H24.4717C25.1137 86.1819 25.6341 85.662 25.6341 85.0188L25.6333 69.7267C25.6333 69.0842 25.1129 68.5643 24.4717 68.5643ZM23.3093 83.8556H16.6869V70.89H23.3093V83.8556Z" stroke="#69A042" stroke-width="0.8" mask="url(#path-1-outside-1_702_1783)"/>
    <path d="M71.5659 59.6397H80.5122C81.1542 59.6397 81.6746 59.1198 81.6746 58.4766L81.6738 43.1853C81.6738 42.5429 81.1534 42.0222 80.5114 42.0222H71.5651C70.9231 42.0222 70.4027 42.5421 70.4027 43.1853V58.4766C70.4035 59.1198 70.9239 59.6397 71.5659 59.6397ZM72.7275 44.3485H79.3499V57.3141H72.7275V44.3485Z" stroke="#69A042" stroke-width="0.8" mask="url(#path-1-outside-1_702_1783)"/>
    <path d="M69.3082 1.42097C68.8664 0.859678 67.9205 0.859678 67.4787 1.42097L43.0362 32.6094C42.7622 32.959 42.712 33.4359 42.9057 33.8358C43.1002 34.2357 43.5063 34.4895 43.9505 34.4895H47.8689V40.9768L33.7299 40.9776V34.724C33.7299 34.0815 33.2095 33.5608 32.5675 33.5608H23.6212C22.9792 33.5608 22.4588 34.0807 22.4588 34.724V40.9776H11.4583C11.01 40.9776 10.6015 41.2356 10.4094 41.6411L1.11279 61.2012C0.941754 61.5613 0.966072 61.9847 1.18007 62.3221C1.39243 62.6587 1.76369 62.8632 2.1625 62.8632H6.0452V92.8369C6.0452 93.4793 6.56559 94 7.20758 94H87.7585C88.4005 94 88.9209 93.4801 88.9209 92.8369L88.9201 34.4904H92.8425C93.1302 34.4896 93.3937 34.3833 93.5955 34.2089C93.6498 34.1627 93.7001 34.11 93.7447 34.0548C93.7455 34.0548 93.7455 34.054 93.7455 34.054C93.8962 33.8658 93.9895 33.629 93.9992 33.3719C94 33.3491 94 33.3264 94 33.3045V33.3029C93.9935 33.0385 93.9003 32.7952 93.7455 32.6037L69.3082 1.42097ZM24.7829 35.8881H31.4054V48.3955H24.7829V35.8881ZM12.1921 43.3042H22.459V49.5579C22.459 50.2003 22.9794 50.721 23.6214 50.721H32.5678C33.2098 50.721 33.7302 50.2011 33.7302 49.5579V43.3042H47.87V60.5388H4.00053L12.1921 43.3042ZM8.36855 62.8643H47.87V91.6751H8.36855V62.8643ZM74.1572 91.6751H62.6283V77.4132C62.6283 74.2329 65.214 71.6454 68.3922 71.6454C71.5713 71.6462 74.157 74.2329 74.157 77.4132L74.1572 91.6751ZM86.5941 91.6751H76.4814V77.4132C76.4814 72.9504 72.8524 69.3198 68.3933 69.3198C63.9335 69.3198 60.3052 72.9502 60.3052 77.4132L60.3044 91.6751H50.1925V34.4915H86.5937L86.5941 91.6751ZM46.3373 32.1638L68.3914 4.02152L90.4455 32.1638H46.3373Z" stroke="#69A042" stroke-width="0.8" mask="url(#path-1-outside-1_702_1783)"/>
</svg>
