<svg width="53" height="24" viewBox="0 0 53 24" fill="none" xmlns="http://www.w3.org/2000/svg">
    <path d="M39.7929 22.2929C39.4024 22.6834 39.4024 23.3166 39.7929 23.7071C40.1834 24.0976 40.8166 24.0976 41.2071 23.7071L39.7929 22.2929ZM51.5 12L52.2071 12.7071C52.5976 12.3166 52.5976 11.6834 52.2071 11.2929L51.5 12ZM41.2071 0.292893C40.8166 -0.0976311 40.1834 -0.0976311 39.7929 0.292893C39.4024 0.683417 39.4024 1.31658 39.7929 1.70711L41.2071 0.292893ZM51 13C51.5523 13 52 12.5523 52 12C52 11.4477 51.5523 11 51 11V13ZM1 11C0.447715 11 5.96046e-08 11.4477 0 12C0 12.5523 0.447715 13 1 13L1 11ZM41.2071 23.7071L52.2071 12.7071L50.7929 11.2929L39.7929 22.2929L41.2071 23.7071ZM52.2071 11.2929L41.2071 0.292893L39.7929 1.70711L50.7929 12.7071L52.2071 11.2929ZM51 11L1 11L1 13L51 13V11Z" fill="#C86B39"/>
</svg>
