<svg width="53" height="24" viewBox="0 0 53 24" fill="none" xmlns="http://www.w3.org/2000/svg">
    <path d="M13.2071 22.2929C13.5976 22.6834 13.5976 23.3166 13.2071 23.7071C12.8166 24.0976 12.1834 24.0976 11.7929 23.7071L13.2071 22.2929ZM1.5 12L0.792892 12.7071C0.40237 12.3166 0.40237 11.6834 0.792892 11.2929L1.5 12ZM11.7929 0.292893C12.1834 -0.0976311 12.8166 -0.0976311 13.2071 0.292893C13.5976 0.683417 13.5976 1.31658 13.2071 1.70711L11.7929 0.292893ZM2 13C1.44772 13 1 12.5523 1 12C1 11.4477 1.44772 11 2 11V13ZM52 11C52.5523 11 53 11.4477 53 12C53 12.5523 52.5523 13 52 13L52 11ZM11.7929 23.7071L0.792892 12.7071L2.20711 11.2929L13.2071 22.2929L11.7929 23.7071ZM0.792892 11.2929L11.7929 0.292893L13.2071 1.70711L2.20711 12.7071L0.792892 11.2929ZM2 11L52 11L52 13L2 13V11Z" fill="#C86B39"/>
</svg>
