<svg>

    <svg id="clock" width="16" height="16" viewBox="0 0 16 16" fill="none" xmlns="http://www.w3.org/2000/svg">
        <path d="M8 14.6667C11.6819 14.6667 14.6667 11.6819 14.6667 8C14.6667 4.3181 11.6819 1.33333 8 1.33333C4.3181 1.33333 1.33334 4.3181 1.33334 8C1.33334 11.6819 4.3181 14.6667 8 14.6667Z" stroke="var(--akcent-color)" stroke-width="1.5" stroke-linecap="round" stroke-linejoin="round"/>
        <path d="M8 4V8L10.6667 9.33333" stroke="var(--akcent-color)" stroke-width="1.5" stroke-linecap="square" stroke-linejoin="round"/>
    </svg>

    <svg id="place" width="16" height="16" viewBox="0 0 16 16" fill="none" xmlns="http://www.w3.org/2000/svg">
        <g clip-path="url(#clip0_30_45)">
            <path d="M14 6.66667C14 11.3333 8 15.3333 8 15.3333C8 15.3333 2 11.3333 2 6.66667C2 5.07537 2.63214 3.54925 3.75736 2.42403C4.88258 1.29881 6.4087 0.666672 8 0.666672C9.5913 0.666672 11.1174 1.29881 12.2426 2.42403C13.3679 3.54925 14 5.07537 14 6.66667Z" stroke="var(--akcent-color)" stroke-width="1.5" stroke-linecap="round"/>
            <path d="M8 8.66667C9.10457 8.66667 10 7.77124 10 6.66667C10 5.5621 9.10457 4.66667 8 4.66667C6.89543 4.66667 6 5.5621 6 6.66667C6 7.77124 6.89543 8.66667 8 8.66667Z" stroke="var(--akcent-color)" stroke-width="1.5" stroke-linecap="round" stroke-linejoin="round"/>
        </g>
        <defs>
            <clipPath id="clip0_30_45">
                <rect width="16" height="16" fill="white"/>
            </clipPath>
        </defs>
    </svg>

    <svg id="phone" width="16" height="16" viewBox="0 0 16 16" fill="none" xmlns="http://www.w3.org/2000/svg">
        <path d="M14.6666 11.28V13.28C14.6674 13.4657 14.6294 13.6494 14.555 13.8196C14.4806 13.9897 14.3715 14.1424 14.2347 14.2679C14.0979 14.3934 13.9364 14.489 13.7605 14.5485C13.5846 14.6079 13.3982 14.63 13.2133 14.6133C11.1619 14.3904 9.19131 13.6894 7.45997 12.5667C5.84919 11.5431 4.48353 10.1774 3.45998 8.56666C2.33329 6.82747 1.63214 4.84733 1.41331 2.78666C1.39665 2.60231 1.41856 2.41651 1.47764 2.24108C1.53673 2.06566 1.63169 1.90446 1.75649 1.76775C1.88128 1.63103 2.03318 1.5218 2.2025 1.44701C2.37183 1.37222 2.55487 1.33351 2.73998 1.33333H4.73998C5.06351 1.33015 5.37717 1.44472 5.62248 1.65569C5.8678 1.86666 6.02803 2.15963 6.07331 2.48C6.15772 3.12004 6.31428 3.74848 6.53998 4.35333C6.62967 4.59195 6.64908 4.85127 6.59591 5.10058C6.54274 5.3499 6.41922 5.57874 6.23997 5.76L5.39331 6.60666C6.34235 8.27569 7.72428 9.65763 9.39331 10.6067L10.24 9.76C10.4212 9.58076 10.6501 9.45723 10.8994 9.40406C11.1487 9.35089 11.408 9.3703 11.6466 9.46C12.2515 9.6857 12.8799 9.84225 13.52 9.92666C13.8438 9.97235 14.1396 10.1355 14.351 10.385C14.5624 10.6345 14.6748 10.953 14.6666 11.28Z" stroke="var(--akcent-color)" stroke-width="1.5" stroke-linecap="round"/>
    </svg>

    <svg id="search" width="20" height="20" viewBox="0 0 20 20" fill="none" xmlns="http://www.w3.org/2000/svg">
        <path d="M9.16667 15.8333C12.8486 15.8333 15.8333 12.8486 15.8333 9.16667C15.8333 5.48477 12.8486 2.5 9.16667 2.5C5.48477 2.5 2.5 5.48477 2.5 9.16667C2.5 12.8486 5.48477 15.8333 9.16667 15.8333Z" stroke="var(--akcent-second)" stroke-width="2" stroke-linecap="round" stroke-linejoin="round"/>
        <path d="M17.5 17.5L13.875 13.875" stroke="var(--akcent-second)" stroke-width="2" stroke-linecap="round" stroke-linejoin="round"/>
    </svg>

    <svg id="help" width="64" height="64" viewBox="0 0 64 64" fill="none" xmlns="http://www.w3.org/2000/svg">
        <circle cx="32" cy="32" r="32" fill="#797D8A"/>
        <path d="M52.0024 39.9458L49.1602 37.1035C48.753 36.6967 48.2971 36.3458 47.8011 36.057C47.8136 35.8892 47.8201 35.7207 47.8201 35.5516V31.5322H43.8006C40.7453 31.5322 38.0889 33.5981 37.3403 36.5566L38.4765 36.8441C39.0933 34.4065 41.2825 32.7042 43.8006 32.7042H46.6481V35.5516C46.6481 36.5682 46.3676 37.5613 45.8372 38.4229L46.8352 39.0373C47.1676 38.4971 47.4193 37.9148 47.5851 37.308C47.8512 37.4933 48.1008 37.7017 48.3313 37.9325L50.3449 39.9458L48.3313 41.9595C48.1008 42.1902 47.8512 42.399 47.5848 42.5842C46.9179 40.1476 44.8997 38.2636 42.3894 37.7915L44.5929 35.588L43.7643 34.7594L40.8467 37.677H37.137V38.1882H12V41.7037H22.8594V44.506C22.8594 48.6381 26.2211 51.9998 30.3532 51.9998H30.9391V48.0255C30.9391 45.3716 29.5523 43.0353 27.4654 41.7037H37.1373C37.1422 45.3749 40.1304 48.3597 43.8028 48.3597H47.8201V44.3425C47.8201 44.1719 47.8136 44.0025 47.8011 43.8349C48.2971 43.5462 48.753 43.1952 49.1602 42.7884L52.0024 39.9458ZM29.7672 48.0255V50.8007C26.555 50.5043 24.0314 47.7945 24.0314 44.506V43.0426L27.6305 48.407L28.6035 47.7542L24.6173 41.8124C27.5454 42.3633 29.7672 44.9397 29.7672 48.0255ZM13.1719 40.5318V39.3602H37.137V40.5318H13.1719ZM46.6481 47.1881H43.8028C40.7734 47.1881 38.309 44.7236 38.309 41.6943V38.849H41.1546C44.1837 38.849 46.6481 41.3134 46.6481 44.3425V47.1881Z" fill="#EFF2F3"/>
        <path d="M31.4146 26.5511V29.0903H23.149V37.2118H24.321V30.2622H39.5447V31.4961H40.7166V29.0903H32.5865V26.5511C35.1163 26.2596 37.0869 24.1046 37.0869 21.4983C37.0869 18.8931 32.9427 13.2629 32.47 12.6296L32.0006 12L31.5309 12.6296C31.0581 13.2629 26.9139 18.8934 26.9139 21.4983C26.9139 24.1046 28.8848 26.2596 31.4146 26.5511ZM32.0006 13.9764C33.4124 15.962 35.915 19.8279 35.915 21.4983C35.915 23.4576 34.4681 25.0855 32.5865 25.369V22.2655H31.4146V25.369C29.5328 25.0855 28.0858 23.4576 28.0858 21.4983C28.0858 19.8279 30.5887 15.962 32.0006 13.9764Z" fill="#EFF2F3"/>
        <path d="M40.851 19.4771H45.3798V20.649H40.851V19.4771Z" fill="#EFF2F3"/>
        <path d="M39.1705 15.9407L42.3729 12.7383L43.2015 13.5672L39.9994 16.7693L39.1705 15.9407Z" fill="#EFF2F3"/>
        <path d="M38.7094 23.9939L39.538 23.165L42.7404 26.3674L41.9118 27.196L38.7094 23.9939Z" fill="#EFF2F3"/>
        <path d="M18.6212 19.4771H23.15V20.649H18.6212V19.4771Z" fill="#EFF2F3"/>
        <path d="M20.799 13.5669L21.6276 12.7383L24.83 15.9407L24.0014 16.7693L20.799 13.5669Z" fill="#EFF2F3"/>
        <path d="M21.2602 26.3667L24.4626 23.1643L25.2912 23.9929L22.0888 27.1953L21.2602 26.3667Z" fill="#EFF2F3"/>
        <path d="M45.8667 45.8207H44.6948V44.3423C44.6948 43.1594 44.1055 42.0586 43.1179 41.3978L43.7698 40.4239C45.0827 41.3026 45.8667 42.7675 45.8667 44.3423V45.8207ZM42.5288 41.0798C42.2203 40.9489 41.8946 40.8634 41.5614 40.825L41.695 39.661C42.1397 39.7119 42.574 39.8261 42.9857 40.0003L42.5288 41.0798ZM40.8481 40.8018H39.6762V39.6301H40.8481V40.8018Z" fill="#EFF2F3"/>
        <path d="M34.2154 23.7131L33.3868 22.8844C33.7548 22.5161 33.9587 22.0287 33.9621 21.5105C33.959 21.4824 33.9392 21.3292 33.8308 21.0127L34.9396 20.6333C35.1099 21.1308 35.1343 21.3902 35.1337 21.5007C35.1337 22.3342 34.8078 23.1207 34.2154 23.7131ZM33.9621 21.4983C33.9621 21.4983 33.9618 21.501 33.9621 21.5062C33.9621 21.5038 33.9621 21.501 33.9621 21.4983ZM33.561 20.3358C33.4246 20.0281 33.2571 19.6869 33.063 19.3216L34.0979 18.772C34.3048 19.1614 34.4846 19.5273 34.6323 19.8603L33.561 20.3358ZM32.6943 18.6538C32.5148 18.3401 32.3168 18.0074 32.1053 17.6647L33.1023 17.0488C33.3208 17.4029 33.5259 17.7471 33.7118 18.0728L32.6943 18.6538Z" fill="#EFF2F3"/>
        <path d="M38.1774 32.2151H33.8422V31.0435H38.1774V32.2151ZM33.0609 32.2151H31.8889V31.0435H33.0609V32.2151ZM31.1076 32.2151H29.9357V31.0435H31.1076V32.2151Z" fill="#EFF2F3"/>
    </svg>

    <svg id="check" width="40" height="40" viewBox="0 0 40 40" fill="none" xmlns="http://www.w3.org/2000/svg">
        <circle cx="20" cy="20" r="20" fill="#797D8A"/>
        <path d="M27.3339 14.499L17.2506 24.5824L12.6672 19.999" stroke="#F3F1E9" stroke-width="2" stroke-linecap="round" stroke-linejoin="round"/>
    </svg>

    <svg id="check2" width="40" height="40" viewBox="0 0 40 40" fill="none" xmlns="http://www.w3.org/2000/svg">
        <circle cx="20" cy="20" r="20" fill="#AE9989"/>
        <path d="M27.3339 14.499L17.2506 24.5824L12.6672 19.999" stroke="#F3F1E9" stroke-width="2" stroke-linecap="round" stroke-linejoin="round"/>
    </svg>

    <svg id="mark" width="24" height="24" viewBox="0 0 24 24" fill="none" xmlns="http://www.w3.org/2000/svg">
        <path d="M0 12C0 5.37258 5.37258 0 12 0C18.6274 0 24 5.37258 24 12C24 18.6274 18.6274 24 12 24C5.37258 24 0 18.6274 0 12Z" fill="#1D2A2A"/>
        <path d="M17.3728 8.39999L10.1728 15.6L6.90002 12.3273" stroke-width="2" stroke="#fff" stroke-linecap="square"/>
    </svg>

    <svg id="attention" width="64" height="64" viewBox="0 0 64 64" fill="none" xmlns="http://www.w3.org/2000/svg">
        <path d="M27.44 10.2933L4.85333 48C4.38764 48.8064 4.14124 49.7208 4.13863 50.652C4.13602 51.5833 4.3773 52.499 4.83846 53.308C5.29963 54.1171 5.96459 54.7913 6.76721 55.2636C7.56983 55.7358 8.48212 55.9897 9.41332 56H54.5866C55.5178 55.9897 56.4301 55.7358 57.2327 55.2636C58.0354 54.7913 58.7003 54.1171 59.1615 53.308C59.6226 52.499 59.8639 51.5833 59.8613 50.652C59.8587 49.7208 59.6123 48.8064 59.1466 48L36.56 10.2933C36.0846 9.50961 35.4152 8.86165 34.6165 8.41195C33.8178 7.96226 32.9166 7.72601 32 7.72601C31.0833 7.72601 30.1822 7.96226 29.3835 8.41195C28.5847 8.86165 27.9154 9.50961 27.44 10.2933V10.2933Z" stroke="#fff" stroke-width="3" stroke-linecap="round" stroke-linejoin="round"/>
        <path d="M32 24V34.6667" stroke="#fff" stroke-width="3" stroke-linecap="round" stroke-linejoin="round"/>
        <path d="M32 45.3333H32.01" stroke="#fff" stroke-width="3" stroke-linecap="round" stroke-linejoin="round"/>
    </svg>

    <svg id="file" width="48" height="48" viewBox="0 0 48 48" fill="none" xmlns="http://www.w3.org/2000/svg">
        <path d="M18 18H30" stroke="var(--akcent-second)" stroke-width="2" stroke-linecap="round" stroke-linejoin="round"/>
        <path d="M18 24H30" stroke="var(--akcent-second)" stroke-width="2" stroke-linecap="round" stroke-linejoin="round"/>
        <path d="M18 30H24" stroke="var(--akcent-second)" stroke-width="2" stroke-linecap="round" stroke-linejoin="round"/>
        <path d="M29.3787 40.5H9C8.60218 40.5 8.22064 40.342 7.93934 40.0607C7.65804 39.7794 7.5 39.3978 7.5 39V9C7.5 8.60218 7.65804 8.22064 7.93934 7.93934C8.22064 7.65804 8.60218 7.5 9 7.5H39C39.3978 7.5 39.7794 7.65804 40.0607 7.93934C40.342 8.22064 40.5 8.60218 40.5 9V29.3787C40.5 29.5757 40.4612 29.7707 40.3858 29.9527C40.3104 30.1347 40.1999 30.3001 40.0607 30.4393L30.4393 40.0607C30.3001 40.1999 30.1347 40.3104 29.9527 40.3858C29.7707 40.4612 29.5757 40.5 29.3787 40.5V40.5Z" stroke="var(--akcent-second)" stroke-width="2" stroke-linecap="round" stroke-linejoin="round"/>
        <path d="M40.3643 29.9985H30V40.3635" stroke="var(--akcent-second)" stroke-width="2" stroke-linecap="round" stroke-linejoin="round"/>
    </svg>

    <svg id="price-attention" width="50" height="50" viewBox="0 0 50 50" fill="none" xmlns="http://www.w3.org/2000/svg">
        <path d="M25.1761 48.9437C38.3026 48.9437 48.9437 38.3026 48.9437 25.1761C48.9437 12.0496 38.3026 1.40845 25.1761 1.40845C12.0496 1.40845 1.40845 12.0496 1.40845 25.1761C1.40845 38.3026 12.0496 48.9437 25.1761 48.9437Z" fill="#AE9989"/>
        <path d="M17.4297 30.6339H27.1128" stroke="#FFF9EF" stroke-width="2" stroke-linecap="square" stroke-linejoin="round"/>
        <path d="M20.9508 35.0353V15.6691H27.5529C29.0705 15.6691 30.5258 16.2719 31.5989 17.345C32.6719 18.418 33.2748 19.8734 33.2748 21.3909C33.2748 22.9084 32.6719 24.3638 31.5989 25.4368C30.5258 26.5099 29.0705 27.1127 27.5529 27.1127H17.4297" stroke="#FFF9EF" stroke-width="2" stroke-linecap="square" stroke-linejoin="round"/>
    </svg>

    <svg id="man" width="44" height="44" viewBox="0 0 44 44" fill="none" xmlns="http://www.w3.org/2000/svg">
        <g clip-path="url(#clip0_310_479)">
            <path d="M36.4378 28.706C34.6934 26.122 32.435 25.5155 30.6205 25.0284C28.6632 24.5028 27.5466 24.2013 27.2674 21.8679C27.3215 21.8217 27.3762 21.7763 27.429 21.7284C28.5516 20.7112 29.3095 19.4051 29.6727 17.8843C29.7621 17.8169 29.8428 17.7353 29.9087 17.6372C33.8021 11.8393 32.5547 7.51584 31.4646 5.45471C29.7259 2.16709 26.0135 0.0260391 22.0068 0C22.0023 0 21.9978 0 21.9934 0C17.9865 0.0259531 14.274 2.167 12.5353 5.45463C11.4451 7.51566 10.1978 11.8391 14.0912 17.6371C14.1572 17.7356 14.2379 17.8179 14.3276 17.8855C14.691 19.4059 15.4488 20.7115 16.571 21.7284C16.6238 21.7762 16.6786 21.8216 16.7326 21.8679C16.4533 24.2013 15.3368 24.5028 13.3796 25.0284C11.565 25.5155 9.30667 26.122 7.56222 28.706C5.67813 31.4973 4.76221 36.1626 4.76221 42.9688C4.76221 43.5383 5.22395 44 5.79346 44H38.2067C38.7762 44 39.2379 43.5383 39.2379 42.9688C39.2379 36.1626 38.322 31.4973 36.4378 28.706ZM15.2504 8.44353C14.6239 9.26535 14.2167 10.5771 14.1034 13.1747C13.2377 10.7232 13.3117 8.39807 14.3585 6.41893C15.746 3.79534 18.7449 2.08588 22.0001 2.0625C25.2551 2.08588 28.2539 3.79534 29.6415 6.41884C30.6819 8.38613 30.7619 10.695 29.9128 13.1301C29.8318 10.5022 29.4869 9.13129 28.7435 8.40924C27.6504 7.34757 25.8789 7.8332 25.2217 8.14799C23.6329 8.9088 20.5964 9.04673 18.7331 8.17515C18.112 7.88477 16.1348 7.2832 15.2504 8.44353ZM16.1419 15.6964C16.1419 15.6904 16.1418 15.6844 16.1417 15.6784C16.0638 11.2338 16.4796 10.1511 16.7215 9.88909C16.8277 9.77402 17.6331 10.0105 18.1451 10.1521C20.7969 10.8854 22.8308 10.957 25.8141 10.1236C26.3369 9.97752 26.9307 9.57129 27.2725 9.85488C27.5497 10.0849 27.9367 11.2099 27.8584 15.6784C27.8583 15.6845 27.8583 15.6905 27.8583 15.6965C27.8583 19.8138 24.8216 21.6891 22.0001 21.6891C19.1786 21.6891 16.1419 19.8138 16.1419 15.6964ZM26.4258 25.1694L22.0001 29.8443L17.5743 25.1694C18.0259 24.6474 18.3891 23.9646 18.6127 23.0484C19.6507 23.5075 20.8024 23.7516 22.0001 23.7516C23.1977 23.7516 24.3494 23.5075 25.3875 23.0484C25.611 23.9646 25.9743 24.6474 26.4258 25.1694ZM33.3344 41.9375V36.9143C33.3344 36.3448 32.8727 35.883 32.3032 35.883C31.7337 35.883 31.2719 36.3448 31.2719 36.9143V41.9375H12.728V36.9143C12.728 36.3448 12.2663 35.883 11.6968 35.883C11.1273 35.883 10.6655 36.3448 10.6655 36.9143V41.9375H6.83193C6.91511 36.1225 7.71545 32.1655 9.27178 29.86C10.5853 27.9141 12.2778 27.4597 13.9145 27.0203C14.5944 26.8377 15.3028 26.6467 15.9642 26.3419L21.2497 31.9249C21.4439 32.1301 21.7052 32.2336 21.9671 32.2336C21.9781 32.2336 21.9891 32.2324 22.0001 32.2321C22.0111 32.2324 22.0221 32.2336 22.0331 32.2336C22.2949 32.2336 22.5563 32.1301 22.7505 31.9249L28.036 26.3419C28.6973 26.6467 29.4057 26.8377 30.0857 27.0203C31.7223 27.4597 33.4149 27.9141 34.7284 29.86C36.2846 32.1655 37.085 36.1225 37.1682 41.9375H33.3344Z" fill="#AE9989"/>
        </g>
        <defs>
            <clipPath id="clip0_310_479">
                <rect width="44" height="44" fill="white"/>
            </clipPath>
        </defs>
    </svg>

    <svg id="woman" width="44" height="44" viewBox="0 0 44 44" fill="none" xmlns="http://www.w3.org/2000/svg">
        <path d="M35.9028 27.5851C34.9746 26.8412 33.8882 26.3806 32.7902 26.0431V10.6498C32.7902 7.37249 31.614 4.60977 29.3888 2.66028C27.4307 0.944797 24.8066 0 21.9999 0C19.1932 0 16.5691 0.944797 14.611 2.6602C12.3857 4.60969 11.2096 7.37241 11.2096 10.6497V26.043C10.1116 26.3806 9.0253 26.8411 8.097 27.585C6.29919 29.0257 5.42529 31.231 5.42529 34.3266V42.9688C5.42529 43.5383 5.88704 44 6.45654 44H37.5434C38.1129 44 38.5747 43.5383 38.5747 42.9688V34.3267C38.5746 31.2311 37.7007 29.0258 35.9028 27.5851ZM13.272 10.6498C13.272 4.74977 17.7963 2.0625 21.9999 2.0625C24.3065 2.0625 26.4478 2.82571 28.0298 4.21154C29.7949 5.7579 30.7278 7.98411 30.7278 10.6497V25.5098C30.7018 25.5038 30.6754 25.4975 30.6494 25.4916C27.7 24.8087 26.1355 24.3369 25.9311 22.0018C26.4816 21.4922 26.9879 20.874 27.4384 20.1544C28.9697 17.7085 29.7791 14.1721 29.7791 9.92784C29.7791 9.38919 29.3647 8.94137 28.8276 8.89969C27.0438 8.76133 25.3409 7.99812 24.0326 6.75048C23.7938 6.52274 23.4602 6.42314 23.1357 6.48235C22.8111 6.54156 22.5344 6.75262 22.3914 7.05006C21.0861 9.76594 18.3081 11.5208 15.3141 11.5209L15.2592 11.5207C14.9855 11.5171 14.7203 11.6266 14.5253 11.8201C14.3303 12.0137 14.2207 12.2771 14.2207 12.5519C14.2207 15.7971 14.9904 18.5951 16.4464 20.6434C16.9159 21.3038 17.4505 21.8684 18.0304 22.3269C17.7113 24.3837 16.1579 24.8414 13.3504 25.4915C13.3245 25.4974 13.2981 25.5037 13.2721 25.5097V10.6498H13.272ZM25.6902 19.0601C24.645 20.7298 23.2644 21.6493 21.8023 21.6491C21.8022 21.6491 21.8019 21.6491 21.8018 21.6491C19.2783 21.6488 16.6054 18.8124 16.3101 13.5321C19.273 13.2266 21.973 11.5734 23.6091 9.07852C24.8249 9.96583 26.2285 10.5678 27.7036 10.8323C27.5772 15.1492 26.5559 17.6774 25.6902 19.0601ZM19.9063 23.3784C20.5206 23.5971 21.1577 23.7115 21.8015 23.7116H21.8024C22.5843 23.7116 23.3409 23.551 24.0565 23.2419C24.3785 24.4729 25.0723 25.4167 26.1608 26.1054C26.8334 26.531 27.6082 26.8228 28.4157 27.057C27.5503 30.2131 24.645 31.636 21.9998 31.636C19.3546 31.636 16.4494 30.213 15.5839 27.057C16.3914 26.8227 17.1662 26.531 17.8389 26.1054C18.8868 25.4423 19.5695 24.5431 19.9063 23.3784ZM36.5121 41.9375H32.7902V36.3975C32.7902 35.8279 32.3285 35.3662 31.759 35.3662C31.1894 35.3662 30.7277 35.8279 30.7277 36.3975V41.9375H13.272V36.3975C13.272 35.8279 12.8102 35.3662 12.2407 35.3662C11.6712 35.3662 11.2095 35.8279 11.2095 36.3975V41.9375H7.48771V34.3267C7.48771 29.0896 10.2867 28.3209 13.5819 27.5552C14.0634 29.3587 15.0803 30.8718 16.5571 31.9649C18.0676 33.0828 20.0005 33.6986 21.9998 33.6986C23.9991 33.6986 25.9321 33.0828 27.4425 31.9649C28.9193 30.8717 29.9362 29.3588 30.4177 27.5552C33.713 28.3209 36.5121 29.0895 36.5121 34.3267V41.9375Z" fill="#AE9989"/>
    </svg>

    <svg id="emblem" width="50" height="50" viewBox="0 0 50 50" fill="none" xmlns="http://www.w3.org/2000/svg">
        <path d="M20.8696 50L20.0543 49.1848C20 49.1305 16.7935 45.9783 11.5217 45.9783H6.68478C2.98913 45.9783 0 42.2283 0 37.6631V1.19568H36.1413V3.58698H2.44565V37.6631C2.44565 40.9239 4.34783 43.5326 6.68478 43.5326H11.5217C16.1957 43.5326 19.5109 45.5979 20.9239 46.7392C22.4457 45.5979 25.8696 43.5326 30.2717 43.5326H35.1087C37.4457 43.5326 39.3478 40.8696 39.3478 37.6631V25H41.8478V37.6631C41.8478 42.2283 38.8587 45.9783 35.163 45.9783H30.3261C25.3804 45.9783 21.7935 49.1848 21.7391 49.2392L20.8696 50Z" fill="#C62828"/>
        <path d="M20.8154 33.9674L7.4458 21.6848L9.07624 19.9457L20.6523 30.5435L47.7175 0L49.5654 1.63043L20.8154 33.9674Z" fill="#244B90"/>
    </svg>

    <svg id="facebook" width="32" height="32" viewBox="0 0 32 32" fill="none" xmlns="http://www.w3.org/2000/svg">
        <path d="M18.5016 29.1115V16.0542H22.106L22.5836 11.5546H18.5016L18.5077 9.30251C18.5077 8.12894 18.6192 7.50012 20.3048 7.50012H22.5581V3H18.9532C14.6232 3 13.0991 5.18279 13.0991 8.85357V11.5551H10.4V16.0547H13.0991V29.1115H18.5016Z" fill="#3B5998"/>
    </svg>

    <svg id="youtube" width="32" height="32" viewBox="0 0 32 32" fill="none" xmlns="http://www.w3.org/2000/svg">
        <path fill-rule="evenodd" clip-rule="evenodd" d="M25.8016 7.54933C26.9031 7.85159 27.7706 8.74221 28.065 9.87322C28.6 11.923 28.6 16.2 28.6 16.2C28.6 16.2 28.6 20.4768 28.065 22.5268C27.7706 23.6578 26.9031 24.5484 25.8016 24.8508C23.8054 25.4 15.8 25.4 15.8 25.4C15.8 25.4 7.79462 25.4 5.79825 24.8508C4.69673 24.5484 3.82924 23.6578 3.53484 22.5268C3 20.4768 3 16.2 3 16.2C3 16.2 3 11.923 3.53484 9.87322C3.82924 8.74221 4.69673 7.85159 5.79825 7.54933C7.79462 7 15.8 7 15.8 7C15.8 7 23.8054 7 25.8016 7.54933ZM13.4 12.6001V20.6001L19.8 16.6003L13.4 12.6001Z" fill="#FF0000"/>
    </svg>

    <svg id="ok" width="32" height="32" viewBox="0 0 32 32" fill="none" xmlns="http://www.w3.org/2000/svg">
        <path d="M18.596 21.4403L22.1826 24.9028C22.9174 25.6106 22.9174 26.7601 22.1826 27.4686C21.4486 28.1771 20.259 28.1771 19.5257 27.4686L15.9993 24.0661L12.476 27.4686C12.1086 27.8225 11.6272 27.9996 11.1458 27.9996C10.6652 27.9996 10.1846 27.8225 9.81719 27.4686C9.0832 26.7601 9.0832 25.6113 9.81643 24.9028L13.4035 21.4403C12.0975 21.1531 10.838 20.6536 9.67784 19.951C8.79989 19.4167 8.53616 18.2972 9.08934 17.449C9.64099 16.5996 10.8011 16.3439 11.6806 16.8783C14.3072 18.4732 17.6907 18.4736 20.3188 16.8783C21.1983 16.3439 22.3581 16.5996 22.9109 17.449C23.464 18.2964 23.1995 19.4167 22.3216 19.951C21.1615 20.6543 19.9019 21.1531 18.596 21.4403Z" fill="#F68634"/>
        <path fill-rule="evenodd" clip-rule="evenodd" d="M9.56775 10.1936C9.56775 13.6079 12.4454 16.3853 15.9837 16.3853C19.5227 16.3853 22.3996 13.6079 22.3996 10.1936C22.3996 6.77811 19.5227 4 15.9837 4C12.4454 4 9.56775 6.77811 9.56775 10.1936ZM18.6402 10.1938C18.6402 8.77974 17.4486 7.62988 15.9837 7.62988C14.5199 7.62988 13.3272 8.77974 13.3272 10.1938C13.3272 11.6068 14.5199 12.7574 15.9837 12.7574C17.4486 12.7574 18.6402 11.6068 18.6402 10.1938Z" fill="#F68634"/>
    </svg>

    <svg id="car" width="37" height="36" viewBox="0 0 37 36" fill="none" xmlns="http://www.w3.org/2000/svg">
        <path d="M2.75 16.875H34.25" stroke-width="2" stroke-linecap="round" stroke-linejoin="round"/>
        <path d="M32 25.875V29.25C32 29.5484 31.8815 29.8345 31.6705 30.0455C31.4595 30.2565 31.1734 30.375 30.875 30.375H27.5C27.2016 30.375 26.9155 30.2565 26.7045 30.0455C26.4935 29.8345 26.375 29.5484 26.375 29.25V25.875" stroke-width="2" stroke-linecap="round" stroke-linejoin="round"/>
        <path d="M10.625 25.875V29.25C10.625 29.5484 10.5065 29.8345 10.2955 30.0455C10.0845 30.2565 9.79837 30.375 9.5 30.375H6.125C5.82663 30.375 5.54048 30.2565 5.32951 30.0455C5.11853 29.8345 5 29.5484 5 29.25V25.875" stroke-width="2" stroke-linecap="round" stroke-linejoin="round"/>
        <path d="M9.5 21.375H11.75" stroke-width="2" stroke-linecap="round" stroke-linejoin="round"/>
        <path d="M25.25 21.375H27.5" stroke-width="2" stroke-linecap="round" stroke-linejoin="round"/>
        <path d="M32 16.875L27.7969 7.41809C27.7085 7.21923 27.5644 7.05028 27.3819 6.9317C27.1995 6.81311 26.9865 6.75 26.7689 6.75H10.2311C10.0135 6.75 9.80055 6.81311 9.61808 6.9317C9.43561 7.05028 9.29145 7.21923 9.20307 7.41809L5 16.875V25.875H32V16.875Z" stroke-width="2" stroke-linecap="round" stroke-linejoin="round"/>
    </svg>

    <svg id="train" width="36" height="36" viewBox="0 0 36 36" fill="none" xmlns="http://www.w3.org/2000/svg">
        <path d="M6.1875 18H29.8125" stroke-width="2" stroke-linecap="round" stroke-linejoin="round"/>
        <path d="M13.5 29.25L10.125 33.75" stroke-width="2" stroke-linecap="round" stroke-linejoin="round"/>
        <path d="M22.5 29.25L25.875 33.75" stroke-width="2" stroke-linecap="round" stroke-linejoin="round"/>
        <path d="M26.4375 4.5H9.5625C7.69854 4.5 6.1875 6.01104 6.1875 7.875V25.875C6.1875 27.739 7.69854 29.25 9.5625 29.25H26.4375C28.3015 29.25 29.8125 27.739 29.8125 25.875V7.875C29.8125 6.01104 28.3015 4.5 26.4375 4.5Z" stroke-width="2" stroke-linecap="round" stroke-linejoin="round"/>
        <path d="M12.5 24.1875C12.5 24.5672 12.1922 24.875 11.8125 24.875C11.4328 24.875 11.125 24.5672 11.125 24.1875C11.125 23.8078 11.4328 23.5 11.8125 23.5C12.1922 23.5 12.5 23.8078 12.5 24.1875Z" stroke-width="2"/>
        <path d="M24.875 24.1875C24.875 24.5672 24.5672 24.875 24.1875 24.875C23.8078 24.875 23.5 24.5672 23.5 24.1875C23.5 23.8078 23.8078 23.5 24.1875 23.5C24.5672 23.5 24.875 23.8078 24.875 24.1875Z" stroke-width="2"/>
    </svg>

    <svg id="bus" width="36" height="36" viewBox="0 0 36 36" fill="none" xmlns="http://www.w3.org/2000/svg">
        <path d="M5.90625 10.125H30.0938" stroke-width="2" stroke-linecap="round" stroke-linejoin="round"/>
        <path d="M5.90625 16.875H30.0938" stroke-width="2" stroke-linecap="round" stroke-linejoin="round"/>
        <path d="M30.0938 27H5.90625V9C5.90625 8.10489 6.26183 7.24645 6.89476 6.61351C7.5277 5.98058 8.38614 5.625 9.28125 5.625H26.7188C27.6139 5.625 28.4723 5.98058 29.1052 6.61351C29.7382 7.24645 30.0937 8.10489 30.0938 9V27Z" stroke-width="2" stroke-linecap="round" stroke-linejoin="round"/>
        <path d="M30.0938 27V30.375C30.0938 30.6734 29.9752 30.9595 29.7642 31.1705C29.5533 31.3815 29.2671 31.5 28.9688 31.5H25.5938C25.2954 31.5 25.0092 31.3815 24.7983 31.1705C24.5873 30.9595 24.4688 30.6734 24.4688 30.375V27" stroke-width="2" stroke-linecap="round" stroke-linejoin="round"/>
        <path d="M11.5312 27V30.375C11.5312 30.6734 11.4127 30.9595 11.2017 31.1705C10.9908 31.3815 10.7046 31.5 10.4062 31.5H7.03125C6.73288 31.5 6.44673 31.3815 6.23576 31.1705C6.02478 30.9595 5.90625 30.6734 5.90625 30.375V27" stroke-width="2" stroke-linecap="round" stroke-linejoin="round"/>
        <path d="M12.5 21.9375C12.5 22.3172 12.1922 22.625 11.8125 22.625C11.4328 22.625 11.125 22.3172 11.125 21.9375C11.125 21.5578 11.4328 21.25 11.8125 21.25C12.1922 21.25 12.5 21.5578 12.5 21.9375Z" stroke-width="2"/>
        <path d="M24.1875 23.625C25.1195 23.625 25.875 22.8695 25.875 21.9375C25.875 21.0055 25.1195 20.25 24.1875 20.25C23.2555 20.25 22.5 21.0055 22.5 21.9375C22.5 22.8695 23.2555 23.625 24.1875 23.625Z"/>
    </svg>

    <svg id="urna" width="48" height="64" viewBox="0 0 48 64" fill="none" xmlns="http://www.w3.org/2000/svg">
        <path fill-rule="evenodd" clip-rule="evenodd" d="M22.9564 0.191858C22.374 0.507301 10.4663 10.4561 10.1579 10.8848C9.88144 11.2691 9.87657 11.3399 9.87657 14.9292V18.5822L9.22243 18.8541C6.15676 20.1282 3.25451 22.8773 1.68692 25.9922C-0.0315716 29.407 -0.454038 33.2767 0.497542 36.889C0.838241 38.1823 9.95196 62.87 10.2291 63.2502C10.3544 63.4221 10.6499 63.6612 10.8857 63.7813C11.2854 63.9851 12.1578 64 23.7546 64C35.3513 64 36.2237 63.9851 36.6235 63.7813C36.8593 63.6612 37.1547 63.4221 37.28 63.2502C37.5572 62.87 46.6709 38.1823 47.0116 36.889C47.7574 34.0579 47.6436 30.863 46.6965 28.042C46.0414 26.0903 44.806 24.0217 43.3258 22.3984C42.3194 21.2947 40.3873 19.8817 38.9041 19.1648L37.6383 18.5531L37.6354 14.9238C37.6326 11.3626 37.6273 11.287 37.3512 10.8995C37.0277 10.4453 25.1027 0.483296 24.5249 0.184482C24.044 -0.0641969 23.4237 -0.0611962 22.9564 0.191858ZM27.2122 7.18099L30.5123 9.92621L27.1334 9.95947C25.275 9.97772 22.2344 9.97772 20.3762 9.95947L16.998 9.92621L20.3417 7.14323C22.1808 5.61265 23.7366 4.37739 23.7988 4.39814C23.8612 4.4189 25.3972 5.67117 27.2122 7.18099ZM33.8817 15.9275V18.1155H23.7546H13.6274V15.9275V13.7395H23.7546H33.8817V15.9275ZM36.7574 22.2791C39.2762 23.3799 41.4145 25.4644 42.6274 28.0016C43.3394 29.4908 43.645 30.7673 43.7251 32.5873L43.7926 34.1189H23.7546H3.71649L3.784 32.5873C3.86414 30.7673 4.16971 29.4908 4.88174 28.0016C6.10525 25.4423 8.26072 23.3594 10.842 22.2421L11.6895 21.8753L23.7546 21.8723L35.8197 21.8693L36.7574 22.2791ZM42.4522 38.678C42.2849 39.1226 41.7649 40.5288 41.2968 41.8028L40.4457 44.1195H23.7546H7.06346L6.21228 41.8028C5.74417 40.5288 5.22419 39.1226 5.0569 38.678L4.75258 37.8697H23.7546H42.7565L42.4522 38.678ZM39.0079 47.9362C39.0079 47.9897 35.6467 57.1601 34.7583 59.5307L34.4889 60.2496H23.7546H13.0202L12.7508 59.5307C11.8624 57.1601 8.50127 47.9897 8.50127 47.9362C8.50127 47.9008 15.3653 47.8719 23.7546 47.8719C32.1439 47.8719 39.0079 47.9008 39.0079 47.9362Z" fill="#AE9989"/>
    </svg>
</svg>
