<svg width="264" height="398" viewBox="0 0 264 398" fill="none" xmlns="http://www.w3.org/2000/svg">
<rect x="126" width="4" height="398" fill="#B9E931"/>
<rect x="118" width="4" height="398" fill="white"/>
<rect x="134" width="4" height="398" fill="#006CFF"/>
<rect x="142" width="4" height="398" fill="#DB00FF"/>
<rect y="264" width="101" height="101" rx="20" fill="#B9E931"/>
<rect x="3" y="17" width="101" height="101" rx="20" fill="white"/>
<path d="M33.9766 71.375C33.3672 70.625 33.0625 69.8984 33.0625 69.1953C33.0625 68.4453 33.3438 67.625 33.9062 66.7344C34.5156 65.7969 35.4062 65.3281 36.5781 65.3281H50.6406V51.2656C50.6406 50.5156 50.9922 49.7422 51.6953 48.9453C52.3984 48.1484 53.1953 47.75 54.0859 47.75C54.9766 47.75 55.7969 48.0547 56.5469 48.6641C57.2969 49.2734 57.6719 50.1406 57.6719 51.2656V65.3281H71.7344C72.5781 65.3281 73.375 65.7031 74.125 66.4531C74.875 67.2031 75.25 68 75.25 68.8438C75.25 69.6875 74.9453 70.4844 74.3359 71.2344C73.7266 71.9844 72.8594 72.3594 71.7344 72.3594H57.6719V86.4219C57.6719 88.7656 56.5 89.9375 54.1562 89.9375C53.7344 89.9375 52.9141 89.6562 51.6953 89.0938C50.9922 88.5312 50.6406 87.6406 50.6406 86.4219V72.3594H36.5781C35.5 72.3594 34.6328 72.0312 33.9766 71.375Z" fill="#006CFF"/>
<path d="M33.9766 71.375L33.2004 72.0056L33.233 72.0456L33.2695 72.0821L33.9766 71.375ZM33.9062 66.7344L33.0677 66.1893L33.0608 66.2004L33.9062 66.7344ZM50.6406 65.3281V66.3281H51.6406V65.3281H50.6406ZM57.6719 65.3281H56.6719V66.3281H57.6719V65.3281ZM57.6719 72.3594V71.3594H56.6719V72.3594H57.6719ZM51.6953 89.0938L51.0706 89.8746L51.1657 89.9507L51.2763 90.0017L51.6953 89.0938ZM50.6406 72.3594H51.6406V71.3594H50.6406V72.3594ZM34.7527 70.7444C34.2343 70.1064 34.0625 69.5959 34.0625 69.1953H32.0625C32.0625 70.201 32.5 71.1436 33.2004 72.0056L34.7527 70.7444ZM34.0625 69.1953C34.0625 68.6961 34.2511 68.061 34.7517 67.2684L33.0608 66.2004C32.4364 67.189 32.0625 68.1945 32.0625 69.1953H34.0625ZM34.7447 67.2794C35.1592 66.6417 35.7252 66.3281 36.5781 66.3281V64.3281C35.0873 64.3281 33.872 64.9521 33.0678 66.1894L34.7447 67.2794ZM36.5781 66.3281H50.6406V64.3281H36.5781V66.3281ZM51.6406 65.3281V51.2656H49.6406V65.3281H51.6406ZM51.6406 51.2656C51.6406 50.8441 51.8366 50.2967 52.4452 49.6069L50.9455 48.2837C50.1478 49.1877 49.6406 50.1872 49.6406 51.2656H51.6406ZM52.4452 49.6069C52.9986 48.9797 53.5378 48.75 54.0859 48.75V46.75C52.8528 46.75 51.7983 47.3172 50.9455 48.2837L52.4452 49.6069ZM54.0859 48.75C54.7268 48.75 55.3283 48.9625 55.9163 49.4402L57.1775 47.8879C56.2654 47.1469 55.2263 46.75 54.0859 46.75V48.75ZM55.9163 49.4402C56.3928 49.8273 56.6719 50.3865 56.6719 51.2656H58.6719C58.6719 49.8948 58.201 48.7195 57.1775 47.8879L55.9163 49.4402ZM56.6719 51.2656V65.3281H58.6719V51.2656H56.6719ZM57.6719 66.3281H71.7344V64.3281H57.6719V66.3281ZM71.7344 66.3281C72.2488 66.3281 72.8046 66.5469 73.4179 67.1602L74.8321 65.746C73.9454 64.8593 72.9075 64.3281 71.7344 64.3281V66.3281ZM73.4179 67.1602C74.0312 67.7735 74.25 68.3294 74.25 68.8438H76.25C76.25 67.6706 75.7188 66.6327 74.8321 65.746L73.4179 67.1602ZM74.25 68.8438C74.25 69.425 74.0465 70.0047 73.5598 70.6038L75.1121 71.865C75.8441 70.964 76.25 69.95 76.25 68.8438H74.25ZM73.5598 70.6038C73.1727 71.0803 72.6135 71.3594 71.7344 71.3594V73.3594C73.1052 73.3594 74.2805 72.8885 75.1121 71.865L73.5598 70.6038ZM71.7344 71.3594H57.6719V73.3594H71.7344V71.3594ZM56.6719 72.3594V86.4219H58.6719V72.3594H56.6719ZM56.6719 86.4219C56.6719 87.4396 56.4181 88.0192 56.0859 88.3515C55.7536 88.6837 55.174 88.9375 54.1562 88.9375V90.9375C55.4823 90.9375 56.6605 90.6053 57.5001 89.7657C58.3397 88.9261 58.6719 87.7479 58.6719 86.4219H56.6719ZM54.1562 88.9375C54.1575 88.9375 54.1442 88.9375 54.113 88.9333C54.0824 88.9292 54.0405 88.9218 53.986 88.9095C53.8756 88.8845 53.7313 88.8431 53.5489 88.7806C53.1834 88.6553 52.7076 88.4596 52.1144 88.1858L51.2763 90.0017C51.9018 90.2904 52.4455 90.5166 52.9003 90.6725C53.3286 90.8194 53.7707 90.9375 54.1562 90.9375V88.9375ZM52.32 88.3129C51.931 88.0017 51.6406 87.4513 51.6406 86.4219H49.6406C49.6406 87.8299 50.0533 89.0608 51.0706 89.8746L52.32 88.3129ZM51.6406 86.4219V72.3594H49.6406V86.4219H51.6406ZM50.6406 71.3594H36.5781V73.3594H50.6406V71.3594ZM36.5781 71.3594C35.7189 71.3594 35.122 71.1062 34.6837 70.6679L33.2695 72.0821C34.1437 72.9563 35.2811 73.3594 36.5781 73.3594V71.3594Z" fill="#006CFF"/>
<rect x="163" y="143" width="101" height="101" rx="20" fill="#DB00FF"/>
<rect x="196" y="297" width="35" height="35" rx="10" fill="white"/>
<rect x="199" y="50" width="35" height="35" rx="10" fill="#B9E931"/>
<rect x="33" y="176" width="35" height="35" rx="10" fill="#006CFF"/>
<path d="M203.203 316.18C202.031 316.18 201.445 315.594 201.445 314.422C201.445 313.25 202.031 312.664 203.203 312.664H224.297C225.469 312.664 226.055 313.25 226.055 314.422C226.055 315.594 225.469 316.18 224.297 316.18H203.203Z" fill="#006CFF"/>
<path d="M40.2031 195.18C39.0312 195.18 38.4453 194.594 38.4453 193.422C38.4453 192.25 39.0312 191.664 40.2031 191.664H61.2969C62.4688 191.664 63.0547 192.25 63.0547 193.422C63.0547 194.594 62.4688 195.18 61.2969 195.18H40.2031Z" fill="white"/>
<path d="M205.203 69.1797C204.031 69.1797 203.445 68.5938 203.445 67.4219C203.445 66.25 204.031 65.6641 205.203 65.6641H226.297C227.469 65.6641 228.055 66.25 228.055 67.4219C228.055 68.5938 227.469 69.1797 226.297 69.1797H205.203Z" fill="#006CFF"/>
<path d="M193.977 196.375C193.367 195.625 193.062 194.898 193.062 194.195C193.062 193.445 193.344 192.625 193.906 191.734C194.516 190.797 195.406 190.328 196.578 190.328H210.641V176.266C210.641 175.516 210.992 174.742 211.695 173.945C212.398 173.148 213.195 172.75 214.086 172.75C214.977 172.75 215.797 173.055 216.547 173.664C217.297 174.273 217.672 175.141 217.672 176.266V190.328H231.734C232.578 190.328 233.375 190.703 234.125 191.453C234.875 192.203 235.25 193 235.25 193.844C235.25 194.688 234.945 195.484 234.336 196.234C233.727 196.984 232.859 197.359 231.734 197.359H217.672V211.422C217.672 213.766 216.5 214.938 214.156 214.938C213.734 214.938 212.914 214.656 211.695 214.094C210.992 213.531 210.641 212.641 210.641 211.422V197.359H196.578C195.5 197.359 194.633 197.031 193.977 196.375Z" fill="white"/>
<path d="M193.977 196.375L193.2 197.006L193.233 197.046L193.269 197.082L193.977 196.375ZM193.906 191.734L193.068 191.189L193.061 191.2L193.906 191.734ZM210.641 190.328V191.328H211.641V190.328H210.641ZM217.672 190.328H216.672V191.328H217.672V190.328ZM217.672 197.359V196.359H216.672V197.359H217.672ZM211.695 214.094L211.071 214.875L211.166 214.951L211.276 215.002L211.695 214.094ZM210.641 197.359H211.641V196.359H210.641V197.359ZM194.753 195.744C194.234 195.106 194.062 194.596 194.062 194.195H192.062C192.062 195.201 192.5 196.144 193.2 197.006L194.753 195.744ZM194.062 194.195C194.062 193.696 194.251 193.061 194.752 192.268L193.061 191.2C192.436 192.189 192.062 193.194 192.062 194.195H194.062ZM194.745 192.279C195.159 191.642 195.725 191.328 196.578 191.328V189.328C195.087 189.328 193.872 189.952 193.068 191.189L194.745 192.279ZM196.578 191.328H210.641V189.328H196.578V191.328ZM211.641 190.328V176.266H209.641V190.328H211.641ZM211.641 176.266C211.641 175.844 211.837 175.297 212.445 174.607L210.945 173.284C210.148 174.188 209.641 175.187 209.641 176.266H211.641ZM212.445 174.607C212.999 173.98 213.538 173.75 214.086 173.75V171.75C212.853 171.75 211.798 172.317 210.945 173.284L212.445 174.607ZM214.086 173.75C214.727 173.75 215.328 173.962 215.916 174.44L217.177 172.888C216.265 172.147 215.226 171.75 214.086 171.75V173.75ZM215.916 174.44C216.393 174.827 216.672 175.386 216.672 176.266H218.672C218.672 174.895 218.201 173.72 217.177 172.888L215.916 174.44ZM216.672 176.266V190.328H218.672V176.266H216.672ZM217.672 191.328H231.734V189.328H217.672V191.328ZM231.734 191.328C232.249 191.328 232.805 191.547 233.418 192.16L234.832 190.746C233.945 189.859 232.907 189.328 231.734 189.328V191.328ZM233.418 192.16C234.031 192.774 234.25 193.329 234.25 193.844H236.25C236.25 192.671 235.719 191.633 234.832 190.746L233.418 192.16ZM234.25 193.844C234.25 194.425 234.047 195.005 233.56 195.604L235.112 196.865C235.844 195.964 236.25 194.95 236.25 193.844H234.25ZM233.56 195.604C233.173 196.08 232.614 196.359 231.734 196.359V198.359C233.105 198.359 234.28 197.888 235.112 196.865L233.56 195.604ZM231.734 196.359H217.672V198.359H231.734V196.359ZM216.672 197.359V211.422H218.672V197.359H216.672ZM216.672 211.422C216.672 212.44 216.418 213.019 216.086 213.351C215.754 213.684 215.174 213.938 214.156 213.938V215.938C215.482 215.938 216.66 215.605 217.5 214.766C218.34 213.926 218.672 212.748 218.672 211.422H216.672ZM214.156 213.938C214.158 213.938 214.144 213.937 214.113 213.933C214.082 213.929 214.041 213.922 213.986 213.909C213.876 213.884 213.731 213.843 213.549 213.781C213.183 213.655 212.708 213.46 212.114 213.186L211.276 215.002C211.902 215.29 212.446 215.517 212.9 215.673C213.329 215.819 213.771 215.938 214.156 215.938V213.938ZM212.32 213.313C211.931 213.002 211.641 212.451 211.641 211.422H209.641C209.641 212.83 210.053 214.061 211.071 214.875L212.32 213.313ZM211.641 211.422V197.359H209.641V211.422H211.641ZM210.641 196.359H196.578V198.359H210.641V196.359ZM196.578 196.359C195.719 196.359 195.122 196.106 194.684 195.668L193.269 197.082C194.144 197.956 195.281 198.359 196.578 198.359V196.359Z" fill="white"/>
<path d="M30.9766 315.375C30.3672 314.625 30.0625 313.898 30.0625 313.195C30.0625 312.445 30.3438 311.625 30.9062 310.734C31.5156 309.797 32.4062 309.328 33.5781 309.328H47.6406V295.266C47.6406 294.516 47.9922 293.742 48.6953 292.945C49.3984 292.148 50.1953 291.75 51.0859 291.75C51.9766 291.75 52.7969 292.055 53.5469 292.664C54.2969 293.273 54.6719 294.141 54.6719 295.266V309.328H68.7344C69.5781 309.328 70.375 309.703 71.125 310.453C71.875 311.203 72.25 312 72.25 312.844C72.25 313.688 71.9453 314.484 71.3359 315.234C70.7266 315.984 69.8594 316.359 68.7344 316.359H54.6719V330.422C54.6719 332.766 53.5 333.938 51.1562 333.938C50.7344 333.938 49.9141 333.656 48.6953 333.094C47.9922 332.531 47.6406 331.641 47.6406 330.422V316.359H33.5781C32.5 316.359 31.6328 316.031 30.9766 315.375Z" fill="white"/>
<path d="M30.9766 315.375L30.2004 316.006L30.233 316.046L30.2695 316.082L30.9766 315.375ZM30.9062 310.734L30.0677 310.189L30.0608 310.2L30.9062 310.734ZM47.6406 309.328V310.328H48.6406V309.328H47.6406ZM54.6719 309.328H53.6719V310.328H54.6719V309.328ZM54.6719 316.359V315.359H53.6719V316.359H54.6719ZM48.6953 333.094L48.0706 333.875L48.1657 333.951L48.2763 334.002L48.6953 333.094ZM47.6406 316.359H48.6406V315.359H47.6406V316.359ZM31.7527 314.744C31.2343 314.106 31.0625 313.596 31.0625 313.195H29.0625C29.0625 314.201 29.5 315.144 30.2004 316.006L31.7527 314.744ZM31.0625 313.195C31.0625 312.696 31.2511 312.061 31.7517 311.268L30.0608 310.2C29.4364 311.189 29.0625 312.194 29.0625 313.195H31.0625ZM31.7447 311.279C32.1592 310.642 32.7252 310.328 33.5781 310.328V308.328C32.0873 308.328 30.872 308.952 30.0678 310.189L31.7447 311.279ZM33.5781 310.328H47.6406V308.328H33.5781V310.328ZM48.6406 309.328V295.266H46.6406V309.328H48.6406ZM48.6406 295.266C48.6406 294.844 48.8366 294.297 49.4452 293.607L47.9455 292.284C47.1478 293.188 46.6406 294.187 46.6406 295.266H48.6406ZM49.4452 293.607C49.9986 292.98 50.5378 292.75 51.0859 292.75V290.75C49.8528 290.75 48.7983 291.317 47.9455 292.284L49.4452 293.607ZM51.0859 292.75C51.7268 292.75 52.3283 292.962 52.9163 293.44L54.1775 291.888C53.2654 291.147 52.2263 290.75 51.0859 290.75V292.75ZM52.9163 293.44C53.3928 293.827 53.6719 294.386 53.6719 295.266H55.6719C55.6719 293.895 55.201 292.72 54.1775 291.888L52.9163 293.44ZM53.6719 295.266V309.328H55.6719V295.266H53.6719ZM54.6719 310.328H68.7344V308.328H54.6719V310.328ZM68.7344 310.328C69.2488 310.328 69.8046 310.547 70.4179 311.16L71.8321 309.746C70.9454 308.859 69.9075 308.328 68.7344 308.328V310.328ZM70.4179 311.16C71.0312 311.774 71.25 312.329 71.25 312.844H73.25C73.25 311.671 72.7188 310.633 71.8321 309.746L70.4179 311.16ZM71.25 312.844C71.25 313.425 71.0465 314.005 70.5598 314.604L72.1121 315.865C72.8441 314.964 73.25 313.95 73.25 312.844H71.25ZM70.5598 314.604C70.1727 315.08 69.6135 315.359 68.7344 315.359V317.359C70.1052 317.359 71.2805 316.888 72.1121 315.865L70.5598 314.604ZM68.7344 315.359H54.6719V317.359H68.7344V315.359ZM53.6719 316.359V330.422H55.6719V316.359H53.6719ZM53.6719 330.422C53.6719 331.44 53.4181 332.019 53.0859 332.351C52.7536 332.684 52.174 332.938 51.1562 332.938V334.938C52.4823 334.938 53.6605 334.605 54.5001 333.766C55.3397 332.926 55.6719 331.748 55.6719 330.422H53.6719ZM51.1562 332.938C51.1575 332.938 51.1442 332.937 51.113 332.933C51.0824 332.929 51.0405 332.922 50.986 332.909C50.8756 332.884 50.7313 332.843 50.5489 332.781C50.1834 332.655 49.7076 332.46 49.1144 332.186L48.2763 334.002C48.9018 334.29 49.4455 334.517 49.9003 334.673C50.3286 334.819 50.7707 334.938 51.1562 334.938V332.938ZM49.32 332.313C48.931 332.002 48.6406 331.451 48.6406 330.422H46.6406C46.6406 331.83 47.0533 333.061 48.0706 333.875L49.32 332.313ZM48.6406 330.422V316.359H46.6406V330.422H48.6406ZM47.6406 315.359H33.5781V317.359H47.6406V315.359ZM33.5781 315.359C32.7189 315.359 32.122 315.106 31.6837 314.668L30.2695 316.082C31.1437 316.956 32.2811 317.359 33.5781 317.359V315.359Z" fill="white"/>
</svg>