<svg width="528" height="263" viewBox="0 0 528 263" fill="none" xmlns="http://www.w3.org/2000/svg">
    <path d="M264.008 287.587C520.038 287.587 727.592 217.931 727.592 132.007C727.592 46.083 520.038 -23.5723 264.008 -23.5723C7.97749 -23.5723 -199.576 46.083 -199.576 132.007C-199.576 217.931 7.97749 287.587 264.008 287.587Z" fill="black" stroke="#006CFF" stroke-width="4" stroke-miterlimit="10"/>
    <path d="M699.046 145.821C701.537 65.1168 508.619 -6.34163 268.151 -13.786C27.6834 -21.2303 -169.274 38.1585 -171.766 118.863C-174.258 199.567 18.6605 271.025 259.128 278.469C499.596 285.914 696.554 226.525 699.046 145.821Z" fill="black" stroke="#B9E931" stroke-width="4" stroke-miterlimit="10"/>
    <path d="M670.583 159.713C675.577 84.229 497.296 10.9424 272.381 -3.97761C47.4658 -18.8976 -138.912 30.1988 -143.905 105.682C-148.899 181.166 29.3823 254.452 254.297 269.373C479.212 284.293 665.59 235.196 670.583 159.713Z" fill="black" stroke="#DB00FF" stroke-width="4" stroke-miterlimit="10"/>
    <path d="M642.105 173.517C649.592 103.253 485.928 28.1577 276.552 5.78731C67.1766 -16.5831 -108.625 22.2423 -116.112 92.5063C-123.599 162.77 40.0647 237.865 249.44 260.236C458.816 282.606 634.618 243.781 642.105 173.517Z" fill="black" stroke="white" stroke-width="4" stroke-miterlimit="10"/>
    <path d="M613.58 187.382C623.561 122.344 474.537 45.4405 280.725 15.6143C86.913 -14.212 -78.2945 14.3332 -88.2762 79.3719C-98.2579 144.411 50.7661 221.314 244.578 251.14C438.39 280.966 603.598 252.421 613.58 187.382Z" fill="black" stroke="#006CFF" stroke-width="4" stroke-miterlimit="10"/>
    <path d="M585.07 201.216C597.545 141.39 463.143 62.6758 284.875 25.4016C106.608 -11.8727 -48.0197 6.40849 -60.4944 66.2336C-72.9692 126.059 61.4325 204.773 239.7 242.048C417.968 279.322 572.595 261.041 585.07 201.216Z" fill="black" stroke="#B9E931" stroke-width="4" stroke-miterlimit="10"/>
    <path d="M556.53 215.059C571.498 160.455 451.733 79.933 289.028 35.2092C126.322 -9.51454 -17.7118 -1.50449 -32.6803 53.1002C-47.6488 107.705 72.1159 188.226 234.822 232.95C397.528 277.674 541.561 269.664 556.53 215.059Z" fill="black" stroke="#DB00FF" stroke-width="4" stroke-miterlimit="10"/>
    <path d="M528.013 228.911C545.478 179.525 440.352 97.1901 293.207 45.0109C146.062 -7.16829 12.6196 -9.43252 -4.84546 39.9536C-22.3105 89.3397 82.8157 171.675 229.961 223.854C377.105 276.033 510.548 278.297 528.013 228.911Z" fill="black" stroke="white" stroke-width="4" stroke-miterlimit="10"/>
    <path d="M499.555 242.719C519.513 198.555 429.006 114.408 297.402 54.7721C165.797 -4.86424 42.9317 -17.4071 22.9735 26.7568C3.01528 70.9207 93.5224 155.067 225.127 214.704C356.731 274.34 479.597 286.883 499.555 242.719Z" fill="black" stroke="#006CFF" stroke-width="4" stroke-miterlimit="10"/>
    <path d="M471.015 256.59C493.469 217.647 417.602 131.69 301.561 64.5998C185.52 -2.49001 73.2475 -25.307 50.7934 13.6367C28.3394 52.5803 104.206 138.537 220.247 205.627C336.288 272.717 448.56 295.534 471.015 256.59Z" fill="black" stroke="#B9E931" stroke-width="4" stroke-miterlimit="10"/>
    <path d="M454.727 239.496C474.02 203.569 402.886 127.717 295.843 70.0762C188.801 12.435 86.3856 -5.16788 67.0921 30.7591C47.7987 66.686 118.933 142.538 225.976 200.179C333.018 257.82 435.433 275.423 454.727 239.496Z" fill="black" stroke="#DB00FF" stroke-width="4" stroke-miterlimit="10"/>
    <path d="M438.463 222.372C454.591 189.466 388.176 123.723 290.12 75.5301C192.064 27.3375 99.4994 14.9449 83.371 47.8506C67.2426 80.7563 133.658 146.499 231.714 194.692C329.77 242.885 422.335 255.277 438.463 222.372Z" fill="black" stroke="white" stroke-width="4" stroke-miterlimit="10"/>
    <path d="M422.154 205.241C435.118 175.355 373.431 119.725 284.373 80.9889C195.315 42.2522 112.61 35.0773 99.6466 64.9631C86.6829 94.8489 148.37 150.478 237.428 189.215C326.486 227.952 409.191 235.127 422.154 205.241Z" fill="black" stroke="#006CFF" stroke-width="4" stroke-miterlimit="10"/>
    <path d="M405.869 188.119C415.671 161.248 358.711 115.725 278.645 86.4394C198.58 57.1537 125.729 55.1956 115.927 82.0659C106.125 108.936 163.086 154.459 243.151 183.745C323.216 213.031 396.068 214.989 405.869 188.119Z" fill="black" stroke="#B9E931" stroke-width="4" stroke-miterlimit="10"/>
    <path d="M389.595 171.009C396.235 147.156 344.003 111.738 272.932 91.9018C201.861 72.0653 138.865 75.3215 132.225 99.1749C125.586 123.028 177.817 158.446 248.888 178.283C319.959 198.119 382.955 194.863 389.595 171.009Z" fill="black" stroke="#DB00FF" stroke-width="4" stroke-miterlimit="10"/>
    <path d="M373.29 153.917C376.765 133.09 329.265 107.787 267.195 97.402C205.125 87.0167 151.99 95.4814 148.515 116.309C145.04 137.136 192.54 162.439 254.61 172.824C316.68 183.209 369.814 174.744 373.29 153.917Z" fill="black" stroke="white" stroke-width="4" stroke-miterlimit="10"/>
    <path d="M357.011 136.819C357.324 119.011 314.55 103.817 261.473 102.881C208.396 101.945 165.114 115.623 164.801 133.431C164.488 151.239 207.262 166.434 260.339 167.37C313.417 168.306 356.698 154.628 357.011 136.819Z" fill="black" stroke="#006CFF" stroke-width="4" stroke-miterlimit="10"/>
    <path d="M266.066 161.89C310.152 153.374 343.581 134.479 340.731 119.686C337.882 104.893 299.833 99.8043 255.747 108.32C211.661 116.835 178.232 135.73 181.081 150.523C183.931 165.316 221.98 170.405 266.066 161.89Z" fill="black" stroke="#B9E931" stroke-width="4" stroke-miterlimit="10"/>
    <path d="M271.781 156.413C306.863 138.448 330.427 114.337 324.412 102.559C318.397 90.7819 285.082 95.7983 250 113.764C214.918 131.729 191.354 155.84 197.369 167.618C203.384 179.395 236.699 174.379 271.781 156.413Z" fill="black" stroke="#DB00FF" stroke-width="4" stroke-miterlimit="10"/>
</svg>